<!-- Generator: Adobe Illustrator 24.0.3, SVG Export Plug-In  -->
<svg x="0px" y="0px"
	 width="444.26px" height="444.6px" viewBox="0 0 444.26 444.6" style="enable-background:new 0 0 444.26 444.6;"
	>
<style type="text/css">
	.st0{fill:#0097FF;}
</style>
<defs>
</defs>
<g>
	<path d="M434.91,288.58l-7.78,19.94c-1.53,3.89-5.59,6.17-9.7,5.44l-29.38-5.15c-5.14,9.87-11.11,19.17-17.83,27.84
		l16.37,26.67c2.18,3.57,1.55,8.17-1.51,11.02l-15.66,14.57c-3.07,2.85-7.71,3.14-11.1,0.72l-24.29-17.44
		c-8.82,6.6-18.22,12.41-28.11,17.36l3.19,31.15c0.41,4.17-2.15,8.04-6.14,9.28l-20.44,6.33c-4,1.25-8.3-0.51-10.32-4.17
		l-14.29-26.19c-10.71,2.1-21.71,3.26-32.88,3.42l-10.64,29.42c-1.43,3.93-5.42,6.32-9.55,5.7l-21.17-3.16
		c-4.13-0.62-7.25-4.07-7.47-8.24l-1.52-29.83c-10.83-2.8-21.23-6.56-31.11-11.14l-22.35,21.89c-2.98,2.93-7.62,3.34-11.07,0.99
		l-17.69-12.04c-3.47-2.35-4.79-6.81-3.16-10.65l11.58-27.54c-8.41-7.16-16.16-15.05-23.15-23.56l-29.69,10.04
		c-3.95,1.33-8.3-0.31-10.41-3.91L26.9,328.81c-2.09-3.62-1.35-8.21,1.78-10.98l22.39-19.76c-4.47-10.03-8.07-20.49-10.7-31.29
		l-31.05-3.84c-4.15-0.5-7.36-3.86-7.67-8.03l-1.63-21.35c-0.31-4.17,2.35-7.98,6.37-9.11l28.76-8.12
		c0.2-7.16,3.18-29.13,3.96-32.79l-26.34-16.95c-3.51-2.26-4.96-6.68-3.43-10.57l7.78-19.94c1.53-3.89,5.59-6.17,9.7-5.44
		l29.38,5.15c5.14-9.87,11.11-19.17,17.83-27.84L57.66,81.27c-2.18-3.57-1.55-8.17,1.51-11.02l15.66-14.57
		c3.07-2.85,7.71-3.14,11.1-0.72l24.29,17.44c8.82-6.6,18.22-12.41,28.11-17.36l-3.19-31.15c-0.41-4.17,2.15-8.04,6.14-9.28
		l20.44-6.33c4-1.25,8.3,0.51,10.32,4.17l14.29,26.19c10.71-2.1,21.71-3.26,32.88-3.42l10.64-29.42c1.43-3.93,5.42-6.32,9.55-5.7
		l21.17,3.16c4.13,0.62,7.25,4.07,7.47,8.24l1.52,29.83c10.83,2.8,21.23,6.56,31.11,11.14l22.35-21.89
		c2.98-2.93,7.62-3.34,11.07-0.99l17.69,12.04c3.47,2.35,4.79,6.81,3.16,10.65l-11.58,27.54c8.41,7.16,16.16,15.05,23.15,23.56
		l29.69-10.04c3.95-1.33,8.3,0.31,10.41,3.91l10.72,18.53c2.09,3.62,1.35,8.21-1.78,10.98l-22.39,19.76
		c4.47,10.03,8.07,20.49,10.7,31.29l31.05,3.84c4.15,0.5,7.36,3.86,7.67,8.03l1.63,21.35c0.31,4.17-2.35,7.98-6.37,9.11l-28.76,8.12
		c-0.2,7.16-0.86,14.39-1.95,21.66c-0.56,3.75-1.23,7.47-2.02,11.13l26.34,16.95C435,280.27,436.44,284.69,434.91,288.58z"/>
</g>
</svg>
