<svg id="e5bzltuqycpk1" xmlns="http://www.w3.org/2000/svg" xmlns:xlink="http://www.w3.org/1999/xlink" viewBox="0 0 178.930000 104.460000" shape-rendering="geometricPrecision" text-rendering="geometricPrecision"><style><![CDATA[#e5bzltuqycpk192 {animation: e5bzltuqycpk192_c_o 2000ms linear infinite normal forwards}@keyframes e5bzltuqycpk192_c_o { 0% {opacity: 1;animation-timing-function: step-end} 15% {opacity: 0;animation-timing-function: step-end} 30% {opacity: 1;animation-timing-function: step-end} 57% {opacity: 1;animation-timing-function: step-end} 72% {opacity: 0;animation-timing-function: step-end} 87% {opacity: 1} 100% {opacity: 1} }#e5bzltuqycpk199 {animation: e5bzltuqycpk199_c_o 2000ms linear infinite normal forwards}@keyframes e5bzltuqycpk199_c_o { 0% {opacity: 1} 9.500000% {opacity: 1} 10% {opacity: 1;animation-timing-function: step-end} 25% {opacity: 0;animation-timing-function: step-end} 40% {opacity: 1;animation-timing-function: step-end} 65% {opacity: 1} 65.500000% {opacity: 1;animation-timing-function: step-end} 80.500000% {opacity: 0;animation-timing-function: step-end} 95.500000% {opacity: 1} 100% {opacity: 1} }#e5bzltuqycpk206 {animation: e5bzltuqycpk206_c_o 2000ms linear infinite normal forwards}@keyframes e5bzltuqycpk206_c_o { 0% {opacity: 1} 20% {opacity: 1} 20.500000% {opacity: 1;animation-timing-function: step-end} 35.500000% {opacity: 0;animation-timing-function: step-end} 50.500000% {opacity: 1} 100% {opacity: 1} }#e5bzltuqycpk213 {animation: e5bzltuqycpk213_c_o 2000ms linear infinite normal forwards}@keyframes e5bzltuqycpk213_c_o { 0% {opacity: 1} 10% {opacity: 1} 10.500000% {opacity: 1;animation-timing-function: step-end} 25.500000% {opacity: 0;animation-timing-function: step-end} 40.500000% {opacity: 1;animation-timing-function: step-end} 65% {opacity: 1} 65.500000% {opacity: 1;animation-timing-function: step-end} 80.500000% {opacity: 0;animation-timing-function: step-end} 95.500000% {opacity: 1} 100% {opacity: 1} }#e5bzltuqycpk220 {animation: e5bzltuqycpk220_c_o 2000ms linear infinite normal forwards}@keyframes e5bzltuqycpk220_c_o { 0% {opacity: 1} 17% {opacity: 1} 37% {opacity: 1} 37.500000% {opacity: 1;animation-timing-function: step-end} 52.500000% {opacity: 0;animation-timing-function: step-end} 67.500000% {opacity: 1} 100% {opacity: 1} }#e5bzltuqycpk227 {animation: e5bzltuqycpk227_c_o 2000ms linear infinite normal forwards}@keyframes e5bzltuqycpk227_c_o { 0% {opacity: 1} 15% {opacity: 1} 15.500000% {opacity: 1;animation-timing-function: step-end} 23% {opacity: 1} 30.500000% {opacity: 0;animation-timing-function: step-end} 45.500000% {opacity: 1} 100% {opacity: 1} }#e5bzltuqycpk234 {animation: e5bzltuqycpk234_c_o 2000ms linear infinite normal forwards}@keyframes e5bzltuqycpk234_c_o { 0% {opacity: 1} 20% {opacity: 1} 20.500000% {opacity: 1;animation-timing-function: step-end} 35.500000% {opacity: 0;animation-timing-function: step-end} 50.500000% {opacity: 1} 100% {opacity: 1} }#e5bzltuqycpk306 {animation: e5bzltuqycpk306_c_o 2000ms linear infinite normal forwards}@keyframes e5bzltuqycpk306_c_o { 0% {opacity: 1} 0.500000% {opacity: 1;animation-timing-function: step-end} 15.500000% {opacity: 0;animation-timing-function: step-end} 30.500000% {opacity: 1;animation-timing-function: step-end} 55% {opacity: 1} 55.500000% {opacity: 1;animation-timing-function: step-end} 70.500000% {opacity: 0;animation-timing-function: step-end} 85.500000% {opacity: 1} 100% {opacity: 1} }#e5bzltuqycpk328 {animation: e5bzltuqycpk328_c_o 2000ms linear infinite normal forwards}@keyframes e5bzltuqycpk328_c_o { 0% {opacity: 1} 10% {opacity: 1;animation-timing-function: step-end} 25% {opacity: 0;animation-timing-function: step-end} 40% {opacity: 1} 100% {opacity: 1} }#e5bzltuqycpk329 {animation: e5bzltuqycpk329_c_o 2000ms linear infinite normal forwards}@keyframes e5bzltuqycpk329_c_o { 0% {opacity: 1} 50% {opacity: 1;animation-timing-function: step-end} 65% {opacity: 0;animation-timing-function: step-end} 80% {opacity: 1} 100% {opacity: 1} }#e5bzltuqycpk330 {animation: e5bzltuqycpk330_c_o 2000ms linear infinite normal forwards}@keyframes e5bzltuqycpk330_c_o { 0% {opacity: 1;animation-timing-function: step-end} 15% {opacity: 0;animation-timing-function: step-end} 30% {opacity: 1} 100% {opacity: 1} }#e5bzltuqycpk331 {animation: e5bzltuqycpk331_c_o 2000ms linear infinite normal forwards}@keyframes e5bzltuqycpk331_c_o { 0% {opacity: 1} 60% {opacity: 1;animation-timing-function: step-end} 75% {opacity: 0;animation-timing-function: step-end} 90% {opacity: 1} 100% {opacity: 1} }#e5bzltuqycpk332 {animation: e5bzltuqycpk332_c_o 2000ms linear infinite normal forwards}@keyframes e5bzltuqycpk332_c_o { 0% {opacity: 1} 20% {opacity: 1;animation-timing-function: step-end} 35% {opacity: 0;animation-timing-function: step-end} 50% {opacity: 1} 100% {opacity: 1} }#e5bzltuqycpk333 {animation: e5bzltuqycpk333_c_o 2000ms linear infinite normal forwards}@keyframes e5bzltuqycpk333_c_o { 0% {opacity: 1} 40% {opacity: 1;animation-timing-function: step-end} 55% {opacity: 0;animation-timing-function: step-end} 70% {opacity: 1} 100% {opacity: 1} }#e5bzltuqycpk334 {animation: e5bzltuqycpk334_c_o 2000ms linear infinite normal forwards}@keyframes e5bzltuqycpk334_c_o { 0% {opacity: 1} 30% {opacity: 1;animation-timing-function: step-end} 45% {opacity: 0;animation-timing-function: step-end} 60% {opacity: 1} 100% {opacity: 1} }]]></style><defs><radialGradient id="e5bzltuqycpk190-fill" cx="0" cy="0" r="10.400000" spreadMethod="pad" gradientUnits="userSpaceOnUse" gradientTransform="matrix(1 0 0 -1 424.39999999999998 505.42999999999995)"><stop id="e5bzltuqycpk190-fill-0" offset="0%" stop-color="rgb(0,0,0)"/><stop id="e5bzltuqycpk190-fill-1" offset="47%" stop-color="rgb(35,35,35)"/><stop id="e5bzltuqycpk190-fill-2" offset="100%" stop-color="rgb(71,71,71)"/></radialGradient></defs><polygon id="e5bzltuqycpk2" points="178.930000,0 158.760000,104.460000 158.760000,7.290000 178.930000,0" fill="rgb(0,53,84)" stroke="none" stroke-width="1"/><rect id="e5bzltuqycpk3" width="134.480000" height="97.170000" rx="0" ry="0" transform="matrix(1 0 0 1 24.28000000000000 7.29000000000000)" fill="rgb(0,76,111)" stroke="none" stroke-width="1"/><g id="e5bzltuqycpk4" clip-path="url(#e5bzltuqycpk29)"><g id="e5bzltuqycpk5"><path id="e5bzltuqycpk6" d="M462.100000,535L463.740000,533.360000L463.740000,533.430000L462.100000,535.070000L462.100000,535" transform="matrix(1 0 0 1 -422.18000000000001 -448.25999999999999)" fill="rgb(218,218,218)" stroke="none" stroke-width="1"/><path id="e5bzltuqycpk7" d="M462.100000,535.070000L463.740000,533.430000L463.740000,533.530000L462.100000,535.170000L462.100000,535.070000" transform="matrix(1 0 0 1 -422.18000000000001 -448.25999999999999)" fill="rgb(220,220,220)" stroke="none" stroke-width="1"/><path id="e5bzltuqycpk8" d="M462.100000,535.170000L463.740000,533.530000L463.740000,533.620000L462.100000,535.260000L462.100000,535.170000" transform="matrix(1 0 0 1 -422.18000000000001 -448.25999999999999)" fill="rgb(222,222,222)" stroke="none" stroke-width="1"/><path id="e5bzltuqycpk9" d="M462.110000,535.260000L463.750000,533.620000L463.750000,533.710000L462.110000,535.350000L462.110000,535.260000" transform="matrix(1 0 0 1 -422.18000000000001 -448.25999999999999)" fill="rgb(224,224,224)" stroke="none" stroke-width="1"/><path id="e5bzltuqycpk10" d="M462.130000,535.350000L463.770000,533.710000L463.770000,533.800000L462.140000,535.440000C462.130094,535.410818,462.130094,535.379182,462.140000,535.350000" transform="matrix(1 0 0 1 -422.18000000000001 -448.25999999999999)" fill="rgb(226,226,226)" stroke="none" stroke-width="1"/><path id="e5bzltuqycpk11" d="M462.150000,535.440000L463.780000,533.800000L463.780000,533.890000L462.140000,535.530000C462.130094,535.500818,462.130094,535.469182,462.140000,535.440000" transform="matrix(1 0 0 1 -422.18000000000001 -448.25999999999999)" fill="rgb(228,228,228)" stroke="none" stroke-width="1"/><path id="e5bzltuqycpk12" d="M462.170000,535.530000L463.810000,533.890000C463.800094,533.919182,463.800094,533.950818,463.810000,533.980000L462.170000,535.620000L462.170000,535.530000" transform="matrix(1 0 0 1 -422.18000000000001 -448.25999999999999)" fill="rgb(231,231,231)" stroke="none" stroke-width="1"/><path id="e5bzltuqycpk13" d="M462.190000,535.620000L463.830000,533.980000L463.830000,534.060000L462.190000,535.700000L462.190000,535.620000" transform="matrix(1 0 0 1 -422.18000000000001 -448.25999999999999)" fill="rgb(233,233,233)" stroke="none" stroke-width="1"/><path id="e5bzltuqycpk14" d="M462.220000,535.700000L463.860000,534.060000L463.860000,534.150000L462.310000,535.810000C462.300094,535.780818,462.300094,535.749182,462.310000,535.720000" transform="matrix(1 0 0 1 -422.18000000000001 -448.25999999999999)" fill="rgb(235,235,235)" stroke="none" stroke-width="1"/><path id="e5bzltuqycpk15" d="M462.310000,535.810000L463.940000,534.170000L463.940000,534.260000L462.310000,535.880000C462.300094,535.850818,462.300094,535.819182,462.310000,535.790000" transform="matrix(1 0 0 1 -422.18000000000001 -448.25999999999999)" fill="rgb(237,237,237)" stroke="none" stroke-width="1"/><path id="e5bzltuqycpk16" d="M462.310000,535.880000L463.940000,534.240000L463.940000,534.330000L462.310000,536L462.310000,535.910000" transform="matrix(1 0 0 1 -422.18000000000001 -448.25999999999999)" fill="rgb(239,239,239)" stroke="none" stroke-width="1"/><path id="e5bzltuqycpk17" d="M462.310000,536L463.950000,534.360000L464,534.450000L462.370000,536.090000L462.310000,536" transform="matrix(1 0 0 1 -422.18000000000001 -448.25999999999999)" fill="rgb(241,241,241)" stroke="none" stroke-width="1"/><path id="e5bzltuqycpk18" d="M462.400000,536.060000L464.030000,534.420000C464.046234,534.457778,464.070060,534.491816,464.100000,534.520000L462.460000,536.160000L462.400000,536.060000" transform="matrix(1 0 0 1 -422.18000000000001 -448.25999999999999)" fill="rgb(243,243,243)" stroke="none" stroke-width="1"/><path id="e5bzltuqycpk19" d="M462.460000,536.160000L464.100000,534.520000L464.170000,534.630000L462.540000,536.270000C462.510099,536.235798,462.483325,536.198984,462.460000,536.160000" transform="matrix(1 0 0 1 -422.18000000000001 -448.25999999999999)" fill="rgb(245,245,245)" stroke="none" stroke-width="1"/><path id="e5bzltuqycpk20" d="M462.540000,536.270000L464.170000,534.630000L464.270000,534.750000L462.640000,536.380000C462.599174,536.350917,462.565072,536.313404,462.540000,536.270000" transform="matrix(1 0 0 1 -422.18000000000001 -448.25999999999999)" fill="rgb(247,247,247)" stroke="none" stroke-width="1"/><path id="e5bzltuqycpk21" d="M462.640000,536.380000L464.270000,534.750000L464.420000,534.890000L462.780000,536.530000L462.640000,536.380000" transform="matrix(1 0 0 1 -422.18000000000001 -448.25999999999999)" fill="rgb(249,249,249)" stroke="none" stroke-width="1"/><path id="e5bzltuqycpk22" d="M462.780000,536.530000L464.420000,534.890000C464.601720,535.060935,464.815970,535.193566,465.050000,535.280000L463.410000,536.920000C463.180928,536.823686,462.968352,536.692092,462.780000,536.530000" transform="matrix(1 0 0 1 -422.18000000000001 -448.25999999999999)" fill="rgb(251,251,251)" stroke="none" stroke-width="1"/><path id="e5bzltuqycpk23" d="M463.410000,536.920000L465.050000,535.280000L465.240000,535.340000L463.600000,537L463.410000,536.940000" transform="matrix(1 0 0 1 -422.18000000000001 -448.25999999999999)" fill="rgb(249,249,249)" stroke="none" stroke-width="1"/><path id="e5bzltuqycpk24" d="M463.600000,537L465.240000,535.360000L465.390000,535.360000L463.750000,537L463.600000,537" transform="matrix(1 0 0 1 -422.18000000000001 -448.25999999999999)" fill="rgb(247,247,247)" stroke="none" stroke-width="1"/><path id="e5bzltuqycpk25" d="M463.750000,537L465.390000,535.360000L465.520000,535.360000L463.880000,537L463.750000,537" transform="matrix(1 0 0 1 -422.18000000000001 -448.25999999999999)" fill="rgb(245,245,245)" stroke="none" stroke-width="1"/><path id="e5bzltuqycpk26" d="M463.880000,537L465.520000,535.360000L465.640000,535.360000L464,537L463.880000,537" transform="matrix(1 0 0 1 -422.18000000000001 -448.25999999999999)" fill="rgb(243,243,243)" stroke="none" stroke-width="1"/><path id="e5bzltuqycpk27" d="M464,537.050000L465.640000,535.410000L465.740000,535.410000L464.110000,537.050000L464,537.050000" transform="matrix(1 0 0 1 -422.18000000000001 -448.25999999999999)" fill="rgb(241,241,241)" stroke="none" stroke-width="1"/><path id="e5bzltuqycpk28" d="M464.110000,537.060000L465.740000,535.420000L465.800000,535.420000L464.160000,537.060000L464.160000,537.060000" transform="matrix(1 0 0 1 -422.18000000000001 -448.25999999999999)" fill="rgb(239,239,239)" stroke="none" stroke-width="1"/></g><clipPath id="e5bzltuqycpk29" transform="matrix(1 0 0 1 -422.18000000000001 -448.25999999999999)"><path id="e5bzltuqycpk30" d="M462.100000,535L463.740000,533.360000C463.740000,534.497707,464.662293,535.420000,465.800000,535.420000L464.160000,537.060000C463.022293,537.060000,462.100000,536.137707,462.100000,535Z" fill="none" stroke="none" stroke-width="1"/></clipPath></g><polygon id="e5bzltuqycpk31" points="39.900000,29.410000 41.540000,27.770000 41.550000,85.100000 39.920000,86.740000 39.900000,29.410000" fill="rgb(217,217,217)" stroke="none" stroke-width="1"/><g id="e5bzltuqycpk32" clip-path="url(#e5bzltuqycpk41)"><g id="e5bzltuqycpk33"><path id="e5bzltuqycpk34" d="M462.680000,476.210000L464.310000,474.570000C464.091515,474.781294,463.926908,475.041921,463.830000,475.330000L462.190000,477C462.286908,476.711921,462.451515,476.451294,462.670000,476.240000" transform="matrix(1 0 0 1 -422.18000000000001 -448.25999999999999)" fill="rgb(206,206,206)" stroke="none" stroke-width="1"/><path id="e5bzltuqycpk35" d="M462.200000,477L463.840000,475.360000L463.780000,475.540000L462.150000,477.180000C462.139930,477.120423,462.139930,477.059577,462.150000,477" transform="matrix(1 0 0 1 -422.18000000000001 -448.25999999999999)" fill="rgb(208,208,208)" stroke="none" stroke-width="1"/><path id="e5bzltuqycpk36" d="M462.150000,477.150000L463.780000,475.510000L463.780000,475.650000L462.140000,477.290000C462.129987,477.243870,462.129987,477.196130,462.140000,477.150000" transform="matrix(1 0 0 1 -422.18000000000001 -448.25999999999999)" fill="rgb(210,210,210)" stroke="none" stroke-width="1"/><path id="e5bzltuqycpk37" d="M462.110000,477.290000L463.750000,475.650000L463.750000,475.780000L462.120000,477.410000L462.120000,477.290000" transform="matrix(1 0 0 1 -422.18000000000001 -448.25999999999999)" fill="rgb(212,212,212)" stroke="none" stroke-width="1"/><path id="e5bzltuqycpk38" d="M462.100000,477.410000L463.730000,475.780000L463.730000,475.890000L462.090000,477.530000L462.090000,477.410000" transform="matrix(1 0 0 1 -422.18000000000001 -448.25999999999999)" fill="rgb(214,214,214)" stroke="none" stroke-width="1"/><path id="e5bzltuqycpk39" d="M462.080000,477.530000L463.720000,475.890000L463.720000,476L462.080000,477.640000L462.080000,477.530000" transform="matrix(1 0 0 1 -422.18000000000001 -448.25999999999999)" fill="rgb(216,216,216)" stroke="none" stroke-width="1"/><path id="e5bzltuqycpk40" d="M462.080000,477.640000L463.720000,476L463.720000,476L462.080000,477.640000L462.080000,477.640000" transform="matrix(1 0 0 1 -422.18000000000001 -448.25999999999999)" fill="rgb(218,218,218)" stroke="none" stroke-width="1"/></g><clipPath id="e5bzltuqycpk41" transform="matrix(1 0 0 1 -422.18000000000001 -448.25999999999999)"><path id="e5bzltuqycpk42" d="M462.680000,476.210000L464.310000,474.570000C463.918288,474.953822,463.701370,475.481654,463.710000,476.030000L462.070000,477.670000C462.063989,477.120171,462.284612,476.592121,462.680000,476.210000Z" fill="none" stroke="none" stroke-width="1"/></clipPath></g><g id="e5bzltuqycpk43" clip-path="url(#e5bzltuqycpk61)"><g id="e5bzltuqycpk44"><path id="e5bzltuqycpk45" d="M462.680000,476.210000L464.310000,474.570000L464.410000,474.480000L462.770000,476.110000L462.670000,476.210000" transform="matrix(1 0 0 1 -422.18000000000001 -448.25999999999999)" fill="rgb(58,58,58)" stroke="none" stroke-width="1"/><path id="e5bzltuqycpk46" d="M462.780000,476.110000L464.420000,474.480000L464.540000,474.380000L462.900000,476L462.780000,476.090000" transform="matrix(1 0 0 1 -422.18000000000001 -448.25999999999999)" fill="rgb(59,59,59)" stroke="none" stroke-width="1"/><path id="e5bzltuqycpk47" d="M462.900000,476L464.540000,474.360000L464.640000,474.290000L463,476L462.900000,476.070000" transform="matrix(1 0 0 1 -422.18000000000001 -448.25999999999999)" fill="rgb(59,59,59)" stroke="none" stroke-width="1"/><path id="e5bzltuqycpk48" d="M463,476L464.640000,474.360000L464.730000,474.300000L463.100000,475.940000L463,476" transform="matrix(1 0 0 1 -422.18000000000001 -448.25999999999999)" fill="rgb(60,60,60)" stroke="none" stroke-width="1"/><path id="e5bzltuqycpk49" d="M463.100000,475.890000L464.730000,474.250000L464.830000,474.250000L463.190000,475.810000L463.100000,475.810000" transform="matrix(1 0 0 1 -422.18000000000001 -448.25999999999999)" fill="rgb(60,60,60)" stroke="none" stroke-width="1"/><path id="e5bzltuqycpk50" d="M463.190000,475.810000L464.830000,474.170000L464.920000,474.170000L463.310000,475.810000L463.220000,475.810000" transform="matrix(1 0 0 1 -422.18000000000001 -448.25999999999999)" fill="rgb(61,61,61)" stroke="none" stroke-width="1"/><path id="e5bzltuqycpk51" d="M463.310000,475.810000L464.950000,474.170000L465,474.170000L463.370000,475.800000L463.280000,475.800000" transform="matrix(1 0 0 1 -422.18000000000001 -448.25999999999999)" fill="rgb(61,61,61)" stroke="none" stroke-width="1"/><path id="e5bzltuqycpk52" d="M463.370000,475.750000L465,474.120000L465.090000,474.120000L463.450000,475.760000L463.370000,475.760000" transform="matrix(1 0 0 1 -422.18000000000001 -448.25999999999999)" fill="rgb(62,62,62)" stroke="none" stroke-width="1"/><path id="e5bzltuqycpk53" d="M463.450000,475.720000L465.090000,474.080000L465.180000,474.080000L463.540000,475.710000L463.450000,475.710000" transform="matrix(1 0 0 1 -422.18000000000001 -448.25999999999999)" fill="rgb(62,62,62)" stroke="none" stroke-width="1"/><path id="e5bzltuqycpk54" d="M463.540000,475.690000L465.180000,474.060000L465.270000,474.060000L463.630000,475.700000L463.540000,475.700000" transform="matrix(1 0 0 1 -422.18000000000001 -448.25999999999999)" fill="rgb(63,63,63)" stroke="none" stroke-width="1"/><path id="e5bzltuqycpk55" d="M463.630000,475.670000L465.310000,474.030000L465.390000,474.030000L463.760000,475.670000L463.670000,475.670000" transform="matrix(1 0 0 1 -422.18000000000001 -448.25999999999999)" fill="rgb(64,64,64)" stroke="none" stroke-width="1"/><path id="e5bzltuqycpk56" d="M463.720000,475.650000L465.310000,474.010000L465.400000,474.010000L463.760000,475.650000L463.680000,475.650000" transform="matrix(1 0 0 1 -422.18000000000001 -448.25999999999999)" fill="rgb(64,64,64)" stroke="none" stroke-width="1"/><path id="e5bzltuqycpk57" d="M463.800000,475.630000L465.440000,473.990000L465.530000,473.990000L463.900000,475.630000L463.800000,475.630000" transform="matrix(1 0 0 1 -422.18000000000001 -448.25999999999999)" fill="rgb(65,65,65)" stroke="none" stroke-width="1"/><path id="e5bzltuqycpk58" d="M463.900000,475.620000L465.530000,473.980000L465.630000,473.980000L464,475.620000L463.910000,475.620000" transform="matrix(1 0 0 1 -422.18000000000001 -448.25999999999999)" fill="rgb(65,65,65)" stroke="none" stroke-width="1"/><path id="e5bzltuqycpk59" d="M464,475.610000L465.640000,473.970000L465.740000,473.970000L464.100000,475.610000L464,475.610000" transform="matrix(1 0 0 1 -422.18000000000001 -448.25999999999999)" fill="rgb(66,66,66)" stroke="none" stroke-width="1"/><path id="e5bzltuqycpk60" d="M464.090000,475.610000L465.730000,473.970000L465.730000,473.970000L464.090000,475.600000L464.040000,475.600000" transform="matrix(1 0 0 1 -422.18000000000001 -448.25999999999999)" fill="rgb(66,66,66)" stroke="none" stroke-width="1"/></g><clipPath id="e5bzltuqycpk61" transform="matrix(1 0 0 1 -422.18000000000001 -448.25999999999999)"><path id="e5bzltuqycpk62" d="M465.780000,474L464.140000,475.630000C463.590171,475.623989,463.062121,475.844612,462.680000,476.240000L464.310000,474.600000C464.696223,474.205738,465.228202,473.988604,465.780000,474Z" fill="none" stroke="none" stroke-width="1"/></clipPath></g><g id="e5bzltuqycpk63" clip-path="url(#e5bzltuqycpk81)"><g id="e5bzltuqycpk64"><path id="e5bzltuqycpk65" d="M462,475.550000L463.640000,473.910000L463.790000,473.770000L462.150000,475.410000L462,475.550000" transform="matrix(1 0 0 1 -422.18000000000001 -448.25999999999999)" fill="rgb(208,208,208)" stroke="none" stroke-width="1"/><path id="e5bzltuqycpk66" d="M462.170000,475.410000L463.810000,473.810000L463.970000,473.680000L462.310000,475.280000L462.150000,475.410000" transform="matrix(1 0 0 1 -422.18000000000001 -448.25999999999999)" fill="rgb(210,210,210)" stroke="none" stroke-width="1"/><path id="e5bzltuqycpk67" d="M462.310000,475.280000L463.950000,473.640000L464.100000,473.530000L462.460000,475.170000L462.310000,475.280000" transform="matrix(1 0 0 1 -422.18000000000001 -448.25999999999999)" fill="rgb(212,212,212)" stroke="none" stroke-width="1"/><path id="e5bzltuqycpk68" d="M462.480000,475.170000L464.120000,473.530000L464.260000,473.440000L462.620000,475.080000L462.480000,475.170000" transform="matrix(1 0 0 1 -422.18000000000001 -448.25999999999999)" fill="rgb(214,214,214)" stroke="none" stroke-width="1"/><path id="e5bzltuqycpk69" d="M462.620000,475.080000L464.310000,473.440000L464.450000,473.370000L462.810000,475L462.670000,475.070000" transform="matrix(1 0 0 1 -422.18000000000001 -448.25999999999999)" fill="rgb(216,216,216)" stroke="none" stroke-width="1"/><path id="e5bzltuqycpk70" d="M462.760000,475L464.400000,473.360000L464.520000,473.290000L462.890000,474.930000L462.760000,475" transform="matrix(1 0 0 1 -422.18000000000001 -448.25999999999999)" fill="rgb(218,218,218)" stroke="none" stroke-width="1"/><path id="e5bzltuqycpk71" d="M462.890000,474.940000L464.520000,473.300000L464.650000,473.300000L463,474.940000L462.870000,474.940000" transform="matrix(1 0 0 1 -422.18000000000001 -448.25999999999999)" fill="rgb(220,220,220)" stroke="none" stroke-width="1"/><path id="e5bzltuqycpk72" d="M463,474.890000L464.630000,473.250000L464.760000,473.250000L463.120000,474.810000L463,474.810000" transform="matrix(1 0 0 1 -422.18000000000001 -448.25999999999999)" fill="rgb(222,222,222)" stroke="none" stroke-width="1"/><path id="e5bzltuqycpk73" d="M463.140000,474.810000L464.780000,473.170000L464.910000,473.170000L463.310000,474.810000L463.180000,474.810000" transform="matrix(1 0 0 1 -422.18000000000001 -448.25999999999999)" fill="rgb(224,224,224)" stroke="none" stroke-width="1"/><path id="e5bzltuqycpk74" d="M463.310000,474.810000L464.950000,473.170000L465.070000,473.170000L463.400000,474.810000L463.310000,474.810000" transform="matrix(1 0 0 1 -422.18000000000001 -448.25999999999999)" fill="rgb(226,226,226)" stroke="none" stroke-width="1"/><path id="e5bzltuqycpk75" d="M463.400000,474.810000L465.030000,473.170000L465.160000,473.170000L463.520000,474.810000L463.400000,474.810000" transform="matrix(1 0 0 1 -422.18000000000001 -448.25999999999999)" fill="rgb(228,228,228)" stroke="none" stroke-width="1"/><path id="e5bzltuqycpk76" d="M463.520000,474.730000L465.160000,473.090000L465.290000,473.090000L463.650000,474.730000L463.520000,474.730000" transform="matrix(1 0 0 1 -422.18000000000001 -448.25999999999999)" fill="rgb(231,231,231)" stroke="none" stroke-width="1"/><path id="e5bzltuqycpk77" d="M463.650000,474.710000L465.310000,473.070000L465.440000,473.070000L463.810000,474.710000L463.670000,474.710000" transform="matrix(1 0 0 1 -422.18000000000001 -448.25999999999999)" fill="rgb(233,233,233)" stroke="none" stroke-width="1"/><path id="e5bzltuqycpk78" d="M463.790000,474.690000L465.420000,473.050000L465.560000,473.050000L463.920000,474.690000L463.790000,474.690000" transform="matrix(1 0 0 1 -422.18000000000001 -448.25999999999999)" fill="rgb(235,235,235)" stroke="none" stroke-width="1"/><path id="e5bzltuqycpk79" d="M463.920000,474.680000L465.560000,473.040000L465.700000,473.040000L464.070000,474.680000L463.920000,474.680000" transform="matrix(1 0 0 1 -422.18000000000001 -448.25999999999999)" fill="rgb(237,237,237)" stroke="none" stroke-width="1"/><path id="e5bzltuqycpk80" d="M464.070000,474.670000L465.700000,473L465.780000,473L464.140000,474.640000L464.070000,474.640000" transform="matrix(1 0 0 1 -422.18000000000001 -448.25999999999999)" fill="rgb(239,239,239)" stroke="none" stroke-width="1"/></g><clipPath id="e5bzltuqycpk81" transform="matrix(1 0 0 1 -422.18000000000001 -448.25999999999999)"><path id="e5bzltuqycpk82" d="M462,475.550000L463.640000,473.910000C464.202069,473.347230,464.964619,473.030700,465.760000,473.030000L464.120000,474.670000C463.324619,474.670700,462.562069,474.987230,462,475.550000Z" fill="none" stroke="none" stroke-width="1"/></clipPath></g><polygon id="e5bzltuqycpk83" points="41.980000,88.800000 43.620000,87.160000 144.690000,87.160000 143.050000,88.800000 41.980000,88.800000" fill="rgb(238,238,238)" stroke="none" stroke-width="1"/><g id="e5bzltuqycpk84" clip-path="url(#e5bzltuqycpk102)"><g id="e5bzltuqycpk85"><path id="e5bzltuqycpk86" d="M565.230000,537.060000L566.870000,535.420000L566.870000,535.420000L565.260000,537.060000L565.260000,537.060000" transform="matrix(1 0 0 1 -422.18000000000001 -448.25999999999999)" fill="rgb(239,239,239)" stroke="none" stroke-width="1"/><path id="e5bzltuqycpk87" d="M565.310000,537.060000L566.950000,535.420000L567.050000,535.420000L565.410000,537.060000L565.310000,537.060000" transform="matrix(1 0 0 1 -422.18000000000001 -448.25999999999999)" fill="rgb(237,237,237)" stroke="none" stroke-width="1"/><path id="e5bzltuqycpk88" d="M565.380000,537.050000L567.020000,535.410000L567.110000,535.410000L565.480000,537.050000L565.380000,537.050000" transform="matrix(1 0 0 1 -422.18000000000001 -448.25999999999999)" fill="rgb(235,235,235)" stroke="none" stroke-width="1"/><path id="e5bzltuqycpk89" d="M565.480000,537L567.110000,535.360000L567.210000,535.360000L565.570000,537L565.480000,537" transform="matrix(1 0 0 1 -422.18000000000001 -448.25999999999999)" fill="rgb(233,233,233)" stroke="none" stroke-width="1"/><path id="e5bzltuqycpk90" d="M565.570000,537L567.210000,535.360000L567.290000,535.360000L565.660000,537L565.570000,537" transform="matrix(1 0 0 1 -422.18000000000001 -448.25999999999999)" fill="rgb(231,231,231)" stroke="none" stroke-width="1"/><path id="e5bzltuqycpk91" d="M565.660000,537L567.290000,535.360000L567.380000,535.360000L565.740000,537L565.660000,537" transform="matrix(1 0 0 1 -422.18000000000001 -448.25999999999999)" fill="rgb(228,228,228)" stroke="none" stroke-width="1"/><path id="e5bzltuqycpk92" d="M565.740000,537L567.380000,535.360000L567.470000,535.360000L565.830000,537L565.740000,537" transform="matrix(1 0 0 1 -422.18000000000001 -448.25999999999999)" fill="rgb(226,226,226)" stroke="none" stroke-width="1"/><path id="e5bzltuqycpk93" d="M565.830000,537L567.470000,535.360000L567.560000,535.360000L565.920000,537L565.830000,537" transform="matrix(1 0 0 1 -422.18000000000001 -448.25999999999999)" fill="rgb(224,224,224)" stroke="none" stroke-width="1"/><path id="e5bzltuqycpk94" d="M565.920000,536.940000L567.560000,535.300000L567.640000,535.300000L566,536.940000L565.920000,536.940000" transform="matrix(1 0 0 1 -422.18000000000001 -448.25999999999999)" fill="rgb(222,222,222)" stroke="none" stroke-width="1"/><path id="e5bzltuqycpk95" d="M566,536.910000L567.640000,535.270000L567.730000,535.270000L566.090000,536.910000L566,536.910000" transform="matrix(1 0 0 1 -422.18000000000001 -448.25999999999999)" fill="rgb(220,220,220)" stroke="none" stroke-width="1"/><path id="e5bzltuqycpk96" d="M566.090000,536.870000L567.730000,535.230000L567.820000,535.230000L566.180000,536.810000L566.090000,536.860000" transform="matrix(1 0 0 1 -422.18000000000001 -448.25999999999999)" fill="rgb(218,218,218)" stroke="none" stroke-width="1"/><path id="e5bzltuqycpk97" d="M566.180000,536.810000L567.820000,535.180000L567.910000,535.120000L566.310000,536.810000L566.210000,536.810000" transform="matrix(1 0 0 1 -422.18000000000001 -448.25999999999999)" fill="rgb(216,216,216)" stroke="none" stroke-width="1"/><path id="e5bzltuqycpk98" d="M566.310000,536.810000L567.940000,535.170000C567.977306,535.157523,568.011435,535.137046,568.040000,535.110000L566.400000,536.750000L566.310000,536.810000" transform="matrix(1 0 0 1 -422.18000000000001 -448.25999999999999)" fill="rgb(214,214,214)" stroke="none" stroke-width="1"/><path id="e5bzltuqycpk99" d="M566.370000,536.710000L568.010000,535.070000L568.110000,535L566.470000,536.640000L566.370000,536.710000" transform="matrix(1 0 0 1 -422.18000000000001 -448.25999999999999)" fill="rgb(212,212,212)" stroke="none" stroke-width="1"/><path id="e5bzltuqycpk100" d="M566.470000,536.640000L568.110000,535L568.230000,534.910000L566.590000,536.550000L566.470000,536.640000" transform="matrix(1 0 0 1 -422.18000000000001 -448.25999999999999)" fill="rgb(210,210,210)" stroke="none" stroke-width="1"/><path id="e5bzltuqycpk101" d="M566.590000,536.550000L568.230000,534.910000L568.330000,534.820000L566.690000,536.450000L566.590000,536.550000" transform="matrix(1 0 0 1 -422.18000000000001 -448.25999999999999)" fill="rgb(208,208,208)" stroke="none" stroke-width="1"/></g><clipPath id="e5bzltuqycpk102" transform="matrix(1 0 0 1 -422.18000000000001 -448.25999999999999)"><path id="e5bzltuqycpk103" d="M568.310000,534.810000L566.670000,536.440000C566.283944,536.829585,565.758466,537.049134,565.210000,537.050000L566.850000,535.410000C567.395965,535.406425,567.919289,535.191360,568.310000,534.810000Z" fill="none" stroke="none" stroke-width="1"/></clipPath></g><g id="e5bzltuqycpk104" clip-path="url(#e5bzltuqycpk113)"><g id="e5bzltuqycpk105"><path id="e5bzltuqycpk106" d="M567.310000,535L568.950000,533.360000L568.950000,533.360000L567.310000,535L567.310000,535" transform="matrix(1 0 0 1 -422.18000000000001 -448.25999999999999)" fill="rgb(61,61,61)" stroke="none" stroke-width="1"/><path id="e5bzltuqycpk107" d="M567.310000,535L568.950000,533.370000L568.950000,533.470000L567.310000,535.110000L567.310000,535" transform="matrix(1 0 0 1 -422.18000000000001 -448.25999999999999)" fill="rgb(60,60,60)" stroke="none" stroke-width="1"/><path id="e5bzltuqycpk108" d="M567.310000,535.130000L568.950000,533.490000L568.950000,533.610000L567.310000,535.250000C567.299839,535.210645,567.299839,535.169355,567.310000,535.130000" transform="matrix(1 0 0 1 -422.18000000000001 -448.25999999999999)" fill="rgb(60,60,60)" stroke="none" stroke-width="1"/><path id="e5bzltuqycpk109" d="M567.310000,535.250000L568.940000,533.610000L568.940000,533.730000L567.310000,535.370000L567.310000,535.250000" transform="matrix(1 0 0 1 -422.18000000000001 -448.25999999999999)" fill="rgb(59,59,59)" stroke="none" stroke-width="1"/><path id="e5bzltuqycpk110" d="M567.310000,535.370000L568.950000,533.730000L568.950000,533.870000L567.320000,535.510000L567.320000,535.370000" transform="matrix(1 0 0 1 -422.18000000000001 -448.25999999999999)" fill="rgb(59,59,59)" stroke="none" stroke-width="1"/><path id="e5bzltuqycpk111" d="M567.230000,535.510000L568.860000,533.870000C568.860000,533.930000,568.860000,533.990000,568.810000,534.050000L567.170000,535.690000L567.230000,535.510000" transform="matrix(1 0 0 1 -422.18000000000001 -448.25999999999999)" fill="rgb(58,58,58)" stroke="none" stroke-width="1"/><path id="e5bzltuqycpk112" d="M567.170000,535.690000L568.810000,534.050000C568.703450,534.336354,568.540189,534.598252,568.330000,534.820000L566.690000,536.450000C566.901059,536.232762,567.064533,535.973927,567.170000,535.690000" transform="matrix(1 0 0 1 -422.18000000000001 -448.25999999999999)" fill="rgb(57,57,57)" stroke="none" stroke-width="1"/></g><clipPath id="e5bzltuqycpk113" transform="matrix(1 0 0 1 -422.18000000000001 -448.25999999999999)"><path id="e5bzltuqycpk114" d="M568.310000,534.810000L566.670000,536.440000C567.050747,536.052947,567.265930,535.532919,567.270000,534.990000L568.910000,533.350000C568.906425,533.895965,568.691360,534.419289,568.310000,534.810000Z" fill="none" stroke="none" stroke-width="1"/></clipPath></g><g id="e5bzltuqycpk115" clip-path="url(#e5bzltuqycpk124)"><g id="e5bzltuqycpk116"><path id="e5bzltuqycpk117" d="M568.240000,535L569.870000,533.360000L569.870000,533.360000L568.240000,535L568.240000,535" transform="matrix(1 0 0 1 -422.18000000000001 -448.25999999999999)" fill="rgb(218,218,218)" stroke="none" stroke-width="1"/><path id="e5bzltuqycpk118" d="M568.240000,535L569.870000,533.360000L569.870000,533.510000L568.230000,535.150000L568.230000,535" transform="matrix(1 0 0 1 -422.18000000000001 -448.25999999999999)" fill="rgb(216,216,216)" stroke="none" stroke-width="1"/><path id="e5bzltuqycpk119" d="M568.230000,535.190000L569.870000,533.550000L569.870000,533.720000L568.230000,535.360000L568.230000,535.190000" transform="matrix(1 0 0 1 -422.18000000000001 -448.25999999999999)" fill="rgb(214,214,214)" stroke="none" stroke-width="1"/><path id="e5bzltuqycpk120" d="M568.210000,535.360000L569.850000,533.720000L569.850000,533.900000L568.210000,535.540000L568.210000,535.360000" transform="matrix(1 0 0 1 -422.18000000000001 -448.25999999999999)" fill="rgb(212,212,212)" stroke="none" stroke-width="1"/><path id="e5bzltuqycpk121" d="M568.190000,535.540000L569.830000,533.900000L569.830000,534.100000L568.190000,535.740000L568.190000,535.540000" transform="matrix(1 0 0 1 -422.18000000000001 -448.25999999999999)" fill="rgb(210,210,210)" stroke="none" stroke-width="1"/><path id="e5bzltuqycpk122" d="M568.140000,535.740000L569.780000,534.100000C569.757924,534.188013,569.731220,534.274800,569.700000,534.360000L568.060000,536C568.091220,535.914800,568.117924,535.828013,568.140000,535.740000" transform="matrix(1 0 0 1 -422.18000000000001 -448.25999999999999)" fill="rgb(208,208,208)" stroke="none" stroke-width="1"/><path id="e5bzltuqycpk123" d="M568.060000,536L569.700000,534.360000C569.546644,534.774775,569.308202,535.152876,569,535.470000L567.360000,537.110000C567.668202,536.792876,567.906644,536.414775,568.060000,536" transform="matrix(1 0 0 1 -422.18000000000001 -448.25999999999999)" fill="rgb(206,206,206)" stroke="none" stroke-width="1"/></g><clipPath id="e5bzltuqycpk124" transform="matrix(1 0 0 1 -422.18000000000001 -448.25999999999999)"><path id="e5bzltuqycpk125" d="M569,535.470000L567.360000,537.110000C567.920328,536.550383,568.236656,535.791914,568.240000,535L569.870000,533.360000C569.869313,534.150486,569.556662,534.908755,569,535.470000Z" fill="none" stroke="none" stroke-width="1"/></clipPath></g><polygon id="e5bzltuqycpk126" points="41.960000,27.350000 43.600000,25.710000 144.670000,25.710000 143.030000,27.350000 41.960000,27.350000" fill="rgb(66,66,66)" stroke="none" stroke-width="1"/><polygon id="e5bzltuqycpk127" points="145.090000,29.410000 146.730000,27.770000 146.750000,85.100000 145.110000,86.740000 145.090000,29.410000" fill="rgb(60,60,60)" stroke="none" stroke-width="1"/><polygon id="e5bzltuqycpk128" points="41.960000,26.410000 43.600000,24.770000 144.670000,24.770000 143.030000,26.410000 41.960000,26.410000" fill="rgb(238,238,238)" stroke="none" stroke-width="1"/><polygon id="e5bzltuqycpk129" points="146.040000,29.410000 147.680000,27.770000 147.690000,85.100000 146.060000,86.740000 146.040000,29.410000" fill="rgb(217,217,217)" stroke="none" stroke-width="1"/><rect id="e5bzltuqycpk130" width="105.190000" height="61.450000" rx="2.060000" ry="2.060000" transform="matrix(1 0 0 1 39.91000000000000 27.35000000000000)" fill="rgb(58,58,58)" stroke="none" stroke-width="1"/><g id="e5bzltuqycpk131" clip-path="url(#e5bzltuqycpk156)"><g id="e5bzltuqycpk132"><path id="e5bzltuqycpk133" d="M565.210000,475.600000L566.850000,473.970000L566.850000,473.970000L565.310000,475.610000L565.250000,475.610000" transform="matrix(1 0 0 1 -422.18000000000001 -448.25999999999999)" fill="rgb(66,66,66)" stroke="none" stroke-width="1"/><path id="e5bzltuqycpk134" d="M565.310000,475.610000L566.940000,473.970000L567.050000,473.970000L565.410000,475.610000L565.310000,475.610000" transform="matrix(1 0 0 1 -422.18000000000001 -448.25999999999999)" fill="rgb(67,67,67)" stroke="none" stroke-width="1"/><path id="e5bzltuqycpk135" d="M565.370000,475.610000L567,474L567.120000,474L565.480000,475.630000L565.360000,475.630000" transform="matrix(1 0 0 1 -422.18000000000001 -448.25999999999999)" fill="rgb(68,68,68)" stroke="none" stroke-width="1"/><path id="e5bzltuqycpk136" d="M565.490000,475.620000L567.130000,473.990000L567.260000,473.990000L565.620000,475.630000L565.490000,475.630000" transform="matrix(1 0 0 1 -422.18000000000001 -448.25999999999999)" fill="rgb(68,68,68)" stroke="none" stroke-width="1"/><path id="e5bzltuqycpk137" d="M565.620000,475.650000L567.310000,474.010000L567.460000,474.010000L565.820000,475.650000L565.670000,475.650000" transform="matrix(1 0 0 1 -422.18000000000001 -448.25999999999999)" fill="rgb(69,69,69)" stroke="none" stroke-width="1"/><path id="e5bzltuqycpk138" d="M565.770000,475.680000L567.410000,474.040000L567.600000,474.110000L566,475.740000L565.810000,475.680000" transform="matrix(1 0 0 1 -422.18000000000001 -448.25999999999999)" fill="rgb(69,69,69)" stroke="none" stroke-width="1"/><path id="e5bzltuqycpk139" d="M566,475.740000L567.640000,474.110000C567.869427,474.201242,568.082272,474.329625,568.270000,474.490000L566.630000,476.130000C566.445165,475.963168,566.231747,475.831052,566,475.740000" transform="matrix(1 0 0 1 -422.18000000000001 -448.25999999999999)" fill="rgb(70,70,70)" stroke="none" stroke-width="1"/><path id="e5bzltuqycpk140" d="M566.590000,476.130000L568.230000,474.490000L568.370000,474.640000L566.740000,476.280000L566.590000,476.130000" transform="matrix(1 0 0 1 -422.18000000000001 -448.25999999999999)" fill="rgb(69,69,69)" stroke="none" stroke-width="1"/><path id="e5bzltuqycpk141" d="M566.740000,476.280000L568.370000,474.640000L568.470000,474.760000L566.840000,476.390000L566.740000,476.280000" transform="matrix(1 0 0 1 -422.18000000000001 -448.25999999999999)" fill="rgb(69,69,69)" stroke="none" stroke-width="1"/><path id="e5bzltuqycpk142" d="M566.840000,476.390000L568.470000,474.810000L568.550000,474.910000L566.910000,476.550000L566.840000,476.440000" transform="matrix(1 0 0 1 -422.18000000000001 -448.25999999999999)" fill="rgb(68,68,68)" stroke="none" stroke-width="1"/><path id="e5bzltuqycpk143" d="M566.910000,476.500000L568.550000,474.860000L568.610000,474.960000L567,476.600000C566.979065,476.565051,566.955672,476.531633,566.930000,476.500000" transform="matrix(1 0 0 1 -422.18000000000001 -448.25999999999999)" fill="rgb(68,68,68)" stroke="none" stroke-width="1"/><path id="e5bzltuqycpk144" d="M567,476.600000L568.630000,474.960000L568.690000,475.050000L567,476.690000L567,476.600000" transform="matrix(1 0 0 1 -422.18000000000001 -448.25999999999999)" fill="rgb(67,67,67)" stroke="none" stroke-width="1"/><path id="e5bzltuqycpk145" d="M567,476.690000L568.640000,475.050000L568.640000,475.140000L567.050000,476.810000L567.050000,476.720000" transform="matrix(1 0 0 1 -422.18000000000001 -448.25999999999999)" fill="rgb(66,66,66)" stroke="none" stroke-width="1"/><path id="e5bzltuqycpk146" d="M567.080000,476.810000L568.710000,475.170000L568.710000,475.260000L567.080000,476.900000C567.070094,476.870818,567.070094,476.839182,567.080000,476.810000" transform="matrix(1 0 0 1 -422.18000000000001 -448.25999999999999)" fill="rgb(66,66,66)" stroke="none" stroke-width="1"/><path id="e5bzltuqycpk147" d="M567.120000,476.870000L568.750000,475.230000L568.750000,475.320000L567.110000,477L567.110000,476.910000" transform="matrix(1 0 0 1 -422.18000000000001 -448.25999999999999)" fill="rgb(65,65,65)" stroke="none" stroke-width="1"/><path id="e5bzltuqycpk148" d="M567.150000,477L568.790000,475.360000L568.790000,475.450000L567.150000,477.090000L567.150000,477" transform="matrix(1 0 0 1 -422.18000000000001 -448.25999999999999)" fill="rgb(65,65,65)" stroke="none" stroke-width="1"/><path id="e5bzltuqycpk149" d="M567.180000,477.050000L568.820000,475.410000L568.820000,475.490000L567.180000,477.130000L567.180000,477.050000" transform="matrix(1 0 0 1 -422.18000000000001 -448.25999999999999)" fill="rgb(64,64,64)" stroke="none" stroke-width="1"/><path id="e5bzltuqycpk150" d="M567.200000,477.130000L568.840000,475.490000L568.840000,475.580000L567.210000,477.220000L567.210000,477.130000" transform="matrix(1 0 0 1 -422.18000000000001 -448.25999999999999)" fill="rgb(64,64,64)" stroke="none" stroke-width="1"/><path id="e5bzltuqycpk151" d="M567.230000,477.220000L568.860000,475.580000L568.860000,475.670000L567.220000,477.310000L567.220000,477.220000" transform="matrix(1 0 0 1 -422.18000000000001 -448.25999999999999)" fill="rgb(63,63,63)" stroke="none" stroke-width="1"/><path id="e5bzltuqycpk152" d="M567.240000,477.310000L568.880000,475.670000L568.880000,475.760000L567.310000,477.400000L567.310000,477.310000" transform="matrix(1 0 0 1 -422.18000000000001 -448.25999999999999)" fill="rgb(62,62,62)" stroke="none" stroke-width="1"/><path id="e5bzltuqycpk153" d="M567.310000,477.400000L568.950000,475.760000L568.950000,475.860000L567.310000,477.490000C567.300094,477.460818,567.300094,477.429182,567.310000,477.400000" transform="matrix(1 0 0 1 -422.18000000000001 -448.25999999999999)" fill="rgb(62,62,62)" stroke="none" stroke-width="1"/><path id="e5bzltuqycpk154" d="M567.310000,477.490000L568.940000,475.860000L568.940000,476L567.310000,477.640000L567.310000,477.540000" transform="matrix(1 0 0 1 -422.18000000000001 -448.25999999999999)" fill="rgb(61,61,61)" stroke="none" stroke-width="1"/><path id="e5bzltuqycpk155" d="M567.310000,477.590000L569,476L569,476L567.360000,477.640000L567.360000,477.560000" transform="matrix(1 0 0 1 -422.18000000000001 -448.25999999999999)" fill="rgb(61,61,61)" stroke="none" stroke-width="1"/></g><clipPath id="e5bzltuqycpk156" transform="matrix(1 0 0 1 -422.18000000000001 -448.25999999999999)"><path id="e5bzltuqycpk157" d="M566.850000,474C567.987707,474,568.910000,474.922293,568.910000,476.060000L567.310000,477.700000C567.315904,476.581439,566.428102,475.662564,565.310000,475.630000L565.310000,475.630000Z" fill="none" stroke="none" stroke-width="1"/></clipPath></g><g id="e5bzltuqycpk158" clip-path="url(#e5bzltuqycpk183)"><g id="e5bzltuqycpk159"><path id="e5bzltuqycpk160" d="M565.210000,474.670000L566.850000,473.030000L566.930000,473.030000L565.310000,474.670000L565.230000,474.670000" transform="matrix(1 0 0 1 -422.18000000000001 -448.25999999999999)" fill="rgb(239,239,239)" stroke="none" stroke-width="1"/><path id="e5bzltuqycpk161" d="M565.310000,474.670000L567,473L567.160000,473L565.520000,474.640000L565.360000,474.640000" transform="matrix(1 0 0 1 -422.18000000000001 -448.25999999999999)" fill="rgb(241,241,241)" stroke="none" stroke-width="1"/><path id="e5bzltuqycpk162" d="M565.450000,474.680000L567.090000,473.040000L567.260000,473.040000L565.620000,474.680000L565.450000,474.680000" transform="matrix(1 0 0 1 -422.18000000000001 -448.25999999999999)" fill="rgb(243,243,243)" stroke="none" stroke-width="1"/><path id="e5bzltuqycpk163" d="M565.620000,474.700000L567.310000,473.060000L567.500000,473.060000L565.860000,474.700000L565.670000,474.700000" transform="matrix(1 0 0 1 -422.18000000000001 -448.25999999999999)" fill="rgb(245,245,245)" stroke="none" stroke-width="1"/><path id="e5bzltuqycpk164" d="M565.810000,474.730000L567.450000,473.090000L567.660000,473.090000L566,474.810000L565.790000,474.810000" transform="matrix(1 0 0 1 -422.18000000000001 -448.25999999999999)" fill="rgb(247,247,247)" stroke="none" stroke-width="1"/><path id="e5bzltuqycpk165" d="M566,474.810000L567.640000,473.170000L567.920000,473.270000L566.290000,474.870000L566,474.780000" transform="matrix(1 0 0 1 -422.18000000000001 -448.25999999999999)" fill="rgb(249,249,249)" stroke="none" stroke-width="1"/><path id="e5bzltuqycpk166" d="M566.310000,474.870000L567.940000,473.240000C568.276901,473.371741,568.588236,473.561249,568.860000,473.800000L567.220000,475.440000C566.954794,475.195010,566.646171,475.001696,566.310000,474.870000" transform="matrix(1 0 0 1 -422.18000000000001 -448.25999999999999)" fill="rgb(251,251,251)" stroke="none" stroke-width="1"/><path id="e5bzltuqycpk167" d="M567.220000,475.440000L568.860000,473.810000L569.070000,474.020000L567.440000,475.660000L567.220000,475.450000" transform="matrix(1 0 0 1 -422.18000000000001 -448.25999999999999)" fill="rgb(249,249,249)" stroke="none" stroke-width="1"/><path id="e5bzltuqycpk168" d="M567.440000,475.650000L569.070000,474.010000L569.220000,474.180000L567.580000,475.810000C567.530000,475.750000,567.490000,475.690000,567.440000,475.640000" transform="matrix(1 0 0 1 -422.18000000000001 -448.25999999999999)" fill="rgb(247,247,247)" stroke="none" stroke-width="1"/><path id="e5bzltuqycpk169" d="M567.580000,475.810000L569.220000,474.170000L569.330000,474.330000L567.700000,476L567.580000,475.840000" transform="matrix(1 0 0 1 -422.18000000000001 -448.25999999999999)" fill="rgb(245,245,245)" stroke="none" stroke-width="1"/><path id="e5bzltuqycpk170" d="M567.700000,476L569.310000,474.360000L569.410000,474.500000L567.770000,476.140000L567.680000,476" transform="matrix(1 0 0 1 -422.18000000000001 -448.25999999999999)" fill="rgb(243,243,243)" stroke="none" stroke-width="1"/><path id="e5bzltuqycpk171" d="M567.790000,476.120000L569.430000,474.480000C569.430000,474.480000,569.480000,474.570000,569.500000,474.620000L567.870000,476.260000C567.846211,476.211747,567.819495,476.164993,567.790000,476.120000" transform="matrix(1 0 0 1 -422.18000000000001 -448.25999999999999)" fill="rgb(241,241,241)" stroke="none" stroke-width="1"/><path id="e5bzltuqycpk172" d="M567.870000,476.260000L569.500000,474.620000C569.529175,474.659924,569.552729,474.703666,569.570000,474.750000L567.930000,476.390000L567.870000,476.260000" transform="matrix(1 0 0 1 -422.18000000000001 -448.25999999999999)" fill="rgb(239,239,239)" stroke="none" stroke-width="1"/><path id="e5bzltuqycpk173" d="M567.930000,476.390000L569.570000,474.750000L569.630000,474.880000L568,476.520000L567.940000,476.390000" transform="matrix(1 0 0 1 -422.18000000000001 -448.25999999999999)" fill="rgb(237,237,237)" stroke="none" stroke-width="1"/><path id="e5bzltuqycpk174" d="M568,476.520000L569.640000,474.880000C569.636056,474.919903,569.636056,474.960097,569.640000,475L568,476.640000L568,476.520000" transform="matrix(1 0 0 1 -422.18000000000001 -448.25999999999999)" fill="rgb(235,235,235)" stroke="none" stroke-width="1"/><path id="e5bzltuqycpk175" d="M568,476.640000L569.640000,475L569.640000,475.130000L568.040000,476.810000L568.040000,476.680000" transform="matrix(1 0 0 1 -422.18000000000001 -448.25999999999999)" fill="rgb(233,233,233)" stroke="none" stroke-width="1"/><path id="e5bzltuqycpk176" d="M568.080000,476.810000L569.720000,475.170000C569.709801,475.212733,569.709801,475.257267,569.720000,475.300000L568.080000,476.930000L568.080000,476.810000" transform="matrix(1 0 0 1 -422.18000000000001 -448.25999999999999)" fill="rgb(231,231,231)" stroke="none" stroke-width="1"/><path id="e5bzltuqycpk177" d="M568.120000,476.890000L569.760000,475.260000L569.760000,475.380000L568.120000,477L568.120000,476.870000" transform="matrix(1 0 0 1 -422.18000000000001 -448.25999999999999)" fill="rgb(228,228,228)" stroke="none" stroke-width="1"/><path id="e5bzltuqycpk178" d="M568.150000,477L569.790000,475.360000L569.790000,475.490000L568.150000,477.130000L568.150000,477" transform="matrix(1 0 0 1 -422.18000000000001 -448.25999999999999)" fill="rgb(226,226,226)" stroke="none" stroke-width="1"/><path id="e5bzltuqycpk179" d="M568.170000,477.150000L569.810000,475.510000L569.810000,475.640000L568.170000,477.280000L568.170000,477.150000" transform="matrix(1 0 0 1 -422.18000000000001 -448.25999999999999)" fill="rgb(224,224,224)" stroke="none" stroke-width="1"/><path id="e5bzltuqycpk180" d="M568.190000,477.280000L569.830000,475.640000L569.830000,475.780000L568.190000,477.420000L568.190000,477.280000" transform="matrix(1 0 0 1 -422.18000000000001 -448.25999999999999)" fill="rgb(222,222,222)" stroke="none" stroke-width="1"/><path id="e5bzltuqycpk181" d="M568.210000,477.420000L569.850000,475.780000L569.850000,475.920000L568.220000,477.560000L568.220000,477.420000" transform="matrix(1 0 0 1 -422.18000000000001 -448.25999999999999)" fill="rgb(220,220,220)" stroke="none" stroke-width="1"/><path id="e5bzltuqycpk182" d="M568.220000,477.560000L569.850000,475.920000L569.850000,476L568.210000,477.640000L568.210000,477.530000" transform="matrix(1 0 0 1 -422.18000000000001 -448.25999999999999)" fill="rgb(218,218,218)" stroke="none" stroke-width="1"/></g><clipPath id="e5bzltuqycpk183" transform="matrix(1 0 0 1 -422.18000000000001 -448.25999999999999)"><path id="e5bzltuqycpk184" d="M565.210000,474.670000L566.850000,473.030000C568.506854,473.030000,569.850000,474.373146,569.850000,476.030000L568.210000,477.670000C568.210000,476.013146,566.866854,474.670000,565.210000,474.670000Z" fill="none" stroke="none" stroke-width="1"/></clipPath></g><path id="e5bzltuqycpk185" d="M565.210000,474.670000C566.866854,474.670000,568.210000,476.013146,568.210000,477.670000L568.210000,535C568.210000,536.656854,566.866854,538,565.210000,538L464.160000,538C462.503146,538,461.160000,536.656854,461.160000,535L461.160000,477.670000C461.160000,476.013146,462.503146,474.670000,464.160000,474.670000ZM567.310000,535L567.310000,477.670000C567.315904,476.551439,566.428102,475.632564,565.310000,475.600000L464.140000,475.600000C463.000678,475.605504,462.079987,476.530664,462.080000,477.670000L462.080000,535C462.080000,536.137707,463.002293,537.060000,464.140000,537.060000L565.230000,537.060000C566.367707,537.060000,567.290000,536.137707,567.290000,535" transform="matrix(1 0 0 1 -422.18000000000001 -448.25999999999999)" fill="rgb(209,209,209)" stroke="none" stroke-width="1"/><path id="e5bzltuqycpk186" d="M434.180000,477.360000L446.460000,477.360000L446.460000,536.260000L434.180000,536.260000C427.552583,536.260000,422.180000,530.887417,422.180000,524.260000L422.180000,489.260000C422.234905,482.671669,427.591440,477.359771,434.180000,477.360000Z" transform="matrix(1 0 0 1 -422.18000000000001 -448.25999999999999)" fill="rgb(168,217,235)" stroke="none" stroke-width="1"/><path id="e5bzltuqycpk187" d="M437.490000,536.240000L446.490000,536.240000L446.490000,477.350000L437.490000,477.350000C434.624848,477.347343,431.876282,478.484344,429.850313,480.510313C427.824344,482.536282,426.687343,485.284848,426.690000,488.150000L426.690000,488.150000L426.690000,525.420000C426.687347,528.284338,427.822657,531.032415,429.846174,533.059684C431.869692,535.086952,434.615662,536.227349,437.480000,536.230000Z" transform="matrix(1 0 0 1 -422.18000000000001 -448.25999999999999)" fill="rgb(0,53,84)" stroke="none" stroke-width="1"/><polyline id="e5bzltuqycpk188" points="178.730000,0.340000 44.740000,0.340000 24.070000,7.630000 159.560000,7.630000 178.730000,0.340000" fill="rgb(0,76,111)" stroke="none" stroke-width="1"/><polygon id="e5bzltuqycpk189" points="2.430000,68.450000 0.830000,67.610000 0.830000,45.720000 2.430000,46.820000 2.430000,68.450000" fill="rgb(163,178,184)" stroke="none" stroke-width="1"/><path id="e5bzltuqycpk190" d="M424.400000,490.810000C424.970048,492.000103,425.470882,493.222138,425.900000,494.470000L425.900000,516.410000C425.450000,517.620000,425.010000,518.840000,424.420000,520.060000C423.859218,518.870503,423.361854,517.652128,422.930000,516.410000L422.930000,494.480000C423.338444,493.225556,423.829518,491.999540,424.400000,490.810000Z" transform="matrix(1 0 0 1 -422.18000000000001 -448.25999999999999)" fill="url(#e5bzltuqycpk190-fill)" stroke="none" stroke-width="1"/><line id="e5bzltuqycpk191" x1="79.940000" y1="81.710000" x2="42.860000" y2="81.800000" fill="none" stroke="rgb(0,151,255)" stroke-width="4.740000" stroke-miterlimit="10"/><g id="e5bzltuqycpk192"><rect id="e5bzltuqycpk193" width="2.220000" height="2.220000" rx="0" ry="0" transform="matrix(1 0 0 1 46.23000000000000 38.11000000000000)" fill="rgb(0,165,255)" stroke="none" stroke-width="1"/><rect id="e5bzltuqycpk194" width="2.220000" height="2.220000" rx="0" ry="0" transform="matrix(1 0 0 1 48.98000000000000 38.11000000000000)" fill="rgb(0,165,255)" stroke="none" stroke-width="1"/><rect id="e5bzltuqycpk195" width="2.220000" height="2.220000" rx="0" ry="0" transform="matrix(1 0 0 1 48.98000000000000 35.42000000000000)" fill="rgb(0,165,255)" stroke="none" stroke-width="1"/><rect id="e5bzltuqycpk196" width="2.220000" height="2.220000" rx="0" ry="0" transform="matrix(1 0 0 1 46.23000000000000 35.42000000000000)" fill="rgb(0,165,255)" stroke="none" stroke-width="1"/><rect id="e5bzltuqycpk197" width="2.220000" height="2.220000" rx="0" ry="0" transform="matrix(1 0 0 1 43.47000000000000 38.11000000000000)" fill="rgb(0,165,255)" stroke="none" stroke-width="1"/><rect id="e5bzltuqycpk198" width="2.220000" height="2.220000" rx="0" ry="0" transform="matrix(1 0 0 1 43.47000000000000 35.42000000000000)" fill="rgb(0,165,255)" stroke="none" stroke-width="1"/></g><g id="e5bzltuqycpk199"><rect id="e5bzltuqycpk200" width="2.220000" height="2.220000" rx="0" ry="0" transform="matrix(1 0 0 1 46.23000000000000 44.11000000000000)" fill="rgb(0,165,255)" stroke="none" stroke-width="1"/><rect id="e5bzltuqycpk201" width="2.220000" height="2.220000" rx="0" ry="0" transform="matrix(1 0 0 1 48.98000000000000 44.11000000000000)" fill="rgb(0,165,255)" stroke="none" stroke-width="1"/><rect id="e5bzltuqycpk202" width="2.220000" height="2.220000" rx="0" ry="0" transform="matrix(1 0 0 1 48.98000000000000 41.42000000000000)" fill="rgb(0,165,255)" stroke="none" stroke-width="1"/><rect id="e5bzltuqycpk203" width="2.220000" height="2.220000" rx="0" ry="0" transform="matrix(1 0 0 1 46.23000000000000 41.42000000000000)" fill="rgb(0,165,255)" stroke="none" stroke-width="1"/><rect id="e5bzltuqycpk204" width="2.220000" height="2.220000" rx="0" ry="0" transform="matrix(1 0 0 1 43.47000000000000 44.11000000000000)" fill="rgb(0,165,255)" stroke="none" stroke-width="1"/><rect id="e5bzltuqycpk205" width="2.220000" height="2.220000" rx="0" ry="0" transform="matrix(1 0 0 1 43.47000000000000 41.42000000000000)" fill="rgb(0,165,255)" stroke="none" stroke-width="1"/></g><g id="e5bzltuqycpk206"><rect id="e5bzltuqycpk207" width="2.220000" height="2.220000" rx="0" ry="0" transform="matrix(1 0 0 1 46.23000000000000 50.11000000000000)" fill="rgb(0,165,255)" stroke="none" stroke-width="1"/><rect id="e5bzltuqycpk208" width="2.220000" height="2.220000" rx="0" ry="0" transform="matrix(1 0 0 1 48.98000000000000 50.11000000000000)" fill="rgb(0,165,255)" stroke="none" stroke-width="1"/><rect id="e5bzltuqycpk209" width="2.220000" height="2.220000" rx="0" ry="0" transform="matrix(1 0 0 1 48.98000000000000 47.42000000000000)" fill="rgb(0,165,255)" stroke="none" stroke-width="1"/><rect id="e5bzltuqycpk210" width="2.220000" height="2.220000" rx="0" ry="0" transform="matrix(1 0 0 1 46.23000000000000 47.42000000000000)" fill="rgb(0,165,255)" stroke="none" stroke-width="1"/><rect id="e5bzltuqycpk211" width="2.220000" height="2.220000" rx="0" ry="0" transform="matrix(1 0 0 1 43.47000000000000 50.11000000000000)" fill="rgb(0,165,255)" stroke="none" stroke-width="1"/><rect id="e5bzltuqycpk212" width="2.220000" height="2.220000" rx="0" ry="0" transform="matrix(1 0 0 1 43.47000000000000 47.42000000000000)" fill="rgb(0,165,255)" stroke="none" stroke-width="1"/></g><g id="e5bzltuqycpk213"><rect id="e5bzltuqycpk214" width="2.220000" height="2.220000" rx="0" ry="0" transform="matrix(1 0 0 1 46.23000000000000 56.11000000000000)" fill="rgb(0,165,255)" stroke="none" stroke-width="1"/><rect id="e5bzltuqycpk215" width="2.220000" height="2.220000" rx="0" ry="0" transform="matrix(1 0 0 1 48.98000000000000 56.11000000000000)" fill="rgb(0,165,255)" stroke="none" stroke-width="1"/><rect id="e5bzltuqycpk216" width="2.220000" height="2.220000" rx="0" ry="0" transform="matrix(1 0 0 1 48.98000000000000 53.42000000000000)" fill="rgb(0,165,255)" stroke="none" stroke-width="1"/><rect id="e5bzltuqycpk217" width="2.220000" height="2.220000" rx="0" ry="0" transform="matrix(1 0 0 1 46.23000000000000 53.42000000000000)" fill="rgb(0,165,255)" stroke="none" stroke-width="1"/><rect id="e5bzltuqycpk218" width="2.220000" height="2.220000" rx="0" ry="0" transform="matrix(1 0 0 1 43.47000000000000 56.11000000000000)" fill="rgb(0,165,255)" stroke="none" stroke-width="1"/><rect id="e5bzltuqycpk219" width="2.220000" height="2.220000" rx="0" ry="0" transform="matrix(1 0 0 1 43.47000000000000 53.42000000000000)" fill="rgb(0,165,255)" stroke="none" stroke-width="1"/></g><g id="e5bzltuqycpk220"><rect id="e5bzltuqycpk221" width="2.220000" height="2.220000" rx="0" ry="0" transform="matrix(1 0 0 1 46.23000000000000 62.11000000000000)" fill="rgb(0,165,255)" stroke="none" stroke-width="1"/><rect id="e5bzltuqycpk222" width="2.220000" height="2.220000" rx="0" ry="0" transform="matrix(1 0 0 1 48.98000000000000 62.11000000000000)" fill="rgb(0,165,255)" stroke="none" stroke-width="1"/><rect id="e5bzltuqycpk223" width="2.220000" height="2.220000" rx="0" ry="0" transform="matrix(1 0 0 1 48.98000000000000 59.42000000000000)" fill="rgb(0,165,255)" stroke="none" stroke-width="1"/><rect id="e5bzltuqycpk224" width="2.220000" height="2.220000" rx="0" ry="0" transform="matrix(1 0 0 1 46.23000000000000 59.42000000000000)" fill="rgb(0,165,255)" stroke="none" stroke-width="1"/><rect id="e5bzltuqycpk225" width="2.220000" height="2.220000" rx="0" ry="0" transform="matrix(1 0 0 1 43.47000000000000 62.11000000000000)" fill="rgb(0,165,255)" stroke="none" stroke-width="1"/><rect id="e5bzltuqycpk226" width="2.220000" height="2.220000" rx="0" ry="0" transform="matrix(1 0 0 1 43.47000000000000 59.42000000000000)" fill="rgb(0,165,255)" stroke="none" stroke-width="1"/></g><g id="e5bzltuqycpk227"><rect id="e5bzltuqycpk228" width="2.220000" height="2.220000" rx="0" ry="0" transform="matrix(1 0 0 1 46.23000000000000 68.11000000000000)" fill="rgb(0,165,255)" stroke="none" stroke-width="1"/><rect id="e5bzltuqycpk229" width="2.220000" height="2.220000" rx="0" ry="0" transform="matrix(1 0 0 1 48.98000000000000 68.11000000000000)" fill="rgb(0,165,255)" stroke="none" stroke-width="1"/><rect id="e5bzltuqycpk230" width="2.220000" height="2.220000" rx="0" ry="0" transform="matrix(1 0 0 1 48.98000000000000 65.42000000000000)" fill="rgb(0,165,255)" stroke="none" stroke-width="1"/><rect id="e5bzltuqycpk231" width="2.220000" height="2.220000" rx="0" ry="0" transform="matrix(1 0 0 1 46.23000000000000 65.42000000000000)" fill="rgb(0,165,255)" stroke="none" stroke-width="1"/><rect id="e5bzltuqycpk232" width="2.220000" height="2.220000" rx="0" ry="0" transform="matrix(1 0 0 1 43.47000000000000 68.11000000000000)" fill="rgb(0,165,255)" stroke="none" stroke-width="1"/><rect id="e5bzltuqycpk233" width="2.220000" height="2.220000" rx="0" ry="0" transform="matrix(1 0 0 1 43.47000000000000 65.42000000000000)" fill="rgb(0,165,255)" stroke="none" stroke-width="1"/></g><g id="e5bzltuqycpk234"><rect id="e5bzltuqycpk235" width="2.220000" height="2.220000" rx="0" ry="0" transform="matrix(1 0 0 1 46.23000000000000 74.11000000000000)" fill="rgb(0,165,255)" stroke="none" stroke-width="1"/><rect id="e5bzltuqycpk236" width="2.220000" height="2.220000" rx="0" ry="0" transform="matrix(1 0 0 1 48.98000000000000 74.11000000000000)" fill="rgb(0,165,255)" stroke="none" stroke-width="1"/><rect id="e5bzltuqycpk237" width="2.220000" height="2.220000" rx="0" ry="0" transform="matrix(1 0 0 1 48.98000000000000 71.42000000000000)" fill="rgb(0,165,255)" stroke="none" stroke-width="1"/><rect id="e5bzltuqycpk238" width="2.220000" height="2.220000" rx="0" ry="0" transform="matrix(1 0 0 1 46.23000000000000 71.42000000000000)" fill="rgb(0,165,255)" stroke="none" stroke-width="1"/><rect id="e5bzltuqycpk239" width="2.220000" height="2.220000" rx="0" ry="0" transform="matrix(1 0 0 1 43.47000000000000 74.11000000000000)" fill="rgb(0,165,255)" stroke="none" stroke-width="1"/><rect id="e5bzltuqycpk240" width="2.220000" height="2.220000" rx="0" ry="0" transform="matrix(1 0 0 1 43.47000000000000 71.42000000000000)" fill="rgb(0,165,255)" stroke="none" stroke-width="1"/></g><rect id="e5bzltuqycpk241" width="2.220000" height="2.220000" rx="0" ry="0" transform="matrix(1 0 0 1 60.23000000000000 44.11000000000000)" fill="rgb(0,165,255)" stroke="none" stroke-width="1"/><rect id="e5bzltuqycpk242" width="2.220000" height="2.220000" rx="0" ry="0" transform="matrix(1 0 0 1 62.98000000000000 44.11000000000000)" fill="rgb(0,165,255)" stroke="none" stroke-width="1"/><rect id="e5bzltuqycpk243" width="2.220000" height="2.220000" rx="0" ry="0" transform="matrix(1 0 0 1 60.23000000000000 41.42000000000000)" fill="rgb(0,165,255)" stroke="none" stroke-width="1"/><rect id="e5bzltuqycpk244" width="2.220000" height="2.220000" rx="0" ry="0" transform="matrix(1 0 0 1 57.47000000000000 44.11000000000000)" fill="rgb(0,165,255)" stroke="none" stroke-width="1"/><rect id="e5bzltuqycpk245" width="2.220000" height="2.220000" rx="0" ry="0" transform="matrix(1 0 0 1 57.47000000000000 41.42000000000000)" fill="rgb(0,165,255)" stroke="none" stroke-width="1"/><rect id="e5bzltuqycpk246" width="2.220000" height="2.220000" rx="0" ry="0" transform="matrix(1 0 0 1 60.23000000000000 50.11000000000000)" fill="rgb(0,165,255)" stroke="none" stroke-width="1"/><rect id="e5bzltuqycpk247" width="2.220000" height="2.220000" rx="0" ry="0" transform="matrix(1 0 0 1 62.98000000000000 50.11000000000000)" fill="rgb(0,165,255)" stroke="none" stroke-width="1"/><rect id="e5bzltuqycpk248" width="2.220000" height="2.220000" rx="0" ry="0" transform="matrix(1 0 0 1 62.98000000000000 47.42000000000000)" fill="rgb(0,165,255)" stroke="none" stroke-width="1"/><rect id="e5bzltuqycpk249" width="2.220000" height="2.220000" rx="0" ry="0" transform="matrix(1 0 0 1 60.23000000000000 47.42000000000000)" fill="rgb(0,165,255)" stroke="none" stroke-width="1"/><rect id="e5bzltuqycpk250" width="2.220000" height="2.220000" rx="0" ry="0" transform="matrix(1 0 0 1 57.47000000000000 50.11000000000000)" fill="rgb(0,165,255)" stroke="none" stroke-width="1"/><rect id="e5bzltuqycpk251" width="2.220000" height="2.220000" rx="0" ry="0" transform="matrix(1 0 0 1 57.47000000000000 47.42000000000000)" fill="rgb(0,165,255)" stroke="none" stroke-width="1"/><rect id="e5bzltuqycpk252" width="2.220000" height="2.220000" rx="0" ry="0" transform="matrix(1 0 0 1 60.23000000000000 56.11000000000000)" fill="rgb(0,165,255)" stroke="none" stroke-width="1"/><rect id="e5bzltuqycpk253" width="2.220000" height="2.220000" rx="0" ry="0" transform="matrix(1 0 0 1 62.98000000000000 56.11000000000000)" fill="rgb(0,165,255)" stroke="none" stroke-width="1"/><rect id="e5bzltuqycpk254" width="2.220000" height="2.220000" rx="0" ry="0" transform="matrix(1 0 0 1 62.98000000000000 53.42000000000000)" fill="rgb(0,165,255)" stroke="none" stroke-width="1"/><rect id="e5bzltuqycpk255" width="2.220000" height="2.220000" rx="0" ry="0" transform="matrix(1 0 0 1 60.23000000000000 53.42000000000000)" fill="rgb(0,165,255)" stroke="none" stroke-width="1"/><rect id="e5bzltuqycpk256" width="2.220000" height="2.220000" rx="0" ry="0" transform="matrix(1 0 0 1 57.47000000000000 56.11000000000000)" fill="rgb(0,165,255)" stroke="none" stroke-width="1"/><rect id="e5bzltuqycpk257" width="2.220000" height="2.220000" rx="0" ry="0" transform="matrix(1 0 0 1 57.47000000000000 53.42000000000000)" fill="rgb(0,165,255)" stroke="none" stroke-width="1"/><rect id="e5bzltuqycpk258" width="2.220000" height="2.220000" rx="0" ry="0" transform="matrix(1 0 0 1 60.23000000000000 62.11000000000000)" fill="rgb(0,165,255)" stroke="none" stroke-width="1"/><rect id="e5bzltuqycpk259" width="2.220000" height="2.220000" rx="0" ry="0" transform="matrix(1 0 0 1 62.98000000000000 62.11000000000000)" fill="rgb(0,165,255)" stroke="none" stroke-width="1"/><rect id="e5bzltuqycpk260" width="2.220000" height="2.220000" rx="0" ry="0" transform="matrix(1 0 0 1 62.98000000000000 59.42000000000000)" fill="rgb(0,165,255)" stroke="none" stroke-width="1"/><rect id="e5bzltuqycpk261" width="2.220000" height="2.220000" rx="0" ry="0" transform="matrix(1 0 0 1 60.23000000000000 59.42000000000000)" fill="rgb(0,165,255)" stroke="none" stroke-width="1"/><rect id="e5bzltuqycpk262" width="2.220000" height="2.220000" rx="0" ry="0" transform="matrix(1 0 0 1 57.47000000000000 62.11000000000000)" fill="rgb(0,165,255)" stroke="none" stroke-width="1"/><rect id="e5bzltuqycpk263" width="2.220000" height="2.220000" rx="0" ry="0" transform="matrix(1 0 0 1 57.47000000000000 59.42000000000000)" fill="rgb(0,165,255)" stroke="none" stroke-width="1"/><rect id="e5bzltuqycpk264" width="2.220000" height="2.220000" rx="0" ry="0" transform="matrix(1 0 0 1 60.23000000000000 68.11000000000000)" fill="rgb(0,165,255)" stroke="none" stroke-width="1"/><rect id="e5bzltuqycpk265" width="2.220000" height="2.220000" rx="0" ry="0" transform="matrix(1 0 0 1 62.98000000000000 68.11000000000000)" fill="rgb(0,165,255)" stroke="none" stroke-width="1"/><rect id="e5bzltuqycpk266" width="2.220000" height="2.220000" rx="0" ry="0" transform="matrix(1 0 0 1 62.98000000000000 65.42000000000000)" fill="rgb(0,165,255)" stroke="none" stroke-width="1"/><rect id="e5bzltuqycpk267" width="2.220000" height="2.220000" rx="0" ry="0" transform="matrix(1 0 0 1 60.23000000000000 65.42000000000000)" fill="rgb(0,165,255)" stroke="none" stroke-width="1"/><rect id="e5bzltuqycpk268" width="2.220000" height="2.220000" rx="0" ry="0" transform="matrix(1 0 0 1 57.47000000000000 68.11000000000000)" fill="rgb(0,165,255)" stroke="none" stroke-width="1"/><rect id="e5bzltuqycpk269" width="2.220000" height="2.220000" rx="0" ry="0" transform="matrix(1 0 0 1 57.47000000000000 65.42000000000000)" fill="rgb(0,165,255)" stroke="none" stroke-width="1"/><rect id="e5bzltuqycpk270" width="2.220000" height="2.220000" rx="0" ry="0" transform="matrix(1 0 0 1 60.23000000000000 74.11000000000000)" fill="rgb(0,165,255)" stroke="none" stroke-width="1"/><rect id="e5bzltuqycpk271" width="2.220000" height="2.220000" rx="0" ry="0" transform="matrix(1 0 0 1 62.98000000000000 74.11000000000000)" fill="rgb(0,165,255)" stroke="none" stroke-width="1"/><rect id="e5bzltuqycpk272" width="2.220000" height="2.220000" rx="0" ry="0" transform="matrix(1 0 0 1 62.98000000000000 71.42000000000000)" fill="rgb(0,165,255)" stroke="none" stroke-width="1"/><rect id="e5bzltuqycpk273" width="2.220000" height="2.220000" rx="0" ry="0" transform="matrix(1 0 0 1 60.23000000000000 71.42000000000000)" fill="rgb(0,165,255)" stroke="none" stroke-width="1"/><rect id="e5bzltuqycpk274" width="2.220000" height="2.220000" rx="0" ry="0" transform="matrix(1 0 0 1 57.47000000000000 74.11000000000000)" fill="rgb(0,165,255)" stroke="none" stroke-width="1"/><rect id="e5bzltuqycpk275" width="2.220000" height="2.220000" rx="0" ry="0" transform="matrix(1 0 0 1 57.47000000000000 71.42000000000000)" fill="rgb(0,165,255)" stroke="none" stroke-width="1"/><rect id="e5bzltuqycpk276" width="2.220000" height="2.220000" rx="0" ry="0" transform="matrix(1 0 0 1 74.23000000000000 50.11000000000000)" fill="rgb(0,165,255)" stroke="none" stroke-width="1"/><rect id="e5bzltuqycpk277" width="2.220000" height="2.220000" rx="0" ry="0" transform="matrix(1 0 0 1 76.98000000000000 50.11000000000000)" fill="rgb(0,165,255)" stroke="none" stroke-width="1"/><rect id="e5bzltuqycpk278" width="2.220000" height="2.220000" rx="0" ry="0" transform="matrix(1 0 0 1 76.98000000000000 47.42000000000000)" fill="rgb(0,165,255)" stroke="none" stroke-width="1"/><rect id="e5bzltuqycpk279" width="2.220000" height="2.220000" rx="0" ry="0" transform="matrix(1 0 0 1 74.23000000000000 47.42000000000000)" fill="rgb(0,165,255)" stroke="none" stroke-width="1"/><rect id="e5bzltuqycpk280" width="2.220000" height="2.220000" rx="0" ry="0" transform="matrix(1 0 0 1 71.47000000000000 50.11000000000000)" fill="rgb(0,165,255)" stroke="none" stroke-width="1"/><rect id="e5bzltuqycpk281" width="2.220000" height="2.220000" rx="0" ry="0" transform="matrix(1 0 0 1 71.47000000000000 47.42000000000000)" fill="rgb(0,165,255)" stroke="none" stroke-width="1"/><rect id="e5bzltuqycpk282" width="2.220000" height="2.220000" rx="0" ry="0" transform="matrix(1 0 0 1 74.23000000000000 56.11000000000000)" fill="rgb(0,165,255)" stroke="none" stroke-width="1"/><rect id="e5bzltuqycpk283" width="2.220000" height="2.220000" rx="0" ry="0" transform="matrix(1 0 0 1 76.98000000000000 56.11000000000000)" fill="rgb(0,165,255)" stroke="none" stroke-width="1"/><rect id="e5bzltuqycpk284" width="2.220000" height="2.220000" rx="0" ry="0" transform="matrix(1 0 0 1 76.98000000000000 53.42000000000000)" fill="rgb(0,165,255)" stroke="none" stroke-width="1"/><rect id="e5bzltuqycpk285" width="2.220000" height="2.220000" rx="0" ry="0" transform="matrix(1 0 0 1 74.23000000000000 53.42000000000000)" fill="rgb(0,165,255)" stroke="none" stroke-width="1"/><rect id="e5bzltuqycpk286" width="2.220000" height="2.220000" rx="0" ry="0" transform="matrix(1 0 0 1 71.47000000000000 56.11000000000000)" fill="rgb(0,165,255)" stroke="none" stroke-width="1"/><rect id="e5bzltuqycpk287" width="2.220000" height="2.220000" rx="0" ry="0" transform="matrix(1 0 0 1 71.47000000000000 53.42000000000000)" fill="rgb(0,165,255)" stroke="none" stroke-width="1"/><rect id="e5bzltuqycpk288" width="2.220000" height="2.220000" rx="0" ry="0" transform="matrix(1 0 0 1 74.23000000000000 62.11000000000000)" fill="rgb(0,165,255)" stroke="none" stroke-width="1"/><rect id="e5bzltuqycpk289" width="2.220000" height="2.220000" rx="0" ry="0" transform="matrix(1 0 0 1 76.98000000000000 62.11000000000000)" fill="rgb(0,165,255)" stroke="none" stroke-width="1"/><rect id="e5bzltuqycpk290" width="2.220000" height="2.220000" rx="0" ry="0" transform="matrix(1 0 0 1 76.98000000000000 59.42000000000000)" fill="rgb(0,165,255)" stroke="none" stroke-width="1"/><rect id="e5bzltuqycpk291" width="2.220000" height="2.220000" rx="0" ry="0" transform="matrix(1 0 0 1 74.23000000000000 59.42000000000000)" fill="rgb(0,165,255)" stroke="none" stroke-width="1"/><rect id="e5bzltuqycpk292" width="2.220000" height="2.220000" rx="0" ry="0" transform="matrix(1 0 0 1 71.47000000000000 62.11000000000000)" fill="rgb(0,165,255)" stroke="none" stroke-width="1"/><rect id="e5bzltuqycpk293" width="2.220000" height="2.220000" rx="0" ry="0" transform="matrix(1 0 0 1 71.47000000000000 59.42000000000000)" fill="rgb(0,165,255)" stroke="none" stroke-width="1"/><rect id="e5bzltuqycpk294" width="2.220000" height="2.220000" rx="0" ry="0" transform="matrix(1 0 0 1 74.23000000000000 68.11000000000000)" fill="rgb(0,165,255)" stroke="none" stroke-width="1"/><rect id="e5bzltuqycpk295" width="2.220000" height="2.220000" rx="0" ry="0" transform="matrix(1 0 0 1 76.98000000000000 68.11000000000000)" fill="rgb(0,165,255)" stroke="none" stroke-width="1"/><rect id="e5bzltuqycpk296" width="2.220000" height="2.220000" rx="0" ry="0" transform="matrix(1 0 0 1 76.98000000000000 65.42000000000000)" fill="rgb(0,165,255)" stroke="none" stroke-width="1"/><rect id="e5bzltuqycpk297" width="2.220000" height="2.220000" rx="0" ry="0" transform="matrix(1 0 0 1 74.23000000000000 65.42000000000000)" fill="rgb(0,165,255)" stroke="none" stroke-width="1"/><rect id="e5bzltuqycpk298" width="2.220000" height="2.220000" rx="0" ry="0" transform="matrix(1 0 0 1 71.47000000000000 68.11000000000000)" fill="rgb(0,165,255)" stroke="none" stroke-width="1"/><rect id="e5bzltuqycpk299" width="2.220000" height="2.220000" rx="0" ry="0" transform="matrix(1 0 0 1 71.47000000000000 65.42000000000000)" fill="rgb(0,165,255)" stroke="none" stroke-width="1"/><rect id="e5bzltuqycpk300" width="2.220000" height="2.220000" rx="0" ry="0" transform="matrix(1 0 0 1 74.23000000000000 74.11000000000000)" fill="rgb(0,165,255)" stroke="none" stroke-width="1"/><rect id="e5bzltuqycpk301" width="2.220000" height="2.220000" rx="0" ry="0" transform="matrix(1 0 0 1 76.98000000000000 74.11000000000000)" fill="rgb(0,165,255)" stroke="none" stroke-width="1"/><rect id="e5bzltuqycpk302" width="2.220000" height="2.220000" rx="0" ry="0" transform="matrix(1 0 0 1 76.98000000000000 71.42000000000000)" fill="rgb(0,165,255)" stroke="none" stroke-width="1"/><rect id="e5bzltuqycpk303" width="2.220000" height="2.220000" rx="0" ry="0" transform="matrix(1 0 0 1 74.23000000000000 71.42000000000000)" fill="rgb(0,165,255)" stroke="none" stroke-width="1"/><rect id="e5bzltuqycpk304" width="2.220000" height="2.220000" rx="0" ry="0" transform="matrix(1 0 0 1 71.47000000000000 74.11000000000000)" fill="rgb(0,165,255)" stroke="none" stroke-width="1"/><rect id="e5bzltuqycpk305" width="2.220000" height="2.220000" rx="0" ry="0" transform="matrix(1 0 0 1 71.47000000000000 71.42000000000000)" fill="rgb(0,165,255)" stroke="none" stroke-width="1"/><g id="e5bzltuqycpk306"><rect id="e5bzltuqycpk307" width="2.220000" height="2.220000" rx="0" ry="0" transform="matrix(1 0 0 1 74.23000000000000 38.01000000000000)" fill="rgb(0,165,255)" stroke="none" stroke-width="1"/><rect id="e5bzltuqycpk308" width="2.220000" height="2.220000" rx="0" ry="0" transform="matrix(1 0 0 1 76.98000000000000 38.01000000000000)" fill="rgb(0,165,255)" stroke="none" stroke-width="1"/><rect id="e5bzltuqycpk309" width="2.220000" height="2.220000" rx="0" ry="0" transform="matrix(1 0 0 1 74.23000000000000 35.32000000000000)" fill="rgb(0,165,255)" stroke="none" stroke-width="1"/><rect id="e5bzltuqycpk310" width="2.220000" height="2.220000" rx="0" ry="0" transform="matrix(1 0 0 1 76.98000000000000 35.32000000000000)" fill="rgb(0,165,255)" stroke="none" stroke-width="1"/><rect id="e5bzltuqycpk311" width="2.220000" height="2.220000" rx="0" ry="0" transform="matrix(1 0 0 1 71.47000000000000 35.32000000000000)" fill="rgb(0,165,255)" stroke="none" stroke-width="1"/><rect id="e5bzltuqycpk312" width="2.220000" height="2.220000" rx="0" ry="0" transform="matrix(1 0 0 1 71.47000000000000 32.65000000000000)" fill="rgb(0,165,255)" stroke="none" stroke-width="1"/><rect id="e5bzltuqycpk313" width="2.220000" height="2.220000" rx="0" ry="0" transform="matrix(1 0 0 1 71.47000000000000 38.01000000000000)" fill="rgb(0,165,255)" stroke="none" stroke-width="1"/></g><rect id="e5bzltuqycpk314" width="2.220000" height="2.220000" rx="0" ry="0" transform="matrix(1 0 0 1 74.23000000000000 44.01000000000000)" fill="rgb(0,165,255)" stroke="none" stroke-width="1"/><rect id="e5bzltuqycpk315" width="2.220000" height="2.220000" rx="0" ry="0" transform="matrix(1 0 0 1 76.98000000000000 44.01000000000000)" fill="rgb(0,165,255)" stroke="none" stroke-width="1"/><rect id="e5bzltuqycpk316" width="2.220000" height="2.220000" rx="0" ry="0" transform="matrix(1 0 0 1 76.98000000000000 41.32000000000000)" fill="rgb(0,165,255)" stroke="none" stroke-width="1"/><rect id="e5bzltuqycpk317" width="2.220000" height="2.220000" rx="0" ry="0" transform="matrix(1 0 0 1 74.23000000000000 41.32000000000000)" fill="rgb(0,165,255)" stroke="none" stroke-width="1"/><rect id="e5bzltuqycpk318" width="2.220000" height="2.220000" rx="0" ry="0" transform="matrix(1 0 0 1 71.47000000000000 44.01000000000000)" fill="rgb(0,165,255)" stroke="none" stroke-width="1"/><rect id="e5bzltuqycpk319" width="2.220000" height="2.220000" rx="0" ry="0" transform="matrix(1 0 0 1 71.47000000000000 41.32000000000000)" fill="rgb(0,165,255)" stroke="none" stroke-width="1"/><circle id="e5bzltuqycpk320" r="23.680000" transform="matrix(1 0 0 1 115.88000000000000 59.26000000000000)" fill="none" stroke="rgb(0,151,255)" stroke-width="1.850000" stroke-miterlimit="10"/><circle id="e5bzltuqycpk321" r="7.270000" transform="matrix(1 0 0 1 103.91000000000000 48.04000000000000)" fill="rgb(0,151,255)" stroke="none" stroke-width="1"/><circle id="e5bzltuqycpk322" r="7.270000" transform="matrix(1 0 0 1 119.63000000000000 42.85000000000000)" fill="rgb(0,151,255)" stroke="none" stroke-width="1"/><circle id="e5bzltuqycpk323" r="7.270000" transform="matrix(0.98000000000000 0 0 0.98000000000000 115.88000002136231 59.85999997406006)" fill="rgb(0,151,255)" stroke="none" stroke-width="1"/><circle id="e5bzltuqycpk324" r="7.270000" transform="matrix(1 0 0 1 131.19999999999999 53.58000000000000)" fill="rgb(0,151,255)" stroke="none" stroke-width="1"/><circle id="e5bzltuqycpk325" r="7.270000" transform="matrix(0.98000000000000 0 0 0.98000000000000 127.81000002746582 70.03999998016359)" fill="rgb(0,151,255)" stroke="none" stroke-width="1"/><circle id="e5bzltuqycpk326" r="7.270000" transform="matrix(0.98000000000000 0 0 0.98000000000000 100.40000010681153 64.28999998016359)" fill="rgb(0,151,255)" stroke="none" stroke-width="1"/><circle id="e5bzltuqycpk327" r="7.270000" transform="matrix(0.98000000000000 0 0 0.98000000000000 111.80000013732909 75.59000000305176)" fill="rgb(0,151,255)" stroke="none" stroke-width="1"/><circle id="e5bzltuqycpk328" r="7.270000" transform="matrix(1.10000000000000 0 0 1.10000000000000 131.19999992370603 53.57999981689453)" fill="rgb(0,53,84)" stroke="none" stroke-width="1"/><circle id="e5bzltuqycpk329" r="7.270000" transform="matrix(1.10000000000000 0 0 1.10000000000000 103.90999925231934 48.03999990844726)" fill="rgb(0,53,84)" stroke="none" stroke-width="1"/><circle id="e5bzltuqycpk330" r="7.270000" transform="matrix(1.10000000000000 0 0 1.10000000000000 119.62999989318847 42.85000015258790)" fill="rgb(0,53,84)" stroke="none" stroke-width="1"/><circle id="e5bzltuqycpk331" r="7.270000" transform="matrix(1 0 0 1 115.88000000000000 59.86000000000000)" fill="rgb(0,53,84)" stroke="none" stroke-width="1"/><circle id="e5bzltuqycpk332" r="7.270000" transform="matrix(1 0 0 1 127.81000000000000 70.04000000000001)" fill="rgb(0,53,84)" stroke="none" stroke-width="1"/><circle id="e5bzltuqycpk333" r="7.270000" transform="matrix(1 0 0 1 100.40000000000001 64.29000000000001)" fill="rgb(0,53,84)" stroke="none" stroke-width="1"/><circle id="e5bzltuqycpk334" r="7.270000" transform="matrix(1 0 0 1 111.80000000000000 75.59000000000000)" fill="rgb(0,53,84)" stroke="none" stroke-width="1"/></svg>