<svg xmlns="http://www.w3.org/2000/svg" xmlns:xlink="http://www.w3.org/1999/xlink" viewBox="0 0 202.31 104.46"><defs><style>.b656d268-9475-41fe-877d-0450f6a6c8f0,.e34a964e-3720-4004-ae6d-b64457dda524,.f55c84dd-c9dd-4cdd-8566-831b8832cafc{fill:none;}.a798f3a9-e272-4dcf-aa62-6a6ee4bd9957{isolation:isolate;}.ed743184-12e9-4e2b-9a97-aa11bae3fcf1{fill:#00a5ff;}.b41a7e3c-f95c-48f9-9c1e-c96d15dd3dcd{fill:#003554;}.ad34f0ce-7b9b-44da-b6cf-e523ba7d8d8f{fill:#004c6f;}.afba3267-7665-4492-9c04-db3a016e7f5c{clip-path:url(#b49c5d82-8f9e-4c92-86ef-65b3b25d3cd7);}.ab0db065-45b1-4d10-8b2e-94fd08226d75{fill:#dadada;}.befa322e-b7da-4718-a0e7-afcdaffdc25e{fill:#dcdcdc;}.a7490b05-19c5-4cb2-a8e1-f123b82cfd63{fill:#dedede;}.fa929bda-c01d-4b81-a300-466df501677e{fill:#e0e0e0;}.e3062f9f-ef18-4fcd-97c8-6d5dd181b558{fill:#e2e2e2;}.e44f4d0f-dd6a-4d8b-acc0-e3a6d2b5be75{fill:#e4e4e4;}.e0735b1b-4d88-4244-a766-64c4e88c684a{fill:#e7e7e7;}.b1205925-7839-45d3-baa6-55629d6e8d58{fill:#e9e9e9;}.a73e764c-ec2c-4b44-b783-63002da9eee9{fill:#ebebeb;}.f07bf18b-7171-4d06-a63b-df245c47c737{fill:#ededed;}.bed13c32-13e9-49be-89a4-732db7c8bbc7{fill:#efefef;}.e3099f5b-6327-445c-a498-54d332e7c85c{fill:#f1f1f1;}.f9f36de1-b965-4f18-a463-4bed8558540c{fill:#f3f3f3;}.a2485d0e-a418-4a10-9bc9-22d86a534ac5{fill:#f5f5f5;}.e8e24141-9815-4a66-b865-1d0941018de1{fill:#f7f7f7;}.a97a8655-5243-4598-8780-c3b227af87d5{fill:#f9f9f9;}.afadda82-4527-4511-b675-2a71210b82cf{fill:#fbfbfb;}.bc27068d-b1e3-4e78-92f8-564b7aaac15d{fill:#d9d9d9;}.e76a2dd7-2ebd-45da-b659-b881a9749d4c{clip-path:url(#f8d36e95-4c3f-494b-ae08-48810486c111);}.b54c1e68-9a0d-4360-a4d7-c3012aad5794{fill:#cecece;}.aef38357-c232-4ee8-89ea-fca2a9a18824{fill:#d0d0d0;}.f3716390-d698-47fd-b951-0f473a3701ba{fill:#d2d2d2;}.bebc22c7-050e-4d21-8114-c2927f163e2e{fill:#d4d4d4;}.b3789555-3c87-4ba1-99d2-0e29c67b539f{fill:#d6d6d6;}.efb1291e-8000-49b3-9398-33113c32a9df{fill:#d8d8d8;}.be6d5d6f-8124-4814-86c9-51dea21b2ac2{clip-path:url(#a7c59677-1ac1-4b38-b38f-25d40558f2ee);}.b54807cc-fcfe-4dec-b618-9139cbc2832e{fill:#3a3a3a;}.a7a63aac-49bf-4e94-8d20-0da6160c599c{fill:#3b3b3b;}.e06807e7-2e50-4df3-b74f-ac8042f05c91{fill:#3c3c3c;}.b37295d4-bd61-44e9-8fa2-ea2e936dade6{fill:#3d3d3d;}.be8c004b-9883-402d-aa38-037094d154eb{fill:#3e3e3e;}.a232d213-3e91-47c9-962c-12f4cfd3fb5d{fill:#3f3f3f;}.f353dbd5-bdac-470e-a484-380e2d0fe95d{fill:#404040;}.a34879bc-7cf6-43e5-b323-7d2ae444f261{fill:#414141;}.e6cf9193-f4e5-4fcc-9d7b-1bb4a300c15a{fill:#424242;}.bc6b717c-78cf-4830-b801-d6374b1ac096{clip-path:url(#b56da731-54ff-41d4-913f-d7dd894eace3);}.adc8b281-1dd9-4695-ae8f-96203796bf8b{fill:#eee;}.e9c23748-dbc2-44ad-9776-96afed757170{clip-path:url(#e79b9de8-e494-4644-a2f9-e947bc4b5423);}.ad09f5f9-2792-453d-98e0-f91f629df09f{clip-path:url(#f83c6a3c-9e3e-41dc-a951-5924c1e5b7ee);}.bd6f6b87-e859-4df3-866b-258e42ad8a0a{fill:#393939;}.a48c5e8f-e46b-43e1-a211-a4070728ba62{clip-path:url(#a200afd9-ec9b-46c9-9c17-e717605462c2);}.ade3e9c4-cee5-49d3-b7d2-fcd4774ab3e2{clip-path:url(#a0c34e0b-9adb-4fbb-b5cf-68d094bee9a8);}.b0b75e46-0aa7-476f-827a-0128d9ec85db{fill:#434343;}.aff21384-63fc-4209-be60-2df96a678fd3{fill:#444;}.bbfb0cfa-4a62-4543-a1b4-cad253747f61{fill:#454545;}.a5ae488b-fe10-40a5-a8f7-7c3037046c27{fill:#464646;}.b0371c09-4838-40c6-8c36-0e5670a0bdef{clip-path:url(#e1434f24-4b5d-4566-8e86-e9215627264d);}.b65d6b55-50d3-422f-a82d-dccba1ddd326{fill:#d1d1d1;}.b656d268-9475-41fe-877d-0450f6a6c8f0,.f55c84dd-c9dd-4cdd-8566-831b8832cafc{stroke:#0097ff;stroke-miterlimit:10;}.b656d268-9475-41fe-877d-0450f6a6c8f0{stroke-width:4.74px;}.f55c84dd-c9dd-4cdd-8566-831b8832cafc{stroke-width:1.85px;}.b4559480-0683-4064-91f7-9a80513226a4{fill:#0097ff;}.ed740b0d-dbe8-4658-8b60-16967058b376{fill:#a8d9eb;}.b63306e6-f098-44fc-ab55-9d62c57c4b2e{fill:url(#b1b7857e-6c30-44f7-b0d0-606bb8112124);}.adf188c8-63d4-4d78-bd01-8110bcec205b{fill:#d8dee0;}.be5d4e94-2158-4a99-843b-e6d11d31904a{fill:#a3b2b8;mix-blend-mode:multiply;}</style><clipPath id="b49c5d82-8f9e-4c92-86ef-65b3b25d3cd7" transform="translate(-94.49 -72.45)"><path id="a3d217eb-bfcd-4424-948c-b78db62c0b89" data-name="SVGID" class="e34a964e-3720-4004-ae6d-b64457dda524" d="M157.79,159.19l1.64-1.64a2.06,2.06,0,0,0,2.06,2.06l-1.64,1.64A2.06,2.06,0,0,1,157.79,159.19Z"/></clipPath><clipPath id="f8d36e95-4c3f-494b-ae08-48810486c111" transform="translate(-94.49 -72.45)"><path id="f0382300-fcc6-4da1-ab6d-76cdd7e26bdc" data-name="SVGID" class="e34a964e-3720-4004-ae6d-b64457dda524" d="M158.37,100.4,160,98.76a2.06,2.06,0,0,0-.6,1.46l-1.64,1.64A2.06,2.06,0,0,1,158.37,100.4Z"/></clipPath><clipPath id="a7c59677-1ac1-4b38-b38f-25d40558f2ee" transform="translate(-94.49 -72.45)"><path id="f4978c1a-0d99-4b05-943c-231cf538fdbe" data-name="SVGID" class="e34a964e-3720-4004-ae6d-b64457dda524" d="M161.47,98.16l-1.64,1.63a2.09,2.09,0,0,0-1.46.61L160,98.76A2.06,2.06,0,0,1,161.47,98.16Z"/></clipPath><clipPath id="b56da731-54ff-41d4-913f-d7dd894eace3" transform="translate(-94.49 -72.45)"><path id="f13603d9-5287-46ee-9e0b-ed43bbe23386" data-name="SVGID" class="e34a964e-3720-4004-ae6d-b64457dda524" d="M157.71,99.74l1.64-1.64a3,3,0,0,1,2.12-.88l-1.64,1.64A3,3,0,0,0,157.71,99.74Z"/></clipPath><clipPath id="e79b9de8-e494-4644-a2f9-e947bc4b5423" transform="translate(-94.49 -72.45)"><path id="f900cf2e-0226-4a92-bd63-30439e5eaee5" data-name="SVGID" class="e34a964e-3720-4004-ae6d-b64457dda524" d="M264,159l-1.64,1.63a2,2,0,0,1-1.46.61l1.64-1.64A2.08,2.08,0,0,0,264,159Z"/></clipPath><clipPath id="f83c6a3c-9e3e-41dc-a951-5924c1e5b7ee" transform="translate(-94.49 -72.45)"><path id="e8b79601-fc64-4f87-b13f-b97d41bd88fb" data-name="SVGID" class="e34a964e-3720-4004-ae6d-b64457dda524" d="M264,159l-1.64,1.63a2.06,2.06,0,0,0,.6-1.45l1.64-1.64A2.08,2.08,0,0,1,264,159Z"/></clipPath><clipPath id="a200afd9-ec9b-46c9-9c17-e717605462c2" transform="translate(-94.49 -72.45)"><path id="e74cc444-df98-4a4e-ae77-8804499a4c3e" data-name="SVGID" class="e34a964e-3720-4004-ae6d-b64457dda524" d="M264.69,159.66l-1.64,1.64a3,3,0,0,0,.88-2.11l1.63-1.64A3,3,0,0,1,264.69,159.66Z"/></clipPath><clipPath id="a0c34e0b-9adb-4fbb-b5cf-68d094bee9a8" transform="translate(-94.49 -72.45)"><path id="a5b22ac1-cfd4-4067-b9df-75c7f136ea7f" data-name="SVGID" class="e34a964e-3720-4004-ae6d-b64457dda524" d="M262.54,98.16a2.06,2.06,0,0,1,2.06,2.06L263,101.86a2.06,2.06,0,0,0-2.06-2.07Z"/></clipPath><clipPath id="e1434f24-4b5d-4566-8e86-e9215627264d" transform="translate(-94.49 -72.45)"><path id="bd827d18-a865-42fc-967a-1edf61489f56" data-name="SVGID" class="e34a964e-3720-4004-ae6d-b64457dda524" d="M260.9,98.86l1.64-1.64a3,3,0,0,1,3,3l-1.64,1.64A3,3,0,0,0,260.9,98.86Z"/></clipPath><radialGradient id="b1b7857e-6c30-44f7-b0d0-606bb8112124" cx="120.09" cy="129.63" r="10.39" gradientUnits="userSpaceOnUse"><stop offset="0"/><stop offset="0.47" stop-color="#232323"/><stop offset="1" stop-color="#474747"/></radialGradient></defs><title>3-computer</title><g class="a798f3a9-e272-4dcf-aa62-6a6ee4bd9957"><g id="e4a5ed02-b7b1-4aa9-bdbf-0ffba9fe637f" data-name="step3"><rect class="ed743184-12e9-4e2b-9a97-aa11bae3fcf1" x="80.77" y="53.84" width="2.22" height="2.22"/><rect class="ed743184-12e9-4e2b-9a97-aa11bae3fcf1" x="83.5" y="53.84" width="2.22" height="2.22"/><polygon class="b41a7e3c-f95c-48f9-9c1e-c96d15dd3dcd" points="202.31 0 182.14 104.46 182.14 7.29 202.31 0"/><rect class="ad34f0ce-7b9b-44da-b6cf-e523ba7d8d8f" x="47.66" y="7.29" width="134.48" height="97.17"/><g class="a798f3a9-e272-4dcf-aa62-6a6ee4bd9957"><g class="a798f3a9-e272-4dcf-aa62-6a6ee4bd9957"><g class="afba3267-7665-4492-9c04-db3a016e7f5c"><g class="a798f3a9-e272-4dcf-aa62-6a6ee4bd9957"><path class="ab0db065-45b1-4d10-8b2e-94fd08226d75" d="M157.79,159.19l1.64-1.64v.07l-1.64,1.64v-.07" transform="translate(-94.49 -72.45)"/><path class="befa322e-b7da-4718-a0e7-afcdaffdc25e" d="M157.79,159.26l1.64-1.64v.1l-1.64,1.64v-.1" transform="translate(-94.49 -72.45)"/><path class="a7490b05-19c5-4cb2-a8e1-f123b82cfd63" d="M157.79,159.36l1.64-1.64a.28.28,0,0,1,0,.09l-1.64,1.64a.28.28,0,0,0,0-.09" transform="translate(-94.49 -72.45)"/><path class="fa929bda-c01d-4b81-a300-466df501677e" d="M157.8,159.45l1.64-1.64s0,.06,0,.09l-1.64,1.64s0-.06,0-.09" transform="translate(-94.49 -72.45)"/><path class="e3062f9f-ef18-4fcd-97c8-6d5dd181b558" d="M157.82,159.54l1.64-1.64s0,.06,0,.09l-1.63,1.64a.29.29,0,0,1,0-.09" transform="translate(-94.49 -72.45)"/><path class="e44f4d0f-dd6a-4d8b-acc0-e3a6d2b5be75" d="M157.84,159.63l1.63-1.64,0,.09-1.64,1.64a.29.29,0,0,1,0-.09" transform="translate(-94.49 -72.45)"/><path class="e0735b1b-4d88-4244-a766-64c4e88c684a" d="M157.86,159.72l1.64-1.64a.29.29,0,0,0,0,.09l-1.64,1.64s0-.06,0-.09" transform="translate(-94.49 -72.45)"/><path class="b1205925-7839-45d3-baa6-55629d6e8d58" d="M157.88,159.81l1.64-1.64,0,.08-1.64,1.64,0-.08" transform="translate(-94.49 -72.45)"/><path class="a73e764c-ec2c-4b44-b783-63002da9eee9" d="M157.91,159.89l1.64-1.64,0,.09L158,160a.36.36,0,0,1,0-.09" transform="translate(-94.49 -72.45)"/><path class="f07bf18b-7171-4d06-a63b-df245c47c737" d="M158,160l1.63-1.64a.36.36,0,0,1,0,.09L158,160.07a.36.36,0,0,1,0-.09" transform="translate(-94.49 -72.45)"/><path class="bed13c32-13e9-49be-89a4-732db7c8bbc7" d="M158,160.07l1.63-1.64,0,.09L158,160.16l0-.09" transform="translate(-94.49 -72.45)"/><path class="e3099f5b-6327-445c-a498-54d332e7c85c" d="M158,160.16l1.64-1.64.05.09-1.63,1.64-.06-.09" transform="translate(-94.49 -72.45)"/><path class="f9f36de1-b965-4f18-a463-4bed8558540c" d="M158.09,160.25l1.63-1.64a.36.36,0,0,0,.07.1l-1.64,1.64-.06-.1" transform="translate(-94.49 -72.45)"/><path class="a2485d0e-a418-4a10-9bc9-22d86a534ac5" d="M158.15,160.35l1.64-1.64.07.11-1.63,1.64a.76.76,0,0,1-.08-.11" transform="translate(-94.49 -72.45)"/><path class="e8e24141-9815-4a66-b865-1d0941018de1" d="M158.23,160.46l1.63-1.64.1.12-1.63,1.63a.52.52,0,0,1-.1-.11" transform="translate(-94.49 -72.45)"/><path class="a97a8655-5243-4598-8780-c3b227af87d5" d="M158.33,160.57l1.63-1.63.15.14-1.64,1.64-.14-.15" transform="translate(-94.49 -72.45)"/><path class="afadda82-4527-4511-b675-2a71210b82cf" d="M158.47,160.72l1.64-1.64a2,2,0,0,0,.63.39l-1.64,1.64a2.38,2.38,0,0,1-.63-.39" transform="translate(-94.49 -72.45)"/><path class="a97a8655-5243-4598-8780-c3b227af87d5" d="M159.1,161.11l1.64-1.64.19.06-1.64,1.64-.19-.06" transform="translate(-94.49 -72.45)"/><path class="e8e24141-9815-4a66-b865-1d0941018de1" d="M159.29,161.17l1.64-1.64.15,0-1.64,1.64-.15,0" transform="translate(-94.49 -72.45)"/><path class="a2485d0e-a418-4a10-9bc9-22d86a534ac5" d="M159.44,161.21l1.64-1.64.13,0-1.64,1.64-.13,0" transform="translate(-94.49 -72.45)"/><path class="f9f36de1-b965-4f18-a463-4bed8558540c" d="M159.57,161.23l1.64-1.64h.12l-1.64,1.64h-.12" transform="translate(-94.49 -72.45)"/><path class="e3099f5b-6327-445c-a498-54d332e7c85c" d="M159.69,161.24l1.64-1.64h.1l-1.63,1.64h-.11" transform="translate(-94.49 -72.45)"/><path class="bed13c32-13e9-49be-89a4-732db7c8bbc7" d="M159.8,161.25l1.63-1.64h.06l-1.64,1.64h0" transform="translate(-94.49 -72.45)"/></g></g></g><polygon class="bc27068d-b1e3-4e78-92f8-564b7aaac15d" points="63.28 29.41 64.92 27.77 64.93 85.1 63.3 86.74 63.28 29.41"/><g class="a798f3a9-e272-4dcf-aa62-6a6ee4bd9957"><g class="e76a2dd7-2ebd-45da-b659-b881a9749d4c"><g class="a798f3a9-e272-4dcf-aa62-6a6ee4bd9957"><path class="b54c1e68-9a0d-4360-a4d7-c3012aad5794" d="M158.37,100.4,160,98.76a2,2,0,0,0-.48.76l-1.64,1.64a2,2,0,0,1,.48-.76" transform="translate(-94.49 -72.45)"/><path class="aef38357-c232-4ee8-89ea-fca2a9a18824" d="M157.89,101.16l1.64-1.64-.06.18-1.63,1.64a1.21,1.21,0,0,1,0-.18" transform="translate(-94.49 -72.45)"/><path class="f3716390-d698-47fd-b951-0f473a3701ba" d="M157.84,101.34l1.63-1.64,0,.14-1.64,1.64a.74.74,0,0,1,0-.14" transform="translate(-94.49 -72.45)"/><path class="bebc22c7-050e-4d21-8114-c2927f163e2e" d="M157.8,101.48l1.64-1.64s0,.09,0,.13l-1.63,1.63s0-.08,0-.12" transform="translate(-94.49 -72.45)"/><path class="b3789555-3c87-4ba1-99d2-0e29c67b539f" d="M157.79,101.6l1.63-1.63s0,.07,0,.11l-1.64,1.64s0-.08,0-.12" transform="translate(-94.49 -72.45)"/><path class="efb1291e-8000-49b3-9398-33113c32a9df" d="M157.77,101.72l1.64-1.64v.11l-1.64,1.64v-.11" transform="translate(-94.49 -72.45)"/><path class="ab0db065-45b1-4d10-8b2e-94fd08226d75" d="M157.77,101.83l1.64-1.64v0l-1.64,1.64v0" transform="translate(-94.49 -72.45)"/></g></g></g><g class="a798f3a9-e272-4dcf-aa62-6a6ee4bd9957"><g class="be6d5d6f-8124-4814-86c9-51dea21b2ac2"><g class="a798f3a9-e272-4dcf-aa62-6a6ee4bd9957"><path class="b54807cc-fcfe-4dec-b618-9139cbc2832e" d="M158.37,100.4,160,98.76l.1-.09-1.64,1.63-.1.1" transform="translate(-94.49 -72.45)"/><path class="a7a63aac-49bf-4e94-8d20-0da6160c599c" d="M158.47,100.3l1.64-1.63.12-.1-1.64,1.64-.12.09" transform="translate(-94.49 -72.45)"/><path class="a7a63aac-49bf-4e94-8d20-0da6160c599c" d="M158.59,100.21l1.64-1.64.1-.07-1.64,1.64-.1.07" transform="translate(-94.49 -72.45)"/><path class="e06807e7-2e50-4df3-b74f-ac8042f05c91" d="M158.69,100.14l1.64-1.64.09-.06-1.63,1.64-.1.06" transform="translate(-94.49 -72.45)"/><path class="e06807e7-2e50-4df3-b74f-ac8042f05c91" d="M158.79,100.08l1.63-1.64.1,0L158.88,100l-.09,0" transform="translate(-94.49 -72.45)"/><path class="b37295d4-bd61-44e9-8fa2-ea2e936dade6" d="M158.88,100l1.64-1.64.09,0L159,100l-.09,0" transform="translate(-94.49 -72.45)"/><path class="b37295d4-bd61-44e9-8fa2-ea2e936dade6" d="M159,100l1.64-1.64.08,0-1.63,1.63-.09,0" transform="translate(-94.49 -72.45)"/><path class="be8c004b-9883-402d-aa38-037094d154eb" d="M159.06,99.94l1.63-1.63.09,0-1.64,1.64-.08,0" transform="translate(-94.49 -72.45)"/><path class="be8c004b-9883-402d-aa38-037094d154eb" d="M159.14,99.91l1.64-1.64.09,0-1.64,1.63-.09,0" transform="translate(-94.49 -72.45)"/><path class="a232d213-3e91-47c9-962c-12f4cfd3fb5d" d="M159.23,99.88l1.64-1.63.09,0-1.64,1.64-.09,0" transform="translate(-94.49 -72.45)"/><path class="f353dbd5-bdac-470e-a484-380e2d0fe95d" d="M159.32,99.86,161,98.22l.08,0-1.63,1.64-.09,0" transform="translate(-94.49 -72.45)"/><path class="f353dbd5-bdac-470e-a484-380e2d0fe95d" d="M159.41,99.84,161,98.2l.09,0-1.64,1.64-.08,0" transform="translate(-94.49 -72.45)"/><path class="a34879bc-7cf6-43e5-b323-7d2ae444f261" d="M159.49,99.82l1.64-1.64h.09l-1.63,1.64h-.1" transform="translate(-94.49 -72.45)"/><path class="a34879bc-7cf6-43e5-b323-7d2ae444f261" d="M159.59,99.81l1.63-1.64h.1l-1.64,1.64h-.09" transform="translate(-94.49 -72.45)"/><path class="e6cf9193-f4e5-4fcc-9d7b-1bb4a300c15a" d="M159.68,99.8l1.64-1.64h.1l-1.64,1.64h-.1" transform="translate(-94.49 -72.45)"/><path class="e6cf9193-f4e5-4fcc-9d7b-1bb4a300c15a" d="M159.78,99.8l1.64-1.64h.05l-1.64,1.63h-.05" transform="translate(-94.49 -72.45)"/></g></g></g><g class="a798f3a9-e272-4dcf-aa62-6a6ee4bd9957"><g class="bc6b717c-78cf-4830-b801-d6374b1ac096"><g class="a798f3a9-e272-4dcf-aa62-6a6ee4bd9957"><path class="aef38357-c232-4ee8-89ea-fca2a9a18824" d="M157.71,99.74l1.64-1.64.15-.14-1.64,1.64-.15.14" transform="translate(-94.49 -72.45)"/><path class="f3716390-d698-47fd-b951-0f473a3701ba" d="M157.86,99.6,159.5,98l.16-.13L158,99.47l-.16.13" transform="translate(-94.49 -72.45)"/><path class="bebc22c7-050e-4d21-8114-c2927f163e2e" d="M158,99.47l1.64-1.64.15-.11-1.64,1.64-.15.11" transform="translate(-94.49 -72.45)"/><path class="b3789555-3c87-4ba1-99d2-0e29c67b539f" d="M158.17,99.36l1.64-1.64.14-.09-1.64,1.64-.14.09" transform="translate(-94.49 -72.45)"/><path class="efb1291e-8000-49b3-9398-33113c32a9df" d="M158.31,99.27,160,97.63l.14-.07-1.64,1.64-.14.07" transform="translate(-94.49 -72.45)"/><path class="ab0db065-45b1-4d10-8b2e-94fd08226d75" d="M158.45,99.2l1.64-1.64.12-.07-1.63,1.64-.13.07" transform="translate(-94.49 -72.45)"/><path class="befa322e-b7da-4718-a0e7-afcdaffdc25e" d="M158.58,99.13l1.63-1.64.13,0-1.63,1.64-.13,0" transform="translate(-94.49 -72.45)"/><path class="a7490b05-19c5-4cb2-a8e1-f123b82cfd63" d="M158.71,99.08l1.63-1.64.13,0L158.83,99l-.12,0" transform="translate(-94.49 -72.45)"/><path class="fa929bda-c01d-4b81-a300-466df501677e" d="M158.83,99l1.64-1.64.13,0L159,99l-.13,0" transform="translate(-94.49 -72.45)"/><path class="e3062f9f-ef18-4fcd-97c8-6d5dd181b558" d="M159,99l1.64-1.64.12,0L159.09,99,159,99" transform="translate(-94.49 -72.45)"/><path class="e44f4d0f-dd6a-4d8b-acc0-e3a6d2b5be75" d="M159.09,99l1.63-1.64.13,0-1.64,1.64-.12,0" transform="translate(-94.49 -72.45)"/><path class="e0735b1b-4d88-4244-a766-64c4e88c684a" d="M159.21,98.92l1.64-1.64.13,0-1.64,1.64-.13,0" transform="translate(-94.49 -72.45)"/><path class="b1205925-7839-45d3-baa6-55629d6e8d58" d="M159.34,98.9,161,97.26l.13,0-1.63,1.64-.14,0" transform="translate(-94.49 -72.45)"/><path class="a73e764c-ec2c-4b44-b783-63002da9eee9" d="M159.48,98.88l1.63-1.64h.14l-1.64,1.64h-.13" transform="translate(-94.49 -72.45)"/><path class="f07bf18b-7171-4d06-a63b-df245c47c737" d="M159.61,98.87l1.64-1.64h.14l-1.63,1.64h-.15" transform="translate(-94.49 -72.45)"/><path class="bed13c32-13e9-49be-89a4-732db7c8bbc7" d="M159.76,98.86l1.63-1.64h.08l-1.64,1.64h-.07" transform="translate(-94.49 -72.45)"/></g></g></g><polygon class="adc8b281-1dd9-4695-ae8f-96203796bf8b" points="65.36 88.8 67 87.16 168.07 87.16 166.43 88.8 65.36 88.8"/><g class="a798f3a9-e272-4dcf-aa62-6a6ee4bd9957"><g class="e9c23748-dbc2-44ad-9776-96afed757170"><g class="a798f3a9-e272-4dcf-aa62-6a6ee4bd9957"><path class="bed13c32-13e9-49be-89a4-732db7c8bbc7" d="M260.92,161.25l1.64-1.64h.05L261,161.25h-.05" transform="translate(-94.49 -72.45)"/><path class="f07bf18b-7171-4d06-a63b-df245c47c737" d="M261,161.25l1.64-1.64h.1l-1.64,1.64H261" transform="translate(-94.49 -72.45)"/><path class="a73e764c-ec2c-4b44-b783-63002da9eee9" d="M261.07,161.24l1.64-1.64h.09l-1.63,1.64h-.1" transform="translate(-94.49 -72.45)"/><path class="b1205925-7839-45d3-baa6-55629d6e8d58" d="M261.17,161.23l1.63-1.64h.1l-1.64,1.64h-.09" transform="translate(-94.49 -72.45)"/><path class="e0735b1b-4d88-4244-a766-64c4e88c684a" d="M261.26,161.22l1.64-1.64.08,0-1.63,1.64-.09,0" transform="translate(-94.49 -72.45)"/><path class="e44f4d0f-dd6a-4d8b-acc0-e3a6d2b5be75" d="M261.35,161.2l1.63-1.64.09,0-1.64,1.64-.08,0" transform="translate(-94.49 -72.45)"/><path class="e3062f9f-ef18-4fcd-97c8-6d5dd181b558" d="M261.43,161.18l1.64-1.64.09,0-1.64,1.64-.09,0" transform="translate(-94.49 -72.45)"/><path class="fa929bda-c01d-4b81-a300-466df501677e" d="M261.52,161.16l1.64-1.64.09,0-1.64,1.64-.09,0" transform="translate(-94.49 -72.45)"/><path class="a7490b05-19c5-4cb2-a8e1-f123b82cfd63" d="M261.61,161.13l1.64-1.64.08,0-1.64,1.64-.08,0" transform="translate(-94.49 -72.45)"/><path class="befa322e-b7da-4718-a0e7-afcdaffdc25e" d="M261.69,161.1l1.64-1.64.09,0-1.64,1.64-.09,0" transform="translate(-94.49 -72.45)"/><path class="ab0db065-45b1-4d10-8b2e-94fd08226d75" d="M261.78,161.06l1.64-1.64.09,0L261.87,161l-.09.05" transform="translate(-94.49 -72.45)"/><path class="efb1291e-8000-49b3-9398-33113c32a9df" d="M261.87,161l1.64-1.63.09-.06L262,161l-.1,0" transform="translate(-94.49 -72.45)"/><path class="b3789555-3c87-4ba1-99d2-0e29c67b539f" d="M262,161l1.63-1.64a.21.21,0,0,0,.1-.06l-1.64,1.64L262,161" transform="translate(-94.49 -72.45)"/><path class="bebc22c7-050e-4d21-8114-c2927f163e2e" d="M262.06,160.9l1.64-1.64.1-.07-1.64,1.64-.1.07" transform="translate(-94.49 -72.45)"/><path class="f3716390-d698-47fd-b951-0f473a3701ba" d="M262.16,160.83l1.64-1.64.12-.09-1.64,1.64-.12.09" transform="translate(-94.49 -72.45)"/><path class="aef38357-c232-4ee8-89ea-fca2a9a18824" d="M262.28,160.74l1.64-1.64.1-.09-1.64,1.63a.94.94,0,0,1-.1.1" transform="translate(-94.49 -72.45)"/></g></g></g><g class="a798f3a9-e272-4dcf-aa62-6a6ee4bd9957"><g class="ad09f5f9-2792-453d-98e0-f91f629df09f"><g class="a798f3a9-e272-4dcf-aa62-6a6ee4bd9957"><path class="b37295d4-bd61-44e9-8fa2-ea2e936dade6" d="M263,159.19l1.64-1.64v0L263,159.21v0" transform="translate(-94.49 -72.45)"/><path class="e06807e7-2e50-4df3-b74f-ac8042f05c91" d="M263,159.21l1.64-1.63v.1L263,159.32v-.11" transform="translate(-94.49 -72.45)"/><path class="e06807e7-2e50-4df3-b74f-ac8042f05c91" d="M263,159.32l1.64-1.64s0,.08,0,.12L263,159.44a.49.49,0,0,1,0-.12" transform="translate(-94.49 -72.45)"/><path class="a7a63aac-49bf-4e94-8d20-0da6160c599c" d="M263,159.44l1.63-1.64s0,.08,0,.12L263,159.56s0-.08,0-.12" transform="translate(-94.49 -72.45)"/><path class="a7a63aac-49bf-4e94-8d20-0da6160c599c" d="M263,159.56l1.64-1.64a.57.57,0,0,1,0,.14l-1.63,1.64,0-.14" transform="translate(-94.49 -72.45)"/><path class="b54807cc-fcfe-4dec-b618-9139cbc2832e" d="M262.92,159.7l1.63-1.64a1.21,1.21,0,0,1-.05.18l-1.64,1.64.06-.18" transform="translate(-94.49 -72.45)"/><path class="bd6f6b87-e859-4df3-866b-258e42ad8a0a" d="M262.86,159.88l1.64-1.64a2.13,2.13,0,0,1-.48.77l-1.64,1.63a2,2,0,0,0,.48-.76" transform="translate(-94.49 -72.45)"/></g></g></g><g class="a798f3a9-e272-4dcf-aa62-6a6ee4bd9957"><g class="a48c5e8f-e46b-43e1-a211-a4070728ba62"><g class="a798f3a9-e272-4dcf-aa62-6a6ee4bd9957"><path class="ab0db065-45b1-4d10-8b2e-94fd08226d75" d="M263.93,159.19l1.63-1.64v0l-1.63,1.64v0" transform="translate(-94.49 -72.45)"/><path class="efb1291e-8000-49b3-9398-33113c32a9df" d="M263.93,159.23l1.63-1.64v.15l-1.64,1.64s0-.1,0-.15" transform="translate(-94.49 -72.45)"/><path class="b3789555-3c87-4ba1-99d2-0e29c67b539f" d="M263.92,159.38l1.64-1.64c0,.06,0,.12,0,.17l-1.64,1.64a1,1,0,0,0,0-.17" transform="translate(-94.49 -72.45)"/><path class="bebc22c7-050e-4d21-8114-c2927f163e2e" d="M263.9,159.55l1.64-1.64a1.1,1.1,0,0,1,0,.18l-1.64,1.64a1.1,1.1,0,0,0,0-.18" transform="translate(-94.49 -72.45)"/><path class="f3716390-d698-47fd-b951-0f473a3701ba" d="M263.88,159.73l1.64-1.64c0,.07,0,.14,0,.2l-1.64,1.64a1.46,1.46,0,0,0,.05-.2" transform="translate(-94.49 -72.45)"/><path class="aef38357-c232-4ee8-89ea-fca2a9a18824" d="M263.83,159.93l1.64-1.64a2,2,0,0,1-.08.26l-1.64,1.64a2,2,0,0,0,.08-.26" transform="translate(-94.49 -72.45)"/><path class="b54c1e68-9a0d-4360-a4d7-c3012aad5794" d="M263.75,160.19l1.64-1.64a3,3,0,0,1-.7,1.11l-1.64,1.64a3,3,0,0,0,.7-1.11" transform="translate(-94.49 -72.45)"/></g></g></g><polygon class="e6cf9193-f4e5-4fcc-9d7b-1bb4a300c15a" points="65.34 27.35 66.98 25.71 168.05 25.71 166.41 27.35 65.34 27.35"/><polygon class="e06807e7-2e50-4df3-b74f-ac8042f05c91" points="168.47 29.41 170.11 27.77 170.13 85.1 168.49 86.74 168.47 29.41"/><polygon class="adc8b281-1dd9-4695-ae8f-96203796bf8b" points="65.34 26.41 66.98 24.77 168.05 24.77 166.41 26.41 65.34 26.41"/><polygon class="bc27068d-b1e3-4e78-92f8-564b7aaac15d" points="169.42 29.41 171.06 27.77 171.07 85.1 169.44 86.74 169.42 29.41"/><rect class="b54807cc-fcfe-4dec-b618-9139cbc2832e" x="63.29" y="27.35" width="105.19" height="61.45" rx="2.06"/><g class="a798f3a9-e272-4dcf-aa62-6a6ee4bd9957"><g class="ade3e9c4-cee5-49d3-b7d2-fcd4774ab3e2"><g class="a798f3a9-e272-4dcf-aa62-6a6ee4bd9957"><path class="e6cf9193-f4e5-4fcc-9d7b-1bb4a300c15a" d="M260.9,99.79l1.64-1.63h0L261,99.8h-.06" transform="translate(-94.49 -72.45)"/><path class="b0b75e46-0aa7-476f-827a-0128d9ec85db" d="M261,99.8l1.63-1.64h.11l-1.64,1.64H261" transform="translate(-94.49 -72.45)"/><path class="aff21384-63fc-4209-be60-2df96a678fd3" d="M261.06,99.8l1.64-1.64.12,0-1.64,1.63h-.12" transform="translate(-94.49 -72.45)"/><path class="aff21384-63fc-4209-be60-2df96a678fd3" d="M261.18,99.81l1.64-1.63.13,0-1.64,1.64-.13,0" transform="translate(-94.49 -72.45)"/><path class="bbfb0cfa-4a62-4543-a1b4-cad253747f61" d="M261.31,99.84,263,98.2l.15,0-1.64,1.64-.15,0" transform="translate(-94.49 -72.45)"/><path class="bbfb0cfa-4a62-4543-a1b4-cad253747f61" d="M261.46,99.87l1.64-1.64.19.07-1.64,1.63-.19-.06" transform="translate(-94.49 -72.45)"/><path class="a5ae488b-fe10-40a5-a8f7-7c3037046c27" d="M261.65,99.93l1.64-1.63a2.12,2.12,0,0,1,.63.38l-1.64,1.64a2.23,2.23,0,0,0-.63-.39" transform="translate(-94.49 -72.45)"/><path class="bbfb0cfa-4a62-4543-a1b4-cad253747f61" d="M262.28,100.32l1.64-1.64.14.15-1.63,1.64-.15-.15" transform="translate(-94.49 -72.45)"/><path class="bbfb0cfa-4a62-4543-a1b4-cad253747f61" d="M262.43,100.47l1.63-1.64.1.12-1.63,1.63-.1-.11" transform="translate(-94.49 -72.45)"/><path class="aff21384-63fc-4209-be60-2df96a678fd3" d="M262.53,100.58,264.16,99l.08.1-1.64,1.64-.07-.11" transform="translate(-94.49 -72.45)"/><path class="aff21384-63fc-4209-be60-2df96a678fd3" d="M262.6,100.69l1.64-1.64.06.1-1.63,1.64a.61.61,0,0,0-.07-.1" transform="translate(-94.49 -72.45)"/><path class="b0b75e46-0aa7-476f-827a-0128d9ec85db" d="M262.67,100.79l1.63-1.64.06.09-1.64,1.64-.05-.09" transform="translate(-94.49 -72.45)"/><path class="e6cf9193-f4e5-4fcc-9d7b-1bb4a300c15a" d="M262.72,100.88l1.64-1.64,0,.09L262.77,101l0-.09" transform="translate(-94.49 -72.45)"/><path class="e6cf9193-f4e5-4fcc-9d7b-1bb4a300c15a" d="M262.77,101l1.63-1.64a.36.36,0,0,1,0,.09l-1.63,1.64a.36.36,0,0,1,0-.09" transform="translate(-94.49 -72.45)"/><path class="a34879bc-7cf6-43e5-b323-7d2ae444f261" d="M262.81,101.06l1.63-1.64a.36.36,0,0,1,0,.09l-1.64,1.64,0-.09" transform="translate(-94.49 -72.45)"/><path class="a34879bc-7cf6-43e5-b323-7d2ae444f261" d="M262.84,101.15l1.64-1.64,0,.09-1.64,1.64,0-.09" transform="translate(-94.49 -72.45)"/><path class="f353dbd5-bdac-470e-a484-380e2d0fe95d" d="M262.87,101.24l1.64-1.64s0,.06,0,.08l-1.64,1.64a.19.19,0,0,0,0-.08" transform="translate(-94.49 -72.45)"/><path class="f353dbd5-bdac-470e-a484-380e2d0fe95d" d="M262.89,101.32l1.64-1.64a.29.29,0,0,1,0,.09l-1.63,1.64,0-.09" transform="translate(-94.49 -72.45)"/><path class="a232d213-3e91-47c9-962c-12f4cfd3fb5d" d="M262.92,101.41l1.63-1.64a.29.29,0,0,1,0,.09l-1.64,1.64s0-.06,0-.09" transform="translate(-94.49 -72.45)"/><path class="be8c004b-9883-402d-aa38-037094d154eb" d="M262.93,101.5l1.64-1.64s0,.06,0,.09L263,101.59s0-.06,0-.09" transform="translate(-94.49 -72.45)"/><path class="be8c004b-9883-402d-aa38-037094d154eb" d="M263,101.59l1.64-1.64v.1L263,101.68a.28.28,0,0,1,0-.09" transform="translate(-94.49 -72.45)"/><path class="b37295d4-bd61-44e9-8fa2-ea2e936dade6" d="M263,101.68l1.63-1.63a.28.28,0,0,1,0,.09L263,101.78v-.1" transform="translate(-94.49 -72.45)"/><path class="b37295d4-bd61-44e9-8fa2-ea2e936dade6" d="M263,101.78l1.64-1.64v.08L263,101.86v-.08" transform="translate(-94.49 -72.45)"/></g></g></g><g class="a798f3a9-e272-4dcf-aa62-6a6ee4bd9957"><g class="b0371c09-4838-40c6-8c36-0e5670a0bdef"><g class="a798f3a9-e272-4dcf-aa62-6a6ee4bd9957"><path class="bed13c32-13e9-49be-89a4-732db7c8bbc7" d="M260.9,98.86l1.64-1.64h.08L261,98.86h-.08" transform="translate(-94.49 -72.45)"/><path class="e3099f5b-6327-445c-a498-54d332e7c85c" d="M261,98.86l1.64-1.64h.16l-1.64,1.64H261" transform="translate(-94.49 -72.45)"/><path class="f9f36de1-b965-4f18-a463-4bed8558540c" d="M261.14,98.87l1.64-1.64.17,0-1.64,1.64-.17,0" transform="translate(-94.49 -72.45)"/><path class="a2485d0e-a418-4a10-9bc9-22d86a534ac5" d="M261.31,98.89,263,97.25l.19,0-1.64,1.64-.19,0" transform="translate(-94.49 -72.45)"/><path class="e8e24141-9815-4a66-b865-1d0941018de1" d="M261.5,98.92l1.64-1.64.21,0L261.71,99l-.21,0" transform="translate(-94.49 -72.45)"/><path class="a97a8655-5243-4598-8780-c3b227af87d5" d="M261.71,99l1.64-1.64.28.1L262,99.06l-.29-.09" transform="translate(-94.49 -72.45)"/><path class="afadda82-4527-4511-b675-2a71210b82cf" d="M262,99.06l1.63-1.63a3,3,0,0,1,.92.56l-1.64,1.64a3,3,0,0,0-.91-.57" transform="translate(-94.49 -72.45)"/><path class="a97a8655-5243-4598-8780-c3b227af87d5" d="M262.91,99.63,264.55,98l.21.21-1.63,1.64-.22-.21" transform="translate(-94.49 -72.45)"/><path class="e8e24141-9815-4a66-b865-1d0941018de1" d="M263.13,99.84l1.63-1.64.15.17L263.27,100a2.09,2.09,0,0,0-.14-.17" transform="translate(-94.49 -72.45)"/><path class="a2485d0e-a418-4a10-9bc9-22d86a534ac5" d="M263.27,100l1.64-1.64.11.16-1.63,1.64-.12-.16" transform="translate(-94.49 -72.45)"/><path class="f9f36de1-b965-4f18-a463-4bed8558540c" d="M263.39,100.17,265,98.53l.1.14-1.64,1.64-.09-.14" transform="translate(-94.49 -72.45)"/><path class="e3099f5b-6327-445c-a498-54d332e7c85c" d="M263.48,100.31l1.64-1.64s.05.09.07.14l-1.63,1.64s-.05-.1-.08-.14" transform="translate(-94.49 -72.45)"/><path class="bed13c32-13e9-49be-89a4-732db7c8bbc7" d="M263.56,100.45l1.63-1.64a.54.54,0,0,1,.07.13l-1.64,1.64-.06-.13" transform="translate(-94.49 -72.45)"/><path class="f07bf18b-7171-4d06-a63b-df245c47c737" d="M263.62,100.58l1.64-1.64.06.13-1.64,1.64-.06-.13" transform="translate(-94.49 -72.45)"/><path class="a73e764c-ec2c-4b44-b783-63002da9eee9" d="M263.68,100.71l1.64-1.64a.61.61,0,0,0,.05.12l-1.64,1.64-.05-.12" transform="translate(-94.49 -72.45)"/><path class="b1205925-7839-45d3-baa6-55629d6e8d58" d="M263.73,100.83l1.64-1.64s0,.09,0,.13L263.77,101l0-.13" transform="translate(-94.49 -72.45)"/><path class="e0735b1b-4d88-4244-a766-64c4e88c684a" d="M263.77,101l1.64-1.64a.93.93,0,0,0,0,.13l-1.64,1.63s0-.08,0-.12" transform="translate(-94.49 -72.45)"/><path class="e44f4d0f-dd6a-4d8b-acc0-e3a6d2b5be75" d="M263.81,101.08l1.64-1.63,0,.12-1.64,1.64,0-.13" transform="translate(-94.49 -72.45)"/><path class="e3062f9f-ef18-4fcd-97c8-6d5dd181b558" d="M263.84,101.21l1.64-1.64c0,.05,0,.09,0,.13l-1.64,1.64a.59.59,0,0,0,0-.13" transform="translate(-94.49 -72.45)"/><path class="fa929bda-c01d-4b81-a300-466df501677e" d="M263.86,101.34l1.64-1.64a.59.59,0,0,1,0,.13l-1.64,1.64a.59.59,0,0,0,0-.13" transform="translate(-94.49 -72.45)"/><path class="a7490b05-19c5-4cb2-a8e1-f123b82cfd63" d="M263.88,101.47l1.64-1.64s0,.09,0,.14l-1.64,1.64a.68.68,0,0,0,0-.14" transform="translate(-94.49 -72.45)"/><path class="befa322e-b7da-4718-a0e7-afcdaffdc25e" d="M263.9,101.61l1.64-1.64v.14l-1.63,1.64s0-.1,0-.14" transform="translate(-94.49 -72.45)"/><path class="ab0db065-45b1-4d10-8b2e-94fd08226d75" d="M263.91,101.75l1.63-1.64a.41.41,0,0,1,0,.11l-1.64,1.64v-.11" transform="translate(-94.49 -72.45)"/></g></g></g><path class="b65d6b55-50d3-422f-a82d-dccba1ddd326" d="M260.9,98.86a3,3,0,0,1,3,3l0,57.33a3,3,0,0,1-3,3H159.85a3,3,0,0,1-3-3l0-57.33a3,3,0,0,1,3-3ZM263,159.19l0-57.33a2.06,2.06,0,0,0-2.06-2.07H159.83a2.07,2.07,0,0,0-2.06,2.07l0,57.33a2.06,2.06,0,0,0,2.06,2.06H260.92a2.06,2.06,0,0,0,2.06-2.06" transform="translate(-94.49 -72.45)"/></g><line class="b656d268-9475-41fe-877d-0450f6a6c8f0" x1="103.32" y1="81.71" x2="66.24" y2="81.8"/><line class="b656d268-9475-41fe-877d-0450f6a6c8f0" x1="97.39" y1="81.72" x2="97.38" y2="80.53"/><line class="b656d268-9475-41fe-877d-0450f6a6c8f0" x1="85.53" y1="81.74" x2="85.52" y2="80.56"/><line class="b656d268-9475-41fe-877d-0450f6a6c8f0" x1="73.67" y1="81.77" x2="73.67" y2="80.58"/><rect class="ed743184-12e9-4e2b-9a97-aa11bae3fcf1" x="69.61" y="38.11" width="2.22" height="2.22"/><rect class="ed743184-12e9-4e2b-9a97-aa11bae3fcf1" x="72.36" y="38.11" width="2.22" height="2.22"/><rect class="ed743184-12e9-4e2b-9a97-aa11bae3fcf1" x="72.36" y="35.42" width="2.22" height="2.22"/><rect class="ed743184-12e9-4e2b-9a97-aa11bae3fcf1" x="69.61" y="35.42" width="2.22" height="2.22"/><rect class="ed743184-12e9-4e2b-9a97-aa11bae3fcf1" x="66.85" y="38.11" width="2.22" height="2.22"/><rect class="ed743184-12e9-4e2b-9a97-aa11bae3fcf1" x="66.85" y="35.42" width="2.22" height="2.22"/><rect class="ed743184-12e9-4e2b-9a97-aa11bae3fcf1" x="69.61" y="44.11" width="2.22" height="2.22"/><rect class="ed743184-12e9-4e2b-9a97-aa11bae3fcf1" x="72.36" y="44.11" width="2.22" height="2.22"/><rect class="ed743184-12e9-4e2b-9a97-aa11bae3fcf1" x="72.36" y="41.42" width="2.22" height="2.22"/><rect class="ed743184-12e9-4e2b-9a97-aa11bae3fcf1" x="69.61" y="41.42" width="2.22" height="2.22"/><rect class="ed743184-12e9-4e2b-9a97-aa11bae3fcf1" x="66.85" y="44.11" width="2.22" height="2.22"/><rect class="ed743184-12e9-4e2b-9a97-aa11bae3fcf1" x="66.85" y="41.42" width="2.22" height="2.22"/><rect class="ed743184-12e9-4e2b-9a97-aa11bae3fcf1" x="69.61" y="50.11" width="2.22" height="2.22"/><rect class="ed743184-12e9-4e2b-9a97-aa11bae3fcf1" x="72.36" y="50.11" width="2.22" height="2.22"/><rect class="ed743184-12e9-4e2b-9a97-aa11bae3fcf1" x="72.36" y="47.42" width="2.22" height="2.22"/><rect class="ed743184-12e9-4e2b-9a97-aa11bae3fcf1" x="69.61" y="47.42" width="2.22" height="2.22"/><rect class="ed743184-12e9-4e2b-9a97-aa11bae3fcf1" x="66.85" y="50.11" width="2.22" height="2.22"/><rect class="ed743184-12e9-4e2b-9a97-aa11bae3fcf1" x="66.85" y="47.42" width="2.22" height="2.22"/><rect class="ed743184-12e9-4e2b-9a97-aa11bae3fcf1" x="69.61" y="56.11" width="2.22" height="2.22"/><rect class="ed743184-12e9-4e2b-9a97-aa11bae3fcf1" x="72.36" y="56.11" width="2.22" height="2.22"/><rect class="ed743184-12e9-4e2b-9a97-aa11bae3fcf1" x="72.36" y="53.42" width="2.22" height="2.22"/><rect class="ed743184-12e9-4e2b-9a97-aa11bae3fcf1" x="69.61" y="53.42" width="2.22" height="2.22"/><rect class="ed743184-12e9-4e2b-9a97-aa11bae3fcf1" x="66.85" y="56.11" width="2.22" height="2.22"/><rect class="ed743184-12e9-4e2b-9a97-aa11bae3fcf1" x="66.85" y="53.42" width="2.22" height="2.22"/><rect class="ed743184-12e9-4e2b-9a97-aa11bae3fcf1" x="69.61" y="62.11" width="2.22" height="2.22"/><rect class="ed743184-12e9-4e2b-9a97-aa11bae3fcf1" x="72.36" y="62.11" width="2.22" height="2.22"/><rect class="ed743184-12e9-4e2b-9a97-aa11bae3fcf1" x="72.36" y="59.42" width="2.22" height="2.22"/><rect class="ed743184-12e9-4e2b-9a97-aa11bae3fcf1" x="69.61" y="59.42" width="2.22" height="2.22"/><rect class="ed743184-12e9-4e2b-9a97-aa11bae3fcf1" x="66.85" y="62.11" width="2.22" height="2.22"/><rect class="ed743184-12e9-4e2b-9a97-aa11bae3fcf1" x="66.85" y="59.42" width="2.22" height="2.22"/><rect class="ed743184-12e9-4e2b-9a97-aa11bae3fcf1" x="69.61" y="68.11" width="2.22" height="2.22"/><rect class="ed743184-12e9-4e2b-9a97-aa11bae3fcf1" x="72.36" y="68.11" width="2.22" height="2.22"/><rect class="ed743184-12e9-4e2b-9a97-aa11bae3fcf1" x="72.36" y="65.42" width="2.22" height="2.22"/><rect class="ed743184-12e9-4e2b-9a97-aa11bae3fcf1" x="69.61" y="65.42" width="2.22" height="2.22"/><rect class="ed743184-12e9-4e2b-9a97-aa11bae3fcf1" x="66.85" y="68.11" width="2.22" height="2.22"/><rect class="ed743184-12e9-4e2b-9a97-aa11bae3fcf1" x="66.85" y="65.42" width="2.22" height="2.22"/><rect class="ed743184-12e9-4e2b-9a97-aa11bae3fcf1" x="69.61" y="74.11" width="2.22" height="2.22"/><rect class="ed743184-12e9-4e2b-9a97-aa11bae3fcf1" x="72.36" y="74.11" width="2.22" height="2.22"/><rect class="ed743184-12e9-4e2b-9a97-aa11bae3fcf1" x="72.36" y="71.42" width="2.22" height="2.22"/><rect class="ed743184-12e9-4e2b-9a97-aa11bae3fcf1" x="69.61" y="71.42" width="2.22" height="2.22"/><rect class="ed743184-12e9-4e2b-9a97-aa11bae3fcf1" x="66.85" y="74.11" width="2.22" height="2.22"/><rect class="ed743184-12e9-4e2b-9a97-aa11bae3fcf1" x="66.85" y="71.42" width="2.22" height="2.22"/><rect class="ed743184-12e9-4e2b-9a97-aa11bae3fcf1" x="83.61" y="44.11" width="2.22" height="2.22"/><rect class="ed743184-12e9-4e2b-9a97-aa11bae3fcf1" x="86.36" y="44.11" width="2.22" height="2.22"/><rect class="ed743184-12e9-4e2b-9a97-aa11bae3fcf1" x="83.61" y="41.42" width="2.22" height="2.22"/><rect class="ed743184-12e9-4e2b-9a97-aa11bae3fcf1" x="80.85" y="44.11" width="2.22" height="2.22"/><rect class="ed743184-12e9-4e2b-9a97-aa11bae3fcf1" x="80.85" y="41.42" width="2.22" height="2.22"/><rect class="ed743184-12e9-4e2b-9a97-aa11bae3fcf1" x="83.61" y="50.11" width="2.22" height="2.22"/><rect class="ed743184-12e9-4e2b-9a97-aa11bae3fcf1" x="86.36" y="50.11" width="2.22" height="2.22"/><rect class="ed743184-12e9-4e2b-9a97-aa11bae3fcf1" x="86.36" y="47.42" width="2.22" height="2.22"/><rect class="ed743184-12e9-4e2b-9a97-aa11bae3fcf1" x="83.61" y="47.42" width="2.22" height="2.22"/><rect class="ed743184-12e9-4e2b-9a97-aa11bae3fcf1" x="80.85" y="50.11" width="2.22" height="2.22"/><rect class="ed743184-12e9-4e2b-9a97-aa11bae3fcf1" x="80.85" y="47.42" width="2.22" height="2.22"/><rect class="ed743184-12e9-4e2b-9a97-aa11bae3fcf1" x="83.61" y="56.11" width="2.22" height="2.22"/><rect class="ed743184-12e9-4e2b-9a97-aa11bae3fcf1" x="86.36" y="56.11" width="2.22" height="2.22"/><rect class="ed743184-12e9-4e2b-9a97-aa11bae3fcf1" x="86.36" y="53.42" width="2.22" height="2.22"/><rect class="ed743184-12e9-4e2b-9a97-aa11bae3fcf1" x="83.61" y="53.42" width="2.22" height="2.22"/><rect class="ed743184-12e9-4e2b-9a97-aa11bae3fcf1" x="80.85" y="56.11" width="2.22" height="2.22"/><rect class="ed743184-12e9-4e2b-9a97-aa11bae3fcf1" x="80.85" y="53.42" width="2.22" height="2.22"/><rect class="ed743184-12e9-4e2b-9a97-aa11bae3fcf1" x="83.61" y="62.11" width="2.22" height="2.22"/><rect class="ed743184-12e9-4e2b-9a97-aa11bae3fcf1" x="86.36" y="62.11" width="2.22" height="2.22"/><rect class="ed743184-12e9-4e2b-9a97-aa11bae3fcf1" x="86.36" y="59.42" width="2.22" height="2.22"/><rect class="ed743184-12e9-4e2b-9a97-aa11bae3fcf1" x="83.61" y="59.42" width="2.22" height="2.22"/><rect class="ed743184-12e9-4e2b-9a97-aa11bae3fcf1" x="80.85" y="62.11" width="2.22" height="2.22"/><rect class="ed743184-12e9-4e2b-9a97-aa11bae3fcf1" x="80.85" y="59.42" width="2.22" height="2.22"/><rect class="ed743184-12e9-4e2b-9a97-aa11bae3fcf1" x="83.61" y="68.11" width="2.22" height="2.22"/><rect class="ed743184-12e9-4e2b-9a97-aa11bae3fcf1" x="86.36" y="68.11" width="2.22" height="2.22"/><rect class="ed743184-12e9-4e2b-9a97-aa11bae3fcf1" x="86.36" y="65.42" width="2.22" height="2.22"/><rect class="ed743184-12e9-4e2b-9a97-aa11bae3fcf1" x="83.61" y="65.42" width="2.22" height="2.22"/><rect class="ed743184-12e9-4e2b-9a97-aa11bae3fcf1" x="80.85" y="68.11" width="2.22" height="2.22"/><rect class="ed743184-12e9-4e2b-9a97-aa11bae3fcf1" x="80.85" y="65.42" width="2.22" height="2.22"/><rect class="ed743184-12e9-4e2b-9a97-aa11bae3fcf1" x="83.61" y="74.11" width="2.22" height="2.22"/><rect class="ed743184-12e9-4e2b-9a97-aa11bae3fcf1" x="86.36" y="74.11" width="2.22" height="2.22"/><rect class="ed743184-12e9-4e2b-9a97-aa11bae3fcf1" x="86.36" y="71.42" width="2.22" height="2.22"/><rect class="ed743184-12e9-4e2b-9a97-aa11bae3fcf1" x="83.61" y="71.42" width="2.22" height="2.22"/><rect class="ed743184-12e9-4e2b-9a97-aa11bae3fcf1" x="80.85" y="74.11" width="2.22" height="2.22"/><rect class="ed743184-12e9-4e2b-9a97-aa11bae3fcf1" x="80.85" y="71.42" width="2.22" height="2.22"/><rect class="ed743184-12e9-4e2b-9a97-aa11bae3fcf1" x="97.61" y="50.11" width="2.22" height="2.22"/><rect class="ed743184-12e9-4e2b-9a97-aa11bae3fcf1" x="100.36" y="50.11" width="2.22" height="2.22"/><rect class="ed743184-12e9-4e2b-9a97-aa11bae3fcf1" x="100.36" y="47.42" width="2.22" height="2.22"/><rect class="ed743184-12e9-4e2b-9a97-aa11bae3fcf1" x="97.61" y="47.42" width="2.22" height="2.22"/><rect class="ed743184-12e9-4e2b-9a97-aa11bae3fcf1" x="94.85" y="50.11" width="2.22" height="2.22"/><rect class="ed743184-12e9-4e2b-9a97-aa11bae3fcf1" x="94.85" y="47.42" width="2.22" height="2.22"/><rect class="ed743184-12e9-4e2b-9a97-aa11bae3fcf1" x="97.61" y="56.11" width="2.22" height="2.22"/><rect class="ed743184-12e9-4e2b-9a97-aa11bae3fcf1" x="100.36" y="56.11" width="2.22" height="2.22"/><rect class="ed743184-12e9-4e2b-9a97-aa11bae3fcf1" x="100.36" y="53.42" width="2.22" height="2.22"/><rect class="ed743184-12e9-4e2b-9a97-aa11bae3fcf1" x="97.61" y="53.42" width="2.22" height="2.22"/><rect class="ed743184-12e9-4e2b-9a97-aa11bae3fcf1" x="94.85" y="56.11" width="2.22" height="2.22"/><rect class="ed743184-12e9-4e2b-9a97-aa11bae3fcf1" x="94.85" y="53.42" width="2.22" height="2.22"/><rect class="ed743184-12e9-4e2b-9a97-aa11bae3fcf1" x="97.61" y="62.11" width="2.22" height="2.22"/><rect class="ed743184-12e9-4e2b-9a97-aa11bae3fcf1" x="100.36" y="62.11" width="2.22" height="2.22"/><rect class="ed743184-12e9-4e2b-9a97-aa11bae3fcf1" x="100.36" y="59.42" width="2.22" height="2.22"/><rect class="ed743184-12e9-4e2b-9a97-aa11bae3fcf1" x="97.61" y="59.42" width="2.22" height="2.22"/><rect class="ed743184-12e9-4e2b-9a97-aa11bae3fcf1" x="94.85" y="62.11" width="2.22" height="2.22"/><rect class="ed743184-12e9-4e2b-9a97-aa11bae3fcf1" x="94.85" y="59.42" width="2.22" height="2.22"/><rect class="ed743184-12e9-4e2b-9a97-aa11bae3fcf1" x="97.61" y="68.11" width="2.22" height="2.22"/><rect class="ed743184-12e9-4e2b-9a97-aa11bae3fcf1" x="100.36" y="68.11" width="2.22" height="2.22"/><rect class="ed743184-12e9-4e2b-9a97-aa11bae3fcf1" x="100.36" y="65.42" width="2.22" height="2.22"/><rect class="ed743184-12e9-4e2b-9a97-aa11bae3fcf1" x="97.61" y="65.42" width="2.22" height="2.22"/><rect class="ed743184-12e9-4e2b-9a97-aa11bae3fcf1" x="94.85" y="68.11" width="2.22" height="2.22"/><rect class="ed743184-12e9-4e2b-9a97-aa11bae3fcf1" x="94.85" y="65.42" width="2.22" height="2.22"/><rect class="ed743184-12e9-4e2b-9a97-aa11bae3fcf1" x="97.61" y="74.11" width="2.22" height="2.22"/><rect class="ed743184-12e9-4e2b-9a97-aa11bae3fcf1" x="100.36" y="74.11" width="2.22" height="2.22"/><rect class="ed743184-12e9-4e2b-9a97-aa11bae3fcf1" x="100.36" y="71.42" width="2.22" height="2.22"/><rect class="ed743184-12e9-4e2b-9a97-aa11bae3fcf1" x="97.61" y="71.42" width="2.22" height="2.22"/><rect class="ed743184-12e9-4e2b-9a97-aa11bae3fcf1" x="94.85" y="74.11" width="2.22" height="2.22"/><rect class="ed743184-12e9-4e2b-9a97-aa11bae3fcf1" x="94.85" y="71.42" width="2.22" height="2.22"/><rect class="ed743184-12e9-4e2b-9a97-aa11bae3fcf1" x="97.61" y="38.01" width="2.22" height="2.22"/><rect class="ed743184-12e9-4e2b-9a97-aa11bae3fcf1" x="100.36" y="38.01" width="2.22" height="2.22"/><rect class="ed743184-12e9-4e2b-9a97-aa11bae3fcf1" x="97.61" y="35.32" width="2.22" height="2.22"/><rect class="ed743184-12e9-4e2b-9a97-aa11bae3fcf1" x="194.86" y="107.77" width="2.22" height="2.22" transform="translate(297.44 145.31) rotate(180)"/><rect class="ed743184-12e9-4e2b-9a97-aa11bae3fcf1" x="189.34" y="107.77" width="2.22" height="2.22" transform="translate(286.41 145.31) rotate(180)"/><rect class="ed743184-12e9-4e2b-9a97-aa11bae3fcf1" x="189.34" y="105.1" width="2.22" height="2.22" transform="translate(286.41 139.97) rotate(180)"/><rect class="ed743184-12e9-4e2b-9a97-aa11bae3fcf1" x="94.85" y="38.01" width="2.22" height="2.22"/><rect class="ed743184-12e9-4e2b-9a97-aa11bae3fcf1" x="97.61" y="44.01" width="2.22" height="2.22"/><rect class="ed743184-12e9-4e2b-9a97-aa11bae3fcf1" x="100.36" y="44.01" width="2.22" height="2.22"/><rect class="ed743184-12e9-4e2b-9a97-aa11bae3fcf1" x="100.36" y="41.32" width="2.22" height="2.22"/><rect class="ed743184-12e9-4e2b-9a97-aa11bae3fcf1" x="97.61" y="41.32" width="2.22" height="2.22"/><rect class="ed743184-12e9-4e2b-9a97-aa11bae3fcf1" x="94.85" y="44.01" width="2.22" height="2.22"/><rect class="ed743184-12e9-4e2b-9a97-aa11bae3fcf1" x="94.85" y="41.32" width="2.22" height="2.22"/><circle class="f55c84dd-c9dd-4cdd-8566-831b8832cafc" cx="139.26" cy="59.26" r="23.68"/><circle class="b4559480-0683-4064-91f7-9a80513226a4" cx="127.29" cy="48.04" r="7.27"/><circle class="b41a7e3c-f95c-48f9-9c1e-c96d15dd3dcd" cx="143.01" cy="42.85" r="7.27"/><circle class="b4559480-0683-4064-91f7-9a80513226a4" cx="139.26" cy="59.86" r="7.27"/><circle class="b4559480-0683-4064-91f7-9a80513226a4" cx="154.58" cy="53.58" r="7.27"/><circle class="b4559480-0683-4064-91f7-9a80513226a4" cx="151.19" cy="70.04" r="7.27"/><circle class="b4559480-0683-4064-91f7-9a80513226a4" cx="123.78" cy="64.29" r="7.27"/><circle class="b4559480-0683-4064-91f7-9a80513226a4" cx="135.18" cy="75.59" r="7.27"/><path class="ed740b0d-dbe8-4658-8b60-16967058b376" d="M35.38,29.1H47.66a0,0,0,0,1,0,0V88a0,0,0,0,1,0,0H35.38a12,12,0,0,1-12-12v-35A12,12,0,0,1,35.38,29.1Z"/><path class="b41a7e3c-f95c-48f9-9c1e-c96d15dd3dcd" d="M133.18,160.43h9V101.54h-9a10.8,10.8,0,0,0-10.8,10.81v37.27A10.8,10.8,0,0,0,133.18,160.43Z" transform="translate(-94.49 -72.45)"/><path class="b63306e6-f098-44fc-ab55-9d62c57c4b2e" d="M120.09,115a33.18,33.18,0,0,1,1.5,3.66c0,1.22,0,2.43,0,3.65V140.6c-.45,1.21-.89,2.43-1.48,3.65a38.37,38.37,0,0,1-1.49-3.65V122.32c0-1.22,0-2.43,0-3.65A31.34,31.34,0,0,1,120.09,115Z" transform="translate(-94.49 -72.45)"/><path class="adf188c8-63d4-4d78-bd01-8110bcec205b" d="M120.3,140.9s-6.73-2.17-12.91,0-12.9,0-12.9,0V119.27s2.55,4,12.9,0c7.77-3,12.91,0,12.91,0Z" transform="translate(-94.49 -72.45)"/><polygon class="be5d4e94-2158-4a99-843b-e6d11d31904a" points="25.81 68.45 24.21 67.61 24.21 45.72 25.81 46.82 25.81 68.45"/><rect class="b4559480-0683-4064-91f7-9a80513226a4" x="19.35" y="56.38" width="1.55" height="1.55"/><rect class="b4559480-0683-4064-91f7-9a80513226a4" x="19.35" y="53.93" width="1.55" height="1.55"/><rect class="b4559480-0683-4064-91f7-9a80513226a4" x="19.35" y="51.52" width="1.55" height="1.55"/><rect class="b4559480-0683-4064-91f7-9a80513226a4" x="19.35" y="49.1" width="1.55" height="1.55"/><rect class="b4559480-0683-4064-91f7-9a80513226a4" x="19.35" y="58.82" width="1.55" height="1.55"/><rect class="b4559480-0683-4064-91f7-9a80513226a4" x="19.35" y="61.27" width="1.55" height="1.55"/><rect class="b4559480-0683-4064-91f7-9a80513226a4" x="19.35" y="63.72" width="1.55" height="1.55"/><rect class="b4559480-0683-4064-91f7-9a80513226a4" x="21.86" y="57.38" width="1.55" height="1.55"/><rect class="b4559480-0683-4064-91f7-9a80513226a4" x="21.86" y="54.93" width="1.55" height="1.55"/><rect class="b4559480-0683-4064-91f7-9a80513226a4" x="21.86" y="52.52" width="1.55" height="1.55"/><rect class="b4559480-0683-4064-91f7-9a80513226a4" x="21.86" y="59.82" width="1.55" height="1.55"/><rect class="b4559480-0683-4064-91f7-9a80513226a4" x="21.86" y="62.27" width="1.55" height="1.55"/><rect class="b4559480-0683-4064-91f7-9a80513226a4" x="21.86" y="64.72" width="1.55" height="1.55"/><rect class="b4559480-0683-4064-91f7-9a80513226a4" x="9.4" y="52.87" width="1.55" height="1.55"/><rect class="b4559480-0683-4064-91f7-9a80513226a4" x="9.4" y="50.42" width="1.55" height="1.55"/><rect class="b4559480-0683-4064-91f7-9a80513226a4" x="9.4" y="55.32" width="1.55" height="1.55"/><rect class="b4559480-0683-4064-91f7-9a80513226a4" x="9.4" y="57.76" width="1.55" height="1.55"/><rect class="b4559480-0683-4064-91f7-9a80513226a4" x="9.4" y="60.21" width="1.55" height="1.55"/><rect class="b4559480-0683-4064-91f7-9a80513226a4" x="11.9" y="57.3" width="1.55" height="1.55"/><rect class="b4559480-0683-4064-91f7-9a80513226a4" x="11.9" y="54.85" width="1.55" height="1.55"/><rect class="b4559480-0683-4064-91f7-9a80513226a4" x="11.9" y="59.75" width="1.55" height="1.55"/><rect class="b4559480-0683-4064-91f7-9a80513226a4" x="11.9" y="62.19" width="1.55" height="1.55"/><rect class="b4559480-0683-4064-91f7-9a80513226a4" x="11.9" y="64.64" width="1.55" height="1.55"/><rect class="b4559480-0683-4064-91f7-9a80513226a4" x="14.36" y="59.28" width="1.55" height="1.55"/><rect class="b4559480-0683-4064-91f7-9a80513226a4" x="14.36" y="61.73" width="1.55" height="1.55"/><rect class="b4559480-0683-4064-91f7-9a80513226a4" x="14.36" y="64.18" width="1.55" height="1.55"/><rect class="b4559480-0683-4064-91f7-9a80513226a4" x="16.85" y="56.52" width="1.55" height="1.55"/><rect class="b4559480-0683-4064-91f7-9a80513226a4" x="16.85" y="54.08" width="1.55" height="1.55"/><rect class="b4559480-0683-4064-91f7-9a80513226a4" x="16.85" y="51.66" width="1.55" height="1.55"/><rect class="b4559480-0683-4064-91f7-9a80513226a4" x="16.85" y="58.97" width="1.55" height="1.55"/><rect class="b4559480-0683-4064-91f7-9a80513226a4" x="16.85" y="61.41" width="1.55" height="1.55"/><rect class="b4559480-0683-4064-91f7-9a80513226a4" x="16.85" y="63.86" width="1.55" height="1.55"/><rect class="b4559480-0683-4064-91f7-9a80513226a4" x="9.4" y="62.65" width="1.55" height="1.55"/><rect class="b4559480-0683-4064-91f7-9a80513226a4" x="9.4" y="65.1" width="1.55" height="1.55"/><polyline class="ad34f0ce-7b9b-44da-b6cf-e523ba7d8d8f" points="202.11 0.34 68.12 0.34 47.45 7.63 182.94 7.63 202.11 0.34"/></g></g></svg>