<svg id="e0efa05pparz1" xmlns="http://www.w3.org/2000/svg" xmlns:xlink="http://www.w3.org/1999/xlink" viewBox="0 0 125 196" shape-rendering="geometricPrecision" text-rendering="geometricPrecision"><style><![CDATA[#e0efa05pparz2_tr {animation: e0efa05pparz2_tr__tr 2000ms linear infinite normal forwards}@keyframes e0efa05pparz2_tr__tr { 0% {transform: translate(70.819830px,36.013739px) rotate(0deg);animation-timing-function: cubic-bezier(0.420000,0,0.580000,1)} 50% {transform: translate(70.819830px,36.013739px) rotate(13deg);animation-timing-function: cubic-bezier(0.420000,0,0.580000,1)} 100% {transform: translate(70.819830px,36.013739px) rotate(0deg)} }#e0efa05pparz43_to {animation: e0efa05pparz43_to__to 2000ms linear infinite normal forwards}@keyframes e0efa05pparz43_to__to { 0% {transform: translate(106.359406px,35.774994px);animation-timing-function: cubic-bezier(0.420000,0,0.580000,1)} 50% {transform: translate(102.536163px,40.586075px);animation-timing-function: cubic-bezier(0.420000,0,0.580000,1)} 100% {transform: translate(106.359406px,35.774994px)} }]]></style><defs><linearGradient id="e0efa05pparz6-fill" x1="494.296800" y1="544.177200" x2="554.156800" y2="541.782800" spreadMethod="pad" gradientUnits="userSpaceOnUse"><stop id="e0efa05pparz6-fill-0" offset="0%" stop-color="rgb(0,0,0)"/><stop id="e0efa05pparz6-fill-1" offset="100%" stop-color="rgb(0,0,0)"/></linearGradient></defs><g id="e0efa05pparz2_tr" transform="translate(70.819830,36.013739) rotate(0)"><g id="e0efa05pparz2" transform="translate(-70.819830,-36.013739)"><path id="e0efa05pparz3" d="M534.140000,392.850000C534.979864,393.258592,535.717837,393.849654,536.300000,394.580000L551.300000,411.180000C552.380000,412.380000,553.480000,414.240000,552.390000,415.440000C551.300000,416.640000,548.230000,416.690000,546.970000,416C540.810000,412.640000,536.110000,408.070000,531.060000,403.140000C529.440000,401.540000,527.710000,398.930000,528.250000,396.480000C528.790000,394.030000,531.740000,391.840000,534.140000,392.850000Z" transform="matrix(1 0 0 1 -458 -360)" fill="rgb(255,255,255)" stroke="none" stroke-width="1"/><circle id="e0efa05pparz4" r="2" transform="matrix(1 0 0 1 48.80000000000000 17.58000000000000)" opacity="0" fill="rgb(255,255,255)" stroke="none" stroke-width="1"/></g></g><g id="e0efa05pparz5"><path id="e0efa05pparz6" style="isolation:isolate" d="M550.210000,544.310000C550.841149,543.292968,550.669795,541.972289,549.800000,541.150000C548.999959,540.560037,548.008910,540.289103,547.020000,540.390000C530.820000,540.250000,514.620000,540.230000,498.430000,540.690000C496.840000,540.690000,488.370000,541.690000,491.430000,546.060000C492.990000,548.330000,498.260000,547.160000,500.240000,547.060000L532,545.310000L541.110000,544.820000C542.820000,544.710000,549,545.640000,550.210000,544.310000Z" transform="matrix(1 0 0 1 -458 -360)" opacity="0.25" fill="url(#e0efa05pparz6-fill)" stroke="none" stroke-width="1"/><path id="e0efa05pparz7" d="M506.710000,469.190000C508.821378,463.502776,510.607596,457.700073,512.060000,451.810000C512.670000,449.320000,513.340000,446.630000,515.330000,445C517.940000,442.870000,521.780000,443.400000,525,444.390000C528.220000,445.380000,531.180000,446.680000,533.380000,449.060000C536,451.890000,537.020000,455.820000,537.620000,459.620000C538.832903,468.314986,538.937069,477.128777,537.930000,485.850000C537.290000,492.170000,533.050000,493.950000,527.150000,492.850000C522.720000,492.020000,518.480000,490.780000,513.950000,490.430000C512.381615,490.398519,510.825822,490.142588,509.330000,489.670000C505.750000,488.270000,503.880000,484.140000,503.880000,480.300000C503.880000,476.460000,505.340000,472.820000,506.710000,469.190000Z" transform="matrix(1 0 0 1 -458 -360)" fill="rgb(232,232,232)" stroke="none" stroke-width="1"/><path id="e0efa05pparz8" d="M531.640000,536.470000C531.672849,536.412319,531.726515,536.369386,531.790000,536.350000C532.327579,536.037610,532.929724,535.852861,533.550000,535.810000L533.700000,536.390000L533.780000,536.650000C533.822642,537.226866,533.929982,537.797111,534.100000,538.350000C534.140000,538.487143,534.140000,538.632857,534.100000,538.770000C534.008008,538.926824,533.849868,539.033476,533.670000,539.060000C533.420064,539.130909,533.166328,539.187666,532.910000,539.230000C532.814363,539.249952,532.715637,539.249952,532.620000,539.230000C532.533708,539.177251,532.464310,539.100914,532.420000,539.010000C532.017279,538.301013,531.733516,537.530799,531.580000,536.730000C531.568808,536.638974,531.590052,536.546916,531.640000,536.470000Z" transform="matrix(1 0 0 1 -458 -360)" fill="rgb(78,109,157)" stroke="none" stroke-width="1"/><path id="e0efa05pparz9" d="M533.580000,537.690000C533.199552,537.250635,532.597162,537.074612,532.040000,537.240000C531.497546,537.403605,530.994016,537.675784,530.560000,538.040000C530.091956,538.261733,529.870657,538.804133,530.050000,539.290000L530.620000,541.780000C530.668513,542.106874,530.784283,542.420136,530.960000,542.700000C531.471074,543.224216,532.178173,543.510682,532.910000,543.490000C536.100098,543.779802,539.309902,543.779802,542.500000,543.490000C542.908245,543.469585,543.308798,543.371144,543.680000,543.200000C544.499754,542.624571,544.746725,541.519701,544.250000,540.650000C543.722363,539.822447,542.853751,539.272693,541.880000,539.150000C540.921317,539.030336,539.952823,539.010229,538.990000,539.090000C537.847356,539.118689,536.704166,539.061864,535.570000,538.920000C534.210000,538.720000,534.340000,538.720000,533.580000,537.690000Z" transform="matrix(1 0 0 1 -458 -360)" fill="rgb(171,110,117)" stroke="none" stroke-width="1"/><path id="e0efa05pparz10" d="M535.520000,518.760000C534.400818,525.144242,534.249118,531.660594,535.070000,538.090000C532.070000,538.750000,529.400000,539.150000,528.150000,537.530000C526.900000,535.910000,527.280000,516.200000,527.750000,509.270000C528.489980,499.275526,527.360697,489.230678,524.420000,479.650000C522.920000,474.860000,521.740000,462.760000,519.300000,458.400000C517.300000,454.820000,518.300000,444.290000,522.770000,439.270000C530.290000,430.850000,530.700000,444.360000,534.520000,449.490000C539.730000,456.490000,537.660000,468.790000,537.130000,477.890000C536.400000,490.380000,537.510000,506,535.520000,518.760000Z" transform="matrix(1 0 0 1 -458 -360)" fill="rgb(78,109,157)" stroke="none" stroke-width="1"/><path id="e0efa05pparz11" d="M512.800000,536.680000L512.800000,536.190000C512.789986,536.353180,512.789986,536.516820,512.800000,536.680000Z" transform="matrix(1 0 0 1 -458 -360)" fill="rgb(78,109,157)" stroke="none" stroke-width="1"/><path id="e0efa05pparz12" d="M510.670000,536.060000C510.712029,536.006422,510.772750,535.970703,510.840000,535.960000C511.408995,535.709902,512.029745,535.600156,512.650000,535.640000C512.636424,535.840055,512.663641,536.040783,512.730000,536.230000L512.730000,536.510000C512.701828,537.082326,512.738731,537.656000,512.840000,538.220000C512.918824,538.370898,512.907860,538.552993,512.811500,538.693343C512.715140,538.833693,512.549142,538.909347,512.380000,538.890000L511.610000,538.950000C511.513700,538.969175,511.413711,538.951320,511.330000,538.900000C511.244266,538.840658,511.183670,538.751546,511.160000,538.650000C510.843350,537.900479,510.657331,537.102287,510.610000,536.290000C510.597479,536.208342,510.619185,536.125135,510.670000,536.060000Z" transform="matrix(1 0 0 1 -458 -360)" fill="rgb(78,109,157)" stroke="none" stroke-width="1"/><path id="e0efa05pparz13" d="M513.650000,538.740000C513.324678,538.260727,512.752471,538.011603,512.180000,538.100000C511.622472,538.201058,511.089507,538.408133,510.610000,538.710000C510.353282,538.818762,510.139096,539.008369,510,539.250000C509.940202,539.462541,509.940202,539.687459,510,539.900000C510.080000,540.740000,510.170000,541.590000,510.250000,542.430000C510.225636,542.978176,510.436978,543.510583,510.830671,543.892809C511.224364,544.275035,511.762783,544.470552,512.310000,544.430000C515.440975,545.109726,518.627610,545.501360,521.830000,545.600000C522.237959,545.636773,522.649163,545.592594,523.040000,545.470000C523.924287,545.000029,524.305551,543.934222,523.920000,543.010000C523.499746,542.097810,522.685848,541.427541,521.710000,541.190000C520.774477,540.949413,519.815435,540.811928,518.850000,540.780000C517.710303,540.657009,516.580790,540.453162,515.470000,540.170000C514.150000,539.850000,514.270000,539.860000,513.650000,538.740000Z" transform="matrix(1 0 0 1 -458 -360)" fill="rgb(171,110,117)" stroke="none" stroke-width="1"/><path id="e0efa05pparz14" d="M516.740000,519C514.910000,525.380000,515.110000,532.180000,515.280000,538.300000C512.210000,538.570000,509.280000,539.300000,508.280000,537.560000C507.280000,535.820000,508.910000,515.430000,510.280000,508.610000C512.252091,498.786562,512.387711,488.682831,510.680000,478.810000C509.780000,473.870000,510.130000,461.710000,508.250000,457.080000C506.710000,453.280000,509.020000,442.950000,514.090000,438.540000C522.600000,431.130000,521.330000,444.540000,524.470000,450.150000C528.760000,457.770000,525.170000,469.680000,523.470000,478.650000C521.160000,490.930000,520.340000,506.570000,516.740000,519Z" transform="matrix(1 0 0 1 -458 -360)" fill="rgb(78,109,157)" stroke="none" stroke-width="1"/><path id="e0efa05pparz15" d="M515.680000,445.710000Q517.120000,425.310000,517.440000,404.840000C517.440000,401.930000,517.740000,398.500000,519.770000,397.020000C520.696831,396.440833,521.778316,396.158251,522.870000,396.210000C524.721575,396.146664,526.575157,396.243693,528.410000,396.500000C529.788663,396.584251,531.103553,397.110207,532.160000,398C533.470000,399.270000,534,401.370000,534.430000,403.350000C538.260737,420.920299,539.909851,438.895985,539.340000,456.870000C539.369304,457.827908,539.199031,458.781438,538.840000,459.670000C538.030000,461.280000,536.210000,461.480000,534.670000,461.410000C529.520626,461.187092,524.447387,460.084508,519.670000,458.150000C518.250000,457.580000,515.820000,457.150000,515.110000,455.280000C514.270000,453.190000,515.520000,448,515.680000,445.710000Z" transform="matrix(1 0 0 1 -458 -360)" fill="rgb(0,181,231)" stroke="none" stroke-width="1"/><path id="e0efa05pparz16" d="M489,454.790000C488.838780,455.140436,488.800039,455.534894,488.890000,455.910000C489.110000,456.520000,489.890000,456.700000,490.590000,456.800000L491.770000,456.970000C491.958821,456.999937,492.151179,456.999937,492.340000,456.970000C492.658603,456.839400,492.908555,456.582203,493.030000,456.260000C493.650000,455.040000,495.490000,450.590000,493.630000,449.750000C491.140000,448.650000,489.410000,453.440000,489,454.790000Z" transform="matrix(1 0 0 1 -458 -360)" fill="rgb(161,133,120)" stroke="none" stroke-width="1"/><path id="e0efa05pparz17" d="M514.920000,383.930000C515.740000,387.350000,517.920000,390.640000,521.240000,391.810000C523.956303,392.640782,526.897748,392.277191,529.330000,390.810000C530.414870,390.235459,531.360442,389.429845,532.100000,388.450000C532.808970,387.280784,533.312891,385.998997,533.590000,384.660000Q534.740000,380.280000,535.890000,375.910000C536.441160,374.341856,536.589030,372.660267,536.320000,371.020000C535.805157,369.295960,534.563398,367.882545,532.920000,367.150000C531.292978,366.427833,529.530010,366.062964,527.750000,366.080000C525.415503,366.010273,523.082016,366.249002,520.810000,366.790000C519.290516,367.079030,517.857290,367.711839,516.620000,368.640000C514.620000,370.290000,514.620000,372.330000,514.620000,374.640000C514.590000,377.820000,514.180000,380.830000,514.920000,383.930000Z" transform="matrix(1 0 0 1 -458 -360)" fill="rgb(161,133,120)" stroke="none" stroke-width="1"/><path id="e0efa05pparz18" d="M539.570000,363.450000C538.179968,361.619006,535.678230,361.046217,533.630000,362.090000C532.570000,362.730000,529.090000,363.190000,528.190000,362.520000C524.110000,359.460000,514.420000,361.830000,513.440000,366.820000C510.960000,379.440000,510.930000,384.870000,516.390000,389.260000C519.770000,391.970000,511.690000,381.470000,517.020000,376.760000C518.640000,375.340000,519.490000,373.240000,521.020000,371.760000C521.421175,371.322278,521.863176,370.923808,522.340000,370.570000C522.759428,370.955087,523.243516,371.263143,523.770000,371.480000C527.770000,373.130000,532.610000,374.880000,536.900000,373.330000C537.805232,373.037211,538.627862,372.533351,539.300000,371.860000C539.809700,371.258317,540.187808,370.556603,540.410000,369.800000C541.171644,367.671857,540.858799,365.306904,539.570000,363.450000Z" transform="matrix(1 0 0 1 -458 -360)" fill="rgb(48,48,48)" stroke="none" stroke-width="1"/><path id="e0efa05pparz19" d="M526.810000,403.670000C526.920000,401.210000,526.690000,397,528.230000,394.880000C529.950000,392.510000,531.950000,394.610000,532.900000,396.720000C535.040000,401.500000,535.790000,407.500000,537.070000,412.570000C539.750000,423.130000,542.230000,433.760000,544.010000,444.570000C546.867470,461.817324,547.953121,479.311716,547.250000,496.780000C547.274926,497.360630,547.143703,497.937322,546.870000,498.450000C546.387154,499.013018,545.721647,499.388251,544.990000,499.510000C541.210077,500.510611,537.285402,500.848945,533.390000,500.510000C532.990000,495.250000,533.520000,489.970000,533.670000,484.690000C534.010000,472.530000,532.290000,460.440000,530.480000,448.450000C528.880000,437.790000,527.180000,427.110000,526.760000,416.330000C526.600000,412.070000,526.620000,407.860000,526.810000,403.670000Z" transform="matrix(1 0 0 1 -458 -360)" fill="rgb(255,255,255)" stroke="none" stroke-width="1"/><path id="e0efa05pparz20" d="M498,478.480000C500.390000,466.250000,502.860000,454.020000,506.410000,442.090000C509.560000,431.510000,513.610000,420.740000,512.340000,409.780000C511.891195,407.237133,511.600637,404.668863,511.470000,402.090000C511.338560,399.475140,512.289821,396.921565,514.100000,395.030000C519.390000,390.120000,525.100000,402.770000,525.670000,406.850000C527.060000,416.650000,524.090000,426.410000,522.340000,435.970000C520.340000,446.670000,519.850000,457.690000,516.630000,468.080000C515.330000,472.270000,513.630000,476.320000,512.520000,480.560000C510.920000,486.880000,510.800000,493.470000,510.690000,499.980000L499.060000,495.670000C498.334449,495.470630,497.677350,495.076371,497.160000,494.530000C496.769340,493.913834,496.561303,493.199571,496.560000,492.470000C496.220000,487.780000,497.120000,483.090000,498,478.480000Z" transform="matrix(1 0 0 1 -458 -360)" fill="rgb(255,255,255)" stroke="none" stroke-width="1"/><path id="e0efa05pparz21" d="M508.800000,402.190000C509.930000,399.420000,511.630000,396.310000,514.600000,395.910000C514.970633,395.827102,515.358826,395.884085,515.690000,396.070000C515.975006,396.284831,516.182151,396.586771,516.280000,396.930000C517.518707,400.364263,517.641198,404.102004,516.630000,407.610000C515.607284,411.078751,514.223022,414.430475,512.500000,417.610000Q509.500000,423.610000,506.500000,429.680000C504.560000,429.260000,501.690000,429.400000,501.500000,427.110000C501.270000,424.560000,502.780000,420.920000,503.420000,418.450000C504.861705,412.919916,506.658772,407.488631,508.800000,402.190000Z" transform="matrix(1 0 0 1 -458 -360)" fill="rgb(255,255,255)" stroke="none" stroke-width="1"/><path id="e0efa05pparz22" d="M499.920000,426.840000C500.290000,425.770000,500.920000,424.490000,502.130000,424.480000C502.583626,424.510716,503.022950,424.651437,503.410000,424.890000C504.970000,425.650000,506.700000,426.620000,507.040000,428.240000C507.169157,429.343403,506.918749,430.457898,506.330000,431.400000C504.400000,435.200000,501.540000,438.560000,499.790000,442.400000C498.330000,445.640000,497.480000,449.400000,494.480000,451.530000C493.910000,451.110000,492.480000,450.410000,492.280000,449.730000C492.080000,449.050000,492.980000,447.310000,493.220000,446.600000L495.500000,439.880000Q497.710000,433.370000,499.920000,426.840000Z" transform="matrix(1 0 0 1 -458 -360)" fill="rgb(255,255,255)" stroke="none" stroke-width="1"/><path id="e0efa05pparz23" d="M526.340000,399.510000C525.892776,397.353849,525.728059,395.148664,525.850000,392.950000C527.410000,393.030000,532.400000,393.570000,533.850000,393.770000C537.850000,396.190000,528.750000,394.610000,527.590000,395.120000C528.040000,395.520000,529.350000,395.660000,529.670000,396.120000C529.810000,396.320000,529.670000,396.530000,529.600000,396.730000C528.410000,399,527.980000,401.290000,527.160000,403.570000C526.400000,403.280000,526.820000,402.210000,526.750000,401.770000C526.684009,401.005543,526.546746,400.248922,526.340000,399.510000Z" transform="matrix(1 0 0 1 -458 -360)" fill="rgb(255,255,255)" stroke="none" stroke-width="1"/><path id="e0efa05pparz24" d="M517.340000,396.350000C517.650000,396.210000,519.850000,395.790000,519.750000,395.580000C519.650000,395.370000,519.520000,395.370000,519.350000,395.280000C518.160000,394.670000,515.790000,394.920000,514.610000,394.280000C514.890000,394.430000,518.970000,392.650000,519.520000,392.740000C520.590000,392.920000,520.580000,393.980000,520.750000,394.400000C521.370000,395.910000,522,397.400000,522.620000,398.920000L525.510000,405.920000C523.990308,403.043513,521.984004,400.451896,519.580000,398.260000C518.760000,397.500000,516.200000,396.840000,517.340000,396.350000Z" transform="matrix(1 0 0 1 -458 -360)" fill="rgb(255,255,255)" stroke="none" stroke-width="1"/><path id="e0efa05pparz25" d="M480.920000,544.750000C480.920000,544.750000,491.840000,541.250000,498.810000,550.920000C498.810000,550.920000,486.400000,550.250000,480.510000,553.690000C480.510000,553.690000,476.510000,549.450000,471.510000,550.220000C466.510000,550.990000,480.920000,544.750000,480.920000,544.750000Z" transform="matrix(1 0 0 1 -458 -360)" fill="rgb(232,232,232)" stroke="none" stroke-width="1"/><path id="e0efa05pparz26" d="M461.590000,504.790000L461.590000,545.100000C461.590000,545.100000,479.700000,553.370000,479.760000,553.690000C479.820000,554.010000,480.840000,509.690000,480.840000,509.690000Z" transform="matrix(1 0 0 1 -458 -360)" fill="rgb(163,178,184)" stroke="none" stroke-width="1"/><polygon id="e0efa05pparz27" points="22.840000,149.730000 21.760000,193.690000 37.910000,188.490000 39.950000,145.100000 22.840000,149.730000" fill="rgb(216,222,224)" stroke="none" stroke-width="1"/><polygon id="e0efa05pparz28" points="3.580000,144.790000 24.160000,141.220000 39.950000,145.100000 22.840000,149.730000 3.580000,144.790000" fill="rgb(237,237,237)" stroke="none" stroke-width="1"/><path id="e0efa05pparz29" d="M469,520.510000L480.580000,524.570000L492.650000,521.720000L485.370000,523.130000C482.159501,523.472866,478.914757,523.297292,475.760000,522.610000Z" transform="matrix(1 0 0 1 -458 -360)" fill="rgb(160,173,176)" stroke="none" stroke-width="1"/><polygon id="e0efa05pparz30" points="6.750000,182.290000 12.700000,184.250000 6.840000,183.270000 6.750000,182.290000" fill="rgb(160,173,176)" stroke="none" stroke-width="1"/><path id="e0efa05pparz31" d="M489.550000,531.810000L496.860000,530.010000L496.690000,531.810000C495.340000,530.610000,489.550000,531.810000,489.550000,531.810000Z" transform="matrix(1 0 0 1 -458 -360)" fill="rgb(160,173,176)" stroke="none" stroke-width="1"/><path id="e0efa05pparz32" d="M469.690000,535.190000L477.040000,543.770000C478.040000,538.900000,488.910000,536.820000,488.910000,536.820000L481.010000,538.240000C480.536320,538.313738,480.052401,538.286475,479.590000,538.160000Z" transform="matrix(1 0 0 1 -458 -360)" fill="rgb(246,246,244)" stroke="none" stroke-width="1"/><path id="e0efa05pparz33" d="M476.790000,543.760000C477.118271,542.531947,477.882567,541.465487,478.940000,540.760000C479.906813,540.038508,480.953756,539.431147,482.060000,538.950000C483.160131,538.470458,484.288968,538.059668,485.440000,537.720000C486.590000,537.370000,487.750000,537.100000,488.910000,536.830000C487.760000,537.140000,486.610000,537.450000,485.480000,537.830000C484.350479,538.216775,483.245162,538.670924,482.170000,539.190000C481.100176,539.701686,480.093427,540.335938,479.170000,541.080000C478.712639,541.440744,478.305684,541.861152,477.960000,542.330000C477.611408,542.753820,477.377289,543.259931,477.280000,543.800000Z" transform="matrix(1 0 0 1 -458 -360)" fill="rgb(160,173,176)" stroke="none" stroke-width="1"/><polygon id="e0efa05pparz34" points="38,188.880000 27.880000,191.690000 37.850000,188.400000 38,188.880000" fill="rgb(160,173,176)" stroke="none" stroke-width="1"/><polygon id="e0efa05pparz35" points="5.160000,163.420000 10.280000,163.420000 4.880000,161.780000 5.160000,163.420000" fill="rgb(160,173,176)" stroke="none" stroke-width="1"/><polygon id="e0efa05pparz36" points="4.630000,157.620000 1.180000,161.200000 10.280000,163.420000 4.940000,160.760000 4.630000,157.620000" fill="rgb(232,232,232)" stroke="none" stroke-width="1"/><path id="e0efa05pparz37" d="M464.570000,513.500000L480.690000,517.740000L497.560000,513.500000L481.690000,517.110000C481.172356,517.180007,480.647644,517.180007,480.130000,517.110000Z" transform="matrix(1 0 0 1 -458 -360)" fill="rgb(160,173,176)" stroke="none" stroke-width="1"/><path id="e0efa05pparz38" d="M464.570000,513.500000L480.700000,517.680000L480.700000,517.680000L497.560000,513.400000L497.610000,513.600000L481.700000,517.190000L481.700000,517.190000C481.175636,517.259648,480.644364,517.259648,480.120000,517.190000L480.120000,517.190000ZM464.570000,513.500000L480.150000,517L480.150000,517C480.660944,517.070036,481.179056,517.070036,481.690000,517L481.690000,517L497.550000,513.360000L497.600000,513.560000L480.720000,517.770000L480.720000,517.770000Z" transform="matrix(1 0 0 1 -458 -360)" fill="rgb(160,173,176)" stroke="none" stroke-width="1"/><path id="e0efa05pparz39" d="M474.580000,532.590000L480.340000,534.370000L487.030000,532.590000L481.890000,533.280000C480.871457,533.420033,479.838543,533.420033,478.820000,533.280000Z" transform="matrix(1 0 0 1 -458 -360)" fill="rgb(160,173,176)" stroke="none" stroke-width="1"/><path id="e0efa05pparz40" d="M474.580000,532.590000L480.390000,534.310000L480.390000,534.310000L487.080000,532.490000L487.080000,532.690000L483.950000,533.090000C482.950000,533.200000,481.880000,533.400000,480.820000,533.430000C479.771859,533.429030,478.726516,533.321815,477.700000,533.110000C476.680000,532.930000,475.640000,532.750000,474.580000,532.590000ZM474.580000,532.590000C475.580000,532.750000,476.630000,532.880000,477.680000,533.020000C478.715289,533.213640,479.766783,533.307404,480.820000,533.300000C481.863282,533.235085,482.901781,533.108194,483.930000,532.920000L487.050000,532.490000L487.050000,532.680000L480.340000,534.440000L480.340000,534.440000Z" transform="matrix(1 0 0 1 -458 -360)" fill="rgb(160,173,176)" stroke="none" stroke-width="1"/><path id="e0efa05pparz41" d="M525.830000,391L525.830000,397.110000C525.830000,397.110000,522.600000,396.960000,521.520000,396.370000C520.440000,395.780000,518.580000,387.900000,518.580000,387.900000Z" transform="matrix(1 0 0 1 -458 -360)" fill="rgb(161,133,120)" stroke="none" stroke-width="1"/><ellipse id="e0efa05pparz42" rx="2" ry="2.380000" transform="matrix(1 0 0 1 56.81000000000000 18.94000000000000)" fill="rgb(161,133,120)" stroke="none" stroke-width="1"/></g><g id="e0efa05pparz43_to" transform="translate(106.359406,35.774994)"><g id="e0efa05pparz43" transform="translate(-106.359406,-35.774994)"><path id="e0efa05pparz44" d="M556.780000,388C556.703157,387.604705,556.666304,387.202678,556.670000,386.800000C556.132948,386.085875,555.788584,385.245628,555.670000,384.360000Q555.370000,384.870000,555.100000,385.360000C554.710000,385.360000,554.190000,385.360000,553.480000,385.480000C553.068873,385.912301,552.731095,386.408834,552.480000,386.950000C551.480000,389.150000,554.190000,390.950000,556.080000,389.830000C556.330042,389.657289,556.567322,389.466797,556.790000,389.260000C556.735802,388.841945,556.732444,388.418863,556.780000,388Z" transform="matrix(1 0 0 1 -458 -360)" fill="rgb(161,133,120)" stroke="none" stroke-width="1"/><path id="e0efa05pparz45" d="M548.340000,407.560000C550.099782,401.455286,551.199410,395.179359,551.620000,388.840000C552.620000,387.170000,554.160000,388.160000,554.620000,389.310000C555.042376,390.494780,555.199408,391.757863,555.080000,393.010000Q554.930000,400.630000,554.760000,408.280000C554.799419,409.789695,554.610624,411.296686,554.200000,412.750000C553.755802,414.225079,552.645058,415.406169,551.200000,415.940000C545.450000,417.710000,547.600000,410.070000,548.340000,407.560000Z" transform="matrix(1 0 0 1 -458 -360)" fill="rgb(255,255,255)" stroke="none" stroke-width="1"/><path id="e0efa05pparz46" d="M581.390000,398.310000C581.390000,398.310000,574.670000,396.140000,568.490000,398.310000C562.310000,400.480000,555.590000,398.310000,555.590000,398.310000L555.590000,376.680000C555.590000,376.680000,558.140000,380.680000,568.490000,376.680000C576.250000,373.680000,581.390000,376.680000,581.390000,376.680000Z" transform="matrix(1 0 0 1 -458 -360)" fill="rgb(216,222,224)" stroke="none" stroke-width="1"/><rect id="e0efa05pparz47" width="1.550000" height="1.550000" rx="0" ry="0" transform="matrix(1 0 0 1 106.98999999999999 22.73000000000000)" fill="rgb(0,151,255)" stroke="none" stroke-width="1"/><rect id="e0efa05pparz48" width="1.550000" height="1.550000" rx="0" ry="0" transform="matrix(1 0 0 1 106.98999999999999 20.28000000000000)" fill="rgb(0,151,255)" stroke="none" stroke-width="1"/><rect id="e0efa05pparz49" width="1.550000" height="1.550000" rx="0" ry="0" transform="matrix(1 0 0 1 106.98999999999999 25.17000000000000)" fill="rgb(0,151,255)" stroke="none" stroke-width="1"/><rect id="e0efa05pparz50" width="1.550000" height="1.550000" rx="0" ry="0" transform="matrix(1 0 0 1 106.98999999999999 27.62000000000000)" fill="rgb(0,151,255)" stroke="none" stroke-width="1"/><rect id="e0efa05pparz51" width="1.550000" height="1.550000" rx="0" ry="0" transform="matrix(1 0 0 1 106.98999999999999 30.07000000000000)" fill="rgb(0,151,255)" stroke="none" stroke-width="1"/><rect id="e0efa05pparz52" width="1.550000" height="1.550000" rx="0" ry="0" transform="matrix(1 0 0 1 109.48000000000000 27.16000000000000)" fill="rgb(0,151,255)" stroke="none" stroke-width="1"/><rect id="e0efa05pparz53" width="1.550000" height="1.550000" rx="0" ry="0" transform="matrix(1 0 0 1 109.48000000000000 24.71000000000000)" fill="rgb(0,151,255)" stroke="none" stroke-width="1"/><rect id="e0efa05pparz54" width="1.550000" height="1.550000" rx="0" ry="0" transform="matrix(1 0 0 1 109.48000000000000 29.60000000000000)" fill="rgb(0,151,255)" stroke="none" stroke-width="1"/><rect id="e0efa05pparz55" width="1.550000" height="1.550000" rx="0" ry="0" transform="matrix(1 0 0 1 109.48000000000000 32.05000000000000)" fill="rgb(0,151,255)" stroke="none" stroke-width="1"/><rect id="e0efa05pparz56" width="1.550000" height="1.550000" rx="0" ry="0" transform="matrix(1 0 0 1 109.48000000000000 34.50000000000000)" fill="rgb(0,151,255)" stroke="none" stroke-width="1"/><rect id="e0efa05pparz57" width="1.550000" height="1.550000" rx="0" ry="0" transform="matrix(1 0 0 1 111.94000000000000 29.14000000000000)" fill="rgb(0,151,255)" stroke="none" stroke-width="1"/><rect id="e0efa05pparz58" width="1.550000" height="1.550000" rx="0" ry="0" transform="matrix(1 0 0 1 111.94000000000000 31.59000000000000)" fill="rgb(0,151,255)" stroke="none" stroke-width="1"/><rect id="e0efa05pparz59" width="1.550000" height="1.550000" rx="0" ry="0" transform="matrix(1 0 0 1 111.94000000000000 34.04000000000000)" fill="rgb(0,151,255)" stroke="none" stroke-width="1"/><rect id="e0efa05pparz60" width="1.550000" height="1.550000" rx="0" ry="0" transform="matrix(1 0 0 1 114.44000000000000 26.38000000000000)" fill="rgb(0,151,255)" stroke="none" stroke-width="1"/><rect id="e0efa05pparz61" width="1.550000" height="1.550000" rx="0" ry="0" transform="matrix(1 0 0 1 114.44000000000000 23.93000000000000)" fill="rgb(0,151,255)" stroke="none" stroke-width="1"/><rect id="e0efa05pparz62" width="1.550000" height="1.550000" rx="0" ry="0" transform="matrix(1 0 0 1 114.44000000000000 21.52000000000000)" fill="rgb(0,151,255)" stroke="none" stroke-width="1"/><rect id="e0efa05pparz63" width="1.550000" height="1.550000" rx="0" ry="0" transform="matrix(1 0 0 1 114.44000000000000 28.83000000000000)" fill="rgb(0,151,255)" stroke="none" stroke-width="1"/><rect id="e0efa05pparz64" width="1.550000" height="1.550000" rx="0" ry="0" transform="matrix(1 0 0 1 114.44000000000000 31.27000000000000)" fill="rgb(0,151,255)" stroke="none" stroke-width="1"/><rect id="e0efa05pparz65" width="1.550000" height="1.550000" rx="0" ry="0" transform="matrix(1 0 0 1 114.44000000000000 33.72000000000000)" fill="rgb(0,151,255)" stroke="none" stroke-width="1"/><rect id="e0efa05pparz66" width="1.550000" height="1.550000" rx="0" ry="0" transform="matrix(1 0 0 1 116.93000000000001 26.24000000000000)" fill="rgb(0,151,255)" stroke="none" stroke-width="1"/><rect id="e0efa05pparz67" width="1.550000" height="1.550000" rx="0" ry="0" transform="matrix(1 0 0 1 116.93000000000001 23.79000000000000)" fill="rgb(0,151,255)" stroke="none" stroke-width="1"/><rect id="e0efa05pparz68" width="1.550000" height="1.550000" rx="0" ry="0" transform="matrix(1 0 0 1 116.93000000000001 21.37000000000000)" fill="rgb(0,151,255)" stroke="none" stroke-width="1"/><rect id="e0efa05pparz69" width="1.550000" height="1.550000" rx="0" ry="0" transform="matrix(1 0 0 1 116.93000000000001 18.96000000000000)" fill="rgb(0,151,255)" stroke="none" stroke-width="1"/><rect id="e0efa05pparz70" width="1.550000" height="1.550000" rx="0" ry="0" transform="matrix(1 0 0 1 116.93000000000001 28.68000000000000)" fill="rgb(0,151,255)" stroke="none" stroke-width="1"/><rect id="e0efa05pparz71" width="1.550000" height="1.550000" rx="0" ry="0" transform="matrix(1 0 0 1 116.93000000000001 31.13000000000000)" fill="rgb(0,151,255)" stroke="none" stroke-width="1"/><rect id="e0efa05pparz72" width="1.550000" height="1.550000" rx="0" ry="0" transform="matrix(1 0 0 1 116.93000000000001 33.57000000000000)" fill="rgb(0,151,255)" stroke="none" stroke-width="1"/><rect id="e0efa05pparz73" width="1.550000" height="1.550000" rx="0" ry="0" transform="matrix(1 0 0 1 119.45000000000000 27.24000000000000)" fill="rgb(0,151,255)" stroke="none" stroke-width="1"/><rect id="e0efa05pparz74" width="1.550000" height="1.550000" rx="0" ry="0" transform="matrix(1 0 0 1 119.45000000000000 24.79000000000000)" fill="rgb(0,151,255)" stroke="none" stroke-width="1"/><rect id="e0efa05pparz75" width="1.550000" height="1.550000" rx="0" ry="0" transform="matrix(1 0 0 1 119.45000000000000 22.38000000000000)" fill="rgb(0,151,255)" stroke="none" stroke-width="1"/><rect id="e0efa05pparz76" width="1.550000" height="1.550000" rx="0" ry="0" transform="matrix(1 0 0 1 119.45000000000000 29.68000000000000)" fill="rgb(0,151,255)" stroke="none" stroke-width="1"/><rect id="e0efa05pparz77" width="1.550000" height="1.550000" rx="0" ry="0" transform="matrix(1 0 0 1 119.45000000000000 32.13000000000000)" fill="rgb(0,151,255)" stroke="none" stroke-width="1"/><rect id="e0efa05pparz78" width="1.550000" height="1.550000" rx="0" ry="0" transform="matrix(1 0 0 1 119.45000000000000 34.58000000000000)" fill="rgb(0,151,255)" stroke="none" stroke-width="1"/><rect id="e0efa05pparz79" width="1.550000" height="1.550000" rx="0" ry="0" transform="matrix(1 0 0 1 106.98999999999999 32.51000000000000)" fill="rgb(0,151,255)" stroke="none" stroke-width="1"/><rect id="e0efa05pparz80" width="1.550000" height="1.550000" rx="0" ry="0" transform="matrix(1 0 0 1 106.98999999999999 34.96000000000000)" fill="rgb(0,151,255)" stroke="none" stroke-width="1"/><path id="e0efa05pparz81" d="M552.520000,386.550000C552.899091,385.770598,553.402316,385.057978,554.010000,384.440000C561.660000,383.650000,555.010000,385.850000,554.440000,386.300000C554.503276,386.522199,554.437757,386.761149,554.270000,386.920000C554.570000,386.720000,551.150000,389.690000,552.520000,386.550000Z" transform="matrix(1 0 0 1 -458 -360)" fill="rgb(161,133,120)" stroke="none" stroke-width="1"/></g></g></svg>