<svg id="eyt6tj3lx0cj1" xmlns="http://www.w3.org/2000/svg" xmlns:xlink="http://www.w3.org/1999/xlink" viewBox="0 0 71.580000 184.430000" shape-rendering="geometricPrecision" text-rendering="geometricPrecision"><style><![CDATA[#eyt6tj3lx0cj2_tr {animation: eyt6tj3lx0cj2_tr__tr 2000ms linear infinite normal forwards}@keyframes eyt6tj3lx0cj2_tr__tr { 0% {transform: translate(62.182018px,47.724987px) rotate(-1deg);animation-timing-function: cubic-bezier(0.420000,0,0.580000,1)} 30% {transform: translate(62.182018px,47.724987px) rotate(-20deg);animation-timing-function: cubic-bezier(0.420000,0,0.580000,1)} 100% {transform: translate(62.182018px,47.724987px) rotate(-1deg)} }]]></style><defs><linearGradient id="eyt6tj3lx0cj7-fill" x1="463.750700" y1="566.969600" x2="522.930700" y2="565.194200" spreadMethod="pad" gradientUnits="userSpaceOnUse"><stop id="eyt6tj3lx0cj7-fill-0" offset="0%" stop-color="rgb(0,0,0)"/><stop id="eyt6tj3lx0cj7-fill-1" offset="100%" stop-color="rgb(0,0,0)"/></linearGradient></defs><g id="eyt6tj3lx0cj2_tr" transform="translate(62.182018,47.724987) rotate(-1)"><g id="eyt6tj3lx0cj2" transform="translate(-62.182018,-47.724987)"><path id="eyt6tj3lx0cj3" d="M521.860000,415.720000C522.100000,413.540000,522.410000,411.220000,522.860000,408.930000C522.984846,408.515871,522.984846,408.074129,522.860000,407.660000C522.560000,406.940000,521.860000,406.920000,521.170000,406.780000C519.870000,406.470000,519.640000,406.490000,519.170000,407.580000C518.700000,408.670000,518.450000,411.210000,517.640000,414.750000C519,415.070000,520.460000,415.380000,521.860000,415.720000Z" transform="matrix(1 0 0 1 -454.19999999999999 -381.77999999999997)" fill="rgb(222,173,157)" stroke="none" stroke-width="1"/><path id="eyt6tj3lx0cj4" d="M515.070000,422.090000C515.910000,421.640000,515.810000,409.630000,517.760000,409.770000C517.930000,409.770000,524.700000,409.990000,524.700000,411.770000C524.700000,413.550000,522.300000,432.130000,520.380000,432.770000L512.540000,429.200000Z" transform="matrix(1 0 0 1 -454.19999999999999 -381.77999999999997)" fill="rgb(255,255,255)" stroke="none" stroke-width="1"/><path id="eyt6tj3lx0cj5" d="M518,404.900000C517.660000,404.700000,515.090000,402.650000,515,403.040000C515.301756,403.965884,515.732672,404.844549,516.280000,405.650000C516.943968,406.724821,517.793880,407.672930,518.790000,408.450000C518.936824,408.578241,519.111402,408.670665,519.300000,408.720000C519.670000,408.810000,520,408.530000,520.400000,408.420000C521.240000,408.160000,522.160000,408.720000,523.010000,408.540000C523.835780,408.248988,524.505038,407.630377,524.860000,406.830000C525.430000,405.880000,526.030000,404.770000,525.660000,403.720000C525.290000,402.670000,523.890000,402.080000,522.660000,401.720000L520.870000,401.290000C520.380000,401.170000,521.060000,396.710000,520.550000,396.720000C519.120000,396.770000,518.490000,403.780000,518,404.900000Z" transform="matrix(1 0 0 1 -454.19999999999999 -381.77999999999997)" fill="rgb(222,173,157)" stroke="none" stroke-width="1"/><circle id="eyt6tj3lx0cj6" r="2.500000" transform="matrix(1 0 0 1 55.29000000000000 78.01000000000001)" opacity="0" fill="rgb(0,53,84)" stroke="none" stroke-width="1"/></g></g><path id="eyt6tj3lx0cj7" style="isolation:isolate" d="M519.380000,558.930000C520.079054,559.890053,519.999382,561.210932,519.190000,562.080000C518.448588,562.722533,517.490330,563.058639,516.510000,563.020000C500.510000,564.320000,484.570000,565.490000,468.570000,566.200000C466.990000,566.270000,458.570000,565.950000,461.250000,561.400000C462.630000,559.060000,467.920000,559.830000,469.870000,559.800000Q485.610000,559.560000,501.340000,559.250000L510.340000,559.090000C512.060000,559.060000,518.080000,557.710000,519.380000,558.930000Z" transform="matrix(1 0 0 1 -454.19999999999999 -381.77999999999997)" opacity="0.25" fill="url(#eyt6tj3lx0cj7-fill)" stroke="none" stroke-width="1"/><path id="eyt6tj3lx0cj8" d="M496.870000,560.570000C496.897797,560.863170,496.989992,561.146585,497.140000,561.400000C497.500000,561.950000,499.140000,561.720000,499.760000,561.630000L506.950000,560.630000C507.574728,560.578305,508.188195,560.433365,508.770000,560.200000C509.210178,560.057746,509.519197,559.661567,509.550000,559.200000C509.531410,559.037519,509.487548,558.878940,509.420000,558.730000C509.277559,558.232448,508.947790,557.809484,508.500000,557.550000C508.166763,557.478171,507.819980,557.502446,507.500000,557.620000C506.692004,557.689950,505.880463,557.709988,505.070000,557.680000C504.480000,557.680000,503.900000,557.840000,503.320000,557.830000C502.712692,557.860955,502.119463,557.640302,501.680000,557.220000C501.162546,556.523931,500.853858,555.694981,500.790000,554.830000C500.670000,554.100000,500.540000,553.370000,500.420000,552.640000C500.408039,552.516960,500.370576,552.397761,500.310000,552.290000C500.249883,552.220527,500.174616,552.165787,500.090000,552.130000C499.377442,551.900913,498.605739,551.940032,497.920000,552.240000C497.355977,552.350192,496.808252,552.531646,496.290000,552.780000C495.900000,553.230000,496.290000,553.700000,496.440000,554.160000C496.579631,554.871523,496.649960,555.594906,496.650000,556.320000C496.633239,557.739896,496.706720,559.159423,496.870000,560.570000Z" transform="matrix(1 0 0 1 -454.19999999999999 -381.77999999999997)" fill="rgb(103,104,104)" stroke="none" stroke-width="1"/><path id="eyt6tj3lx0cj9" d="M474,556.880000C473.970575,558.120081,473.830012,559.355026,473.580000,560.570000C473.370000,561.640000,473.160000,562.860000,473.830000,563.720000C474.500912,564.379316,475.409561,564.739892,476.350000,564.720000C477.178358,564.891445,478.040870,564.748881,478.770000,564.320000C479.544018,563.608370,479.846468,562.518775,479.550000,561.510000C479.350000,560.510000,478.840000,559.580000,478.550000,558.590000C478.322093,557.648105,478.247803,556.675584,478.330000,555.710000C478.410000,554.480000,478.540000,553.010000,477.580000,552.240000C476.620000,551.470000,474.420000,551.320000,473.780000,552.380000C473.140000,553.440000,474,555.700000,474,556.880000Z" transform="matrix(1 0 0 1 -454.19999999999999 -381.77999999999997)" fill="rgb(103,104,104)" stroke="none" stroke-width="1"/><path id="eyt6tj3lx0cj10" d="M473.610000,442.070000C474.802271,441.856205,475.932558,441.381553,476.920000,440.680000C477.911818,439.942922,478.315649,438.650662,477.920000,437.480000C477.831201,437.255639,477.664272,437.070952,477.450000,436.960000C477.282347,436.920047,477.107653,436.920047,476.940000,436.960000C472.050846,437.479505,467.220253,438.450311,462.510000,439.860000C460.920000,440.330000,458.800000,441.050000,458.170000,442.780000C457.929037,443.219798,457.873773,443.737639,458.016494,444.218385C458.159215,444.699130,458.488092,445.102929,458.930000,445.340000C459.307362,445.549233,459.745991,445.619980,460.170000,445.540000C462.330000,445.410000,464.710000,444.410000,466.810000,443.860000Z" transform="matrix(1 0 0 1 -454.19999999999999 -381.77999999999997)" fill="rgb(222,173,157)" stroke="none" stroke-width="1"/><path id="eyt6tj3lx0cj11" d="M471.610000,428.570000C471.831419,428.030044,471.950117,427.453507,471.960000,426.870000C471.942149,426.109206,471.617570,425.387921,471.060000,424.870000C470.399359,424.219673,469.481647,423.900309,468.560000,424C465.960000,424.290000,464.990000,427.120000,463.780000,429.430000Q461.560000,433.660000,459.060000,437.690000C457.930362,439.295158,457.081621,441.080558,456.550000,442.970000C456.329764,443.731663,456.401064,444.548046,456.750000,445.260000C457.101433,445.743141,457.662564,446.029281,458.260000,446.030000C459.123331,446.076443,459.979682,445.852744,460.710000,445.390000C462.590000,444.260000,463.810000,441.970000,464.950000,439.880000Q467.160000,435.880000,469.680000,431.970000C470.442318,430.908465,471.089306,429.768692,471.610000,428.570000Z" transform="matrix(1 0 0 1 -454.19999999999999 -381.77999999999997)" fill="rgb(222,173,157)" stroke="none" stroke-width="1"/><path id="eyt6tj3lx0cj12" d="M499.760000,511.780000C499.140000,499.780000,500.450000,487.580000,500.330000,475.520000C500.738260,471.299002,500.070844,467.043362,498.390000,463.150000C498.291385,462.897964,498.145424,462.667142,497.960000,462.470000C497.310000,461.890000,496.200000,462.200000,495.340000,462.470000C486.934671,465.429432,477.674906,464.740569,469.800000,460.570000C468.310000,462.570000,467.880000,464.950000,467.520000,467.280000C466.830693,471.019409,466.359895,474.795811,466.110000,478.590000L466.110000,478.590000C466.110000,479.400000,466.060000,480.210000,466.110000,481.030000C466.210000,485.740000,467.260000,490.390000,468.110000,495.030000C468.709006,498.049622,469.060175,501.113157,469.160000,504.190000C469.160000,506.700000,468.790000,509,469.440000,511.460000C471.040000,517.520000,471.710000,553.110000,471.730000,553.380000C475.320000,554.510000,477.620000,555.450000,480.400000,553.110000C480.870000,540.210000,481.030000,525.180000,481.500000,512.290000C481.700000,506.860000,481.250000,488.530000,482.830000,483.360000L484.830000,483.530000C488.420000,500.590000,488.900000,532.860000,492.490000,549.920000C492.810000,551.430000,493.020000,553.230000,494.490000,553.370000C496.730000,553.570000,502.010000,553.370000,502.340000,551.910000C501.210000,538.930000,500.440000,524.830000,499.760000,511.780000Z" transform="matrix(1 0 0 1 -454.19999999999999 -381.77999999999997)" fill="rgb(78,109,157)" stroke="none" stroke-width="1"/><path id="eyt6tj3lx0cj13" d="M520.460000,432.640000C514.330000,436.530000,487.530000,427.280000,484.390000,424.020000C482.740000,422.300000,481.990000,417.250000,484.140000,415.820000C486.371140,414.329233,489.168287,413.959729,491.710000,414.820000C497.770000,416.870000,512.250000,423.930000,512.790000,423.450000C512.790000,423.450000,521,428,521,432Z" transform="matrix(1 0 0 1 -454.19999999999999 -381.77999999999997)" fill="rgb(255,255,255)" stroke="none" stroke-width="1"/><path id="eyt6tj3lx0cj14" d="M491.750000,414.420000C492.890000,414.740000,495.840000,416.160000,496.580000,417.110000C500.140000,421.600000,496.840000,424.370000,498.010000,430.040000C498.350000,431.730000,498.510000,433.460000,498.680000,435.180000C499.590000,444.440000,504.590000,511.290000,503.680000,513.290000C500.730000,519.730000,469.950000,523.220000,464.190000,512.150000C463.290000,510.440000,467.660000,456.880000,467.830000,454.640000C468.520258,445.541631,469.809722,436.498680,471.690000,427.570000C472.530000,423.570000,467.890000,419.570000,471.160000,416.760000C473.310000,414.860000,489.250000,413.720000,491.750000,414.420000Z" transform="matrix(1 0 0 1 -454.19999999999999 -381.77999999999997)" fill="rgb(255,255,255)" stroke="none" stroke-width="1"/><path id="eyt6tj3lx0cj15" d="M476.610000,416.130000C473.610000,415.790000,473.490000,415.390000,471.010000,416.960000C469.625021,417.842800,468.508016,419.087758,467.780000,420.560000C465.230000,425.680000,455,441,454.590000,443C454.120000,445.490000,452.870000,451.380000,459.910000,448.880000C466.950000,446.380000,470.320000,445.020000,471.910000,444.600000C473.500000,444.180000,476.910000,437.140000,474.130000,437.270000C471.392251,437.580239,468.683643,438.108585,466.030000,438.850000C463.376357,439.591415,472.680000,427.540000,474.710000,425.930000C476.740000,424.320000,476.610000,416.130000,476.610000,416.130000Z" transform="matrix(1 0 0 1 -454.19999999999999 -381.77999999999997)" fill="rgb(255,255,255)" stroke="none" stroke-width="1"/><path id="eyt6tj3lx0cj16" d="M476.610000,386.660000C474.610000,389.220000,474.150000,392.510000,474.180000,395.660000C474.194817,398.128674,474.469667,400.588918,475,403C475.406048,405.470027,476.501420,407.775161,478.160000,409.650000C480.027200,411.609480,482.823276,412.378690,485.430000,411.650000C488.320000,410.650000,489.680000,407.700000,490.610000,405.030000C491.970000,401.150000,493.110000,397.030000,492.400000,393.030000C491.730000,389.240000,489.190000,386.550000,485.950000,384.290000C482.920000,382.230000,478.610000,384,476.610000,386.660000Z" transform="matrix(1 0 0 1 -454.19999999999999 -381.77999999999997)" fill="rgb(222,173,157)" stroke="none" stroke-width="1"/><path id="eyt6tj3lx0cj17" d="M479.780000,420.480000C479.234547,424.345204,480.253122,428.268337,482.610000,431.380000C483.278944,432.151209,484.239596,432.607972,485.260000,432.640000C485.665684,432.642154,486.066284,432.549707,486.430000,432.370000C487.310000,431.940000,485.940000,430.990000,485.900000,429.220000C485.840000,426.460000,491.810000,417.530000,483.530000,417.690000C481.810145,417.716985,480.300109,418.840452,479.780000,420.480000Z" transform="matrix(1 0 0 1 -454.19999999999999 -381.77999999999997)" fill="rgb(244,204,123)" stroke="none" stroke-width="1"/><path id="eyt6tj3lx0cj18" d="M496.720000,402.570000C497.150000,401.570000,497.650000,394.790000,493.330000,387.050000C491.990000,384.640000,479.180000,374.750000,470.790000,390.560000C468.900000,394.100000,466.730000,398.560000,468.400000,402.250000C474.540000,415.690000,483.120000,416.980000,483.400000,416.720000C483.400000,416.720000,482.790000,417.280000,483.580000,416.720000C484.370000,416.160000,491.930000,414,496.720000,402.570000Z" transform="matrix(1 0 0 1 -454.19999999999999 -381.77999999999997)" fill="rgb(244,204,123)" stroke="none" stroke-width="1"/><ellipse id="eyt6tj3lx0cj19" rx="3.020000" ry="2.540000" transform="matrix(1 0 0 1 29.31000000000000 35.18000000000000)" fill="rgb(87,89,117)" stroke="none" stroke-width="1"/></svg>