<svg xmlns="http://www.w3.org/2000/svg" xmlns:xlink="http://www.w3.org/1999/xlink" viewBox="0 0 94.25 193.35"><defs><style>.a25bedfc-2f13-4cbf-ac79-8014fa6d4816{mask:url(#a2290758-fc75-4698-801b-4ed339081bd7);}.a0a93dcc-95d2-49eb-a7bf-f1d8f747cc22,.b515c594-f46d-4ae6-bca2-5f11caaddc8b{mix-blend-mode:multiply;}.a0a93dcc-95d2-49eb-a7bf-f1d8f747cc22{fill:url(#a354bdc3-0c1a-4233-b49b-6a211bf87bec);}.b1642925-9862-444f-a63f-fbbca884e8e2{isolation:isolate;}.b416436f-3ad0-4d24-90b4-58b44e3a70ad{mask:url(#b68940e1-a09d-4d70-9333-cc3542431bad);}.b515c594-f46d-4ae6-bca2-5f11caaddc8b{opacity:0.25;fill:url(#f5ed826c-db3e-49d8-8864-e3c10f3a7ea2);}.f48b0404-37f0-4e93-a868-98722ba86cea{fill:#e8e8e8;}.a903c93e-d492-4d86-9ea2-82eba04906cb{fill:#4e6d9d;}.f914c151-c2c9-480e-9eb6-f6eece20306e{fill:#ab6e75;}.bfed493e-b954-458e-95f4-793b3cb80171{fill:#00b5e7;}.bbc2fdcd-dba6-4c3c-93eb-bfea2bb0c3fc{fill:#a18578;}.e010515d-1210-4e09-9e79-d6b167aa8e11{fill:#303030;}.e83d1ec2-089a-416f-ab58-360394dae79c{fill:#fff;}.a995d774-a895-4184-b794-daa98a6597e5{fill:#a3b2b8;}.a4452976-d302-4e09-b710-d3a13b062435{fill:#d8dee0;}.b5e3eae9-643a-493c-8086-f6b831735982{fill:#ededed;}.a4524bc7-95f8-4a56-905b-d227b6557515{fill:#a0adb0;}.f92a1195-8e3e-4205-a797-b27b8cb14610{fill:#f6f6f4;}.a48db284-b6d2-484e-b4db-96b918778a54{filter:url(#a010d4bb-a6cc-43da-9159-e599e8f041f0);}.a5d52624-537d-4969-9b3c-4774300d0a9c{filter:url(#a8abb604-ace7-4e52-8c07-99fa6bd0cbf4);}</style><filter id="a8abb604-ace7-4e52-8c07-99fa6bd0cbf4" x="36.41" y="-8617.44" width="59.86" height="32766" filterUnits="userSpaceOnUse" color-interpolation-filters="sRGB"><feFlood flood-color="#fff" result="bg"/><feBlend in="SourceGraphic" in2="bg"/></filter><mask id="a2290758-fc75-4698-801b-4ed339081bd7" x="36.41" y="-8617.44" width="59.86" height="32766" maskUnits="userSpaceOnUse"><g class="a5d52624-537d-4969-9b3c-4774300d0a9c"/></mask><linearGradient id="a354bdc3-0c1a-4233-b49b-6a211bf87bec" x1="1979.76" y1="2997.52" x2="2039.62" y2="2997.52" gradientTransform="matrix(1, -0.04, -0.04, -1, -1819.94, 3364.63)" gradientUnits="userSpaceOnUse"><stop offset="0" stop-color="#fff"/><stop offset="1"/></linearGradient><filter id="a010d4bb-a6cc-43da-9159-e599e8f041f0" x="36.41" y="285.11" width="59.86" height="7.15" filterUnits="userSpaceOnUse" color-interpolation-filters="sRGB"><feFlood flood-color="#fff" result="bg"/><feBlend in="SourceGraphic" in2="bg"/></filter><mask id="b68940e1-a09d-4d70-9333-cc3542431bad" x="31.57" y="179.15" width="59.86" height="7.15" maskUnits="userSpaceOnUse"><g class="a48db284-b6d2-484e-b4db-96b918778a54"><g transform="translate(-4.84 -105.96)"><g class="a25bedfc-2f13-4cbf-ac79-8014fa6d4816"><path class="a0a93dcc-95d2-49eb-a7bf-f1d8f747cc22" d="M95.87,289.12a2.51,2.51,0,0,0-.41-3.16,4,4,0,0,0-2.78-.76c-16.2-.14-32.4-.16-48.59.3-1.59.05-10.06,1-7,5.37,1.56,2.27,6.83,1.1,8.81,1l31.79-1.75,9.11-.49C88.48,289.52,94.65,290.45,95.87,289.12Z"/></g></g></g></mask><linearGradient id="f5ed826c-db3e-49d8-8864-e3c10f3a7ea2" x1="1979.76" y1="2997.52" x2="2039.62" y2="2997.52" gradientTransform="matrix(1, -0.04, -0.04, -1, -1819.94, 3364.63)" gradientUnits="userSpaceOnUse"><stop offset="0"/><stop offset="1"/></linearGradient></defs><title>3-labguy-1</title><g class="b1642925-9862-444f-a63f-fbbca884e8e2"><g id="ae24f2d6-0b2c-4f40-8fa7-ba46dcfeae40" data-name="step3"><g class="b416436f-3ad0-4d24-90b4-58b44e3a70ad"><path class="b515c594-f46d-4ae6-bca2-5f11caaddc8b" d="M95.87,289.12a2.51,2.51,0,0,0-.41-3.16,4,4,0,0,0-2.78-.76c-16.2-.14-32.4-.16-48.59.3-1.59.05-10.06,1-7,5.37,1.56,2.27,6.83,1.1,8.81,1l31.79-1.75,9.11-.49C88.48,289.52,94.65,290.45,95.87,289.12Z" transform="translate(-4.84 -105.96)"/></g><path class="f48b0404-37f0-4e93-a868-98722ba86cea" d="M52.37,214a159.29,159.29,0,0,0,5.35-17.38c.61-2.49,1.28-5.18,3.27-6.81,2.61-2.13,6.45-1.6,9.67-.61s6.18,2.29,8.38,4.67c2.62,2.83,3.64,6.76,4.24,10.56a103.25,103.25,0,0,1,.31,26.23c-.64,6.32-4.88,8.1-10.78,7-4.43-.83-8.67-2.07-13.2-2.42a16,16,0,0,1-4.62-.76c-3.58-1.4-5.45-5.53-5.45-9.37S51,217.63,52.37,214Z" transform="translate(-4.84 -105.96)"/><path class="a903c93e-d492-4d86-9ea2-82eba04906cb" d="M79.49,281.63l0-.17c0-.1,0-.2,0-.31Z" transform="translate(-4.84 -105.96)"/><path class="a903c93e-d492-4d86-9ea2-82eba04906cb" d="M77.3,281.28a.36.36,0,0,1,.15-.12,4.15,4.15,0,0,1,1.76-.54l.15.58.08.26a8.1,8.1,0,0,0,.32,1.7.69.69,0,0,1,0,.42.58.58,0,0,1-.43.29,6.43,6.43,0,0,1-.76.17.57.57,0,0,1-.29,0,.53.53,0,0,1-.2-.22,7.73,7.73,0,0,1-.84-2.28A.39.39,0,0,1,77.3,281.28Z" transform="translate(-4.84 -105.96)"/><path class="f914c151-c2c9-480e-9eb6-f6eece20306e" d="M79.24,282.5a1.49,1.49,0,0,0-1.54-.45,4.35,4.35,0,0,0-1.48.8,1,1,0,0,0-.51,1.25l.57,2.49a2.49,2.49,0,0,0,.34.92,2.59,2.59,0,0,0,1.95.79,53,53,0,0,0,9.59,0,2.93,2.93,0,0,0,1.18-.29,1.92,1.92,0,0,0,.57-2.55,3.3,3.3,0,0,0-2.37-1.5,14.67,14.67,0,0,0-2.89-.06,21.71,21.71,0,0,1-3.42-.17C79.87,283.53,80,283.53,79.24,282.5Z" transform="translate(-4.84 -105.96)"/><path class="a903c93e-d492-4d86-9ea2-82eba04906cb" d="M81.18,263.57a65,65,0,0,0-.45,19.33c-3,.66-5.67,1.06-6.92-.56s-.87-21.33-.4-28.26a80.55,80.55,0,0,0-3.33-29.62c-1.5-4.79-2.68-16.89-5.12-21.25-2-3.58-1-14.11,3.47-19.13,7.52-8.42,7.93,5.09,11.75,10.22,5.21,7,3.14,19.3,2.61,28.4C82.06,235.19,83.17,250.82,81.18,263.57Z" transform="translate(-4.84 -105.96)"/><path class="a903c93e-d492-4d86-9ea2-82eba04906cb" d="M58.46,281.49l0-.17c0-.11,0-.21,0-.32C58.45,281.16,58.45,281.32,58.46,281.49Z" transform="translate(-4.84 -105.96)"/><path class="a903c93e-d492-4d86-9ea2-82eba04906cb" d="M56.33,280.87a.37.37,0,0,1,.17-.1,4.09,4.09,0,0,1,1.81-.32c0,.2,0,.4.08.59l0,.28a8.15,8.15,0,0,0,.11,1.71.57.57,0,0,1,0,.43.59.59,0,0,1-.46.24,6.48,6.48,0,0,1-.77.06.39.39,0,0,1-.28-.05.45.45,0,0,1-.17-.25,7.39,7.39,0,0,1-.55-2.36A.35.35,0,0,1,56.33,280.87Z" transform="translate(-4.84 -105.96)"/><path class="f914c151-c2c9-480e-9eb6-f6eece20306e" d="M59.31,283.55a1.51,1.51,0,0,0-1.47-.64,4.58,4.58,0,0,0-1.57.61,1.34,1.34,0,0,0-.61.54,1.29,1.29,0,0,0,0,.65c.08.84.17,1.69.25,2.53a2.6,2.6,0,0,0,.23,1,2.52,2.52,0,0,0,1.83,1,52.6,52.6,0,0,0,9.52,1.17,2.9,2.9,0,0,0,1.21-.13,1.93,1.93,0,0,0,.88-2.46A3.3,3.3,0,0,0,67.37,286a13.7,13.7,0,0,0-2.86-.41,22.81,22.81,0,0,1-3.38-.61C59.81,284.66,59.93,284.67,59.31,283.55Z" transform="translate(-4.84 -105.96)"/><path class="a903c93e-d492-4d86-9ea2-82eba04906cb" d="M62.4,263.78c-1.83,6.38-1.63,13.18-1.46,19.3-3.07.27-6,1-7-.74s.63-22.13,2-28.95a80.89,80.89,0,0,0,.4-29.8c-.9-4.94-.55-17.1-2.43-21.73-1.54-3.8.77-14.13,5.84-18.54,8.51-7.41,7.24,6,10.38,11.61,4.29,7.62.7,19.53-1,28.5C66.82,235.74,66,251.38,62.4,263.78Z" transform="translate(-4.84 -105.96)"/><path class="bfed493e-b954-458e-95f4-793b3cb80171" d="M61.34,190.52q1.45-20.39,1.76-40.87c0-2.91.3-6.34,2.33-7.82a5.41,5.41,0,0,1,3.1-.81,33.14,33.14,0,0,1,5.54.29,6.47,6.47,0,0,1,3.75,1.5c1.31,1.27,1.84,3.37,2.27,5.35A218.77,218.77,0,0,1,85,201.68a6.65,6.65,0,0,1-.5,2.8c-.81,1.61-2.63,1.81-4.17,1.74a45.06,45.06,0,0,1-15-3.26c-1.42-.57-3.85-1-4.56-2.87C59.93,198,61.18,192.81,61.34,190.52Z" transform="translate(-4.84 -105.96)"/><path class="bbc2fdcd-dba6-4c3c-93eb-bfea2bb0c3fc" d="M93.13,136.8a5.81,5.81,0,0,1,1.05-1.47c5.35-.55.5.95.11,1.27a.45.45,0,0,0,.64.13,1.41,1.41,0,0,0,.43-.61,21,21,0,0,1,2.7-4.44.68.68,0,0,1,.43-.32.48.48,0,0,1,.43.55,1.56,1.56,0,0,1-.36.7,3.77,3.77,0,0,0-.69,1.35,1.73,1.73,0,0,0,.28,1.45c.29.35.77.56.9,1a1.52,1.52,0,0,1-.4,1.27,6.33,6.33,0,0,1-1.92,2C94.84,140.78,92.18,139,93.13,136.8Z" transform="translate(-4.84 -105.96)"/><path class="bbc2fdcd-dba6-4c3c-93eb-bfea2bb0c3fc" d="M34.61,199.6a1.74,1.74,0,0,0-.11,1.12c.22.61,1,.79,1.7.89l1.18.17a1.56,1.56,0,0,0,.57,0,1.21,1.21,0,0,0,.69-.71c.62-1.22,2.46-5.67.6-6.51C36.8,193.46,35.07,198.25,34.61,199.6Z" transform="translate(-4.84 -105.96)"/><path class="bbc2fdcd-dba6-4c3c-93eb-bfea2bb0c3fc" d="M60.58,128.74c.82,3.42,3,6.71,6.32,7.88a10,10,0,0,0,8.09-1,8.21,8.21,0,0,0,2.77-2.36,11.77,11.77,0,0,0,1.49-3.79q1.16-4.38,2.3-8.75a9.75,9.75,0,0,0,.43-4.89,6.21,6.21,0,0,0-3.4-3.87,12.51,12.51,0,0,0-5.17-1.07,26.58,26.58,0,0,0-6.94.71,10.23,10.23,0,0,0-4.19,1.85c-2,1.65-2,3.69-2,6C60.25,122.63,59.84,125.64,60.58,128.74Z" transform="translate(-4.84 -105.96)"/><path class="e010515d-1210-4e09-9e79-d6b167aa8e11" d="M85.23,108.26a4.75,4.75,0,0,0-5.94-1.36c-1.06.64-4.54,1.1-5.44.43-4.08-3.06-13.77-.69-14.75,4.3-2.48,12.62-2.51,18.05,2.95,22.44,3.38,2.71-4.7-7.79.63-12.5,1.62-1.42,2.47-3.52,4-5A10.66,10.66,0,0,1,68,115.38a4.7,4.7,0,0,0,1.43.91c4,1.65,8.84,3.4,13.13,1.85a5.89,5.89,0,0,0,2.4-1.47,5.5,5.5,0,0,0,1.11-2.06A7,7,0,0,0,85.23,108.26Z" transform="translate(-4.84 -105.96)"/><path class="e83d1ec2-089a-416f-ab58-360394dae79c" d="M80.44,139.33A6.28,6.28,0,0,1,82,141.61l9.6,20.23c.69,1.46,1.21,3.56-.18,4.39-1.24.74-2.75-.37-3.76-1.4-4.93-5-9.7-10.35-13.11-16.53-1.09-2-2-5-.77-7.19S78.43,137.67,80.44,139.33Z" transform="translate(-4.84 -105.96)"/><path class="e83d1ec2-089a-416f-ab58-360394dae79c" d="M89,157.37a88.06,88.06,0,0,0,3.28-18.72c1-1.67,2.54-.68,3,.47a8.56,8.56,0,0,1,.46,3.7q-.15,7.63-.32,15.27a14.55,14.55,0,0,1-.56,4.47,4.89,4.89,0,0,1-3,3.19C86.11,167.52,88.26,159.88,89,157.37Z" transform="translate(-4.84 -105.96)"/><path class="e83d1ec2-089a-416f-ab58-360394dae79c" d="M72.47,148.48c.11-2.46-.12-6.67,1.42-8.79,1.72-2.37,3.72-.27,4.67,1.84,2.14,4.78,2.89,10.78,4.17,15.85,2.68,10.56,5.16,21.19,6.94,32a255.68,255.68,0,0,1,3.24,52.21,3.17,3.17,0,0,1-.38,1.67,3.12,3.12,0,0,1-1.88,1.06,33.58,33.58,0,0,1-11.6,1c-.4-5.26.13-10.54.28-15.82.34-12.16-1.38-24.25-3.19-36.24-1.6-10.66-3.3-21.34-3.72-32.12C72.26,156.88,72.28,152.67,72.47,148.48Z" transform="translate(-4.84 -105.96)"/><path class="e83d1ec2-089a-416f-ab58-360394dae79c" d="M43.68,223.29c2.39-12.23,4.86-24.46,8.41-36.39,3.15-10.58,7.2-21.35,5.93-32.31a64.63,64.63,0,0,1-.87-7.69,9.59,9.59,0,0,1,2.63-7.06c5.29-4.91,11,7.74,11.57,11.82,1.39,9.8-1.58,19.56-3.33,29.12-2,10.7-2.49,21.72-5.71,32.11-1.3,4.19-3,8.24-4.11,12.48-1.6,6.32-1.72,12.91-1.83,19.42l-11.63-4.31a4.1,4.1,0,0,1-1.9-1.14,3.85,3.85,0,0,1-.6-2.06C41.88,232.59,42.78,227.9,43.68,223.29Z" transform="translate(-4.84 -105.96)"/><path class="e83d1ec2-089a-416f-ab58-360394dae79c" d="M54.46,147c1.13-2.77,2.83-5.88,5.8-6.28a1.56,1.56,0,0,1,1.09.16,1.69,1.69,0,0,1,.59.86,17.31,17.31,0,0,1,.35,10.68,51,51,0,0,1-4.13,10q-3,6-6,12.07c-1.94-.42-4.81-.28-5-2.57-.23-2.55,1.28-6.19,1.92-8.66A135.27,135.27,0,0,1,54.46,147Z" transform="translate(-4.84 -105.96)"/><path class="e83d1ec2-089a-416f-ab58-360394dae79c" d="M45.58,171.65c.37-1.07,1-2.35,2.21-2.36a3,3,0,0,1,1.28.41c1.56.76,3.29,1.73,3.63,3.35a4.87,4.87,0,0,1-.71,3.16c-1.93,3.8-4.79,7.16-6.54,11-1.46,3.24-2.31,7-5.31,9.13-.57-.42-2-1.12-2.2-1.8s.7-2.42.94-3.13l2.28-6.72Q43.37,178.18,45.58,171.65Z" transform="translate(-4.84 -105.96)"/><path class="e83d1ec2-089a-416f-ab58-360394dae79c" d="M72,144.32a25.45,25.45,0,0,1-.49-6.56c1.56.08,6.55.62,8,.82,4,2.42-5.1.84-6.26,1.35.45.4,1.76.54,2.08,1,.14.2,0,.41-.07.61-1.19,2.27-1.62,4.56-2.44,6.84-.76-.29-.34-1.36-.41-1.8C72.37,145.81,72.18,145.06,72,144.32Z" transform="translate(-4.84 -105.96)"/><path class="e83d1ec2-089a-416f-ab58-360394dae79c" d="M63,141.16c.31-.14,2.51-.56,2.41-.77s-.23-.21-.4-.3c-1.19-.61-3.56-.36-4.74-1,.28.15,4.36-1.63,4.91-1.54,1.07.18,1.06,1.24,1.23,1.66.62,1.51,1.25,3,1.87,4.52q1.44,3.5,2.89,7a28.13,28.13,0,0,0-5.93-7.66C64.42,142.31,61.86,141.65,63,141.16Z" transform="translate(-4.84 -105.96)"/><path class="f48b0404-37f0-4e93-a868-98722ba86cea" d="M26.58,289.56s10.92-3.5,17.89,6.17c0,0-12.41-.67-18.3,2.77,0,0-4-4.24-9-3.47S26.58,289.56,26.58,289.56Z" transform="translate(-4.84 -105.96)"/><path class="a995d774-a895-4184-b794-daa98a6597e5" d="M7.25,249.6v40.31s18.11,8.27,18.17,8.59,1.08-44,1.08-44Z" transform="translate(-4.84 -105.96)"/><polygon class="a4452976-d302-4e09-b710-d3a13b062435" points="21.66 148.58 20.58 192.54 36.73 187.34 38.77 143.95 21.66 148.58"/><polygon class="b5e3eae9-643a-493c-8086-f6b831735982" points="2.4 143.64 22.98 140.07 38.77 143.95 21.66 148.58 2.4 143.64"/><path class="a4524bc7-95f8-4a56-905b-d227b6557515" d="M14.63,265.32l11.58,4.06,12.07-2.85L31,267.94a29.83,29.83,0,0,1-9.61-.52Z" transform="translate(-4.84 -105.96)"/><path class="a4524bc7-95f8-4a56-905b-d227b6557515" d="M23.67,298.4l1.75.91,9.51-1.62S28,299.16,23.67,298.4Z" transform="translate(-4.84 -105.96)"/><polygon class="a4524bc7-95f8-4a56-905b-d227b6557515" points="5.57 181.14 11.52 183.1 5.66 182.12 5.57 181.14"/><path class="a4524bc7-95f8-4a56-905b-d227b6557515" d="M35.21,276.62l7.31-1.8-.17,1.8C41,275.42,35.21,276.62,35.21,276.62Z" transform="translate(-4.84 -105.96)"/><path class="f92a1195-8e3e-4205-a797-b27b8cb14610" d="M15.35,280l7.35,8.58c1-4.87,11.87-6.95,11.87-6.95l-7.9,1.42a3.25,3.25,0,0,1-1.42-.08Z" transform="translate(-4.84 -105.96)"/><path class="a4524bc7-95f8-4a56-905b-d227b6557515" d="M22.45,288.57a5.28,5.28,0,0,1,2.15-3,16,16,0,0,1,3.12-1.81,29.72,29.72,0,0,1,3.38-1.23c1.15-.35,2.31-.62,3.47-.89-1.15.31-2.3.62-3.43,1A31.75,31.75,0,0,0,27.83,284a15.91,15.91,0,0,0-3,1.89,7.15,7.15,0,0,0-1.21,1.25,3.37,3.37,0,0,0-.68,1.47Z" transform="translate(-4.84 -105.96)"/><polygon class="a4524bc7-95f8-4a56-905b-d227b6557515" points="36.82 187.73 26.7 190.54 36.67 187.25 36.82 187.73"/><polygon class="a4524bc7-95f8-4a56-905b-d227b6557515" points="3.98 162.27 9.1 162.27 3.7 160.63 3.98 162.27"/><polygon class="f48b0404-37f0-4e93-a868-98722ba86cea" points="3.45 156.47 0 160.05 9.1 162.27 3.76 159.61 3.45 156.47"/><path class="a4524bc7-95f8-4a56-905b-d227b6557515" d="M10.23,258.31l16.12,4.24,16.87-4.24-15.87,3.61a5.82,5.82,0,0,1-1.56,0Z" transform="translate(-4.84 -105.96)"/><path class="a4524bc7-95f8-4a56-905b-d227b6557515" d="M10.23,258.31l16.13,4.18h0l16.86-4.28.05.2L27.36,262h0a6,6,0,0,1-1.58,0h0Zm0,0,15.58,3.52h0a5.3,5.3,0,0,0,1.54,0h0l15.86-3.64.05.2-16.88,4.21h0Z" transform="translate(-4.84 -105.96)"/><path class="a4524bc7-95f8-4a56-905b-d227b6557515" d="M20.24,277.4,26,279.18l6.69-1.78-5.14.69a10.89,10.89,0,0,1-3.07,0Z" transform="translate(-4.84 -105.96)"/><path class="a4524bc7-95f8-4a56-905b-d227b6557515" d="M20.24,277.4l5.81,1.72h0l6.69-1.82,0,.2-3.13.4c-1,.11-2.07.31-3.13.34a14.68,14.68,0,0,1-3.12-.32C22.34,277.74,21.3,277.56,20.24,277.4Zm0,0c1,.16,2.05.29,3.1.43a15.94,15.94,0,0,0,3.14.28c1,0,2.07-.25,3.11-.38l3.12-.43,0,.19L26,279.25h0Z" transform="translate(-4.84 -105.96)"/><polyline class="a4524bc7-95f8-4a56-905b-d227b6557515" points="13.95 189.35 19.52 191.72 26.28 190.02"/><path class="a4524bc7-95f8-4a56-905b-d227b6557515" d="M18.8,295.32c1.88.72,3.74,1.5,5.6,2.28h-.06c2.25-.56,4.51-1.12,6.78-1.61-2.23.66-4.48,1.23-6.73,1.8h-.06C22.47,297,20.62,296.18,18.8,295.32Z" transform="translate(-4.84 -105.96)"/><path class="bbc2fdcd-dba6-4c3c-93eb-bfea2bb0c3fc" d="M71.49,135.78v6.11s-3.23-.15-4.31-.74-2.94-8.47-2.94-8.47Z" transform="translate(-4.84 -105.96)"/><path class="bbc2fdcd-dba6-4c3c-93eb-bfea2bb0c3fc" d="M93.18,136.36a8.16,8.16,0,0,1,1.49-2.11c7.65-.79,1,1.41.43,1.86a.6.6,0,0,1-.17.62C95.23,136.53,91.81,139.5,93.18,136.36Z" transform="translate(-4.84 -105.96)"/><ellipse class="bbc2fdcd-dba6-4c3c-93eb-bfea2bb0c3fc" cx="55.63" cy="17.79" rx="2" ry="2.38"/></g></g></svg>