<svg xmlns="http://www.w3.org/2000/svg" xmlns:xlink="http://www.w3.org/1999/xlink" viewBox="0 0 66.92 184.43"><defs><style>.b0844df2-717e-4c22-b4ea-c608a9b9e1f7{mask:url(#bd32ccd2-0887-4485-904e-b45ac6460b5b);}.eb5cbd11-58fa-4682-999f-dd3460a0db10,.f290ae34-10ac-4bde-99dc-79fadcff8ea7{mix-blend-mode:multiply;}.eb5cbd11-58fa-4682-999f-dd3460a0db10{fill:url(#b3dfacae-50da-43b1-b8dd-09b7d366c2a9);}.afc537a3-ac36-4c8a-901d-04a9e9176e2e{isolation:isolate;}.a8df2c1e-6fbc-4f24-bdd2-620862407504{mask:url(#a348c1f6-2f31-4587-a996-0a6bd6e0c435);}.f290ae34-10ac-4bde-99dc-79fadcff8ea7{opacity:0.25;fill:url(#b7767b87-a63e-4109-a0ab-29a8a2df83f1);}.a6cc3282-e1ab-41ba-97e6-868013f3dbf2{fill:#676868;}.b135c6a2-dfc8-4cd9-b5a9-e59c2babc203{fill:#dead9d;}.e87c04f2-0450-4080-958c-b8849888d907{fill:#4e6d9d;}.bb3beafb-f7b0-4e9a-8c0e-23a9914792f4{fill:#fff;}.b8ddef2c-64e5-4d4c-b22b-139a0ee54867{fill:#f4cc7b;}.ea3ad6d5-a41f-42f6-b8b9-86af73bc7b00{fill:#575975;}.b344dfba-f961-492c-9f3d-fcb9835e4914{filter:url(#ed8f6633-8f71-4da0-99a7-e6c3bb938c16);}.a1b3fe85-3c02-44fb-a7ef-2105b52d2da4{filter:url(#bdfaaa1b-0770-467b-b8be-b4164135caab);}</style><filter id="bdfaaa1b-0770-467b-b8be-b4164135caab" x="163.12" y="-8617.44" width="59.13" height="32766" filterUnits="userSpaceOnUse" color-interpolation-filters="sRGB"><feFlood flood-color="#fff" result="bg"/><feBlend in="SourceGraphic" in2="bg"/></filter><mask id="bd32ccd2-0887-4485-904e-b45ac6460b5b" x="163.12" y="-8617.44" width="59.13" height="32766" maskUnits="userSpaceOnUse"><g class="a1b3fe85-3c02-44fb-a7ef-2105b52d2da4"/></mask><linearGradient id="b3dfacae-50da-43b1-b8dd-09b7d366c2a9" x1="2009.76" y1="-408.41" x2="2068.94" y2="-408.41" gradientTransform="translate(-1832.68 773.5) rotate(-1.82)" gradientUnits="userSpaceOnUse"><stop offset="0" stop-color="#fff"/><stop offset="1"/></linearGradient><filter id="ed8f6633-8f71-4da0-99a7-e6c3bb938c16" x="163.12" y="296.85" width="59.13" height="7.78" filterUnits="userSpaceOnUse" color-interpolation-filters="sRGB"><feFlood flood-color="#fff" result="bg"/><feBlend in="SourceGraphic" in2="bg"/></filter><mask id="a348c1f6-2f31-4587-a996-0a6bd6e0c435" x="6.51" y="176.65" width="59.13" height="7.78" maskUnits="userSpaceOnUse"><g class="b344dfba-f961-492c-9f3d-fcb9835e4914"><g transform="translate(-156.61 -120.2)"><g class="b0844df2-717e-4c22-b4ea-c608a9b9e1f7"><path class="eb5cbd11-58fa-4682-999f-dd3460a0db10" d="M221.77,297.36a2.49,2.49,0,0,1-.19,3.15,3.91,3.91,0,0,1-2.68.94c-16,1.3-31.94,2.47-47.94,3.18-1.58.07-10-.25-7.32-4.8,1.38-2.34,6.67-1.57,8.62-1.6q15.74-.25,31.47-.55l9-.16C214.45,297.49,220.47,296.14,221.77,297.36Z"/></g></g></g></mask><linearGradient id="b7767b87-a63e-4109-a0ab-29a8a2df83f1" x1="2009.76" y1="-408.41" x2="2068.94" y2="-408.41" gradientTransform="translate(-1832.68 773.5) rotate(-1.82)" gradientUnits="userSpaceOnUse"><stop offset="0"/><stop offset="1"/></linearGradient></defs><title>3-labguy-2</title><g class="afc537a3-ac36-4c8a-901d-04a9e9176e2e"><g id="a2a30e6a-3873-4d71-aa8d-6bfcaf1b7c7b" data-name="step3"><g class="a8df2c1e-6fbc-4f24-bdd2-620862407504"><path class="f290ae34-10ac-4bde-99dc-79fadcff8ea7" d="M221.77,297.36a2.49,2.49,0,0,1-.19,3.15,3.91,3.91,0,0,1-2.68.94c-16,1.3-31.94,2.47-47.94,3.18-1.58.07-10-.25-7.32-4.8,1.38-2.34,6.67-1.57,8.62-1.6q15.74-.25,31.47-.55l9-.16C214.45,297.49,220.47,296.14,221.77,297.36Z" transform="translate(-156.61 -120.2)"/></g><path class="a6cc3282-e1ab-41ba-97e6-868013f3dbf2" d="M199.26,299a2.08,2.08,0,0,0,.27.83c.36.55,2,.32,2.62.23l7.19-1a6.36,6.36,0,0,0,1.82-.43,1.14,1.14,0,0,0,.78-1,1.49,1.49,0,0,0-.13-.47c-.21-.5-.47-1-.92-1.18a1.8,1.8,0,0,0-1,.07,19.67,19.67,0,0,1-2.43.06c-.59,0-1.17.16-1.75.15a2.24,2.24,0,0,1-1.64-.61,4.58,4.58,0,0,1-.89-2.39c-.12-.73-.25-1.46-.37-2.19a.8.8,0,0,0-.11-.35.57.57,0,0,0-.22-.16,3.08,3.08,0,0,0-2.17.11,6.93,6.93,0,0,0-1.63.54c-.39.45,0,.92.15,1.38a11.14,11.14,0,0,1,.21,2.16A33.89,33.89,0,0,0,199.26,299Z" transform="translate(-156.61 -120.2)"/><path class="a6cc3282-e1ab-41ba-97e6-868013f3dbf2" d="M176.42,295.31A20.33,20.33,0,0,1,176,299c-.21,1.07-.42,2.29.25,3.15a3.51,3.51,0,0,0,2.52,1,3.46,3.46,0,0,0,2.42-.4,2.76,2.76,0,0,0,.78-2.81c-.2-1-.71-1.93-1-2.92a9,9,0,0,1-.22-2.88c.08-1.23.21-2.7-.75-3.47s-3.16-.92-3.8.14S176.42,294.13,176.42,295.31Z" transform="translate(-156.61 -120.2)"/><path class="b135c6a2-dfc8-4cd9-b5a9-e59c2babc203" d="M176,180.5a8.26,8.26,0,0,0,3.31-1.39,2.85,2.85,0,0,0,1-3.2,1,1,0,0,0-.47-.52,1.1,1.1,0,0,0-.51,0,79.7,79.7,0,0,0-14.43,2.9c-1.59.47-3.71,1.19-4.34,2.92a1.89,1.89,0,0,0,2,2.76c2.16-.13,4.54-1.13,6.64-1.68Z" transform="translate(-156.61 -120.2)"/><path class="b135c6a2-dfc8-4cd9-b5a9-e59c2babc203" d="M174,167a4.74,4.74,0,0,0,.35-1.7,2.84,2.84,0,0,0-.9-2,3.08,3.08,0,0,0-2.5-.87c-2.6.29-3.57,3.12-4.78,5.43q-2.22,4.22-4.72,8.26a17.16,17.16,0,0,0-2.51,5.28,3.2,3.2,0,0,0,.2,2.29,1.88,1.88,0,0,0,1.51.77,4.16,4.16,0,0,0,2.45-.64c1.88-1.13,3.1-3.42,4.24-5.51q2.21-4,4.73-7.91A18.88,18.88,0,0,0,174,167Z" transform="translate(-156.61 -120.2)"/><path class="b135c6a2-dfc8-4cd9-b5a9-e59c2babc203" d="M215.27,163.08c-6.23-.59-11.94-3.55-17.63-6.16-1.43-.65-3.21-1.27-4.49-.34a2.89,2.89,0,0,0-.86,3.16,5.46,5.46,0,0,0,2.15,2.69,20.79,20.79,0,0,0,6.5,2.69,175,175,0,0,0,17.73,4.37,3,3,0,0,0,2.36-.26,2.48,2.48,0,0,0,.74-1.22c.38-1.25,0-2.55-.08-3.86-.19-3.21-1.72-10-2-16.89a2.25,2.25,0,0,0-.3-1.23c-.46-.63-1.18-.48-1.85-.46-1.34,0-1.56.07-1.76,1.24C215.41,148.84,216.72,154.49,215.27,163.08Z" transform="translate(-156.61 -120.2)"/><path class="e87c04f2-0450-4080-958c-b8849888d907" d="M202.15,250.21c-.62-12,.69-24.2.57-36.26a25.12,25.12,0,0,0-1.94-12.37,2,2,0,0,0-.43-.68c-.65-.58-1.76-.27-2.62,0A31.9,31.9,0,0,1,172.19,199c-1.49,2-1.92,4.38-2.28,6.71a98.42,98.42,0,0,0-1.41,11.31v0h0c0,.81-.05,1.62,0,2.44.1,4.71,1.15,9.36,2,14a56.62,56.62,0,0,1,1.05,9.16c0,2.51-.37,4.81.28,7.27,1.6,6.06,2.27,41.65,2.29,41.92,3.59,1.13,5.89,2.07,8.67-.27.47-12.9.63-27.93,1.1-40.82.2-5.43-.25-23.76,1.33-28.93l2,.17c3.59,17.06,4.07,49.33,7.66,66.39.32,1.51.53,3.31,2,3.45,2.24.2,7.52,0,7.85-1.46C203.6,277.36,202.83,263.26,202.15,250.21Z" transform="translate(-156.61 -120.2)"/><path class="bb3beafb-f7b0-4e9a-8c0e-23a9914792f4" d="M214.93,149.27c.17,0,6.8-1.41,7.22.35s2.41,20.36.7,21.45c-6.13,3.89-32.93-5.36-36.07-8.62-1.65-1.72-2.4-6.77-.25-8.2a8.61,8.61,0,0,1,7.57-1c6.06,2.05,20.54,9.11,21.08,8.63C215.89,161.24,213,149.59,214.93,149.27Z" transform="translate(-156.61 -120.2)"/><path class="bb3beafb-f7b0-4e9a-8c0e-23a9914792f4" d="M194.14,152.85c1.14.32,4.09,1.74,4.83,2.69,3.56,4.49.26,7.26,1.43,12.93.34,1.69.5,3.42.67,5.14.91,9.26,5.91,76.11,5,78.11-2.95,6.44-33.73,9.93-39.49-1.14-.9-1.71,3.47-55.27,3.64-57.51A208.31,208.31,0,0,1,174.08,166c.84-4-3.8-8-.53-10.81C175.7,153.29,191.64,152.15,194.14,152.85Z" transform="translate(-156.61 -120.2)"/><path class="bb3beafb-f7b0-4e9a-8c0e-23a9914792f4" d="M179,154.56c-3-.34-3.12-.74-5.6.83a9,9,0,0,0-3.23,3.6c-2.55,5.12-12.81,20.47-13.19,22.45-.47,2.49-1.72,8.38,5.32,5.88s10.41-3.86,12-4.28,5-7.46,2.22-7.33a51.87,51.87,0,0,0-8.1,1.58s6.65-11.31,8.68-12.92S179,154.56,179,154.56Z" transform="translate(-156.61 -120.2)"/><path class="b135c6a2-dfc8-4cd9-b5a9-e59c2babc203" d="M179,125.09c-2,2.56-2.46,5.85-2.43,9a35.15,35.15,0,0,0,.85,7.37,13.29,13.29,0,0,0,3.16,6.65,7.31,7.31,0,0,0,7.27,2c2.89-1,4.25-3.95,5.18-6.62,1.36-3.88,2.5-8,1.79-12-.67-3.79-3.21-6.48-6.45-8.74C185.31,120.66,181,122.46,179,125.09Z" transform="translate(-156.61 -120.2)"/><path class="b8ddef2c-64e5-4d4c-b22b-139a0ee54867" d="M182.17,158.91a14.66,14.66,0,0,0,2.83,10.9,3.65,3.65,0,0,0,2.65,1.26,2.76,2.76,0,0,0,1.17-.27c.88-.43-.49-1.38-.53-3.15-.06-2.76,5.91-11.69-2.37-11.53A4,4,0,0,0,182.17,158.91Z" transform="translate(-156.61 -120.2)"/><path class="b8ddef2c-64e5-4d4c-b22b-139a0ee54867" d="M199.11,141c.43-1,.93-7.78-3.39-15.52-1.34-2.41-14.15-12.3-22.54,3.51-1.89,3.54-4.06,8-2.39,11.69,6.14,13.44,14.72,14.73,15,14.47,0,0-.61.56.18,0S194.32,152.38,199.11,141Z" transform="translate(-156.61 -120.2)"/><path class="b135c6a2-dfc8-4cd9-b5a9-e59c2babc203" d="M214,144.48c-.38-.11-3.36-1.51-3.33-1.11s1.57,1.95,1.86,2.24a10.6,10.6,0,0,0,3.09,2.13,1.27,1.27,0,0,0,.56.15c.38,0,.64-.35,1-.55.76-.45,1.78-.12,2.57-.49a3.17,3.17,0,0,0,1.39-2.1c.34-1.05.66-2.27.06-3.21s-2.11-1.18-3.35-1.2l-1.84,0c-.51,0-.89-4.5-1.38-4.37C213.22,136.31,214.24,143.27,214,144.48Z" transform="translate(-156.61 -120.2)"/><ellipse class="ea3ad6d5-a41f-42f6-b8b9-86af73bc7b00" cx="29.29" cy="35.19" rx="3.02" ry="2.54"/></g></g></svg>