<svg id="b525fa4d-c7a7-44aa-bc27-f83b798db311" data-name="step3" xmlns="http://www.w3.org/2000/svg" xmlns:xlink="http://www.w3.org/1999/xlink" viewBox="0 0 182.96231 275.51745">
  <defs>
    <style>
      .b40a5b14-0d8d-4e17-ba25-245d971f75aa {
        fill: none;
      }

      .a07faf63-6f58-4c2f-b44d-34d7b25d2110 {
        fill: #bac1c4;
      }

      .b391d9d5-047b-45ae-8188-2997db9f8ff5 {
        isolation: isolate;
      }

      .fb193641-bd0b-409b-9c93-7e4996d0dbc4 {
        fill: #2d3f51;
      }

      .a8e5db05-14d3-4936-b02b-9829bc3182f6 {
        clip-path: url(#b8472328-3525-4bae-8e80-2f3086f5973d);
      }

      .f645624a-9c02-41c5-a42a-b7ee31eddfc0 {
        fill: #304356;
      }

      .abd23655-d30d-4473-ac47-898c17055211 {
        fill: #2f4254;
      }

      .bcfb7b4a-01ea-4226-8fbe-fb2db814a5e2 {
        fill: #2e4052;
      }

      .a6835027-676c-4aeb-8a47-9f011fc0a225 {
        fill: #2d3f50;
      }

      .b315a5fd-d0b9-4a63-b3f9-4075273f735b {
        fill: #2c3d4e;
      }

      .b042e693-c7e7-4a5f-867a-54b51b9449c4 {
        fill: #2b3c4c;
      }

      .a3c99bc9-a28a-41bb-aeb0-4fed71e96d1b {
        fill: #2a3a4a;
      }

      .f5b3189d-dbe9-42e5-b480-cba51b3be5c9 {
        fill: #293949;
      }

      .b5f19b77-e388-48a4-b60f-3ec951946c8f {
        fill: #283747;
      }

      .b5391e37-c784-4acd-bcbf-815bc9f14a7f {
        fill: #263645;
      }

      .ac59127d-fe21-4107-b9bd-8514e6a028fa {
        fill: #253543;
      }

      .b6291395-e1c9-4cd8-a534-51f066529357 {
        fill: #243341;
      }

      .fa7bb25d-4155-45c3-a454-cd236eb3d4a2 {
        fill: #23323f;
      }

      .b61966a5-eaab-401c-a03d-00be93ebeb63 {
        fill: #22303d;
      }

      .a229940c-9a8b-4b99-8db9-397b40189e24 {
        fill: #212f3c;
      }

      .ee6751a0-020e-432b-9f1b-ed832386394d {
        fill: #202d3a;
      }

      .a151b623-b97b-4d6a-8783-ea958075f4f4 {
        fill: #1f2c38;
      }

      .bdbaee23-4e14-4523-9153-e266e6786c6e {
        fill: #1e2a36;
      }

      .afa10b6d-174c-447d-b5cb-909c994789c6 {
        fill: #1d2934;
      }

      .eff9a3b2-d5b0-4934-ba2b-11f16f03e76f {
        fill: #1c2732;
      }

      .eb1c162b-8dcb-4d76-899d-8366c2444026 {
        fill: #1b2630;
      }

      .a59543d8-0337-4a4f-83b7-8c029beae558 {
        fill: #314557;
      }

      .b005f64e-76f8-482d-ac36-38eff2d6bbf1 {
        fill: #324659;
      }

      .afbc1dc7-7a80-4335-bed1-37f02723b0f0 {
        fill: #33485b;
      }

      .beeba0e7-9ce5-4d02-96e0-9680dbf659f2 {
        clip-path: url(#f2ab14f1-8faa-4db0-9a93-e7dd5a7e6788);
      }

      .ee90c29d-ce54-4ed8-9c5b-cc2edb356f36 {
        fill: #004f85;
      }

      .b8c4f8fa-e227-44e0-8e1e-a8a1caae7cbe {
        clip-path: url(#bb014002-6f46-4aec-a63e-1db45cf0b3ad);
      }

      .e1d1caf2-5e35-4dc6-9b64-8965171e0190 {
        clip-path: url(#e82c89b6-62d9-4faa-aedb-cb667fcf2dd7);
      }

      .bb98ba52-7095-40c7-830c-342b5a7bdf8d {
        clip-path: url(#b538e7f7-7f01-44ac-9e82-6d919e530a3b);
      }

      .b0cf4e58-eb1c-4e70-b77f-d4131b4aaf9f {
        clip-path: url(#ad9a95c8-aadf-437e-9405-32ba2210eb82);
      }

      .e9230151-bd0f-4de7-86d1-392e1eef12db {
        fill: #0085e0;
      }

      .a0a26508-6f51-4aa7-a922-e2ad3742ea79 {
        fill: #0082db;
      }

      .af2e7966-c619-4c6b-8a70-79424f0d6106 {
        fill: #007fd6;
      }

      .ec5c368b-5e96-4ec9-8423-7b2e18010893 {
        fill: #007cd1;
      }

      .fc1d1a7a-88cb-47fa-9a05-92ac797f4ddb {
        fill: #0079cc;
      }

      .e7207cff-89e4-4f18-9382-62e928641a00 {
        fill: #0076c7;
      }

      .ee389d29-5618-4866-aa70-122f16e3cf7e {
        fill: #0073c2;
      }

      .a1009882-5f8a-4db7-9516-83def6c56184 {
        fill: #0070bd;
      }

      .b9666076-f650-43a9-951c-f6cae7a21909 {
        fill: #006db8;
      }

      .f8ee4a22-99fd-4af8-b1cc-5231124609e1 {
        fill: #006ab3;
      }

      .adf44b42-aa4b-4bef-990c-d68ad7739e77 {
        fill: #0067ad;
      }

      .a17c4f35-594e-4cbd-9526-1eabc7f97c83 {
        fill: #0064a8;
      }

      .ebf78fc1-5fed-4741-b5da-bde4413a9678 {
        fill: #0061a3;
      }

      .b449fa03-ff2e-4978-b34b-3fa23ef323c5 {
        fill: #005e9e;
      }

      .e055d427-1c38-46a7-a70c-c169cea442fa {
        fill: #005b99;
      }

      .a1517851-0e72-452d-b32c-aa56366ff7ac {
        fill: #005894;
      }

      .e524950d-30bf-4726-9d53-aea78737e4c4 {
        fill: #00558f;
      }

      .b650e8f3-cb99-465f-b239-c455f861c83c {
        fill: #00528a;
      }

      .ac388578-f771-4db4-8067-07a6855d82d6 {
        clip-path: url(#e0da8861-b9a6-43f2-94d3-8c2e47f76558);
      }

      .adbcf7aa-324d-4e7e-a2d4-b2360c8a29fd {
        clip-path: url(#fe701b0d-80c3-4378-b0cc-c65d362de425);
      }

      .b7faa88b-9e70-43ca-bab6-e14c14016817 {
        clip-path: url(#e70b4728-05f6-4900-9e06-a1b669156b7f);
      }

      .b0cee90e-c481-4355-b9a4-3f915c1e8f8b {
        fill: #0088e6;
      }

      .a049faaa-4fc9-49b0-bf74-cb0224a6ad8f {
        clip-path: url(#ef38200a-a641-42a9-b139-594cfdcce415);
      }

      .aac2060d-724c-4a52-9e05-868a723053ef {
        fill: #008beb;
      }

      .ff2a1e9c-abbe-4b36-af94-559aa46521af {
        fill: #008ef0;
      }

      .e027d834-9686-4427-84be-98d7477d4883 {
        fill: #0091f5;
      }

      .bbca0ebe-9b10-4611-a426-1c0f30ea8b3d {
        clip-path: url(#b3cf876d-e32d-4197-a8fa-141b6c0217fb);
      }

      .be9d66ac-1a36-4454-9ccc-496f00cea6c6 {
        clip-path: url(#ed53f552-a77b-42fe-88d7-8b7ec0cc6ed6);
      }

      .a83b7793-ec03-46ab-a76e-f85428cbd743 {
        clip-path: url(#b2d5a9b7-6579-498e-8a13-0679cb18deab);
      }

      .a4311072-7920-417a-bb86-f53c57045f33 {
        fill: #0083dd;
      }
    </style>
    <clipPath id="b8472328-3525-4bae-8e80-2f3086f5973d" transform="translate(-279.23424 -88.8829)">
      <path id="b56b0b7e-0eab-413e-9f22-fbf76fac0945" data-name="SVGID" class="b40a5b14-0d8d-4e17-ba25-245d971f75aa" d="M430.754,315.99508V305.51456c.51356,0,1.03268.01107,1.55293.03335,16.803.72,30.591,12.897,29.862,29.7a30.45642,30.45642,0,0,1-30.41557,29.15243q-.66072,0-1.32743-.02844a30.46816,30.46816,0,0,1-29.124-31.743c.70644-16.29175,13.36982-27.11435,29.45207-27.11435v10.48052c-10.75521.06535-18.51416,6.78318-18.98127,17.08518A19.993,19.993,0,0,0,430.87445,353.901c.14727-.13884.58755.01884.87889.01884a19.97486,19.97486,0,0,0,19.94477-19.12326c.48925-10.32665-8.1881-18.204-19.83973-18.77773C431.63449,316.15441,431.118,315.99508,430.754,315.99508Z"/>
    </clipPath>
    <clipPath id="f2ab14f1-8faa-4db0-9a93-e7dd5a7e6788" transform="translate(-279.23424 -88.8829)">
      <path id="f69a24a9-b24a-49c6-a3d3-90770a3ff5d1" data-name="SVGID" class="b40a5b14-0d8d-4e17-ba25-245d971f75aa" d="M309.67753,148.65948c-.09346.07963-.21707.187-.30718.27045l.30771-.29415Z"/>
    </clipPath>
    <clipPath id="bb014002-6f46-4aec-a63e-1db45cf0b3ad" transform="translate(-279.23424 -88.8829)">
      <path id="ac5edfc9-70d2-4a19-b00a-12e225726147" data-name="SVGID" class="b40a5b14-0d8d-4e17-ba25-245d971f75aa" d="M360.23929,147.68836c.09345-.07962.21706-.187.30718-.27045l-.30772.29414Z"/>
    </clipPath>
    <clipPath id="e82c89b6-62d9-4faa-aedb-cb667fcf2dd7" transform="translate(-279.23424 -88.8829)">
      <path id="e29d36a5-1983-41bf-9d70-7ecf722bbd14" data-name="SVGID" class="b40a5b14-0d8d-4e17-ba25-245d971f75aa" d="M309.42947,146.2599c.0873.08685.20475.20166.29557.28482l-.00053.02385Z"/>
    </clipPath>
    <clipPath id="b538e7f7-7f01-44ac-9e82-6d919e530a3b" transform="translate(-279.23424 -88.8829)">
      <path id="a78dd711-fad8-4110-a135-4250d08969d1" data-name="SVGID" class="b40a5b14-0d8d-4e17-ba25-245d971f75aa" d="M360.48735,150.08792c-.0873-.08685-.20477-.20165-.29559-.28482l.00053-.02385Z"/>
    </clipPath>
    <clipPath id="ad9a95c8-aadf-437e-9405-32ba2210eb82" transform="translate(-279.23424 -88.8829)">
      <path id="a3c88b85-7f95-4754-a941-d789c5d40f3e" data-name="SVGID" class="b40a5b14-0d8d-4e17-ba25-245d971f75aa" d="M309.67753,148.65948c-.09346.07963-.21707.187-.30718.27045l-2.73044,2.61.18-8.01,2.60957,2.73c.0873.08685.20475.20166.29557.28482Z"/>
    </clipPath>
    <clipPath id="e0da8861-b9a6-43f2-94d3-8c2e47f76558" transform="translate(-279.23424 -88.8829)">
      <path id="eca99ce9-b095-41aa-be54-1b635381c168" data-name="SVGID" class="b40a5b14-0d8d-4e17-ba25-245d971f75aa" d="M360.1923,149.77925l2.90461,3.03865-56.457-1.278,3.03816-2.90414Z"/>
    </clipPath>
    <clipPath id="fe701b0d-80c3-4378-b0cc-c65d362de425" transform="translate(-279.23424 -88.8829)">
      <path id="e7f4c52e-a308-4a9e-9a66-fa5c0ee2b56d" data-name="SVGID" class="b40a5b14-0d8d-4e17-ba25-245d971f75aa" d="M309.37035,148.92992l.30771-.29414-.00054.0237C309.58334,148.73825,309.46121,148.84735,309.37035,148.92992Z"/>
    </clipPath>
    <clipPath id="e70b4728-05f6-4900-9e06-a1b669156b7f" transform="translate(-279.23424 -88.8829)">
      <path id="b0b84db3-9cd5-4144-9c1c-e1ca5b0f707a" data-name="SVGID" class="b40a5b14-0d8d-4e17-ba25-245d971f75aa" d="M360.19176,149.80309l.00053-.02384.29506.30867C360.40083,150.00029,360.28182,149.88709,360.19176,149.80309Z"/>
    </clipPath>
    <clipPath id="ef38200a-a641-42a9-b139-594cfdcce415" transform="translate(-279.23424 -88.8829)">
      <path id="aa3c5e0b-9180-4e6f-8f1f-9a4b17365b32" data-name="SVGID" class="b40a5b14-0d8d-4e17-ba25-245d971f75aa" d="M360.23929,147.68836c.09345-.07962.21706-.187.30718-.27045l2.73044-2.61-.18,8.01-2.60955-2.73c-.0873-.08685-.20477-.20165-.29559-.28482Z"/>
    </clipPath>
    <clipPath id="b3cf876d-e32d-4197-a8fa-141b6c0217fb" transform="translate(-279.23424 -88.8829)">
      <path id="e0149516-be20-46fc-9d81-7eb57f0c7315" data-name="SVGID" class="b40a5b14-0d8d-4e17-ba25-245d971f75aa" d="M360.54648,147.4179l-.30773.29415.00053-.02368C360.33346,147.6096,360.4556,147.50049,360.54648,147.4179Z"/>
    </clipPath>
    <clipPath id="ed53f552-a77b-42fe-88d7-8b7ec0cc6ed6" transform="translate(-279.23424 -88.8829)">
      <path id="acd4cb46-1ceb-4a90-ba2e-cd5aed2a0936" data-name="SVGID" class="b40a5b14-0d8d-4e17-ba25-245d971f75aa" d="M309.72452,146.56856l-2.90461-3.03865,56.457,1.278-3.03815,2.90413Z"/>
    </clipPath>
    <clipPath id="b2d5a9b7-6579-498e-8a13-0679cb18deab" transform="translate(-279.23424 -88.8829)">
      <path id="bbd3f2af-5e37-484c-8702-090dc9976be0" data-name="SVGID" class="b40a5b14-0d8d-4e17-ba25-245d971f75aa" d="M309.72505,146.54472l-.00054.02385-.295-.30867C309.516,146.34753,309.635,146.46074,309.72505,146.54472Z"/>
    </clipPath>
  </defs>
  <title>3-tube</title>
  <g>
    <path class="a07faf63-6f58-4c2f-b44d-34d7b25d2110" d="M296.31892,143.18354h22.26037A27.08468,27.08468,0,0,0,345.664,116.09886v-.00005c0-14.95845,7.87377-27.08468-7.08468-27.08468H296.31892c-14.95846,0-17.08468,12.12623-17.08468,27.08468v.00005C279.23424,131.05732,281.36046,143.18354,296.31892,143.18354Z" transform="translate(-279.23424 -88.8829)"/>
    <g class="b391d9d5-047b-45ae-8188-2997db9f8ff5">
      <path class="fb193641-bd0b-409b-9c93-7e4996d0dbc4" d="M430.754,315.99508c.364,0,.88051.15933,1.1044.02375,11.65163.57371,20.329,8.45108,19.83973,18.77773a19.97486,19.97486,0,0,1-19.94477,19.12326c-.29134,0-.73162-.15768-.87889-.01884a19.993,19.993,0,0,1-19.10174-20.82072C412.23982,322.77826,419.99877,316.06043,430.754,315.99508Z" transform="translate(-279.23424 -88.8829)"/>
      <g class="b391d9d5-047b-45ae-8188-2997db9f8ff5">
        <g class="a8e5db05-14d3-4936-b02b-9829bc3182f6">
          <g class="b391d9d5-047b-45ae-8188-2997db9f8ff5">
            <path class="f645624a-9c02-41c5-a42a-b7ee31eddfc0" d="M430.754,315.99508V305.51456c.51356,0,1.03268.01107,1.55293.03335,16.803.72,30.591,12.897,29.862,29.7a30.45642,30.45642,0,0,1-30.41557,29.15243q-.66072,0-1.32743-.02844a30.46816,30.46816,0,0,1-29.124-31.743c.70644-16.29175,13.36982-27.11435,29.45207-27.11435v10.48052c-10.75521.06535-18.51416,6.78318-18.98127,17.08518A19.993,19.993,0,0,0,430.87445,353.901c.14727-.13884.58755.01884.87889.01884a19.97486,19.97486,0,0,0,19.94477-19.12326c.48925-10.32665-8.1881-18.204-19.83973-18.77773-.22389.13558-.74038-.02375-1.1044-.02375" transform="translate(-279.23424 -88.8829)"/>
            <path class="f645624a-9c02-41c5-a42a-b7ee31eddfc0" d="M430.754,311.573c-.06268.14153-.39033.19216-.38206.34672.00758.14165.26744.195.38206.27858v3.79677c-10.75521.06535-18.51416,6.78318-18.98127,17.08518A19.993,19.993,0,0,0,430.87445,353.901c.14727-.13884.58755.01884.87889.01884a19.97486,19.97486,0,0,0,19.94477-19.12326c.48925-10.32665-8.1881-18.204-19.83973-18.77773-.22389.13558-.74038-.02375-1.1044-.02375v-3.79677l.06345-.00632c.12013.16345.32109.4943.51575.43724.33085-.097.38612-1.58123.06427-1.72625a.35171.35171,0,0,0-.31809.10623,2,2,0,0,0-.32538.56381v-6.05846c.51356,0,1.03268.01107,1.55293.03335,16.803.72,30.591,12.897,29.862,29.7a30.45642,30.45642,0,0,1-30.41557,29.15243q-.66072,0-1.32743-.02844a30.46816,30.46816,0,0,1-29.124-31.743c.70644-16.29175,13.36982-27.11435,29.45207-27.11435V311.573" transform="translate(-279.23424 -88.8829)"/>
            <path class="abd23655-d30d-4473-ac47-898c17055211" d="M430.754,309.71147c-.929,1.28931-3.75328.356-3.71914,2.457.00853.52414.503,1.49251,3.71914,2.08911v1.73749c-10.75521.06535-18.51416,6.78318-18.98127,17.08518A19.993,19.993,0,0,0,430.87445,353.901c.14727-.13884.58755.01884.87889.01884a19.97486,19.97486,0,0,0,19.94477-19.12326c.48925-10.32665-8.1881-18.204-19.83973-18.77773-.22389.13558-.74038-.02375-1.1044-.02375v-1.7375l.05925-.02582c.77854.2352.84624-.039.99462-.63965.02924.09914.03074.25152.09747.33046.50695.59968,1.75254.54781,2.52458.69125,1.68239.31259,10.32979,2.23946,15.36278,9.49579a20.11458,20.11458,0,0,1,3.19748,7.82277c.45663,2.494-.1364,5.10771.86136,7.53993.20274.49423.3527,1.515.88607,1.54454,1.99936.11089,9.98156-13.06058-.94262-24.52162-8.80112-9.23361-21.04381-7.575-21.69289-6.86385-.0672.07362.02515.28538-.066.32563-.48393.21361-.92233-.74477-1.28206-.24553v-4.19692c.51356,0,1.03268.01107,1.55293.03335,16.803.72,30.591,12.897,29.862,29.7a30.45642,30.45642,0,0,1-30.41557,29.15243q-.66072,0-1.32743-.02844a30.46816,30.46816,0,0,1-29.124-31.743c.70644-16.29175,13.36982-27.11435,29.45207-27.11435v4.19691" transform="translate(-279.23424 -88.8829)"/>
            <path class="bcfb7b4a-01ea-4226-8fbe-fb2db814a5e2" d="M430.754,308.92054c-.28283.38153-1.06032.32212-1.51474.46017-4.36932,1.32741-6.987,4.51421-6.25172,5.73642.27952.46463,1.26562.01073,1.80739-.01175.43365-.018,5.92523.2027,5.95907.20583v.68387c-10.75521.06535-18.51416,6.78318-18.98127,17.08518A19.993,19.993,0,0,0,430.87445,353.901c.14727-.13884.58755.01884.87889.01884a19.97486,19.97486,0,0,0,19.94477-19.12326c.48925-10.32665-8.1881-18.204-19.83973-18.77773-.22389.13558-.74038-.02375-1.1044-.02375v-.68388l.0571-.00965a3.15105,3.15105,0,0,0,.94962-.14386c.27147-.03046,25.87982,2.14674,19.66052,27.64627-.11255.46144-.55092,1.24392-.20542,1.56983,1.50869,1.42311,8.89661-3.556,8.68068-14.525-.38263-19.43411-26.36329-22.36481-27.72834-21.23317-.1381.11449-.09525.40757-.13607.58225-.25918-.24929-.86612-.833-1.27809-.27733v-3.406c.51356,0,1.03268.01107,1.55293.03335,16.803.72,30.591,12.897,29.862,29.7a30.45642,30.45642,0,0,1-30.41557,29.15243q-.66072,0-1.32743-.02844a30.46816,30.46816,0,0,1-29.124-31.743c.70644-16.29175,13.36982-27.11435,29.45207-27.11435v3.406" transform="translate(-279.23424 -88.8829)"/>
            <path class="a6835027-676c-4aeb-8a47-9f011fc0a225" d="M430.754,308.34579c-.25935.3165-.93613.18765-1.33732.26806-2.43773.48863-7.05812,2.77921-9.04532,5.39968-8.86415,11.68907-8.85062,16.89074-8.84333,19.68528.04053,15.52315,14.85366,20.97118,19.3456,20.49079,31.94251-3.41611,36.571-27.39337,21.27043-39.91625a26.08,26.08,0,0,0-20.24275-5.84442c-.387.0356-.80362-.50253-1.14731-.08313v-2.83124c.51356,0,1.03268.01107,1.55293.03335,16.803.72,30.591,12.897,29.862,29.7a30.45642,30.45642,0,0,1-30.41557,29.15243q-.66072,0-1.32743-.02844a30.46816,30.46816,0,0,1-29.124-31.743c.70644-16.29175,13.36982-27.11435,29.45207-27.11435v2.83123" transform="translate(-279.23424 -88.8829)"/>
            <path class="b315a5fd-d0b9-4a63-b3f9-4075273f735b" d="M430.754,307.93054c-.34932.42415-1.25832.24575-1.79761.35107a20.10891,20.10891,0,0,0-11.1842,6.997c-.70415.89778-6.879,9.0288-6.86264,17.9532.03238,17.63394,17.80408,22.32269,19.93083,21.76114,2.12432-.56092,4.33348-.14252,6.47005-.56269a41.33626,41.33626,0,0,0,8.58336-2.7269c4.95613-2.208,10.36661-5.3345,12.91768-11.78282,5.11743-12.93542-1.94394-23.92344-10.67041-28.65869a26.822,26.822,0,0,0-16.227-3.28267c-.3893.04647-.81209-.47107-1.16-.04858v-2.416c.51356,0,1.03268.01107,1.55293.03335,16.803.72,30.591,12.897,29.862,29.7a30.45642,30.45642,0,0,1-30.41557,29.15243q-.66072,0-1.32743-.02844a30.46816,30.46816,0,0,1-29.124-31.743c.70644-16.29175,13.36982-27.11435,29.45207-27.11435v2.416" transform="translate(-279.23424 -88.8829)"/>
            <path class="b042e693-c7e7-4a5f-867a-54b51b9449c4" d="M430.754,307.54365c-.3553.426-1.27332.23232-1.819.33188a21.25731,21.25731,0,0,0-12.57072,7.72718,29.12455,29.12455,0,0,0-6.07,17.595c.02055,18.541,19.53641,22.91907,20.51315,22.57431,2.13721-.75435,4.37224-.10431,6.53751-.45689a42.59226,42.59226,0,0,0,9.14714-2.73133A23.1176,23.1176,0,0,0,459.82091,338.311c3.61279-11.13292-2.45215-23.37306-14.10759-28.47169-5.99442-2.6222-11.965-2.661-13.76842-2.27613-.39845.085-.83131-.45067-1.19092-.0195v-2.0291c.51356,0,1.03268.01107,1.55293.03335,16.803.72,30.591,12.897,29.862,29.7a30.45642,30.45642,0,0,1-30.41557,29.15243q-.66072,0-1.32743-.02844a30.46816,30.46816,0,0,1-29.124-31.743c.70644-16.29175,13.36982-27.11435,29.45207-27.11435v2.02909" transform="translate(-279.23424 -88.8829)"/>
            <path class="a3c99bc9-a28a-41bb-aeb0-4fed71e96d1b" d="M430.754,307.21328c-.16786.18964-.58657.07171-.838.10245a21.75337,21.75337,0,0,0-13.90078,7.54972,29.25029,29.25029,0,0,0-6.33079,17.71846c.01187,19.82625,20.01291,24.15856,21.09894,23.81824,2.10408-.6593,4.27916-.0925,6.40528-.37227a34.63477,34.63477,0,0,0,8.38718-2.18089c4.47629-1.93086,10.79746-5.45624,13.99815-13.74327,4.1344-10.70465-.69958-23.22949-11.24424-29.13393a29.91,29.91,0,0,0-17.57578-3.75851v-1.69872c.51356,0,1.03268.01107,1.55293.03335,16.803.72,30.591,12.897,29.862,29.7a30.45642,30.45642,0,0,1-30.41557,29.15243q-.66072,0-1.32743-.02844a30.46816,30.46816,0,0,1-29.124-31.743c.70644-16.29175,13.36982-27.11435,29.45207-27.11435v1.69872" transform="translate(-279.23424 -88.8829)"/>
            <path class="f5b3189d-dbe9-42e5-b480-cba51b3be5c9" d="M430.754,306.95722c-.39484.45105-1.38642.18507-1.9806.26439a22.61137,22.61137,0,0,0-13.78766,7.86348c-2.66387,3.22707-5.83913,8.97751-5.83831,18.04658.00176,18.3819,19.7188,24.34351,21.61126,23.817.20011-.05567.34946-.39989.55685-.41145,9.35976-.52168,21.00829-1.17092,27.28606-13.4167,3.78817-7.38947,4.59776-19.39461-5.58776-28.90938-8.84379-8.26135-21.98492-7.568-22.25984-7.25394v-1.44266c.51356,0,1.03268.01107,1.55293.03335,16.803.72,30.591,12.897,29.862,29.7a30.45642,30.45642,0,0,1-30.41557,29.15243q-.66072,0-1.32743-.02844a30.46816,30.46816,0,0,1-29.124-31.743c.70644-16.29175,13.36982-27.11435,29.45207-27.11435v1.44266" transform="translate(-279.23424 -88.8829)"/>
            <path class="b5f19b77-e388-48a4-b60f-3ec951946c8f" d="M430.754,306.72c-.40036.45322-1.40024.1741-2.00035.24871-13.08113,1.62637-20.14354,13.75618-20.14731,24.34345-.00815,22.90719,21.90819,26.237,22.12961,26.18083.20446-.05186.36177-.39559.57231-.40842,2.82744-.17219,5.66574.33557,8.48842-.13528a31.73367,31.73367,0,0,0,7.75748-2.57477,24.25227,24.25227,0,0,0,5.08877-40.63809A30.60335,30.60335,0,0,0,430.754,306.72v-1.20548c.51356,0,1.03268.01107,1.55293.03335,16.803.72,30.591,12.897,29.862,29.7a30.45642,30.45642,0,0,1-30.41557,29.15243q-.66072,0-1.32743-.02844a30.46816,30.46816,0,0,1-29.124-31.743c.70644-16.29175,13.36982-27.11435,29.45207-27.11435V306.72" transform="translate(-279.23424 -88.8829)"/>
            <path class="b5391e37-c784-4acd-bcbf-815bc9f14a7f" d="M430.754,306.5023c-.4077.45671-1.41934.16144-2.02763.23062-11.76157,1.33766-20.63941,11.873-20.65067,24.50624-.01988,22.35812,21.08464,27.02492,22.63246,26.73472.20374-.03819.38616-.34111.593-.35461,2.885-.18832,5.78207.37071,8.66182-.14047a29.09669,29.09669,0,0,0,8.22975-2.858,24.69919,24.69919,0,0,0,4.51384-40.95282,30.98947,30.98947,0,0,0-21.95258-7.16565v-.98775c.51356,0,1.03268.01107,1.55293.03335,16.803.72,30.591,12.897,29.862,29.7a30.45642,30.45642,0,0,1-30.41557,29.15243q-.66072,0-1.32743-.02844a30.46816,30.46816,0,0,1-29.124-31.743c.70644-16.29175,13.36982-27.11435,29.45207-27.11435v.98774" transform="translate(-279.23424 -88.8829)"/>
            <path class="ac59127d-fe21-4107-b9bd-8514e6a028fa" d="M430.754,306.30717c-.103.1104-.35144.02446-.50206.03494a24.273,24.273,0,0,0-16.07051,7.4001c-4.86935,5.22336-6.60339,12.65478-6.60878,17.43152-.02557,22.68855,21.54065,27.59439,23.12248,27.31238.20457-.03648.39166-.33607.59914-.34757,12.12073-.672,12.12073-.672,15.62355-2.36119,7.531-3.63165,10.70595-8.78032,11.72147-10.82539,5.48253-11.041,3.45144-22.6075-5.43312-30.94046-9.12351-8.55706-22.1652-8.012-22.45217-7.70433v-.79261c.51356,0,1.03268.01107,1.55293.03335,16.803.72,30.591,12.897,29.862,29.7a30.45642,30.45642,0,0,1-30.41557,29.15243q-.66072,0-1.32743-.02844a30.46816,30.46816,0,0,1-29.124-31.743c.70644-16.29175,13.36982-27.11435,29.45207-27.11435v.79261" transform="translate(-279.23424 -88.8829)"/>
            <path class="b6291395-e1c9-4cd8-a534-51f066529357" d="M430.754,306.14263c-.43043.47032-1.48178.13149-2.11683.18784-12.46715,1.10627-21.53,11.52768-21.54946,24.77983-.03349,22.79525,21.75466,28.08944,23.58869,27.83421.2029-.02824.40867-.27381.61122-.30446.10432-.01578.23313.07913.33305.113a27.39629,27.39629,0,0,0,14.66686-2.17088,25.88324,25.88324,0,0,0,13.43086-13.3035,25.54207,25.54207,0,0,0-8.67905-31.12262,31.2306,31.2306,0,0,0-20.28534-6.01346v-.62807c.51356,0,1.03268.01107,1.55293.03335,16.803.72,30.591,12.897,29.862,29.7a30.45642,30.45642,0,0,1-30.41557,29.15243q-.66072,0-1.32743-.02844a30.46816,30.46816,0,0,1-29.124-31.743c.70644-16.29175,13.36982-27.11435,29.45207-27.11435v.62807" transform="translate(-279.23424 -88.8829)"/>
            <path class="fa7bb25d-4155-45c3-a454-cd236eb3d4a2" d="M430.754,305.99614c-.43574.47248-1.49481.12109-2.13545.173-12.72441,1.0307-21.97728,11.49385-22.0013,24.87909-.0419,23.377,22.00171,28.545,24.041,28.34114,2.31354-.23131,4.63152.1857,6.945-.05116a28.84484,28.84484,0,0,0,9.83174-2.81769,25.87924,25.87924,0,0,0,5.3967-42.98717,31.97311,31.97311,0,0,0-22.07767-7.53718v-.48159c.51356,0,1.03268.01107,1.55293.03335,16.803.72,30.591,12.897,29.862,29.7a30.45642,30.45642,0,0,1-30.41557,29.15243q-.66072,0-1.32743-.02844a30.46816,30.46816,0,0,1-29.124-31.743c.70644-16.29175,13.36982-27.11435,29.45207-27.11435v.48158" transform="translate(-279.23424 -88.8829)"/>
            <path class="b61966a5-eaab-401c-a03d-00be93ebeb63" d="M430.754,305.86816c-.44483.47778-1.51931.10862-2.17044.15516-10.77437.7702-22.38859,9.15586-22.42807,25.74724-.046,19.36284,17.71272,27.97746,24.47032,27.984,6.71027.00646,20.67324.01985,28.00035-13.33094a26.17588,26.17588,0,0,0-3.71485-30.92,31.50192,31.50192,0,0,0-24.15731-9.63542v-.35361c.51356,0,1.03268.01107,1.55293.03335,16.803.72,30.591,12.897,29.862,29.7a30.45642,30.45642,0,0,1-30.41557,29.15243q-.66072,0-1.32743-.02844a30.46816,30.46816,0,0,1-29.124-31.743c.70644-16.29175,13.36982-27.11435,29.45207-27.11435v.3536" transform="translate(-279.23424 -88.8829)"/>
            <path class="a229940c-9a8b-4b99-8db9-397b40189e24" d="M430.754,305.75916c-.45337.48276-1.54225.09692-2.20321.13846-12.9961.81673-22.821,11.57315-22.85357,25.02039-.05352,22.102,19.8368,29.46417,24.92473,29.35064,8.64713-.193,21.71475-.48456,28.84064-15.04623,3.94522-8.06207,4.70175-21.10253-6.15019-31.3215-9.251-8.71137-22.27638-8.442-22.5584-8.14176a3.13471,3.13471,0,0,1,1.55293-.21125c16.803.72,30.591,12.897,29.862,29.7a30.45642,30.45642,0,0,1-30.41557,29.15243q-.66072,0-1.32743-.02844a30.46816,30.46816,0,0,1-29.124-31.743c.70644-16.29175,13.36982-27.11435,29.45207-27.11435v.2446" transform="translate(-279.23424 -88.8829)"/>
            <path class="ee6751a0-020e-432b-9f1b-ed832386394d" d="M430.754,305.66142c-.45671.48311-1.54878.08708-2.21254.1244-13.24881.74486-23.26741,11.52626-23.30417,25.07849-.061,22.4906,19.75565,29.7773,25.3675,29.83511,31.92619.32883,33.98877-26.19741,29.4703-37.31448a27.14282,27.14282,0,0,1,2.09384,11.863,30.45642,30.45642,0,0,1-30.41557,29.15243q-.66072,0-1.32743-.02844a30.46816,30.46816,0,0,1-29.124-31.743c.70644-16.29175,13.36982-27.11435,29.45207-27.11435v.14686" transform="translate(-279.23424 -88.8829)"/>
            <path class="a151b623-b97b-4d6a-8783-ea958075f4f4" d="M430.754,305.58518c-.46109.48424-1.55828.0763-2.22612.109a24.78861,24.78861,0,0,0-23.72928,25.11908c-.06654,22.32,18.88048,30.01848,25.78981,30.29737,28.159,1.13653,33.12735-21.29691,31.12169-32.339a28.00462,28.00462,0,0,1,.45883,6.47634,30.45642,30.45642,0,0,1-30.41557,29.15243q-.66072,0-1.32743-.02844a30.46816,30.46816,0,0,1-29.124-31.743c.70644-16.29175,13.36982-27.11435,29.45207-27.11435v.07062" transform="translate(-279.23424 -88.8829)"/>
            <path class="bdbaee23-4e14-4523-9153-e266e6786c6e" d="M430.754,305.53625c-.46838.4882-1.57725.06536-2.25322.09336A24.84959,24.84959,0,0,0,404.34561,330.719c-.06212,20.71355,16.06207,29.94174,26.24017,30.89295,17.64483,1.649,31.52753-10.73487,31.60534-28.193q.01759.90481-.02221,1.829a30.45642,30.45642,0,0,1-30.41557,29.15243q-.66072,0-1.32743-.02844a30.46816,30.46816,0,0,1-29.124-31.743c.70644-16.29175,13.36982-27.11435,29.45207-27.11435v.02169" transform="translate(-279.23424 -88.8829)"/>
            <path class="afa10b6d-174c-447d-b5cb-909c994789c6" d="M430.754,305.51533c-.47478.49168-1.59382.05569-2.27688.07956-8.54863.29866-24.70166,6.36789-24.64861,27.20031.04843,19.0134,18.82485,29.64809,27.06944,29.24782,8.1139-.39393,27.11513-1.31645,31.03133-24.0554a30.46106,30.46106,0,0,1-30.17592,26.41272q-.66072,0-1.32743-.02844a30.46816,30.46816,0,0,1-29.124-31.743c.70644-16.29175,13.36982-27.11435,29.45207-27.11435v.00077" transform="translate(-279.23424 -88.8829)"/>
            <path class="eff9a3b2-d5b0-4934-ba2b-11f16f03e76f" d="M425.43605,305.92364c-27.55826,5.35336-28.89931,38.15652-8.163,51.8979,14.66044,9.715,37.40832,5.10223,43.66858-15.19739a30.47461,30.47461,0,0,1-29.18833,21.77619q-.66072,0-1.32743-.02844a30.46816,30.46816,0,0,1-29.124-31.743c.64339-14.83782,11.2048-25.1391,25.23412-26.85957-.33.04629-.77132.09937-1.1.15431" transform="translate(-279.23424 -88.8829)"/>
            <path class="eb1c162b-8dcb-4d76-899d-8366c2444026" d="M420.45512,307.11694c-26.01867,9.61523-21.62591,43.809.95494,53.5586,12.20324,5.26892,29.47875,2.54889,37.45858-12.87a30.47275,30.47275,0,0,1-27.1153,16.59484q-.66072,0-1.32743-.02844a30.46816,30.46816,0,0,1-29.124-31.743,27.33068,27.33068,0,0,1,19.50948-25.6266c-.10689.03439-.25016.078-.35628.11464" transform="translate(-279.23424 -88.8829)"/>
            <path class="f645624a-9c02-41c5-a42a-b7ee31eddfc0" d="M455.15082,336.37021c-3.33992-11.1148-3.47029-11.54867-6.79514-15.057a26.19027,26.19027,0,0,0-9.02157-6.04564c-7.27886-3.21972-7.27886-3.21972-7.31978-3.311a.89906.89906,0,0,1,.06045-.69627c2.06494-3.6795,21.41558-1.95787,26.03875,12.91777,2.58818,8.32787-1.16391,13.62953-2.56319,13.2-.31093-.09544-.30592-.69638-.39952-1.00787" transform="translate(-279.23424 -88.8829)"/>
            <path class="a59543d8-0337-4a4f-83b7-8c029beae558" d="M455.3578,332.15575c-1.8329-5.102-3.81791-8.60038-6.43632-11.34343a37.40931,37.40931,0,0,0-10.92594-7.65036c-.42528-.184-1.23714-.22364-1.39727-.65849-.00653-.01772.6866-1.66019.70633-1.67377.05658-.03895,8.11395-1.50471,15.56164,5.73957,1.13542,1.10441,6.721,6.99051,5.17392,14.42968-.11764.56565-.07174,1.46415-.49033,1.86237-.01686.016-1.74971.39325-1.76588.3844-.308-.16852-.30746-.75955-.42616-1.09" transform="translate(-279.23424 -88.8829)"/>
            <path class="b005f64e-76f8-482d-ac36-38eff2d6bbf1" d="M455.08661,328.54809a1.32609,1.32609,0,0,1-.22479-.42993,30.546,30.546,0,0,0-2.83248-4.90026,29.64944,29.64944,0,0,0-3.98175-4.53587c-.76906-.70589-1.82051-1.62092-2.64654-2.2592a25.92886,25.92886,0,0,1-2.907-2.03211,5.48365,5.48365,0,0,1-.967-2.3266c3.51821.27333,7.15616.556,12.36847,6.34028,4.5577,5.05787,3.41454,10.84622,3.2152,10.95359l-2.02407-.8099" transform="translate(-279.23424 -88.8829)"/>
            <path class="ee6751a0-020e-432b-9f1b-ed832386394d" d="M448.68572,310.42475c-8.32111-4.68149-14.80648-4.99382-17.93174-4.76332v-.14687c.51356,0,1.03268.01107,1.55293.03335a34.14259,34.14259,0,0,1,16.54747,4.9808c-.05061-.03118-.11745-.07379-.16867-.104" transform="translate(-279.23424 -88.8829)"/>
            <path class="a151b623-b97b-4d6a-8783-ea958075f4f4" d="M438.77905,306.42267a34.2435,34.2435,0,0,0-8.02507-.83747v-.07064c.51356,0,1.03268.01107,1.55293.03335a35.18623,35.18623,0,0,1,10.59291,2.08909c-.66559-.21748-1.553-.50748-2.21861-.725-.57065-.1468-1.32712-.36085-1.90217-.48934" transform="translate(-279.23424 -88.8829)"/>
            <path class="afbc1dc7-7a80-4335-bed1-37f02723b0f0" d="M454.37129,323.92591a14.59464,14.59464,0,0,1-1.07742-1.3466c-.45615-.57013-1.23245-1.1804-1.70343-1.73833-.34372-.40718-.74661-.99443-1.07927-1.41069-.796-.99609-1.7038-1.90118-2.41733-2.96459a21.03931,21.03931,0,0,0-1.62073-1.96638c2.757,1.12267,8.49395,3.45871,9.25408,10.50452-.40205-.32923-.98078-.71832-1.35591-1.07791" transform="translate(-279.23424 -88.8829)"/>
            <path class="bdbaee23-4e14-4523-9153-e266e6786c6e" d="M433.25425,305.6076c-.98043-.07112-2.06419-.07776-2.50027-.07134.51356-.0217,1.03268-.01063,1.55293.01165a35.97668,35.97668,0,0,1,5.15977.594l-2.3603-.36343c-.55564-.05126-1.2956-.13046-1.85214-.17088" transform="translate(-279.23424 -88.8829)"/>
            <path class="afa10b6d-174c-447d-b5cb-909c994789c6" d="M431.98317,305.53549c-.32973-.0106-.7068-.02038-1.22919-.02015.42291-.00078.8496.00673,1.27758.02182l-.04841-.00166" transform="translate(-279.23424 -88.8829)"/>
          </g>
        </g>
      </g>
    </g>
    <path class="a07faf63-6f58-4c2f-b44d-34d7b25d2110" d="M458.42324,272.61918c.06006.66.08008,1.32.08008,1.99v53.14a26.748,26.748,0,0,1-28.52,26.69c-14.22-.92-24.97-13.36-24.97-27.61l.32983-73.1a19.19075,19.19075,0,0,0-18.75-19.62l-51.07983-1.61005a26.75275,26.75275,0,0,1-26.14014-27.35l1.2-90.13a26.74468,26.74468,0,0,1,29.13013-26.03c14.18994,1.24,24.65991,13.92,24.32983,28.16l-.56982,62.47,42.80005,1.42a54.22318,54.22318,0,0,1,52.98,55.44Z" transform="translate(-279.23424 -88.8829)"/>
    <g class="b391d9d5-047b-45ae-8188-2997db9f8ff5">
      <g class="b391d9d5-047b-45ae-8188-2997db9f8ff5">
        <g class="beeba0e7-9ce5-4d02-96e0-9680dbf659f2">
          <g class="b391d9d5-047b-45ae-8188-2997db9f8ff5">
            <path class="ee90c29d-ce54-4ed8-9c5b-cc2edb356f36" d="M309.37035,148.92992l.30771-.29414-.00053.0237h0l-.18853.16063-.11865.10981" transform="translate(-279.23424 -88.8829)"/>
          </g>
        </g>
      </g>
      <g class="b391d9d5-047b-45ae-8188-2997db9f8ff5">
        <g class="b8c4f8fa-e227-44e0-8e1e-a8a1caae7cbe">
          <g class="b391d9d5-047b-45ae-8188-2997db9f8ff5">
            <path class="ee90c29d-ce54-4ed8-9c5b-cc2edb356f36" d="M360.54648,147.4179l-.30773.29415.00054-.02369h0l.18852-.16063.11867-.10983" transform="translate(-279.23424 -88.8829)"/>
          </g>
        </g>
      </g>
      <g class="b391d9d5-047b-45ae-8188-2997db9f8ff5">
        <g class="e1d1caf2-5e35-4dc6-9b64-8965171e0190">
          <g class="b391d9d5-047b-45ae-8188-2997db9f8ff5">
            <path class="ee90c29d-ce54-4ed8-9c5b-cc2edb356f36" d="M309.42947,146.2599l.179.17808.11655.10674-.00053.02384-.29505-.30866" transform="translate(-279.23424 -88.8829)"/>
          </g>
        </g>
      </g>
      <g class="b391d9d5-047b-45ae-8188-2997db9f8ff5">
        <g class="bb98ba52-7095-40c7-830c-342b5a7bdf8d">
          <g class="b391d9d5-047b-45ae-8188-2997db9f8ff5">
            <path class="ee90c29d-ce54-4ed8-9c5b-cc2edb356f36" d="M360.48735,150.08792l-.179-.17808-.11657-.10675.00054-.02384.29505.30867" transform="translate(-279.23424 -88.8829)"/>
          </g>
        </g>
      </g>
      <g class="b391d9d5-047b-45ae-8188-2997db9f8ff5">
        <g class="b0cf4e58-eb1c-4e70-b77f-d4131b4aaf9f">
          <g class="b391d9d5-047b-45ae-8188-2997db9f8ff5">
            <polyline class="e9230151-bd0f-4de7-86d1-392e1eef12db" points="30.491 57.662 30.443 59.777 30.371 59.836 30.421 57.599 30.491 57.662"/>
            <polyline class="a0a26508-6f51-4aa7-a922-e2ad3742ea79" points="30.421 57.599 30.371 59.836 30.183 60.002 30.176 60.009 30.235 57.418 30.414 57.593 30.421 57.599"/>
            <path class="af2e7966-c619-4c6b-8a70-79424f0d6106" d="M309.42947,146.2599l.03942.04078-.05823,2.59113-.04031.03811-.13564.12966.06594-2.93444.12882.13476" transform="translate(-279.23424 -88.8829)"/>
            <path class="ec5c368b-5e96-4ec9-8423-7b2e18010893" d="M309.30065,146.12514l-.06594,2.93444-.16491.15763.07319-3.257.15766.16494" transform="translate(-279.23424 -88.8829)"/>
            <path class="fc1d1a7a-88cb-47fa-9a05-92ac797f4ddb" d="M309.143,145.9602l-.07319,3.257-.15713.15021.08009-3.56438.15023.15716" transform="translate(-279.23424 -88.8829)"/>
            <path class="e7207cff-89e4-4f18-9382-62e928641a00" d="M308.99276,145.803l-.08009,3.56438-.149.14238.08664-3.85574.1424.149" transform="translate(-279.23424 -88.8829)"/>
            <path class="ee389d29-5618-4866-aa70-122f16e3cf7e" d="M308.85036,145.65406l-.08664,3.85574-.1435.13716.09295-4.13642.13719.14352" transform="translate(-279.23424 -88.8829)"/>
            <path class="a1009882-5f8a-4db7-9516-83def6c56184" d="M308.71317,145.51054l-.09295,4.13642-.13913.133.09907-4.40855.133.13914" transform="translate(-279.23424 -88.8829)"/>
            <path class="b9666076-f650-43a9-951c-f6cae7a21909" d="M308.58016,145.3714l-.09907,4.40855-.13518.12922.105-4.673.12924.13521" transform="translate(-279.23424 -88.8829)"/>
            <path class="f8ee4a22-99fd-4af8-b1cc-5231124609e1" d="M308.45092,145.23619l-.105,4.673-.13253.12668.11084-4.93221.1267.13255" transform="translate(-279.23424 -88.8829)"/>
            <path class="adf44b42-aa4b-4bef-990c-d68ad7739e77" d="M308.32422,145.10364l-.11084,4.93221-.12951.1238.11653-5.18554.12382.12953" transform="translate(-279.23424 -88.8829)"/>
            <path class="a17c4f35-594e-4cbd-9526-1eabc7f97c83" d="M308.2004,144.97411l-.11653,5.18554-.12941.12371.12221-5.43869.12373.12944" transform="translate(-279.23424 -88.8829)"/>
            <path class="ebf78fc1-5fed-4741-b5da-bde4413a9678" d="M308.07667,144.84467l-.12221,5.43869-.128.12239.12785-5.68914.12241.12806" transform="translate(-279.23424 -88.8829)"/>
            <path class="b449fa03-ff2e-4978-b34b-3fa23ef323c5" d="M307.95426,144.71661l-.12785,5.68914-.12676.12117.13342-5.9371.12119.12679" transform="translate(-279.23424 -88.8829)"/>
            <path class="e055d427-1c38-46a7-a70c-c169cea442fa" d="M307.83307,144.58982l-.00568.25252-.006.26652-.00627.279-.00651.28984-.00672.29917-.0069.307-.007.31317-.00714.31784-.00721.32095-.00725.3225-.00725.32251-.00721.321-.00714.31785-.007.31319-.0069.307-.00672.2992-.00652.28988-.00627.279-.006.26656-.00567.25257-.131.12526.00609-.27086.00636-.28312.00661-.294.00682-.30356.007-.31173.00716-.31853.00728-.324.00738-.32807.00743-.33079.00746-.33215.00747-.33215.00743-.33079.00737-.328.00728-.324.00716-.31852.007-.3117.00683-.30353.0066-.294.00636-.28309.00609-.27082.12528.13106" transform="translate(-279.23424 -88.8829)"/>
            <path class="a1517851-0e72-452d-b32c-aa56366ff7ac" d="M307.70779,144.45876l-.13918,6.19342-.13429.12837.14508-6.4561.12839.13431" transform="translate(-279.23424 -88.8829)"/>
            <path class="e524950d-30bf-4726-9d53-aea78737e4c4" d="M307.5794,144.32445l-.14508,6.4561-.14157.13532.1513-6.733.13535.1416" transform="translate(-279.23424 -88.8829)"/>
            <path class="b650e8f3-cb99-465f-b239-c455f861c83c" d="M307.44405,144.18285l-.1513,6.733-.15888.15188.15828-7.0438.1519.1589" transform="translate(-279.23424 -88.8829)"/>
            <path class="ee90c29d-ce54-4ed8-9c5b-cc2edb356f36" d="M307.29215,144.024l-.15828,7.0438-.494.47217.18-8.01.47224.494" transform="translate(-279.23424 -88.8829)"/>
          </g>
        </g>
      </g>
      <g class="b391d9d5-047b-45ae-8188-2997db9f8ff5">
        <g class="ac388578-f771-4db4-8067-07a6855d82d6">
          <g class="b391d9d5-047b-45ae-8188-2997db9f8ff5">
            <path class="e9230151-bd0f-4de7-86d1-392e1eef12db" d="M309.67806,148.63578l50.51424,1.14347.0775.08107-50.6728-1.14705.08106-.07749" transform="translate(-279.23424 -88.8829)"/>
            <path class="a0a26508-6f51-4aa7-a922-e2ad3742ea79" d="M309.597,148.71327l50.6728,1.14705.20421.21364-51.09061-1.15651.2136-.20418" transform="translate(-279.23424 -88.8829)"/>
            <path class="af2e7966-c619-4c6b-8a70-79424f0d6106" d="M309.3834,148.91745,360.474,150.074l.18357.192-51.46619-1.165.192-.18354" transform="translate(-279.23424 -88.8829)"/>
            <path class="ec5c368b-5e96-4ec9-8423-7b2e18010893" d="M309.19139,149.101l51.46619,1.165.16621.17388-51.80626-1.1727.17386-.16619" transform="translate(-279.23424 -88.8829)"/>
            <path class="fc1d1a7a-88cb-47fa-9a05-92ac797f4ddb" d="M309.01753,149.26718l51.80626,1.1727.157.16424-52.12747-1.18.16421-.157" transform="translate(-279.23424 -88.8829)"/>
            <path class="e7207cff-89e4-4f18-9382-62e928641a00" d="M308.85332,149.42414l52.12747,1.18.14921.15611-52.43276-1.18689.15608-.1492" transform="translate(-279.23424 -88.8829)"/>
            <path class="ee389d29-5618-4866-aa70-122f16e3cf7e" d="M308.69724,149.57334,361.13,150.76023l.14129.1478-52.72183-1.19343.14778-.14126" transform="translate(-279.23424 -88.8829)"/>
            <path class="a1009882-5f8a-4db7-9516-83def6c56184" d="M308.54946,149.7146l52.72183,1.19343.13633.14263-53.00076-1.19975.1426-.13631" transform="translate(-279.23424 -88.8829)"/>
            <path class="b9666076-f650-43a9-951c-f6cae7a21909" d="M308.40686,149.85091l53.00076,1.19975.13186.13794-53.27054-1.20586.13792-.13183" transform="translate(-279.23424 -88.8829)"/>
            <path class="f8ee4a22-99fd-4af8-b1cc-5231124609e1" d="M308.26894,149.98274l53.27054,1.20586.12821.13413-53.53285-1.2118.1341-.12819" transform="translate(-279.23424 -88.8829)"/>
            <path class="adf44b42-aa4b-4bef-990c-d68ad7739e77" d="M308.13484,150.11093l53.53285,1.2118.12556.13135-53.78975-1.21761.13134-.12554" transform="translate(-279.23424 -88.8829)"/>
            <path class="a17c4f35-594e-4cbd-9526-1eabc7f97c83" d="M308.0035,150.23647l53.78975,1.21761.12256.12821-54.0405-1.22328.12819-.12254" transform="translate(-279.23424 -88.8829)"/>
            <path class="ebf78fc1-5fed-4741-b5da-bde4413a9678" d="M307.87531,150.359l54.0405,1.22328.12233.128-54.29079-1.22894.128-.12232" transform="translate(-279.23424 -88.8829)"/>
            <path class="b449fa03-ff2e-4978-b34b-3fa23ef323c5" d="M307.74735,150.48133l54.29079,1.22894.1218.12742-54.54-1.23459.1274-.12177" transform="translate(-279.23424 -88.8829)"/>
            <path class="e055d427-1c38-46a7-a70c-c169cea442fa" d="M307.62,150.6031l54.54,1.23459.12163.12724-54.78884-1.24022.12722-.12161" transform="translate(-279.23424 -88.8829)"/>
            <path class="a1517851-0e72-452d-b32c-aa56366ff7ac" d="M307.49273,150.72471l54.78884,1.24022.12327.129-55.041-1.24593.12893-.12325" transform="translate(-279.23424 -88.8829)"/>
            <path class="e524950d-30bf-4726-9d53-aea78737e4c4" d="M307.3638,150.848l55.041,1.24593.12976.13575-55.30653-1.25194.13573-.12974" transform="translate(-279.23424 -88.8829)"/>
            <path class="b650e8f3-cb99-465f-b239-c455f861c83c" d="M307.22807,150.9777l55.30653,1.25194.14729.15409L307.074,151.125l.15406-.14727" transform="translate(-279.23424 -88.8829)"/>
            <path class="ee90c29d-ce54-4ed8-9c5b-cc2edb356f36" d="M307.074,151.125l55.60788,1.25876.415.43417-56.457-1.278.4341-.415" transform="translate(-279.23424 -88.8829)"/>
          </g>
        </g>
      </g>
      <g class="b391d9d5-047b-45ae-8188-2997db9f8ff5">
        <g class="adbcf7aa-324d-4e7e-a2d4-b2360c8a29fd">
          <g class="b391d9d5-047b-45ae-8188-2997db9f8ff5">
            <path class="e9230151-bd0f-4de7-86d1-392e1eef12db" d="M309.67806,148.63578l-.07264.06944-.00031.014.07242-.05979.00053-.0237" transform="translate(-279.23424 -88.8829)"/>
            <path class="a0a26508-6f51-4aa7-a922-e2ad3742ea79" d="M309.60542,148.70522l-.19475.18616v.00043l.18745-.16664.007-.0059.00031-.014" transform="translate(-279.23424 -88.8829)"/>
            <path class="af2e7966-c619-4c6b-8a70-79424f0d6106" d="M309.41067,148.89138l-.04032.03854.04031-.03811v-.00043" transform="translate(-279.23424 -88.8829)"/>
          </g>
        </g>
      </g>
      <g class="b391d9d5-047b-45ae-8188-2997db9f8ff5">
        <g class="b7faa88b-9e70-43ca-bab6-e14c14016817">
          <g class="b391d9d5-047b-45ae-8188-2997db9f8ff5">
            <path class="e9230151-bd0f-4de7-86d1-392e1eef12db" d="M360.1923,149.77925l-.00054.02384.137.12619.00016-.00709-.13663-.14294" transform="translate(-279.23424 -88.8829)"/>
            <path class="b0cee90e-c481-4355-b9a4-3f915c1e8f8b" d="M360.32893,149.92219l-.00016.00709.15858.15864-.15842-.16573" transform="translate(-279.23424 -88.8829)"/>
          </g>
        </g>
      </g>
      <g class="b391d9d5-047b-45ae-8188-2997db9f8ff5">
        <g class="a049faaa-4fc9-49b0-bf74-cb0224a6ad8f">
          <g class="b391d9d5-047b-45ae-8188-2997db9f8ff5">
            <polyline class="e9230151-bd0f-4de7-86d1-392e1eef12db" points="80.958 60.92 81.005 58.805 81.148 58.686 81.095 61.046 80.958 60.92"/>
            <path class="b0cee90e-c481-4355-b9a4-3f915c1e8f8b" d="M360.48735,150.08792l-.15858-.15864.05306-2.36086.16465-.15052.07853-.07507-.06343,2.82274-.07423-.07765" transform="translate(-279.23424 -88.8829)"/>
            <path class="aac2060d-724c-4a52-9e05-868a723053ef" d="M360.56158,150.16557l.06343-2.82274.29559-.28255-.07642,3.40093-.2826-.29564" transform="translate(-279.23424 -88.8829)"/>
            <path class="ff2a1e9c-abbe-4b36-af94-559aa46521af" d="M360.84418,150.46121l.07642-3.40093.51-.48746-.09884,4.39843-.48754-.51" transform="translate(-279.23424 -88.8829)"/>
            <path class="e027d834-9686-4427-84be-98d7477d4883" d="M361.33172,150.97125l.09884-4.39843.322-.30779-.113,5.02827-.30784-.322" transform="translate(-279.23424 -88.8829)"/>
            <path class="ff2a1e9c-abbe-4b36-af94-559aa46521af" d="M361.63956,151.2933l.113-5.02827.44856-.42878-.13271,5.90569-.42885-.44864" transform="translate(-279.23424 -88.8829)"/>
            <path class="aac2060d-724c-4a52-9e05-868a723053ef" d="M362.06841,151.74194l.13271-5.90569.20247-.19353-.14161,6.30172-.19357-.2025" transform="translate(-279.23424 -88.8829)"/>
            <path class="b0cee90e-c481-4355-b9a4-3f915c1e8f8b" d="M362.262,151.94444l.14161-6.30172.14683-.14036-.14806,6.58894-.14038-.14686" transform="translate(-279.23424 -88.8829)"/>
            <path class="e9230151-bd0f-4de7-86d1-392e1eef12db" d="M362.40236,152.0913l.14806-6.58894.11418-.10914-.15309,6.81227-.10915-.11419" transform="translate(-279.23424 -88.8829)"/>
            <path class="a0a26508-6f51-4aa7-a922-e2ad3742ea79" d="M362.51151,152.20549l.15309-6.81227.09527-.09107-.15727,6.99863-.09109-.09529" transform="translate(-279.23424 -88.8829)"/>
            <path class="af2e7966-c619-4c6b-8a70-79424f0d6106" d="M362.6026,152.30078l.15727-6.99863.08267-.079-.1609,7.16034-.079-.08268" transform="translate(-279.23424 -88.8829)"/>
            <path class="ec5c368b-5e96-4ec9-8423-7b2e18010893" d="M362.68164,152.38346l.1609-7.16034.0705-.06739-.164,7.29825-.0674-.07052" transform="translate(-279.23424 -88.8829)"/>
            <path class="fc1d1a7a-88cb-47fa-9a05-92ac797f4ddb" d="M362.749,152.454l.164-7.29825.06178-.059-.16673,7.41907-.05905-.06178" transform="translate(-279.23424 -88.8829)"/>
            <path class="e7207cff-89e4-4f18-9382-62e928641a00" d="M362.80809,152.51576l.16673-7.41907.05484-.05243-.16913,7.52635-.05244-.05485" transform="translate(-279.23424 -88.8829)"/>
            <path class="ee389d29-5618-4866-aa70-122f16e3cf7e" d="M362.86053,152.57061l.16913-7.52635.04775-.04564-.17123,7.61975-.04565-.04776" transform="translate(-279.23424 -88.8829)"/>
            <path class="a1009882-5f8a-4db7-9516-83def6c56184" d="M362.90618,152.61837l.17123-7.61975.0426-.04072-.17311,7.70307-.04072-.0426" transform="translate(-279.23424 -88.8829)"/>
            <path class="b9666076-f650-43a9-951c-f6cae7a21909" d="M362.9469,152.661l.17311-7.70307.03709-.03545-.00862.38377-.00866.38536-.0087.38676-.00871.388-.00875.389-.00876.38992-.00878.39063-.00879.39116-.0088.3915-.0088.39168-.0088.39168-.0088.39151-.00879.39115-.00878.39063-.00876.38992-.00874.389-.00872.388-.00869.38676-.00866.38535-.00862.38377-.03547-.0371" transform="translate(-279.23424 -88.8829)"/>
            <path class="f8ee4a22-99fd-4af8-b1cc-5231124609e1" d="M362.98237,152.69807l.17473-7.77562.03229-.03087-.17615,7.83879-.03087-.0323" transform="translate(-279.23424 -88.8829)"/>
            <path class="adf44b42-aa4b-4bef-990c-d68ad7739e77" d="M363.01324,152.73037l.17615-7.83879.02778-.02656-.17737,7.89313-.02656-.02778" transform="translate(-279.23424 -88.8829)"/>
            <path class="a17c4f35-594e-4cbd-9526-1eabc7f97c83" d="M363.0398,152.75815l.17737-7.89313.02278-.02177-.17837,7.93769-.02178-.02279" transform="translate(-279.23424 -88.8829)"/>
            <path class="ebf78fc1-5fed-4741-b5da-bde4413a9678" d="M363.06158,152.78094l.17837-7.93769.01816-.01736-.17918,7.97321-.01735-.01816" transform="translate(-279.23424 -88.8829)"/>
            <path class="b449fa03-ff2e-4978-b34b-3fa23ef323c5" d="M363.07893,152.7991l.17918-7.97321.01247-.01192-.17972,7.9976-.01193-.01247" transform="translate(-279.23424 -88.8829)"/>
            <polyline class="e055d427-1c38-46a7-a70c-c169cea442fa" points="83.857 63.929 84.036 55.931 84.042 55.925 83.862 63.935 83.857 63.929"/>
            <polyline class="a1517851-0e72-452d-b32c-aa56366ff7ac" points="83.862 63.935 84.042 55.925 84.043 55.925 83.863 63.935 83.862 63.935"/>
          </g>
        </g>
      </g>
      <g class="b391d9d5-047b-45ae-8188-2997db9f8ff5">
        <g class="bbca0ebe-9b10-4611-a426-1c0f30ea8b3d">
          <g class="b391d9d5-047b-45ae-8188-2997db9f8ff5">
            <path class="e9230151-bd0f-4de7-86d1-392e1eef12db" d="M360.23875,147.71205l.14292-.13661.00016-.007-.14254.11994-.00054.02369" transform="translate(-279.23424 -88.8829)"/>
            <path class="b0cee90e-c481-4355-b9a4-3f915c1e8f8b" d="M360.38167,147.57544l.16481-.15754h0l-.16465.15052-.00016.007" transform="translate(-279.23424 -88.8829)"/>
          </g>
        </g>
      </g>
      <g class="b391d9d5-047b-45ae-8188-2997db9f8ff5">
        <g class="be9d66ac-1a36-4454-9ccc-496f00cea6c6">
          <g class="b391d9d5-047b-45ae-8188-2997db9f8ff5">
            <path class="e9230151-bd0f-4de7-86d1-392e1eef12db" d="M360.23875,147.71205l-50.51423-1.14349-.15619-.1634,50.83379,1.15073-.16337.15616" transform="translate(-279.23424 -88.8829)"/>
            <path class="b0cee90e-c481-4355-b9a4-3f915c1e8f8b" d="M360.40212,147.55589l-50.83379-1.15073-.278-.2908,51.40254,1.16359-.29077.27794" transform="translate(-279.23424 -88.8829)"/>
            <path class="aac2060d-724c-4a52-9e05-868a723053ef" d="M360.69289,147.278l-51.40254-1.16359-.42468-.44428,52.27141,1.18327-.44419.4246" transform="translate(-279.23424 -88.8829)"/>
            <path class="ff2a1e9c-abbe-4b36-af94-559aa46521af" d="M361.13708,146.85335l-52.27141-1.18327-.63658-.666,53.57384,1.21275-.66585.63648" transform="translate(-279.23424 -88.8829)"/>
            <path class="aac2060d-724c-4a52-9e05-868a723053ef" d="M361.80293,146.21687l-53.57384-1.21275-.333-.34839,54.2552,1.22818-.34834.333" transform="translate(-279.23424 -88.8829)"/>
            <path class="b0cee90e-c481-4355-b9a4-3f915c1e8f8b" d="M362.15127,145.88391l-54.2552-1.22818-.19369-.20262,54.65148,1.23714-.20259.19366" transform="translate(-279.23424 -88.8829)"/>
            <path class="e9230151-bd0f-4de7-86d1-392e1eef12db" d="M362.35386,145.69025l-54.65148-1.23714-.14192-.14847,54.94184,1.24371-.14844.1419" transform="translate(-279.23424 -88.8829)"/>
            <path class="a0a26508-6f51-4aa7-a922-e2ad3742ea79" d="M362.5023,145.54835l-54.94184-1.24371-.11428-.11955,55.17566,1.249-.11954.11426" transform="translate(-279.23424 -88.8829)"/>
            <path class="af2e7966-c619-4c6b-8a70-79424f0d6106" d="M362.62184,145.43409l-55.17566-1.249-.09673-.1012,55.37356,1.25349-.10117.09671" transform="translate(-279.23424 -88.8829)"/>
            <path class="ec5c368b-5e96-4ec9-8423-7b2e18010893" d="M362.723,145.33738l-55.37356-1.25349-.08285-.08668,55.54308,1.25733-.08667.08284" transform="translate(-279.23424 -88.8829)"/>
            <path class="fc1d1a7a-88cb-47fa-9a05-92ac797f4ddb" d="M362.80968,145.25454l-55.54308-1.25733-.07092-.07419,55.68818,1.26061-.07418.07091" transform="translate(-279.23424 -88.8829)"/>
            <path class="e7207cff-89e4-4f18-9382-62e928641a00" d="M362.88386,145.18363,307.19568,143.923l-.06367-.06661L362.95046,145.12l-.0666.06366" transform="translate(-279.23424 -88.8829)"/>
            <path class="ee389d29-5618-4866-aa70-122f16e3cf7e" d="M362.95046,145.12,307.132,143.85641l-.05543-.058,55.93186,1.26613-.058.05542" transform="translate(-279.23424 -88.8829)"/>
            <path class="a1009882-5f8a-4db7-9516-83def6c56184" d="M363.00844,145.06455l-55.93186-1.26613-.04964-.05193,56.03342,1.26843-.05192.04963" transform="translate(-279.23424 -88.8829)"/>
            <path class="b9666076-f650-43a9-951c-f6cae7a21909" d="M363.06036,145.01492l-56.03342-1.26843-.04381-.04583,56.123,1.27046-.04582.0438" transform="translate(-279.23424 -88.8829)"/>
            <path class="f8ee4a22-99fd-4af8-b1cc-5231124609e1" d="M363.10618,144.97112l-56.123-1.27046-.03878-.04057,56.20239,1.27225-.04056.03878" transform="translate(-279.23424 -88.8829)"/>
            <path class="adf44b42-aa4b-4bef-990c-d68ad7739e77" d="M363.14674,144.93234l-56.20239-1.27225-.03371-.03527,56.27137,1.27382-.03527.0337" transform="translate(-279.23424 -88.8829)"/>
            <path class="a17c4f35-594e-4cbd-9526-1eabc7f97c83" d="M363.182,144.89864l-56.27137-1.27382-.02925-.03059,56.33121,1.27516-.03059.02925" transform="translate(-279.23424 -88.8829)"/>
            <path class="ebf78fc1-5fed-4741-b5da-bde4413a9678" d="M363.2126,144.86939l-56.33121-1.27516-.0239-.025,56.38011,1.27628-.025.02389" transform="translate(-279.23424 -88.8829)"/>
            <path class="b449fa03-ff2e-4978-b34b-3fa23ef323c5" d="M363.2376,144.8455l-56.38011-1.27628-.01929-.02018,56.41957,1.27717-.02017.01929" transform="translate(-279.23424 -88.8829)"/>
            <path class="e055d427-1c38-46a7-a70c-c169cea442fa" d="M363.25777,144.82621,306.8382,143.549l-.01293-.01352,56.446,1.27776-.01353.01293" transform="translate(-279.23424 -88.8829)"/>
            <polyline class="a1517851-0e72-452d-b32c-aa56366ff7ac" points="84.037 55.93 27.591 54.653 27.586 54.647 84.043 55.925 84.037 55.93"/>
            <polyline class="e524950d-30bf-4726-9d53-aea78737e4c4" points="84.043 55.925 27.586 54.647 27.586 54.647 84.043 55.925 84.043 55.925"/>
          </g>
        </g>
      </g>
      <g class="b391d9d5-047b-45ae-8188-2997db9f8ff5">
        <g class="a83b7793-ec03-46ab-a76e-f85428cbd743">
          <g class="b391d9d5-047b-45ae-8188-2997db9f8ff5">
            <path class="e9230151-bd0f-4de7-86d1-392e1eef12db" d="M309.72452,146.56856l.00053-.02384-.06966-.063-.00032.01416.06945.07265" transform="translate(-279.23424 -88.8829)"/>
            <path class="a0a26508-6f51-4aa7-a922-e2ad3742ea79" d="M309.65507,146.49591l.00032-.01416-.17989-.17433-.00661-.00674v.00045l.18619.19478" transform="translate(-279.23424 -88.8829)"/>
            <path class="af2e7966-c619-4c6b-8a70-79424f0d6106" d="M309.46888,146.30113v-.00045l-.03942-.04078.03941.04123" transform="translate(-279.23424 -88.8829)"/>
          </g>
        </g>
      </g>
      <path class="a4311072-7920-417a-bb86-f53c57045f33" d="M309.72452,146.56856l50.51423,1.14349c.00676-.30091-.05324,2.36908-.04645,2.0672l-50.51424-1.14347C309.6713,148.93669,309.7313,146.26668,309.72452,146.56856Z" transform="translate(-279.23424 -88.8829)"/>
    </g>
  </g>
</svg>
