<svg xmlns="http://www.w3.org/2000/svg" xmlns:xlink="http://www.w3.org/1999/xlink" viewBox="0 0 80.69 178.7">
  <defs>
    <style>
      .bead104c-16e7-440f-a426-78cdefdf66f3 {
        mask: url(#aa70a708-13e2-4501-98cb-c7641cdec256);
      }

      .bb70e26e-9fbd-4134-a303-ff7856a91a31, .e1e4c3d0-20d8-47e4-a07d-0af266abe9af {
        mix-blend-mode: multiply;
      }

      .bb70e26e-9fbd-4134-a303-ff7856a91a31 {
        fill: url(#acd8d615-6b89-46c1-88f3-4d70471a3cd3);
      }

      .a3f865f4-2581-40b6-a207-0f73e339129b {
        isolation: isolate;
      }

      .f46a53ce-a4f5-42bb-b25a-f8c3b82f0add {
        fill: #e8a982;
      }

      .f63bf056-bb6c-4212-9294-07fa4111fad5 {
        fill: #fff;
      }

      .a6b4ed3f-9651-41b7-8911-330a8bcdbc53 {
        mask: url(#b92b3c15-ca92-4427-be11-9393a2f47fc0);
      }

      .e1e4c3d0-20d8-47e4-a07d-0af266abe9af {
        opacity: 0.2;
        fill: url(#bf935957-20a7-4b65-a099-41ce601a99fb);
      }

      .b6f99069-040f-4aa4-bf1a-4857f75a3872 {
        fill: #90bc21;
      }

      .a0e59c1f-4483-4ca1-a00c-59c04188d417 {
        fill: #4e6d9d;
      }

      .f9ad75bc-6eb2-47cd-b800-b57365377fcb {
        fill: #42a629;
      }

      .be254b05-b5d2-4b84-9354-f926e2284d3f {
        fill: #5c2210;
      }

      .bb21e203-6d3e-48f3-8c1f-525200377170 {
        fill: none;
      }

      .a9047d6e-fdf3-4fcd-a1b7-94b003e7aed9 {
        filter: url(#b9195ac0-e1ce-443a-9561-3b9c3e7a5b5f);
      }

      .fc9be167-9683-43d0-b8f7-cd190f9acac5 {
        filter: url(#e792ba31-ed4b-4442-a1df-076c2949409a);
      }
    </style>
    <filter id="e792ba31-ed4b-4442-a1df-076c2949409a" x="115.68" y="-8617.44" width="48.3" height="32766" filterUnits="userSpaceOnUse" color-interpolation-filters="sRGB">
      <feFlood flood-color="#fff" result="bg"/>
      <feBlend in="SourceGraphic" in2="bg"/>
    </filter>
    <mask id="aa70a708-13e2-4501-98cb-c7641cdec256" x="115.68" y="-8617.44" width="48.3" height="32766" maskUnits="userSpaceOnUse">
      <g class="fc9be167-9683-43d0-b8f7-cd190f9acac5"/>
    </mask>
    <linearGradient id="acd8d615-6b89-46c1-88f3-4d70471a3cd3" x1="-3560.86" y1="95.31" x2="-3501.59" y2="95.31" gradientTransform="matrix(-0.82, -0.02, -0.03, 0.94, -2735.9, 66.26)" gradientUnits="userSpaceOnUse">
      <stop offset="0" stop-color="#fff"/>
      <stop offset="1"/>
    </linearGradient>
    <filter id="b9195ac0-e1ce-443a-9561-3b9c3e7a5b5f" x="115.68" y="234.78" width="48.3" height="6.62" filterUnits="userSpaceOnUse" color-interpolation-filters="sRGB">
      <feFlood flood-color="#fff" result="bg"/>
      <feBlend in="SourceGraphic" in2="bg"/>
    </filter>
    <mask id="b92b3c15-ca92-4427-be11-9393a2f47fc0" x="0" y="172.07" width="48.3" height="6.62" maskUnits="userSpaceOnUse">
      <g class="a9047d6e-fdf3-4fcd-a1b7-94b003e7aed9">
        <g transform="translate(-115.68 -62.7)">
          <g class="bead104c-16e7-440f-a426-78cdefdf66f3">
            <path class="bb70e26e-9fbd-4134-a303-ff7856a91a31" d="M116.54,238.8a1.67,1.67,0,0,1-.37-2.65c.66-.88,2.51-.48,3.36-.56,4-.34,8-.64,11.95-.75a154.43,154.43,0,0,1,24,1.21c1.18.15,9.76.61,8.3,3.92-.74,1.68-4.14.75-5.4.78l-8.26.22-16.53.43C132.39,241.43,119.94,241.34,116.54,238.8Z"/>
          </g>
        </g>
      </g>
    </mask>
    <linearGradient id="bf935957-20a7-4b65-a099-41ce601a99fb" x1="-3560.86" y1="95.31" x2="-3501.59" y2="95.31" gradientTransform="matrix(-0.82, -0.02, -0.03, 0.94, -2735.9, 66.26)" gradientUnits="userSpaceOnUse">
      <stop offset="0"/>
      <stop offset="1"/>
    </linearGradient>
  </defs>
  <title>4-labguy</title>
  <g class="a3f865f4-2581-40b6-a207-0f73e339129b">
    <g id="b47879bb-b6f4-4066-bc3f-37f4d1a394d2" data-name="step4">
      <g>
        <path class="f46a53ce-a4f5-42bb-b25a-f8c3b82f0add" d="M147.1,91a38.89,38.89,0,0,0-1.09,9.66l-8.22-.24L139.62,89Z" transform="translate(-115.68 -62.7)"/>
        <path class="f63bf056-bb6c-4212-9294-07fa4111fad5" d="M128.86,194.36s35.54,11.93,37.12-4.15c1.09-11-4.19-53.31-7.61-78.72A15.85,15.85,0,0,0,137.1,98.75l-1.31.49Z" transform="translate(-115.68 -62.7)"/>
        <g class="a6b4ed3f-9651-41b7-8911-330a8bcdbc53">
          <path class="e1e4c3d0-20d8-47e4-a07d-0af266abe9af" d="M116.54,238.8a1.67,1.67,0,0,1-.37-2.65c.66-.88,2.51-.48,3.36-.56,4-.34,8-.64,11.95-.75a154.43,154.43,0,0,1,24,1.21c1.18.15,9.76.61,8.3,3.92-.74,1.68-4.14.75-5.4.78l-8.26.22-16.53.43C132.39,241.43,119.94,241.34,116.54,238.8Z" transform="translate(-115.68 -62.7)"/>
        </g>
        <path class="b6f99069-040f-4aa4-bf1a-4857f75a3872" d="M129.25,226.68c.55-2.52-8.93,3.16-8,4.22s9.89,9.33,11.94,8.93C137.53,239,128,232.31,129.25,226.68Z" transform="translate(-115.68 -62.7)"/>
        <path class="b6f99069-040f-4aa4-bf1a-4857f75a3872" d="M144.54,230c-1.07-2.31-5.15,7.84-3.74,8.1s13.38,1.43,14.76-.11C158.46,234.75,147,235.17,144.54,230Z" transform="translate(-115.68 -62.7)"/>
        <path class="a0e59c1f-4483-4ca1-a00c-59c04188d417" d="M160.68,152.38c-3.05,22.16-5.56,29.93-7.8,34.49a60,60,0,0,1-3,5.18c-7.13,11.27-12.56,25.91-18.76,37.72-.17.34-.41.72-.79.74a1.11,1.11,0,0,1-.63-.21L125.79,228a1.25,1.25,0,0,1-.57-.52,1.31,1.31,0,0,1,.08-.91c2.42-7,3.59-17,6-23.93,1.26-3.61,3.58-4.74,5.21-8.2a28.38,28.38,0,0,0,2-4.66,21.79,21.79,0,0,0,.58-4.34c.67-10.52-.24-23.58-.61-34.12,0-.67,5.94-2.42,6.66-2.64a45.67,45.67,0,0,1,7.14-1.56,45.13,45.13,0,0,1,7.44-.36C160.86,146.84,162.45,139.46,160.68,152.38Z" transform="translate(-115.68 -62.7)"/>
        <path class="a0e59c1f-4483-4ca1-a00c-59c04188d417" d="M162.7,192.55c-.84,4.61-10.8,29.75-13.41,40.79a14.9,14.9,0,0,1-7.12-1.61c2.51-11.9,3-23.29,9.52-39.09,1.31-3.18-5-11.39-5.63-14.79-1.35-7.61-2.08-15.38-4.56-22.71-.51-1.5-1-3.32,0-4.54a4.23,4.23,0,0,1,1.78-1.11,39,39,0,0,1,9.12-2.42c2.43-.33,4.31-.9,6.63.21C163.23,149.32,163.51,188.14,162.7,192.55Z" transform="translate(-115.68 -62.7)"/>
        <path class="f9ad75bc-6eb2-47cd-b800-b57365377fcb" d="M138.11,94.7c-1.35.16-5.05,5.92-4.92,17.62.17,15.27,4.86,30.81,4.77,46.07a1.54,1.54,0,0,0,.18.91c.28.4.82.37,1.27.31,8.32-1.15,12.9-2.33,21.23-3.48a1.44,1.44,0,0,0,.8-.29,1.53,1.53,0,0,0,.35-.9c1.1-6.48,0-13.21-1.67-19.6s-.1-12.62-1.23-19.14C157.67,109.19,141.49,94.31,138.11,94.7Z" transform="translate(-115.68 -62.7)"/>
        <path class="f46a53ce-a4f5-42bb-b25a-f8c3b82f0add" d="M154.37,86.81c-1.87,6-.81,5.92-8.32,5.41-3.16-.21-5.43-3.14-6.64-5.82A20.67,20.67,0,0,1,138,77.84c0-3.23.43-6.85,3.14-8.93A10.1,10.1,0,0,1,145,67.22c1.82-.42,4-.49,5.33.73.65.6.71,1.59,1.28,2.22C155.13,74,157.3,77.43,154.37,86.81Z" transform="translate(-115.68 -62.7)"/>
        <path class="be254b05-b5d2-4b84-9354-f926e2284d3f" d="M146.47,95.7c-3.6-3-5.61-5.46-4.47-10-1.68.35-3.29-3.78-2.9-5.86s2.89-2.76,3.91-.91c2.06-2.77,7-5.32,8.06-8.38A10.73,10.73,0,0,1,155.9,79c.5-2.63,1.37-6.68-3.08-12-.67-.81-3.64-2.14-4.69-2A6.77,6.77,0,0,0,146,63.46a10,10,0,0,0-6.86-.29A14,14,0,0,0,130.31,71a23.19,23.19,0,0,0-1.44,8.87,29.11,29.11,0,0,0,1.29,10c2.87,8.2,11.4,13.4,20,14.66C152.25,104.83,148.4,97.32,146.47,95.7Z" transform="translate(-115.68 -62.7)"/>
        <path class="f46a53ce-a4f5-42bb-b25a-f8c3b82f0add" d="M162.44,121a7.88,7.88,0,0,1-3.62-.31,6.55,6.55,0,0,1-2.54-2.17c-1.33-1.7-2.16-4.07-3.15-6-1.24-2.43-2.51-5.17-3.76-7.6a10.24,10.24,0,0,0-3.31-3.65c-1.44-1.11-3.63-1.48-5.07-.35s-1.58,3.59-1.09,5.52c.54,2.13.37,4.25,1.35,6.22,2.44,4.91,2.1,6.66,8.46,14.6.42.53.63,1.24,1.21,1.58s1.14.17,1.71.32c7.67,2,23.8-3.27,32.64-7.86.77-.4,7.3.79,9.89-2,.81-.86,2.35-5.53-.14-2.78-.79.87-7,2.42-5.36-.54,0-.61-.86-.71-1.43-.51-2,.69-2.53,2-4.6,2.39-2.25.48-5.06,1-7.33,1.43C171.71,120.06,167.08,120.62,162.44,121Z" transform="translate(-115.68 -62.7)"/>
        <path class="f63bf056-bb6c-4212-9294-07fa4111fad5" d="M134.11,98.84a4.08,4.08,0,0,1,5.24-1.54L145,100c4.23,3.36,3.69,3,3.69,3.8,0,0-1.87,23.11-1.83,38.62s7.8,46.2,7.8,46.2a4.31,4.31,0,0,1-3,4c-4,1.4-18.94,3.9-19.13,2.1C125.16,125.42,127.86,109,134.11,98.84Z" transform="translate(-115.68 -62.7)"/>
        <path class="f63bf056-bb6c-4212-9294-07fa4111fad5" d="M135.22,101.25c.19,2.5,9.51,32.42,16.12,32.14s35.74-8,34.23-9.74-5.15-6.33-5.15-6.33-13.3,4.82-19.84,3.28c-4.7-1.09-8.65-12.34-11.91-17.61a7.34,7.34,0,0,0-6.27-3.48Z" transform="translate(-115.68 -62.7)"/>
        <path class="bb21e203-6d3e-48f3-8c1f-525200377170" d="M188.39,114.14" transform="translate(-115.68 -62.7)"/>
      </g>
    </g>
  </g>
</svg>
