<svg id="e6q2yi0xdlvq1"
    xmlns="http://www.w3.org/2000/svg"
    xmlns:xlink="http://www.w3.org/1999/xlink" viewBox="0 0 145 181" shape-rendering="geometricPrecision" text-rendering="geometricPrecision">
    <style><![CDATA[#e6q2yi0xdlvq4_to {animation: e6q2yi0xdlvq4_to__to 2700ms linear infinite normal forwards}@keyframes e6q2yi0xdlvq4_to__to { 0% {transform: translate(74.500336px,40.483795px);animation-timing-function: cubic-bezier(0.420000,0,0.580000,1)} 11.111111% {transform: translate(74.500336px,40.483795px);animation-timing-function: cubic-bezier(0.420000,0,0.580000,1)} 74.074074% {transform: translate(128.499634px,40.483795px);animation-timing-function: cubic-bezier(0.420000,0,0.580000,1)} 100% {transform: translate(128.499634px,50px)} }#e6q2yi0xdlvq4_tr {animation: e6q2yi0xdlvq4_tr__tr 2700ms linear infinite normal forwards}@keyframes e6q2yi0xdlvq4_tr__tr { 0% {transform: rotate(0deg)} 11.111111% {transform: rotate(0deg);animation-timing-function: cubic-bezier(0.420000,0,0.580000,1)} 77.777778% {transform: rotate(180deg)} 100% {transform: rotate(180deg)} }#e6q2yi0xdlvq4 {animation: e6q2yi0xdlvq4_c_o 2700ms linear infinite normal forwards}@keyframes e6q2yi0xdlvq4_c_o { 0% {opacity: 0} 11.111111% {opacity: 1} 74.074074% {opacity: 1} 85.185185% {opacity: 0} 100% {opacity: 0} }]]></style>
    <defs>
        <linearGradient id="e6q2yi0xdlvq24-fill" x1="356.091700" y1="725.470000" x2="307.490300" y2="724.284600" spreadMethod="pad" gradientUnits="userSpaceOnUse">
            <stop id="e6q2yi0xdlvq24-fill-0" offset="0%" stop-color="rgb(0,0,0)"/>
            <stop id="e6q2yi0xdlvq24-fill-1" offset="100%" stop-color="rgb(0,0,0)"/>
        </linearGradient>
    </defs>
    <g id="e6q2yi0xdlvq2">
    </g>
    <g id="e6q2yi0xdlvq4_to" transform="translate(74.500336,40.483795)">
        <g id="e6q2yi0xdlvq4_tr" transform="rotate(0)">
            <g id="e6q2yi0xdlvq4" transform="translate(-128.499634,-40.483795)" opacity="0">
                <path id="e6q2yi0xdlvq5" d="M418.460000,604C415.089977,604.003783,411.811994,602.900582,409.130000,600.860000C404.125504,597.070131,401.896918,590.638688,403.483519,584.564909C405.070121,578.491131,410.159422,573.971278,416.378078,573.113138C422.596734,572.254997,428.719951,575.227585,431.892227,580.644665C435.064504,586.061744,434.661045,592.856395,430.870000,597.860000L430.870000,597.860000C428.390759,601.147519,424.700372,603.307746,420.620000,603.860000C419.904084,603.956366,419.182365,604.003144,418.460000,604ZM418.510000,574.520000C411.914055,574.478874,406.184126,579.047388,404.755177,585.486820C403.326229,591.926252,406.585927,598.489618,412.580155,601.242327C418.574383,603.995036,425.676940,602.190293,429.630000,596.910000L429.630000,596.910000C434.261766,590.754789,433.050759,582.014084,426.920000,577.350000C424.499433,575.519929,421.544487,574.536118,418.510000,574.550000Z" transform="matrix(1 0 0 1 -290 -548)" fill="rgb(0,151,255)" stroke="none" stroke-width="1"/>
                <circle id="e6q2yi0xdlvq6" r="4.530000" transform="matrix(1 0 0 1 121.05000000000000 33.53000000000000)" fill="rgb(0,151,255)" stroke="none" stroke-width="1"/>
                <circle id="e6q2yi0xdlvq7" r="4.530000" transform="matrix(1 0 0 1 130.83000000000001 30.30000000000000)" fill="rgb(0,151,255)" stroke="none" stroke-width="1"/>
                <circle id="e6q2yi0xdlvq8" r="4.530000" transform="matrix(1 0 0 1 128.49000000000001 40.88000000000000)" fill="rgb(0,151,255)" stroke="none" stroke-width="1"/>
                <circle id="e6q2yi0xdlvq9" r="4.530000" transform="matrix(1 0 0 1 138.03999999999999 36.97000000000000)" fill="rgb(0,151,255)" stroke="none" stroke-width="1"/>
                <circle id="e6q2yi0xdlvq10" r="4.530000" transform="matrix(1 0 0 1 135.93000000000001 47.22000000000000)" fill="rgb(0,151,255)" stroke="none" stroke-width="1"/>
                <circle id="e6q2yi0xdlvq11" r="4.530000" transform="matrix(1 0 0 1 118.86000000000000 43.64000000000000)" fill="rgb(0,151,255)" stroke="none" stroke-width="1"/>
                <circle id="e6q2yi0xdlvq12" r="4.530000" transform="matrix(1 0 0 1 125.95000000000000 50.67000000000000)" fill="rgb(0,151,255)" stroke="none" stroke-width="1"/>
                <circle id="e6q2yi0xdlvq13" r="4.530000" transform="matrix(1 0 0 1 121.05000000000000 33.53000000000000)" fill="rgb(0,53,84)" stroke="none" stroke-width="1"/>
                <circle id="e6q2yi0xdlvq14" r="4.530000" transform="matrix(1 0 0 1 130.83000000000001 30.30000000000000)" fill="rgb(0,53,84)" stroke="none" stroke-width="1"/>
                <circle id="e6q2yi0xdlvq15" r="4.530000" transform="matrix(1 0 0 1 128.49000000000001 40.88000000000000)" fill="rgb(0,53,84)" stroke="none" stroke-width="1"/>
                <circle id="e6q2yi0xdlvq16" r="4.530000" transform="matrix(1 0 0 1 138.03999999999999 36.97000000000000)" fill="rgb(0,53,84)" stroke="none" stroke-width="1"/>
                <circle id="e6q2yi0xdlvq17" r="4.530000" transform="matrix(1 0 0 1 135.93000000000001 47.22000000000000)" fill="rgb(0,53,84)" stroke="none" stroke-width="1"/>
                <circle id="e6q2yi0xdlvq18" r="4.530000" transform="matrix(1 0 0 1 118.86000000000000 43.64000000000000)" fill="rgb(0,53,84)" stroke="none" stroke-width="1"/>
                <circle id="e6q2yi0xdlvq19" r="4.530000" transform="matrix(1 0 0 1 125.95000000000000 50.67000000000000)" fill="rgb(0,53,84)" stroke="none" stroke-width="1"/>
            </g>
        </g>
    </g>
    <g id="e6q2yi0xdlvq20">
        <g id="e6q2yi0xdlvq21">
            <path id="e6q2yi0xdlvq22" d="M322.430000,577.260000C321.668077,580.422445,321.301940,583.667288,321.340000,586.920000L313.120000,586.680000L315,575.260000Z" transform="matrix(1 0 0 1 -290 -548)" fill="rgb(232,169,130)" stroke="none" stroke-width="1"/>
            <path id="e6q2yi0xdlvq23" d="M304.190000,680.620000C304.190000,680.620000,339.730000,692.550000,341.310000,676.470000C342.400000,665.470000,337.120000,623.160000,333.700000,597.750000C333.143092,593.584144,330.953396,589.810399,327.613021,587.259635C324.272646,584.708872,320.055472,583.590229,315.890000,584.150000C314.707228,584.301567,313.546095,584.590172,312.430000,585.010000L311.120000,585.500000Z" transform="matrix(1 0 0 1 -290 -548)" fill="rgb(255,255,255)" stroke="none" stroke-width="1"/>
            <path id="e6q2yi0xdlvq24" style="isolation:isolate" d="M291.870000,725.060000C291.063832,724.612516,290.772863,723.596360,291.220000,722.790000C291.295098,722.650859,291.389350,722.522945,291.500000,722.410000C292.160000,721.530000,294.010000,721.930000,294.860000,721.850000C298.860000,721.510000,302.860000,721.210000,306.810000,721.100000C314.829248,720.882534,322.853288,721.287080,330.810000,722.310000C331.990000,722.460000,340.570000,722.920000,339.110000,726.230000C338.370000,727.910000,334.970000,726.980000,333.710000,727.010000L325.450000,727.230000L308.920000,727.660000C307.720000,727.690000,295.270000,727.600000,291.870000,725.060000Z" transform="matrix(1 0 0 1 -290 -548)" opacity="0.2" fill="url(#e6q2yi0xdlvq24-fill)" stroke="none" stroke-width="1"/>
            <path id="e6q2yi0xdlvq25" d="M304.580000,712.940000C305.130000,710.420000,295.650000,716.100000,296.580000,717.160000C297.510000,718.220000,306.470000,726.490000,308.520000,726.090000C312.860000,725.260000,303.330000,718.570000,304.580000,712.940000Z" transform="matrix(1 0 0 1 -290 -548)" fill="rgb(144,188,33)" stroke="none" stroke-width="1"/>
            <path id="e6q2yi0xdlvq26" d="M319.870000,716.260000C318.800000,713.950000,314.720000,724.100000,316.130000,724.360000C317.540000,724.620000,329.510000,725.790000,330.890000,724.250000C333.790000,721,322.330000,721.430000,319.870000,716.260000Z" transform="matrix(1 0 0 1 -290 -548)" fill="rgb(144,188,33)" stroke="none" stroke-width="1"/>
            <path id="e6q2yi0xdlvq27" d="M336,638.640000C332.950000,660.800000,330.440000,668.570000,328.200000,673.130000C327.291939,674.908304,326.290543,676.637381,325.200000,678.310000C318.070000,689.580000,312.640000,704.220000,306.440000,716.030000C306.270000,716.370000,306.030000,716.750000,305.650000,716.770000C305.422928,716.769286,305.202086,716.695672,305.020000,716.560000L301.110000,714.260000C300.869921,714.151109,300.670414,713.969102,300.540000,713.740000C300.460948,713.436516,300.489210,713.115037,300.620000,712.830000C303.040000,705.830000,304.210000,695.830000,306.620000,688.900000C307.880000,685.290000,310.200000,684.160000,311.830000,680.700000C312.639439,679.211906,313.308979,677.651879,313.830000,676.040000C314.173462,674.617389,314.367844,673.162878,314.410000,671.700000C315.080000,661.180000,314.170000,648.120000,313.800000,637.580000C313.800000,636.910000,319.740000,635.160000,320.460000,634.940000C325.181132,633.484298,330.112513,632.828584,335.050000,633C336.190000,633.100000,337.780000,625.720000,336,638.640000Z" transform="matrix(1 0 0 1 -290 -548)" fill="rgb(78,109,157)" stroke="none" stroke-width="1"/>
            <path id="e6q2yi0xdlvq28" d="M338,678.810000C337.160000,683.420000,327.200000,708.560000,324.590000,719.600000C322.130948,719.658858,319.695448,719.109238,317.500000,718C320.010000,706.100000,320.500000,694.710000,327.020000,678.910000C328.330000,675.730000,322.020000,667.520000,321.390000,664.120000C320.040000,656.510000,319.310000,648.740000,316.830000,641.410000C316.320000,639.910000,315.830000,638.090000,316.830000,636.870000C317.324155,636.360651,317.935173,635.979623,318.610000,635.760000C321.542327,634.591652,324.604189,633.779184,327.730000,633.340000C330.160000,633.010000,332.040000,632.440000,334.360000,633.550000C338.560000,635.580000,338.840000,674.400000,338,678.810000Z" transform="matrix(1 0 0 1 -290 -548)" fill="rgb(78,109,157)" stroke="none" stroke-width="1"/>
            <path id="e6q2yi0xdlvq29" d="M313.440000,581C312.090000,581.160000,308.390000,586.920000,308.520000,598.620000C308.690000,613.890000,313.380000,629.430000,313.290000,644.690000C313.256973,645.004539,313.319712,645.321721,313.470000,645.600000C313.750000,646,314.290000,645.970000,314.740000,645.910000C323.060000,644.760000,327.640000,643.580000,335.970000,642.430000C336.260689,642.420700,336.540875,642.319132,336.770000,642.140000C336.984009,641.887569,337.107238,641.570694,337.120000,641.240000C338.220000,634.760000,337.120000,628.030000,335.450000,621.640000C333.780000,615.250000,335.350000,609.020000,334.220000,602.500000C333,595.450000,316.820000,580.570000,313.440000,581Z" transform="matrix(1 0 0 1 -290 -548)" fill="rgb(66,166,41)" stroke="none" stroke-width="1"/>
            <path id="e6q2yi0xdlvq30" d="M329.700000,573.070000C327.830000,579.070000,328.890000,578.990000,321.380000,578.480000C318.220000,578.270000,315.950000,575.340000,314.740000,572.660000C313.670356,569.938372,313.189793,567.020914,313.330000,564.100000C313.330000,560.870000,313.760000,557.250000,316.470000,555.170000C317.624867,554.343884,318.939640,553.768245,320.330000,553.480000C322.150000,553.060000,324.330000,552.990000,325.660000,554.210000C326.310000,554.810000,326.370000,555.800000,326.940000,556.430000C330.460000,560.260000,332.630000,563.690000,329.700000,573.070000Z" transform="matrix(1 0 0 1 -290 -548)" fill="rgb(232,169,130)" stroke="none" stroke-width="1"/>
            <path id="e6q2yi0xdlvq31" d="M321.800000,582C318.200000,579,316.190000,576.540000,317.330000,572C315.650000,572.350000,314.040000,568.220000,314.430000,566.140000C314.820000,564.060000,317.320000,563.380000,318.340000,565.230000C320.400000,562.460000,325.340000,559.910000,326.400000,556.850000C329.268352,558.732484,331.063535,561.873124,331.230000,565.300000C331.730000,562.670000,332.600000,558.620000,328.150000,553.300000C326.822787,552.177799,325.188611,551.480923,323.460000,551.300000C322.856910,550.653028,322.133397,550.129924,321.330000,549.760000C319.148287,548.860987,316.719803,548.758325,314.470000,549.470000C310.516647,550.651294,307.285701,553.516335,305.640000,557.300000C304.589985,560.135480,304.100923,563.147970,304.200000,566.170000C304.051137,569.552740,304.487549,572.935780,305.490000,576.170000C308.360000,584.370000,316.890000,589.570000,325.490000,590.830000C327.580000,591.090000,323.730000,583.580000,321.800000,582Z" transform="matrix(1 0 0 1 -290 -548)" fill="rgb(92,34,16)" stroke="none" stroke-width="1"/>
            <path id="e6q2yi0xdlvq32" d="M337.770000,607.260000C336.555742,607.442680,335.315519,607.336473,334.150000,606.950000C333.130752,606.457221,332.255889,605.709798,331.610000,604.780000C330.280000,603.080000,329.450000,600.710000,328.460000,598.780000C327.220000,596.350000,325.950000,593.610000,324.700000,591.180000C323.912202,589.710643,322.775575,588.457264,321.390000,587.530000C319.950000,586.420000,317.760000,586.050000,316.320000,587.180000C314.880000,588.310000,314.740000,590.770000,315.230000,592.700000C315.770000,594.830000,315.600000,596.950000,316.580000,598.920000C319.020000,603.830000,318.680000,605.580000,325.040000,613.520000C325.460000,614.050000,325.670000,614.760000,326.250000,615.100000C326.830000,615.440000,327.390000,615.270000,327.960000,615.420000C335.630000,617.420000,351.760000,612.150000,360.600000,607.560000C361.370000,607.160000,367.900000,608.350000,370.490000,605.560000C371.300000,604.700000,372.840000,600.030000,370.350000,602.780000C369.560000,603.650000,363.350000,605.200000,364.990000,602.240000C364.990000,601.630000,364.130000,601.530000,363.560000,601.730000C361.560000,602.420000,361.030000,603.730000,358.960000,604.120000C356.710000,604.600000,353.900000,605.120000,351.630000,605.550000C347,606.320000,342.410000,606.880000,337.770000,607.260000Z" transform="matrix(1 0 0 1 -290 -548)" fill="rgb(232,169,130)" stroke="none" stroke-width="1"/>
            <path id="e6q2yi0xdlvq33" d="M309.440000,585.100000C310.537840,583.324812,312.796257,582.661079,314.680000,583.560000L320.330000,586.260000C324.560000,589.620000,324.020000,589.260000,324.020000,590.060000C324.020000,590.060000,322.150000,613.170000,322.190000,628.680000C322.230000,644.190000,329.990000,674.880000,329.990000,674.880000C329.947624,676.717455,328.742091,678.324831,326.990000,678.880000C322.990000,680.280000,308.050000,682.780000,307.860000,680.980000C300.490000,611.680000,303.190000,595.260000,309.440000,585.100000Z" transform="matrix(1 0 0 1 -290 -548)" fill="rgb(255,255,255)" stroke="none" stroke-width="1"/>
            <path id="e6q2yi0xdlvq34" d="M310.550000,587.510000C310.740000,590.010000,320.060000,619.930000,326.670000,619.650000C333.280000,619.370000,362.410000,611.650000,360.900000,609.910000C359.390000,608.170000,355.750000,603.580000,355.750000,603.580000C355.750000,603.580000,342.450000,608.400000,335.910000,606.860000C331.210000,605.770000,327.260000,594.520000,324,589.250000C322.658824,587.077065,320.283482,585.758693,317.730000,585.770000Z" transform="matrix(1 0 0 1 -290 -548)" fill="rgb(255,255,255)" stroke="none" stroke-width="1"/>
            <path id="e6q2yi0xdlvq35" d="" transform="matrix(1 0 0 1 -290 -548)" fill="none" stroke="none" stroke-width="1"/>
        </g>
    </g>
</svg>