<svg id="Capa_1" data-name="Capa 1" xmlns="http://www.w3.org/2000/svg" viewBox="0 0 179.51 249.66"><defs><style>.cls-1{fill:#3d4a5d;}.cls-2{fill:#bcc1c4;}.cls-3{fill:#0097ff;}</style></defs><g id="Group_182" data-name="Group 182"><g id="Group_39" data-name="Group 39"><path id="Path_258" data-name="Path 258" class="cls-1" d="M160.73,376c-.75-17.32,13.45-29.86,30.77-30.61s31.2,10.59,31.95,27.91a31.39,31.39,0,0,1-62.72,2.7Z" transform="translate(-160.7 -156.36)"/></g><g id="Group_183" data-name="Group 183"><path id="Path_358" data-name="Path 358" class="cls-2" d="M164.73,357.83c-.06.66-.08,1.32-.08,2V373A26.74,26.74,0,0,0,191.4,399.7c.59,0,1.18,0,1.77-.05,14.22-.92,25-13.36,25-27.61l-.33-18.1a19.2,19.2,0,0,1,18.75-19.63h57.53A26.74,26.74,0,0,0,320.23,307L319,204.83a26.74,26.74,0,0,0-27.34-26.13c-.6,0-1.19.05-1.79.1C275.71,180,265.24,192.72,265.57,207l.57,74.47-49.25-.19a54.22,54.22,0,0,0-53,55.44h0Z" transform="translate(-160.7 -156.36)"/></g><g id="Group_41" data-name="Group 41"><g id="Path_259" data-name="Path 259"><path class="cls-2" d="M301.46,225a10.36,10.36,0,0,1-2.82-2,13.14,13.14,0,0,0-3.78-2.63,5.54,5.54,0,0,0-1.95-.38l-1.47,0a15.64,15.64,0,0,1-5.46-1.07c-4.59-1.76-9.06-5.7-13.3-11.7-5.22-7.35-10-17.55-14.11-30.3l-17-13.44-.09-.07,0-.11a1.54,1.54,0,0,1,.54-1.65c1.63-1.55,6.94-2.77,15.76-3.64,7.73-.76,18-1.19,28.84-1.22,19.53-.06,42.72,1.22,50.51,4.21,2.19.84,3.1,1.83,2.71,2.93l0,.08-.06.06-15.47,15.79a11,11,0,0,0-2.5,4c-4.89,13.41-14.83,37.5-14.93,37.74v0C304.92,224.65,303.29,225.71,301.46,225Z" transform="translate(-160.7 -156.36)"/><path class="cls-2" d="M336.91,161.3c-15.62-6-97.57-5.71-95.16,1.84l17.14,13.51c4.23,13,9,23.12,14.1,30.3,4.19,6,8.59,9.83,13.12,11.57a15.64,15.64,0,0,0,5.33,1l1.47,0a6.12,6.12,0,0,1,2.09.4c2.78,1.07,4.64,3.92,6.59,4.67,1.43.55,2.91,0,4.83-3.28,0,0,10-24.17,14.92-37.73a11.39,11.39,0,0,1,2.59-4.1l15.46-15.79c.33-.91-.59-1.73-2.48-2.46m.27-.7a6.88,6.88,0,0,1,2.32,1.32,1.9,1.9,0,0,1,.6,2.09.77.77,0,0,1-.17.27l-15.47,15.8A10.61,10.61,0,0,0,322,183.9c-4.89,13.42-14.83,37.52-14.93,37.76a.31.31,0,0,1-.05.1,9.32,9.32,0,0,1-2.85,3.32,3.13,3.13,0,0,1-2.89.28,10.31,10.31,0,0,1-2.93-2.11,12.8,12.8,0,0,0-3.66-2.56,5.08,5.08,0,0,0-1.83-.35l-1.47,0a16.44,16.44,0,0,1-5.59-1.1c-4.65-1.79-9.19-5.77-13.46-11.83-5.23-7.37-10-17.56-14.13-30.29l-17-13.38a.66.66,0,0,1-.25-.36,1.89,1.89,0,0,1,.63-2c.91-.86,2.79-1.6,5.73-2.24a90.05,90.05,0,0,1,10.25-1.49c7.75-.76,18-1.2,28.88-1.23s21.53.33,30.37,1C323.69,157.91,332.73,158.89,337.18,160.6Z" transform="translate(-160.7 -156.36)"/></g><g id="Group_40" data-name="Group 40"><rect id="Rectangle_8" data-name="Rectangle 8" class="cls-3" x="104.02" y="38.89" width="54.78" height="8.14"/></g></g></g></svg>