<svg id="e2b817e0-efe5-4567-b974-cb0731ff0504" data-name="Layer 1" xmlns="http://www.w3.org/2000/svg" xmlns:xlink="http://www.w3.org/1999/xlink" viewBox="0 0 394.21 299.67"><defs><style>.a8322093-3f56-4656-ab71-15115def4bd5,.f2097ccd-ea7e-49c1-a1d4-d83e88b9e318{fill:none;}.f0b60617-5190-4e4a-8428-c05f68345855{fill:#2d3f51;}.bf804c6a-ed85-478b-803b-960839ad125d{clip-path:url(#ab57a306-2dd5-42b7-a94f-f2c7c01921c0);}.fc528be6-4061-46ae-91c2-4856d7a70257{fill:#304356;}.a261231f-af44-49ff-8601-3c4daa522d08{fill:#2f4254;}.a0eb9a0d-fc61-405c-8e29-e14ea132d9b5{fill:#2e4052;}.be84d65f-a3de-44fd-a875-a6b7e0cccfd8{fill:#2d3f50;}.be2ceb4c-0432-4451-ac93-4d6e3963e46f{fill:#2c3d4e;}.bc52f276-7abf-428a-abf9-460314cf2f9b{fill:#2b3c4c;}.b884b05b-1814-4480-91ba-3c589b33e1ce{fill:#2a3a4a;}.b90631d4-d45d-4815-bebd-9e0e6985046c{fill:#293949;}.ade96485-6e14-452d-973d-ee36b64930cd{fill:#283747;}.a04ad799-6c35-4d08-8f58-73e5c75dc2be{fill:#263645;}.fd0a27a7-4be5-441c-a573-c250e7d31528{fill:#253543;}.bc873743-fc3b-4b6d-a99c-d72d79c5a43a{fill:#243341;}.e47fa399-5596-4e6b-882b-12afa5efe916{fill:#23323f;}.f4555a37-1064-42c3-8d90-79e9ce74b780{fill:#22303d;}.b0722031-ba16-4157-9797-ef411d8e180b{fill:#212f3c;}.ac42ce40-fb16-4d65-969b-7d247c015121{fill:#202d3a;}.a0f22022-5abc-4d17-995c-f59692a0d73f{fill:#1f2c38;}.acc187b9-59b6-478c-9e4e-0e6147213f85{fill:#1e2a36;}.a270efe8-d29b-4908-bca0-d66e3a4a2496{fill:#1d2934;}.a8eb6a12-48ea-4bfa-b1e0-a331090e0219{fill:#1c2732;}.ecfa98bc-a7a3-48ef-b4fb-80cd4cd74455{fill:#1b2630;}.b1f5329d-fd13-4232-8e33-db621663d97a{fill:#314557;}.bd3d3a6d-39e8-4497-9c2d-b975a6b092d8{fill:#324659;}.a267ea02-1ba2-4311-b001-6c4977e8ea6e{fill:#33485b;}.f45baea0-ff83-425c-830f-f9f0ad4b8bb6{fill:#bac1c4;}.b64d5991-e787-486e-9f9b-220461f50c87{clip-path:url(#ac64aae8-7c23-4c84-bef2-a636f160bc8b);}.b6e1c597-b138-45d8-a91c-630e1673f64c{fill:#001f31;}.e170c8bd-aa46-4eea-bb6a-a211fd05a204{fill:#001e2f;}.bdc9613a-acc7-43e0-92ce-677235bea2dd{fill:#001d2d;}.f94e77bd-4d94-4d56-9e53-3f8e4f986607{fill:#001c2c;}.ad6a7a85-7998-4c6b-bdec-1bafa476d4b2{fill:#001b2a;}.b6c5a282-a6db-49d5-af12-dea6a88408fb{clip-path:url(#b95c76cf-00e9-40b5-b256-709d6cceff0e);}.a9bebe3a-1f4f-426f-925a-4a5e562a74b4{fill:#002e49;}.a9827327-85a3-4efc-8ed5-3be8258eeb72{clip-path:url(#f3162baf-9883-4dbb-b980-d54f91d0db9f);}.a3871a8a-2c0f-42d2-a9bf-ddaabbca3533{fill:#9fa0a0;}.f0c3f154-bdcb-4058-b071-ed7159a6d440{fill:#9ca2a5;}.b54120c3-407a-466e-8e3f-97f02dc97e12{clip-path:url(#bc0b86f8-2251-44ad-8521-65d8d6023274);}.e00ba4ad-b60b-4215-9e10-b9366e5f13fe{fill:#9da3a6;}.b1b41351-2a09-44e6-a3ec-5b2c5aee1188{clip-path:url(#a6b51798-abd4-4857-8390-e4492582c251);}.f3c4e91d-7ef3-4f30-8015-abc89255c267{clip-path:url(#a37ba40e-6f6a-41ef-a089-bf12faa7c787);}.a37d257b-3375-4fa2-bd6c-9556b70d5ac4{clip-path:url(#a2231d7b-1eec-46be-a6b8-1932536befa1);}.ed1a3324-c5f4-402b-add2-58900c3c7d1f{clip-path:url(#a03a88fb-3c84-4885-ad07-c81b34ac1168);}.fae46ba4-fc7b-4970-84da-1a52449d5aa7{clip-path:url(#a89bcc1d-0b6b-4a5e-8f54-33e863152305);}.fe04febd-eeee-4379-bade-220492fb57c6{clip-path:url(#a386234c-5f91-4f14-be93-cdd5de2e569e);}.ef5a5aa6-e494-4437-8abe-02bdbd6bd44e{clip-path:url(#b1ee3c89-066b-401c-8e10-662d533a6f16);}.b3da1f48-550c-42e2-9c9d-d8fbaa388029{clip-path:url(#fc4b8812-c2ab-4196-946c-fccf505c86cd);}.abfd7060-691e-44c1-8539-065313aff8c0{clip-path:url(#b4d00cc9-902d-4e68-b0aa-9cd197ee5a90);}.aab712e9-554d-456b-9380-16d6f54503ea{clip-path:url(#fa641497-a4e0-4e6e-a46b-a550ae166f57);}.f84b1d18-6adc-4646-8941-76d43b4af6a9{clip-path:url(#b6fda41d-994c-4502-a264-e45a1b59745f);}.e63bd577-b9e9-4cb5-ae55-9e27736adfc0{fill:#ff331b;}.ac10f1f3-b00a-491a-ac40-669eb6fc7a09{fill:#efeee0;stroke:#efeee0;stroke-width:4.05px;}.a8322093-3f56-4656-ab71-15115def4bd5,.ac10f1f3-b00a-491a-ac40-669eb6fc7a09{stroke-miterlimit:10;}.a8322093-3f56-4656-ab71-15115def4bd5{stroke:#828282;stroke-width:4px;}</style><clipPath id="ab57a306-2dd5-42b7-a94f-f2c7c01921c0" transform="translate(0 -3.05)"><path class="f2097ccd-ea7e-49c1-a1d4-d83e88b9e318" d="M362.74,254.31V243.83c.52,0,1,0,1.57,0,16.81.72,30.59,12.89,29.87,29.7a30.48,30.48,0,0,1-30.43,29.15l-1.32,0A30.47,30.47,0,0,1,333.31,271c.7-16.29,13.36-27.12,29.43-27.12v10.48c-10.74.07-18.5,6.79-19,17.09a20,20,0,0,0,19.1,20.82c.14-.14.58,0,.87,0a20,20,0,0,0,20-19.12c.48-10.34-8.19-18.21-19.86-18.78C363.63,254.48,363.1,254.31,362.74,254.31Z"/></clipPath><clipPath id="ac64aae8-7c23-4c84-bef2-a636f160bc8b" transform="translate(0 -3.05)"><path class="f2097ccd-ea7e-49c1-a1d4-d83e88b9e318" d="M249.93,139v7.06c0,.24-.22.47-.7.6v-7.07C249.71,139.47,249.93,139.23,249.93,139Z"/></clipPath><clipPath id="b95c76cf-00e9-40b5-b256-709d6cceff0e" transform="translate(0 -3.05)"><path class="f2097ccd-ea7e-49c1-a1d4-d83e88b9e318" d="M0,162.25v-7.07c0,.35.46.69,1.24.69v7.07C.46,162.93,0,162.59,0,162.25Z"/></clipPath><clipPath id="f3162baf-9883-4dbb-b980-d54f91d0db9f" transform="translate(0 -3.05)"><path class="f2097ccd-ea7e-49c1-a1d4-d83e88b9e318" d="M176.47,155.84v7.06a16.46,16.46,0,0,1-4.3.54v-7.06A16.89,16.89,0,0,0,176.47,155.84Z"/></clipPath><clipPath id="bc0b86f8-2251-44ad-8521-65d8d6023274" transform="translate(0 -3.05)"><path class="f2097ccd-ea7e-49c1-a1d4-d83e88b9e318" d="M151.67,129.62l18.05-3a11,11,0,0,0,10.92,11l-18.06,3A11,11,0,0,1,151.67,129.62Z"/></clipPath><clipPath id="a6b51798-abd4-4857-8390-e4492582c251" transform="translate(0 -3.05)"><path class="f2097ccd-ea7e-49c1-a1d4-d83e88b9e318" d="M182.76,70.42l18.05-3a36.92,36.92,0,0,0-13.87,5.36,37.51,37.51,0,0,0-17.26,31.69l-18.05,3a37.52,37.52,0,0,1,17.26-31.7A36.74,36.74,0,0,1,182.76,70.42Z"/></clipPath><clipPath id="a37ba40e-6f6a-41ef-a089-bf12faa7c787" transform="translate(0 -3.05)"><path class="f2097ccd-ea7e-49c1-a1d4-d83e88b9e318" d="M182.76,70.42l18.05-3a37.83,37.83,0,0,1,6.19-.51l-18.05,3A37.83,37.83,0,0,0,182.76,70.42Z"/></clipPath><clipPath id="a2231d7b-1eec-46be-a6b8-1932536befa1" transform="translate(0 -3.05)"><path class="f2097ccd-ea7e-49c1-a1d4-d83e88b9e318" d="M235.39,137.42l-18,3a10.93,10.93,0,0,1-1.8.15l18.05-3A10.93,10.93,0,0,0,235.39,137.42Z"/></clipPath><clipPath id="a03a88fb-3c84-4885-ad07-c81b34ac1168" transform="translate(0 -3.05)"><path class="f2097ccd-ea7e-49c1-a1d4-d83e88b9e318" d="M207,66.89a37,37,0,0,1,21.38,6.75l-18,3A37,37,0,0,0,189,69.91Z"/></clipPath><clipPath id="a89bcc1d-0b6b-4a5e-8f54-33e863152305" transform="translate(0 -3.05)"><path class="f2097ccd-ea7e-49c1-a1d4-d83e88b9e318" d="M233.21,77.66l-18.06,3a37,37,0,0,0-4.82-4l18-3A37.86,37.86,0,0,1,233.21,77.66Z"/></clipPath><clipPath id="a386234c-5f91-4f14-be93-cdd5de2e569e" transform="translate(0 -3.05)"><path class="f2097ccd-ea7e-49c1-a1d4-d83e88b9e318" d="M233.21,77.66l.22.23-18.05,3-.23-.23Z"/></clipPath><clipPath id="b1ee3c89-066b-401c-8e10-662d533a6f16" transform="translate(0 -3.05)"><path class="f2097ccd-ea7e-49c1-a1d4-d83e88b9e318" d="M182.22,67l18.05-3a40.92,40.92,0,0,1,6.73-.55,41,41,0,0,1,28.87,12l-18.06,3a39.72,39.72,0,0,0-5.54-4.64,40.24,40.24,0,0,0-23.33-7.37A40.9,40.9,0,0,0,182.22,67Z"/></clipPath><clipPath id="fc4b8812-c2ab-4196-946c-fccf505c86cd" transform="translate(0 -3.05)"><path class="f2097ccd-ea7e-49c1-a1d4-d83e88b9e318" d="M235.39,137.42l-18,3a10.92,10.92,0,0,0,9.08-10.81l18.05-3A10.91,10.91,0,0,1,235.39,137.42Z"/></clipPath><clipPath id="b4d00cc9-902d-4e68-b0aa-9cd197ee5a90" transform="translate(0 -3.05)"><path class="f2097ccd-ea7e-49c1-a1d4-d83e88b9e318" d="M236,140.83l-18,3a14.38,14.38,0,0,0,12-14.22l18-3A14.4,14.4,0,0,1,236,140.83Z"/></clipPath><clipPath id="fa641497-a4e0-4e6e-a46b-a550ae166f57" transform="translate(0 -3.05)"><path class="f2097ccd-ea7e-49c1-a1d4-d83e88b9e318" d="M233.43,77.89a37.59,37.59,0,0,1,11,26.56l-18.05,3a37.66,37.66,0,0,0-11-26.57Z"/></clipPath><clipPath id="b6fda41d-994c-4502-a264-e45a1b59745f" transform="translate(0 -3.05)"><path class="f2097ccd-ea7e-49c1-a1d4-d83e88b9e318" d="M217.81,78.46l18.06-3a41,41,0,0,1,12,29l-18.05,3A41,41,0,0,0,217.81,78.46Z"/></clipPath></defs><title>4-tube</title><g id="fe789a1d-9190-4a9f-8131-2643d0bd5ec5" data-name="eb1b2b9a-e44c-472f-89d9-af133db563a9"><path class="f0b60617-5190-4e4a-8428-c05f68345855" d="M362.74,254.31c.36,0,.89.17,1.11,0,11.67.57,20.34,8.44,19.86,18.78a20,20,0,0,1-20,19.12c-.29,0-.73-.16-.87,0a20,20,0,0,1-19.1-20.82C344.24,261.1,352,254.38,362.74,254.31Z" transform="translate(0 -3.05)"/><g class="bf804c6a-ed85-478b-803b-960839ad125d"><path class="fc528be6-4061-46ae-91c2-4856d7a70257" d="M362.74,254.31V243.83c.52,0,1,0,1.57,0,16.81.72,30.59,12.89,29.87,29.7a30.48,30.48,0,0,1-30.43,29.15l-1.32,0A30.47,30.47,0,0,1,333.31,271c.7-16.29,13.36-27.12,29.43-27.12v10.48c-10.74.07-18.5,6.79-19,17.09a20,20,0,0,0,19.1,20.82c.14-.14.58,0,.87,0a20,20,0,0,0,20-19.12c.48-10.34-8.19-18.21-19.86-18.78-.22.14-.75,0-1.11,0" transform="translate(0 -3.05)"/><path class="fc528be6-4061-46ae-91c2-4856d7a70257" d="M362.74,249.89c-.07.14-.39.19-.39.35s.27.19.39.28v3.79c-10.74.07-18.5,6.79-19,17.09a20,20,0,0,0,19.1,20.82c.14-.14.58,0,.87,0a20,20,0,0,0,20-19.12c.48-10.34-8.19-18.21-19.86-18.78-.22.14-.75,0-1.11,0v-3.79h.06c.12.17.33.5.52.44.34-.1.4-1.59.07-1.74a.36.36,0,0,0-.32.11,1.81,1.81,0,0,0-.33.57v-6.06c.52,0,1,0,1.57,0,16.81.72,30.59,12.89,29.87,29.7a30.48,30.48,0,0,1-30.43,29.15l-1.32,0A30.47,30.47,0,0,1,333.31,271c.7-16.29,13.36-27.12,29.43-27.12v6.06" transform="translate(0 -3.05)"/><path class="a261231f-af44-49ff-8601-3c4daa522d08" d="M362.74,248c-.93,1.29-3.75.36-3.71,2.46,0,.52.5,1.49,3.71,2.09v1.73c-10.74.07-18.5,6.79-19,17.09a20,20,0,0,0,19.1,20.82c.14-.14.58,0,.87,0a20,20,0,0,0,20-19.12c.48-10.34-8.19-18.21-19.86-18.78-.22.14-.75,0-1.11,0v-1.73l.06,0c.65.2.75.19,1-.63a1.09,1.09,0,0,0,.1.32c.51.6,1.76.55,2.53.69,1.68.32,10.33,2.24,15.37,9.5a20,20,0,0,1,3.2,7.82c.45,2.49-.14,5.1.86,7.53.21.49.35,1.51.89,1.54,2,.11,10-13.06-.95-24.51-8.79-9.22-21.05-7.57-21.7-6.86-.07.07,0,.28-.07.32-.48.22-.93-.74-1.29-.24v-4.2c.52,0,1,0,1.57,0,16.81.72,30.59,12.89,29.87,29.7a30.48,30.48,0,0,1-30.43,29.15l-1.32,0A30.47,30.47,0,0,1,333.31,271c.7-16.29,13.36-27.12,29.43-27.12V248" transform="translate(0 -3.05)"/><path class="a0eb9a0d-fc61-405c-8e29-e14ea132d9b5" d="M362.74,247.24c-.29.38-1.06.32-1.51.46-4.83,1.47-6.9,4.82-6.24,5.73l5.63.07c.63,0,1.48.07,2.12.13v.68c-10.74.07-18.5,6.79-19,17.09a20,20,0,0,0,19.1,20.82c.14-.14.58,0,.87,0a20,20,0,0,0,20-19.12c.48-10.34-8.19-18.21-19.86-18.78-.22.14-.75,0-1.11,0v-.68h.05a3.43,3.43,0,0,0,1-.14c.28,0,25.89,2.16,19.68,27.64-.11.46-.55,1.24-.21,1.56,1.51,1.42,8.9-3.56,8.68-14.51-.39-19.4-26.37-22.36-27.73-21.24-.14.12-.1.41-.14.59-.24-.23-.88-.84-1.29-.28v-3.41c.52,0,1,0,1.57,0,16.81.72,30.59,12.89,29.87,29.7a30.48,30.48,0,0,1-30.43,29.15l-1.32,0A30.47,30.47,0,0,1,333.31,271c.7-16.29,13.36-27.12,29.43-27.12v3.41" transform="translate(0 -3.05)"/><path class="be84d65f-a3de-44fd-a875-a6b7e0cccfd8" d="M362.74,246.66c-.26.32-.94.19-1.34.27-2.43.49-7,2.78-9,5.4-8.87,11.7-8.85,16.9-8.84,19.69,0,15.55,14.85,21,19.34,20.49,31.88-3.47,36.53-27.44,21.27-39.92a26.16,26.16,0,0,0-20.25-5.84c-.39,0-.82-.51-1.16-.09v-2.83c.52,0,1,0,1.57,0,16.81.72,30.59,12.89,29.87,29.7a30.48,30.48,0,0,1-30.43,29.15l-1.32,0A30.47,30.47,0,0,1,333.31,271c.7-16.29,13.36-27.12,29.43-27.12v2.83" transform="translate(0 -3.05)"/><path class="be2ceb4c-0432-4451-ac93-4d6e3963e46f" d="M362.74,246.25c-.35.42-1.26.24-1.8.35a20.12,20.12,0,0,0-11.17,7c-.7.9-6.87,9-6.85,18,0,17.69,17.8,22.33,19.92,21.77s4.33-.15,6.47-.57a41,41,0,0,0,8.58-2.73c3-1.34,10-4.47,12.92-11.78,5.12-12.94-1.94-23.93-10.67-28.66a26.92,26.92,0,0,0-16.23-3.28c-.39,0-.82-.48-1.17-.05v-2.42c.52,0,1,0,1.57,0,16.81.72,30.59,12.89,29.87,29.7a30.48,30.48,0,0,1-30.43,29.15l-1.32,0A30.47,30.47,0,0,1,333.31,271c.7-16.29,13.36-27.12,29.43-27.12v2.42" transform="translate(0 -3.05)"/><path class="bc52f276-7abf-428a-abf9-460314cf2f9b" d="M362.74,245.86c-.36.43-1.27.23-1.82.33a21.28,21.28,0,0,0-12.56,7.74,29.15,29.15,0,0,0-6.06,17.59c0,18.6,19.53,22.92,20.51,22.58,2.2-.79,4.5-.11,6.73-.5a43.76,43.76,0,0,0,8.95-2.7,23.14,23.14,0,0,0,13.34-14.27c3.61-11.13-2.45-23.37-14.11-28.47-6-2.62-12-2.66-13.78-2.28-.4.08-.84-.45-1.2,0v-2c.52,0,1,0,1.57,0,16.81.72,30.59,12.89,29.87,29.7a30.48,30.48,0,0,1-30.43,29.15l-1.32,0A30.47,30.47,0,0,1,333.31,271c.7-16.29,13.36-27.12,29.43-27.12v2" transform="translate(0 -3.05)"/><path class="b884b05b-1814-4480-91ba-3c589b33e1ce" d="M362.74,245.53c-.17.19-.59.07-.84.1A21.76,21.76,0,0,0,348,253.18a29.29,29.29,0,0,0-6.33,17.73c0,19.87,20,24.16,21.09,23.81,2.28-.72,4.64-.1,6.94-.45a30.35,30.35,0,0,0,9.35-2.76c9.71-4.67,12.1-11.8,12.89-14.14,3.79-11.31-1.92-23.54-13.58-29.1a30.12,30.12,0,0,0-15.64-2.74v-1.7c.52,0,1,0,1.57,0,16.81.72,30.59,12.89,29.87,29.7a30.48,30.48,0,0,1-30.43,29.15l-1.32,0A30.47,30.47,0,0,1,333.31,271c.7-16.29,13.36-27.12,29.43-27.12v1.7" transform="translate(0 -3.05)"/><path class="b90631d4-d45d-4815-bebd-9e0e6985046c" d="M362.74,245.28c-.4.45-1.39.18-2,.26A22.58,22.58,0,0,0,347,253.4c-2.66,3.23-5.84,9-5.83,18,0,18.43,19.71,24.35,21.6,23.82.2-.06.35-.4.55-.41,9.37-.53,21-1.19,27.29-13.42,3.79-7.39,4.6-19.4-5.58-28.91-8.85-8.27-22-7.57-22.28-7.25v-1.45c.52,0,1,0,1.57,0,16.81.72,30.59,12.89,29.87,29.7a30.48,30.48,0,0,1-30.43,29.15l-1.32,0A30.47,30.47,0,0,1,333.31,271c.7-16.29,13.36-27.12,29.43-27.12v1.45" transform="translate(0 -3.05)"/><path class="ade96485-6e14-452d-973d-ee36b64930cd" d="M362.74,245c-.4.45-1.4.17-2,.25-13.07,1.63-20.13,13.76-20.13,24.34,0,23,21.91,26.24,22.13,26.19s.36-.4.57-.42c2.82-.17,5.66.34,8.49-.13a31.67,31.67,0,0,0,7.75-2.58,24.26,24.26,0,0,0,5.1-40.64,30.66,30.66,0,0,0-21.91-7v-1.21c.52,0,1,0,1.57,0,16.81.72,30.59,12.89,29.87,29.7a30.48,30.48,0,0,1-30.43,29.15l-1.32,0A30.47,30.47,0,0,1,333.31,271c.7-16.29,13.36-27.12,29.43-27.12V245" transform="translate(0 -3.05)"/><path class="a04ad799-6c35-4d08-8f58-73e5c75dc2be" d="M362.74,244.82c-.41.46-1.42.16-2,.23-11.75,1.34-20.62,11.88-20.63,24.51,0,22.37,21.08,27,22.63,26.73.2,0,.38-.34.59-.35,2.89-.19,5.78.37,8.66-.14a29.26,29.26,0,0,0,8.23-2.86,24.7,24.7,0,0,0,4.52-41,31,31,0,0,0-22-7.16v-1c.52,0,1,0,1.57,0,16.81.72,30.59,12.89,29.87,29.7a30.48,30.48,0,0,1-30.43,29.15l-1.32,0A30.47,30.47,0,0,1,333.31,271c.7-16.29,13.36-27.12,29.43-27.12v1" transform="translate(0 -3.05)"/><path class="fd0a27a7-4be5-441c-a573-c250e7d31528" d="M362.74,244.63c-.11.11-.35,0-.5,0a24.24,24.24,0,0,0-16.05,7.4c-6.28,6.74-6.61,15.71-6.61,17.43,0,22.73,21.54,27.6,23.12,27.32.2,0,.39-.34.59-.35,12.14-.68,12.14-.68,15.63-2.37,7.53-3.63,10.71-8.78,11.72-10.82,5.49-11,3.46-22.61-5.43-30.94-9.13-8.56-22.19-8-22.47-7.7v-.8c.52,0,1,0,1.57,0,16.81.72,30.59,12.89,29.87,29.7a30.48,30.48,0,0,1-30.43,29.15l-1.32,0A30.47,30.47,0,0,1,333.31,271c.7-16.29,13.36-27.12,29.43-27.12v.8" transform="translate(0 -3.05)"/><path class="bc873743-fc3b-4b6d-a99c-d72d79c5a43a" d="M362.74,244.46c-.43.47-1.48.13-2.12.19-12.26,1.09-21.51,11.74-21.53,24.78,0,22.83,21.75,28.09,23.59,27.84.2,0,.4-.28.61-.31s.23.08.33.11a27.37,27.37,0,0,0,14.67-2.17,25.9,25.9,0,0,0,13.43-13.31c4.86-11.16,1.37-23.67-8.68-31.12a31.27,31.27,0,0,0-20.3-6v-.63c.52,0,1,0,1.57,0,16.81.72,30.59,12.89,29.87,29.7a30.48,30.48,0,0,1-30.43,29.15l-1.32,0A30.47,30.47,0,0,1,333.31,271c.7-16.29,13.36-27.12,29.43-27.12v.63" transform="translate(0 -3.05)"/><path class="e47fa399-5596-4e6b-882b-12afa5efe916" d="M362.74,244.31c-.44.48-1.5.13-2.14.18-12.71,1-22,11.49-22,24.88,0,23.4,22,28.55,24,28.34,2.31-.23,4.63.18,6.94,0a29,29,0,0,0,9.84-2.82,25.88,25.88,0,0,0,5.4-43,32,32,0,0,0-22.1-7.54v-.48c.52,0,1,0,1.57,0,16.81.72,30.59,12.89,29.87,29.7a30.48,30.48,0,0,1-30.43,29.15l-1.32,0A30.47,30.47,0,0,1,333.31,271c.7-16.29,13.36-27.12,29.43-27.12v.48" transform="translate(0 -3.05)"/><path class="f4555a37-1064-42c3-8d90-79e9ce74b780" d="M362.74,244.19c-.45.47-1.52.11-2.17.15-10.77.77-22.37,9.16-22.41,25.75,0,19.37,17.71,28,24.47,28s20.67,0,28-13.34a26.15,26.15,0,0,0-3.71-30.91c-10.13-10.84-24.11-9.71-24.18-9.63v-.36c.52,0,1,0,1.57,0,16.81.72,30.59,12.89,29.87,29.7a30.48,30.48,0,0,1-30.43,29.15l-1.32,0A30.47,30.47,0,0,1,333.31,271c.7-16.29,13.36-27.12,29.43-27.12v.36" transform="translate(0 -3.05)"/><path class="b0722031-ba16-4157-9797-ef411d8e180b" d="M362.74,244.08c-.46.48-1.54.09-2.2.14-13,.81-22.81,11.57-22.84,25,0,22.12,19.84,29.47,24.92,29.35,8.65-.2,21.73-.5,28.85-15,3.94-8.06,4.7-21.11-6.15-31.32-9.26-8.72-22.3-8.44-22.58-8.14a3.1,3.1,0,0,1,1.57-.21c16.81.72,30.59,12.89,29.87,29.7a30.48,30.48,0,0,1-30.43,29.15l-1.32,0A30.47,30.47,0,0,1,333.31,271c.7-16.29,13.36-27.12,29.43-27.12v.25" transform="translate(0 -3.05)"/><path class="ac42ce40-fb16-4d65-969b-7d247c015121" d="M362.74,244c-.46.48-1.55.09-2.21.12-13.24.75-23.25,11.53-23.29,25.08C337.19,291.68,357,299,362.6,299c31.93.31,34-26.21,29.48-37.32a27.29,27.29,0,0,1,2.1,11.87,30.48,30.48,0,0,1-30.43,29.15l-1.32,0A30.47,30.47,0,0,1,333.31,271c.7-16.29,13.36-27.12,29.43-27.12V244" transform="translate(0 -3.05)"/><path class="a0f22022-5abc-4d17-995c-f59692a0d73f" d="M362.74,243.9c-.46.49-1.56.08-2.23.11a24.77,24.77,0,0,0-23.7,25.12c-.06,22.33,18.87,30,25.78,30.3,28.16,1.13,33.13-21.3,31.13-32.33a28.62,28.62,0,0,1,.46,6.47,30.48,30.48,0,0,1-30.43,29.15l-1.32,0A30.47,30.47,0,0,1,333.31,271c.7-16.29,13.36-27.12,29.43-27.12v.07" transform="translate(0 -3.05)"/><path class="acc187b9-59b6-478c-9e4e-0e6147213f85" d="M362.74,243.85h0c-30,1.25-33.12,33.41-16.59,48.53,17.3,15.84,47.94,6.52,48.05-20.64,0,.6,0,1.21,0,1.83a30.48,30.48,0,0,1-30.43,29.15l-1.32,0A30.47,30.47,0,0,1,333.31,271c.7-16.29,13.36-27.12,29.43-27.12v0" transform="translate(0 -3.05)"/><path class="a270efe8-d29b-4908-bca0-d66e3a4a2496" d="M362.74,243.83c-.48.5-1.6.06-2.28.08-8.54.3-24.68,6.37-24.62,27.21.05,19,18.82,29.64,27.06,29.24,6.93-.34,28-1.37,31-24.07a30.49,30.49,0,0,1-30.19,26.43l-1.32,0A30.47,30.47,0,0,1,333.31,271c.7-16.29,13.36-27.12,29.43-27.12h0" transform="translate(0 -3.05)"/><path class="a8eb6a12-48ea-4bfa-b1e0-a331090e0219" d="M357.42,244.24c-25.91,4.34-28.62,36.49-9.9,50.67,15,11.37,38.91,7.15,45.43-14a30.49,30.49,0,0,1-29.2,21.79l-1.32,0A30.47,30.47,0,0,1,333.31,271c.64-14.84,11.2-25.14,25.22-26.86h0l-1.11.15" transform="translate(0 -3.05)"/><path class="ecfa98bc-a7a3-48ef-b4fb-80cd4cd74455" d="M352.45,245.44c-26,9.61-21.6,43.81,1,53.55,12.2,5.27,29.48,2.55,37.47-12.88a30.5,30.5,0,0,1-27.13,16.61l-1.32,0A30.47,30.47,0,0,1,333.31,271a27.32,27.32,0,0,1,19.5-25.63l-.36.12" transform="translate(0 -3.05)"/><path class="fc528be6-4061-46ae-91c2-4856d7a70257" d="M387.16,274.69c-3.48-11.56-4.05-12.16-6.8-15.06a26.13,26.13,0,0,0-9-6c-7.29-3.23-7.29-3.23-7.33-3.31a.86.86,0,0,1,.06-.7c2.06-3.7,21.41-2,26.05,12.91,2.59,8.32-1.16,13.63-2.56,13.2-.31-.1-.3-.69-.4-1" transform="translate(0 -3.05)"/><path class="b1f5329d-fd13-4232-8e33-db621663d97a" d="M387.36,270.47c-1.86-5.17-3.79-8.57-6.43-11.34A37.31,37.31,0,0,0,370,251.48c-.43-.18-1.24-.22-1.4-.66,0,0,.69-1.66.71-1.67s8.12-1.51,15.56,5.74c1.14,1.1,6.72,7,5.18,14.43-.12.56-.07,1.46-.49,1.86,0,0-1.75.39-1.77.38-.31-.16-.31-.76-.43-1.09" transform="translate(0 -3.05)"/><path class="bd3d3a6d-39e8-4497-9c2d-b975a6b092d8" d="M387.09,266.87a1.22,1.22,0,0,1-.22-.44,30.75,30.75,0,0,0-2.84-4.9,29.56,29.56,0,0,0-4-4.53c-.77-.71-1.82-1.62-2.64-2.26a25.64,25.64,0,0,1-2.91-2,5.63,5.63,0,0,1-1-2.33c3.51.28,7.15.56,12.36,6.34,4.56,5.06,3.42,10.85,3.22,11l-2-.81" transform="translate(0 -3.05)"/><path class="ac42ce40-fb16-4d65-969b-7d247c015121" d="M380.69,248.74c-8.32-4.68-14.82-5-17.95-4.76v-.15c.52,0,1,0,1.57,0a34.14,34.14,0,0,1,16.55,5l-.17-.11" transform="translate(0 -3.05)"/><path class="a0f22022-5abc-4d17-995c-f59692a0d73f" d="M370.78,244.74a35.09,35.09,0,0,0-8-.84v-.07c.52,0,1,0,1.57,0a35,35,0,0,1,10.6,2.09l-2.22-.73c-.57-.14-1.33-.36-1.91-.49" transform="translate(0 -3.05)"/><path class="a267ea02-1ba2-4311-b001-6c4977e8ea6e" d="M386.38,262.24a13.88,13.88,0,0,1-1.08-1.35c-.46-.57-1.23-1.18-1.71-1.73s-.74-1-1.07-1.41c-.8-1-1.71-1.9-2.42-3a21.6,21.6,0,0,0-1.62-2c2.76,1.12,8.49,3.46,9.25,10.5-.4-.33-1-.72-1.35-1.08" transform="translate(0 -3.05)"/><path class="acc187b9-59b6-478c-9e4e-0e6147213f85" d="M365.25,243.93c-.85-.06-2-.08-2.51-.08.52,0,1,0,1.57,0a35.76,35.76,0,0,1,5.16.59l-2.36-.36c-.56,0-1.3-.13-1.86-.17" transform="translate(0 -3.05)"/><path class="a270efe8-d29b-4908-bca0-d66e3a4a2496" d="M364,243.85l-1.24,0,1.27,0h0" transform="translate(0 -3.05)"/></g><path class="f45baea0-ff83-425c-830f-f9f0ad4b8bb6" d="M390.43,250.94c.06.66.08,1.32.08,2v13.14a26.75,26.75,0,0,1-26.75,26.74c-.59,0-1.18,0-1.77-.05-14.22-.92-25-13.36-25-27.61l.33-18.1a19.19,19.19,0,0,0-18.75-19.62l-111.08-1.61a26.75,26.75,0,0,1-26.14-27.35l1.2-102.13a26.73,26.73,0,0,1,27.34-26.13c.6,0,1.19,0,1.79.1C225.9,71.55,236.37,84.23,236,98.47l-.57,74.47,102.8,1.42a54.21,54.21,0,0,1,53,55.43h0Z" transform="translate(0 -3.05)"/><g class="b64d5991-e787-486e-9f9b-220461f50c87"><path class="b6e1c597-b138-45d8-a91c-630e1673f64c" d="M249.93,139v7.06a.13.13,0,0,1,0,.06v-7.07a.09.09,0,0,0,0-.05" transform="translate(0 -3.05)"/><path class="e170c8bd-aa46-4eea-bb6a-a211fd05a204" d="M249.92,139.05v7.07s0,0,0,.06v-7.06s0-.05,0-.07" transform="translate(0 -3.05)"/><path class="bdc9613a-acc7-43e0-92ce-677235bea2dd" d="M249.91,139.12v7.06a.3.3,0,0,1,0,.08v-7.07a.25.25,0,0,0,0-.07" transform="translate(0 -3.05)"/><path class="f94e77bd-4d94-4d56-9e53-3f8e4f986607" d="M249.87,139.19v7.07a1,1,0,0,1-.64.4v-7.07a.94.94,0,0,0,.64-.4" transform="translate(0 -3.05)"/></g><polygon class="ad6a7a85-7998-4c6b-bdec-1bafa476d4b2" points="249.23 136.54 249.23 143.61 176.47 159.85 176.47 152.79 249.23 136.54"/><g class="b6c5a282-a6db-49d5-af12-dea6a88408fb"><path class="f94e77bd-4d94-4d56-9e53-3f8e4f986607" d="M1.24,155.87v7.07c-.78,0-1.24-.35-1.24-.69v-7.07c0,.35.46.69,1.24.69" transform="translate(0 -3.05)"/></g><path class="a9bebe3a-1f4f-426f-925a-4a5e562a74b4" d="M77.76,137.8l170.92.52c1.32,0,1.73,1,.55,1.27l-72.76,16.25a16.89,16.89,0,0,1-4.3.54L1.24,155.87c-1.31,0-1.72-1-.55-1.28l72.76-16.25A17.37,17.37,0,0,1,77.76,137.8Z" transform="translate(0 -3.05)"/><g class="a9827327-85a3-4efc-8ed5-3be8258eeb72"><path class="f94e77bd-4d94-4d56-9e53-3f8e4f986607" d="M176.47,155.84v7.06a16.46,16.46,0,0,1-4.3.54v-7.06a16.89,16.89,0,0,0,4.3-.54" transform="translate(0 -3.05)"/></g><polygon class="ad6a7a85-7998-4c6b-bdec-1bafa476d4b2" points="172.16 153.33 172.16 160.39 1.24 159.89 1.24 152.82 172.16 153.33"/><path class="a3871a8a-2c0f-42d2-a9bf-ddaabbca3533" d="M236,36.5a36.54,36.54,0,0,0-13-27.88H176a36.51,36.51,0,0,0,9.83,61.71,23.48,23.48,0,0,1,26.06.55A36.54,36.54,0,0,0,236,36.5Z" transform="translate(0 -3.05)"/><polygon class="f0c3f154-bdcb-4058-b071-ed7159a6d440" points="151.63 104.42 169.68 101.4 169.72 123.56 151.67 126.57 151.63 104.42"/><g class="b54120c3-407a-466e-8e3f-97f02dc97e12"><path class="e00ba4ad-b60b-4215-9e10-b9366e5f13fe" d="M151.67,129.62l18.05-3a11,11,0,0,0,10.92,11l-18.06,3a11,11,0,0,1-10.91-11" transform="translate(0 -3.05)"/></g><g class="b1b41351-2a09-44e6-a3ec-5b2c5aee1188"><path class="e00ba4ad-b60b-4215-9e10-b9366e5f13fe" d="M182.76,70.42l18.05-3a36.92,36.92,0,0,0-13.87,5.36,37.51,37.51,0,0,0-17.26,31.69l-18.05,3a37.52,37.52,0,0,1,17.26-31.7,36.74,36.74,0,0,1,13.87-5.35" transform="translate(0 -3.05)"/></g><g class="f3c4e91d-7ef3-4f30-8015-abc89255c267"><path class="e00ba4ad-b60b-4215-9e10-b9366e5f13fe" d="M182.76,70.42l18.05-3a37.83,37.83,0,0,1,6.19-.51l-18.05,3a37.83,37.83,0,0,0-6.19.51" transform="translate(0 -3.05)"/></g><polygon class="f0c3f154-bdcb-4058-b071-ed7159a6d440" points="162.59 137.53 180.64 134.52 233.59 134.52 215.54 137.53 162.59 137.53"/><g class="a37d257b-3375-4fa2-bd6c-9556b70d5ac4"><path class="e00ba4ad-b60b-4215-9e10-b9366e5f13fe" d="M215.54,140.58l18.05-3a10.93,10.93,0,0,0,1.8-.15l-18,3a10.93,10.93,0,0,1-1.8.15" transform="translate(0 -3.05)"/></g><g class="ed1a3324-c5f4-402b-add2-58900c3c7d1f"><path class="e00ba4ad-b60b-4215-9e10-b9366e5f13fe" d="M189,69.91l18.05-3a37.56,37.56,0,0,1,37.43,37.56l-18.05,3A37.54,37.54,0,0,0,189,69.91" transform="translate(0 -3.05)"/></g><g class="fae46ba4-fc7b-4970-84da-1a52449d5aa7"><path class="e00ba4ad-b60b-4215-9e10-b9366e5f13fe" d="M189,69.91l18.05-3a37.56,37.56,0,0,1,37.43,37.56l-18.05,3A37.54,37.54,0,0,0,189,69.91" transform="translate(0 -3.05)"/></g><g class="fe04febd-eeee-4379-bade-220492fb57c6"><path class="e00ba4ad-b60b-4215-9e10-b9366e5f13fe" d="M189,69.91l18.05-3a37.56,37.56,0,0,1,37.43,37.56l-18.05,3A37.54,37.54,0,0,0,189,69.91" transform="translate(0 -3.05)"/></g><g class="ef5a5aa6-e494-4437-8abe-02bdbd6bd44e"><path class="e00ba4ad-b60b-4215-9e10-b9366e5f13fe" d="M182.22,67l18.05-3a40.92,40.92,0,0,1,6.73-.55,41,41,0,0,1,28.87,12l-18.06,3a39.72,39.72,0,0,0-5.54-4.64,40.24,40.24,0,0,0-23.33-7.37,40.9,40.9,0,0,0-6.72.56" transform="translate(0 -3.05)"/></g><g class="b3da1f48-550c-42e2-9c9d-d8fbaa388029"><path class="e00ba4ad-b60b-4215-9e10-b9366e5f13fe" d="M226.42,129.62l18.05-3a10.91,10.91,0,0,1-9.08,10.81l-18,3a10.92,10.92,0,0,0,9.08-10.81" transform="translate(0 -3.05)"/></g><g class="abfd7060-691e-44c1-8539-065313aff8c0"><path class="e00ba4ad-b60b-4215-9e10-b9366e5f13fe" d="M229.86,129.62l18-3a14.4,14.4,0,0,1-12,14.22l-18,3a14.38,14.38,0,0,0,12-14.22" transform="translate(0 -3.05)"/></g><polygon class="f0c3f154-bdcb-4058-b071-ed7159a6d440" points="226.38 104.42 244.43 101.4 244.47 123.56 226.42 126.57 226.38 104.42"/><path class="f45baea0-ff83-425c-830f-f9f0ad4b8bb6" d="M189,69.91a37.54,37.54,0,0,1,37.43,37.56l0,22.15a10.91,10.91,0,0,1-10.85,11h-53a11,11,0,0,1-10.91-11l0-22.15a37.52,37.52,0,0,1,17.26-31.7A37,37,0,0,1,189,69.91Z" transform="translate(0 -3.05)"/><g class="aab712e9-554d-456b-9380-16d6f54503ea"><path class="e00ba4ad-b60b-4215-9e10-b9366e5f13fe" d="M189,69.91l18.05-3a37.56,37.56,0,0,1,37.43,37.56l-18.05,3A37.54,37.54,0,0,0,189,69.91" transform="translate(0 -3.05)"/></g><polygon class="f0c3f154-bdcb-4058-b071-ed7159a6d440" points="229.82 104.42 247.87 101.4 247.91 123.56 229.86 126.57 229.82 104.42"/><g class="f84b1d18-6adc-4646-8941-76d43b4af6a9"><path class="e00ba4ad-b60b-4215-9e10-b9366e5f13fe" d="M217.81,78.46l18.06-3a41,41,0,0,1,12,29l-18.05,3a41,41,0,0,0-12-29" transform="translate(0 -3.05)"/></g><path class="f45baea0-ff83-425c-830f-f9f0ad4b8bb6" d="M217.81,78.46a41,41,0,0,1,12,29l0,22.15A14.38,14.38,0,0,1,215.54,144H162.59a14.43,14.43,0,0,1-14.36-14.42l0-22.15a40.82,40.82,0,0,1,40.6-41h.15a40.24,40.24,0,0,1,23.33,7.37A39.72,39.72,0,0,1,217.81,78.46Zm8.61,51.16,0-22.15a37.66,37.66,0,0,0-11-26.57,37.32,37.32,0,0,0-63.75,26.57l0,22.15a11,11,0,0,0,10.91,11h53a10.9,10.9,0,0,0,10.88-10.92v0" transform="translate(0 -3.05)"/><path class="e63bd577-b9e9-4cb5-ae55-9e27736adfc0" d="M226.88,42.74c-1.29,12.49-8,22.37-19.19,27.06a3.37,3.37,0,0,1-2.83-.08c-3.79-2-9.64-2.47-14-2.47-4,0-8.38,0-12.07,1.58a3.46,3.46,0,0,1-2.85-.07c-11.77-5.51-19.15-16.46-19.15-30.55A35.17,35.17,0,0,1,192,3.05a35.63,35.63,0,0,1,6.35.58C216.8,6.88,228.8,24.1,226.88,42.74Z" transform="translate(0 -3.05)"/><path class="ac10f1f3-b00a-491a-ac40-669eb6fc7a09" d="M207,36.57h0a1.68,1.68,0,0,1-1.68,1.68H175.89a1.68,1.68,0,0,1-1.68-1.68h0a1.68,1.68,0,0,1,1.68-1.68h29.42A1.68,1.68,0,0,1,207,36.57Z" transform="translate(0 -3.05)"/></g><path class="a8322093-3f56-4656-ab71-15115def4bd5" d="M225.46,129l0-21.59a36.42,36.42,0,1,0-72.83,0l0,21.59a10.67,10.67,0,0,0,10.63,10.68h51.6A10.62,10.62,0,0,0,225.46,129v0" transform="translate(0 -3.05)"/></svg>