<svg xmlns="http://www.w3.org/2000/svg" viewBox="0 0 509.48 144.85"><defs><style>.cls-1{fill:#6ecbff;}</style></defs><g id="Capa_3" data-name="Capa 3"><path class="cls-1" d="M516,142.33a2,2,0,0,0-2.82-.19L503,151V109.39a2,2,0,1,0-4,0v42l-10.06-10.06a2,2,0,0,0-2.83,2.83l12.73,12.72a2,2,0,0,0,1.73.56,2,2,0,0,0,1.44-.31,2.28,2.28,0,0,0,.46-.36l13.33-11.59A2,2,0,0,0,516,142.33Z" transform="translate(-6.98 -12.6)"/><path class="cls-1" d="M290,77.39H263l-.28,0a2.4,2.4,0,0,0-.28,0,2,2,0,0,0-2,2v72l-10.06-10.06a2,2,0,1,0-2.83,2.83l12.73,12.72a2,2,0,0,0,1.73.56,2,2,0,0,0,1.44-.31,2,2,0,0,0,.45-.36l13.34-11.59a2,2,0,0,0,.2-2.83,2,2,0,0,0-2.82-.19L264.42,151V81.39H290a2,2,0,0,0,0-4Z" transform="translate(-6.98 -12.6)"/><path class="cls-1" d="M206,57.39H41a2,2,0,0,0-2,2v92L28.92,141.31a2,2,0,0,0-2.83,2.83l12.73,12.72a2,2,0,0,0,1.73.56,2,2,0,0,0,1.44-.31,2,2,0,0,0,.45-.36l13.34-11.59a2,2,0,0,0,.2-2.83,2,2,0,0,0-2.82-.19L43,151V61.39H206a2,2,0,0,0,0-4Z" transform="translate(-6.98 -12.6)"/><path class="cls-1" d="M208.75,27.47a1.93,1.93,0,0,0-.35-.6L196.59,13.29a2,2,0,0,0-3,2.62l9.11,10.48H9a2,2,0,0,0-2,2v125a2,2,0,0,0,4,0v-123H202.49l-9.75,9.76A2,2,0,0,0,195.57,43l12.72-12.73a1.94,1.94,0,0,0,.57-1.18,2.21,2.21,0,0,0,.12-.68A2.05,2.05,0,0,0,208.75,27.47Z" transform="translate(-6.98 -12.6)"/></g></svg>