<svg xmlns="http://www.w3.org/2000/svg" viewBox="0 0 262.62 255.44"><defs><style>.cls-1{fill:#fff;}.cls-2{fill:#00b5e7;}.cls-3{fill:#ffa019;}.cls-4{fill:#fffff8;}</style></defs><g id="Capa_2" data-name="Capa 2"><circle class="cls-1" cx="133.9" cy="146.17" r="109.27"/><path class="cls-2" d="M255.48,267a46.69,46.69,0,1,1,0,.11Zm47.24-41c-.69.41-1.52.62-1.94,1.41a1.52,1.52,0,0,1-1.89,1.05,1.59,1.59,0,0,1-.4-.18c-.23-.09-.53-.15-.44-.46s.41-.17.65-.09.27.1.38-.05c-.12-.31-.16-.68-.67-.59-.32.06-.62.09-.66.5s-.25.41-.58.4a14.7,14.7,0,0,1-1.63.09,1.23,1.23,0,0,0-1.4,1,.59.59,0,0,0,0,.13c-.12,1.1-.64,1.16-1.61.84.77.94,1.54.53,2.3.39.91-.16,1.15-.61.72-1.4-.11-.21-.2-.36,0-.55s.39-.06.56.11.44.06.63-.09.54-.4.85-.22a4,4,0,0,0,2,.38,3.64,3.64,0,0,1,2,.42c1,.65,1.84,1.65,3,2,.42.13.93.32.86.87s-.7.34-1.08.46c.54.81.44.74.12,1.13-.82,1-1.45.47-2.14-.1-.45-.38-.89-.78-1.56-.42-.2.11-.52.16-.6-.17s.18-.43.36-.58.46-.09.7-.12a.64.64,0,0,0,.65-.64.67.67,0,0,0-.18-.46,3.8,3.8,0,0,0-.87-.72c-.89-.56-1.51-.27-1.64.76,0,.25,0,.52-.26.61-.87.3-.42.68-.11,1.1.42.58,1.05,1.11.61,2.16-.24-.61-.49-.9-.93-.33-.11.15-.35.15-.6-.09s-.94-.94-1.33-.87a6.21,6.21,0,0,0-3,1.56c-.45.41-.45,1,0,1.22.91.39,1.57,1.31,2.41,1.49a2.55,2.55,0,0,1,2.27,2.28c0,.19.1.44.36.43a.52.52,0,0,0,.51-.45,1.38,1.38,0,0,0,0-.7,1,1,0,0,1,.45-1.34l.14-.06c.81-.35.68-1,.26-1.52-.66-.89.2-1.67.12-2.52a.89.89,0,0,1,.45-.15,3,3,0,0,1,3,1.56c.44.91,1.07,1,1.62.17.33-.49.51-.53.89-.07a10,10,0,0,0,4.24,3.3c.71.26.66.84-.05,1.25a2.25,2.25,0,0,0-.72.72,1.09,1.09,0,0,1-1.41.51,4.22,4.22,0,0,0-3.2.43,1.31,1.31,0,0,0-.92,1.38c.44-.26.81-.51,1.2-.71s1-.56,1.46-.28c.69.45-.41.51-.29.73a2.9,2.9,0,0,0,1.11,1.31c.43.23.88.48,1.33.05.22-.21.43-.59.71-.14s-.12.56-.39.72c-.72.41-1.67.47-2.06,1.39a.41.41,0,0,1-.57.17l-.07,0c-.26-.19-.11-.42,0-.64s.43-.46.28-.87a9.79,9.79,0,0,0-2,.92c-.62.22-1.34.52-1.1,1.47.06.27-.14.45-.42.49-2,.27-1.54,2.53-2.74,3.46-.06.05,0,.35.08.47.39.6.05,1-.39,1.3-.92.68-1.86,1.32-2.75,2a2,2,0,0,0-.73,2.74h0a7.32,7.32,0,0,1,.56,2.29c0,1.16-.22,1.44-1.54,1.65a1.35,1.35,0,0,0-.07-1.47,3.33,3.33,0,0,1-.58-1.94c0-.6-.31-1.11-1-.88a.52.52,0,0,1-.73-.31c-.14-.31-.56-.8-1-.69s-1.24.12-1.23,1c0,.25-.28.57-.44.32-.51-.79-1.35-.38-1.93-.68-1.24-.64-2.2-.08-3.18.48a1.13,1.13,0,0,0-.56,1.5h0c.21.46,0,.65-.25,1a3.93,3.93,0,0,0-.67,4.41,3.08,3.08,0,0,0,3.94,1.34,1.45,1.45,0,0,0,.56-.59c.75-1.36,1.16-1.54,2.71-1.41.78.07.8.42.49,1a23.74,23.74,0,0,0-1.36,3.31c-.22.55,0,.59.42.6.73,0,1.46,0,2.17.05,1.15.14,1.57.81,1.2,1.86a8.74,8.74,0,0,0-.27,2.15,2,2,0,0,0,2.29,1.67l.09,0a2.07,2.07,0,0,1,2.4.32c.35.33.69.34.94-.08a3.46,3.46,0,0,1,2.81-2c.17,0,.34-.23.49-.36s.49-.52.89-.33.21.59.2,1c.64-.76,1.38-.9,2-.24.78.87,1.94.21,2.74.85.09.07.44,0,.47-.09.41-1,1.24-.51,1.9-.48s1.47-.49,1.27.79c0,.08.26.2.38.32a26.85,26.85,0,0,1,2.45,2.05.82.82,0,0,0,.92.35c1-.47,1.7.24,2.54.39,1.51.25,2.18,1.53,3.29,2.24.91.58,1.26,2,2.67,1.95a.28.28,0,0,1,.17.1c.6.93,1.54.75,2.42.76a2.67,2.67,0,0,1,2.13.56,1.54,1.54,0,0,0,1.44.61c.5-.08.65.22.73.65a4.08,4.08,0,0,1-1,3.06c-1,1.59-2.46,3-2.75,5a4.44,4.44,0,0,1-.24,1.15,18.73,18.73,0,0,1-2.08,2.85,2.51,2.51,0,0,1-1.46.94,21.45,21.45,0,0,0-3.05,1.48,1.61,1.61,0,0,0-.93,1.06c-.31,1.55-1.6,2.38-2.61,3.3a9.14,9.14,0,0,1-3.43,1.94c-.33.1-.75.16-.87.5a2.28,2.28,0,0,1-2.26,1.36c-1.25.12-2,1.59-3.36,1.2a.38.38,0,0,0-.21.19c-.25.59-.74,1-1,1.53-.19.34-.68.76-.34,1.2s.77.19,1.17.18a34.16,34.16,0,0,0,13.61-3.6,44,44,0,0,0,25.06-33.78,30.09,30.09,0,0,0,.47-5.45c0-.23.06-.55-.23-.63s-.41.21-.5.42c-.34.76-1.1,1.24-1.31,2.09-.1.4-.46.45-.85.38a3,3,0,0,1-2.31-2.21,1.41,1.41,0,0,0-1.12-1.31c-.45-.09-.79-.4-.64-.9a6.19,6.19,0,0,0-.33-4,20,20,0,0,1-1.52-7,6.79,6.79,0,0,1,0-2.62.87.87,0,0,0-.09-.89c-1.09-1.42-.51-3.21-1-4.77-.11-.3-.09-.22-.3-.29-.69-.24-1.66.1-2-.8a9.88,9.88,0,0,0-1.91-3c-.34-.37-.4-.73.15-1,.36-.15.64-.41.42-.79a3,3,0,0,0-1.77-1.51c-.45-.12-1.25.19-1.13-.59.08-.57-.8-.83-.21-1.44-.45.55-.77,1.28-1.44.31-.06-.09-.32,0-.49-.05-.43,0-1,.56-1.25-.35-.13-.4-.93-.59-.93-1.19,0-.8-.51-1.09-1.1-1.37-.32-.14-.7-.25-.61-.7a1.33,1.33,0,0,1,.57-.95,1.3,1.3,0,0,1,.91,0c.2,0,.46.07.46-.23s-.24-.28-.45-.24a2.42,2.42,0,0,1-1.95-.51,33.94,33.94,0,0,1-4-3.29c-.31-.31-.55-.82-.93,0-.21.44-.48.07-.62-.12-.66-.87-1.81-1.06-2.47-2-.34-.5-1.21-.77-1.73-1.36-.34-.39-1.3-.37-1.27.06.11,1.57-1.1.81-1.65,1-.35.1-.94-.36-1.32-.68s.06-.55.21-.81a.33.33,0,0,0,0-.47.41.41,0,0,0-.47,0,5.39,5.39,0,0,1-.88.55c-.45.16-1.09.33-1.24-.27-.29-1.12-.95-.86-1.67-.63s-1.22.74-1.95.49a6.22,6.22,0,0,0-3.37,0,8.31,8.31,0,0,1-2.77.14,6.5,6.5,0,0,0-3,.28,11.49,11.49,0,0,1-5.55.91,1.91,1.91,0,0,0-.91.16c-.46.19-1.2.12-1.07,1s.07,1.75,1.19,1.9a3.17,3.17,0,0,1,2,1.18,1.47,1.47,0,0,0,2,.5.05.05,0,0,0,.05,0,4.84,4.84,0,0,1-.87-.27c-.17-.09-.3-.47-.1-.48.77-.05.36-.66.59-1-.38-.07-.74.62-1,.06s.26-.66.61-.8c.52-.21,1-.59,1.63-.12.41.31.64-.11.85-.46.32-.55.75-.82,1.3-.24a3.48,3.48,0,0,0,.3.26c.56-.93,1.89,1.17,2.26-.56l.49.07a1.29,1.29,0,0,0,.84-.3,6,6,0,0,1,3.62-.91c.4,0,.55.25.37.64ZM278,230.62c-.48-.14-.69.19-1,.38a45,45,0,0,0-9.71,9.22,43.58,43.58,0,0,0-9.15,25.69,43.12,43.12,0,0,0,.84,10.27,44.14,44.14,0,0,0,19.31,28,42.08,42.08,0,0,0,16.57,6.38,29.93,29.93,0,0,0,5.66.57c.6,0,.87-.09.42-.74a1.94,1.94,0,0,1,0-2,5,5,0,0,0,.53-1.45c.16-.95.12-2,1.08-2.64a1.54,1.54,0,0,0,.48-1.32,3.52,3.52,0,0,1,.44-1.79,4,4,0,0,0,.45-2.09,2.68,2.68,0,0,1,.21-1.18c.45-1.17.34-2.36-.93-2.86-.87-.34-1.69-.8-2.53-1.2a1.63,1.63,0,0,1-.95-.89,10,10,0,0,0-1.21-2.28c-.83-1.25-1.37-2.68-2.69-3.61a1.18,1.18,0,0,1-.27-1.63,1.72,1.72,0,0,1,.27-.27.86.86,0,0,0,.21-1.1,2.62,2.62,0,0,1,.86-3.11c1-1,2-1.92,1.65-3.56a10.61,10.61,0,0,0-.76-1.77c-.11-.29-.24-.68-.61-.59s-.73.18-.68.73a.43.43,0,0,1-.68.44c-1.31-.78-2.58-1.62-3.85-2.45-.26-.16-.2-.5-.32-.73a3.53,3.53,0,0,0-2-2.19c-1.52-.5-3.09-1-4-2.57-.25-.44-.69-.37-1.11-.17a1,1,0,0,1-1.16,0,39,39,0,0,1-5-3.5,1.08,1.08,0,0,1-.45-1,6,6,0,0,0-1.23-4.66,1.08,1.08,0,0,1-.21-.68,2.73,2.73,0,0,0-.73-1.81c.19,1.2.45,2.37.73,3.53.08.32.14.64-.21.82s-.53-.05-.71-.28c-1-1.22-.7-2.93-1.66-4.17A.7.7,0,0,1,274,256a1.68,1.68,0,0,0,0-1.21,6.19,6.19,0,0,1-.08-2.87,1.56,1.56,0,0,0-.54-1.67,1.42,1.42,0,0,1-.51-1.37,9.9,9.9,0,0,1,2.4-6.24c1.5-1.68,2.55-3.51,2.23-5.88,0-.3,0-.73.28-.84,1.31-.48,1.36-1.8,1.91-2.78a.7.7,0,0,0-.1-1,.89.89,0,0,0-.89,0,9.58,9.58,0,0,0-1.58,1,1.55,1.55,0,0,1-1.83,0c-.33-.36.55-.69.83-1.09.17-.23.52-.31.78-.49s.91-.42,1.06-1Z" transform="translate(-152.27 -92.06)"/><path class="cls-2" d="M302.72,226.06a8.32,8.32,0,0,1,4.87-.93,3.81,3.81,0,0,1,1.16.62c1.15.64,2.52.88,3.43,2,.28.34,1.07.15,1.37.7-.16.4-.54,0-.72.25.23.27.57.19.85.26s.75.25.4.57-.45,1-.77,1.35c-.83.81-.41,1.57-.15,2.36.11.33.31.62.42.94s0,.53-.33.48c-1.25-.19-2.58-.14-3.45-1.37-.48-.67-1.1-1.23-1.62-1.87-.21-.24-.43-.44-.23-.9s-.32-1-.65-1c-.93-.11-1.4-.9-2.16-1.22a4,4,0,0,0-1.87-.53c-.27,0-.56.26-.77-.31s-.46-.75.14-1.05c.07,0,.06-.25.08-.38Z" transform="translate(-152.27 -92.06)"/><path class="cls-2" d="M299.73,265.91c-.83.42-1.05-.51-1.54-.88-.82-.63-1.55-1.2-2.71-.68-.71.33-1.4-.38-2.16-.45-.25,0,0-.47.24-.61a3.74,3.74,0,0,1,2.16-.55A4.85,4.85,0,0,1,299,264c.47.45,1.11.53,1.62.87.27.19.77.22.7.63s-.57.39-.94.42Z" transform="translate(-152.27 -92.06)"/><path class="cls-2" d="M312.22,244.2c-.34,0-.66.08-.9-.3-.08-.14-.4-.12-.54-.25-.37-.31-1.13.48-1.11-.17a4.27,4.27,0,0,1,.76-2.83c.24-.26.6-.26.52.18-.1.6.24.79.66.79,1.3,0,1.27,1.27,1.91,1.9.21.21-.06.52-.38.57S312.51,244.16,312.22,244.2Z" transform="translate(-152.27 -92.06)"/><path class="cls-2" d="M306,266.79c0,.27-.22.37-.51.35a8.62,8.62,0,0,0-1.74.33,13.1,13.1,0,0,1-2.25-.16c-.08,0-.22-.2-.22-.31s.23-.2.39-.21c.56,0,1.25,0,.43-.77a.26.26,0,0,1-.1-.36.28.28,0,0,1,.32-.13c1.11.24,2.36-.09,3.33.77C305.82,266.43,306,266.53,306,266.79Z" transform="translate(-152.27 -92.06)"/><path class="cls-2" d="M299.1,261.71c-.29.36.18,1-.58,1-.58,0-.61-.41-.6-.85a1.08,1.08,0,0,0-.15-.49c-.15-.27-.41-.59.06-.73s.9-.15,1,.26.14.51.51.26.64.12.88.39c.37.44.88.8.77,1.48-.05.32-.32.2-.48.13A2.06,2.06,0,0,1,299.1,261.71Z" transform="translate(-152.27 -92.06)"/><polygon class="cls-3" points="205.38 187.09 180.09 144.78 180.19 104.97 143.04 75.24 92.66 103.76 65.09 83.93 66.13 82.5 92.78 101.67 143.21 73.12 143.68 73.49 182.15 104.27 182.22 144.34 206.91 186.22 205.38 187.09"/><path class="cls-3" d="M242.67,271.24V201.79L221.52,247l-1.59-.74,24.79-53,53.64,54.67Zm1.5-72.66h.26v70l50.84-21.34-50-51Z" transform="translate(-152.27 -92.06)"/><circle class="cls-3" cx="144.36" cy="155.82" r="2.06"/><circle class="cls-3" cx="181.23" cy="144.73" r="1.74"/><circle class="cls-2" cx="63.16" cy="83.45" r="6.18"/><circle class="cls-2" cx="90.03" cy="178.09" r="6.18"/><circle class="cls-2" cx="68.15" cy="154.55" r="6.18"/><circle class="cls-2" cx="143.29" cy="75.37" r="4.76"/><circle class="cls-2" cx="180.86" cy="105.33" r="4.76"/><circle class="cls-2" cx="206.06" cy="186.53" r="4.76"/><circle class="cls-2" cx="91.57" cy="102.71" r="8.32"/></g><g id="Capa_3" data-name="Capa 3"><g id="Group_328" data-name="Group 328"><g id="Group_327" data-name="Group 327"><g id="Group_326" data-name="Group 326"><path id="Path_492" data-name="Path 492" class="cls-4" d="M158.59,172.79a11.15,11.15,0,0,1,4.34-.88,16.47,16.47,0,0,1,5.12.82,15.42,15.42,0,0,1,4.6,2.22,9.85,9.85,0,0,1,2.86,3.1,8.46,8.46,0,0,1,1.12,3.82,11.14,11.14,0,0,1-.74,4.35,11.62,11.62,0,0,1-2.25,3.86,9.6,9.6,0,0,1-3.37,2.44,11.18,11.18,0,0,1-4.31.88,16.71,16.71,0,0,1-5.11-.82,15.79,15.79,0,0,1-4.57-2.19,10.14,10.14,0,0,1-2.93-3.15,8.38,8.38,0,0,1-1.08-3.82,11.19,11.19,0,0,1,.72-4.32,11.47,11.47,0,0,1,2.27-3.89A9.75,9.75,0,0,1,158.59,172.79Zm8.38,2.89a11.08,11.08,0,0,0-7.28-.18,6.92,6.92,0,0,0-4.18,4.37,6.33,6.33,0,0,0,.47,5.84c1.1,1.72,3.08,3,5.94,3.91s5.32,1,7.31.17a7.06,7.06,0,0,0,4.14-4.37,6.35,6.35,0,0,0-.46-5.79q-1.6-2.59-5.94-3.95Z" transform="translate(-152.27 -92.06)"/><path id="Path_493" data-name="Path 493" class="cls-4" d="M188,161.85l-1.49,2.46-8.72-4.53a16.51,16.51,0,0,0-2.06-.91,4.32,4.32,0,0,0-1.7-.32,2.63,2.63,0,0,0-1.43.5,5,5,0,0,0-1.25,1.45,5.73,5.73,0,0,0-.75,2.38,11.41,11.41,0,0,0,.05,2.8l11.44,5.93-1.49,2.46-15.33-7.95,1.5-2.46,1.7.89a10.74,10.74,0,0,1-.12-3.2,7,7,0,0,1,1-2.82A5.64,5.64,0,0,1,173,155.7a7.58,7.58,0,0,1,5.06,1Z" transform="translate(-152.27 -92.06)"/><path id="Path_494" data-name="Path 494" class="cls-4" d="M195.78,152.09a13.13,13.13,0,0,1-.82,1.58,10.31,10.31,0,0,1-1,1.41,5.62,5.62,0,0,1-3.67,2.3,6.79,6.79,0,0,1-4.6-1.52l-7.54-5.2L177,152.17l-2-1.38,1.22-1.52-4.07-2.81,1.81-2.25L178,147l3.73-4.64,2,1.39L180,148.41l6.46,4.46c.74.52,1.34.9,1.79,1.16a3.5,3.5,0,0,0,1.44.47,2.23,2.23,0,0,0,1.32-.2,4.64,4.64,0,0,0,1.37-1.24,5.59,5.59,0,0,0,.75-1.27,9.63,9.63,0,0,0,.4-1.06l.11-.12Z" transform="translate(-152.27 -92.06)"/><path id="Path_495" data-name="Path 495" class="cls-4" d="M206.59,141.81l-2.07,2-1.37-1.22c-.06.3-.13.7-.21,1.21a7.06,7.06,0,0,1-.35,1.37,8.86,8.86,0,0,1-.75,1.55,9,9,0,0,1-1.41,1.68,5.91,5.91,0,0,1-4,1.71,5.65,5.65,0,0,1-4.1-1.49,5.2,5.2,0,0,1-1.76-2.69,5,5,0,0,1,.3-2.92,12.1,12.1,0,0,1,2-3.24q1.4-1.68,3.11-3.51l-.33-.3a3.51,3.51,0,0,0-1.47-.85,2.82,2.82,0,0,0-1.47,0,4.51,4.51,0,0,0-1.42.71,11.77,11.77,0,0,0-1.38,1.16,12.53,12.53,0,0,0-1.61,2,18.62,18.62,0,0,0-1.42,2.59l-.11.1-2.2-1.95c.29-.49.75-1.17,1.37-2a18.62,18.62,0,0,1,2.06-2.37,15.56,15.56,0,0,1,2.5-2,6.9,6.9,0,0,1,2.44-.93,4.94,4.94,0,0,1,2.44.2,7.2,7.2,0,0,1,2.45,1.5Zm-5.24-.83-3.58-3.18-2.07,2.31a15.87,15.87,0,0,0-1.71,2.27,4.19,4.19,0,0,0-.62,2.13,2.57,2.57,0,0,0,1,1.9,3,3,0,0,0,2.31.85,4.42,4.42,0,0,0,2.51-1.38,6.1,6.1,0,0,0,1.56-2.33,11.34,11.34,0,0,0,.62-2.57Z" transform="translate(-152.27 -92.06)"/><path id="Path_496" data-name="Path 496" class="cls-4" d="M208.91,122.71l-.12.09a9.52,9.52,0,0,0-1.15.58,12.59,12.59,0,0,0-1.2.81,5.69,5.69,0,0,0-1.69,2,11.25,11.25,0,0,0-.92,2.59l8,9.2-2.32,1.73-11.26-13,2.32-1.73,1.66,1.92a12.8,12.8,0,0,1,1.15-3.3,6.35,6.35,0,0,1,1.78-2c.41-.3.7-.51.9-.63s.5-.28.91-.5Z" transform="translate(-152.27 -92.06)"/><path id="Path_497" data-name="Path 497" class="cls-4" d="M209.89,115.16l-2.77,1.73-1.76-2.41,2.76-1.74Zm11.65,16.26L219.08,133,209,119.11l2.46-1.54Z" transform="translate(-152.27 -92.06)"/><path id="Path_498" data-name="Path 498" class="cls-4" d="M233.69,115.5a9.06,9.06,0,0,1,1.34,6.68,6.89,6.89,0,0,1-4,4.65,7.87,7.87,0,0,1-6.42.47,10.13,10.13,0,0,1-5.21-4.78,9.07,9.07,0,0,1-1.35-6.68,6.93,6.93,0,0,1,4-4.68,7.9,7.9,0,0,1,6.4-.45A10.19,10.19,0,0,1,233.69,115.5ZM231,116.82a8.17,8.17,0,0,0-3.64-3.71,4.76,4.76,0,0,0-4.07.2,4.21,4.21,0,0,0-2.48,3,7.44,7.44,0,0,0,1.29,4.86,8.1,8.1,0,0,0,3.6,3.65,4.68,4.68,0,0,0,4.11-.17,4.12,4.12,0,0,0,2.43-3,7.34,7.34,0,0,0-1.24-4.83Z" transform="translate(-152.27 -92.06)"/><path id="Path_499" data-name="Path 499" class="cls-4" d="M264.1,108.47a6.47,6.47,0,0,1,.15,3,5.79,5.79,0,0,1-1.14,2.46,7.75,7.75,0,0,1-2.41,2,15.29,15.29,0,0,1-3.73,1.3l-8,1.85L243.06,97.2l6.64-1.54a27.76,27.76,0,0,1,3.73-.67,7.76,7.76,0,0,1,2.54.19,4.49,4.49,0,0,1,2.23,1.21,5,5,0,0,1,1.2,2.25,4.35,4.35,0,0,1-.09,2.85,5.62,5.62,0,0,1-1.69,2.26l0,.12a6.62,6.62,0,0,1,4.12,1.12A6,6,0,0,1,264.1,108.47Zm-7.7-8.72a3.09,3.09,0,0,0-.64-1.28,2.23,2.23,0,0,0-1.11-.69,4.45,4.45,0,0,0-1.85-.09c-.7.09-1.54.25-2.53.48l-3.56.83,1.72,6.33,3.86-.89a13.82,13.82,0,0,0,2.19-.66,4.23,4.23,0,0,0,1.38-.94,2.42,2.42,0,0,0,.7-1.37,4.33,4.33,0,0,0-.16-1.72ZM261,109.3a5,5,0,0,0-1-2,3.52,3.52,0,0,0-1.84-1,5.17,5.17,0,0,0-1.88-.07c-.85.11-1.7.27-2.54.46l-4.69,1.09,2.22,8.17,4-.92a21.52,21.52,0,0,0,3.15-.94,5.06,5.06,0,0,0,1.85-1.2,3.67,3.67,0,0,0,.88-1.6,4.23,4.23,0,0,0-.12-2Z" transform="translate(-152.27 -92.06)"/><path id="Path_500" data-name="Path 500" class="cls-4" d="M277,100.39h-.15a11,11,0,0,0-1.28-.09,13.94,13.94,0,0,0-1.45.08,6.12,6.12,0,0,0-2.52.84,12.14,12.14,0,0,0-2.22,1.75l1.44,12-2.89.29-2-16.91,2.89-.29.3,2.5a14.12,14.12,0,0,1,2.81-2.24,6.77,6.77,0,0,1,2.62-.84,9.16,9.16,0,0,1,1.1-.07c.23,0,.57,0,1,0Z" transform="translate(-152.27 -92.06)"/><path id="Path_501" data-name="Path 501" class="cls-4" d="M292.2,114.37l-2.9,0,0-1.81c-.26.16-.61.4-1.05.7a7.65,7.65,0,0,1-1.28.72,9,9,0,0,1-1.68.56,8.71,8.71,0,0,1-2.22.2,5.65,5.65,0,0,1-3.95-1.58,5.15,5.15,0,0,1-1.58-3.91,5.29,5.29,0,0,1,.87-3.12,5.56,5.56,0,0,1,2.43-1.85,13.3,13.3,0,0,1,3.8-.87c1.47-.14,3.06-.24,4.75-.29v-.45a3.4,3.4,0,0,0-.34-1.62,2.49,2.49,0,0,0-1-1,4.31,4.31,0,0,0-1.48-.49,13.66,13.66,0,0,0-1.81-.15,12.13,12.13,0,0,0-2.55.26,20.67,20.67,0,0,0-2.92.81h-.16l0-2.91c.57-.14,1.39-.3,2.47-.46a17.74,17.74,0,0,1,3.17-.23,14.75,14.75,0,0,1,3.18.34,6.43,6.43,0,0,1,2.34,1,4.63,4.63,0,0,1,1.47,1.84,6.7,6.7,0,0,1,.48,2.76Zm-2.86-4.23.05-4.74c-.89,0-1.93.1-3.14.18a16.28,16.28,0,0,0-2.86.4,4.56,4.56,0,0,0-2,1.06,3.1,3.1,0,0,0,.08,4.24,4.28,4.28,0,0,0,2.73.78,6.59,6.59,0,0,0,2.81-.55,12.31,12.31,0,0,0,2.36-1.37Z" transform="translate(-152.27 -92.06)"/><path id="Path_502" data-name="Path 502" class="cls-4" d="M298.69,115.07l-2.89-.3,2.06-16.9,2.89.3Zm2.6-19.72L298,95l.36-3,3.27.34Z" transform="translate(-152.27 -92.06)"/><path id="Path_503" data-name="Path 503" class="cls-4" d="M316.56,118.25l-2.84-.59,2.28-9.44a14.49,14.49,0,0,0,.38-2.17,3.73,3.73,0,0,0-.11-1.66,2.29,2.29,0,0,0-.87-1.16,4.71,4.71,0,0,0-1.78-.68,6.36,6.36,0,0,0-2.57,0,13.68,13.68,0,0,0-2.79.94l-3,12.37-2.84-.59,4-16.57,2.84.59-.45,1.84a12.73,12.73,0,0,1,3.17-1.12,7.56,7.56,0,0,1,3.07,0,5.2,5.2,0,0,1,3.79,2.48,6.83,6.83,0,0,1,.31,4.95Z" transform="translate(-152.27 -92.06)"/><path id="Path_504" data-name="Path 504" class="cls-4" d="M336.31,125.54,328,122l1-2.08,2.77,1.18,8.06-16.25-2.77-1.18,1-2.08,8.35,3.55-1,2.09L342.64,106l-8.06,16.24,2.77,1.19Z" transform="translate(-152.27 -92.06)"/><path id="Path_505" data-name="Path 505" class="cls-4" d="M351.47,133.86l-2.5-1.45,5.47-8.08a15.9,15.9,0,0,0,1.12-1.91,3.86,3.86,0,0,0,.47-1.59,2.11,2.11,0,0,0-.42-1.35,4.53,4.53,0,0,0-1.45-1.2,6.2,6.2,0,0,0-2.48-.77,14.14,14.14,0,0,0-3,0l-7.17,10.6-2.5-1.46,9.6-14.19,2.51,1.46-1.07,1.58a12.56,12.56,0,0,1,3.41,0,7.75,7.75,0,0,1,2.92,1,5,5,0,0,1,2.74,3.52,6.68,6.68,0,0,1-1.43,4.73Z" transform="translate(-152.27 -92.06)"/><path id="Path_506" data-name="Path 506" class="cls-4" d="M367.32,139.76a5.09,5.09,0,0,1-4.14,1.64,8.93,8.93,0,0,1-5.2-2.18,12,12,0,0,1-2.44-2.5,14.3,14.3,0,0,1-1.43-2.38L356.3,132l.12.1a10.77,10.77,0,0,0,1.29,3.09,9,9,0,0,0,2.12,2.44,6.39,6.39,0,0,0,2.76,1.39,2.29,2.29,0,0,0,2.16-.76,1.82,1.82,0,0,0,.58-1.49,5,5,0,0,0-1.17-2.05c-.26-.32-.61-.73-1-1.23s-.82-1-1.15-1.41a5.5,5.5,0,0,1-1.34-3.29,4.08,4.08,0,0,1,1.19-2.68,4.74,4.74,0,0,1,1.7-1.2,5.21,5.21,0,0,1,2.17-.41,6.69,6.69,0,0,1,2.5.51,9.89,9.89,0,0,1,2.63,1.53,12.67,12.67,0,0,1,2.19,2.2,10.34,10.34,0,0,1,1.44,2.3l-2.08,2.27-.12-.1a9.76,9.76,0,0,0-1.19-2.68,8.68,8.68,0,0,0-2.07-2.33,5.71,5.71,0,0,0-2.51-1.21,2.14,2.14,0,0,0-2.08.66,1.8,1.8,0,0,0-.56,1.59,4.68,4.68,0,0,0,1.05,1.93c.34.43.73.89,1.16,1.38s.79.93,1.07,1.28a5.51,5.51,0,0,1,1.37,3.09A3.85,3.85,0,0,1,367.32,139.76Z" transform="translate(-152.27 -92.06)"/><path id="Path_507" data-name="Path 507" class="cls-4" d="M372,151.07a17.58,17.58,0,0,1-1.53-1,12.82,12.82,0,0,1-1.33-1.11,5,5,0,0,1-1.78-3.74c.07-1.25.88-2.57,2.45-3.94l6.91-6-1.39-1.36,1.84-1.6,1.38,1.37,3.73-3.25,2.06,2-3.73,3.24,4.25,4.18-1.84,1.6-4.24-4.18-5.92,5.15c-.68.59-1.2,1.07-1.55,1.43a3.2,3.2,0,0,0-.77,1.24,1.88,1.88,0,0,0,0,1.24,4.15,4.15,0,0,0,1.07,1.45,5.85,5.85,0,0,0,1.21.9,11.54,11.54,0,0,0,1.05.55l.11.11Z" transform="translate(-152.27 -92.06)"/><path id="Path_508" data-name="Path 508" class="cls-4" d="M375,154.76l-1.89-2.18,13.85-10.25,1.89,2.19Zm16.28-11.82-2.12-2.46,2.41-1.79,2.13,2.46Z" transform="translate(-152.27 -92.06)"/><path id="Path_509" data-name="Path 509" class="cls-4" d="M382.93,164.91a15.74,15.74,0,0,1-1.34-1.24,12.79,12.79,0,0,1-1.13-1.31,4.93,4.93,0,0,1-1.14-4c.26-1.24,1.28-2.42,3.06-3.52l7.77-4.86L389,148.45l2.07-1.29,1.15,1.57,4.2-2.63,1.7,2.33-4.2,2.62,3.51,4.8-2.07,1.29-3.51-4.8-6.66,4.17q-1.15.72-1.77,1.17a3.27,3.27,0,0,0-.95,1.11,1.81,1.81,0,0,0-.22,1.23,4.13,4.13,0,0,0,.82,1.6,5.91,5.91,0,0,0,1,1.08,11.07,11.07,0,0,0,.95.7l.09.12Z" transform="translate(-152.27 -92.06)"/><path id="Path_510" data-name="Path 510" class="cls-4" d="M390.54,178.65l-1.37-2.54,1.74-.8a14.6,14.6,0,0,1-2.94-1.7,7.08,7.08,0,0,1-2-2.32,5.09,5.09,0,0,1-.49-4.38,6.73,6.73,0,0,1,3.72-3.37l10.17-4.7,1.37,2.52-8.93,4.13a18.74,18.74,0,0,0-2,1,3.93,3.93,0,0,0-1.2,1.13,2.27,2.27,0,0,0-.39,1.36,4.5,4.5,0,0,0,.63,1.81,6.27,6.27,0,0,0,1.69,1.9,12.38,12.38,0,0,0,2.54,1.54l11.69-5.41,1.37,2.53Z" transform="translate(-152.27 -92.06)"/><path id="Path_511" data-name="Path 511" class="cls-4" d="M395.18,190.42a15.24,15.24,0,0,1-1-1.54,12.8,12.8,0,0,1-.72-1.55,5,5,0,0,1,0-4.16c.59-1.14,1.88-2,3.87-2.66l8.76-2.79-.68-1.82,2.33-.74.67,1.82,4.74-1.51,1,2.69-4.73,1.51,2.06,5.55-2.33.74-2.06-5.55-7.5,2.39c-.87.28-1.53.51-2,.7a3.4,3.4,0,0,0-1.21.83,1.9,1.9,0,0,0-.54,1.15,4,4,0,0,0,.35,1.76,5.36,5.36,0,0,0,.71,1.31c.22.32.46.63.71.93l.06.14Z" transform="translate(-152.27 -92.06)"/><path id="Path_512" data-name="Path 512" class="cls-4" d="M406.92,204.39l-2.73-12.25a7.28,7.28,0,0,0-2.63,1,5,5,0,0,0-1.62,1.63,4.88,4.88,0,0,0-.68,2.05,7.29,7.29,0,0,0,.15,2.42,9.66,9.66,0,0,0,1.45,3.28,8.89,8.89,0,0,0,1.91,2.19l0,.15-3.11.6a22,22,0,0,1-1.66-2.7,11.94,11.94,0,0,1-1.1-3,8.82,8.82,0,0,1,.84-6.9,8.6,8.6,0,0,1,6-3.57,9.83,9.83,0,0,1,7.11,1,8,8,0,0,1,3.76,5.39,6.72,6.72,0,0,1-.85,5.58,8.09,8.09,0,0,1-5.3,2.91Zm1.58-3.14a5,5,0,0,0,3.23-1.78,4.19,4.19,0,0,0,.49-3.56,5,5,0,0,0-2.15-3.32,5.53,5.53,0,0,0-3.69-.87Z" transform="translate(-152.27 -92.06)"/></g></g></g></g></svg>