<svg id="be206521-c65d-40d6-b9a4-507ab9c4f4ab" data-name="step5" xmlns="http://www.w3.org/2000/svg" viewBox="0 0 218.53 218.53"><defs><style>.b44971fe-c343-4cbd-b0d4-23675042730b{fill:#fff;}.b996d207-b370-4eae-8aa2-0e01dd5f6030{fill:#00b5e7;}.b2422621-327d-40a3-b20b-d2d41358eb60{fill:#ffa019;}</style></defs><title>5-center</title><circle class="b44971fe-c343-4cbd-b0d4-23675042730b" cx="109.27" cy="109.27" r="109.27"/><path class="b996d207-b370-4eae-8aa2-0e01dd5f6030" d="M297.26,480.13a46.61,46.61,0,1,1,46.63,46.74A46.63,46.63,0,0,1,297.26,480.13Zm47.24-41c-.69.41-1.52.62-1.94,1.41a1.53,1.53,0,0,1-2.29.87c-.23-.09-.53-.15-.44-.46s.41-.17.65-.09.27.1.38-.05c-.12-.31-.16-.68-.67-.59-.32.06-.62.09-.66.5s-.25.41-.58.4a15.26,15.26,0,0,1-1.63.09,1.23,1.23,0,0,0-1.42,1.16c-.12,1.1-.64,1.16-1.61.84.77.94,1.54.53,2.3.39.91-.16,1.15-.61.72-1.4-.11-.21-.2-.36,0-.55s.39-.06.56.11.44.06.63-.09.54-.4.85-.22a4.16,4.16,0,0,0,2,.38,3.59,3.59,0,0,1,2,.42c1,.65,1.84,1.65,3,2,.42.13.93.32.86.87s-.7.34-1.08.46c.54.81.44.74.12,1.13-.82,1-1.45.47-2.14-.1-.45-.38-.89-.78-1.56-.42-.2.11-.52.16-.6-.17s.18-.43.36-.58.46-.09.7-.12a.65.65,0,0,0,.47-1.1,3.75,3.75,0,0,0-.87-.72c-.89-.56-1.51-.27-1.64.76,0,.25,0,.52-.26.61-.87.3-.42.68-.11,1.1.42.58,1.05,1.11.61,2.16-.24-.61-.49-.9-.93-.33-.11.15-.35.15-.6-.09s-.94-.94-1.33-.87a6.14,6.14,0,0,0-3,1.56c-.45.41-.45,1,0,1.22.91.39,1.57,1.31,2.41,1.49a2.54,2.54,0,0,1,2.27,2.28c0,.19.1.44.36.43a.53.53,0,0,0,.51-.45,1.39,1.39,0,0,0,0-.7,1,1,0,0,1,.59-1.4c.81-.35.68-1,.26-1.52-.66-.89.2-1.67.12-2.52a.86.86,0,0,1,.45-.15,2.94,2.94,0,0,1,3,1.56c.44.91,1.07,1,1.62.17.33-.49.51-.53.89-.07a10.08,10.08,0,0,0,4.24,3.3c.71.26.66.84-.05,1.25a2.15,2.15,0,0,0-.72.72,1.1,1.1,0,0,1-1.41.51,4.16,4.16,0,0,0-3.2.43c-.5.25-1,.58-.92,1.38.44-.26.81-.51,1.2-.71s1-.56,1.46-.28c.69.45-.41.51-.29.73a2.94,2.94,0,0,0,1.11,1.31c.43.23.88.48,1.33.05.22-.21.43-.59.71-.14s-.12.56-.39.72c-.72.41-1.67.47-2.06,1.39a.42.42,0,0,1-.64.12c-.26-.19-.11-.42,0-.64s.43-.46.28-.87a9.51,9.51,0,0,0-2,.92c-.62.22-1.34.52-1.1,1.47.06.27-.14.45-.42.49-2,.27-1.54,2.53-2.74,3.46-.06.05,0,.35.08.47.39.6.05,1-.39,1.3-.92.68-1.86,1.32-2.75,2a2,2,0,0,0-.73,2.74,7.54,7.54,0,0,1,.56,2.29c0,1.16-.22,1.44-1.54,1.65a1.35,1.35,0,0,0-.07-1.47,3.36,3.36,0,0,1-.58-1.94c0-.6-.31-1.11-1.05-.88-.39.12-.59,0-.73-.31s-.56-.8-1-.69-1.24.12-1.23,1c0,.25-.28.57-.44.32-.51-.79-1.35-.38-1.93-.68-1.24-.64-2.2-.08-3.18.48a1.13,1.13,0,0,0-.56,1.5c.21.46,0,.65-.25,1a3.92,3.92,0,0,0-.67,4.41,3.09,3.09,0,0,0,3.94,1.34,1.52,1.52,0,0,0,.56-.59c.75-1.36,1.16-1.54,2.71-1.41.78.07.8.42.49,1a23.25,23.25,0,0,0-1.36,3.31c-.22.55,0,.59.42.6.73,0,1.46,0,2.17.05,1.15.14,1.57.81,1.2,1.86a8.74,8.74,0,0,0-.27,2.15A2,2,0,0,0,338,487.5a2.06,2.06,0,0,1,2.4.32c.35.33.69.34.94-.08a3.45,3.45,0,0,1,2.81-2c.17,0,.34-.23.49-.36s.49-.52.89-.33.21.59.2,1c.64-.76,1.38-.9,2-.24.78.87,1.94.21,2.74.85.09.07.44,0,.47-.09.41-1,1.24-.51,1.9-.48s1.47-.49,1.27.79c0,.08.26.2.38.32a26.59,26.59,0,0,1,2.45,2.05.84.84,0,0,0,.92.35c1-.47,1.7.24,2.54.39,1.51.25,2.18,1.53,3.29,2.24.91.58,1.26,2,2.67,1.95.05,0,.13.05.17.1.6.93,1.54.75,2.42.76a2.66,2.66,0,0,1,2.13.56,1.54,1.54,0,0,0,1.44.61c.5-.08.65.22.73.65a4.11,4.11,0,0,1-.95,3.06c-1,1.59-2.46,3-2.75,5a4.36,4.36,0,0,1-.24,1.15,19.78,19.78,0,0,1-2.08,2.85,2.58,2.58,0,0,1-1.46.94,19.94,19.94,0,0,0-3.05,1.48,1.59,1.59,0,0,0-.93,1.06c-.31,1.55-1.6,2.38-2.61,3.3a9.36,9.36,0,0,1-3.43,1.94c-.33.1-.75.16-.87.5a2.3,2.3,0,0,1-2.26,1.36c-1.25.12-2,1.59-3.36,1.2-.05,0-.18.11-.21.19-.25.59-.74,1-1,1.53-.19.34-.68.76-.34,1.2s.77.19,1.17.18a34.36,34.36,0,0,0,13.61-3.6,44,44,0,0,0,25.06-33.78,31.1,31.1,0,0,0,.47-5.45c0-.23.06-.55-.23-.63s-.41.21-.5.42c-.34.76-1.1,1.24-1.31,2.09-.1.4-.46.45-.85.38a3,3,0,0,1-2.31-2.21,1.41,1.41,0,0,0-1.12-1.31c-.45-.09-.79-.4-.64-.9a6.23,6.23,0,0,0-.33-4,20,20,0,0,1-1.52-7c0-.87-.34-1.74,0-2.62a.87.87,0,0,0-.09-.89c-1.09-1.42-.51-3.21-1-4.77-.11-.3-.09-.22-.3-.29-.69-.24-1.66.1-2-.8a9.83,9.83,0,0,0-1.91-3c-.34-.37-.4-.73.15-1,.36-.15.64-.41.42-.79a3,3,0,0,0-1.77-1.51c-.45-.12-1.25.19-1.13-.59.08-.57-.8-.83-.21-1.44-.45.55-.77,1.28-1.44.31-.06-.09-.32,0-.49-.05-.43,0-.95.56-1.25-.35-.13-.4-.93-.59-.93-1.19,0-.8-.51-1.09-1.1-1.37-.32-.14-.7-.25-.61-.7a1.32,1.32,0,0,1,.57-.95,1.24,1.24,0,0,1,.91,0c.2,0,.46.07.46-.23s-.24-.28-.45-.24a2.46,2.46,0,0,1-1.95-.51,34.65,34.65,0,0,1-4-3.29c-.31-.31-.55-.82-.93,0-.21.44-.48.07-.62-.12-.66-.87-1.81-1.06-2.47-2-.34-.5-1.21-.77-1.73-1.36-.34-.39-1.3-.37-1.27.06.11,1.57-1.1.81-1.65,1-.35.1-.94-.36-1.32-.68s.06-.55.21-.81a.34.34,0,0,0,0-.47.38.38,0,0,0-.47,0,6.4,6.4,0,0,1-.88.55c-.45.16-1.09.33-1.24-.27-.29-1.12-.95-.86-1.67-.63s-1.22.74-1.95.49a6.13,6.13,0,0,0-3.37,0,8.56,8.56,0,0,1-2.77.14,6.36,6.36,0,0,0-3,.28,11.69,11.69,0,0,1-5.55.91,1.82,1.82,0,0,0-.91.16c-.46.19-1.2.12-1.07,1s.07,1.75,1.19,1.9a3.13,3.13,0,0,1,2,1.18,1.48,1.48,0,0,0,2.08.47,6.28,6.28,0,0,1-.87-.27c-.17-.09-.3-.47-.1-.48.77-.05.36-.66.59-1-.38-.07-.74.62-1,.06s.26-.66.61-.8c.52-.21,1-.59,1.63-.12.41.31.64-.11.85-.46.32-.55.75-.82,1.3-.24a3.73,3.73,0,0,0,.3.26c.56-.93,1.89,1.17,2.26-.56,0,0,.32.05.49.07a1.35,1.35,0,0,0,.84-.3,5.9,5.9,0,0,1,3.62-.91c.4,0,.55.25.37.64Zm-24.75,4.58c-.48-.14-.69.19-.95.38a44.49,44.49,0,0,0-9.71,9.22A43.53,43.53,0,0,0,299.94,479a42.56,42.56,0,0,0,.84,10.27,44.16,44.16,0,0,0,19.31,28,42.17,42.17,0,0,0,16.57,6.38,30.69,30.69,0,0,0,5.66.57c.6,0,.87-.09.42-.74a1.93,1.93,0,0,1,0-2,5.14,5.14,0,0,0,.53-1.45c.16-.95.12-2,1.08-2.64a1.56,1.56,0,0,0,.48-1.32,3.47,3.47,0,0,1,.44-1.79,4,4,0,0,0,.45-2.09,2.71,2.71,0,0,1,.21-1.18c.45-1.17.34-2.36-.93-2.86-.87-.34-1.69-.8-2.53-1.2a1.64,1.64,0,0,1-.95-.89,9.75,9.75,0,0,0-1.21-2.28c-.83-1.25-1.37-2.68-2.69-3.61a1.17,1.17,0,0,1,0-1.9.87.87,0,0,0,.21-1.1,2.61,2.61,0,0,1,.86-3.11c1-1,2-1.92,1.65-3.56a10.48,10.48,0,0,0-.76-1.77c-.11-.29-.24-.68-.61-.59s-.73.18-.68.73a.43.43,0,0,1-.68.44c-1.31-.78-2.58-1.62-3.85-2.45-.26-.16-.2-.5-.32-.73a3.52,3.52,0,0,0-2-2.19c-1.52-.5-3.09-1-4-2.57-.25-.44-.69-.37-1.11-.17a1,1,0,0,1-1.16,0,39.84,39.84,0,0,1-5-3.5,1.09,1.09,0,0,1-.45-1,6,6,0,0,0-1.23-4.66,1.08,1.08,0,0,1-.21-.68,2.78,2.78,0,0,0-.73-1.81c.19,1.2.45,2.37.73,3.53.08.32.14.64-.21.82s-.53-.05-.71-.28c-1-1.22-.7-2.93-1.66-4.17,0-.07,0-.27.09-.39a1.74,1.74,0,0,0,0-1.21,6.05,6.05,0,0,1-.08-2.87,1.56,1.56,0,0,0-.54-1.67,1.43,1.43,0,0,1-.51-1.37,9.86,9.86,0,0,1,2.4-6.24c1.5-1.68,2.55-3.51,2.23-5.88,0-.3,0-.73.28-.84,1.31-.48,1.36-1.8,1.91-2.78a.71.71,0,0,0-.1-.95.86.86,0,0,0-.89,0,9.13,9.13,0,0,0-1.58,1,1.56,1.56,0,0,1-1.83,0c-.33-.36.55-.69.83-1.09.17-.23.52-.31.78-.49S319.6,444.25,319.75,443.72Z" transform="translate(-218.67 -342.05)"/><path class="b996d207-b370-4eae-8aa2-0e01dd5f6030" d="M344.5,439.15a8.21,8.21,0,0,1,4.87-.93,3.68,3.68,0,0,1,1.16.62c1.15.64,2.52.88,3.43,2,.28.34,1.07.15,1.37.7-.16.4-.54,0-.72.25.23.27.57.19.85.26s.75.25.4.57-.45,1-.77,1.35c-.83.81-.41,1.57-.15,2.36.11.33.31.62.42.94s0,.53-.33.48c-1.25-.19-2.58-.14-3.45-1.37-.48-.67-1.1-1.23-1.62-1.87-.21-.24-.43-.44-.23-.9s-.32-.95-.65-1c-.93-.11-1.4-.9-2.16-1.22a3.93,3.93,0,0,0-1.87-.53c-.27,0-.56.26-.77-.31s-.46-.75.14-1.05c.07,0,.06-.25.08-.38Z" transform="translate(-218.67 -342.05)"/><path class="b996d207-b370-4eae-8aa2-0e01dd5f6030" d="M341.51,479c-.83.42-1.05-.51-1.54-.88-.82-.63-1.55-1.2-2.71-.68-.71.33-1.4-.38-2.16-.45-.25,0,0-.47.24-.61a3.64,3.64,0,0,1,2.16-.55,4.84,4.84,0,0,1,3.23,1.25c.47.45,1.11.53,1.62.87.27.19.77.22.7.63s-.57.39-.94.42Z" transform="translate(-218.67 -342.05)"/><path class="b996d207-b370-4eae-8aa2-0e01dd5f6030" d="M354,457.29c-.34,0-.66.08-.9-.3-.08-.14-.4-.12-.54-.25-.37-.31-1.13.48-1.11-.17a4.18,4.18,0,0,1,.76-2.83c.24-.26.6-.26.52.18-.1.6.24.79.66.79,1.3,0,1.27,1.27,1.91,1.9.21.21-.06.52-.38.57S354.29,457.25,354,457.29Z" transform="translate(-218.67 -342.05)"/><path class="b996d207-b370-4eae-8aa2-0e01dd5f6030" d="M347.8,479.88c0,.27-.22.37-.51.35a8,8,0,0,0-1.74.33,14.79,14.79,0,0,1-2.25-.16c-.08,0-.22-.2-.22-.31s.23-.2.39-.21c.56,0,1.25.05.43-.77a.27.27,0,0,1,.22-.49c1.11.24,2.36-.09,3.33.77C347.6,479.52,347.79,479.62,347.8,479.88Z" transform="translate(-218.67 -342.05)"/><path class="b996d207-b370-4eae-8aa2-0e01dd5f6030" d="M340.88,474.8c-.29.36.18,1-.58,1-.58,0-.61-.41-.6-.85a1.12,1.12,0,0,0-.15-.49c-.15-.27-.41-.59.06-.73.32-.09.9-.15,1,.26s.14.51.51.26.64.12.88.39c.37.44.88.8.77,1.48-.05.32-.32.2-.48.13A2.07,2.07,0,0,1,340.88,474.8Z" transform="translate(-218.67 -342.05)"/><polygon class="b2422621-327d-40a3-b20b-d2d41358eb60" points="180.75 150.19 155.47 107.88 155.57 68.07 118.42 38.34 68.03 66.86 40.47 47.03 41.5 45.6 68.15 64.77 118.58 36.22 119.05 36.59 157.52 67.37 157.6 107.44 182.28 149.32 180.75 150.19"/><path class="b2422621-327d-40a3-b20b-d2d41358eb60" d="M284.45,484.33V414.88L263.3,460.07l-1.59-.74,24.79-53L340.14,461Zm1.5-72.66h.26v70l50.84-21.34-50-50.95Z" transform="translate(-218.67 -342.05)"/><circle class="b2422621-327d-40a3-b20b-d2d41358eb60" cx="119.73" cy="118.92" r="2.06"/><circle class="b2422621-327d-40a3-b20b-d2d41358eb60" cx="156.6" cy="107.83" r="1.74"/><circle class="b996d207-b370-4eae-8aa2-0e01dd5f6030" cx="38.53" cy="46.55" r="6.18"/><circle class="b996d207-b370-4eae-8aa2-0e01dd5f6030" cx="65.4" cy="141.19" r="6.18"/><circle class="b996d207-b370-4eae-8aa2-0e01dd5f6030" cx="43.52" cy="117.65" r="6.18"/><circle class="b996d207-b370-4eae-8aa2-0e01dd5f6030" cx="118.66" cy="38.47" r="4.76"/><circle class="b996d207-b370-4eae-8aa2-0e01dd5f6030" cx="156.23" cy="68.43" r="4.76"/><circle class="b996d207-b370-4eae-8aa2-0e01dd5f6030" cx="181.43" cy="149.63" r="4.76"/><circle class="b996d207-b370-4eae-8aa2-0e01dd5f6030" cx="66.94" cy="65.81" r="8.32"/></svg>