<svg id="eef24209-b602-4b22-b99a-90958efc8150" data-name="Layer 2" xmlns="http://www.w3.org/2000/svg" viewBox="0 0 102.97 200.02"><defs><style>.ad65d534-2f8e-41d2-a339-3ea4b684509a{fill:#6ecbff;}.ad5282bf-ab56-48f7-8c86-235b4881d783{isolation:isolate;}.b1cbd169-48ec-4594-aded-0ea32b2a94ac{fill:#325166;}</style></defs><title>5-comp4</title><g id="ed398194-5170-485d-8dfb-0aacb48825ac" data-name="Grupo 387"><g id="b68c769b-c55c-4a5a-bacc-22df5d82c4a8" data-name="Trazado 537-2"><path class="ad65d534-2f8e-41d2-a339-3ea4b684509a" d="M1751.73,683.29H1807a2,2,0,0,1,0,4h-55.27a2,2,0,0,1,0-4Z" transform="translate(-1749.73 -683.29)"/></g><g id="bb739d38-a628-4233-ad6c-e016ff802f30" data-name="Trazado 534-2"><path class="ad65d534-2f8e-41d2-a339-3ea4b684509a" d="M1822.24,813.88l-13.59,11.81a2,2,0,1,1-2.62-3l13.58-11.81a2,2,0,0,1,2.63,3Z" transform="translate(-1749.73 -683.29)"/></g><g id="f0970c91-5f66-4f97-aa3d-2c448533f469" data-name="Trazado 535-2"><path class="ad65d534-2f8e-41d2-a339-3ea4b684509a" d="M1795.38,810l12.72,12.73a2,2,0,1,1-2.82,2.83l-12.73-12.73a2,2,0,0,1,2.83-2.83Z" transform="translate(-1749.73 -683.29)"/></g><g id="b21c0c48-45be-4548-b963-0c79d07c28ca" data-name="Trazado 536-2"><path class="ad65d534-2f8e-41d2-a339-3ea4b684509a" d="M1805.44,823.06,1805,686.34c0-1.68.9-3.05,2-3.05s2,1.37,2,3.05l.47,136.72c0,1.69-.9,3.05-2,3.05S1805.44,824.75,1805.44,823.06Z" transform="translate(-1749.73 -683.29)"/></g></g><g id="b4b71453-2c0e-46f1-8335-ed0b524d1b08" data-name="And more" class="ad5282bf-ab56-48f7-8c86-235b4881d783"><g class="ad5282bf-ab56-48f7-8c86-235b4881d783"><path class="b1cbd169-48ec-4594-aded-0ea32b2a94ac" d="M1769.37,883h-3.49l-.91-2.65h-4.84l-.91,2.65h-3.41l4.84-13.09h3.88Zm-5.21-5-1.61-4.69-1.61,4.69Z" transform="translate(-1749.73 -683.29)"/><path class="b1cbd169-48ec-4594-aded-0ea32b2a94ac" d="M1781,883h-3.18v-4.9c0-.39,0-.79-.06-1.19a2.5,2.5,0,0,0-.21-.87,1.08,1.08,0,0,0-.51-.48,2.44,2.44,0,0,0-1-.14,2.64,2.64,0,0,0-.87.14,4.46,4.46,0,0,0-1,.44v7h-3.18v-9.87h3.18v1.09a7.74,7.74,0,0,1,1.62-1,4,4,0,0,1,1.72-.35,3.33,3.33,0,0,1,2.5.93,3.87,3.87,0,0,1,.9,2.79Z" transform="translate(-1749.73 -683.29)"/><path class="b1cbd169-48ec-4594-aded-0ea32b2a94ac" d="M1793.49,883h-3.17v-1a6.55,6.55,0,0,1-1.53,1,4,4,0,0,1-1.64.31,3.45,3.45,0,0,1-2.88-1.39,5.92,5.92,0,0,1-1.08-3.74,6.17,6.17,0,0,1,.37-2.23,5,5,0,0,1,1-1.66,4.21,4.21,0,0,1,1.45-1,4.38,4.38,0,0,1,1.71-.36,4.55,4.55,0,0,1,1.45.19,7.93,7.93,0,0,1,1.16.48v-4.21h3.17Zm-3.17-2.72v-4.85a3.15,3.15,0,0,0-.7-.2,4.27,4.27,0,0,0-.68-.06,2.22,2.22,0,0,0-1.86.78,3.35,3.35,0,0,0-.63,2.16,3.54,3.54,0,0,0,.5,2.11,1.92,1.92,0,0,0,1.61.65,2.82,2.82,0,0,0,.91-.16A3.08,3.08,0,0,0,1790.32,880.28Z" transform="translate(-1749.73 -683.29)"/><path class="b1cbd169-48ec-4594-aded-0ea32b2a94ac" d="M1812.28,876v7h-3.18v-4.93q0-.72,0-1.23a2.48,2.48,0,0,0-.19-.82,1,1,0,0,0-.48-.46,2.26,2.26,0,0,0-.91-.14,2.33,2.33,0,0,0-.9.18,7.25,7.25,0,0,0-.79.4v7h-3.18v-9.87h3.18v1.09a8.27,8.27,0,0,1,1.56-1,3.76,3.76,0,0,1,1.65-.36,3.35,3.35,0,0,1,1.72.43,3,3,0,0,1,1.17,1.28,10.08,10.08,0,0,1,1.84-1.26,3.9,3.9,0,0,1,1.76-.45,3,3,0,0,1,2.42,1,4,4,0,0,1,.83,2.76V883h-3.17v-4.93q0-.74,0-1.23a2,2,0,0,0-.19-.82,1,1,0,0,0-.47-.46,2.7,2.7,0,0,0-1.69,0A5.82,5.82,0,0,0,1812.28,876Z" transform="translate(-1749.73 -683.29)"/><path class="b1cbd169-48ec-4594-aded-0ea32b2a94ac" d="M1831.77,878.07a5.16,5.16,0,0,1-1.42,3.84,6.37,6.37,0,0,1-8,0,5.9,5.9,0,0,1,0-7.69,5.46,5.46,0,0,1,4-1.4,5.4,5.4,0,0,1,4,1.41A5.19,5.19,0,0,1,1831.77,878.07Zm-3.89,2.4a2.6,2.6,0,0,0,.46-.91,5.66,5.66,0,0,0,.15-1.47,5.51,5.51,0,0,0-.16-1.46,2.42,2.42,0,0,0-.44-.94,1.51,1.51,0,0,0-.67-.51,2.41,2.41,0,0,0-.85-.15,2.57,2.57,0,0,0-.82.12,1.67,1.67,0,0,0-.68.49,2.58,2.58,0,0,0-.46.94,5.37,5.37,0,0,0-.17,1.51,5.77,5.77,0,0,0,.15,1.4,2.39,2.39,0,0,0,.44,1,1.56,1.56,0,0,0,.67.5,2.28,2.28,0,0,0,.89.16,2.48,2.48,0,0,0,.82-.14A1.54,1.54,0,0,0,1827.88,880.47Z" transform="translate(-1749.73 -683.29)"/><path class="b1cbd169-48ec-4594-aded-0ea32b2a94ac" d="M1841.19,876.14h-.28a3.06,3.06,0,0,0-.65-.1c-.3,0-.54,0-.74,0a6.23,6.23,0,0,0-2.31.39V883H1834v-9.87h3.17v1.45a6.61,6.61,0,0,1,1.82-1.19,3.9,3.9,0,0,1,1.42-.3h.37l.37,0Z" transform="translate(-1749.73 -683.29)"/><path class="b1cbd169-48ec-4594-aded-0ea32b2a94ac" d="M1852.71,878.65h-7.25a2.26,2.26,0,0,0,.89,1.77,3.92,3.92,0,0,0,2.39.62,5.34,5.34,0,0,0,1.94-.36,6.19,6.19,0,0,0,1.49-.77h.35v2.54a12.41,12.41,0,0,1-2,.62,10.44,10.44,0,0,1-2.1.19,6.86,6.86,0,0,1-4.55-1.33,4.7,4.7,0,0,1-1.59-3.81,5.08,5.08,0,0,1,1.5-3.87,5.73,5.73,0,0,1,4.11-1.43,4.9,4.9,0,0,1,3.62,1.22,4.75,4.75,0,0,1,1.22,3.5Zm-3.15-1.86a2.21,2.21,0,0,0-.49-1.49,1.92,1.92,0,0,0-1.45-.5,2.39,2.39,0,0,0-1.51.47,2,2,0,0,0-.65,1.52Z" transform="translate(-1749.73 -683.29)"/></g></g></svg>