<svg xmlns="http://www.w3.org/2000/svg" viewBox="0 0 209.13 122.51"><defs><style>.cls-1{fill:none;stroke:#6ecbff;stroke-miterlimit:10;stroke-width:3px;}.cls-2{isolation:isolate;}.cls-3{fill:#325166;}</style></defs><g id="Capa_3" data-name="Capa 3"><g id="Group_331" data-name="Group 331"><path id="Path_517" data-name="Path 517" class="cls-1" d="M122.17,285.25V192.19c0-4.7,4.08-8.52,9.1-8.52H293.43c5,0,9.1,3.83,9.1,8.52v93.07" transform="translate(-107.79 -182.17)"/><path id="Path_518" data-name="Path 518" class="cls-1" d="M283.21,285.26V201.6H141.5v83.66" transform="translate(-107.79 -182.17)"/><path id="Path_519" data-name="Path 519" class="cls-1" d="M109.29,285.26v13.48s7.12,4.44,12.35,4.44H303.06c5.23,0,12.36-4.44,12.36-4.44V285.26Z" transform="translate(-107.79 -182.17)"/></g><g id="Device_therapeutics_developers" data-name="Device therapeutics developers" class="cls-2"><g class="cls-2"><path class="cls-3" d="M180.55,222.15a6.46,6.46,0,0,1-.83,3.27,6,6,0,0,1-2.11,2.22,6.37,6.37,0,0,1-2.1.81,14.2,14.2,0,0,1-2.71.23h-4.61V215.59h4.74a12.27,12.27,0,0,1,2.76.27,6.35,6.35,0,0,1,1.95.76,5.85,5.85,0,0,1,2.13,2.23A6.66,6.66,0,0,1,180.55,222.15Zm-3.49,0a4.71,4.71,0,0,0-.47-2.21,3.23,3.23,0,0,0-1.49-1.43,3.77,3.77,0,0,0-1.06-.35,10.76,10.76,0,0,0-1.63-.09h-.85v8.19h.85a10.53,10.53,0,0,0,1.77-.11,4.29,4.29,0,0,0,1.1-.4,3.27,3.27,0,0,0,1.35-1.41A4.94,4.94,0,0,0,177.06,222.12Z" transform="translate(-107.79 -182.17)"/><path class="cls-3" d="M192.67,224.33h-7.24a2.28,2.28,0,0,0,.88,1.77,3.93,3.93,0,0,0,2.4.62,5.38,5.38,0,0,0,1.94-.36,6.39,6.39,0,0,0,1.49-.77h.35v2.54a12.72,12.72,0,0,1-2,.62,10.58,10.58,0,0,1-2.1.19,6.89,6.89,0,0,1-4.56-1.33,4.72,4.72,0,0,1-1.58-3.81,5.08,5.08,0,0,1,1.5-3.87,5.73,5.73,0,0,1,4.11-1.43,4.92,4.92,0,0,1,3.62,1.22,4.74,4.74,0,0,1,1.21,3.5Zm-3.14-1.86A2.22,2.22,0,0,0,189,221a1.9,1.9,0,0,0-1.45-.5,2.34,2.34,0,0,0-1.5.47,2.06,2.06,0,0,0-.66,1.52Z" transform="translate(-107.79 -182.17)"/><path class="cls-3" d="M204.84,218.81l-3.8,9.87h-3.59l-3.78-9.87H197l2.3,6.79,2.26-6.79Z" transform="translate(-107.79 -182.17)"/><path class="cls-3" d="M209.86,217.4h-3.35V215h3.35Zm-.08,11.28H206.6v-9.87h3.18Z" transform="translate(-107.79 -182.17)"/><path class="cls-3" d="M217.9,228.94a8.71,8.71,0,0,1-2.36-.3,5.37,5.37,0,0,1-1.86-.95,4.4,4.4,0,0,1-1.22-1.62,5.74,5.74,0,0,1-.43-2.29,5.61,5.61,0,0,1,.47-2.38,4.39,4.39,0,0,1,1.28-1.66,5.17,5.17,0,0,1,1.85-.91,7.84,7.84,0,0,1,2.17-.29,7.3,7.3,0,0,1,1.86.22,7.87,7.87,0,0,1,1.59.57V222h-.44l-.45-.37a4.3,4.3,0,0,0-.63-.42,4.66,4.66,0,0,0-.79-.32,3.75,3.75,0,0,0-1-.12,2.4,2.4,0,0,0-1.95.8,3.29,3.29,0,0,0-.68,2.18A3,3,0,0,0,216,226a2.6,2.6,0,0,0,2,.73,3.87,3.87,0,0,0,1.07-.13,3.59,3.59,0,0,0,.8-.32,4.48,4.48,0,0,0,.53-.37l.42-.38h.44v2.7a8.74,8.74,0,0,1-1.56.56A7.66,7.66,0,0,1,217.9,228.94Z" transform="translate(-107.79 -182.17)"/><path class="cls-3" d="M233.07,224.33h-7.25a2.29,2.29,0,0,0,.89,1.77,3.92,3.92,0,0,0,2.39.62,5.34,5.34,0,0,0,1.94-.36,6.19,6.19,0,0,0,1.49-.77h.35v2.54a12.41,12.41,0,0,1-2,.62,10.44,10.44,0,0,1-2.1.19,6.86,6.86,0,0,1-4.55-1.33,4.7,4.7,0,0,1-1.59-3.81,5.08,5.08,0,0,1,1.5-3.87,5.73,5.73,0,0,1,4.11-1.43,4.9,4.9,0,0,1,3.62,1.22,4.75,4.75,0,0,1,1.22,3.5Zm-3.15-1.86a2.21,2.21,0,0,0-.49-1.49,1.92,1.92,0,0,0-1.45-.5,2.39,2.39,0,0,0-1.51.47,2,2,0,0,0-.65,1.52Z" transform="translate(-107.79 -182.17)"/><path class="cls-3" d="M255.79,228.68h-4.18l-1.22-1.11a6.16,6.16,0,0,1-1.94,1,7.13,7.13,0,0,1-2.23.34,5.86,5.86,0,0,1-3.81-1.12,3.57,3.57,0,0,1-1.39-2.92,3.44,3.44,0,0,1,.22-1.3,4,4,0,0,1,.58-1,3.65,3.65,0,0,1,.79-.73,9.53,9.53,0,0,1,.85-.53c-.24-.18-.48-.37-.7-.57a3.92,3.92,0,0,1-.58-.65,2.76,2.76,0,0,1-.37-.75,3,3,0,0,1-.13-.93,2.7,2.7,0,0,1,.26-1.16,3,3,0,0,1,.79-1,4.2,4.2,0,0,1,1.47-.72,7.4,7.4,0,0,1,2.18-.28,7.83,7.83,0,0,1,1.9.21,4.35,4.35,0,0,1,1.41.6,2.58,2.58,0,0,1,.82.89,2.34,2.34,0,0,1,.28,1.13,4.23,4.23,0,0,1-.11.89,2.56,2.56,0,0,1-.44.91,4,4,0,0,1-.91.86,5.79,5.79,0,0,1-1.53.7l2.69,2.36V221h3.27v1a5.6,5.6,0,0,1-.35,2,4.33,4.33,0,0,1-1,1.57l3.34,2.92Zm-7-2.59-3.74-3.34a2.52,2.52,0,0,0-.41.63,2.24,2.24,0,0,0-.23,1,2,2,0,0,0,.23,1,2.19,2.19,0,0,0,.56.7,2.47,2.47,0,0,0,.78.43,2.85,2.85,0,0,0,.85.14,4.15,4.15,0,0,0,1-.12A2.61,2.61,0,0,0,248.83,226.09Zm-1.31-7.55a1.63,1.63,0,0,0-.14-.73,1.19,1.19,0,0,0-.35-.41,1,1,0,0,0-.44-.17,1.87,1.87,0,0,0-.37,0,1.35,1.35,0,0,0-.33,0,1.07,1.07,0,0,0-.42.18,1.09,1.09,0,0,0-.33.37,1.28,1.28,0,0,0-.14.63,1.54,1.54,0,0,0,.42,1,7.9,7.9,0,0,0,1.1,1,2.74,2.74,0,0,0,.75-.86A2.19,2.19,0,0,0,247.52,218.54Z" transform="translate(-107.79 -182.17)"/></g><g class="cls-2"><path class="cls-3" d="M155.34,251.19a8.43,8.43,0,0,1-1.09.21,11,11,0,0,1-1.39.07,4.3,4.3,0,0,1-2.75-.74,3.17,3.17,0,0,1-.9-2.56v-4.62h-1.3v-2.14h1.3v-2.82h3.17v2.82h3v2.14h-3v3.51c0,.34,0,.65,0,.9a1.94,1.94,0,0,0,.14.7,1,1,0,0,0,.44.49,1.81,1.81,0,0,0,.9.18,2.73,2.73,0,0,0,.65-.11,2.54,2.54,0,0,0,.55-.19h.27Z" transform="translate(-107.79 -182.17)"/><path class="cls-3" d="M167.14,251.28H164v-4.9c0-.39,0-.79-.06-1.19a2.71,2.71,0,0,0-.22-.87,1,1,0,0,0-.51-.48,2.4,2.4,0,0,0-.94-.15,3,3,0,0,0-.88.14,5.09,5.09,0,0,0-1,.45v7h-3.17V237.6h3.17v4.9a7.74,7.74,0,0,1,1.62-1,4,4,0,0,1,1.72-.35,3.31,3.31,0,0,1,2.5.93,3.86,3.86,0,0,1,.9,2.78Z" transform="translate(-107.79 -182.17)"/><path class="cls-3" d="M179.77,246.93h-7.24a2.25,2.25,0,0,0,.88,1.77,3.93,3.93,0,0,0,2.4.62,5.42,5.42,0,0,0,1.94-.36,6.1,6.1,0,0,0,1.48-.77h.35v2.54a12.12,12.12,0,0,1-2,.62,10.44,10.44,0,0,1-2.1.19,6.86,6.86,0,0,1-4.55-1.33,4.72,4.72,0,0,1-1.58-3.81,5.08,5.08,0,0,1,1.5-3.87,5.73,5.73,0,0,1,4.11-1.43,4.92,4.92,0,0,1,3.62,1.22,4.74,4.74,0,0,1,1.21,3.5Zm-3.15-1.86a2.16,2.16,0,0,0-.49-1.49,1.9,1.9,0,0,0-1.45-.5,2.34,2.34,0,0,0-1.5.47,2.06,2.06,0,0,0-.66,1.52Z" transform="translate(-107.79 -182.17)"/><path class="cls-3" d="M189.16,244.42h-.28a3.3,3.3,0,0,0-.65-.1c-.3,0-.55,0-.75,0a6.33,6.33,0,0,0-2.31.39v6.61H182v-9.87h3.17v1.45a6.76,6.76,0,0,1,1.82-1.19,3.94,3.94,0,0,1,1.42-.3h.38l.37,0Z" transform="translate(-107.79 -182.17)"/><path class="cls-3" d="M196.93,250.23l-.64.47a5.17,5.17,0,0,1-.71.43,4.57,4.57,0,0,1-1,.31,5.32,5.32,0,0,1-1.09.1,3.36,3.36,0,0,1-2.36-.87,2.89,2.89,0,0,1-.95-2.22,3,3,0,0,1,.48-1.77,3.37,3.37,0,0,1,1.38-1.08,7.76,7.76,0,0,1,2.18-.56c.86-.11,1.76-.19,2.69-.25v0a1.15,1.15,0,0,0-.66-1.13,4.85,4.85,0,0,0-2-.31,5.46,5.46,0,0,0-1.67.28c-.6.18-1,.32-1.28.42h-.29v-2.38c.34-.09.88-.19,1.63-.31a14.47,14.47,0,0,1,2.27-.18,7,7,0,0,1,3.89.83,2.94,2.94,0,0,1,1.2,2.6v6.72h-3.13Zm0-1.53v-2c-.43,0-.89.08-1.39.14a5.88,5.88,0,0,0-1.14.22,1.59,1.59,0,0,0-.72.43,1.08,1.08,0,0,0-.25.75,2.27,2.27,0,0,0,0,.5.79.79,0,0,0,.26.37,1.53,1.53,0,0,0,.49.26,3.68,3.68,0,0,0,.88.08,2.82,2.82,0,0,0,1-.19A3.21,3.21,0,0,0,196.93,248.7Z" transform="translate(-107.79 -182.17)"/><path class="cls-3" d="M213.27,246.21a6.31,6.31,0,0,1-.37,2.22,4.76,4.76,0,0,1-1,1.65,4.2,4.2,0,0,1-1.43,1,4.09,4.09,0,0,1-1.71.35,4.93,4.93,0,0,1-1.43-.18,7.48,7.48,0,0,1-1.2-.5v4.11H203V241.41h3.18v1a7.48,7.48,0,0,1,1.48-.94,4.05,4.05,0,0,1,1.75-.36,3.39,3.39,0,0,1,2.87,1.35A6,6,0,0,1,213.27,246.21Zm-3.26.06a3.44,3.44,0,0,0-.49-2.08,1.8,1.8,0,0,0-1.55-.65,3.3,3.3,0,0,0-.92.13,3.61,3.61,0,0,0-.9.39v5a2.43,2.43,0,0,0,.67.16l.71,0a2.29,2.29,0,0,0,1.87-.73A3.37,3.37,0,0,0,210,246.27Z" transform="translate(-107.79 -182.17)"/><path class="cls-3" d="M225.28,246.93H218a2.25,2.25,0,0,0,.88,1.77,3.93,3.93,0,0,0,2.4.62,5.42,5.42,0,0,0,1.94-.36,6.3,6.3,0,0,0,1.48-.77h.35v2.54a12.12,12.12,0,0,1-2,.62,10.44,10.44,0,0,1-2.1.19,6.86,6.86,0,0,1-4.55-1.33,4.72,4.72,0,0,1-1.58-3.81,5.08,5.08,0,0,1,1.5-3.87,5.73,5.73,0,0,1,4.11-1.43,4.92,4.92,0,0,1,3.62,1.22,4.74,4.74,0,0,1,1.21,3.5Zm-3.15-1.86a2.16,2.16,0,0,0-.49-1.49,1.9,1.9,0,0,0-1.45-.5,2.34,2.34,0,0,0-1.5.47,2,2,0,0,0-.66,1.52Z" transform="translate(-107.79 -182.17)"/><path class="cls-3" d="M237.35,251.28h-3.18v-1.09a10.41,10.41,0,0,1-1.6,1,4.06,4.06,0,0,1-1.74.34,3.28,3.28,0,0,1-2.52-.94,4,4,0,0,1-.88-2.78v-6.42h3.18v4.89c0,.5,0,.92,0,1.25a2.27,2.27,0,0,0,.23.82,1,1,0,0,0,.5.47,2.42,2.42,0,0,0,1,.15,3,3,0,0,0,.89-.15,3.52,3.52,0,0,0,.95-.43v-7h3.18Z" transform="translate(-107.79 -182.17)"/><path class="cls-3" d="M246.65,251.19a8.43,8.43,0,0,1-1.09.21,11,11,0,0,1-1.39.07,4.3,4.3,0,0,1-2.75-.74,3.17,3.17,0,0,1-.9-2.56v-4.62h-1.3v-2.14h1.3v-2.82h3.17v2.82h3v2.14h-3v3.51c0,.34,0,.65,0,.9a1.94,1.94,0,0,0,.14.7,1,1,0,0,0,.43.49,1.85,1.85,0,0,0,.91.18,2.73,2.73,0,0,0,.65-.11,2.54,2.54,0,0,0,.55-.19h.27Z" transform="translate(-107.79 -182.17)"/><path class="cls-3" d="M251.8,240h-3.35v-2.4h3.35Zm-.09,11.28h-3.17v-9.87h3.17Z" transform="translate(-107.79 -182.17)"/><path class="cls-3" d="M259.83,251.54a8.71,8.71,0,0,1-2.36-.3,5.46,5.46,0,0,1-1.86-1,4.27,4.27,0,0,1-1.21-1.62,6.35,6.35,0,0,1,0-4.67,4.52,4.52,0,0,1,1.29-1.66,5,5,0,0,1,1.84-.91,7.84,7.84,0,0,1,2.17-.29,7.32,7.32,0,0,1,1.87.22,8.33,8.33,0,0,1,1.59.57v2.7h-.45l-.44-.37a5.08,5.08,0,0,0-.64-.42,4.34,4.34,0,0,0-.79-.32,3.75,3.75,0,0,0-1-.12,2.38,2.38,0,0,0-1.94.8,3.23,3.23,0,0,0-.68,2.18,3.09,3.09,0,0,0,.69,2.17,2.61,2.61,0,0,0,2,.73,4,4,0,0,0,1.08-.13,3.5,3.5,0,0,0,.79-.32,3.78,3.78,0,0,0,.53-.37l.42-.38h.45v2.7a9.34,9.34,0,0,1-1.56.56A7.75,7.75,0,0,1,259.83,251.54Z" transform="translate(-107.79 -182.17)"/><path class="cls-3" d="M273.86,248.15a2.88,2.88,0,0,1-1.37,2.47,6.64,6.64,0,0,1-3.76.93,11,11,0,0,1-2.39-.24,9.46,9.46,0,0,1-1.72-.55v-2.6h.29l.55.36a4.81,4.81,0,0,0,.88.43,8.26,8.26,0,0,0,1.12.35,6.24,6.24,0,0,0,1.33.14,3.58,3.58,0,0,0,1.38-.2.67.67,0,0,0,.45-.62.57.57,0,0,0-.26-.52,3.47,3.47,0,0,0-1-.31c-.24,0-.56-.11-1-.17a9.43,9.43,0,0,1-1.09-.23,3.84,3.84,0,0,1-2-1.09,2.71,2.71,0,0,1-.65-1.85,2.81,2.81,0,0,1,1.35-2.37,6.34,6.34,0,0,1,3.69-.94,9.71,9.71,0,0,1,2.12.22,8.57,8.57,0,0,1,1.59.48v2.5h-.27a6.19,6.19,0,0,0-1.61-.79,5.74,5.74,0,0,0-1.82-.3,3.48,3.48,0,0,0-1.29.21c-.35.14-.52.34-.52.59a.65.65,0,0,0,.23.54,3.32,3.32,0,0,0,1.12.37l1,.19c.38.06.75.14,1.12.23a3.51,3.51,0,0,1,1.85,1A2.56,2.56,0,0,1,273.86,248.15Z" transform="translate(-107.79 -182.17)"/></g><g class="cls-2"><path class="cls-3" d="M166.66,273.88h-3.18v-1a6.65,6.65,0,0,1-1.52,1,3.92,3.92,0,0,1-1.65.32,3.44,3.44,0,0,1-2.87-1.39,5.92,5.92,0,0,1-1.08-3.74,6.4,6.4,0,0,1,.36-2.23,5,5,0,0,1,1-1.67,4.14,4.14,0,0,1,1.44-1,4.38,4.38,0,0,1,1.71-.36,4.55,4.55,0,0,1,1.45.19,8.55,8.55,0,0,1,1.16.47v-4.2h3.18Zm-3.18-2.72v-4.85a3.15,3.15,0,0,0-.7-.2,4.16,4.16,0,0,0-.67-.06,2.24,2.24,0,0,0-1.87.78,3.35,3.35,0,0,0-.62,2.16,3.47,3.47,0,0,0,.5,2.11,1.89,1.89,0,0,0,1.6.65,2.77,2.77,0,0,0,.91-.16A3.08,3.08,0,0,0,163.48,271.16Z" transform="translate(-107.79 -182.17)"/><path class="cls-3" d="M179.37,269.53h-7.25a2.26,2.26,0,0,0,.89,1.77,3.92,3.92,0,0,0,2.39.62,5.34,5.34,0,0,0,1.94-.36,6.19,6.19,0,0,0,1.49-.77h.35v2.54a12.41,12.41,0,0,1-2,.62,10.44,10.44,0,0,1-2.1.19,6.86,6.86,0,0,1-4.55-1.33,4.7,4.7,0,0,1-1.59-3.81,5.08,5.08,0,0,1,1.5-3.87,5.73,5.73,0,0,1,4.11-1.43,4.9,4.9,0,0,1,3.62,1.22,4.75,4.75,0,0,1,1.22,3.5Zm-3.15-1.86a2.21,2.21,0,0,0-.49-1.49,1.92,1.92,0,0,0-1.45-.5,2.39,2.39,0,0,0-1.51.47,2.06,2.06,0,0,0-.66,1.52Z" transform="translate(-107.79 -182.17)"/><path class="cls-3" d="M191.54,264l-3.81,9.87h-3.58L180.37,264h3.34L186,270.8l2.26-6.79Z" transform="translate(-107.79 -182.17)"/><path class="cls-3" d="M203,269.53h-7.25a2.29,2.29,0,0,0,.89,1.77,3.92,3.92,0,0,0,2.39.62,5.43,5.43,0,0,0,1.95-.36,6.3,6.3,0,0,0,1.48-.77h.35v2.54a12.41,12.41,0,0,1-2,.62,10.44,10.44,0,0,1-2.1.19,6.86,6.86,0,0,1-4.55-1.33,4.69,4.69,0,0,1-1.58-3.81,5.08,5.08,0,0,1,1.49-3.87,5.73,5.73,0,0,1,4.11-1.43,4.89,4.89,0,0,1,3.62,1.22,4.75,4.75,0,0,1,1.22,3.5Zm-3.15-1.86a2.21,2.21,0,0,0-.49-1.49,1.92,1.92,0,0,0-1.45-.5,2.39,2.39,0,0,0-1.51.47,2,2,0,0,0-.65,1.52Z" transform="translate(-107.79 -182.17)"/><path class="cls-3" d="M208.42,273.88h-3.17V260.2h3.17Z" transform="translate(-107.79 -182.17)"/><path class="cls-3" d="M221.49,269a5.16,5.16,0,0,1-1.42,3.84,6.37,6.37,0,0,1-8,0,5.9,5.9,0,0,1,0-7.69,5.46,5.46,0,0,1,4-1.4,5.4,5.4,0,0,1,4,1.41A5.17,5.17,0,0,1,221.49,269Zm-3.89,2.4a2.6,2.6,0,0,0,.46-.91,5.71,5.71,0,0,0,.15-1.47,5.51,5.51,0,0,0-.16-1.46,2.49,2.49,0,0,0-.43-.94,1.59,1.59,0,0,0-.68-.51,2.41,2.41,0,0,0-.85-.15,2.57,2.57,0,0,0-.82.12,1.74,1.74,0,0,0-.68.49,2.5,2.5,0,0,0-.46.94A5.77,5.77,0,0,0,214,269a5.83,5.83,0,0,0,.15,1.4,2.39,2.39,0,0,0,.44.95,1.62,1.62,0,0,0,.67.5,2.28,2.28,0,0,0,.89.16,2.48,2.48,0,0,0,.82-.14A1.54,1.54,0,0,0,217.6,271.35Z" transform="translate(-107.79 -182.17)"/><path class="cls-3" d="M234.06,268.81a6.31,6.31,0,0,1-.37,2.22,4.92,4.92,0,0,1-1,1.65,4.15,4.15,0,0,1-3.15,1.39,5,5,0,0,1-1.43-.18,7.48,7.48,0,0,1-1.2-.5v4.11h-3.17V264h3.17v1a7.54,7.54,0,0,1,1.49-.94,4.05,4.05,0,0,1,1.75-.36,3.41,3.41,0,0,1,2.87,1.35A6,6,0,0,1,234.06,268.81Zm-3.26.06a3.44,3.44,0,0,0-.49-2.08,1.81,1.81,0,0,0-1.55-.65,3.42,3.42,0,0,0-.93.13,4,4,0,0,0-.9.39v5a2.94,2.94,0,0,0,.68.16c.24,0,.47,0,.71,0a2.31,2.31,0,0,0,1.87-.73A3.43,3.43,0,0,0,230.8,268.87Z" transform="translate(-107.79 -182.17)"/><path class="cls-3" d="M246.07,269.53h-7.25a2.26,2.26,0,0,0,.89,1.77,3.92,3.92,0,0,0,2.39.62,5.34,5.34,0,0,0,1.94-.36,6.19,6.19,0,0,0,1.49-.77h.35v2.54a12.41,12.41,0,0,1-2,.62,10.44,10.44,0,0,1-2.1.19,6.86,6.86,0,0,1-4.55-1.33,4.7,4.7,0,0,1-1.59-3.81,5.08,5.08,0,0,1,1.5-3.87,5.73,5.73,0,0,1,4.11-1.43,4.9,4.9,0,0,1,3.62,1.22,4.75,4.75,0,0,1,1.22,3.5Zm-3.15-1.86a2.21,2.21,0,0,0-.49-1.49,1.92,1.92,0,0,0-1.45-.5,2.39,2.39,0,0,0-1.51.47,2.06,2.06,0,0,0-.66,1.52Z" transform="translate(-107.79 -182.17)"/><path class="cls-3" d="M255.45,267h-.28a3.06,3.06,0,0,0-.65-.1,7.38,7.38,0,0,0-.74,0,6.23,6.23,0,0,0-2.31.39v6.61H248.3V264h3.17v1.45a6.38,6.38,0,0,1,1.82-1.19,3.9,3.9,0,0,1,1.42-.3h.37l.37,0Z" transform="translate(-107.79 -182.17)"/><path class="cls-3" d="M265.82,270.75a2.83,2.83,0,0,1-1.37,2.46,6.5,6.5,0,0,1-3.75.94,10.92,10.92,0,0,1-2.39-.24,9.21,9.21,0,0,1-1.72-.55v-2.6h.29c.15.11.34.23.55.36a4.51,4.51,0,0,0,.88.43,8.57,8.57,0,0,0,1.11.35,6.4,6.4,0,0,0,1.34.14,3.65,3.65,0,0,0,1.38-.2.67.67,0,0,0,.45-.62.57.57,0,0,0-.26-.52,3.45,3.45,0,0,0-1-.31c-.23-.05-.55-.11-.95-.17a9,9,0,0,1-1.09-.23,3.8,3.8,0,0,1-2-1.09,2.71,2.71,0,0,1-.65-1.85,2.81,2.81,0,0,1,1.35-2.37,6.34,6.34,0,0,1,3.69-.94,9.84,9.84,0,0,1,2.12.22,8.82,8.82,0,0,1,1.59.48v2.5h-.28a6.12,6.12,0,0,0-1.6-.79,5.75,5.75,0,0,0-1.83-.3,3.47,3.47,0,0,0-1.28.21c-.35.14-.53.34-.53.59a.63.63,0,0,0,.24.54,3.24,3.24,0,0,0,1.12.37l1,.19c.37.06.74.14,1.12.23a3.55,3.55,0,0,1,1.85,1A2.6,2.6,0,0,1,265.82,270.75Z" transform="translate(-107.79 -182.17)"/></g></g></g></svg>