<svg id="e3228ea9-198f-4d88-a806-2e6c9806c624" data-name="step5" xmlns="http://www.w3.org/2000/svg" viewBox="0 0 201.84 296.37"><defs><style>.bb693f0d-c34d-4f0e-b627-58205469b4f8{fill:#00cbff;}.fa376d5f-8088-42c3-a2b4-dedca23f0f43{fill:#fff;stroke:#00cbff;stroke-miterlimit:10;stroke-width:4.24px;}.be54df2e-45dd-4ad0-ac90-f7780f8a672b{fill:#0097ff;}.f12a0951-bccb-4605-9fd6-2d6dd9f675f9{fill:#145067;}</style></defs><title>5-comp1</title><path class="bb693f0d-c34d-4f0e-b627-58205469b4f8" d="M36.79,102.57V11.45c0-4.6,4-8.34,8.91-8.34H204.49c4.91,0,8.91,3.74,8.91,8.34v91.12" transform="translate(-24.18 -3.11)"/><polyline class="fa376d5f-8088-42c3-a2b4-dedca23f0f43" points="180.15 99.47 180.15 10.94 22.66 10.94 22.66 99.47"/><path class="bb693f0d-c34d-4f0e-b627-58205469b4f8" d="M24.18,102.57v13.2s7,4.36,12.1,4.36H213.91c5.13,0,12.11-4.36,12.11-4.36v-13.2Z" transform="translate(-24.18 -3.11)"/><path class="be54df2e-45dd-4ad0-ac90-f7780f8a672b" d="M201.56,299.48a3,3,0,0,1-1.51-.41L124.7,254.65c-5.13-3-9.15-10.05-9.15-16V144.25a3,3,0,1,1,6,0v94.39a14.44,14.44,0,0,0,6.21,10.89L203.07,294a3,3,0,0,1-1.51,5.53Z" transform="translate(-24.18 -3.11)"/><polygon class="be54df2e-45dd-4ad0-ac90-f7780f8a672b" points="118.66 160.84 114.3 164.89 94.35 143.42 74.39 164.89 70.04 160.84 94.35 134.69 118.66 160.84"/><path class="f12a0951-bccb-4605-9fd6-2d6dd9f675f9" d="M93.06,54.21H89l-3.54-4.77H83.87v4.77H80.53v-13h5.63a12.53,12.53,0,0,1,2,.13,4.33,4.33,0,0,1,1.55.57A3.42,3.42,0,0,1,90.86,43a3.21,3.21,0,0,1,.43,1.74,3.85,3.85,0,0,1-.67,2.35,5.06,5.06,0,0,1-1.9,1.51Zm-5.23-9a1.61,1.61,0,0,0-.21-.84,1.36,1.36,0,0,0-.69-.55,2.56,2.56,0,0,0-.79-.17c-.3,0-.65,0-1.06,0H83.87v3.5h1A8.65,8.65,0,0,0,86.25,47a1.91,1.91,0,0,0,.9-.35,1.58,1.58,0,0,0,.51-.6A2,2,0,0,0,87.83,45.19Z" transform="translate(-24.18 -3.11)"/><path class="f12a0951-bccb-4605-9fd6-2d6dd9f675f9" d="M104,49.89H96.81a2.25,2.25,0,0,0,.88,1.76,3.89,3.89,0,0,0,2.38.61,5.58,5.58,0,0,0,1.93-.35,6.2,6.2,0,0,0,1.47-.77h.35v2.52a11.41,11.41,0,0,1-2,.62,10.3,10.3,0,0,1-2.08.19,6.87,6.87,0,0,1-4.53-1.32,4.72,4.72,0,0,1-1.57-3.79,5.06,5.06,0,0,1,1.49-3.84A5.65,5.65,0,0,1,99.2,44.1a4.85,4.85,0,0,1,3.6,1.21,4.73,4.73,0,0,1,1.2,3.48Zm-3.12-1.84a2.21,2.21,0,0,0-.49-1.49,1.89,1.89,0,0,0-1.44-.5,2.26,2.26,0,0,0-1.49.48,2,2,0,0,0-.66,1.51Z" transform="translate(-24.18 -3.11)"/><path class="f12a0951-bccb-4605-9fd6-2d6dd9f675f9" d="M114.75,51.1a2.84,2.84,0,0,1-1.37,2.45,6.5,6.5,0,0,1-3.72.93,10.83,10.83,0,0,1-2.38-.24,10.26,10.26,0,0,1-1.71-.54V51.11h.29l.54.36a5.57,5.57,0,0,0,.88.43,7.28,7.28,0,0,0,1.11.34,5.64,5.64,0,0,0,1.33.15,3.41,3.41,0,0,0,1.37-.21.66.66,0,0,0,.44-.61.55.55,0,0,0-.26-.52,3.71,3.71,0,0,0-1-.31c-.24-.05-.55-.11-1-.17a9.52,9.52,0,0,1-1.09-.22,3.77,3.77,0,0,1-2-1.09,2.68,2.68,0,0,1-.65-1.83A2.8,2.8,0,0,1,107,45.07a6.37,6.37,0,0,1,3.67-.94,9.59,9.59,0,0,1,2.1.23,7.82,7.82,0,0,1,1.58.47v2.48H114a6.54,6.54,0,0,0-1.59-.78,5.69,5.69,0,0,0-1.82-.3,3.37,3.37,0,0,0-1.27.21c-.35.14-.52.34-.52.59a.64.64,0,0,0,.23.54,3.3,3.3,0,0,0,1.11.36c.32.07.67.13,1,.19s.74.14,1.11.23a3.5,3.5,0,0,1,1.83,1A2.55,2.55,0,0,1,114.75,51.1Z" transform="translate(-24.18 -3.11)"/><path class="f12a0951-bccb-4605-9fd6-2d6dd9f675f9" d="M126.49,49.89H119.3a2.21,2.21,0,0,0,.87,1.76,3.89,3.89,0,0,0,2.38.61,5.5,5.5,0,0,0,1.93-.35,6.1,6.1,0,0,0,1.48-.77h.35v2.52a11.41,11.41,0,0,1-2,.62,10.4,10.4,0,0,1-2.09.19,6.85,6.85,0,0,1-4.52-1.32,4.69,4.69,0,0,1-1.57-3.79,5,5,0,0,1,1.49-3.84,5.65,5.65,0,0,1,4.08-1.42,4.88,4.88,0,0,1,3.6,1.21,4.73,4.73,0,0,1,1.2,3.48Zm-3.13-1.84a2.21,2.21,0,0,0-.48-1.49,1.9,1.9,0,0,0-1.45-.5,2.28,2.28,0,0,0-1.49.48,2,2,0,0,0-.65,1.51Z" transform="translate(-24.18 -3.11)"/><path class="f12a0951-bccb-4605-9fd6-2d6dd9f675f9" d="M134.65,53.17l-.63.46a3.73,3.73,0,0,1-.71.43,4.14,4.14,0,0,1-1,.31,5.32,5.32,0,0,1-1.09.1,3.36,3.36,0,0,1-2.34-.86A2.86,2.86,0,0,1,128,51.4a3,3,0,0,1,.48-1.76,3.21,3.21,0,0,1,1.36-1.07A7.7,7.7,0,0,1,132,48c.86-.11,1.76-.19,2.68-.24v-.06a1.13,1.13,0,0,0-.66-1.12,4.9,4.9,0,0,0-2-.31,5.34,5.34,0,0,0-1.65.28c-.59.18-1,.32-1.27.42h-.29V44.61c.33-.08.87-.19,1.62-.31a15.51,15.51,0,0,1,2.25-.18,7,7,0,0,1,3.87.83,2.91,2.91,0,0,1,1.19,2.59v6.67h-3.11Zm0-1.52v-2c-.43,0-.89.08-1.38.14a5.75,5.75,0,0,0-1.13.22,1.51,1.51,0,0,0-.72.43,1.05,1.05,0,0,0-.25.74,2.27,2.27,0,0,0,.05.5.8.8,0,0,0,.27.36,1.24,1.24,0,0,0,.48.26,3.53,3.53,0,0,0,.87.08,2.6,2.6,0,0,0,1-.19A3.4,3.4,0,0,0,134.65,51.65Z" transform="translate(-24.18 -3.11)"/><path class="f12a0951-bccb-4605-9fd6-2d6dd9f675f9" d="M147.76,47.4h-.28a2.92,2.92,0,0,0-.64-.11l-.74,0a7,7,0,0,0-1.19.09,6.67,6.67,0,0,0-1.1.29v6.57h-3.16v-9.8h3.16v1.44a6.56,6.56,0,0,1,1.8-1.19,4.08,4.08,0,0,1,1.41-.29h.38a1.86,1.86,0,0,1,.36,0Z" transform="translate(-24.18 -3.11)"/><path class="f12a0951-bccb-4605-9fd6-2d6dd9f675f9" d="M154.65,54.47a8.56,8.56,0,0,1-2.34-.3,5.15,5.15,0,0,1-1.85-1,4.18,4.18,0,0,1-1.2-1.6,6.27,6.27,0,0,1,0-4.64,4.44,4.44,0,0,1,1.28-1.65,5.24,5.24,0,0,1,1.83-.91,8.1,8.1,0,0,1,2.16-.29,7.69,7.69,0,0,1,1.85.22,9.51,9.51,0,0,1,1.58.57V47.6h-.45l-.44-.37a4.3,4.3,0,0,0-.63-.41,5.52,5.52,0,0,0-.78-.32,3.75,3.75,0,0,0-1-.12,2.36,2.36,0,0,0-1.93.8,3.24,3.24,0,0,0-.68,2.17,3,3,0,0,0,.7,2.15,2.6,2.6,0,0,0,2,.73,3.85,3.85,0,0,0,1.07-.14,3.09,3.09,0,0,0,.79-.32,3,3,0,0,0,.52-.36,5.5,5.5,0,0,0,.42-.38H158v2.68a8.43,8.43,0,0,1-1.55.56A7.66,7.66,0,0,1,154.65,54.47Z" transform="translate(-24.18 -3.11)"/><path class="f12a0951-bccb-4605-9fd6-2d6dd9f675f9" d="M169.92,54.21h-3.16V49.35a11.85,11.85,0,0,0-.06-1.19,2.5,2.5,0,0,0-.21-.87,1,1,0,0,0-.51-.47,2.33,2.33,0,0,0-.94-.15,3,3,0,0,0-.87.14,5.33,5.33,0,0,0-.95.45v7h-3.15V40.62h3.15v4.87a8.13,8.13,0,0,1,1.61-1,4.12,4.12,0,0,1,1.71-.35,3.26,3.26,0,0,1,2.48.93,3.83,3.83,0,0,1,.9,2.77Z" transform="translate(-24.18 -3.11)"/><path class="f12a0951-bccb-4605-9fd6-2d6dd9f675f9" d="M95.8,70.63a6.21,6.21,0,0,1-.37,2.21,5,5,0,0,1-1,1.64,4.14,4.14,0,0,1-1.42,1,4.08,4.08,0,0,1-1.7.35,4.81,4.81,0,0,1-1.42-.18,6.67,6.67,0,0,1-1.2-.5v4.09H85.57V65.87h3.15v1A7.48,7.48,0,0,1,90.2,66a4,4,0,0,1,1.74-.36,3.37,3.37,0,0,1,2.85,1.35A6,6,0,0,1,95.8,70.63Zm-3.24.07a3.54,3.54,0,0,0-.48-2.08A1.82,1.82,0,0,0,90.53,68a3.28,3.28,0,0,0-.91.13,3.61,3.61,0,0,0-.9.39v4.93a2.43,2.43,0,0,0,.67.15,5.74,5.74,0,0,0,.71,0A2.25,2.25,0,0,0,92,72.89,3.33,3.33,0,0,0,92.56,70.7Z" transform="translate(-24.18 -3.11)"/><path class="f12a0951-bccb-4605-9fd6-2d6dd9f675f9" d="M105.18,68.86h-.28a2.92,2.92,0,0,0-.64-.11l-.74,0a7,7,0,0,0-1.19.09,7,7,0,0,0-1.11.29v6.57H98.07v-9.8h3.15v1.44A6.73,6.73,0,0,1,103,66.12a4.08,4.08,0,0,1,1.41-.29h.37a2,2,0,0,1,.37,0Z" transform="translate(-24.18 -3.11)"/><path class="f12a0951-bccb-4605-9fd6-2d6dd9f675f9" d="M117,70.77a5.1,5.1,0,0,1-1.41,3.81,6.3,6.3,0,0,1-7.92,0,5.85,5.85,0,0,1,0-7.63,6.3,6.3,0,0,1,7.91,0A5.12,5.12,0,0,1,117,70.77Zm-3.87,2.39a2.78,2.78,0,0,0,.46-.91,5.58,5.58,0,0,0,.15-1.46,5.43,5.43,0,0,0-.16-1.45,2.51,2.51,0,0,0-.43-.93,1.53,1.53,0,0,0-.68-.51,2.32,2.32,0,0,0-.84-.15,2.47,2.47,0,0,0-.81.12,1.77,1.77,0,0,0-.68.49,2.66,2.66,0,0,0-.46.94,6.57,6.57,0,0,0,0,2.88,2.47,2.47,0,0,0,.44.95,1.64,1.64,0,0,0,.67.5,2.38,2.38,0,0,0,.88.16,2.25,2.25,0,0,0,.82-.15A1.57,1.57,0,0,0,113.12,73.16Z" transform="translate(-24.18 -3.11)"/><path class="f12a0951-bccb-4605-9fd6-2d6dd9f675f9" d="M123.48,75.85a3.32,3.32,0,0,1-1,2.58,3.76,3.76,0,0,1-2.63.93,14.91,14.91,0,0,1-1.56-.07,9.43,9.43,0,0,1-1-.15V76.88h.24a3.85,3.85,0,0,0,.66.15,4.24,4.24,0,0,0,.61.06,1.33,1.33,0,0,0,1.24-.54,3.57,3.57,0,0,0,.33-1.78V68h-1.86V65.87h5Zm0-11.38h-3.35V62.08h3.35Z" transform="translate(-24.18 -3.11)"/><path class="f12a0951-bccb-4605-9fd6-2d6dd9f675f9" d="M136.1,71.35h-7.19a2.24,2.24,0,0,0,.87,1.76,3.91,3.91,0,0,0,2.38.61,5.5,5.5,0,0,0,1.93-.35,6.1,6.1,0,0,0,1.48-.77h.35v2.52a11.41,11.41,0,0,1-2,.62,10.4,10.4,0,0,1-2.09.19,6.85,6.85,0,0,1-4.52-1.32,4.69,4.69,0,0,1-1.57-3.79A5,5,0,0,1,127.22,67a5.65,5.65,0,0,1,4.08-1.42,4.88,4.88,0,0,1,3.6,1.21,4.73,4.73,0,0,1,1.2,3.48ZM133,69.51a2.21,2.21,0,0,0-.48-1.49,1.9,1.9,0,0,0-1.45-.5,2.28,2.28,0,0,0-1.49.48,2,2,0,0,0-.65,1.51Z" transform="translate(-24.18 -3.11)"/><path class="f12a0951-bccb-4605-9fd6-2d6dd9f675f9" d="M143.43,75.93a8.63,8.63,0,0,1-2.35-.3,5.19,5.19,0,0,1-1.84-.95,4.3,4.3,0,0,1-1.21-1.6,6.27,6.27,0,0,1,0-4.64,4.54,4.54,0,0,1,1.28-1.65,5.24,5.24,0,0,1,1.83-.91,8.21,8.21,0,0,1,2.16-.29,7.63,7.63,0,0,1,1.85.22,9.2,9.2,0,0,1,1.58.57v2.68h-.44l-.44-.37a4.3,4.3,0,0,0-.63-.41,5.2,5.2,0,0,0-.79-.32,3.63,3.63,0,0,0-1-.12,2.36,2.36,0,0,0-1.93.8,3.24,3.24,0,0,0-.68,2.17,3,3,0,0,0,.69,2.15,2.63,2.63,0,0,0,2,.73,3.91,3.91,0,0,0,1.07-.14,3.24,3.24,0,0,0,.79-.32,3.41,3.41,0,0,0,.52-.36l.42-.38h.44v2.68a8.17,8.17,0,0,1-1.55.56A7.57,7.57,0,0,1,143.43,75.93Z" transform="translate(-24.18 -3.11)"/><path class="f12a0951-bccb-4605-9fd6-2d6dd9f675f9" d="M155.11,75.58a8.45,8.45,0,0,1-1.07.21,11,11,0,0,1-1.39.07,4.2,4.2,0,0,1-2.73-.74,3.12,3.12,0,0,1-.89-2.54V68h-1.3V65.87H149V63.06h3.15v2.81h2.93V68h-2.93v3.48c0,.34,0,.64,0,.9a1.74,1.74,0,0,0,.14.69,1,1,0,0,0,.43.48,1.78,1.78,0,0,0,.9.18,2.64,2.64,0,0,0,.64-.1,3.25,3.25,0,0,0,.55-.19h.26Z" transform="translate(-24.18 -3.11)"/><path class="f12a0951-bccb-4605-9fd6-2d6dd9f675f9" d="M165.51,72.56A2.83,2.83,0,0,1,164.15,75a6.53,6.53,0,0,1-3.73.93,10.31,10.31,0,0,1-4.09-.78V72.57h.29l.55.36a5.16,5.16,0,0,0,.88.43,6.65,6.65,0,0,0,1.11.34,5.56,5.56,0,0,0,1.32.15,3.34,3.34,0,0,0,1.37-.21.66.66,0,0,0,.45-.61.57.57,0,0,0-.26-.52,3.82,3.82,0,0,0-1-.31c-.23,0-.55-.11-.95-.17a8.91,8.91,0,0,1-1.08-.22,3.85,3.85,0,0,1-2-1.09,2.67,2.67,0,0,1-.64-1.83,2.8,2.8,0,0,1,1.34-2.36,6.31,6.31,0,0,1,3.66-.94,9.61,9.61,0,0,1,2.11.23,8,8,0,0,1,1.58.47v2.48h-.27a6.43,6.43,0,0,0-1.6-.78,5.63,5.63,0,0,0-1.81-.3,3.43,3.43,0,0,0-1.28.21c-.35.14-.52.34-.52.59a.64.64,0,0,0,.24.54,3.13,3.13,0,0,0,1.11.36c.32.07.66.13,1,.19s.74.14,1.11.23a3.58,3.58,0,0,1,1.84,1A2.59,2.59,0,0,1,165.51,72.56Z" transform="translate(-24.18 -3.11)"/></svg>