<svg xmlns="http://www.w3.org/2000/svg" viewBox="0 0 209.13 122.51"><defs><style>.cls-1{isolation:isolate;}.cls-2{fill:#325166;}.cls-3{fill:none;stroke:#6ecbff;stroke-miterlimit:10;stroke-width:3px;}</style></defs><g id="Capa_3" data-name="Capa 3"><g id="Group_330" data-name="Group 330"><g id="Group_329" data-name="Group 329"><g id="Research_projects" data-name="Research projects" class="cls-1"><g class="cls-1"><path class="cls-2" d="M180.23,235.6h-4.12l-3.56-4.8H171v4.8h-3.36V222.51h5.66a12.55,12.55,0,0,1,2,.14,4.07,4.07,0,0,1,1.57.57,3.36,3.36,0,0,1,1.17,1.14,3.24,3.24,0,0,1,.44,1.75,3.86,3.86,0,0,1-.68,2.36,4.9,4.9,0,0,1-1.92,1.52ZM175,226.52a1.68,1.68,0,0,0-.2-.84,1.39,1.39,0,0,0-.7-.56,2.63,2.63,0,0,0-.8-.17c-.3,0-.66,0-1.06,0H171v3.53h1a10.25,10.25,0,0,0,1.36-.08,1.9,1.9,0,0,0,.91-.36,1.76,1.76,0,0,0,.51-.6A2,2,0,0,0,175,226.52Z" transform="translate(-107.79 -182.17)"/><path class="cls-2" d="M191.25,231.25H184a2.3,2.3,0,0,0,.88,1.78,4,4,0,0,0,2.4.61,5.38,5.38,0,0,0,1.94-.36,6.39,6.39,0,0,0,1.49-.77h.35v2.54a12.72,12.72,0,0,1-2,.62,10.55,10.55,0,0,1-2.1.2,6.91,6.91,0,0,1-4.56-1.34,4.72,4.72,0,0,1-1.58-3.81,5.08,5.08,0,0,1,1.5-3.87,5.73,5.73,0,0,1,4.11-1.43,4.92,4.92,0,0,1,3.62,1.22,4.74,4.74,0,0,1,1.21,3.5Zm-3.14-1.85a2.19,2.19,0,0,0-.5-1.5,1.9,1.9,0,0,0-1.45-.5,2.31,2.31,0,0,0-1.5.48,2,2,0,0,0-.66,1.52Z" transform="translate(-107.79 -182.17)"/><path class="cls-2" d="M202.06,232.47a2.86,2.86,0,0,1-1.37,2.47,6.58,6.58,0,0,1-3.75.93,10.92,10.92,0,0,1-2.39-.24,9.21,9.21,0,0,1-1.72-.55v-2.6h.29l.55.37a5.25,5.25,0,0,0,.88.42,7.05,7.05,0,0,0,1.12.35,5.65,5.65,0,0,0,1.33.14,3.46,3.46,0,0,0,1.38-.2.66.66,0,0,0,.45-.61.59.59,0,0,0-.26-.53,3.8,3.8,0,0,0-1-.31c-.23-.05-.55-.11-.95-.17s-.77-.14-1.09-.22a3.88,3.88,0,0,1-2-1.1,2.71,2.71,0,0,1-.65-1.85,2.81,2.81,0,0,1,1.35-2.37,6.34,6.34,0,0,1,3.69-.94,9.77,9.77,0,0,1,2.12.22,8.82,8.82,0,0,1,1.59.48v2.5h-.28a6.45,6.45,0,0,0-1.6-.79,5.74,5.74,0,0,0-1.82-.3,3.48,3.48,0,0,0-1.29.21c-.35.14-.53.34-.53.6a.63.63,0,0,0,.24.53,3,3,0,0,0,1.12.37c.32.07.67.13,1,.19s.75.14,1.12.23a3.55,3.55,0,0,1,1.85,1A2.62,2.62,0,0,1,202.06,232.47Z" transform="translate(-107.79 -182.17)"/><path class="cls-2" d="M213.89,231.25h-7.25a2.28,2.28,0,0,0,.89,1.78,3.92,3.92,0,0,0,2.39.61,5.34,5.34,0,0,0,1.94-.36,6.19,6.19,0,0,0,1.49-.77h.35v2.54a12.41,12.41,0,0,1-2,.62,10.4,10.4,0,0,1-2.1.2,6.86,6.86,0,0,1-4.55-1.34,4.7,4.7,0,0,1-1.59-3.81,5.08,5.08,0,0,1,1.5-3.87,5.73,5.73,0,0,1,4.11-1.43,4.9,4.9,0,0,1,3.62,1.22,4.75,4.75,0,0,1,1.22,3.5Zm-3.15-1.85a2.24,2.24,0,0,0-.49-1.5,1.92,1.92,0,0,0-1.45-.5,2.33,2.33,0,0,0-1.51.48,2,2,0,0,0-.66,1.52Z" transform="translate(-107.79 -182.17)"/><path class="cls-2" d="M222.09,234.56l-.63.46a4.34,4.34,0,0,1-.71.43,4.07,4.07,0,0,1-1,.31,5.32,5.32,0,0,1-1.1.11,3.35,3.35,0,0,1-2.35-.87,2.91,2.91,0,0,1-1-2.23,3,3,0,0,1,.48-1.77,3.41,3.41,0,0,1,1.37-1.08,7.94,7.94,0,0,1,2.18-.56q1.31-.17,2.7-.24v-.06a1.14,1.14,0,0,0-.67-1.13,4.93,4.93,0,0,0-2-.31,5.41,5.41,0,0,0-1.67.28c-.6.18-1,.32-1.28.42h-.29v-2.38c.33-.09.88-.19,1.63-.31a14.35,14.35,0,0,1,2.26-.18,7.06,7.06,0,0,1,3.9.83,2.94,2.94,0,0,1,1.2,2.61v6.71h-3.14Zm0-1.54V231c-.42,0-.89.08-1.38.14a8,8,0,0,0-1.14.22,1.54,1.54,0,0,0-.72.43,1.08,1.08,0,0,0-.25.75,1.75,1.75,0,0,0,.05.5.72.72,0,0,0,.26.37,1.36,1.36,0,0,0,.49.26,3.59,3.59,0,0,0,.87.08,2.61,2.61,0,0,0,1-.19A3,3,0,0,0,222.09,233Z" transform="translate(-107.79 -182.17)"/><path class="cls-2" d="M235.3,228.75H235a2.41,2.41,0,0,0-.64-.11l-.75,0a6.05,6.05,0,0,0-2.31.38v6.61h-3.17v-9.87h3.17v1.45a6.61,6.61,0,0,1,1.82-1.19,3.91,3.91,0,0,1,1.42-.29h.38l.37,0Z" transform="translate(-107.79 -182.17)"/><path class="cls-2" d="M242.23,235.87a8.7,8.7,0,0,1-2.36-.31,5.28,5.28,0,0,1-1.86-.95A4.37,4.37,0,0,1,236.8,233a5.55,5.55,0,0,1-.43-2.28,5.66,5.66,0,0,1,.46-2.39,4.6,4.6,0,0,1,1.29-1.66,5.29,5.29,0,0,1,1.84-.91,8.23,8.23,0,0,1,2.17-.29,7.32,7.32,0,0,1,1.87.22,9.63,9.63,0,0,1,1.59.57V229h-.45l-.44-.37a4.17,4.17,0,0,0-.64-.41,3.73,3.73,0,0,0-.79-.32,3.37,3.37,0,0,0-1-.13,2.41,2.41,0,0,0-1.94.8,3.26,3.26,0,0,0-.68,2.19,3,3,0,0,0,.69,2.16,2.62,2.62,0,0,0,2,.74,4,4,0,0,0,1.08-.14,3.5,3.5,0,0,0,.79-.32,3.78,3.78,0,0,0,.53-.37c.15-.13.29-.25.42-.38h.45v2.7a9.34,9.34,0,0,1-1.56.56A7.17,7.17,0,0,1,242.23,235.87Z" transform="translate(-107.79 -182.17)"/><path class="cls-2" d="M257.59,235.6h-3.17v-4.89a11.71,11.71,0,0,0-.06-1.19,2.5,2.5,0,0,0-.21-.88,1,1,0,0,0-.52-.47,2.36,2.36,0,0,0-.94-.15,2.74,2.74,0,0,0-.88.14,4.49,4.49,0,0,0-1,.45v7h-3.17V221.93h3.17v4.89a7.74,7.74,0,0,1,1.62-1,4.21,4.21,0,0,1,1.73-.35,3.3,3.3,0,0,1,2.49.93,3.87,3.87,0,0,1,.9,2.79Z" transform="translate(-107.79 -182.17)"/></g><g class="cls-1"><path class="cls-2" d="M183,253.13a6.27,6.27,0,0,1-.38,2.22,4.9,4.9,0,0,1-1,1.66,4.21,4.21,0,0,1-1.43,1,4.09,4.09,0,0,1-1.71.35,4.93,4.93,0,0,1-1.43-.18,6.67,6.67,0,0,1-1.2-.5v4.11H172.7V248.33h3.17v1a7.26,7.26,0,0,1,1.49-.94,4,4,0,0,1,1.75-.36,3.37,3.37,0,0,1,2.86,1.35A6,6,0,0,1,183,253.13Zm-3.26.07a3.47,3.47,0,0,0-.5-2.09,1.79,1.79,0,0,0-1.55-.65,3.35,3.35,0,0,0-.92.13,4,4,0,0,0-.9.39v5a2.43,2.43,0,0,0,.67.16c.24,0,.48,0,.71,0a2.3,2.3,0,0,0,1.87-.74A3.34,3.34,0,0,0,179.74,253.2Z" transform="translate(-107.79 -182.17)"/><path class="cls-2" d="M192.44,251.35h-.28a2.59,2.59,0,0,0-.65-.11l-.75,0a6.05,6.05,0,0,0-2.31.38v6.61h-3.17v-9.87h3.17v1.45a6.76,6.76,0,0,1,1.82-1.19,3.91,3.91,0,0,1,1.42-.29h.38l.37,0Z" transform="translate(-107.79 -182.17)"/><path class="cls-2" d="M204.32,253.27a5.16,5.16,0,0,1-1.42,3.84,6.37,6.37,0,0,1-8,0,5.9,5.9,0,0,1,0-7.69,6.35,6.35,0,0,1,8,0A5.19,5.19,0,0,1,204.32,253.27Zm-3.89,2.4a2.69,2.69,0,0,0,.46-.91,5.61,5.61,0,0,0,.15-1.47,5.51,5.51,0,0,0-.16-1.46,2.42,2.42,0,0,0-.44-.94,1.51,1.51,0,0,0-.67-.51,2.43,2.43,0,0,0-.86-.15,2.55,2.55,0,0,0-.81.12,1.67,1.67,0,0,0-.68.49,2.55,2.55,0,0,0-.46.95,5.25,5.25,0,0,0-.17,1.5,5.77,5.77,0,0,0,.15,1.4,2.33,2.33,0,0,0,.44.95,1.56,1.56,0,0,0,.67.5,2.28,2.28,0,0,0,.89.16,2.48,2.48,0,0,0,.82-.14A1.6,1.6,0,0,0,200.43,255.67Z" transform="translate(-107.79 -182.17)"/><path class="cls-2" d="M210.86,258.38a3.32,3.32,0,0,1-1,2.6,3.77,3.77,0,0,1-2.65.94,14.75,14.75,0,0,1-1.56-.08,9.59,9.59,0,0,1-1-.15v-2.27h.25a3.63,3.63,0,0,0,.66.15,4.35,4.35,0,0,0,.62.06,1.33,1.33,0,0,0,1.24-.54,3.59,3.59,0,0,0,.34-1.79v-6.82h-1.88v-2.15h5.05Zm0-11.46h-3.38v-2.39h3.38Z" transform="translate(-107.79 -182.17)"/><path class="cls-2" d="M223.56,253.85h-7.24a2.27,2.27,0,0,0,.88,1.78,3.92,3.92,0,0,0,2.39.61,5.43,5.43,0,0,0,1.95-.36,6.3,6.3,0,0,0,1.48-.77h.35v2.54a12.41,12.41,0,0,1-2,.62,10.44,10.44,0,0,1-2.1.19,6.86,6.86,0,0,1-4.55-1.33,4.69,4.69,0,0,1-1.58-3.81,5.08,5.08,0,0,1,1.5-3.87,5.68,5.68,0,0,1,4.1-1.43,4.93,4.93,0,0,1,3.63,1.22,4.78,4.78,0,0,1,1.21,3.5ZM220.41,252a2.24,2.24,0,0,0-.49-1.5,1.9,1.9,0,0,0-1.45-.5,2.29,2.29,0,0,0-1.5.48,2,2,0,0,0-.66,1.52Z" transform="translate(-107.79 -182.17)"/><path class="cls-2" d="M230.93,258.46a8.71,8.71,0,0,1-2.36-.3,5.28,5.28,0,0,1-1.86-1,4.37,4.37,0,0,1-1.21-1.62,5.55,5.55,0,0,1-.43-2.28,5.66,5.66,0,0,1,.46-2.39,4.6,4.6,0,0,1,1.29-1.66,5.29,5.29,0,0,1,1.84-.91,8.31,8.31,0,0,1,2.18-.29,7.3,7.3,0,0,1,1.86.22,8.53,8.53,0,0,1,1.59.57v2.7h-.45l-.44-.37a4.37,4.37,0,0,0-1.43-.73,3.32,3.32,0,0,0-1-.13,2.41,2.41,0,0,0-1.94.8,3.26,3.26,0,0,0-.68,2.19,3,3,0,0,0,.7,2.16,2.58,2.58,0,0,0,2,.74,4,4,0,0,0,1.08-.14,3.5,3.5,0,0,0,.79-.32,3.78,3.78,0,0,0,.53-.37l.42-.38h.45v2.7a9.34,9.34,0,0,1-1.56.56A7.19,7.19,0,0,1,230.93,258.46Z" transform="translate(-107.79 -182.17)"/><path class="cls-2" d="M242.69,258.11a8.61,8.61,0,0,1-1.08.21,11.13,11.13,0,0,1-1.4.07,4.21,4.21,0,0,1-2.74-.74,3.17,3.17,0,0,1-.9-2.56v-4.61h-1.3v-2.15h1.3v-2.82h3.17v2.82h2.95v2.15h-2.95V254c0,.35,0,.65,0,.91a1.7,1.7,0,0,0,.14.69.93.93,0,0,0,.43.49,1.85,1.85,0,0,0,.91.18,4,4,0,0,0,1.2-.3h.26Z" transform="translate(-107.79 -182.17)"/><path class="cls-2" d="M253.16,255.07a2.88,2.88,0,0,1-1.37,2.47,6.63,6.63,0,0,1-3.75.93,10.92,10.92,0,0,1-2.39-.24,9.6,9.6,0,0,1-1.73-.55v-2.6h.29l.55.37a5.41,5.41,0,0,0,.89.42,6.92,6.92,0,0,0,1.11.35,5.74,5.74,0,0,0,1.34.14,3.46,3.46,0,0,0,1.38-.2.66.66,0,0,0,.45-.61.58.58,0,0,0-.27-.53,3.69,3.69,0,0,0-1-.31c-.23-.05-.55-.11-.95-.17s-.77-.14-1.1-.22a3.88,3.88,0,0,1-2-1.1,2.66,2.66,0,0,1-.65-1.85,2.81,2.81,0,0,1,1.35-2.37,6.28,6.28,0,0,1,3.68-.94,9.71,9.71,0,0,1,2.12.22,8.57,8.57,0,0,1,1.59.48v2.5h-.27a6.35,6.35,0,0,0-1.61-.79,5.69,5.69,0,0,0-1.82-.3,3.48,3.48,0,0,0-1.29.21c-.34.14-.52.34-.52.6a.63.63,0,0,0,.24.53,3,3,0,0,0,1.11.37c.33.07.67.13,1,.19s.74.14,1.12.23a3.52,3.52,0,0,1,1.84,1A2.57,2.57,0,0,1,253.16,255.07Z" transform="translate(-107.79 -182.17)"/></g></g></g></g><g id="Group_333" data-name="Group 333"><path id="Path_523" data-name="Path 523" class="cls-3" d="M122.17,285.25V192.19c0-4.7,4.08-8.52,9.1-8.52H293.43c5,0,9.11,3.83,9.11,8.52v93.07" transform="translate(-107.79 -182.17)"/><path id="Path_524" data-name="Path 524" class="cls-3" d="M283.21,285.26V201.6H141.5v83.66" transform="translate(-107.79 -182.17)"/><path id="Path_525" data-name="Path 525" class="cls-3" d="M109.29,285.26v13.48s7.12,4.44,12.35,4.44H303.06c5.23,0,12.36-4.44,12.36-4.44V285.26Z" transform="translate(-107.79 -182.17)"/></g></g></svg>