<svg id="aa07f7cc-57d2-4f72-8cb4-a9f6a1e50a6c" data-name="step5" xmlns="http://www.w3.org/2000/svg" viewBox="0 0 199.9 196.39"><defs><style>.bcab1eaf-7a8d-40a3-a40e-0daed12bdda0{fill:#0097ff;}.bc5837a5-c6aa-4d1a-a31a-5be5866f9fd3{fill:#00cbff;}.e853842f-7a94-4c42-b643-5289819d58fe{fill:#fff;stroke:#00cbff;stroke-miterlimit:10;}.b4aeeb85-952f-4445-9b02-3edceb221490{fill:#145067;}</style></defs><title>5-comp2</title><path class="bcab1eaf-7a8d-40a3-a40e-0daed12bdda0" d="M373.54,260.83a3,3,0,0,1-3-3V200.54a3,3,0,0,1,5.95,0v57.32A3,3,0,0,1,373.54,260.83Z" transform="translate(-245.89 -64.44)"/><polygon class="bcab1eaf-7a8d-40a3-a40e-0daed12bdda0" points="151.96 155.8 147.61 159.85 127.66 138.39 107.7 159.85 103.35 155.8 127.66 129.66 151.96 155.8"/><path class="bc5837a5-c6aa-4d1a-a31a-5be5866f9fd3" d="M258.38,163V72.7c0-4.55,4-8.26,8.83-8.26H424.47c4.87,0,8.83,3.71,8.83,8.26V163" transform="translate(-245.89 -64.44)"/><polyline class="e853842f-7a94-4c42-b643-5289819d58fe" points="176.49 98.51 176.49 12.04 23.59 12.04 23.59 98.51"/><path class="bc5837a5-c6aa-4d1a-a31a-5be5866f9fd3" d="M245.89,163V176s6.91,4.31,12,4.31H433.8c5.08,0,12-4.31,12-4.31V163Z" transform="translate(-245.89 -64.44)"/><path class="b4aeeb85-952f-4445-9b02-3edceb221490" d="M315.88,99.91a6.33,6.33,0,0,1-.82,3.23,6.12,6.12,0,0,1-2.07,2.18,6.4,6.4,0,0,1-2.07.79,13.72,13.72,0,0,1-2.66.23h-4.54V93.46h4.67a11.87,11.87,0,0,1,2.71.27,6.26,6.26,0,0,1,1.92.74,5.91,5.91,0,0,1,2.1,2.2A6.58,6.58,0,0,1,315.88,99.91Zm-3.43,0a4.74,4.74,0,0,0-.46-2.18,3.25,3.25,0,0,0-1.47-1.41,3.73,3.73,0,0,0-1-.34,10.4,10.4,0,0,0-1.6-.09H307v8.06h.84a10,10,0,0,0,1.73-.11,3.86,3.86,0,0,0,1.09-.39A3.23,3.23,0,0,0,312,102,4.93,4.93,0,0,0,312.45,99.89Z" transform="translate(-245.89 -64.44)"/><path class="b4aeeb85-952f-4445-9b02-3edceb221490" d="M327.81,102.06h-7.13a2.28,2.28,0,0,0,.87,1.75,3.91,3.91,0,0,0,2.36.6,5.43,5.43,0,0,0,1.91-.35,6.13,6.13,0,0,0,1.46-.76h.35v2.49a11.49,11.49,0,0,1-2,.62,10.13,10.13,0,0,1-2.07.19,6.75,6.75,0,0,1-4.48-1.32,4.63,4.63,0,0,1-1.55-3.74A5,5,0,0,1,319,97.73a5.6,5.6,0,0,1,4-1.41,4.84,4.84,0,0,1,3.57,1.2,4.71,4.71,0,0,1,1.19,3.45Zm-3.1-1.83a2.17,2.17,0,0,0-.48-1.47,1.9,1.9,0,0,0-1.43-.49,2.3,2.3,0,0,0-1.48.47,2,2,0,0,0-.65,1.49Z" transform="translate(-245.89 -64.44)"/><path class="b4aeeb85-952f-4445-9b02-3edceb221490" d="M339.79,96.63,336,106.34h-3.53l-3.71-9.71h3.28l2.26,6.68,2.22-6.68Z" transform="translate(-245.89 -64.44)"/><path class="b4aeeb85-952f-4445-9b02-3edceb221490" d="M344.73,95.24h-3.3V92.88h3.3Zm-.09,11.1h-3.12V96.63h3.12Z" transform="translate(-245.89 -64.44)"/><path class="b4aeeb85-952f-4445-9b02-3edceb221490" d="M352.63,106.6a8.41,8.41,0,0,1-2.32-.3,5.29,5.29,0,0,1-1.83-.94,4.35,4.35,0,0,1-1.2-1.59,5.58,5.58,0,0,1-.42-2.25,5.46,5.46,0,0,1,.46-2.34,4.46,4.46,0,0,1,1.26-1.64,5.54,5.54,0,0,1,1.82-.9,7.93,7.93,0,0,1,2.13-.28,7.09,7.09,0,0,1,1.84.22,8.21,8.21,0,0,1,1.56.56v2.65h-.44l-.43-.36a4.3,4.3,0,0,0-.63-.41,4.53,4.53,0,0,0-.78-.31,3.23,3.23,0,0,0-1-.13,2.37,2.37,0,0,0-1.91.79,3.22,3.22,0,0,0-.67,2.15,3,3,0,0,0,.68,2.13,2.58,2.58,0,0,0,2,.73,3.89,3.89,0,0,0,1.06-.14,3.62,3.62,0,0,0,.78-.31,4.33,4.33,0,0,0,.52-.37,5.06,5.06,0,0,0,.41-.37h.44v2.66a9,9,0,0,1-1.53.55A7.55,7.55,0,0,1,352.63,106.6Z" transform="translate(-245.89 -64.44)"/><path class="b4aeeb85-952f-4445-9b02-3edceb221490" d="M367.56,102.06h-7.13a2.28,2.28,0,0,0,.87,1.75,3.89,3.89,0,0,0,2.36.6,5.47,5.47,0,0,0,1.91-.35,6.33,6.33,0,0,0,1.46-.76h.34v2.49a11.14,11.14,0,0,1-2,.62,10.27,10.27,0,0,1-2.07.19,6.75,6.75,0,0,1-4.48-1.32,4.61,4.61,0,0,1-1.56-3.74,5,5,0,0,1,1.48-3.81,5.6,5.6,0,0,1,4-1.41,4.8,4.8,0,0,1,3.56,1.2,4.67,4.67,0,0,1,1.2,3.45Zm-3.1-1.83a2.23,2.23,0,0,0-.48-1.47,1.92,1.92,0,0,0-1.43-.49,2.3,2.3,0,0,0-1.48.47,2,2,0,0,0-.65,1.49Z" transform="translate(-245.89 -64.44)"/><path class="b4aeeb85-952f-4445-9b02-3edceb221490" d="M389.92,106.34H385.8l-1.2-1.09a5.83,5.83,0,0,1-1.9,1,7.28,7.28,0,0,1-2.2.34,5.74,5.74,0,0,1-3.75-1.11,3.51,3.51,0,0,1-1.37-2.87,3.33,3.33,0,0,1,.22-1.28,3.54,3.54,0,0,1,.57-1,3.34,3.34,0,0,1,.78-.72,6.64,6.64,0,0,1,.84-.52,7.89,7.89,0,0,1-.7-.57,3.39,3.39,0,0,1-.57-.63,3,3,0,0,1-.36-.74,2.92,2.92,0,0,1-.13-.92,2.57,2.57,0,0,1,.26-1.13,2.72,2.72,0,0,1,.78-1,4.12,4.12,0,0,1,1.44-.71,8.37,8.37,0,0,1,4-.07,4.55,4.55,0,0,1,1.39.59,2.52,2.52,0,0,1,.81.88A2.23,2.23,0,0,1,385,96a3.49,3.49,0,0,1-.12.87,2.49,2.49,0,0,1-.43.9,3.8,3.8,0,0,1-.89.84,5.49,5.49,0,0,1-1.51.69l2.65,2.33V98.82h3.22v1a5.57,5.57,0,0,1-.34,2,4.39,4.39,0,0,1-1,1.55l3.3,2.88Zm-6.85-2.55-3.68-3.28a2.25,2.25,0,0,0-.41.62,2.27,2.27,0,0,0,0,2,2.24,2.24,0,0,0,.55.69,2.48,2.48,0,0,0,.77.41,2.73,2.73,0,0,0,.83.14,4.07,4.07,0,0,0,1-.12A2.54,2.54,0,0,0,383.07,103.79Zm-1.3-7.43a1.42,1.42,0,0,0-.14-.71,1.15,1.15,0,0,0-.33-.41,1.09,1.09,0,0,0-.44-.17l-.36,0-.33,0a1.09,1.09,0,0,0-.73.54,1.18,1.18,0,0,0-.14.63,1.49,1.49,0,0,0,.41,1,6.73,6.73,0,0,0,1.09,1,2.73,2.73,0,0,0,.73-.84A2.14,2.14,0,0,0,381.77,96.36Z" transform="translate(-245.89 -64.44)"/><path class="b4aeeb85-952f-4445-9b02-3edceb221490" d="M291.07,127.51a10.51,10.51,0,0,1-1.06.2,10.69,10.69,0,0,1-1.38.07,4.16,4.16,0,0,1-2.7-.73,3.12,3.12,0,0,1-.88-2.52V120h-1.28v-2.11h1.28v-2.77h3.12v2.77h2.9V120h-2.9v3.45c0,.34,0,.64,0,.89a1.88,1.88,0,0,0,.13.69,1,1,0,0,0,.43.48,1.9,1.9,0,0,0,.89.17,2.57,2.57,0,0,0,.64-.1,2.41,2.41,0,0,0,.54-.19h.26Z" transform="translate(-245.89 -64.44)"/><path class="b4aeeb85-952f-4445-9b02-3edceb221490" d="M302.69,127.59h-3.12v-4.81a11.51,11.51,0,0,0-.06-1.18,3.06,3.06,0,0,0-.21-.86,1.09,1.09,0,0,0-.51-.46,2.31,2.31,0,0,0-.93-.15,2.92,2.92,0,0,0-.86.14,4.63,4.63,0,0,0-.95.44v6.88h-3.12V114.14h3.12V119a8.21,8.21,0,0,1,1.6-1,4.07,4.07,0,0,1,1.7-.35,3.26,3.26,0,0,1,2.45.92,3.81,3.81,0,0,1,.89,2.74Z" transform="translate(-245.89 -64.44)"/><path class="b4aeeb85-952f-4445-9b02-3edceb221490" d="M315.11,123.31H308a2.23,2.23,0,0,0,.87,1.75,3.88,3.88,0,0,0,2.35.6,5.26,5.26,0,0,0,1.92-.35,6.33,6.33,0,0,0,1.46-.76h.34v2.5a10.91,10.91,0,0,1-2,.61,10.1,10.1,0,0,1-2.06.19,6.78,6.78,0,0,1-4.48-1.31,4.64,4.64,0,0,1-1.56-3.75,5,5,0,0,1,1.48-3.81,5.64,5.64,0,0,1,4-1.4,4.8,4.8,0,0,1,3.56,1.2,4.64,4.64,0,0,1,1.19,3.44ZM312,121.49a2.18,2.18,0,0,0-.49-1.47,1.84,1.84,0,0,0-1.42-.5,2.28,2.28,0,0,0-1.48.47,2,2,0,0,0-.65,1.5Z" transform="translate(-245.89 -64.44)"/><path class="b4aeeb85-952f-4445-9b02-3edceb221490" d="M324.35,120.85h-.28a2.8,2.8,0,0,0-.64-.11l-.73,0a6.79,6.79,0,0,0-1.17.09,5.81,5.81,0,0,0-1.1.29v6.5h-3.12v-9.71h3.12v1.43a6.39,6.39,0,0,1,1.79-1.17,3.81,3.81,0,0,1,1.4-.29H324l.36,0Z" transform="translate(-245.89 -64.44)"/><path class="b4aeeb85-952f-4445-9b02-3edceb221490" d="M332,126.56l-.63.46a5.11,5.11,0,0,1-.7.43,4.38,4.38,0,0,1-.95.3,5.22,5.22,0,0,1-1.08.1,3.31,3.31,0,0,1-2.32-.85,2.84,2.84,0,0,1-.93-2.19,3,3,0,0,1,.47-1.74,3.22,3.22,0,0,1,1.35-1.06,7.62,7.62,0,0,1,2.15-.56c.85-.11,1.73-.19,2.65-.24v0a1.11,1.11,0,0,0-.66-1.11,4.6,4.6,0,0,0-1.93-.31,5.67,5.67,0,0,0-1.65.27c-.58.18-1,.32-1.25.42h-.28v-2.34c.32-.09.86-.19,1.6-.31a13.88,13.88,0,0,1,2.23-.18,6.94,6.94,0,0,1,3.83.82,2.9,2.9,0,0,1,1.18,2.57v6.6H332Zm0-1.51v-2c-.43,0-.88.08-1.37.14a6.84,6.84,0,0,0-1.12.21,1.51,1.51,0,0,0-.71.43,1.08,1.08,0,0,0-.25.73,2.11,2.11,0,0,0,.05.49.87.87,0,0,0,.26.37,1.38,1.38,0,0,0,.48.25,3.06,3.06,0,0,0,.86.08,2.48,2.48,0,0,0,.95-.19A2.89,2.89,0,0,0,332,125.05Z" transform="translate(-245.89 -64.44)"/><path class="b4aeeb85-952f-4445-9b02-3edceb221490" d="M348.08,122.6a6.14,6.14,0,0,1-.37,2.19,4.72,4.72,0,0,1-1,1.63,4.2,4.2,0,0,1-1.41,1,4.1,4.1,0,0,1-1.68.34,5.18,5.18,0,0,1-1.41-.17,6.94,6.94,0,0,1-1.18-.5v4h-3.13V117.88h3.13v1a7,7,0,0,1,1.46-.92,3.92,3.92,0,0,1,1.72-.36,3.35,3.35,0,0,1,2.82,1.33A5.89,5.89,0,0,1,348.08,122.6Zm-3.21.07a3.47,3.47,0,0,0-.48-2.06,1.81,1.81,0,0,0-1.53-.64,3.3,3.3,0,0,0-.91.14,4,4,0,0,0-.88.38v4.88a2.77,2.77,0,0,0,.66.16l.7,0a2.28,2.28,0,0,0,1.84-.72A3.32,3.32,0,0,0,344.87,122.67Z" transform="translate(-245.89 -64.44)"/><path class="b4aeeb85-952f-4445-9b02-3edceb221490" d="M359.89,123.31h-7.12a2.21,2.21,0,0,0,.87,1.75,3.86,3.86,0,0,0,2.35.6,5.17,5.17,0,0,0,1.91-.35,5.94,5.94,0,0,0,1.46-.76h.35v2.5a11.15,11.15,0,0,1-2,.61,10.1,10.1,0,0,1-2.06.19,6.83,6.83,0,0,1-4.49-1.31,4.67,4.67,0,0,1-1.55-3.75,5,5,0,0,1,1.47-3.81,5.66,5.66,0,0,1,4.05-1.4,4.82,4.82,0,0,1,3.56,1.2,4.64,4.64,0,0,1,1.19,3.44Zm-3.09-1.82a2.18,2.18,0,0,0-.49-1.47,1.84,1.84,0,0,0-1.42-.5,2.28,2.28,0,0,0-1.48.47,2,2,0,0,0-.65,1.5Z" transform="translate(-245.89 -64.44)"/><path class="b4aeeb85-952f-4445-9b02-3edceb221490" d="M371.77,127.59h-3.13v-1.07a9,9,0,0,1-1.58,1,3.92,3.92,0,0,1-1.71.34,3.24,3.24,0,0,1-2.47-.92,3.87,3.87,0,0,1-.87-2.74v-6.32h3.12v4.82c0,.49,0,.9.05,1.22a2.17,2.17,0,0,0,.22.81,1,1,0,0,0,.5.47,2.31,2.31,0,0,0,.93.15,3,3,0,0,0,.88-.15,3.9,3.9,0,0,0,.93-.43v-6.89h3.13Z" transform="translate(-245.89 -64.44)"/><path class="b4aeeb85-952f-4445-9b02-3edceb221490" d="M380.92,127.51a9.21,9.21,0,0,1-2.44.27,4.2,4.2,0,0,1-2.71-.73,3.12,3.12,0,0,1-.88-2.52V120h-1.28v-2.11h1.28v-2.77H378v2.77h2.91V120H378v3.45c0,.34,0,.64,0,.89a1.7,1.7,0,0,0,.14.69,1,1,0,0,0,.42.48,1.94,1.94,0,0,0,.9.17,2.51,2.51,0,0,0,.63-.1,2.76,2.76,0,0,0,.55-.19h.26Z" transform="translate(-245.89 -64.44)"/><path class="b4aeeb85-952f-4445-9b02-3edceb221490" d="M386,116.5h-3.29v-2.36H386Zm-.08,11.09h-3.13v-9.71h3.13Z" transform="translate(-245.89 -64.44)"/><path class="b4aeeb85-952f-4445-9b02-3edceb221490" d="M393.89,127.85a8.41,8.41,0,0,1-2.32-.3,5,5,0,0,1-1.83-.93,4.36,4.36,0,0,1-1.2-1.6,5.49,5.49,0,0,1-.42-2.24,5.63,5.63,0,0,1,.45-2.35,4.55,4.55,0,0,1,1.27-1.63,5.09,5.09,0,0,1,1.82-.9,7.88,7.88,0,0,1,2.13-.29,7.61,7.61,0,0,1,1.84.22,8.47,8.47,0,0,1,1.56.56v2.66h-.44l-.44-.37a4.17,4.17,0,0,0-.62-.4,4.55,4.55,0,0,0-.78-.32,3.6,3.6,0,0,0-1-.12,2.38,2.38,0,0,0-1.92.79,3.23,3.23,0,0,0-.67,2.15,3,3,0,0,0,.69,2.12,2.54,2.54,0,0,0,2,.73,3.9,3.9,0,0,0,1.06-.13,3.6,3.6,0,0,0,.78-.32,4.5,4.5,0,0,0,.51-.36c.16-.13.29-.25.42-.37h.44v2.65a9,9,0,0,1-1.53.55A7.55,7.55,0,0,1,393.89,127.85Z" transform="translate(-245.89 -64.44)"/><path class="b4aeeb85-952f-4445-9b02-3edceb221490" d="M407.69,124.51a2.81,2.81,0,0,1-1.35,2.43,6.5,6.5,0,0,1-3.69.92,10.55,10.55,0,0,1-2.35-.24,8.55,8.55,0,0,1-1.7-.54v-2.56h.29l.54.36a5.08,5.08,0,0,0,.87.42,6.68,6.68,0,0,0,1.09.34,5.56,5.56,0,0,0,1.32.15,3.35,3.35,0,0,0,1.36-.21.64.64,0,0,0,.44-.6.56.56,0,0,0-.26-.51,3.27,3.27,0,0,0-1-.31c-.23,0-.54-.11-.94-.17a9.14,9.14,0,0,1-1.07-.22,3.8,3.8,0,0,1-2-1.08,2.68,2.68,0,0,1-.64-1.82,2.78,2.78,0,0,1,1.33-2.33,6.25,6.25,0,0,1,3.63-.93,10.14,10.14,0,0,1,2.09.22,8.65,8.65,0,0,1,1.56.48v2.45H407a6.27,6.27,0,0,0-1.58-.77,5.56,5.56,0,0,0-1.79-.3,3.37,3.37,0,0,0-1.27.21c-.34.13-.51.33-.51.58a.61.61,0,0,0,.23.53,3.39,3.39,0,0,0,1.1.37l1,.18c.37.06.74.14,1.11.23a3.44,3.44,0,0,1,1.81,1A2.56,2.56,0,0,1,407.69,124.51Z" transform="translate(-245.89 -64.44)"/><path class="b4aeeb85-952f-4445-9b02-3edceb221490" d="M302.21,148.85h-3.12v-1a6.71,6.71,0,0,1-1.5,1,3.94,3.94,0,0,1-1.62.31,3.4,3.4,0,0,1-2.83-1.36,5.84,5.84,0,0,1-1.06-3.69,6.21,6.21,0,0,1,.36-2.19,4.81,4.81,0,0,1,1-1.64,3.9,3.9,0,0,1,1.42-1,4.24,4.24,0,0,1,1.68-.36,4.79,4.79,0,0,1,1.43.18,10.59,10.59,0,0,1,1.14.47v-4.13h3.12Zm-3.12-2.68V141.4a3.22,3.22,0,0,0-.69-.2,4,4,0,0,0-.66-.06,2.22,2.22,0,0,0-1.84.77,3.3,3.3,0,0,0-.62,2.12,3.44,3.44,0,0,0,.5,2.08,1.84,1.84,0,0,0,1.58.64,2.66,2.66,0,0,0,.89-.16A2.76,2.76,0,0,0,299.09,146.17Z" transform="translate(-245.89 -64.44)"/><path class="b4aeeb85-952f-4445-9b02-3edceb221490" d="M314.72,144.57h-7.13a2.24,2.24,0,0,0,.87,1.74,3.82,3.82,0,0,0,2.36.61,5.26,5.26,0,0,0,1.91-.36,6,6,0,0,0,1.46-.76h.35v2.5a12.43,12.43,0,0,1-2,.62,11,11,0,0,1-2.07.19,6.75,6.75,0,0,1-4.48-1.32,4.62,4.62,0,0,1-1.56-3.74,5,5,0,0,1,1.48-3.81,5.6,5.6,0,0,1,4-1.41,4.8,4.8,0,0,1,3.56,1.2,4.67,4.67,0,0,1,1.2,3.45Zm-3.1-1.83a2.23,2.23,0,0,0-.48-1.47,1.88,1.88,0,0,0-1.43-.49,2.3,2.3,0,0,0-1.48.46,2,2,0,0,0-.65,1.5Z" transform="translate(-245.89 -64.44)"/><path class="b4aeeb85-952f-4445-9b02-3edceb221490" d="M326.69,139.13,323,148.85h-3.53l-3.72-9.72H319l2.25,6.69,2.23-6.69Z" transform="translate(-245.89 -64.44)"/><path class="b4aeeb85-952f-4445-9b02-3edceb221490" d="M338,144.57h-7.13a2.24,2.24,0,0,0,.87,1.74,3.82,3.82,0,0,0,2.36.61,5.22,5.22,0,0,0,1.91-.36,5.78,5.78,0,0,0,1.46-.76h.35v2.5a12.43,12.43,0,0,1-2,.62,11,11,0,0,1-2.07.19,6.75,6.75,0,0,1-4.48-1.32,4.62,4.62,0,0,1-1.56-3.74,5,5,0,0,1,1.48-3.81,5.6,5.6,0,0,1,4-1.41,4.84,4.84,0,0,1,3.57,1.2,4.71,4.71,0,0,1,1.19,3.45Zm-3.1-1.83a2.17,2.17,0,0,0-.48-1.47,1.86,1.86,0,0,0-1.43-.49,2.3,2.3,0,0,0-1.48.46,2.07,2.07,0,0,0-.65,1.5Z" transform="translate(-245.89 -64.44)"/><path class="b4aeeb85-952f-4445-9b02-3edceb221490" d="M343.31,148.85h-3.13V135.39h3.13Z" transform="translate(-245.89 -64.44)"/><path class="b4aeeb85-952f-4445-9b02-3edceb221490" d="M356.17,144a5.08,5.08,0,0,1-1.4,3.78,6.27,6.27,0,0,1-7.85,0,5.82,5.82,0,0,1,0-7.56,6.25,6.25,0,0,1,7.85,0A5.11,5.11,0,0,1,356.17,144Zm-3.84,2.37a2.4,2.4,0,0,0,.46-.9,5.49,5.49,0,0,0,.15-1.45,5.27,5.27,0,0,0-.16-1.43,2.36,2.36,0,0,0-.43-.93,1.46,1.46,0,0,0-.66-.5,2.32,2.32,0,0,0-.84-.15,2.45,2.45,0,0,0-.8.12,1.59,1.59,0,0,0-.67.49,2.55,2.55,0,0,0-.46.92,6.48,6.48,0,0,0,0,2.86,2.48,2.48,0,0,0,.43.94,1.69,1.69,0,0,0,.67.49,2.14,2.14,0,0,0,.87.16,2.42,2.42,0,0,0,.81-.14A1.48,1.48,0,0,0,352.33,146.36Z" transform="translate(-245.89 -64.44)"/><path class="b4aeeb85-952f-4445-9b02-3edceb221490" d="M368.53,143.86a6.27,6.27,0,0,1-.36,2.18,4.9,4.9,0,0,1-1,1.63,4.14,4.14,0,0,1-3.09,1.37,4.83,4.83,0,0,1-1.41-.18,6.5,6.5,0,0,1-1.18-.5v4H358.4V139.13h3.12v1a8.11,8.11,0,0,1,1.46-.93,4,4,0,0,1,1.73-.35,3.32,3.32,0,0,1,2.82,1.33A6,6,0,0,1,368.53,143.86Zm-3.2.06a3.43,3.43,0,0,0-.49-2,1.78,1.78,0,0,0-1.53-.64,3.21,3.21,0,0,0-.9.13,3.71,3.71,0,0,0-.89.39v4.87a2.45,2.45,0,0,0,.66.16l.7,0a2.25,2.25,0,0,0,1.84-.72A3.32,3.32,0,0,0,365.33,143.92Z" transform="translate(-245.89 -64.44)"/><path class="b4aeeb85-952f-4445-9b02-3edceb221490" d="M380.35,144.57h-7.13a2.24,2.24,0,0,0,.87,1.74,3.82,3.82,0,0,0,2.36.61,5.26,5.26,0,0,0,1.91-.36,6,6,0,0,0,1.46-.76h.35v2.5a12.22,12.22,0,0,1-2,.62,10.86,10.86,0,0,1-2.06.19,6.75,6.75,0,0,1-4.48-1.32,4.62,4.62,0,0,1-1.56-3.74,5,5,0,0,1,1.48-3.81,5.6,5.6,0,0,1,4-1.41,4.8,4.8,0,0,1,3.56,1.2,4.67,4.67,0,0,1,1.2,3.45Zm-3.1-1.83a2.18,2.18,0,0,0-.49-1.47,1.84,1.84,0,0,0-1.42-.49,2.3,2.3,0,0,0-1.48.46,2,2,0,0,0-.65,1.5Z" transform="translate(-245.89 -64.44)"/><path class="b4aeeb85-952f-4445-9b02-3edceb221490" d="M389.58,142.1h-.27a3.18,3.18,0,0,0-.64-.1,7.38,7.38,0,0,0-.74,0,6.79,6.79,0,0,0-1.17.09,6.94,6.94,0,0,0-1.1.29v6.51h-3.12v-9.72h3.12v1.43a6.39,6.39,0,0,1,1.79-1.17,4,4,0,0,1,1.4-.29h.37l.36,0Z" transform="translate(-245.89 -64.44)"/><path class="b4aeeb85-952f-4445-9b02-3edceb221490" d="M399.79,145.77a2.8,2.8,0,0,1-1.35,2.42,6.42,6.42,0,0,1-3.69.92,10.64,10.64,0,0,1-2.36-.24,9.21,9.21,0,0,1-1.69-.53v-2.56H391l.54.36a6.07,6.07,0,0,0,.87.41,7.12,7.12,0,0,0,1.1.35,6.14,6.14,0,0,0,1.32.14,3.48,3.48,0,0,0,1.35-.2.65.65,0,0,0,.44-.61.55.55,0,0,0-.26-.51,3.28,3.28,0,0,0-1-.31l-.94-.17a9.33,9.33,0,0,1-1.08-.22,3.87,3.87,0,0,1-2-1.07,2.66,2.66,0,0,1-.64-1.82,2.75,2.75,0,0,1,1.33-2.33,6.21,6.21,0,0,1,3.63-.93,9.41,9.41,0,0,1,2.08.22,7.57,7.57,0,0,1,1.56.47V142h-.26a6.63,6.63,0,0,0-1.58-.77,5.57,5.57,0,0,0-1.8-.3,3.32,3.32,0,0,0-1.26.21c-.35.14-.52.33-.52.59a.64.64,0,0,0,.24.53,3.14,3.14,0,0,0,1.09.36l1,.18c.37.06.73.14,1.1.23a3.5,3.5,0,0,1,1.82,1A2.56,2.56,0,0,1,399.79,145.77Z" transform="translate(-245.89 -64.44)"/></svg>