<svg id="afeffcc4-67c7-4dec-82b9-a93446658d7a" data-name="step5" xmlns="http://www.w3.org/2000/svg" viewBox="0 0 200.24 295.51"><defs><style>.e803ece7-12a7-47c3-8805-55525eedd2a8{fill:#0097ff;}.bf9d96b6-3278-4736-8ad5-0d0b745de29f{fill:#00cbff;}.fc7dc195-e291-43d7-87df-3a882e9edf15{fill:#fff;stroke:#00cbff;stroke-miterlimit:10;}.a5e26a84-f7de-486a-a363-927e41615ff6{fill:#145067;}</style></defs><title>5-comp3</title><path class="e803ece7-12a7-47c3-8805-55525eedd2a8" d="M550.64,461.57a3,3,0,0,1-2.43-4.67l31.54-45a30.2,30.2,0,0,0,4.57-14.52V303a3,3,0,0,1,5.95,0v94.4a36.07,36.07,0,0,1-5.66,17.93l-31.53,45A3,3,0,0,1,550.64,461.57Z" transform="translate(-465.73 -166.07)"/><polygon class="e803ece7-12a7-47c3-8805-55525eedd2a8" points="145.87 156.58 141.52 160.64 121.57 139.17 101.61 160.64 97.25 156.58 121.57 130.44 145.87 156.58"/><path class="bf9d96b6-3278-4736-8ad5-0d0b745de29f" d="M478.25,264.74v-90.4c0-4.56,4-8.27,8.84-8.27H644.62c4.88,0,8.84,3.71,8.84,8.27v90.4" transform="translate(-465.73 -166.07)"/><polyline class="fc7dc195-e291-43d7-87df-3a882e9edf15" points="176.94 98.68 176.94 12.75 24.04 12.75 24.04 98.68"/><path class="bf9d96b6-3278-4736-8ad5-0d0b745de29f" d="M465.73,264.74v13.1s6.92,4.32,12,4.32H654c5.09,0,12-4.32,12-4.32v-13.1Z" transform="translate(-465.73 -166.07)"/><path class="a5e26a84-f7de-486a-a363-927e41615ff6" d="M517.6,209.31a19.3,19.3,0,0,1-2.29.67,12.6,12.6,0,0,1-2.85.33,7.16,7.16,0,0,1-5.16-1.79,7.34,7.34,0,0,1,0-9.79,7.21,7.21,0,0,1,5.24-1.84,12.68,12.68,0,0,1,2.43.23,10.52,10.52,0,0,1,2.56.92v3h-.37l-.71-.52a7.66,7.66,0,0,0-.9-.56,5.71,5.71,0,0,0-1.17-.48,5.15,5.15,0,0,0-1.43-.2,4.75,4.75,0,0,0-1.6.26,3.63,3.63,0,0,0-1.29.8,3.58,3.58,0,0,0-.87,1.32,5,5,0,0,0-.31,1.85A4.45,4.45,0,0,0,510,206.8a4.56,4.56,0,0,0,3.36,1.14h.42l.42,0v-2.53h-2.58v-2.43h6Z" transform="translate(-465.73 -166.07)"/><path class="a5e26a84-f7de-486a-a363-927e41615ff6" d="M530.36,205.18A5.08,5.08,0,0,1,529,209a6.29,6.29,0,0,1-7.86,0,5.8,5.8,0,0,1,0-7.57,6.27,6.27,0,0,1,7.86,0A5.11,5.11,0,0,1,530.36,205.18Zm-3.84,2.37a2.54,2.54,0,0,0,.45-.9,5.49,5.49,0,0,0,.15-1.45,5.89,5.89,0,0,0-.15-1.44,2.59,2.59,0,0,0-.43-.93,1.62,1.62,0,0,0-.67-.5,2.32,2.32,0,0,0-.84-.15,2.44,2.44,0,0,0-.8.13,1.56,1.56,0,0,0-.67.48,2.53,2.53,0,0,0-.46.93,5.52,5.52,0,0,0-.17,1.48,5.6,5.6,0,0,0,.15,1.38,2.48,2.48,0,0,0,.43.94,1.63,1.63,0,0,0,.66.49,2.26,2.26,0,0,0,.88.16,2.38,2.38,0,0,0,.81-.14A1.57,1.57,0,0,0,526.52,207.55Z" transform="translate(-465.73 -166.07)"/><path class="a5e26a84-f7de-486a-a363-927e41615ff6" d="M542.39,200.31,538.64,210H535.1l-3.72-9.73h3.29l2.26,6.7,2.23-6.7Z" transform="translate(-465.73 -166.07)"/><path class="a5e26a84-f7de-486a-a363-927e41615ff6" d="M553.7,205.75h-7.14a2.25,2.25,0,0,0,.87,1.75,3.86,3.86,0,0,0,2.36.61,5.27,5.27,0,0,0,1.92-.36,5.61,5.61,0,0,0,1.46-.76h.35v2.51a12,12,0,0,1-2,.61,10.27,10.27,0,0,1-2.07.19A6.81,6.81,0,0,1,545,209a4.65,4.65,0,0,1-1.56-3.76,5,5,0,0,1,1.48-3.81,5.61,5.61,0,0,1,4.05-1.41,4.84,4.84,0,0,1,3.57,1.2,4.71,4.71,0,0,1,1.19,3.45Zm-3.1-1.82a2.24,2.24,0,0,0-.48-1.48,1.88,1.88,0,0,0-1.43-.49,2.28,2.28,0,0,0-1.48.47,2,2,0,0,0-.65,1.5Z" transform="translate(-465.73 -166.07)"/><path class="a5e26a84-f7de-486a-a363-927e41615ff6" d="M563,203.29h-.27a2.5,2.5,0,0,0-.64-.11l-.74,0a8.06,8.06,0,0,0-1.17.08,6.77,6.77,0,0,0-1.1.3V210H555.9v-9.73H559v1.43a6.39,6.39,0,0,1,1.79-1.17,4,4,0,0,1,1.4-.29h.37l.36,0Z" transform="translate(-465.73 -166.07)"/><path class="a5e26a84-f7de-486a-a363-927e41615ff6" d="M574.49,210h-3.12v-4.82a11.5,11.5,0,0,0-.07-1.18,2.72,2.72,0,0,0-.2-.86,1.11,1.11,0,0,0-.51-.47,2.52,2.52,0,0,0-.93-.14,2.9,2.9,0,0,0-.86.13,4.48,4.48,0,0,0-.95.45V210h-3.13v-9.73h3.13v1.08a8,8,0,0,1,1.59-1,4.14,4.14,0,0,1,1.7-.35,3.3,3.3,0,0,1,2.47.92,3.84,3.84,0,0,1,.88,2.75Z" transform="translate(-465.73 -166.07)"/><path class="a5e26a84-f7de-486a-a363-927e41615ff6" d="M586.86,203.15V210h-3.12v-4.86c0-.47,0-.87,0-1.21a2.19,2.19,0,0,0-.19-.81.94.94,0,0,0-.47-.45,2.15,2.15,0,0,0-.89-.14,2.28,2.28,0,0,0-.89.18,7.05,7.05,0,0,0-.78.4V210h-3.13v-9.73h3.13v1.08a8.61,8.61,0,0,1,1.54-1,3.63,3.63,0,0,1,1.62-.36,3.35,3.35,0,0,1,1.7.43,3,3,0,0,1,1.15,1.26,9.73,9.73,0,0,1,1.82-1.23A3.8,3.8,0,0,1,590,200a3,3,0,0,1,2.39,1,4.07,4.07,0,0,1,.82,2.72V210h-3.13v-4.86c0-.48,0-.88,0-1.21a2,2,0,0,0-.19-.81.92.92,0,0,0-.46-.45,2.26,2.26,0,0,0-.91-.14,2.21,2.21,0,0,0-.76.13A5.78,5.78,0,0,0,586.86,203.15Z" transform="translate(-465.73 -166.07)"/><path class="a5e26a84-f7de-486a-a363-927e41615ff6" d="M605.71,205.75h-7.13a2.19,2.19,0,0,0,.87,1.75,3.82,3.82,0,0,0,2.36.61,5.26,5.26,0,0,0,1.91-.36,5.61,5.61,0,0,0,1.46-.76h.35v2.51a12,12,0,0,1-2,.61,10.2,10.2,0,0,1-2.07.19A6.83,6.83,0,0,1,597,209a4.65,4.65,0,0,1-1.56-3.76,5,5,0,0,1,1.48-3.81A5.61,5.61,0,0,1,601,200a4.84,4.84,0,0,1,3.57,1.2,4.71,4.71,0,0,1,1.19,3.45Zm-3.1-1.82a2.24,2.24,0,0,0-.48-1.48,1.88,1.88,0,0,0-1.43-.49,2.28,2.28,0,0,0-1.48.47,2,2,0,0,0-.65,1.5Z" transform="translate(-465.73 -166.07)"/><path class="a5e26a84-f7de-486a-a363-927e41615ff6" d="M617.68,210h-3.12v-4.82a11.51,11.51,0,0,0-.06-1.18,2.43,2.43,0,0,0-.21-.86,1.11,1.11,0,0,0-.51-.47,2.52,2.52,0,0,0-.93-.14,2.9,2.9,0,0,0-.86.13,4.72,4.72,0,0,0-1,.45V210h-3.13v-9.73H611v1.08a8,8,0,0,1,1.6-1,4.07,4.07,0,0,1,1.7-.35,3.27,3.27,0,0,1,2.46.92,3.84,3.84,0,0,1,.88,2.75Z" transform="translate(-465.73 -166.07)"/><path class="a5e26a84-f7de-486a-a363-927e41615ff6" d="M626.77,210a10.51,10.51,0,0,1-1.06.2,10.9,10.9,0,0,1-1.38.07,4.2,4.2,0,0,1-2.71-.73,3.12,3.12,0,0,1-.89-2.52v-4.55h-1.28v-2.12h1.28v-2.78h3.13v2.78h2.91v2.12h-2.91v3.45c0,.34,0,.64,0,.89a1.67,1.67,0,0,0,.14.69,1,1,0,0,0,.43.48,1.77,1.77,0,0,0,.89.18A2.6,2.6,0,0,0,626,208a2,2,0,0,0,.55-.19h.26Z" transform="translate(-465.73 -166.07)"/><path class="a5e26a84-f7de-486a-a363-927e41615ff6" d="M541.44,231.33h-4.13l-1.2-1.09a5.78,5.78,0,0,1-1.91,1,6.94,6.94,0,0,1-2.2.34,5.85,5.85,0,0,1-3.76-1.1,3.54,3.54,0,0,1-1.37-2.88,3.59,3.59,0,0,1,.22-1.29,4.12,4.12,0,0,1,.57-1,3.79,3.79,0,0,1,.78-.72,8.44,8.44,0,0,1,.84-.52q-.36-.27-.69-.57a3.44,3.44,0,0,1-.57-.64,2.64,2.64,0,0,1-.37-.73,3.24,3.24,0,0,1-.13-.92,2.58,2.58,0,0,1,.26-1.14,3,3,0,0,1,.78-1,4.17,4.17,0,0,1,1.45-.71,8.41,8.41,0,0,1,4-.07,4.55,4.55,0,0,1,1.39.59,2.6,2.6,0,0,1,.81.88,2.41,2.41,0,0,1,.28,1.12,3.62,3.62,0,0,1-.12.87,2.49,2.49,0,0,1-.43.9,3.8,3.8,0,0,1-.89.84,5.87,5.87,0,0,1-1.52.7l2.65,2.32V223.8h3.24v1a5.66,5.66,0,0,1-.35,2,4.37,4.37,0,0,1-1,1.55l3.3,2.88Zm-6.86-2.55-3.69-3.29a2.42,2.42,0,0,0-.41.62,2.19,2.19,0,0,0-.23,1,2.08,2.08,0,0,0,.23,1,2.24,2.24,0,0,0,.55.69,2.32,2.32,0,0,0,.77.42,2.79,2.79,0,0,0,.84.14,4.07,4.07,0,0,0,1-.12A2.71,2.71,0,0,0,534.58,228.78Zm-1.3-7.45a1.6,1.6,0,0,0-.14-.71,1.14,1.14,0,0,0-.34-.4,1.07,1.07,0,0,0-.43-.18l-.37,0-.33,0a1.24,1.24,0,0,0-.41.19,1,1,0,0,0-.32.36,1.14,1.14,0,0,0-.14.62,1.53,1.53,0,0,0,.41,1,6.73,6.73,0,0,0,1.09,1,2.71,2.71,0,0,0,.73-.84A2.19,2.19,0,0,0,533.28,221.33Z" transform="translate(-465.73 -166.07)"/><path class="a5e26a84-f7de-486a-a363-927e41615ff6" d="M558.82,226.33a6.38,6.38,0,0,1-.37,2.2,4.85,4.85,0,0,1-1,1.62,4,4,0,0,1-3.1,1.37,4.83,4.83,0,0,1-1.41-.18,6.43,6.43,0,0,1-1.18-.49v4.05h-3.13V221.6h3.13v1a7.84,7.84,0,0,1,1.47-.93,3.89,3.89,0,0,1,1.72-.36,3.36,3.36,0,0,1,2.83,1.34A6,6,0,0,1,558.82,226.33Zm-3.22.07a3.47,3.47,0,0,0-.48-2.06,1.8,1.8,0,0,0-1.53-.64,3.63,3.63,0,0,0-.91.13,3.71,3.71,0,0,0-.89.39v4.89a2.43,2.43,0,0,0,.67.15,5.37,5.37,0,0,0,.7,0,2.26,2.26,0,0,0,1.84-.73A3.32,3.32,0,0,0,555.6,226.4Z" transform="translate(-465.73 -166.07)"/><path class="a5e26a84-f7de-486a-a363-927e41615ff6" d="M571,226.47a5,5,0,0,1-1.4,3.78,6.27,6.27,0,0,1-7.85,0,5.82,5.82,0,0,1,0-7.57,5.37,5.37,0,0,1,3.92-1.38,5.31,5.31,0,0,1,3.94,1.39A5.07,5.07,0,0,1,571,226.47Zm-3.84,2.37a2.4,2.4,0,0,0,.46-.9,5.49,5.49,0,0,0,.15-1.45,5.4,5.4,0,0,0-.16-1.44,2.51,2.51,0,0,0-.43-.93,1.53,1.53,0,0,0-.66-.5,2.34,2.34,0,0,0-.85-.15,2.48,2.48,0,0,0-.8.13,1.68,1.68,0,0,0-.67.48,2.52,2.52,0,0,0-.45.93,5.14,5.14,0,0,0-.17,1.48,5.6,5.6,0,0,0,.15,1.38,2.34,2.34,0,0,0,.43.94,1.51,1.51,0,0,0,.66.49,2.23,2.23,0,0,0,.88.16,2.46,2.46,0,0,0,.81-.14A1.48,1.48,0,0,0,567.17,228.84Z" transform="translate(-465.73 -166.07)"/><path class="a5e26a84-f7de-486a-a363-927e41615ff6" d="M576.37,231.33h-3.12V217.85h3.12Z" transform="translate(-465.73 -166.07)"/><path class="a5e26a84-f7de-486a-a363-927e41615ff6" d="M582.53,220.22h-3.31v-2.37h3.31Zm-.09,11.11h-3.13V221.6h3.13Z" transform="translate(-465.73 -166.07)"/><path class="a5e26a84-f7de-486a-a363-927e41615ff6" d="M590.44,231.59a8.41,8.41,0,0,1-2.32-.3,5.13,5.13,0,0,1-1.83-.94,4.14,4.14,0,0,1-1.2-1.59,6.3,6.3,0,0,1,0-4.6,4.48,4.48,0,0,1,1.27-1.64,5.17,5.17,0,0,1,1.82-.9,8,8,0,0,1,2.14-.29,7.52,7.52,0,0,1,1.83.22,8.79,8.79,0,0,1,1.57.56v2.66h-.44l-.44-.36a3.7,3.7,0,0,0-.62-.41,4.53,4.53,0,0,0-.78-.31,3.26,3.26,0,0,0-1-.13,2.37,2.37,0,0,0-1.91.79,3.23,3.23,0,0,0-.67,2.16,3,3,0,0,0,.68,2.13,2.59,2.59,0,0,0,2,.73,3.76,3.76,0,0,0,1.05-.14,3.51,3.51,0,0,0,.79-.31,4.33,4.33,0,0,0,.52-.37l.41-.37h.44v2.66a9,9,0,0,1-1.53.55A7.57,7.57,0,0,1,590.44,231.59Z" transform="translate(-465.73 -166.07)"/><path class="a5e26a84-f7de-486a-a363-927e41615ff6" d="M600.2,227.89l2.22-6.29h3.21l-5.41,13.3h-3.38l1.55-3.64-3.79-9.66h3.28Z" transform="translate(-465.73 -166.07)"/><path class="a5e26a84-f7de-486a-a363-927e41615ff6" d="M531.27,251.59l-.62.46a4,4,0,0,1-1.66.73,5.22,5.22,0,0,1-1.08.1,3.27,3.27,0,0,1-2.32-.86,2.82,2.82,0,0,1-.94-2.19,2.93,2.93,0,0,1,.48-1.74,3.22,3.22,0,0,1,1.35-1.06,7.62,7.62,0,0,1,2.15-.56c.85-.11,1.74-.19,2.66-.24v0a1.13,1.13,0,0,0-.66-1.12,4.88,4.88,0,0,0-1.94-.3A5.62,5.62,0,0,0,527,245c-.58.18-1,.32-1.25.42h-.29V243.1c.33-.09.87-.19,1.61-.31a15.12,15.12,0,0,1,2.23-.17,6.89,6.89,0,0,1,3.84.82,2.89,2.89,0,0,1,1.18,2.56v6.62h-3.09Zm0-1.51v-2c-.42,0-.88.08-1.37.14a6.84,6.84,0,0,0-1.12.21,1.51,1.51,0,0,0-.71.43,1.1,1.1,0,0,0-.25.74,2.17,2.17,0,0,0,0,.49.79.79,0,0,0,.26.36,1.4,1.4,0,0,0,.48.26,3.59,3.59,0,0,0,.87.08,2.51,2.51,0,0,0,.95-.19A2.92,2.92,0,0,0,531.27,250.08Z" transform="translate(-465.73 -166.07)"/><path class="a5e26a84-f7de-486a-a363-927e41615ff6" d="M546.69,252.62h-3.13v-1a6.85,6.85,0,0,1-1.5,1,3.94,3.94,0,0,1-1.62.31,3.43,3.43,0,0,1-2.84-1.37,5.84,5.84,0,0,1-1.06-3.69,6.17,6.17,0,0,1,.36-2.19,5,5,0,0,1,1-1.65,4.08,4.08,0,0,1,1.43-1,4.37,4.37,0,0,1,1.67-.36,4.78,4.78,0,0,1,1.44.19,10.59,10.59,0,0,1,1.14.47v-4.14h3.13Zm-3.13-2.68v-4.78a3.22,3.22,0,0,0-.69-.2,4,4,0,0,0-.66-.06,2.21,2.21,0,0,0-1.84.77,3.31,3.31,0,0,0-.62,2.13,3.52,3.52,0,0,0,.49,2.08,1.88,1.88,0,0,0,1.59.65,2.94,2.94,0,0,0,.89-.16A3,3,0,0,0,543.56,249.94Z" transform="translate(-465.73 -166.07)"/><path class="a5e26a84-f7de-486a-a363-927e41615ff6" d="M559.43,242.89l-3.75,9.73h-3.53l-3.73-9.73h3.3l2.25,6.7,2.23-6.7Z" transform="translate(-465.73 -166.07)"/><path class="a5e26a84-f7de-486a-a363-927e41615ff6" d="M564.38,241.51h-3.3v-2.37h3.3Zm-.09,11.11h-3.12v-9.73h3.12Z" transform="translate(-465.73 -166.07)"/><path class="a5e26a84-f7de-486a-a363-927e41615ff6" d="M575.69,249.54a2.82,2.82,0,0,1-1.36,2.43,6.51,6.51,0,0,1-3.7.92,10.61,10.61,0,0,1-2.35-.24,8.55,8.55,0,0,1-1.7-.54v-2.56h.29l.54.36a5.08,5.08,0,0,0,.87.42,8,8,0,0,0,1.1.34,6.14,6.14,0,0,0,1.32.14,3.57,3.57,0,0,0,1.36-.2.66.66,0,0,0,.44-.6.57.57,0,0,0-.26-.52,3.37,3.37,0,0,0-1-.31c-.23-.05-.54-.11-.94-.17a8.91,8.91,0,0,1-1.08-.22,3.77,3.77,0,0,1-2-1.08,2.63,2.63,0,0,1-.65-1.82,2.78,2.78,0,0,1,1.33-2.33,6.27,6.27,0,0,1,3.64-.94,9.49,9.49,0,0,1,2.09.23,7.57,7.57,0,0,1,1.56.47v2.46H575a6.36,6.36,0,0,0-1.59-.78,5.56,5.56,0,0,0-1.79-.3,3.34,3.34,0,0,0-1.27.21c-.35.14-.52.34-.52.59a.63.63,0,0,0,.24.53,3.13,3.13,0,0,0,1.1.36c.31.07.66.13,1,.19s.74.14,1.11.23a3.47,3.47,0,0,1,1.82,1A2.56,2.56,0,0,1,575.69,249.54Z" transform="translate(-465.73 -166.07)"/><path class="a5e26a84-f7de-486a-a363-927e41615ff6" d="M587.7,247.76a5.08,5.08,0,0,1-1.4,3.78,6.29,6.29,0,0,1-7.86,0,5.83,5.83,0,0,1,0-7.57,6.27,6.27,0,0,1,7.86,0A5.07,5.07,0,0,1,587.7,247.76Zm-3.84,2.37a2.4,2.4,0,0,0,.46-.9,5.49,5.49,0,0,0,.15-1.45,5.4,5.4,0,0,0-.16-1.44,2.39,2.39,0,0,0-.43-.92,1.51,1.51,0,0,0-.67-.51,2.32,2.32,0,0,0-.84-.15,2.48,2.48,0,0,0-.8.13,1.62,1.62,0,0,0-.67.48,2.52,2.52,0,0,0-.45.93,5.14,5.14,0,0,0-.17,1.48,6.18,6.18,0,0,0,.14,1.38,2.49,2.49,0,0,0,.44.94,1.51,1.51,0,0,0,.66.49,2.23,2.23,0,0,0,.88.16,2.46,2.46,0,0,0,.81-.14A1.54,1.54,0,0,0,583.86,250.13Z" transform="translate(-465.73 -166.07)"/><path class="a5e26a84-f7de-486a-a363-927e41615ff6" d="M597,245.87h-.28a2.34,2.34,0,0,0-.64-.11l-.73,0a8.11,8.11,0,0,0-1.18.08,7.05,7.05,0,0,0-1.1.3v6.51h-3.12v-9.73h3.12v1.43a6.39,6.39,0,0,1,1.79-1.17,4.07,4.07,0,0,1,1.4-.29h.37l.37,0Z" transform="translate(-465.73 -166.07)"/><path class="a5e26a84-f7de-486a-a363-927e41615ff6" d="M607.21,249.54a2.83,2.83,0,0,1-1.35,2.43,6.53,6.53,0,0,1-3.7.92,10.71,10.71,0,0,1-2.36-.24,8.78,8.78,0,0,1-1.7-.54v-2.56h.29l.54.36a6,6,0,0,0,.87.42,8.44,8.44,0,0,0,1.1.34,6.14,6.14,0,0,0,1.32.14,3.57,3.57,0,0,0,1.36-.2.66.66,0,0,0,.44-.6.57.57,0,0,0-.26-.52,3.27,3.27,0,0,0-1-.31c-.23-.05-.54-.11-.94-.17a9.78,9.78,0,0,1-1.08-.22,3.81,3.81,0,0,1-2-1.08,2.63,2.63,0,0,1-.64-1.82,2.76,2.76,0,0,1,1.33-2.33,6.23,6.23,0,0,1,3.63-.94,9.43,9.43,0,0,1,2.09.23,7.9,7.9,0,0,1,1.57.47v2.46h-.27a6.29,6.29,0,0,0-1.58-.78,5.57,5.57,0,0,0-1.8-.3,3.37,3.37,0,0,0-1.27.21c-.34.14-.51.34-.51.59a.62.62,0,0,0,.23.53,3.22,3.22,0,0,0,1.1.36c.32.07.66.13,1,.19s.73.14,1.1.23a3.43,3.43,0,0,1,1.82,1A2.56,2.56,0,0,1,607.21,249.54Z" transform="translate(-465.73 -166.07)"/></svg>