<svg xmlns="http://www.w3.org/2000/svg" viewBox="0 0 270.73 133.9"><defs><style>.cls-1{fill:#3d4a5d;}.cls-2{fill:#bcc1c4;}.cls-3{fill:#0097ff;}</style></defs><g id="Capa_3" data-name="Capa 3"><g id="Group_313" data-name="Group 313"><g id="Group_39" data-name="Group 39"><path id="Path_258" data-name="Path 258" class="cls-1" d="M410.31,310.5c.61-14.26-11.08-24.58-25.34-25.2s-25.69,8.72-26.3,23a25.84,25.84,0,0,0,51.64,2.22Z" transform="translate(-139.6 -201.28)"/></g><g id="Group_41" data-name="Group 41"><g id="Path_259" data-name="Path 259"><path class="cls-2" d="M171.94,263.6c-1.72.56-3.16-.48-4.68-3.39v0c-.08-.23-8-22.58-11.76-35a9.91,9.91,0,0,0-2.08-3.7L140.11,206.4l-.05-.07,0-.08c-.31-1,.57-1.9,2.62-2.57,3.24-1.05,9.62-1.72,18.48-1.94,8.05-.21,17.86,0,27.6.52s19.15,1.42,26.13,2.48c8,1.21,12.75,2.57,14.16,4.06a1.42,1.42,0,0,1,.42,1.56l-.05.11-.09.07-16.12,11.39c-4.37,11.38-9.16,20.41-14.25,26.84-4.14,5.25-8.39,8.61-12.65,10h0a14.26,14.26,0,0,1-5,.71l-1.33-.05a5.24,5.24,0,0,0-1.79.25,11.89,11.89,0,0,0-3.54,2.21A9.23,9.23,0,0,1,171.94,263.6Z" transform="translate(-139.6 -201.28)"/><path class="cls-2" d="M142.77,204c-1.76.57-2.63,1.27-2.38,2.11l13.29,15.08a10.37,10.37,0,0,1,2.16,3.84c3.85,12.55,11.75,35,11.75,35,1.59,3,2.91,3.64,4.23,3.21,1.8-.59,3.63-3.09,6.21-3.92a5.2,5.2,0,0,1,1.91-.27l1.34.05a14,14,0,0,0,4.89-.7c4.19-1.36,8.37-4.68,12.46-9.88,5-6.28,9.79-15.23,14.24-26.84l16.21-11.46c2.55-6.73-71.84-10.89-86.31-6.19m-.24-.71h0c2.27-.75,7.35-1.69,18.58-2,8.06-.2,17.88,0,27.63.52s19.17,1.43,26.17,2.49a82.47,82.47,0,0,1,9.25,1.84c2.65.73,4.33,1.49,5.13,2.33a1.83,1.83,0,0,1,.49,2,.76.76,0,0,1-.27.34l-16,11.33c-4.37,11.36-9.17,20.39-14.27,26.83-4.18,5.31-8.49,8.72-12.82,10.12a14.58,14.58,0,0,1-5.15.74l-1.34-.06a4.69,4.69,0,0,0-1.65.24,11.17,11.17,0,0,0-3.42,2.14,9.67,9.67,0,0,1-2.79,1.78,2.91,2.91,0,0,1-2.67-.4,8.66,8.66,0,0,1-2.45-3.17.42.42,0,0,1,0-.1c-.08-.22-8-22.58-11.77-35a9.5,9.5,0,0,0-2-3.57l-13.29-15.08a.71.71,0,0,1-.16-.28,1.8,1.8,0,0,1,.67-1.94A6.34,6.34,0,0,1,142.53,203.33Z" transform="translate(-139.6 -201.28)"/></g><g id="Path_260" data-name="Path 260"><path class="cls-2" d="M384.39,330.53h0c-.51,0-1,0-1.53,0a22.46,22.46,0,0,1-15.37-7.6,24,24,0,0,1-4.53-7.41,24.26,24.26,0,0,1-1.64-8.79v-7.75l-157.1-2.38a46.36,46.36,0,0,1-46.38-46.38h0l.79-22.31a23.07,23.07,0,0,1,23.07-23.07c.51,0,1,0,1.53.05a20.87,20.87,0,0,1,8.43,2.37,21.64,21.64,0,0,1,6.56,5.34A25.34,25.34,0,0,1,204,228.82v5.69a15.91,15.91,0,0,0,15.91,15.9h0l164.5,3.76a23.61,23.61,0,0,1,16.3,6.28,21.53,21.53,0,0,1,6.76,15.84v31.17a23,23,0,0,1-23.07,23.07Z" transform="translate(-139.6 -201.28)"/><path class="cls-2" d="M181.7,205.16A22.7,22.7,0,0,0,159,227.85l-.78,22.32a46,46,0,0,0,46,46l157.48,2.38v8.12c0,12.09,9.12,22.65,21.18,23.43.51,0,1,.05,1.51.05a22.7,22.7,0,0,0,22.7-22.7V276.29c0-12.53-10.16-21.75-22.7-21.75l-164.5-3.75a16.28,16.28,0,0,1-16.28-16.28v-5.69c0-12.08-8.34-22.83-20.4-23.61-.51,0-1-.05-1.51-.05m0-.75h0c.52,0,1,0,1.56.05a21.18,21.18,0,0,1,8.57,2.4,22.28,22.28,0,0,1,6.68,5.43,25.8,25.8,0,0,1,5.85,16.53v5.69A15.53,15.53,0,0,0,219.89,250h0l164.49,3.75A24,24,0,0,1,401,260.17a21.92,21.92,0,0,1,6.89,16.12v31.17a23.45,23.45,0,0,1-23.45,23.45c-.51,0-1,0-1.56-.06a22.77,22.77,0,0,1-15.62-7.72,24.45,24.45,0,0,1-4.6-7.53,24.75,24.75,0,0,1-1.66-8.92v-7.39l-156.73-2.36a46.71,46.71,0,0,1-46.75-46.76v0l.78-22.3a23.42,23.42,0,0,1,23.45-23.43Z" transform="translate(-139.6 -201.28)"/></g><g id="Group_40" data-name="Group 40"><rect id="Rectangle_8" data-name="Rectangle 8" class="cls-3" x="16.85" y="34.89" width="52.12" height="7.4"/></g></g></g></g></svg>