<svg id="et6ggcyid9yd1" xmlns="http://www.w3.org/2000/svg" xmlns:xlink="http://www.w3.org/1999/xlink" viewBox="0 0 35.400000 20.200000" shape-rendering="geometricPrecision" text-rendering="geometricPrecision"><g id="et6ggcyid9yd2" transform="matrix(1 0 0 1 0.47002932000000 -0.19120844000000)"><path id="et6ggcyid9yd3" d="M88.600000,127.900000L88.600000,127.900000C88.148316,127.902681,87.714355,127.724435,87.394960,127.405040C87.075565,127.085645,86.897319,126.651684,86.900000,126.200000L86.900000,118.400000C86.897319,117.948316,87.075565,117.514355,87.394960,117.194960C87.714355,116.875565,88.148316,116.697319,88.600000,116.700000L88.600000,116.700000C89.051684,116.697319,89.485645,116.875565,89.805040,117.194960C90.124435,117.514355,90.302681,117.948316,90.300000,118.400000L90.300000,126.200000C90.320074,126.656727,90.147422,127.100890,89.824156,127.424156C89.500890,127.747422,89.056727,127.920074,88.600000,127.900000Z" transform="matrix(0.98000000000000 0 0 0.98000000000000 -85.16200000000001 -109.75475814500014)" fill="rgb(188,193,196)" stroke="none" stroke-width="1"/><path id="et6ggcyid9yd4" d="M94,127.900000L94,127.900000C93.548316,127.902681,93.114355,127.724435,92.794960,127.405040C92.475565,127.085645,92.297319,126.651684,92.300000,126.200000L92.300000,118.400000C92.297319,117.948316,92.475565,117.514355,92.794960,117.194960C93.114355,116.875565,93.548316,116.697319,94,116.700000L94,116.700000C94.451684,116.697319,94.885645,116.875565,95.205040,117.194960C95.524435,117.514355,95.702681,117.948316,95.700000,118.400000L95.700000,126.200000C95.673848,127.127836,94.927836,127.873848,94,127.900000Z" transform="matrix(0.98000000000000 0 0 0.98000000000000 -85.16200000000001 -109.75475814500014)" fill="rgb(188,193,196)" stroke="none" stroke-width="1"/><path id="et6ggcyid9yd5" d="M99.300000,127.900000L99.300000,127.900000C98.848316,127.902681,98.414355,127.724435,98.094960,127.405040C97.775565,127.085645,97.597319,126.651684,97.600000,126.200000L97.600000,118.400000C97.597319,117.948316,97.775565,117.514355,98.094960,117.194960C98.414355,116.875565,98.848316,116.697319,99.300000,116.700000L99.300000,116.700000C99.751684,116.697319,100.185645,116.875565,100.505040,117.194960C100.824435,117.514355,101.002681,117.948316,101,118.400000L101,126.200000C100.973848,127.127836,100.227836,127.873848,99.300000,127.900000Z" transform="matrix(0.98000000000000 0 0 0.98000000000000 -85.16200000000001 -109.75475814500014)" fill="rgb(188,193,196)" stroke="none" stroke-width="1"/><path id="et6ggcyid9yd6" d="M104.600000,127.900000L104.600000,127.900000C104.148316,127.902681,103.714355,127.724435,103.394960,127.405040C103.075565,127.085645,102.897319,126.651684,102.900000,126.200000L102.900000,118.400000C102.897319,117.948316,103.075565,117.514355,103.394960,117.194960C103.714355,116.875565,104.148316,116.697319,104.600000,116.700000L104.600000,116.700000C105.051684,116.697319,105.485645,116.875565,105.805040,117.194960C106.124435,117.514355,106.302681,117.948316,106.300000,118.400000L106.300000,126.200000C106.302681,126.651684,106.124435,127.085645,105.805040,127.405040C105.485645,127.724435,105.051684,127.902681,104.600000,127.900000Z" transform="matrix(0.98000000000000 0 0 0.98000000000000 -85.16200000000001 -109.75475814500014)" fill="rgb(188,193,196)" stroke="none" stroke-width="1"/><path id="et6ggcyid9yd7" d="M109.900000,127.900000L109.900000,127.900000C109.448316,127.902681,109.014355,127.724435,108.694960,127.405040C108.375565,127.085645,108.197319,126.651684,108.200000,126.200000L108.200000,118.400000C108.197319,117.948316,108.375565,117.514355,108.694960,117.194960C109.014355,116.875565,109.448316,116.697319,109.900000,116.700000L109.900000,116.700000C110.351684,116.697319,110.785645,116.875565,111.105040,117.194960C111.424435,117.514355,111.602681,117.948316,111.600000,118.400000L111.600000,126.200000C111.620074,126.656727,111.447422,127.100890,111.124156,127.424156C110.800890,127.747422,110.356727,127.920074,109.900000,127.900000Z" transform="matrix(0.98000000000000 0 0 0.98000000000000 -85.16200000000001 -109.75475814500014)" fill="rgb(188,193,196)" stroke="none" stroke-width="1"/><path id="et6ggcyid9yd8" d="M115.200000,127.900000L115.200000,127.900000C114.748316,127.902681,114.314355,127.724435,113.994960,127.405040C113.675565,127.085645,113.497319,126.651684,113.500000,126.200000L113.500000,118.400000C113.497319,117.948316,113.675565,117.514355,113.994960,117.194960C114.314355,116.875565,114.748316,116.697319,115.200000,116.700000L115.200000,116.700000C115.651684,116.697319,116.085645,116.875565,116.405040,117.194960C116.724435,117.514355,116.902681,117.948316,116.900000,118.400000L116.900000,126.200000C116.920074,126.656727,116.747422,127.100890,116.424156,127.424156C116.100890,127.747422,115.656727,127.920074,115.200000,127.900000Z" transform="matrix(0.98000000000000 0 0 0.98000000000000 -85.16200000000001 -109.75475814500014)" fill="rgb(188,193,196)" stroke="none" stroke-width="1"/><path id="et6ggcyid9yd9" d="M120.600000,127.900000L120.600000,127.900000C120.148316,127.902681,119.714355,127.724435,119.394960,127.405040C119.075565,127.085645,118.897319,126.651684,118.900000,126.200000L118.900000,118.400000C118.897319,117.948316,119.075565,117.514355,119.394960,117.194960C119.714355,116.875565,120.148316,116.697319,120.600000,116.700000L120.600000,116.700000C121.051684,116.697319,121.485645,116.875565,121.805040,117.194960C122.124435,117.514355,122.302681,117.948316,122.300000,118.400000L122.300000,126.200000C122.273848,127.127836,121.527836,127.873848,120.600000,127.900000Z" transform="matrix(0.98000000000000 0 0 0.98000000000000 -85.16200000000001 -109.75475814500014)" fill="rgb(188,193,196)" stroke="none" stroke-width="1"/></g></svg>