<svg id="b0e1603d-45ac-4592-b052-0b8cfd06bce4" data-name="Layer 1" xmlns="http://www.w3.org/2000/svg" viewBox="0 0 113.42 116.16"><defs><style>.b4d94384-acdc-4093-b282-d2de8c5c7c0d{fill:#0097ff;}</style></defs><title>data-B</title><ellipse class="b4d94384-acdc-4093-b282-d2de8c5c7c0d" cx="97.11" cy="66.55" rx="12.89" ry="13.19" transform="translate(-6.9 -1.05) rotate(-1.62)"/><ellipse class="b4d94384-acdc-4093-b282-d2de8c5c7c0d" cx="26.4" cy="35.25" rx="13.49" ry="13.8" transform="matrix(1, -0.03, 0.03, 1, -6.04, -3.06)"/><ellipse class="b4d94384-acdc-4093-b282-d2de8c5c7c0d" cx="24.87" cy="79.58" rx="11.62" ry="11.89" transform="translate(-7.3 -3.08) rotate(-1.62)"/><ellipse class="b4d94384-acdc-4093-b282-d2de8c5c7c0d" cx="66.54" cy="30.64" rx="11.62" ry="11.89" transform="translate(-5.9 -1.92) rotate(-1.62)"/><ellipse class="b4d94384-acdc-4093-b282-d2de8c5c7c0d" cx="39.86" cy="106.25" rx="9.33" ry="9.54" transform="translate(-8.04 -2.65) rotate(-1.62)"/><ellipse class="b4d94384-acdc-4093-b282-d2de8c5c7c0d" cx="94.93" cy="35.02" rx="11.62" ry="11.89" transform="translate(-6.01 -1.12) rotate(-1.62)"/><ellipse class="b4d94384-acdc-4093-b282-d2de8c5c7c0d" cx="77.88" cy="50.77" rx="6.32" ry="6.47" transform="translate(-6.46 -1.6) rotate(-1.62)"/><ellipse class="b4d94384-acdc-4093-b282-d2de8c5c7c0d" cx="29.8" cy="60.58" rx="3.87" ry="3.96" transform="matrix(1, -0.03, 0.03, 1, -6.76, -2.95)"/><ellipse class="b4d94384-acdc-4093-b282-d2de8c5c7c0d" cx="87.29" cy="89.27" rx="3.87" ry="3.96" transform="translate(-7.54 -1.32) rotate(-1.62)"/><ellipse class="b4d94384-acdc-4093-b282-d2de8c5c7c0d" cx="8.93" cy="70.18" rx="3.87" ry="3.96" transform="translate(-7.04 -3.53) rotate(-1.62)"/><ellipse class="b4d94384-acdc-4093-b282-d2de8c5c7c0d" cx="23.08" cy="100.51" rx="3.87" ry="3.96" transform="translate(-7.89 -3.12) rotate(-1.62)"/><ellipse class="b4d94384-acdc-4093-b282-d2de8c5c7c0d" cx="50.4" cy="42.79" rx="3.87" ry="3.96" transform="translate(-6.25 -2.38) rotate(-1.62)"/><ellipse class="b4d94384-acdc-4093-b282-d2de8c5c7c0d" cx="9.09" cy="79.83" rx="2.31" ry="2.37" transform="translate(-7.31 -3.53) rotate(-1.62)"/><ellipse class="b4d94384-acdc-4093-b282-d2de8c5c7c0d" cx="10.75" cy="48.59" rx="2.31" ry="2.37" transform="translate(-6.43 -3.49) rotate(-1.62)"/><ellipse class="b4d94384-acdc-4093-b282-d2de8c5c7c0d" cx="94.28" cy="18.32" rx="2.31" ry="2.37" transform="translate(-5.54 -1.15) rotate(-1.62)"/><ellipse class="b4d94384-acdc-4093-b282-d2de8c5c7c0d" cx="80.01" cy="40.22" rx="2.31" ry="2.37" transform="matrix(1, -0.03, 0.03, 1, -6.16, -1.54)"/><ellipse class="b4d94384-acdc-4093-b282-d2de8c5c7c0d" cx="77.2" cy="63.79" rx="2.31" ry="2.37" transform="translate(-6.83 -1.61) rotate(-1.62)"/><ellipse class="b4d94384-acdc-4093-b282-d2de8c5c7c0d" cx="112.64" cy="81.57" rx="2.31" ry="2.37" transform="translate(-7.32 -0.6) rotate(-1.62)"/><ellipse class="b4d94384-acdc-4093-b282-d2de8c5c7c0d" cx="97.95" cy="87.57" rx="2.31" ry="2.37" transform="translate(-7.49 -1.02) rotate(-1.62)"/><ellipse class="b4d94384-acdc-4093-b282-d2de8c5c7c0d" cx="66.82" cy="47.36" rx="2.31" ry="2.37" transform="translate(-6.37 -1.91) rotate(-1.62)"/><ellipse class="b4d94384-acdc-4093-b282-d2de8c5c7c0d" cx="41.03" cy="79.33" rx="2.31" ry="2.37" transform="translate(-7.28 -2.63) rotate(-1.62)"/><ellipse class="b4d94384-acdc-4093-b282-d2de8c5c7c0d" cx="50.07" cy="27.1" rx="2.31" ry="2.37" transform="matrix(1, -0.03, 0.03, 1, -5.8, -2.39)"/><ellipse class="b4d94384-acdc-4093-b282-d2de8c5c7c0d" cx="36.72" cy="55.59" rx="2.31" ry="2.37" transform="translate(-6.61 -2.76) rotate(-1.62)"/><ellipse class="b4d94384-acdc-4093-b282-d2de8c5c7c0d" cx="36.11" cy="68.16" rx="2.31" ry="2.37" transform="translate(-6.97 -2.77) rotate(-1.62)"/><ellipse class="b4d94384-acdc-4093-b282-d2de8c5c7c0d" cx="116.17" cy="60.81" rx="2.31" ry="2.37" transform="translate(-6.73 -0.51) rotate(-1.62)"/><ellipse class="b4d94384-acdc-4093-b282-d2de8c5c7c0d" cx="107.14" cy="91.35" rx="2.31" ry="2.37" transform="translate(-7.59 -0.76) rotate(-1.62)"/><ellipse class="b4d94384-acdc-4093-b282-d2de8c5c7c0d" cx="90.27" cy="108.94" rx="2.31" ry="2.37" transform="translate(-8.1 -1.22) rotate(-1.62)"/><ellipse class="b4d94384-acdc-4093-b282-d2de8c5c7c0d" cx="57.82" cy="11.51" rx="2.31" ry="2.37" transform="translate(-5.36 -2.18) rotate(-1.62)"/><ellipse class="b4d94384-acdc-4093-b282-d2de8c5c7c0d" cx="36.71" cy="92.47" rx="2.31" ry="2.37" transform="translate(-7.65 -2.74) rotate(-1.62)"/><ellipse class="b4d94384-acdc-4093-b282-d2de8c5c7c0d" cx="53.6" cy="117.61" rx="2.31" ry="2.37" transform="translate(-8.36 -2.26) rotate(-1.62)"/><ellipse class="b4d94384-acdc-4093-b282-d2de8c5c7c0d" cx="61.35" cy="85.76" rx="2.31" ry="2.37" transform="translate(-7.46 -2.05) rotate(-1.62)"/><ellipse class="b4d94384-acdc-4093-b282-d2de8c5c7c0d" cx="56.53" cy="64.64" rx="11.8" ry="12.07" transform="translate(-6.86 -2.19) rotate(-1.62)"/><ellipse class="b4d94384-acdc-4093-b282-d2de8c5c7c0d" cx="69.84" cy="105.77" rx="12.63" ry="12.92" transform="translate(-8.02 -1.8) rotate(-1.62)"/><ellipse class="b4d94384-acdc-4093-b282-d2de8c5c7c0d" cx="48.24" cy="88.18" rx="6.32" ry="6.47" transform="translate(-7.53 -2.42) rotate(-1.62)"/><ellipse class="b4d94384-acdc-4093-b282-d2de8c5c7c0d" cx="16.33" cy="58.28" rx="6.32" ry="6.47" transform="translate(-6.7 -3.33) rotate(-1.62)"/><ellipse class="b4d94384-acdc-4093-b282-d2de8c5c7c0d" cx="97.64" cy="98.86" rx="6.32" ry="6.47" transform="translate(-7.81 -1.02) rotate(-1.62)"/><ellipse class="b4d94384-acdc-4093-b282-d2de8c5c7c0d" cx="83.62" cy="15.21" rx="6.32" ry="6.47" transform="translate(-5.46 -1.45) rotate(-1.62)"/><ellipse class="b4d94384-acdc-4093-b282-d2de8c5c7c0d" cx="70" cy="10.29" rx="6.32" ry="6.47" transform="translate(-5.32 -1.84) rotate(-1.62)"/><ellipse class="b4d94384-acdc-4093-b282-d2de8c5c7c0d" cx="40.05" cy="13.78" rx="6.32" ry="6.47" transform="translate(-5.43 -2.68) rotate(-1.62)"/><ellipse class="b4d94384-acdc-4093-b282-d2de8c5c7c0d" cx="111.61" cy="47.02" rx="6.32" ry="6.47" transform="translate(-6.34 -0.65) rotate(-1.62)"/><ellipse class="b4d94384-acdc-4093-b282-d2de8c5c7c0d" cx="77" cy="79.41" rx="6.32" ry="6.47" transform="translate(-7.27 -1.61) rotate(-1.62)"/></svg>