<svg id="b7d7af5a-3824-42e0-9cb1-4482b2a128f1" data-name="Layer 1" xmlns="http://www.w3.org/2000/svg" viewBox="0 0 119.1 121.84"><defs><style>.edb95996-7cc0-4695-85cf-9d65aa0de74d{fill:#0097ff;}</style></defs><title>data-C</title><path class="edb95996-7cc0-4695-85cf-9d65aa0de74d" d="M61.85,6.54a53.81,53.81,0,0,1,38.38,16.09,57.13,57.13,0,0,1,1,79.18,53.69,53.69,0,0,1-38.42,17H62a53.86,53.86,0,0,1-38.39-16.09,57.16,57.16,0,0,1-1-79.19A53.71,53.71,0,0,1,61,6.55h.86m0-4.77h-.94C28,2.3,1.82,30,2.37,63.63c.54,33.32,27.14,60,59.6,60h.94c32.88-.52,59.09-28.21,58.54-61.85-.55-33.33-27.14-60-59.6-60Z" transform="translate(-2.36 -1.77)"/><ellipse class="edb95996-7cc0-4695-85cf-9d65aa0de74d" cx="97.25" cy="66.69" rx="12.89" ry="13.19" transform="translate(-4.2 1) rotate(-1.62)"/><ellipse class="edb95996-7cc0-4695-85cf-9d65aa0de74d" cx="29.54" cy="36.39" rx="13.49" ry="13.8" transform="translate(-3.37 -0.92) rotate(-1.62)"/><ellipse class="edb95996-7cc0-4695-85cf-9d65aa0de74d" cx="25.01" cy="79.72" rx="11.62" ry="11.89" transform="translate(-4.6 -1.03) rotate(-1.62)"/><ellipse class="edb95996-7cc0-4695-85cf-9d65aa0de74d" cx="66.68" cy="30.78" rx="11.62" ry="11.89" transform="translate(-3.2 0.13) rotate(-1.62)"/><ellipse class="edb95996-7cc0-4695-85cf-9d65aa0de74d" cx="40" cy="106.38" rx="9.33" ry="9.54" transform="translate(-5.34 -0.6) rotate(-1.62)"/><ellipse class="edb95996-7cc0-4695-85cf-9d65aa0de74d" cx="95.06" cy="35.16" rx="11.62" ry="11.89" transform="translate(-3.31 0.93) rotate(-1.62)"/><ellipse class="edb95996-7cc0-4695-85cf-9d65aa0de74d" cx="78.01" cy="50.91" rx="6.32" ry="6.47" transform="translate(-3.76 0.45) rotate(-1.62)"/><ellipse class="edb95996-7cc0-4695-85cf-9d65aa0de74d" cx="29.94" cy="60.72" rx="3.87" ry="3.96" transform="translate(-4.06 -0.9) rotate(-1.62)"/><ellipse class="edb95996-7cc0-4695-85cf-9d65aa0de74d" cx="87.43" cy="89.41" rx="3.87" ry="3.96" transform="translate(-4.85 0.73) rotate(-1.62)"/><ellipse class="edb95996-7cc0-4695-85cf-9d65aa0de74d" cx="9.06" cy="70.32" rx="3.87" ry="3.96" transform="translate(-4.34 -1.48) rotate(-1.62)"/><ellipse class="edb95996-7cc0-4695-85cf-9d65aa0de74d" cx="24.22" cy="98.65" rx="3.87" ry="3.96" transform="translate(-5.13 -1.05) rotate(-1.62)"/><ellipse class="edb95996-7cc0-4695-85cf-9d65aa0de74d" cx="50.54" cy="42.92" rx="3.87" ry="3.96" transform="translate(-3.55 -0.33) rotate(-1.62)"/><ellipse class="edb95996-7cc0-4695-85cf-9d65aa0de74d" cx="56.67" cy="64.77" rx="11.8" ry="12.07" transform="translate(-4.16 -0.14) rotate(-1.62)"/><ellipse class="edb95996-7cc0-4695-85cf-9d65aa0de74d" cx="69.98" cy="105.91" rx="12.63" ry="12.92" transform="translate(-5.32 0.25) rotate(-1.62)"/><ellipse class="edb95996-7cc0-4695-85cf-9d65aa0de74d" cx="48.38" cy="88.32" rx="6.32" ry="6.47" transform="translate(-4.83 -0.37) rotate(-1.62)"/><ellipse class="edb95996-7cc0-4695-85cf-9d65aa0de74d" cx="16.46" cy="58.42" rx="6.32" ry="6.47" transform="translate(-4 -1.28) rotate(-1.62)"/><ellipse class="edb95996-7cc0-4695-85cf-9d65aa0de74d" cx="97.78" cy="99" rx="6.32" ry="6.47" transform="translate(-5.11 1.03) rotate(-1.62)"/><ellipse class="edb95996-7cc0-4695-85cf-9d65aa0de74d" cx="83.75" cy="15.34" rx="6.32" ry="6.47" transform="translate(-2.76 0.6) rotate(-1.62)"/><ellipse class="edb95996-7cc0-4695-85cf-9d65aa0de74d" cx="70.14" cy="10.42" rx="6.32" ry="6.47" transform="translate(-2.62 0.21) rotate(-1.62)"/><ellipse class="edb95996-7cc0-4695-85cf-9d65aa0de74d" cx="47.19" cy="15.92" rx="6.32" ry="6.47" transform="translate(-2.79 -0.43) rotate(-1.62)"/><ellipse class="edb95996-7cc0-4695-85cf-9d65aa0de74d" cx="111.75" cy="47.16" rx="6.32" ry="6.47" transform="translate(-3.64 1.4) rotate(-1.62)"/><ellipse class="edb95996-7cc0-4695-85cf-9d65aa0de74d" cx="77.14" cy="79.54" rx="6.32" ry="6.47" transform="translate(-4.57 0.44) rotate(-1.62)"/></svg>