<svg id="e8afeef1-e420-469d-a03d-64e7e1e8e5e9" data-name="b7d7af5a-3824-42e0-9cb1-4482b2a128f1" xmlns="http://www.w3.org/2000/svg" viewBox="0 0 119.1 121.85"><defs><style>.bd251814-3998-419e-b46d-96d82e581520{fill:#0097ff;}</style></defs><title>data-B</title><path class="bd251814-3998-419e-b46d-96d82e581520" d="M59.89,5.18A53.8,53.8,0,0,1,98.27,21.27a57.13,57.13,0,0,1,1,79.18,53.66,53.66,0,0,1-38.42,17H60a53.88,53.88,0,0,1-38.39-16.09,57.17,57.17,0,0,1-1-79.19A53.74,53.74,0,0,1,59,5.19h.86m0-4.77H59C26,.94-.14,28.64.41,62.27c.54,33.32,27.14,60,59.6,60H61c32.88-.52,59.09-28.21,58.54-61.85-.55-33.33-27.14-60-59.6-60Z" transform="translate(-0.41 -0.42)"/></svg>