<svg id="a72b3726-5925-4f83-a20a-cf7361246365" data-name="step3"
    xmlns="http://www.w3.org/2000/svg" viewBox="0 0 173.7 182.51">
    <defs>
        <style>.b93c5c3c-4565-4dea-a694-8e3f3ffd9aa4{fill:#fffff7;}.ececc0dc-b2dd-483c-a68c-4f1f3613cd93{fill:none;stroke:#fffff7;stroke-miterlimit:10;stroke-width:1.81px;}.ab71af96-fe5a-45e5-8f65-8aabee95a9b7{fill:#003554;}</style>
    </defs>
    <title>dataGraph</title>
    <path class="b93c5c3c-4565-4dea-a694-8e3f3ffd9aa4" d="M399.39,402.8h14.28a.13.13,0,0,0,.14-.13.14.14,0,0,0-.14-.14h-14.3a5.38,5.38,0,0,0-5.25-5.21V386.2h19.55a.13.13,0,1,0,0-.26H394.12V366.38a.13.13,0,0,0-.13-.13.13.13,0,0,0-.14.13v19.56H377.52V366.38a.13.13,0,0,0-.26,0v19.56H360.93V366.38a.13.13,0,0,0-.14-.13.13.13,0,0,0-.13.13v19.56H344.33V366.38a.13.13,0,0,0-.13-.13.13.13,0,0,0-.14.13v19.56H327.73V366.38a.13.13,0,0,0-.26,0v19.56H311.14V366.38a.13.13,0,0,0-.14-.13.13.13,0,0,0-.13.13v19.56H294.54V366.38a.13.13,0,0,0-.13-.13.13.13,0,0,0-.14.13v19.56H277.94V366.38a.13.13,0,0,0-.26,0v19.56H261.35V366.38a.14.14,0,0,0-.14-.13.13.13,0,0,0-.13.13v19.56H245.93v-15l3.17,3.17v-3.82l-4.49-4.49-4.5,4.49v3.82l3.17-3.17V536.13a1.34,1.34,0,0,0,1.33,1.33H408.53l-3.17,3.17h3.82l4.5-4.5-4.5-4.49h-3.82l3.17,3.17H394.12V519h19.56a.13.13,0,1,0,0-.26H394.12V502.39h19.56a.13.13,0,0,0,.13-.14.13.13,0,0,0-.13-.13H394.12V485.79h19.56a.13.13,0,0,0,.13-.13.13.13,0,0,0-.13-.14H394.12V469.19h19.56a.13.13,0,0,0,.13-.13.13.13,0,0,0-.13-.14H394.12V452.59h19.56a.13.13,0,0,0,0-.26H394.12V436h19.56a.13.13,0,0,0,.13-.14.13.13,0,0,0-.13-.13H394.12V419.4h19.56a.13.13,0,0,0,.13-.13.13.13,0,0,0-.13-.14H394.12v-11A5.41,5.41,0,0,0,399.39,402.8Zm-5.54-16.6v11.12a5.38,5.38,0,0,0-5.25,5.21H377.52V386.2Zm-16.59,0v16.33H360.92V386.2ZM245.93,485.79h9.88a5.39,5.39,0,0,0,5.26,5.31v11H245.93Zm0-16.6h15.14v11.12a5.4,5.4,0,0,0-5.26,5.21h-9.88Zm0-16.6h15.14v16.33H245.93Zm0-16.59h15.14v16.33H245.93Zm0-16.6h15.14v16.33H245.93Zm76.27,0a5.4,5.4,0,0,0,5.26,5.31v11H311.13V419.4Zm21.86,0v11.12a5.39,5.39,0,0,0-5.26,5.21H327.73v-11A5.4,5.4,0,0,0,333,419.4Zm-77.47,66.12a5.38,5.38,0,0,0-5.25-5.21V469.19h16.33v16.33ZM272.4,436a5.4,5.4,0,0,0,5.27,5.3v11H261.34V436Zm21.87,0v16.33H277.93v-11a5.39,5.39,0,0,0,5.27-5.3Zm16.86,32.92v-11a5.4,5.4,0,0,0,5.27-5.31h11.06v16.34H311.13Zm16.33.27v16.33H311.13V469.19Zm-27.67-.27a5.4,5.4,0,0,0-5.26-5.21V452.59H305.6a5.39,5.39,0,0,0,5.26,5.31v11Zm-21.85,0V452.59h16.33v11.12a5.4,5.4,0,0,0-5.26,5.21Zm38.45-16.59a5.41,5.41,0,0,0-5.26-5.22V436h16.33v16.33Zm-5.53-5.22a5.39,5.39,0,0,0-5.25,5.22H294.53V436h16.33v11.12Zm-33.19,5.48v16.33H261.34V452.59Zm.27,16.6H289a5.4,5.4,0,0,0,5.27,5.31v11H277.94Zm16.59,5.31a5.4,5.4,0,0,0,5.27-5.31h11.06v16.33H294.53Zm16.33,11.29v16.33H294.53V485.79Zm.27,0h16.33v16.33H311.13Zm16.6,0h16.33v16.33H327.73Zm0-.27V469.19h16.33v16.33Zm0-16.6V452.59h16.33v16.33Zm0-16.59V436h11.06a5.39,5.39,0,0,0,5.27,5.3v11Zm-16.87-16.6H294.53V419.4h16.33Zm-16.59,0H283.19a5.38,5.38,0,0,0-5.25-5.21V419.4h16.33v16.33Zm-16.6-5.21a5.39,5.39,0,0,0-5.26,5.21H261.34V419.4h16.33v11.12ZM261.34,491.1a5.39,5.39,0,0,0,5.26-5.31h11.07v16.33H261.34Zm16.6-5.31h16.33v16.33H277.94Zm16.33,16.6v16.33H277.93V502.39Zm.26,0h16.33v16.33H294.53Zm16.6,0h16.33v16.33H311.13Zm16.6,0h16.33v16.33H327.73Zm16.6,0h16.33v16.33H344.33Zm0-.27V485.79h16.33v16.33Zm0-16.6V469.19h11.06a5.4,5.4,0,0,0,5.27,5.31v11Zm16.33-21.81a5.4,5.4,0,0,0-5.26,5.21H344.33V452.59h16.33Zm-16.33-11.38v-11a5.38,5.38,0,0,0,5.26-5.3h11.07v16.33Zm5.25-16.6a5.38,5.38,0,0,0-5.25-5.21V419.4h16.33v16.33Zm-5.25-16.6V402.8h16.33v16.33Zm-.27,0H333a5.4,5.4,0,0,0-5.26-5.21V402.8h16.33Zm-16.6-5.21a5.38,5.38,0,0,0-5.25,5.21H311.13V402.8h16.33v11.12Zm-16.6,5.21H294.53V402.8h16.33Zm-16.59,0H277.93V402.8h16.34Zm-16.6,0H261.34V402.8h16.33Zm-16.6,0H245.93V402.8h15.14v16.33Zm-15.14,83.26h15.14v16.33H245.93Zm15.41,0h16.33v16.33H261.34ZM277.67,519v15.83H261.34V519Zm.27,0h16.33v15.83H277.94Zm16.59,0h16.33v15.83H294.53Zm16.6,0h16.33v15.83H311.13Zm16.6,0h16.33v15.83H327.73Zm16.6,0h16.33v15.83H344.33Zm16.59,0h16.34v15.83H360.92Zm0-.26V502.39h16.34v16.33Zm0-16.6V485.79h16.34v16.33Zm0-16.67.05-11a5.4,5.4,0,0,0,5.29-5.29l11.06.05-.07,16.33-16.33-.07Zm5.29-16.53a5.39,5.39,0,0,0-5.26-5.21V452.59h16.34v16.33Zm-5.26-16.59V436H372a5.39,5.39,0,0,0,5.27,5.3v11Zm16.34-21.81a5.38,5.38,0,0,0-5.26,5.21H360.92V419.4h16.33v11.12Zm-16.34-11.39V402.8h16.34v16.33Zm-.26-32.93v16.33H344.33V386.2Zm-16.6,0v16.33H327.73V386.2Zm-16.6,0v16.33H311.13V386.2Zm-16.6,0v16.33H294.53V386.2Zm-16.59,0v16.33H277.93V386.2Zm-16.6,0v16.33H261.34V386.2Zm-16.6,0v16.33H245.93V386.2ZM245.93,519h15.14v15.83H245.93Zm147.92,15.83H377.52V519h16.33Zm0-16.09H377.52V502.39h16.33Zm0-16.6H377.52V485.79h16.33Zm0-16.6H377.52V469.19h16.33Zm0-16.6H377.52V452.59h16.33Zm0-16.59H377.52v-11a5.39,5.39,0,0,0,5.27-5.3h11.06Zm0-16.6H382.78a5.39,5.39,0,0,0-5.26-5.21V419.4h16.33v16.33Zm-16.33-16.6V402.8h11.07a5.39,5.39,0,0,0,5.26,5.31v11Z" transform="translate(-240.11 -358.12)"/>
    <circle class="ececc0dc-b2dd-483c-a68c-4f1f3613cd93" cx="37.56" cy="10.21" r="9.3"/>
    <circle class="ab71af96-fe5a-45e5-8f65-8aabee95a9b7" cx="37.3" cy="10.21" r="4.86"/>
</svg>