<svg id="ed816290-80f4-47f8-af8a-f8b96067fe41" data-name="Layer 2" xmlns="http://www.w3.org/2000/svg" viewBox="0 0 121.44 121.44"><defs><style>.f3302278-1d0e-4b02-83cb-44086e0d36ed{fill:#0097ff;}</style></defs><title>data-D</title><path class="f3302278-1d0e-4b02-83cb-44086e0d36ed" d="M62.43,123.66A60.73,60.73,0,1,1,99.2,14.5,60.73,60.73,0,0,1,70.88,123.08,61.75,61.75,0,0,1,62.43,123.66ZM62.62,7.12A55.78,55.78,0,1,0,96.24,18.41,55.75,55.75,0,0,0,62.62,7.12Z" transform="translate(-1.85 -2.22)"/><circle class="f3302278-1d0e-4b02-83cb-44086e0d36ed" cx="31.26" cy="33.1" r="17.89"/><circle class="f3302278-1d0e-4b02-83cb-44086e0d36ed" cx="69.93" cy="20.32" r="17.89"/><circle class="f3302278-1d0e-4b02-83cb-44086e0d36ed" cx="60.7" cy="62.18" r="17.89"/><circle class="f3302278-1d0e-4b02-83cb-44086e0d36ed" cx="98.42" cy="46.71" r="17.89"/><circle class="f3302278-1d0e-4b02-83cb-44086e0d36ed" cx="90.08" cy="87.23" r="17.89"/><circle class="f3302278-1d0e-4b02-83cb-44086e0d36ed" cx="22.62" cy="73.08" r="17.89"/><circle class="f3302278-1d0e-4b02-83cb-44086e0d36ed" cx="50.66" cy="100.88" r="17.89"/></svg>