<svg id="b052f553-453c-441e-b7a6-e8bb6481878f" data-name="gear" xmlns="http://www.w3.org/2000/svg" viewBox="0 0 439.97 445.04"><defs><style>.ae85663a-d96c-49d3-a281-1aaa6ef37820{fill:#0097ff;}</style></defs><title>gear</title><path class="ae85663a-d96c-49d3-a281-1aaa6ef37820" d="M548.67,491.54l-5,20.81a8.77,8.77,0,0,1-8.89,6.68l-29.8-1.17a183.77,183.77,0,0,1-13.95,30l19.79,24.25a8.78,8.78,0,0,1,0,11.12l-13.57,16.54a8.81,8.81,0,0,1-10.91,2.19l-26.4-14a185.51,185.51,0,0,1-25.53,21l7.32,30.44a8.79,8.79,0,0,1-4.83,10l-19.41,9a8.8,8.8,0,0,1-10.79-2.76l-17.66-24a185.76,185.76,0,0,1-32.13,7.79l-6.61,30.58a8.78,8.78,0,0,1-8.7,6.92l-21.41-.3a8.8,8.8,0,0,1-8.51-7.17L306.13,640a182.87,182.87,0,0,1-32.32-6.88L254.58,657.8a8.78,8.78,0,0,1-10.84,2.47L224.6,650.7A8.74,8.74,0,0,1,220,640.57l7.79-28.84a185,185,0,0,1-26.09-20.25L173.65,605.4a8.83,8.83,0,0,1-10.84-2.49L149.71,586a8.8,8.8,0,0,1,.29-11.12l19.55-22.58a183.88,183.88,0,0,1-14.79-29.57l-31.28.34a8.74,8.74,0,0,1-8.68-6.93l-4.47-20.94a8.79,8.79,0,0,1,5.09-9.88l27.42-11.9c-.75-7.12-.74-29.29-.46-33L114,427.1a8.74,8.74,0,0,1-4.81-10l5-20.81a8.79,8.79,0,0,1,8.89-6.69l29.8,1.18a183.77,183.77,0,0,1,13.95-30l-19.79-24.25a8.78,8.78,0,0,1,0-11.12l13.57-16.54a8.83,8.83,0,0,1,10.91-2.2l26.4,14a185.51,185.51,0,0,1,25.53-21l-7.32-30.44a8.79,8.79,0,0,1,4.83-10l19.41-9a8.8,8.8,0,0,1,10.79,2.76l17.66,24A185.76,185.76,0,0,1,301,269.3l6.61-30.58a8.78,8.78,0,0,1,8.7-6.92l21.41.3a8.8,8.8,0,0,1,8.51,7.17l5.49,29.36a182.87,182.87,0,0,1,32.32,6.88l19.23-24.68a8.77,8.77,0,0,1,10.84-2.47l19.15,9.57a8.74,8.74,0,0,1,4.55,10.13L430,296.9a185,185,0,0,1,26.09,20.25l28.09-13.92a8.83,8.83,0,0,1,10.84,2.49l13.1,16.93a8.8,8.8,0,0,1-.29,11.12l-19.55,22.58a183.88,183.88,0,0,1,14.79,29.57l31.28-.34a8.74,8.74,0,0,1,8.68,6.93l4.47,20.94a8.79,8.79,0,0,1-5.09,9.88L515,435.22A183.76,183.76,0,0,1,516,457c0,3.79-.23,7.57-.51,11.3l28.37,13.27A8.76,8.76,0,0,1,548.67,491.54Z" transform="translate(-108.95 -231.8)"/></svg>