<svg id="eb55a50e-60c3-4a60-a92e-fb926a6113c8" data-name="Layer 1" xmlns="http://www.w3.org/2000/svg" xmlns:xlink="http://www.w3.org/1999/xlink" viewBox="0 0 214.73 269.34"><defs><style>.b8aac331-f25a-4810-87fa-be14799573e7{fill:none;stroke:#1f2e61;stroke-miterlimit:10;stroke-width:4.76px;}.a6ac7826-8a58-440c-9a2e-9837506afb4d{fill:#1f2e61;}.eb39c709-4e6f-43a5-b7f9-a8b3e1b34397{opacity:0.2;isolation:isolate;fill:url(#f5933c93-dbc9-48f7-b5ea-844ee38843e4);}.ed571551-108e-42af-bceb-995e4b248030{fill:#574e6a;}.e4e03933-be2a-4770-93ac-2edf7e94de0c{fill:#5e493b;}.a67099a2-a655-4337-a2eb-501adf902804{fill:#fff;}.e6d96ac9-a00c-4f4d-83b3-2ba9b4dfcf3a{fill:#ecdbce;}.e17b89e1-96d9-4b8d-a7fd-b19af0b77979{fill:#1e1e1b;}.ecabf8be-730c-4093-b351-028dd14394b5{fill:#00b5e7;}.bccc35d5-db1a-4c24-92aa-0334c38d1ebe{fill:#eee;}.ec8afd2d-4512-4c30-bc1d-0dc1076195a0{fill:#121212;}.ba3aaef3-9982-4fce-9b3d-2659d70a9f59{fill:#004c6f;}.ade8c118-8849-40fd-bff8-d6d46e8d0b5b{fill:#ababab;}</style><linearGradient id="f5933c93-dbc9-48f7-b5ea-844ee38843e4" x1="117.38" y1="-56.57" x2="181.48" y2="-56.57" gradientTransform="matrix(1, 0, 0, -1, -21.07, 189.28)" gradientUnits="userSpaceOnUse"><stop offset="0"/><stop offset="1"/></linearGradient></defs><title>labGuy</title><path class="b8aac331-f25a-4810-87fa-be14799573e7" d="M99.58,46.92c25.11,0,39.73,19.22,58.41,8.41,10.22-5.92,20.1-21.17,28.94-5.79,21.33,37.11-23.11,93.72,50.83,69.27,29.08-9.61-16.2,172.25,23.14,173.53" transform="translate(-46.25 -25.38)"/><path class="a6ac7826-8a58-440c-9a2e-9837506afb4d" d="M100.93,38.28s18.22,9.31,0,17" transform="translate(-46.25 -25.38)"/><path class="eb39c709-4e6f-43a5-b7f9-a8b3e1b34397" d="M96.31,245.34c-.07.83.92,1.28,1.73,1.45,6.89,1.49,13.89.42,20.89-.11a43.72,43.72,0,0,1,8.56,0c1.88.23,3.72.68,5.58,1a77.34,77.34,0,0,0,16.7,1.55c3.08,0,6.3-.31,8.92-1.93a3.78,3.78,0,0,0,1.51-1.51,1.74,1.74,0,0,0-.25-2,2.53,2.53,0,0,0-1.39-.55,56.45,56.45,0,0,0-7.79-.65q-11.84-.4-23.67-.12-6,.14-11.91.46c-3.45.18-7.07.79-10.52.41C102.93,243.2,96.52,242.77,96.31,245.34Z" transform="translate(-46.25 -25.38)"/><path class="ed571551-108e-42af-bceb-995e4b248030" d="M110.46,238c-.44,0-1,.06-1.19.44-.34.55.2,1.42-.28,1.86a1.06,1.06,0,0,1-.51.22,23.62,23.62,0,0,1-4.43.61,5.84,5.84,0,0,0-1.86.24,1.54,1.54,0,0,0-.07,3,5.25,5.25,0,0,0,2.12.26c2.64,0,5.29-.11,7.92-.31a2.57,2.57,0,0,0,1.85-.67,2.61,2.61,0,0,0,.33-1.87c-.06-.86.16-2.8-.41-3.5S111.32,238,110.46,238Z" transform="translate(-46.25 -25.38)"/><path class="ed571551-108e-42af-bceb-995e4b248030" d="M145.51,240a3.22,3.22,0,0,0,2.11-2.11c.17-.8-.09-1.82.56-2.31a1.78,1.78,0,0,1,.58-.26l2.66-.84a1,1,0,0,1,.48-.06.78.78,0,0,1,.41.37,16.1,16.1,0,0,1,1.57,2.73,1.21,1.21,0,0,1,.12,1.05,1.4,1.4,0,0,1-.42.42,47.58,47.58,0,0,1-4.58,2.81,17.74,17.74,0,0,1-4.86,2.19c-1,.18-2.75-.37-2.61-1.69C141.68,240.73,144.41,240.39,145.51,240Z" transform="translate(-46.25 -25.38)"/><path class="e4e03933-be2a-4770-93ac-2edf7e94de0c" d="M160,60.28c-.49-2-1.52-4-.89-6l.81.14c.18.38.35.77.52,1.16a10.06,10.06,0,0,1,.48-3.08c.32-1,1-2,2.06-2s1.58,1.17,1.85,2.13c1.23,4.46.66,9.17.07,13.75A15.63,15.63,0,0,1,160,65.9,11.74,11.74,0,0,0,160,60.28Z" transform="translate(-46.25 -25.38)"/><path class="a67099a2-a655-4337-a2eb-501adf902804" d="M138.93,115.71c-5.26,2.57-12.3-12.43-5.64-15.43,6-2.77,16.13-3.09,21.54-7.37a11.81,11.81,0,0,0,4.47-8.54q.85-10.58,1.2-21.16L165,63l2.52,26.27a14,14,0,0,1-.15,5.08,11.37,11.37,0,0,1-2.49,4.15C158.09,106.51,147.3,111.61,138.93,115.71Z" transform="translate(-46.25 -25.38)"/><path class="e4e03933-be2a-4770-93ac-2edf7e94de0c" d="M74.73,63.07a.81.81,0,0,1,.69-.11,1.59,1.59,0,0,1,1.5-1.68h0a2.59,2.59,0,0,1,2.13,1.15,7.43,7.43,0,0,1,1,2.29c.33,1,.65,2,1,3.06a1.85,1.85,0,0,0,.64-1.15.73.73,0,0,1,.89.27,2.21,2.21,0,0,1,.31,1l1,6.21a16.39,16.39,0,0,1-2.32,1,3,3,0,0,1-2.46-.19c-1-.62-1.29-1.88-1.6-3A21.91,21.91,0,0,0,76,68.07C75.2,66.51,74.19,64.77,74.73,63.07Z" transform="translate(-46.25 -25.38)"/><path class="e6d96ac9-a00c-4f4d-83b3-2ba9b4dfcf3a" d="M82.5,71.91q2.27,9.2,5,18.31a10.61,10.61,0,0,0,5.43,6.66c5.43,2.76,11.25,3.33,16.93,4.66,6.27,1.46,5,7.87,0,8.83-8.09,1.54-17.13-1-24.48-6.74a10.26,10.26,0,0,1-2.9-3.18A12.8,12.8,0,0,1,81.4,96L78.64,72.56Z" transform="translate(-46.25 -25.38)"/><path class="a67099a2-a655-4337-a2eb-501adf902804" d="M168.22,94.86c-2.95,4.24-18.68,18.38-20.14,19.89h0a6,6,0,0,0-1.69,4.86c.54,4.88.49,49,.36,52.93,0,.1,1.94,9.3,1.33,10.89-1.19,3.07-4,8.28-6.69,9.14-5.56,1.75-11.35,2.11-17.1,2.47-9.05.57-18.11-2.66-27.16-2.1a2,2,0,0,1-1.69-.41,3.1,3.1,0,0,1-.66-1.67c-1.4-7.54-.6-15.39.19-23.06q2.1-20.51,4.26-41a47.46,47.46,0,0,1,.83-5.43A4.47,4.47,0,0,0,98.42,117c-1.19-.93-2.36-1.88-3.52-2.83C78.54,103.45,80.79,98,80.79,98l-3-25.3,5.59-.79s3.86,13.5,6,18.62,9.06,6.68,9.06,6.68c1.32.67,3.52.5,4.81,1l2.26.6a43,43,0,0,0,6.62-.07,4,4,0,0,1,1.61.15c.19-.24.39-.49.6-.72A40.76,40.76,0,0,0,135.16,97h1.32a40.49,40.49,0,0,0,4.39-.42c.76-.13,1.47-.26,2.19-.37,0,0,11.38-1.73,13-8.44S158.93,67,158.93,67l.76-4.46,5.84-.38S171.18,90.63,168.22,94.86Z" transform="translate(-46.25 -25.38)"/><path class="e17b89e1-96d9-4b8d-a7fd-b19af0b77979" d="M97.51,160.16c0-.5,4.28-.25,4.49.19l10.28.27a3.62,3.62,0,0,1,2.22.56c.81.67,5.25,2,5.23,3-.48,20.92-5.35,53.08-5.83,74h-5.77c0-6.68-2.19-13.22-3.47-19.78C101.7,203.22,97.28,175.67,97.51,160.16Z" transform="translate(-46.25 -25.38)"/><path class="e17b89e1-96d9-4b8d-a7fd-b19af0b77979" d="M124.64,163.59a2.36,2.36,0,0,1,1.47-.58c2.44-.36,5.48-.46,6.74,1.65.45.74-.08,2.87.68,2.46,22-11.76,2.69,25.94,4,36.07A27.88,27.88,0,0,0,142,216.68l10,17.7a8.63,8.63,0,0,1-5.27,1.9c-1.77-3.27-4.25-4-15.18-14.24-3.65-3.43-7.51-11.43-9-16.21-.85-2.7-1.67-22.84-1.9-25.66-.65-8-.85-8.39-1.5-16.42C119.12,163.13,124.23,164.06,124.64,163.59Z" transform="translate(-46.25 -25.38)"/><path class="ecabf8be-730c-4093-b351-028dd14394b5" d="M141.31,119.45c-.6-4,2.85-7.92,1.71-11.83a5.14,5.14,0,0,0-.81-1.82,6.08,6.08,0,0,0-1.51-1.16c-3.41-2.16-11.15-8.16-12.43-6.55-1.69,2.11-5.1,1.45-8.06,1.31-3.28-.16-3.3-.79-6.13-2-3.08-1.33-6.76,5.3-8.43,7.19-.7.79-4.1,12.24-4.63,16.1l-2.88,20.94c-.7,5.09-1.39,18.61-.17,23.61a2,2,0,0,0,.59,1.11,2.31,2.31,0,0,0,1.48.27l24-1.11a81.11,81.11,0,0,0,15.06-1.65c2.34-.56,4.85-1.52,5.89-3.56.54-1,.6-10.54.66-11.7.19-3.87-1.91-7.73-1.72-11.6C144.18,131.15,142.17,125.28,141.31,119.45Z" transform="translate(-46.25 -25.38)"/><path class="bccc35d5-db1a-4c24-92aa-0334c38d1ebe" d="M130,88.94c-.16.91-.33,1.81-.51,2.71-.08.3-.16.59-.26.88a6.43,6.43,0,0,1-.27.69,13,13,0,0,1-.79,1.47c-.12.19-.25.37-.37.55l-.3.35q-.28.31-.6.6c-.19.17-.87.59-.09.1-.23.14-.44.3-.68.43s-.91.32,0,.06c-.25.07-.48.17-.73.23l-.18,0h-.61l-.78-.23c.86.25.08,0-.15-.09a4.93,4.93,0,0,1-.54-.34s-.43-.31-.52-.4a13.86,13.86,0,0,1-1.74-1.93,4.83,4.83,0,0,0,1.27.51c2.83.58,5.12-1.63,6.26-4.63.67-1.77,1.44-2.42,2.12-2.17A2.92,2.92,0,0,0,130,88.94Z" transform="translate(-46.25 -25.38)"/><path class="e4e03933-be2a-4770-93ac-2edf7e94de0c" d="M129.93,80.5c1.8,2.94,1.84,6.66,2.18,10a11.1,11.1,0,0,1-.43,4.47c-.74,2.34-1.22,3.36-6,6.23L123,102.39a5,5,0,0,1-3.27.26c-14.39-3.65-8-13.69-6.6-21.88a1.59,1.59,0,0,1,.3-.79,1.5,1.5,0,0,1,.85-.4c4.29-.94,8.74-.71,13.13-.47a3.33,3.33,0,0,1,1.36.26A3,3,0,0,1,129.93,80.5Z" transform="translate(-46.25 -25.38)"/><path class="ec8afd2d-4512-4c30-bc1d-0dc1076195a0" d="M110.42,74.85c.84-.58,1.52-.21,2.18.24a1.67,1.67,0,0,1,.31,0,1.93,1.93,0,0,1,1.12.32,14.75,14.75,0,0,1,4.69-.92,4,4,0,0,1,2.14-1.34,3.23,3.23,0,0,1,2.45.92c.9-1.63,2.44-2.56,4.36-1.16a3.12,3.12,0,0,1,.91,1,6.2,6.2,0,0,1,.69.44,3.23,3.23,0,0,1,1.38.18,2.63,2.63,0,0,1,1.72,3.06,3.27,3.27,0,0,1,.29,1.27c.15.35.29.69.41,1l.33.3a2.4,2.4,0,0,1,.88.39,2.66,2.66,0,0,1,1.33,2.75,2,2,0,0,1-.21,1.28,1.34,1.34,0,0,1-.31.36,2,2,0,0,1-1.32.93,8.43,8.43,0,0,1-.2,1,9.39,9.39,0,0,1-1,6l-.06.16h0a1,1,0,0,1-.12.23c-.52.95-2.13.06-1.67-.92.65-1.4,1.28-5.11-1.21-4.33-1.46.45-1.54,1.57-2.18,3a1,1,0,0,1-1.84-.44,17.34,17.34,0,0,1,.77-4.28c.11-.33.22-.63.32-.91a1,1,0,0,1-.28-.11,5.4,5.4,0,0,1-2.17-3.08l-.09,0c-.05.13-.09.26-.15.4a.9.9,0,0,1-1.18.48.84.84,0,0,1-.34-.25,8,8,0,0,1-1-1.73,1.53,1.53,0,0,1-2.16,0l-.09-.1a5.5,5.5,0,0,1-3.06-.12c-.57-.13-1.28-.28-2-.48a3,3,0,0,1-.58.18,1.44,1.44,0,0,1-1.76-1s0,0,0-.06a3.74,3.74,0,0,1-1.59-1.51C109.61,77,109.47,75.52,110.42,74.85Z" transform="translate(-46.25 -25.38)"/><path class="bccc35d5-db1a-4c24-92aa-0334c38d1ebe" d="M112.09,98.72" transform="translate(-46.25 -25.38)"/><path class="a67099a2-a655-4337-a2eb-501adf902804" d="M111.42,97.83l4,5.12c.11,7.37-1.26,55.25-1.93,77.85a12,12,0,0,1-12.41,11.57h-.28c-3-.18-5.4-.36-5.4-.36S91.45,108.61,111.42,97.83Z" transform="translate(-46.25 -25.38)"/><path class="a67099a2-a655-4337-a2eb-501adf902804" d="M126.86,103v77.61a11.93,11.93,0,0,0,11.59,11.85l10.65.36s-2-50.72-2.92-55.81-.62-30.1-2.58-32.11S135.11,97,135.11,97l-4.54.85Z" transform="translate(-46.25 -25.38)"/><path class="ba3aaef3-9982-4fce-9b3d-2659d70a9f59" d="M68.77,25.38H93.83c5.81,0,10.51,20.22,10.51,22s-4.7,22-10.51,22H70c5.82,0,9.2-10.62,9.27-22C79.38,35.28,74.59,25.38,68.77,25.38Z" transform="translate(-46.25 -25.38)"/><ellipse class="ade8c118-8849-40fd-bff8-d6d46e8d0b5b" cx="24.1" cy="22.02" rx="8.95" ry="21.9"/><path class="a6ac7826-8a58-440c-9a2e-9837506afb4d" d="M72,46.69H50.3A2.73,2.73,0,0,1,47.57,44h0a2.73,2.73,0,0,1,2.73-2.73H72a1.25,1.25,0,0,1,1.24,1.24h0v3A1.24,1.24,0,0,1,72,46.69Z" transform="translate(-46.25 -25.38)"/><path class="a6ac7826-8a58-440c-9a2e-9837506afb4d" d="M67.83,52.42H48.48a2.23,2.23,0,0,1-2.23-2.23h0A2.23,2.23,0,0,1,48.48,48H67.83a1,1,0,0,1,1,1v2.43a1,1,0,0,1-1,1Z" transform="translate(-46.25 -25.38)"/></svg>