<svg id="ese10cf2bzps1"
    xmlns="http://www.w3.org/2000/svg"
    xmlns:xlink="http://www.w3.org/1999/xlink" viewBox="0 0 378 196" shape-rendering="geometricPrecision" text-rendering="geometricPrecision">
    <style><![CDATA[#ese10cf2bzps55_to {animation: ese10cf2bzps55_to__to 3100ms linear infinite normal forwards}@keyframes ese10cf2bzps55_to__to { 0% {transform: translate(102.486282px,139.930061px)} 41.935484% {transform: translate(102.486282px,139.930061px);animation-timing-function: cubic-bezier(0,0,0.580000,1)} 70.967742% {transform: translate(61.874570px,133.380049px);animation-timing-function: cubic-bezier(0,0,0.580000,1)} 100% {transform: translate(32.350006px,151.490051px)} }#ese10cf2bzps55_ts {animation: ese10cf2bzps55_ts__ts 3100ms linear infinite normal forwards}@keyframes ese10cf2bzps55_ts__ts { 0% {transform: scale(0.600000,0.600000)} 41.935484% {transform: scale(0.600000,0.600000);animation-timing-function: cubic-bezier(0,0,0.580000,1)} 100% {transform: scale(1,1)} }#ese10cf2bzps55 {animation: ese10cf2bzps55_c_o 3100ms linear infinite normal forwards}@keyframes ese10cf2bzps55_c_o { 0% {opacity: 0} 9.677419% {opacity: 1} 41.935484% {opacity: 1;animation-timing-function: cubic-bezier(0,0,0.580000,1)} 77.419355% {opacity: 1;animation-timing-function: cubic-bezier(0,0,0.580000,1)} 100% {opacity: 0} }#ese10cf2bzps57 {animation: ese10cf2bzps57_c_o 3100ms linear infinite normal forwards}@keyframes ese10cf2bzps57_c_o { 0% {opacity: 0} 25.806452% {opacity: 0;animation-timing-function: cubic-bezier(0.420000,0,0.580000,1)} 41.935484% {opacity: 1} 100% {opacity: 1} }#ese10cf2bzps58 {animation: ese10cf2bzps58_c_o 3100ms linear infinite normal forwards}@keyframes ese10cf2bzps58_c_o { 0% {opacity: 0} 25.806452% {opacity: 0;animation-timing-function: cubic-bezier(0.420000,0,0.580000,1)} 41.935484% {opacity: 1} 100% {opacity: 1} }#ese10cf2bzps59 {animation: ese10cf2bzps59_c_o 3100ms linear infinite normal forwards}@keyframes ese10cf2bzps59_c_o { 0% {opacity: 0} 25.806452% {opacity: 0;animation-timing-function: cubic-bezier(0.420000,0,0.580000,1)} 41.935484% {opacity: 1} 100% {opacity: 1} }#ese10cf2bzps60 {animation: ese10cf2bzps60_c_o 3100ms linear infinite normal forwards}@keyframes ese10cf2bzps60_c_o { 0% {opacity: 0} 25.806452% {opacity: 0;animation-timing-function: cubic-bezier(0.420000,0,0.580000,1)} 41.935484% {opacity: 1} 100% {opacity: 1} }#ese10cf2bzps61 {animation: ese10cf2bzps61_c_o 3100ms linear infinite normal forwards}@keyframes ese10cf2bzps61_c_o { 0% {opacity: 0} 19.354839% {opacity: 0;animation-timing-function: cubic-bezier(0.420000,0,0.580000,1)} 35.483871% {opacity: 1} 100% {opacity: 1} }#ese10cf2bzps62 {animation: ese10cf2bzps62_c_o 3100ms linear infinite normal forwards}@keyframes ese10cf2bzps62_c_o { 0% {opacity: 0} 19.354839% {opacity: 0;animation-timing-function: cubic-bezier(0.420000,0,0.580000,1)} 35.483871% {opacity: 1} 100% {opacity: 1} }#ese10cf2bzps63 {animation: ese10cf2bzps63_c_o 3100ms linear infinite normal forwards}@keyframes ese10cf2bzps63_c_o { 0% {opacity: 0} 19.354839% {opacity: 0;animation-timing-function: cubic-bezier(0.420000,0,0.580000,1)} 35.483871% {opacity: 1} 100% {opacity: 1} }#ese10cf2bzps64 {animation: ese10cf2bzps64_c_o 3100ms linear infinite normal forwards}@keyframes ese10cf2bzps64_c_o { 0% {opacity: 0} 19.354839% {opacity: 0;animation-timing-function: cubic-bezier(0.420000,0,0.580000,1)} 35.483871% {opacity: 1} 100% {opacity: 1} }#ese10cf2bzps65 {animation: ese10cf2bzps65_c_o 3100ms linear infinite normal forwards}@keyframes ese10cf2bzps65_c_o { 0% {opacity: 0} 19.354839% {opacity: 0;animation-timing-function: cubic-bezier(0.420000,0,0.580000,1)} 35.483871% {opacity: 1} 100% {opacity: 1} }#ese10cf2bzps66 {animation: ese10cf2bzps66_c_o 3100ms linear infinite normal forwards}@keyframes ese10cf2bzps66_c_o { 0% {opacity: 0} 12.903226% {opacity: 0;animation-timing-function: cubic-bezier(0.420000,0,0.580000,1)} 29.032258% {opacity: 1} 100% {opacity: 1} }#ese10cf2bzps67 {animation: ese10cf2bzps67_c_o 3100ms linear infinite normal forwards}@keyframes ese10cf2bzps67_c_o { 0% {opacity: 0} 12.903226% {opacity: 0;animation-timing-function: cubic-bezier(0.420000,0,0.580000,1)} 29.032258% {opacity: 1} 100% {opacity: 1} }#ese10cf2bzps68 {animation: ese10cf2bzps68_c_o 3100ms linear infinite normal forwards}@keyframes ese10cf2bzps68_c_o { 0% {opacity: 0} 12.903226% {opacity: 0;animation-timing-function: cubic-bezier(0.420000,0,0.580000,1)} 29.032258% {opacity: 1} 100% {opacity: 1} }#ese10cf2bzps69 {animation: ese10cf2bzps69_c_o 3100ms linear infinite normal forwards}@keyframes ese10cf2bzps69_c_o { 0% {opacity: 0} 12.903226% {opacity: 0;animation-timing-function: cubic-bezier(0.420000,0,0.580000,1)} 29.032258% {opacity: 1} 100% {opacity: 1} }#ese10cf2bzps70 {animation: ese10cf2bzps70_c_o 3100ms linear infinite normal forwards}@keyframes ese10cf2bzps70_c_o { 0% {opacity: 0} 12.903226% {opacity: 0;animation-timing-function: cubic-bezier(0.420000,0,0.580000,1)} 29.032258% {opacity: 1} 100% {opacity: 1} }#ese10cf2bzps71 {animation: ese10cf2bzps71_c_o 3100ms linear infinite normal forwards}@keyframes ese10cf2bzps71_c_o { 0% {opacity: 0} 6.451613% {opacity: 0;animation-timing-function: cubic-bezier(0.420000,0,0.580000,1)} 22.580645% {opacity: 1} 100% {opacity: 1} }#ese10cf2bzps72 {animation: ese10cf2bzps72_c_o 3100ms linear infinite normal forwards}@keyframes ese10cf2bzps72_c_o { 0% {opacity: 0} 6.451613% {opacity: 0;animation-timing-function: cubic-bezier(0.420000,0,0.580000,1)} 22.580645% {opacity: 1} 100% {opacity: 1} }#ese10cf2bzps73 {animation: ese10cf2bzps73_c_o 3100ms linear infinite normal forwards}@keyframes ese10cf2bzps73_c_o { 0% {opacity: 0} 6.451613% {opacity: 0;animation-timing-function: cubic-bezier(0.420000,0,0.580000,1)} 22.580645% {opacity: 1} 100% {opacity: 1} }#ese10cf2bzps74 {animation: ese10cf2bzps74_c_o 3100ms linear infinite normal forwards}@keyframes ese10cf2bzps74_c_o { 0% {opacity: 0} 6.451613% {opacity: 0;animation-timing-function: cubic-bezier(0.420000,0,0.580000,1)} 22.580645% {opacity: 1} 100% {opacity: 1} }#ese10cf2bzps75 {animation: ese10cf2bzps75_c_o 3100ms linear infinite normal forwards}@keyframes ese10cf2bzps75_c_o { 0% {opacity: 0} 6.451613% {opacity: 0;animation-timing-function: cubic-bezier(0.420000,0,0.580000,1)} 22.580645% {opacity: 1} 100% {opacity: 1} }#ese10cf2bzps76_tr {animation: ese10cf2bzps76_tr__tr 3100ms linear infinite normal forwards}@keyframes ese10cf2bzps76_tr__tr { 0% {transform: translate(150.006210px,102.705780px) rotate(0deg);animation-timing-function: cubic-bezier(0.445000,0.050000,0.550000,0.950000)} 48.387097% {transform: translate(150.006210px,102.705780px) rotate(10deg);animation-timing-function: cubic-bezier(0.445000,0.050000,0.550000,0.950000)} 100% {transform: translate(150.006210px,102.705780px) rotate(0deg)} }#ese10cf2bzps82_ts {animation: ese10cf2bzps82_ts__ts 3100ms linear infinite normal forwards}@keyframes ese10cf2bzps82_ts__ts { 0% {transform: translate(276.500000px,19.500000px) scale(0.300000,0.300000);animation-timing-function: cubic-bezier(0.420000,0,0.580000,1)} 16.129032% {transform: translate(276.500000px,19.500000px) scale(1,1);animation-timing-function: step-end} 48.387097% {transform: translate(276.500000px,19.500000px) scale(0.300000,0.300000);animation-timing-function: cubic-bezier(0.420000,0,0.580000,1)} 64.516129% {transform: translate(276.500000px,19.500000px) scale(1,1)} 100% {transform: translate(276.500000px,19.500000px) scale(1,1)} }#ese10cf2bzps82 {animation: ese10cf2bzps82_c_o 3100ms linear infinite normal forwards}@keyframes ese10cf2bzps82_c_o { 0% {opacity: 0;animation-timing-function: cubic-bezier(0.420000,0,0.580000,1)} 16.129032% {opacity: 1;animation-timing-function: cubic-bezier(0.420000,0,0.580000,1)} 48.387097% {opacity: 0;animation-timing-function: cubic-bezier(0.420000,0,0.580000,1)} 64.516129% {opacity: 1;animation-timing-function: cubic-bezier(0.420000,0,0.580000,1)} 77.419355% {opacity: 0} 100% {opacity: 0} }#ese10cf2bzps83_ts {animation: ese10cf2bzps83_ts__ts 3100ms linear infinite normal forwards}@keyframes ese10cf2bzps83_ts__ts { 0% {transform: translate(304.500000px,19.500000px) scale(0.300000,0.300000)} 25.806452% {transform: translate(304.500000px,19.500000px) scale(0.300000,0.300000);animation-timing-function: cubic-bezier(0.420000,0,0.580000,1)} 41.935484% {transform: translate(304.500000px,19.500000px) scale(1,1);animation-timing-function: step-end} 70.967742% {transform: translate(304.500000px,19.500000px) scale(0.300000,0.300000);animation-timing-function: cubic-bezier(0.420000,0,0.580000,1)} 87.096774% {transform: translate(304.500000px,19.500000px) scale(1,1)} 100% {transform: translate(304.500000px,19.500000px) scale(1,1)} }#ese10cf2bzps83 {animation: ese10cf2bzps83_c_o 3100ms linear infinite normal forwards}@keyframes ese10cf2bzps83_c_o { 0% {opacity: 0} 25.806452% {opacity: 0;animation-timing-function: cubic-bezier(0.420000,0,0.580000,1)} 41.935484% {opacity: 1;animation-timing-function: cubic-bezier(0.420000,0,0.580000,1)} 70.967742% {opacity: 0;animation-timing-function: cubic-bezier(0.420000,0,0.580000,1)} 87.096774% {opacity: 1;animation-timing-function: cubic-bezier(0.420000,0,0.580000,1)} 100% {opacity: 0} }#ese10cf2bzps84_ts {animation: ese10cf2bzps84_ts__ts 3100ms linear infinite normal forwards}@keyframes ese10cf2bzps84_ts__ts { 0% {transform: translate(290.500000px,19.500000px) scale(0.300000,0.300000)} 12.903226% {transform: translate(290.500000px,19.500000px) scale(0.300000,0.300000);animation-timing-function: cubic-bezier(0.420000,0,0.580000,1)} 29.032258% {transform: translate(290.500000px,19.500000px) scale(1,1);animation-timing-function: step-end} 61.290323% {transform: translate(290.500000px,19.500000px) scale(0.300000,0.300000);animation-timing-function: cubic-bezier(0.420000,0,0.580000,1)} 77.419355% {transform: translate(290.500000px,19.500000px) scale(1,1)} 100% {transform: translate(290.500000px,19.500000px) scale(1,1)} }#ese10cf2bzps84 {animation: ese10cf2bzps84_c_o 3100ms linear infinite normal forwards}@keyframes ese10cf2bzps84_c_o { 0% {opacity: 0} 12.903226% {opacity: 0;animation-timing-function: cubic-bezier(0.420000,0,0.580000,1)} 29.032258% {opacity: 1;animation-timing-function: cubic-bezier(0.420000,0,0.580000,1)} 61.290323% {opacity: 0;animation-timing-function: cubic-bezier(0.420000,0,0.580000,1)} 77.419355% {opacity: 1;animation-timing-function: cubic-bezier(0.420000,0,0.580000,1)} 90.322581% {opacity: 0} 100% {opacity: 0} }]]></style>
    <defs>
        <linearGradient id="ese10cf2bzps6-fill" x1="354.260000" y1="574.120000" x2="403.790000" y2="574.120000" spreadMethod="pad" gradientUnits="userSpaceOnUse">
            <stop id="ese10cf2bzps6-fill-0" offset="0%" stop-color="rgb(0,0,0)"/>
            <stop id="ese10cf2bzps6-fill-1" offset="100%" stop-color="rgb(0,0,0)"/>
        </linearGradient>
        <linearGradient id="ese10cf2bzps7-fill" x1="292.371700" y1="577.320800" x2="353.311700" y2="575.492600" spreadMethod="pad" gradientUnits="userSpaceOnUse">
            <stop id="ese10cf2bzps7-fill-0" offset="0%" stop-color="rgb(0,0,0)"/>
            <stop id="ese10cf2bzps7-fill-1" offset="100%" stop-color="rgb(0,0,0)"/>
        </linearGradient>
        <linearGradient id="ese10cf2bzps8-fill" x1="462.143000" y1="570.936500" x2="523.073000" y2="569.108600" spreadMethod="pad" gradientUnits="userSpaceOnUse">
            <stop id="ese10cf2bzps8-fill-0" offset="0%" stop-color="rgb(0,0,0)"/>
            <stop id="ese10cf2bzps8-fill-1" offset="100%" stop-color="rgb(0,0,0)"/>
        </linearGradient>
        <linearGradient id="ese10cf2bzps9-fill" x1="426.310000" y1="571.780000" x2="471.470000" y2="571.780000" spreadMethod="pad" gradientUnits="userSpaceOnUse">
            <stop id="ese10cf2bzps9-fill-0" offset="0%" stop-color="rgb(0,0,0)"/>
            <stop id="ese10cf2bzps9-fill-1" offset="100%" stop-color="rgb(0,0,0)"/>
        </linearGradient>
    </defs>
    <g id="ese10cf2bzps4">
        <g id="ese10cf2bzps5">
            <path id="ese10cf2bzps6" style="isolation:isolate" d="M367.690000,572.890000C363.840000,572.770000,358.690000,572.230000,355.470000,574.100000C352.470000,575.860000,355.700000,576.660000,358.350000,576.920000C364.770968,577.510560,371.239258,577.339370,377.620000,576.410000C385.730000,575.290000,394.130000,576.110000,402.010000,573.980000C406.570000,572.740000,401.200000,570.980000,399.220000,570.980000C388.790000,570.830000,378.590000,573.130000,368.150000,572.910000Z" transform="matrix(1 0 0 1 -147 -386)" opacity="0.25" fill="url(#ese10cf2bzps6-fill)" stroke="none" stroke-width="1"/>
            <path id="ese10cf2bzps7" style="isolation:isolate" d="M331,575.830000C320.120000,575.360000,309.260000,574.830000,298.380000,575.650000C297.260000,575.730000,293.010000,576.180000,293.300000,578.040000C293.450000,579.040000,295.300000,579.260000,296.060000,579.400000C298.730260,579.803047,301.430095,579.977014,304.130000,579.920000C310.310000,580.050000,316.450000,579.280000,322.610000,578.920000C331.786472,578.501425,340.981308,578.758787,350.120000,579.690000C351.120000,579.770000,355.050000,579.560000,354.120000,577.910000C353.500000,576.830000,350.250000,576.540000,349.240000,576.340000C343.180000,576.330000,337.100000,576.070000,331,575.830000Z" transform="matrix(1 0 0 1 -147 -386)" opacity="0.25" fill="url(#ese10cf2bzps7-fill)" stroke="none" stroke-width="1"/>
            <path id="ese10cf2bzps8" style="isolation:isolate" d="M500.740000,569.890000C489.870000,569.420000,479.010000,568.890000,468.130000,569.710000C467.010000,569.800000,462.760000,570.240000,463.050000,572.110000C463.200000,573.110000,465.050000,573.330000,465.810000,573.470000C468.477157,573.870009,471.173696,574.040633,473.870000,573.980000C480.060000,574.120000,486.200000,573.350000,492.360000,572.980000C501.532896,572.558088,510.724408,572.812108,519.860000,573.740000C520.860000,573.830000,524.800000,573.620000,523.860000,571.960000C523.230000,570.880000,519.990000,570.600000,518.980000,570.400000C512.880000,570.400000,506.810000,570.160000,500.740000,569.890000Z" transform="matrix(1 0 0 1 -147 -386)" opacity="0.25" fill="url(#ese10cf2bzps8-fill)" stroke="none" stroke-width="1"/>
            <path id="ese10cf2bzps9" style="isolation:isolate" d="M438.560000,570.550000C435.050000,570.440000,430.330000,569.890000,427.420000,571.760000C424.670000,573.520000,427.630000,574.320000,430.040000,574.590000C435.890739,575.180660,441.793404,575.009228,447.600000,574.080000C455,572.950000,462.660000,573.770000,469.840000,571.640000C474,570.410000,469.100000,568.640000,467.300000,568.640000C457.790000,568.490000,448.490000,570.790000,438.970000,570.570000Z" transform="matrix(1 0 0 1 -147 -386)" opacity="0.25" fill="url(#ese10cf2bzps9-fill)" stroke="none" stroke-width="1"/>
            <polygon id="ese10cf2bzps10" points="170.920000,52.700000 178.690000,53.110000 177,64.410000 169.750000,68.090000 162.640000,57.590000 170.920000,52.700000" fill="rgb(51,54,55)" stroke="none" stroke-width="1"/>
            <path id="ese10cf2bzps11" d="M341.560000,491.770000C345.470000,504.020000,347.720000,506.340000,349.220000,506.690000C352.020000,507.340000,351.550000,507.500000,354.400000,507.860000C356.790000,508.170000,356.990000,507,361.640000,513.410000C363.640000,519.820000,358.870000,512.140000,357.070000,514.030000C357.070000,514.030000,338.520000,513.570000,337.430000,507.560000C337.430000,507.560000,334.290000,493.380000,334.340000,490.680000" transform="matrix(1 0 0 1 -147 -386)" fill="rgb(255,255,255)" stroke="none" stroke-width="1"/>
            <rect id="ese10cf2bzps12" width="6.600000" height="9.740000" rx="0" ry="0" transform="matrix(1 0 0 1 173.47000000000000 148.84000000000000)" fill="rgb(81,102,110)" stroke="none" stroke-width="1"/>
            <path id="ese10cf2bzps13" d="M286.110000,470.770000L302.560000,535.640000L354.470000,535.640000L353,528.880000L305.800000,528.880000C305.800000,528.880000,302.560000,470.240000,286.110000,470.770000Z" transform="matrix(1 0 0 1 -147 -386)" fill="rgb(31,46,97)" stroke="none" stroke-width="1"/>
            <path id="ese10cf2bzps14" d="M349.350000,523.620000C350.829550,527.957662,351.661823,532.489677,351.820000,537.070000C351.820000,543.580000,357.410000,566.780000,357.910000,569.240000C358.410000,571.700000,365.670000,569.240000,365.670000,569.240000C365.670000,569.240000,362,534.610000,360.990000,531.240000C359.980000,527.870000,361.860000,515,354.940000,517.240000C348.020000,519.480000,349.350000,523.620000,349.350000,523.620000Z" transform="matrix(1 0 0 1 -147 -386)" fill="rgb(41,38,36)" stroke="none" stroke-width="1"/>
            <path id="ese10cf2bzps15" d="M295.140000,487.860000C301.620000,462.580000,303.400000,453.860000,316.340000,451.730000C316.340000,451.730000,310.710000,483.070000,316.490000,474.370000C317.260000,473.210000,305,494,302.920000,498.080000C302.920000,498.080000,297,504,295,499C293,494,295.140000,487.860000,295.140000,487.860000Z" transform="matrix(1 0 0 1 -147 -386)" fill="rgb(255,255,255)" stroke="none" stroke-width="1"/>
            <ellipse id="ese10cf2bzps16" rx="5.760000" ry="2.050000" transform="matrix(1 0 0 1 227.97999999999999 102.29000000000001)" fill="rgb(154,97,79)" stroke="none" stroke-width="1"/>
            <path id="ese10cf2bzps17" d="M363.720000,569C363.720000,569,379.280000,570.630000,375.870000,573.470000C372.460000,576.310000,357.460000,574.700000,357.460000,574.700000L359,569Z" transform="matrix(1 0 0 1 -147 -386)" fill="rgb(128,131,133)" stroke="none" stroke-width="1"/>
            <path id="ese10cf2bzps18" d="M337.400000,501.170000C337.270000,502.070000,340.240000,503.170000,342.810000,503.170000C358.270000,503.310000,360.090000,503.310000,363.700000,519.780000C366.500000,532.580000,381.770000,564.940000,381.770000,564.940000L378.430000,566.100000C378.430000,566.100000,359.100000,539,359.190000,533.640000C359.280000,528.280000,356.530000,522.640000,353.310000,523.960000C351.090000,524.870000,320.310000,515.530000,316.310000,505.720000C315.590000,503.920000,332.020000,501.250000,335.900000,500.160000C336.790000,500,337.640000,499.570000,337.400000,501.170000Z" transform="matrix(1 0 0 1 -147 -386)" fill="rgb(41,38,36)" stroke="none" stroke-width="1"/>
            <polyline id="ese10cf2bzps19" points="223.720000,101 219.380000,99.790000 219.020000,102.140000 222.220000,102.570000" fill="rgb(154,97,79)" stroke="none" stroke-width="1"/>
            <polygon id="ese10cf2bzps20" points="257.810000,82.060000 247.990000,82.060000 233.980000,102.570000 243.960000,102.570000 257.810000,82.060000" fill="rgb(41,38,36)" stroke="none" stroke-width="1"/>
            <rect id="ese10cf2bzps21" width="22.620000" height="1.780000" rx="0" ry="0" transform="matrix(1 0 0 1 220.53000000000000 102.56999999999999)" fill="rgb(41,38,36)" stroke="none" stroke-width="1"/>
            <path id="ese10cf2bzps22" d="M335.560000,430.310000C335.770000,437.250000,331.260000,442.790000,324.310000,443.010000C317.365019,443.217107,311.567107,437.754981,311.360000,430.810000C311.152893,423.865019,316.615019,418.067107,323.560000,417.860000C330.560000,417.650000,335.390000,423.370000,335.560000,430.310000Z" transform="matrix(1 0 0 1 -147 -386)" fill="rgb(154,97,79)" stroke="none" stroke-width="1"/>
            <path id="ese10cf2bzps23" d="M335.700000,431.610000C337.790000,418.160000,325.140000,431.910000,325.140000,431.910000L318.670000,434.640000C318.670000,434.640000,317.370000,443.230000,322.590000,444.980000C327.810000,446.730000,333.240000,447.440000,335.700000,431.610000Z" transform="matrix(1 0 0 1 -147 -386)" fill="rgb(154,97,79)" stroke="none" stroke-width="1"/>
            <rect id="ese10cf2bzps24" width="2.980000" height="24.790000" rx="0" ry="0" transform="matrix(1 0 0 1 175.40000000000001 157.28999999999999)" fill="rgb(81,102,110)" stroke="none" stroke-width="1"/>
            <polygon id="ese10cf2bzps25" points="176.770000,180.150000 155.200000,186.500000 155.200000,188.430000 176.890000,183.440000 197.530000,187.870000 198.010000,186.580000 176.770000,180.150000" fill="rgb(81,102,110)" stroke="none" stroke-width="1"/>
            <circle id="ese10cf2bzps26" r="3.470000" transform="matrix(1 0 0 1 154.59999999999999 189.52000000000001)" fill="rgb(81,102,110)" stroke="none" stroke-width="1"/>
            <circle id="ese10cf2bzps27" r="3.470000" transform="matrix(1 0 0 1 198.78000000000000 189.52000000000001)" fill="rgb(81,102,110)" stroke="none" stroke-width="1"/>
            <path id="ese10cf2bzps28" d="" transform="matrix(1 0 0 1 -147 -386)" fill="rgb(154,97,79)" stroke="none" stroke-width="1"/>
            <polygon id="ese10cf2bzps29" points="224.840000,107.640000 211.370000,194.350000 208.710000,194.350000 218.770000,107.640000 224.840000,107.640000" fill="rgb(81,102,110)" stroke="none" stroke-width="1"/>
            <rect id="ese10cf2bzps30" width="113.430000" height="2.960000" rx="0" ry="0" transform="matrix(1 0 0 1 207.36000000000001 104.68000000000001)" fill="rgb(81,102,110)" stroke="none" stroke-width="1"/>
            <path id="ese10cf2bzps31" d="M367.350000,484.640000C366.790000,485.810000,367.940000,488.910000,367.350000,490.080000C367.229054,490.403223,367.021472,490.686918,366.750000,490.900000C366.319588,491.070416,365.840412,491.070416,365.410000,490.900000C357.140000,489,349.230000,494,341,493.600000C339.280116,493.541965,337.585441,493.169137,336,492.500000C335.611196,492.342879,335.252558,492.119576,334.940000,491.840000C334.560034,491.379441,334.342165,490.806655,334.320000,490.210000C333.568740,485.467043,332.462294,480.787212,331.010000,476.210000C330.987275,476.055407,330.936437,475.906282,330.860000,475.770000C330.783563,475.633718,326.790000,454.910000,325.720000,450.340000L327.120000,447.850000C326.840000,447.850000,328.200000,447.780000,330.120000,450.560000C331.043245,452.052122,331.766117,453.659252,332.270000,455.340000Q335.870000,465.840000,339.010000,476.510000C339.540000,478.340000,339.950000,480.650000,341.630000,481.710000C342.800000,482.440000,355.820000,484.020000,359.070000,484.030000C362,484.070000,363.650000,484.430000,367.350000,484.640000Z" transform="matrix(1 0 0 1 -147 -386)" fill="rgb(255,255,255)" stroke="none" stroke-width="1"/>
            <path id="ese10cf2bzps32" d="" transform="matrix(1 0 0 1 -147 -386)" fill="rgb(238,238,238)" stroke="none" stroke-width="1"/>
            <path id="ese10cf2bzps33" d="M317.460000,508.400000C317.460000,508.400000,332.280000,501.500000,337.270000,502.070000C342.260000,502.640000,327.430000,452.160000,327.430000,452.160000L327.230000,449.450000L320.560000,447.920000L317.720000,458.810000L315.250000,508.580000Z" transform="matrix(1 0 0 1 -147 -386)" fill="rgb(138,118,185)" stroke="none" stroke-width="1"/>
            <path id="ese10cf2bzps34" d="M317.450000,448.720000C316.621301,449.299187,315.759869,449.830070,314.870000,450.310000C313.720000,450.930000,316.750000,452.380000,315.870000,453.380000C310.640000,459.630000,307.870000,467.650000,306.690000,475.720000C304.910000,487.940000,305.540000,501.340000,307.260000,513.540000C307.880000,517.980000,309.120000,522.680000,313.420000,524.920000C315.240000,526.210000,318.060000,526.280000,320.170000,526.530000C322.940000,526.880000,325.720000,527.200000,328.500000,527.530000C334.060000,528.140000,339.750000,527.900000,345.210000,529.150000C351.630000,530.610000,351.930000,530.760000,352.050000,528.470000C352.410000,521.850000,349.200000,516.950000,351.920000,511.360000C353.840000,507.430000,342.720000,505.570000,326.100000,505.730000C311.100000,505.880000,318.100000,459.180000,319.630000,449.240000Z" transform="matrix(1 0 0 1 -147 -386)" fill="rgb(255,255,255)" stroke="none" stroke-width="1"/>
            <path id="ese10cf2bzps35" d="M328.380000,442.400000C328.380000,442.400000,326.530000,447.400000,327.230000,449.400000C327.930000,451.400000,318.610000,448.960000,318.610000,448.960000L318.830000,439.150000Z" transform="matrix(1 0 0 1 -147 -386)" fill="rgb(154,97,79)" stroke="none" stroke-width="1"/>
            <path id="ese10cf2bzps36" d="M318.150000,450.830000C314,457.830000,311.390000,452.830000,306.730000,456.380000C302.590000,459.540000,310.920000,428.770000,311.910000,424.770000C315.270000,411.110000,332.280000,416.240000,337.290000,423.690000C344.040000,433.690000,334.140000,431.430000,325.450000,429.220000C324.450000,428.970000,319.660000,430.220000,320.700000,436.840000C321.480225,441.657782,320.579878,446.597333,318.150000,450.830000Z" transform="matrix(1 0 0 1 -147 -386)" fill="rgb(74,19,6)" stroke="none" stroke-width="1"/>
            <path id="ese10cf2bzps37" d="M378.270000,564.600000L377.750000,569.540000C377.639114,569.959805,377.711821,570.406953,377.950000,570.770000C378.300962,571.052060,378.756678,571.168723,379.200000,571.090000C382.520000,570.820000,385.430000,568.900000,388.490000,567.590000C390.306387,566.806750,392.204934,566.229806,394.150000,565.870000C394.430000,565.870000,394.770000,565.730000,394.850000,565.450000C394.890385,565.333398,394.890385,565.206602,394.850000,565.090000C394.450000,563.810000,392.850000,563.520000,391.480000,563.440000L379.090000,562.770000C378.330000,562.770000,377.300000,562.890000,377.220000,563.650000" transform="matrix(1 0 0 1 -147 -386)" fill="rgb(128,131,133)" stroke="none" stroke-width="1"/>
            <path id="ese10cf2bzps38" d="M443.250000,571.220000C444.250000,569.980000,443.750000,566,442.870000,563.880000C442.870000,563.880000,439.870000,569.210000,436.140000,568.880000C434.749846,568.841262,433.384836,568.500010,432.140000,567.880000C429.810000,569.390000,427.770000,570.450000,427.680000,571.170000C427.560000,572.820000,442.210000,572.480000,443.250000,571.220000Z" transform="matrix(1 0 0 1 -147 -386)" fill="rgb(32,35,90)" stroke="none" stroke-width="1"/>
            <path id="ese10cf2bzps39" d="M443.350000,557.470000C442.433532,556.955673,441.691768,556.179085,441.220000,555.240000L439.360000,555.340000C439.333493,557.053788,439.146002,558.761294,438.800000,560.440000C437.280000,566.560000,427.910000,569.630000,427.720000,571.220000C427.530000,572.810000,442.200000,572.470000,443.240000,571.220000C444.280000,569.970000,443.740000,566,442.860000,563.880000C442.560000,563.070000,442.820000,560.530000,443.350000,557.470000Z" transform="matrix(1 0 0 1 -147 -386)" fill="rgb(224,223,204)" stroke="none" stroke-width="1"/>
            <path id="ese10cf2bzps40" d="M466.750000,561.600000C465.860000,565.800000,458,570.060000,456.420000,571.230000C454,573.030000,469.320000,572.100000,472.630000,571.230000C475.940000,570.360000,471.990000,562.170000,471.990000,562.170000Z" transform="matrix(1 0 0 1 -147 -386)" fill="rgb(224,223,204)" stroke="none" stroke-width="1"/>
            <path id="ese10cf2bzps41" d="M480.560000,437.560000C480.380270,437.508592,480.189730,437.508592,480.010000,437.560000C479.841553,437.400856,479.616009,437.316426,479.384465,437.325839C479.152921,437.335251,478.934974,437.437709,478.780000,437.610000C478.660217,437.736451,478.583251,437.897381,478.560000,438.070000C478.050000,439.990000,478.330000,441.780000,478.340000,443.730000C478.340000,446.680000,476.950000,448.020000,474.160000,448.730000C473.625366,448.858521,473.294796,449.394579,473.420000,449.930000C473.450691,450.063687,473.508558,450.189631,473.590000,450.300000C475.376803,452.373882,477.944657,453.612536,480.680000,453.720000C483.330000,453.720000,484.930000,451.970000,485.920000,449.720000C488,444.860000,485.900000,438.770000,480.560000,437.560000Z" transform="matrix(1 0 0 1 -147 -386)" fill="rgb(134,42,19)" stroke="none" stroke-width="1"/>
            <path id="ese10cf2bzps42" d="M478.110000,422.560000C478.053364,422.333007,477.908671,422.137910,477.707893,422.017819C477.507116,421.897728,477.266783,421.862529,477.040000,421.920000C476.965363,421.937756,476.894331,421.968198,476.830000,422.010000C474.761669,423.037333,473.409987,425.102206,473.295902,427.408804C473.181816,429.715401,474.323141,431.903580,476.280000,433.130000C476.744067,433.427412,477.361290,433.293233,477.660000,432.830000C477.692462,432.786893,477.719342,432.739853,477.740000,432.690000C479.150000,429.380000,480.280000,425.730000,478.110000,422.560000Z" transform="matrix(1 0 0 1 -147 -386)" fill="rgb(134,42,19)" stroke="none" stroke-width="1"/>
            <path id="ese10cf2bzps43" d="M484.060000,514.470000L486.460000,497.470000L482.780000,502.470000L456.390000,509.070000C454.213946,509.957316,452.788374,512.070007,452.780000,514.420000C452.900000,521.730000,438.140000,554.220000,435.120000,560.780000C434.975136,561.130807,435.006300,561.529674,435.203892,561.853724C435.401484,562.177775,435.741799,562.388135,436.120000,562.420000C438.628102,562.798037,441.170842,562.891964,443.700000,562.700000C445.424564,562.581341,446.928718,561.485290,447.570000,559.880000C451.620000,548.790000,463.070000,522.740000,464.570000,518.880000C464.870000,520.450000,484.060000,514.470000,484.060000,514.470000Z" transform="matrix(1 0 0 1 -147 -386)" fill="rgb(128,131,133)" stroke="none" stroke-width="1"/>
            <path id="ese10cf2bzps44" d="M479.470000,460.380000C479.719070,459.030692,480.250703,457.749320,481.030000,456.620000C483.683423,452.828631,487.938284,450.474250,492.560000,450.240000C490.828655,448.383903,489.771993,445.999369,489.560000,443.470000L481.820000,445.840000C481.820000,445.840000,485.500000,452.050000,480.950000,454.710000C479.760000,455.410000,477.350000,459.030000,474.640000,463.320000L474.870000,466.400000C475.908247,464.059311,477.484307,461.996727,479.470000,460.380000Z" transform="matrix(1 0 0 1 -147 -386)" fill="rgb(232,179,136)" stroke="none" stroke-width="1"/>
            <path id="ese10cf2bzps45" d="M477.320000,459.190000C473.180000,465.750000,468.260000,474.060000,466.840000,473.790000C464.590000,473.370000,451.610000,457.170000,449.160000,456.790000C446.710000,456.410000,437.270000,452.590000,437.080000,453.660000C436.890000,454.730000,436.650000,461.090000,441.480000,461.660000C446.310000,462.230000,446.660000,460.660000,448.540000,462.730000C450.420000,464.800000,460.140000,486.080000,466.640000,483.730000C470.320000,482.400000,475.040000,477.890000,478.440000,474.230000" transform="matrix(1 0 0 1 -147 -386)" fill="rgb(232,179,136)" stroke="none" stroke-width="1"/>
            <path id="ese10cf2bzps46" d="M475,429.150000C475.037510,424.624747,477.801706,420.569277,482,418.880000C498.660000,421.010000,496.060000,433.330000,493.670000,439.880000C491.280000,446.430000,481.530000,447.650000,477.720000,447.070000C474.850000,446.660000,474.430000,442.840000,474.570000,438.140000C474.030000,438.040000,472.740000,437.610000,472.740000,437.040000C473.307684,435.529766,474.010536,434.073858,474.840000,432.690000C475,431.530000,475,430.320000,475,429.150000Z" transform="matrix(1 0 0 1 -147 -386)" fill="rgb(232,179,136)" stroke="none" stroke-width="1"/>
            <path id="ese10cf2bzps47" d="M505.770000,501.130000C505.679627,500.735612,505.552401,500.350587,505.390000,499.980000C500.930000,500.280000,486.070000,500.720000,482.010000,500.980000C481.730000,503.220000,483.260000,507.880000,477.010000,508.980000C470.270000,510.180000,457.550000,513.670000,456.280000,516.570000C455.010000,519.470000,461.280000,557.070000,465.700000,563.070000C468.830000,562.490000,472.110000,563.020000,472.930000,562.270000C470.360000,556.690000,473.670000,527.270000,471.160000,525.680000L471.780000,525.680000C476.210000,525.680000,502.780000,525.780000,506.900000,517.950000C510.800000,510.490000,506.240000,502.910000,505.770000,501.130000Z" transform="matrix(1 0 0 1 -147 -386)" fill="rgb(128,131,133)" stroke="none" stroke-width="1"/>
            <path id="ese10cf2bzps48" d="M507.630000,505.140000C507.310000,502.720000,500.880000,460.570000,499.540000,457.190000C498.710000,455.090000,495.120000,453.050000,492.410000,450.120000C493.600000,448.920000,492.310000,446.520000,490.660000,447.480000C488.270000,448.870000,480.560000,452.950000,482.560000,453C482.326006,453.207197,482.075137,453.394513,481.810000,453.560000C479.580000,454.870000,471.860000,466.430000,467.750000,471.890000C468.750000,474.070000,471.550000,479.280000,473.980000,481.100000C476.146252,478.982493,478.487954,477.052262,480.980000,475.330000C483.472046,473.607738,478.760000,475.660000,481.120000,478.330000C482.630000,480.050000,482.300000,497.330000,481.700000,501.330000C481.336321,503.792982,483.037249,506.084759,485.500000,506.450000L485.890000,506.450000C492.890000,507,507.640000,505.270000,507.630000,505.140000Z" transform="matrix(1 0 0 1 -147 -386)" fill="rgb(0,152,255)" stroke="none" stroke-width="1"/>
            <path id="ese10cf2bzps49" d="M502.560000,445.140000C502.130000,442.990000,500.560000,441.230000,499.710000,439.280000C499.384216,438.546731,499.100424,437.795516,498.860000,437.030000C498.730000,435.340000,498.720000,433.650000,498.570000,432.030000C498.100000,426.440000,495.740000,421.340000,490.280000,419.140000C485.290062,417.239520,479.644575,418.638932,476.120000,422.650000C475.931159,422.812993,475.846723,423.066301,475.900000,423.310000L475.900000,423.400000C475.971671,426.874600,477.872700,430.053121,480.900000,431.760000C483.090000,433.100000,486.740000,433.760000,488.520000,435.870000L488.520000,436.870000C488.501819,438.343084,488.608871,439.815048,488.840000,441.270000C489.140000,443.060000,492.400000,450.490000,488.420000,450.140000C487.957591,450.184467,487.586695,450.541516,487.524674,451.001899C487.462654,451.462283,487.725843,451.904752,488.160000,452.070000L488.160000,452.070000C491.160000,453.210000,495.910000,453.780000,498.830000,451.850000C499.716487,451.827343,500.547532,451.413651,501.100000,450.720000C502.391739,449.169402,502.926773,447.124546,502.560000,445.140000Z" transform="matrix(1 0 0 1 -147 -386)" fill="rgb(134,42,19)" stroke="none" stroke-width="1"/>
            <path id="ese10cf2bzps50" d="M452.940000,514.370000L457.650000,534.490000L456.510000,537.490000C456.510000,537.490000,455.250000,529.760000,452.940000,514.370000Z" transform="matrix(1 0 0 1 -147 -386)" fill="rgb(122,134,137)" stroke="none" stroke-width="1"/>
            <path id="ese10cf2bzps51" d="M481.310000,528.260000L481.360000,528.260000L481.360000,525.070000L515,525.070000L515,528.290000L522.360000,572.290000L519.800000,572.290000L512.720000,530.780000C512.560000,529.380000,510.940000,528.300000,509.040000,528.300000L487.270000,528.300000C485.340000,528.300000,483.750000,529.380000,483.580000,530.780000L476.580000,572.260000L474,572.260000Z" transform="matrix(1 0 0 1 -147 -386)" fill="rgb(81,102,110)" stroke="none" stroke-width="1"/>
            <path id="ese10cf2bzps52" d="M515,527L515,527L515,475L515,475C512.238576,475,510,477.238576,510,480L510,521.870000C509.965070,523.196208,510.458637,524.481931,511.372034,525.444092C512.285431,526.406254,513.543769,526.965967,514.870000,527Z" transform="matrix(1 0 0 1 -147 -386)" fill="rgb(81,102,110)" stroke="none" stroke-width="1"/>
            <polygon id="ese10cf2bzps53" points="301.950000,106.460000 315.420000,193.170000 318.080000,193.170000 308.020000,106.460000 301.950000,106.460000" fill="rgb(81,102,110)" stroke="none" stroke-width="1"/>
            <path id="ese10cf2bzps54" d="M317.470000,472.590000C317.555509,472.569970,317.644491,472.569970,317.730000,472.590000C317.789797,472.638421,317.831972,472.705198,317.850000,472.780000C317.910000,473.040000,318.010000,473.780000,317.700000,473.960000C317.089983,474.050194,316.470017,474.050194,315.860000,473.960000C314.490000,473.880000,315.270000,473.960000,313.860000,473.860000C313.791469,473.880282,313.718531,473.880282,313.650000,473.860000C313.649414,473.801275,313.628172,473.744630,313.590000,473.700000L313.590000,472.590000C315.560000,472.580000,315.460000,472.500000,317.470000,472.590000Z" transform="matrix(1 0 0 1 -147 -386)" fill="rgb(23,80,103)" stroke="none" stroke-width="1"/>
        </g>
    </g>
    <g id="ese10cf2bzps55_to" transform="translate(102.486282,139.930061)">
        <g id="ese10cf2bzps55_ts" transform="scale(0.600000,0.600000)">
            <g id="ese10cf2bzps55" transform="translate(-32.350006,-151.490051)" opacity="0">
                <path id="ese10cf2bzps56" d="M179.320000,508.470000C186.777003,508.468316,193.922051,511.462534,199.150000,516.780000C210.270945,528.064756,210.500449,546.116155,199.670000,557.680000C194.524580,563.182443,187.362537,566.355545,179.830000,566.470000L179.380000,566.470000C171.922997,566.471684,164.777949,563.477466,159.550000,558.160000C148.427799,546.871855,148.198310,528.817197,159.030000,517.250000C164.175420,511.747557,171.337463,508.574455,178.870000,508.460000L179.320000,508.460000M179.320000,505.990000L178.830000,505.990000C161.830000,506.260000,148.310000,520.570000,148.590000,537.990000C148.870000,555.200000,162.590000,568.990000,179.380000,568.990000L179.870000,568.990000C196.870000,568.720000,210.390000,554.410000,210.110000,536.990000C209.830000,519.780000,196.110000,505.990000,179.320000,505.990000Z" transform="matrix(1 0 0 1 -147 -386)" fill="rgb(0,151,255)" stroke="none" stroke-width="1"/>
                <ellipse id="ese10cf2bzps57" rx="6.660000" ry="6.810000" transform="matrix(0.99960000000000 -0.02827100000000 0.02827100000000 0.99960000000000 50.63429134000003 153.52755168999994)" opacity="0" fill="rgb(0,151,255)" stroke="none" stroke-width="1"/>
                <ellipse id="ese10cf2bzps58" rx="6.970000" ry="7.130000" transform="matrix(0.99960000000000 -0.02827100000000 0.02827100000000 0.99960000000000 15.65555948000002 137.87273526999996)" opacity="0" fill="rgb(0,151,255)" stroke="none" stroke-width="1"/>
                <ellipse id="ese10cf2bzps59" rx="6" ry="6.140000" transform="matrix(0.99960000000000 -0.02827100000000 0.02827100000000 0.99960000000000 13.31948317000001 160.25993341000003)" opacity="0" fill="rgb(0,151,255)" stroke="none" stroke-width="1"/>
                <ellipse id="ese10cf2bzps60" rx="6" ry="6.140000" transform="matrix(0.99960000000000 -0.02827100000000 0.02827100000000 0.99960000000000 34.83618429000001 134.98165349000004)" opacity="0" fill="rgb(0,151,255)" stroke="none" stroke-width="1"/>
                <ellipse id="ese10cf2bzps61" rx="4.820000" ry="4.930000" transform="matrix(0.99960000000000 -0.02827100000000 0.02827100000000 0.99960000000000 21.06567884000003 174.02560786999999)" opacity="0" fill="rgb(0,151,255)" stroke="none" stroke-width="1"/>
                <ellipse id="ese10cf2bzps62" rx="6" ry="6.140000" transform="matrix(0.99960000000000 -0.02827100000000 0.02827100000000 0.99960000000000 49.51420874999999 137.23601392000000)" opacity="0" fill="rgb(0,151,255)" stroke="none" stroke-width="1"/>
                <ellipse id="ese10cf2bzps63" rx="3.270000" ry="3.340000" transform="matrix(0.99960000000000 -0.02827100000000 0.02827100000000 0.99960000000000 40.69757598000001 145.37182943000005)" opacity="0" fill="rgb(0,151,255)" stroke="none" stroke-width="1"/>
                <ellipse id="ese10cf2bzps64" rx="2" ry="2.040000" transform="matrix(0.99960000000000 -0.02827100000000 0.02827100000000 0.99960000000000 17.93001795000004 150.44353210000008)" opacity="0" fill="rgb(0,151,255)" stroke="none" stroke-width="1"/>
                <ellipse id="ese10cf2bzps65" rx="2" ry="2.040000" transform="matrix(0.99960000000000 -0.02827100000000 0.02827100000000 0.99960000000000 26.50677546000000 141.24464291999993)" opacity="0" fill="rgb(0,151,255)" stroke="none" stroke-width="1"/>
                <ellipse id="ese10cf2bzps66" rx="6.090000" ry="6.230000" transform="matrix(0.99960000000000 -0.02827100000000 0.02827100000000 0.99960000000000 29.66469105000002 152.54079055999995)" opacity="0" fill="rgb(0,151,255)" stroke="none" stroke-width="1"/>
                <ellipse id="ese10cf2bzps67" rx="6.530000" ry="6.680000" transform="matrix(0.99960000000000 -0.02827100000000 0.02827100000000 0.99960000000000 36.55269780000000 173.78778607999993)" opacity="0" fill="rgb(0,151,255)" stroke="none" stroke-width="1"/>
                <ellipse id="ese10cf2bzps68" rx="3.270000" ry="3.340000" transform="matrix(0.99960000000000 -0.02827100000000 0.02827100000000 0.99960000000000 25.39017841000003 164.69692644000003)" opacity="0" fill="rgb(0,151,255)" stroke="none" stroke-width="1"/>
                <ellipse id="ese10cf2bzps69" rx="3.270000" ry="3.340000" transform="matrix(1 -0.03000000000000 0.03000000000000 1 9.88809999999998 149.20389999999986)" opacity="0" fill="rgb(0,151,255)" stroke="none" stroke-width="1"/>
                <ellipse id="ese10cf2bzps70" rx="3.270000" ry="3.340000" transform="matrix(0.99960000000000 -0.02827100000000 0.02827100000000 0.99960000000000 49.88261828000003 168.66298165000001)" opacity="0" fill="rgb(0,151,255)" stroke="none" stroke-width="1"/>
                <ellipse id="ese10cf2bzps71" rx="3.270000" ry="3.340000" transform="matrix(0.99960000000000 -0.02827100000000 0.02827100000000 0.99960000000000 43.66704970999999 126.99521255999997)" opacity="0" fill="rgb(0,151,255)" stroke="none" stroke-width="1"/>
                <ellipse id="ese10cf2bzps72" rx="3.270000" ry="3.340000" transform="matrix(0.99960000000000 -0.02827100000000 0.02827100000000 0.99960000000000 36.62805736999996 124.45525640000005)" opacity="0" fill="rgb(0,151,255)" stroke="none" stroke-width="1"/>
                <ellipse id="ese10cf2bzps73" rx="3.270000" ry="3.340000" transform="matrix(0.99960000000000 -0.02827100000000 0.02827100000000 0.99960000000000 24.78308701000003 127.29913174999996)" opacity="0" fill="rgb(0,151,255)" stroke="none" stroke-width="1"/>
                <ellipse id="ese10cf2bzps74" rx="3.270000" ry="3.340000" transform="matrix(0.99960000000000 -0.02827100000000 0.02827100000000 0.99960000000000 58.12604095000000 143.43983790000004)" opacity="0" fill="rgb(0,151,255)" stroke="none" stroke-width="1"/>
                <ellipse id="ese10cf2bzps75" rx="3.270000" ry="3.340000" transform="matrix(0.99960000000000 -0.02827100000000 0.02827100000000 0.99960000000000 40.24616678000001 160.16863137999997)" opacity="0" fill="rgb(0,151,255)" stroke="none" stroke-width="1"/>
            </g>
        </g>
    </g>
    <g id="ese10cf2bzps76_tr" transform="translate(150.006210,102.705780) rotate(0)">
        <g id="ese10cf2bzps76" transform="translate(-150.006210,-102.705780)">
            <path id="ese10cf2bzps77" d="M274.540000,517.730000C274.540000,517.730000,257.630000,516.860000,262.020000,515.160000C265.100000,513.980000,271.630000,510.250000,275.850000,512.060000C277.720000,512.860000,281.310000,515.480000,280.030000,516.670000C278.750000,517.860000,274.540000,517.730000,274.540000,517.730000Z" transform="matrix(1 0 0 1 -147 -386)" fill="rgb(154,97,79)" stroke="none" stroke-width="1"/>
            <path id="ese10cf2bzps78" d="M302.300000,498.420000C301.750000,502.290000,285.030000,513.540000,279.520000,518.050000C278.861503,518.581476,277.905816,518.520659,277.320000,517.910000L272.180000,512.680000C271.548034,512.047468,271.548034,511.022532,272.180000,510.390000C272.249323,510.315330,272.326427,510.248282,272.410000,510.190000C280.090000,504.760000,293.520000,492.920000,295.180000,487.740000C295.180000,487.740000,300.340000,483.190000,302.180000,486.310000C304.020000,489.430000,302.300000,498.420000,302.300000,498.420000Z" transform="matrix(1 0 0 1 -147 -386)" fill="rgb(255,255,255)" stroke="none" stroke-width="1"/>
            <circle id="ese10cf2bzps79" r="2.500000" transform="matrix(1 0 0 1 183.22000000000000 75.50000000000000)" opacity="0" fill="rgb(255,255,255)" stroke="none" stroke-width="1"/>
        </g>
    </g>
    <g id="ese10cf2bzps80">
        <path id="ese10cf2bzps81" d="M464.620000,425.930000C461.422109,423.557748,458.842692,420.450099,457.100000,416.870000C460.159452,413.888577,461.920086,409.821152,462,405.550000C462,395.160000,451.210000,386.750000,437.910000,386.750000C424.610000,386.750000,413.820000,395.160000,413.820000,405.550000C413.820000,415.940000,424.600000,424.350000,437.910000,424.350000C442.222607,424.371980,446.487068,423.443290,450.400000,421.630000C452.860000,423.480000,457.240000,425.520000,464.620000,425.930000Z" transform="matrix(1 0 0 1 -147 -386)" fill="rgb(252,252,252)" stroke="none" stroke-width="1"/>
        <g id="ese10cf2bzps82_ts" transform="translate(276.500000,19.500000) scale(0.300000,0.300000)">
            <circle id="ese10cf2bzps82" r="4.500000" transform="translate(0,0)" opacity="0" fill="rgb(0,151,255)" stroke="none" stroke-width="1"/>
        </g>
        <g id="ese10cf2bzps83_ts" transform="translate(304.500000,19.500000) scale(0.300000,0.300000)">
            <circle id="ese10cf2bzps83" r="4.500000" transform="translate(0,0)" opacity="0" fill="rgb(0,151,255)" stroke="none" stroke-width="1"/>
        </g>
        <g id="ese10cf2bzps84_ts" transform="translate(290.500000,19.500000) scale(0.300000,0.300000)">
            <circle id="ese10cf2bzps84" r="4.500000" transform="translate(0,0)" opacity="0" fill="rgb(0,151,255)" stroke="none" stroke-width="1"/>
        </g>
    </g>
</svg>