<svg xmlns="http://www.w3.org/2000/svg" xmlns:xlink="http://www.w3.org/1999/xlink" viewBox="0 0 260.93 193.6"><defs><style>.b2798f52-303d-48fa-92b6-5dd4e3862c3a{isolation:isolate;}.a10b544f-3b1d-493f-80f6-3e730b503080,.ac351f89-0c56-4fda-b32b-203f73199c9e,.e091236c-8ce8-4743-9ece-aee863ea3a20,.e757c50b-13a7-49a7-bf85-8cc6b051f71c{opacity:0.25;mix-blend-mode:multiply;}.a10b544f-3b1d-493f-80f6-3e730b503080{fill:url(#b5df93fb-6d72-4a1f-9f05-01a61b7f1098);}.e091236c-8ce8-4743-9ece-aee863ea3a20{fill:url(#b1cf15ac-e33e-4499-a3b8-80dbb03a33b7);}.e757c50b-13a7-49a7-bf85-8cc6b051f71c{fill:url(#b1bb2d2b-f6d5-474c-a881-d543239b543d);}.fae81ef2-84c2-4b54-b7d8-65d2f1f9f00a{fill:#9a614f;}.ac351f89-0c56-4fda-b32b-203f73199c9e{fill:url(#fed27aec-b9f9-4740-9568-b75234e1cddf);}.b605fa66-6f76-419f-9b32-12397ffe4bc6{fill:#0097ff;}.a4458b00-682d-4853-a1df-78ce49be62a7{fill:#333637;}.ae3aff0d-e3dc-4b55-8c9a-fb0f26cf9beb{fill:#fff;}.b9825681-3eba-47bc-b4cc-82b2cf5ce340{fill:#51666e;}.b802cc06-d052-471f-a8b0-66e505001cc9{fill:#1f2e61;}.b2394fc7-9c35-44e5-94c7-a4a5064191fb{fill:#292624;}.f5742ce9-d6a5-4432-a43d-59ac72fb4dae{fill:#808385;}.e75a682d-b678-4bce-955f-f5fc4e8794a1{fill:#eee;}.bdd17d01-ef72-4b76-b33e-99daa4ec16bf{fill:#8a76b9;}.ab762a94-48dc-4f71-9599-35eaf28c25f9{fill:#4a1306;}.ae8bc281-7ab4-4311-8420-7a32e67c7fe6{fill:#20235a;}.e8f65482-9d21-44a8-9913-db9d3685f8a6{fill:#e0dfcc;}.a034cceb-f598-4884-b584-8c0455f5bca8{fill:#862a13;}.ea975428-5117-4df5-adc5-3a96b100c5e0{fill:#e8b388;}.a98aa7e0-d1f9-47df-8ca7-407b03625a8e{fill:#0098ff;}.f46f4272-ee91-430c-8ab2-2a0f3bd6888c{fill:#7a8689;}.e3fc1f10-46d9-4ddd-88f2-7cd1c6c83220{fill:#175067;}</style><linearGradient id="b5df93fb-6d72-4a1f-9f05-01a61b7f1098" x1="200.7" y1="207.05" x2="250.24" y2="207.05" gradientUnits="userSpaceOnUse"><stop offset="0"/><stop offset="1"/></linearGradient><linearGradient id="b1cf15ac-e33e-4499-a3b8-80dbb03a33b7" x1="119.24" y1="182.6" x2="180.16" y2="182.6" gradientTransform="translate(15.57 32.11) rotate(-1.57)" xlink:href="#b5df93fb-6d72-4a1f-9f05-01a61b7f1098"/><linearGradient id="b1bb2d2b-f6d5-474c-a881-d543239b543d" x1="289.05" y1="181.33" x2="349.97" y2="181.33" gradientTransform="translate(15.57 32.11) rotate(-1.57)" xlink:href="#b5df93fb-6d72-4a1f-9f05-01a61b7f1098"/><linearGradient id="fed27aec-b9f9-4740-9568-b75234e1cddf" x1="272.79" y1="204.71" x2="317.95" y2="204.71" xlink:href="#b5df93fb-6d72-4a1f-9f05-01a61b7f1098"/></defs><title>labtalk</title><g class="b2798f52-303d-48fa-92b6-5dd4e3862c3a"><g id="a03c2a2d-7c67-43e9-b96e-0fed84d977d1" data-name="step2"><path class="a10b544f-3b1d-493f-80f6-3e730b503080" d="M214.13,205.82c-3.85-.12-9-.66-12.22,1.21-3,1.76.23,2.56,2.88,2.82a81.2,81.2,0,0,0,19.27-.51c8.11-1.12,16.51-.3,24.39-2.43,4.56-1.24-.81-3-2.79-3-10.43-.15-20.63,2.15-31.07,1.93Z" transform="translate(-109.5 -19.68)"/><path class="e091236c-8ce8-4743-9ece-aee863ea3a20" d="M177.48,208.76c-10.88-.47-21.74-1-32.62-.18-1.12.08-5.37.53-5.08,2.39.15,1,2,1.22,2.76,1.36a47.31,47.31,0,0,0,8.07.52c6.18.13,12.32-.64,18.48-1a188.53,188.53,0,0,1,27.51.77c1,.08,4.93-.13,4-1.78-.62-1.08-3.87-1.37-4.88-1.57C189.62,209.26,183.54,209,177.48,208.76Z" transform="translate(-109.5 -19.68)"/><path class="e757c50b-13a7-49a7-bf85-8cc6b051f71c" d="M347.18,202.82c-10.87-.47-21.73-1-32.61-.18-1.12.09-5.37.53-5.08,2.4.15,1,2,1.22,2.76,1.36a46.19,46.19,0,0,0,8.06.51c6.19.14,12.33-.63,18.49-1a188.36,188.36,0,0,1,27.5.76c1.05.09,4.94-.12,4-1.78-.63-1.08-3.87-1.36-4.88-1.56C359.32,203.33,353.25,203.09,347.18,202.82Z" transform="translate(-109.5 -19.68)"/><path class="fae81ef2-84c2-4b54-b7d8-65d2f1f9f00a" d="M122.85,152s-16.93.18-12.65-1.79c3-1.37,9.28-5.5,13.61-3.95,1.91.68,5.66,3.07,4.46,4.34S122.85,152,122.85,152Z" transform="translate(-109.5 -19.68)"/><path class="ac351f89-0c56-4fda-b32b-203f73199c9e" d="M285,203.48c-3.51-.11-8.23-.66-11.14,1.21-2.75,1.76.21,2.56,2.62,2.83a67.91,67.91,0,0,0,17.56-.51c7.4-1.13,15.06-.31,22.24-2.44,4.16-1.23-.74-3-2.54-3-9.51-.15-18.81,2.15-28.33,1.93Z" transform="translate(-109.5 -19.68)"/><ellipse class="b605fa66-6f76-419f-9b32-12397ffe4bc6" cx="174.81" cy="18.8" rx="24.09" ry="18.8"/><path class="b605fa66-6f76-419f-9b32-12397ffe4bc6" d="M293.8,51.35s3.18,6.73,17.26,7.51a24.76,24.76,0,0,1-8-10.09C299,38.37,293.8,51.35,293.8,51.35Z" transform="translate(-109.5 -19.68)"/><polygon class="a4458b00-682d-4853-a1df-78ce49be62a7" points="54.86 51.95 62.63 52.36 60.94 63.66 53.69 67.34 46.58 56.84 54.86 51.95"/><path class="ae3aff0d-e3dc-4b55-8c9a-fb0f26cf9beb" d="M188,124.7c3.91,12.25,6.16,14.57,7.66,14.92,2.8.65,2.33.81,5.18,1.17,2.39.31,2.59-.86,7.24,5.55,2,6.41-2.77-1.27-4.57.62,0,0-18.55-.46-19.64-6.47,0,0-3.14-14.18-3.09-16.88" transform="translate(-109.5 -19.68)"/><rect class="b9825681-3eba-47bc-b4cc-82b2cf5ce340" x="57.41" y="148.09" width="6.6" height="9.74"/><path class="b802cc06-d052-471f-a8b0-66e505001cc9" d="M132.55,103.7,149,168.57h51.91l-1.45-6.76H152.24S149,103.17,132.55,103.7Z" transform="translate(-109.5 -19.68)"/><path class="b2394fc7-9c35-44e5-94c7-a4a5064191fb" d="M195.79,156.55A46.23,46.23,0,0,1,198.26,170c0,6.51,5.59,29.71,6.09,32.17s7.76,0,7.76,0-3.67-34.63-4.68-38,.87-16.24-6.05-14S195.79,156.55,195.79,156.55Z" transform="translate(-109.5 -19.68)"/><path class="ae3aff0d-e3dc-4b55-8c9a-fb0f26cf9beb" d="M162.93,107.3c.77-1.16-13.22,19.31-13.57,23.71-.31,3.89-16.3,16.16-21.52,21a1.64,1.64,0,0,1-2.2,0l-5.46-4.91a1.62,1.62,0,0,1,.06-2.49c7.33-5.9,20-18.55,21.34-23.82,6.48-25.28,8.26-34,21.2-36.13C162.78,84.63,157.15,116,162.93,107.3Z" transform="translate(-109.5 -19.68)"/><ellipse class="fae81ef2-84c2-4b54-b7d8-65d2f1f9f00a" cx="111.92" cy="101.54" rx="5.76" ry="2.05"/><path class="f5742ce9-d6a5-4432-a43d-59ac72fb4dae" d="M210.16,201.9s15.56,1.63,12.15,4.47-18.41,1.23-18.41,1.23l1.58-5.7Z" transform="translate(-109.5 -19.68)"/><path class="b2394fc7-9c35-44e5-94c7-a4a5064191fb" d="M183.84,134.1c-.13.9,2.84,2,5.41,2,15.46.14,17.28.14,20.89,16.61,2.8,12.8,18.07,45.16,18.07,45.16l-3.34,1.16s-19.33-27.15-19.24-32.46-2.66-11-5.88-9.68c-2.22.91-33-8.43-37-18.24-.72-1.8,15.71-4.47,19.59-5.56C183.23,132.89,184.08,132.5,183.84,134.1Z" transform="translate(-109.5 -19.68)"/><polyline class="fae81ef2-84c2-4b54-b7d8-65d2f1f9f00a" points="107.66 100.25 103.32 99.04 102.96 101.39 106.16 101.82"/><polygon class="b2394fc7-9c35-44e5-94c7-a4a5064191fb" points="141.75 81.31 131.93 81.31 117.92 101.82 127.9 101.82 141.75 81.31"/><rect class="b2394fc7-9c35-44e5-94c7-a4a5064191fb" x="104.47" y="101.82" width="22.62" height="1.78"/><path class="fae81ef2-84c2-4b54-b7d8-65d2f1f9f00a" d="M182,63.24c.21,6.94-4.3,12.48-11.25,12.7A12.58,12.58,0,0,1,170,50.79C177,50.58,181.83,56.3,182,63.24Z" transform="translate(-109.5 -19.68)"/><path class="fae81ef2-84c2-4b54-b7d8-65d2f1f9f00a" d="M182.14,64.54c2.09-13.45-10.56.3-10.56.3l-6.47,2.73s-1.3,8.59,3.92,10.34S179.68,80.37,182.14,64.54Z" transform="translate(-109.5 -19.68)"/><rect class="b9825681-3eba-47bc-b4cc-82b2cf5ce340" x="59.34" y="156.54" width="2.98" height="24.79"/><polygon class="b9825681-3eba-47bc-b4cc-82b2cf5ce340" points="60.71 179.4 39.14 185.75 39.14 187.68 60.83 182.69 81.47 187.12 81.95 185.83 60.71 179.4"/><circle class="b9825681-3eba-47bc-b4cc-82b2cf5ce340" cx="38.54" cy="188.77" r="3.47"/><circle class="b9825681-3eba-47bc-b4cc-82b2cf5ce340" cx="82.72" cy="188.77" r="3.47"/><path class="fae81ef2-84c2-4b54-b7d8-65d2f1f9f00a" d="M227.43,196" transform="translate(-109.5 -19.68)"/><polygon class="b9825681-3eba-47bc-b4cc-82b2cf5ce340" points="108.78 106.89 95.31 193.6 92.65 193.6 102.71 106.89 108.78 106.89"/><rect class="b9825681-3eba-47bc-b4cc-82b2cf5ce340" x="91.3" y="103.93" width="113.43" height="2.96"/><path class="ae3aff0d-e3dc-4b55-8c9a-fb0f26cf9beb" d="M213.79,117.57c-.56,1.17.59,4.27,0,5.44a1.85,1.85,0,0,1-.6.82,1.77,1.77,0,0,1-1.34,0c-8.27-1.95-16.18,3.11-24.45,2.7a14,14,0,0,1-5-1.1,3.43,3.43,0,0,1-1.06-.66,2.78,2.78,0,0,1-.62-1.63,95.94,95.94,0,0,0-3.31-14c0-.15-.09-.29-.15-.44,0,0-4.07-20.86-5.14-25.43l1.4-2.49c-.28,0,1.08-.07,3,2.71a19.64,19.64,0,0,1,2.15,4.78q3.61,10.5,6.74,21.17c.53,1.83.94,4.14,2.62,5.2,1.17.73,14.19,2.31,17.44,2.32C208.44,117,210.09,117.36,213.79,117.57Z" transform="translate(-109.5 -19.68)"/><path class="e75a682d-b678-4bce-955f-f5fc4e8794a1" d="M173.67,82.38" transform="translate(-109.5 -19.68)"/><path class="bdd17d01-ef72-4b76-b33e-99daa4ec16bf" d="M163.9,141.33s14.82-6.9,19.81-6.33-9.84-49.91-9.84-49.91l-.2-2.71L167,80.85l-2.84,10.89-2.47,49.77Z" transform="translate(-109.5 -19.68)"/><path class="ae3aff0d-e3dc-4b55-8c9a-fb0f26cf9beb" d="M163.89,81.65a25.44,25.44,0,0,1-2.58,1.59c-1.15.62,1.88,2.07,1,3.07-5.23,6.25-8,14.27-9.18,22.34-1.78,12.22-1.15,25.62.57,37.82.62,4.44,1.86,9.14,6.16,11.38,1.82,1.29,4.64,1.36,6.75,1.61,2.77.35,5.55.67,8.33,1,5.56.61,11.25.37,16.71,1.62,6.42,1.46,6.72,1.61,6.84-.68.36-6.62-2.85-11.52-.13-17.11,1.92-3.93-9.2-5.79-25.82-5.63-15,.15-8-46.55-6.47-56.49Z" transform="translate(-109.5 -19.68)"/><path class="fae81ef2-84c2-4b54-b7d8-65d2f1f9f00a" d="M174.82,75.33s-1.85,5-1.15,7-8.62-.44-8.62-.44l.22-9.81Z" transform="translate(-109.5 -19.68)"/><path class="ab762a94-48dc-4f71-9599-35eaf28c25f9" d="M164.59,83.76c-4.15,7-6.76,2-11.42,5.55-4.14,3.16,4.19-27.61,5.18-31.61,3.36-13.66,20.37-8.53,25.38-1.08,6.75,10-3.15,7.74-11.84,5.53-1-.25-5.79,1-4.75,7.62A21.26,21.26,0,0,1,164.59,83.76Z" transform="translate(-109.5 -19.68)"/><path class="f5742ce9-d6a5-4432-a43d-59ac72fb4dae" d="M224.71,197.53l-.52,4.94a1.57,1.57,0,0,0,.2,1.23,1.52,1.52,0,0,0,1.25.32c3.32-.27,6.23-2.19,9.29-3.5a26.61,26.61,0,0,1,5.66-1.72c.28-.05.62-.14.7-.42a.56.56,0,0,0,0-.36c-.4-1.28-2-1.57-3.37-1.65l-12.39-.67c-.76,0-1.79.12-1.87.88" transform="translate(-109.5 -19.68)"/><path class="ae8bc281-7ab4-4311-8420-7a32e67c7fe6" d="M289.69,204.15c1-1.24.5-5.22-.38-7.34,0,0-3,5.33-6.73,5.05a9.46,9.46,0,0,1-4-1c-2.33,1.51-4.37,2.57-4.46,3.29C274,205.75,288.65,205.41,289.69,204.15Z" transform="translate(-109.5 -19.68)"/><path class="e8f65482-9d21-44a8-9913-db9d3685f8a6" d="M289.79,190.4a5.26,5.26,0,0,1-2.13-2.23l-1.86.1a26.62,26.62,0,0,1-.56,5.1c-1.52,6.12-10.89,9.19-11.08,10.78s14.48,1.25,15.52,0,.5-5.22-.38-7.34C289,196,289.26,193.46,289.79,190.4Z" transform="translate(-109.5 -19.68)"/><path class="e8f65482-9d21-44a8-9913-db9d3685f8a6" d="M313.19,194.53c-.89,4.2-8.75,8.46-10.33,9.63-2.42,1.8,12.9.87,16.21,0s-.64-9.06-.64-9.06Z" transform="translate(-109.5 -19.68)"/><path class="a034cceb-f598-4884-b584-8c0455f5bca8" d="M327,70.49a1,1,0,0,0-.55,0A.87.87,0,0,0,325,71c-.51,1.92-.23,3.71-.22,5.66,0,2.95-1.39,4.29-4.18,5a1,1,0,0,0-.57,1.57,9.87,9.87,0,0,0,7.09,3.42c2.65,0,4.25-1.75,5.24-4C334.46,77.79,332.34,71.7,327,70.49Z" transform="translate(-109.5 -19.68)"/><path class="a034cceb-f598-4884-b584-8c0455f5bca8" d="M324.55,55.49a.88.88,0,0,0-1.28-.55,6.38,6.38,0,0,0-.55,11.12,1,1,0,0,0,1.46-.44C325.59,62.31,326.72,58.66,324.55,55.49Z" transform="translate(-109.5 -19.68)"/><path class="f5742ce9-d6a5-4432-a43d-59ac72fb4dae" d="M330.5,147.4l2.4-17-3.68,5L302.83,142a5.8,5.8,0,0,0-3.61,5.35c.12,7.31-14.64,39.8-17.66,46.36a1.19,1.19,0,0,0,1,1.64,33.82,33.82,0,0,0,7.58.28,4.48,4.48,0,0,0,3.87-2.82c4.05-11.09,15.5-37.14,17-41C311.31,153.38,330.5,147.4,330.5,147.4Z" transform="translate(-109.5 -19.68)"/><path class="ea975428-5117-4df5-adc5-3a96b100c5e0" d="M325.91,93.31a9.94,9.94,0,0,1,1.56-3.76A15,15,0,0,1,339,83.17a11.31,11.31,0,0,1-3-6.77l-7.74,2.37s3.68,6.21-.87,8.87c-1.19.7-3.6,4.32-6.31,8.61l.23,3.08A16.32,16.32,0,0,1,325.91,93.31Z" transform="translate(-109.5 -19.68)"/><path class="ea975428-5117-4df5-adc5-3a96b100c5e0" d="M323.76,92.12c-4.14,6.56-9.06,14.87-10.48,14.6-2.25-.42-15.23-16.62-17.68-17s-11.89-4.2-12.08-3.13-.43,7.43,4.4,8,5.18-1,7.06,1.07,11.6,23.35,18.1,21c3.68-1.33,8.4-5.84,11.8-9.5" transform="translate(-109.5 -19.68)"/><path class="ea975428-5117-4df5-adc5-3a96b100c5e0" d="M321.47,62.08a11.19,11.19,0,0,1,7-10.27c16.66,2.13,14.06,14.45,11.67,21S328,80.58,324.19,80c-2.87-.41-3.29-4.23-3.15-8.93-.54-.1-1.83-.53-1.83-1.1a27.77,27.77,0,0,1,2.1-4.35C321.4,64.46,321.46,63.25,321.47,62.08Z" transform="translate(-109.5 -19.68)"/><path class="f5742ce9-d6a5-4432-a43d-59ac72fb4dae" d="M352.21,134.06c0-.18-.18-.59-.38-1.15-4.46.3-19.32.74-23.38,1-.28,2.24,1.25,6.9-5,8-6.74,1.2-19.46,4.69-20.73,7.59S307.67,190,312.14,196c3.13-.58,6.41-.05,7.23-.8-2.57-5.58.74-35.05-1.77-36.59h.62c4.43,0,31,.1,35.12-7.73C357.24,143.42,352.68,135.84,352.21,134.06Z" transform="translate(-109.5 -19.68)"/><path class="a98aa7e0-d1f9-47df-8ca7-407b03625a8e" d="M354.07,138.07c-.32-2.42-6.75-44.57-8.09-47.95-.83-2.1-4.42-4.14-7.13-7.07,1.19-1.2-.1-3.6-1.75-2.64C334.71,81.8,327,85.88,329,85.93a5,5,0,0,1-.75.56c-2.23,1.31-9.95,12.87-14.06,18.33,1,2.18,3.8,7.39,6.23,9.21a54.58,54.58,0,0,1,7-5.77s-2.22.33.14,3c1.51,1.72,1.18,19,.58,23a4.51,4.51,0,0,0,4.19,5.16C339.33,139.92,354.08,138.2,354.07,138.07Z" transform="translate(-109.5 -19.68)"/><path class="a034cceb-f598-4884-b584-8c0455f5bca8" d="M349,78.07c-.43-2.15-2-3.91-2.85-5.86a22,22,0,0,1-.85-2.25c-.13-1.69-.14-3.38-.29-5-.47-5.59-2.83-10.69-8.29-12.89a12.79,12.79,0,0,0-14.16,3.51.71.71,0,0,0-.22.66s0,.07,0,.09a9.83,9.83,0,0,0,5,8.36c2.19,1.34,5.84,2,7.62,4.11,0,.3,0,.62,0,1a25.91,25.91,0,0,0,.32,4.4c.3,1.79,3.56,9.22-.42,8.87A1,1,0,0,0,334.6,85h0c3,1.14,7.75,1.71,10.67-.22a3,3,0,0,0,2.27-1.13A6.77,6.77,0,0,0,349,78.07Z" transform="translate(-109.5 -19.68)"/><path class="f46f4272-ee91-430c-8ab2-2a0f3bd6888c" d="M299.38,147.3l4.71,20.12-1.14,3S301.69,162.69,299.38,147.3Z" transform="translate(-109.5 -19.68)"/><path class="b9825681-3eba-47bc-b4cc-82b2cf5ce340" d="M327.75,161.19h.05V158h33.65v3.22l7.36,44h-2.57l-7.08-41.51c-.16-1.4-1.78-2.48-3.68-2.48H333.71c-1.93,0-3.52,1.08-3.69,2.48l-7,41.48h-2.57Z" transform="translate(-109.5 -19.68)"/><path class="b9825681-3eba-47bc-b4cc-82b2cf5ce340" d="M361.45,159.9h0v-52h0a5,5,0,0,0-5,5v41.87A5,5,0,0,0,361.45,159.9Z" transform="translate(-109.5 -19.68)"/><polygon class="b9825681-3eba-47bc-b4cc-82b2cf5ce340" points="185.89 105.71 199.36 192.42 202.02 192.42 191.96 105.71 185.89 105.71"/><path class="e3fc1f10-46d9-4ddd-88f2-7cd1c6c83220" d="M163.91,105.52a.55.55,0,0,1,.26,0,.33.33,0,0,1,.12.19c.06.26.16,1-.15,1.18s-1.42,0-1.84,0c-1.37-.08-.59,0-2-.1a.38.38,0,0,1-.21,0s0-.1-.06-.16c0-.37,0-.74,0-1.11C162,105.51,161.9,105.43,163.91,105.52Z" transform="translate(-109.5 -19.68)"/></g></g></svg>