<svg xmlns="http://www.w3.org/2000/svg" viewBox="0 0 37.4 37.4"><defs><style>.ae0fd7f2-ec2e-4ee8-a35c-1adb0d8f6329{fill:#2C2A29;}.fcee729b-451e-42ad-8331-d9e76b8c34e5{fill:#fffff1;}</style></defs><title>numFive</title><g id="e3c00987-20fd-4b4e-8166-07b387cabda9" data-name="Layer 9"><path class="ae0fd7f2-ec2e-4ee8-a35c-1adb0d8f6329" d="M346,433.23a18.94,18.94,0,0,0-1-5.21,18.47,18.47,0,0,0-2.36-4.59,18.67,18.67,0,0,0-3.47-3.74A18.93,18.93,0,0,0,334.8,417a18.52,18.52,0,0,0-5.07-1.39,17.34,17.34,0,0,0-2.39-.16,18.73,18.73,0,0,0-16.78,10.45,18.16,18.16,0,0,0-1.63,5,18.94,18.94,0,0,0-.17,5.42,18.72,18.72,0,0,0,17.38,16.54,18.61,18.61,0,0,0,10.24-2.29A18.71,18.71,0,0,0,346,433.23Z" transform="translate(-308.64 -415.46)"/><path class="fcee729b-451e-42ad-8331-d9e76b8c34e5" d="M335.94,437.08a8.1,8.1,0,0,1-.66,3.27,7.16,7.16,0,0,1-1.92,2.58,9,9,0,0,1-3.2,1.7,14.13,14.13,0,0,1-4.13.56,22.48,22.48,0,0,1-4.58-.43,16.79,16.79,0,0,1-3.06-.94v-5H319a16.07,16.07,0,0,0,3,1.36,9.53,9.53,0,0,0,3.17.55,11.22,11.22,0,0,0,2.06-.22,3.68,3.68,0,0,0,1.77-.8,3.89,3.89,0,0,0,.78-1,3.2,3.2,0,0,0,.26-1.5,2.57,2.57,0,0,0-.35-1.36,3,3,0,0,0-.92-.92,5,5,0,0,0-2-.65,14.77,14.77,0,0,0-2.09-.16,13.78,13.78,0,0,0-2.61.23c-.84.16-1.57.31-2.19.46h-.67V422.16h16.05v4.31H324.71v3.69l1.19-.06,1.27,0a13.9,13.9,0,0,1,3.32.36,8.5,8.5,0,0,1,2.52,1,6,6,0,0,1,2.16,2.2A7,7,0,0,1,335.94,437.08Z" transform="translate(-308.64 -415.46)"/></g></svg>