<svg xmlns="http://www.w3.org/2000/svg" viewBox="0 0 37.4 37.4">
    <defs>
        <style>.b8208f82-ae57-4741-9748-3ec0ea131fc0{fill:#2C2A29;}.f6f4faaa-82b5-4f4a-9cf0-f7eab31c62ba{fill:#fffff4;}</style>
    </defs>
    <title>numFour</title>
    <g id="fe674c29-45ae-4548-8d9d-b4f3103e2a75" data-name="Layer 9">
        <path class="b8208f82-ae57-4741-9748-3ec0ea131fc0" d="M317.57,500.59a18.75,18.75,0,0,0-3.37-9.81,19.23,19.23,0,0,0-3.47-3.74,18.89,18.89,0,0,0-4.38-2.67,18.38,18.38,0,0,0-5.07-1.4,19.05,19.05,0,0,0-2.39-.15,18.59,18.59,0,0,0-10,2.9,18.88,18.88,0,0,0-6.78,7.54,18.82,18.82,0,0,0-.47,15.48,18.71,18.71,0,0,0,10.86,10.36,18.47,18.47,0,0,0,5.19,1.08,18.81,18.81,0,0,0,5.39-.43,18.41,18.41,0,0,0,4.85-1.85A18.72,18.72,0,0,0,317.06,506,19.06,19.06,0,0,0,317.57,500.59Z" transform="translate(-280.19 -482.82)"/>
        <path class="f6f4faaa-82b5-4f4a-9cf0-f7eab31c62ba" d="M308.29,506.88h-3.08v5.25h-5.56v-5.25H288.73V502.6l10.56-13.09h5.92v13.24h3.08Zm-8.64-4.13v-8.16l-6.57,8.16Z" transform="translate(-280.19 -482.82)"/>
    </g>
</svg>