<svg xmlns="http://www.w3.org/2000/svg" viewBox="0 0 36.52 36.52">
    <defs>
        <style>.ee9e6725-8e1e-481d-9e3c-88363572dea4{fill:#2C2A29;}.be67ebe0-5394-45d3-a026-d07675633e63{fill:#fffff7;}</style>
    </defs>
    <title>one</title>
    <g id="a25b2385-5684-4033-8657-815112f3f849" data-name="Layer 9">
        <path class="ee9e6725-8e1e-481d-9e3c-88363572dea4" d="M182.08,403.68a18.44,18.44,0,0,0-1-5.09,18.36,18.36,0,0,0-10-10.75,18.37,18.37,0,0,0-5-1.36,18.23,18.23,0,0,0-7.51.6,17.85,17.85,0,0,0-4.6,2.09,18.44,18.44,0,0,0-6.61,7.36,18,18,0,0,0-1.59,4.85,18.39,18.39,0,0,0-.17,5.29,18.13,18.13,0,0,0,1.3,5,18.41,18.41,0,0,0,2.55,4.32,18.69,18.69,0,0,0,3.61,3.44,18.13,18.13,0,0,0,9.51,3.42,18.6,18.6,0,0,0,5.26-.42,18.35,18.35,0,0,0,8.74-4.81,18,18,0,0,0,4.92-8.67A18.47,18.47,0,0,0,182.08,403.68Z" transform="translate(-145.58 -386.33)"/>
        <path class="be67ebe0-5394-45d3-a026-d07675633e63" d="M171.32,414.9H156.61v-3.85h4.64V399.41h-4.64v-3.6a14.89,14.89,0,0,0,2-.13,5.29,5.29,0,0,0,1.63-.43,2.77,2.77,0,0,0,1.15-1,3,3,0,0,0,.45-1.48h4.89v18.24h4.55Z" transform="translate(-145.58 -386.33)"/>
    </g>
</svg>