<svg xmlns="http://www.w3.org/2000/svg" viewBox="0 0 37.4 37.4"><defs><style>.b0c32cd4-df9a-4118-b24c-d5ce5132cd92{fill:#2C2A29;}.bcc951d6-9bf1-44d4-8f3b-3fbf1a914776{fill:#fffff4;}</style></defs><title>numThree</title><g id="a18e0eb1-c756-43cf-9d07-049edd7befdc" data-name="Layer 9"><path class="b0c32cd4-df9a-4118-b24c-d5ce5132cd92" d="M287.57,440.59a18.75,18.75,0,0,0-3.37-9.81,18.64,18.64,0,0,0-7.85-6.41,18.38,18.38,0,0,0-5.07-1.4,19.05,19.05,0,0,0-2.39-.15,18.59,18.59,0,0,0-10,2.9,18.88,18.88,0,0,0-6.78,7.54,18.82,18.82,0,0,0-.47,15.48,18.71,18.71,0,0,0,10.86,10.36,18.47,18.47,0,0,0,5.19,1.08,18.81,18.81,0,0,0,5.39-.43,18.41,18.41,0,0,0,4.85-1.85A18.72,18.72,0,0,0,287.06,446,19.06,19.06,0,0,0,287.57,440.59Z" transform="translate(-250.19 -422.82)"/><path class="bcc951d6-9bf1-44d4-8f3b-3fbf1a914776" d="M275.76,441.5a4.41,4.41,0,0,1,1.62,3.74,7.07,7.07,0,0,1-.63,3,6.06,6.06,0,0,1-1.93,2.36,9.38,9.38,0,0,1-3,1.47,15.29,15.29,0,0,1-4.18.5,22.34,22.34,0,0,1-4.81-.44,17.91,17.91,0,0,1-3.26-1v-5h.59a14.3,14.3,0,0,0,3.11,1.37,11.12,11.12,0,0,0,3.31.57,13.22,13.22,0,0,0,1.91-.14,4.09,4.09,0,0,0,1.74-.63,3,3,0,0,0,.9-.92,3,3,0,0,0,.33-1.55,2.25,2.25,0,0,0-.46-1.52,2.45,2.45,0,0,0-1.19-.77,6.16,6.16,0,0,0-1.79-.26l-1.94,0h-1.24v-4h1.29c.78,0,1.48,0,2.09-.07a5,5,0,0,0,1.54-.35,2.22,2.22,0,0,0,1-.77,2.35,2.35,0,0,0,.34-1.4,1.69,1.69,0,0,0-.35-1.1,2.53,2.53,0,0,0-.88-.65,4.35,4.35,0,0,0-1.4-.37,12.48,12.48,0,0,0-1.37-.09,11.36,11.36,0,0,0-3.1.49,14.11,14.11,0,0,0-3.22,1.42h-.56v-4.89a20.63,20.63,0,0,1,3.38-1,20.87,20.87,0,0,1,4.33-.46,17.21,17.21,0,0,1,3.74.37,9.42,9.42,0,0,1,2.65,1,5,5,0,0,1,1.85,1.81,4.85,4.85,0,0,1,.61,2.48,5.34,5.34,0,0,1-4.24,5.25v.21a7.84,7.84,0,0,1,1.63.42A5.06,5.06,0,0,1,275.76,441.5Z" transform="translate(-250.19 -422.82)"/></g></svg>