<svg xmlns="http://www.w3.org/2000/svg" viewBox="0 0 37.4 37.4"><defs><style>.b018bc3a-4a94-4d3d-ba39-861b0ed0df0d{fill:#061217;}.ef625830-3108-465e-8a9a-4639ab383ff8{fill:ivory;}</style></defs><title>numTwo</title><g id="acd76ed1-a4e2-438f-900d-771cb4c56ef0" data-name="Layer 9"><path class="b018bc3a-4a94-4d3d-ba39-861b0ed0df0d" d="M217.57,440.59a18.75,18.75,0,0,0-3.37-9.81,18.64,18.64,0,0,0-7.85-6.41,18.38,18.38,0,0,0-5.07-1.4,19.05,19.05,0,0,0-2.39-.15,18.59,18.59,0,0,0-10,2.9,18.88,18.88,0,0,0-6.78,7.54,18.82,18.82,0,0,0-.47,15.48,18.71,18.71,0,0,0,10.86,10.36,18.47,18.47,0,0,0,5.19,1.08,18.81,18.81,0,0,0,5.39-.43,18.41,18.41,0,0,0,4.85-1.85A18.72,18.72,0,0,0,217.06,446,19.06,19.06,0,0,0,217.57,440.59Z" transform="translate(-180.19 -422.82)"/><path class="ef625830-3108-465e-8a9a-4639ab383ff8" d="M208,452.07H190.26v-3.72q2-1.47,4.07-3.13t3.26-2.85a15.8,15.8,0,0,0,2.61-3.09,5.12,5.12,0,0,0,.77-2.6,3,3,0,0,0-1-2.39,4.32,4.32,0,0,0-2.86-.84,8.2,8.2,0,0,0-2.93.58,13.09,13.09,0,0,0-2.86,1.47h-.48v-5a18.2,18.2,0,0,1,3.17-.94,19.4,19.4,0,0,1,4.21-.47c2.83,0,5,.6,6.47,1.78a6.1,6.1,0,0,1,2.22,5,8.26,8.26,0,0,1-1.06,4.06,16.7,16.7,0,0,1-3.27,4c-.92.85-1.84,1.63-2.77,2.34s-1.59,1.21-2,1.49H208Z" transform="translate(-180.19 -422.82)"/></g></svg>