<svg id="bae2fbc6-2d6f-4a70-8c14-30156fb301fb" data-name="Layer 1" xmlns="http://www.w3.org/2000/svg" viewBox="0 0 74.18 62.98"><defs><style>.eaea3080-04a9-42e0-a5b6-dab27c8cc63d{fill:#51666e;}.b8381ebe-f72d-4947-bee9-735016ad7515{isolation:isolate;}.ac981c5a-ec07-47fb-868f-3469cd09669c{fill:#c8c8c7;}.a18030f8-fa7a-47af-8fc0-058340a5fedf{fill:#8e8e8e;}.a036ead9-47dc-4a5f-a58c-712dbc625188{fill:#3a391e;}</style></defs><title>outlet</title><rect class="eaea3080-04a9-42e0-a5b6-dab27c8cc63d" width="74.18" height="62.98" rx="5.92"/><g class="b8381ebe-f72d-4947-bee9-735016ad7515"><path class="ac981c5a-ec07-47fb-868f-3469cd09669c" d="M49.89,60A18.88,18.88,0,1,1,68.77,41.1,18.9,18.9,0,0,1,49.89,60Z" transform="translate(-12.92 -10.61)"/><path class="a18030f8-fa7a-47af-8fc0-058340a5fedf" d="M49.89,23.22A17.88,17.88,0,1,1,32,41.1,17.9,17.9,0,0,1,49.89,23.22m0-2A19.88,19.88,0,1,0,69.77,41.1,19.88,19.88,0,0,0,49.89,21.22Z" transform="translate(-12.92 -10.61)"/></g><circle class="a036ead9-47dc-4a5f-a58c-712dbc625188" cx="43.94" cy="31.42" r="3.32"/><circle class="a036ead9-47dc-4a5f-a58c-712dbc625188" cx="29.94" cy="31.42" r="3.32"/></svg>