<?xml version="1.0" encoding="utf-8"?>
<!-- Generator: Adobe Illustrator 24.0.3, SVG Export Plug-In . SVG Version: 6.00 Build 0)  -->
<svg version="1.1" id="Layer_1" xmlns="http://www.w3.org/2000/svg" xmlns:xlink="http://www.w3.org/1999/xlink" x="0px" y="0px"
	 viewBox="0 0 268.1 221.5" style="enable-background:new 0 0 268.1 221.5;" xml:space="preserve">
<style type="text/css">
	.st0{fill:#8C6151;}
	.st1{fill:#0097FF;}
	.st2{fill:#37393A;}
	.st3{fill:#FFFFFF;}
	.st4{fill:#58666D;}
	.st5{fill:#293260;}
	.st6{fill:#2C2A29;}
	.st7{fill:#818385;}
	.st8{fill:#EFEFEF;}
	.st9{fill:#8475B6;}
	.st10{fill:#421A0F;}
	.st11{fill:#262859;}
	.st12{fill:#E0DFCD;}
	.st13{fill:#752E1B;}
	.st14{fill:#DBB38A;}
	.st15{fill:#0098FF;}
	.st16{fill:#7D8689;}
	.st17{fill:#335166;}
	.st18{clip-path:url(#SVGID_2_);}
	.st19{fill:#064D6D;}
	.st20{fill:#62B5E5;}
	.st21{clip-path:url(#SVGID_4_);}
	.st22{clip-path:url(#SVGID_6_);}
	.st23{fill:#D9F1FF;}
	.st24{fill:#BBEAFF;}
	.st25{fill:#3D4A5D;}
	.st26{fill:#BCC1C4;}
</style>
<g id="Group_365" transform="translate(-53.327 -118.39)">
	<g id="Group_343" transform="translate(-4.221 -6.486)">
		<g id="Group_62" transform="translate(53.535 124.877)">
			<g id="Group_184" transform="translate(17.917)">
				<path id="Path_261" class="st0" d="M7.1,70.3c0,0-9,0.1-6.7-1c1.6-0.7,4.9-2.9,7.2-2.1c1,0.4,3,1.6,2.4,2.3S7.1,70.3,7.1,70.3z"
					/>
				<g id="Group_61" transform="translate(5.734)">
					<g id="Group_53" transform="translate(56.864)">
						<ellipse id="Ellipse_102" class="st1" cx="12.8" cy="10" rx="12.8" ry="10"/>
						<path id="Path_262" class="st1" d="M17.8,16.8c0,0,1.7,3.6,9.2,4c-1.9-1.4-3.3-3.2-4.2-5.4C20.6,9.9,17.8,16.8,17.8,16.8z"/>
					</g>
					<g id="Group_54" transform="translate(0 15.663)">
						<path id="Path_263" class="st2" d="M20.2,11.9l4.1,0.2l-0.9,6l-3.9,2l-3.8-5.6L20.2,11.9z"/>
						<path id="Path_264" class="st3" d="M32.8,40.1c2.1,6.5,3.3,7.7,4.1,7.9c0.9,0.3,1.8,0.5,2.8,0.6c1.3,0.2,1.4-0.5,3.8,2.9
							c1.1,3.4-1.5-0.7-2.4,0.3c0,0-9.8-0.2-10.4-3.4c0,0-1.7-7.5-1.6-9"/>
						<rect id="Rectangle_9" x="21.5" y="63" class="st4" width="3.5" height="5.2"/>
						<path id="Path_265" class="st5" d="M3.3,29L12,63.4h27.6l-0.8-3.6H13.8C13.8,59.8,12,28.7,3.3,29z"/>
						<path id="Path_266" class="st6" d="M36.9,57c0.8,2.3,1.2,4.7,1.3,7.1c0,3.5,3,15.8,3.2,17.1s4.1,0,4.1,0s-2-18.4-2.5-20.2
							s0.5-8.6-3.2-7.4S36.9,57,36.9,57z"/>
						<path id="Path_267" class="st3" d="M19.4,30.9c0.4-0.6-7,10.3-7.2,12.6c-3.4,6.3-5.1,8.6-7.9,11.1c-0.3,0.3-0.8,0.3-1.2,0
							L0.3,52c-0.4-0.3-0.4-0.9-0.1-1.2c0,0,0.1-0.1,0.1-0.1c3-3.9,5.6-8.2,7.8-12.7c3.4-13.4,4.4-18.1,11.3-19.2
							C19.4,18.8,16.4,35.5,19.4,30.9z"/>
						<ellipse id="Ellipse_103" class="st0" cx="50.5" cy="38.3" rx="3.1" ry="1.1"/>
						<path id="Path_268" class="st7" d="M44.5,81.1c0,0,8.3,0.9,6.5,2.4s-9.8,0.7-9.8,0.7l0.8-3H44.5z"/>
						<path id="Path_269" class="st6" d="M30.5,45.1c-0.1,0.5,1.5,1.1,2.9,1.1c8.2,0.1,9.2,0.1,11.1,8.8c1.5,6.8,9.6,24,9.6,24
							l-1.8,0.6c0,0-10.3-14.4-10.2-17.2s-1.4-5.8-3.1-5.1c-1.2,0.5-17.5-4.5-19.6-9.7c-0.4-1,8.3-2.4,10.4-3
							C30.2,44.5,30.7,44.3,30.5,45.1z"/>
						<path id="Path_270" class="st0" d="M48.2,37.6l-2.3-0.6l-0.2,1.2l1.7,0.2"/>
						<path id="Path_271" class="st6" d="M66.3,27.5h-5.2l-7.4,10.9H59L66.3,27.5z"/>
						<rect id="Rectangle_10" x="46.5" y="38.4" class="st6" width="12" height="0.9"/>
						<path id="Path_272" class="st0" d="M29.6,7.5c0.1,3.7-2.3,6.6-6,6.7c-3.7,0.1-6.8-2.8-6.9-6.5s2.8-6.8,6.5-6.9
							C26.9,0.8,29.5,3.8,29.6,7.5z"/>
						<path id="Path_273" class="st0" d="M29.6,8.2C30.7,1,24,8.3,24,8.3l-3.4,1.5c0,0-0.7,4.6,2.1,5.5S28.3,16.6,29.6,8.2z"/>
						<rect id="Rectangle_11" x="22.6" y="67.5" class="st4" width="1.6" height="13.2"/>
						<path id="Path_274" class="st4" d="M23.3,79.6L11.8,83v1l11.5-2.7l11,2.4l0.3-0.7L23.3,79.6z"/>
						<circle id="Ellipse_104" class="st4" cx="11.5" cy="84.6" r="1.8"/>
						<circle id="Ellipse_105" class="st4" cx="35" cy="84.6" r="1.8"/>
						<path id="Path_275" class="st0" d="M53.7,78"/>
						<path id="Path_276" class="st4" d="M48.8,41.1l-7.2,46.1h-1.4l5.3-46.1H48.8z"/>
						<rect id="Rectangle_12" x="39.6" y="39.5" class="st4" width="45.6" height="1.6"/>
						<path id="Path_277" class="st3" d="M46.4,36.3c-0.3,0.6,0.3,2.3,0,2.9c-0.1,0.2-0.2,0.3-0.3,0.4c-0.2,0.1-0.5,0.1-0.7,0
							c-4.4-1-8.6,1.7-13,1.4c-0.9,0-1.8-0.2-2.7-0.6c-0.2-0.1-0.4-0.2-0.6-0.3c-0.2-0.2-0.3-0.6-0.3-0.9c-0.4-2.5-1-5-1.8-7.4
							c0-0.1-0.1-0.2-0.1-0.2c0,0-2.2-11.1-2.7-13.5l0.7-1.3c-0.1,0,0.6,0,1.6,1.4c0.5,0.8,0.9,1.6,1.1,2.5
							c1.3,3.7,2.5,7.5,3.6,11.2c0.3,1,0.5,2.2,1.4,2.8c0.6,0.4,7.5,1.2,9.3,1.2C43.6,36,44.5,36.2,46.4,36.3z"/>
						<path id="Path_278" class="st8" d="M25.1,17.6"/>
						<path id="Path_279" class="st9" d="M20,48.9c0,0,7.9-3.7,10.5-3.4s-5.2-26.5-5.2-26.5l-0.1-1.4l-3.5-0.8l-1.5,5.8L18.8,49
							L20,48.9z"/>
						<path id="Path_280" class="st3" d="M19.9,17.2c-0.4,0.3-0.9,0.6-1.4,0.8c-0.6,0.3,1,1.1,0.6,1.6c-2.7,3.4-4.4,7.5-4.9,11.9
							c-0.8,6.7-0.7,13.4,0.3,20.1c0.3,2.4,1,4.9,3.3,6c1.1,0.6,2.3,0.8,3.6,0.9c1.5,0.2,2.9,0.4,4.4,0.5c3,0.3,6,0.2,8.9,0.9
							c3.4,0.8,3.6,0.9,3.6-0.4c0.2-3.5-1.5-6.1-0.1-9.1c1-2.1-4.9-3.1-13.7-3c-8,0.1-4.2-24.7-3.4-30L19.9,17.2z"/>
						<path id="Path_281" class="st0" d="M25.8,13.9c0,0-1,2.6-0.6,3.7s-4.6-0.2-4.6-0.2l0.1-5.2L25.8,13.9z"/>
						<path id="Path_282" class="st10" d="M20.3,18.4c-2.2,3.7-3.6,1.1-6.1,3C12.1,23,16.5,6.7,17,4.5C18.8-2.7,27.8,0,30.5,4
							c3.6,5.3-1.7,4.1-6.3,2.9c-0.5-0.1-3.1,0.6-2.5,4C22.1,13.5,21.6,16.1,20.3,18.4z"/>
						<path id="Path_283" class="st7" d="M52.2,78.8L52,81.4c-0.1,0.2,0,0.5,0.1,0.7c0.2,0.2,0.4,0.2,0.7,0.2
							c1.8-0.1,3.3-1.2,4.9-1.9c1-0.4,2-0.7,3-0.9c0.2,0,0.3-0.1,0.4-0.2c0-0.1,0-0.1,0-0.2c-0.2-0.7-1.1-0.8-1.8-0.9l-6.6-0.4
							c-0.4,0-1,0.1-1,0.5"/>
					</g>
					<g id="Group_55" transform="translate(64.262 16.718)">
						<path id="Path_284" class="st11" d="M8.3,81.3c0.6-0.7,0.3-2.8-0.2-3.9c0,0-1.6,2.8-3.6,2.7c-0.7,0-1.5-0.2-2.1-0.5
							c-1.2,0.8-2.3,1.4-2.4,1.8C-0.1,82.1,7.7,81.9,8.3,81.3z"/>
						<path id="Path_285" class="st12" d="M8.3,74c-0.5-0.3-0.9-0.7-1.1-1.2c-0.3,0-0.7,0-1,0.1c0,0.9-0.1,1.8-0.3,2.7
							c-0.8,3.3-5.8,4.9-5.9,5.7s7.7,0.7,8.2,0s0.3-2.8-0.2-3.9C7.9,76.2,8,75.1,8.3,74z"/>
						<path id="Path_286" class="st12" d="M20.7,76.1c-0.5,2.2-4.6,4.5-5.5,5.1c-1.3,1,6.9,0.5,8.6,0s-0.3-4.8-0.3-4.8L20.7,76.1z"
							/>
						<path id="Path_287" class="st13" d="M28,10.3c-0.1,0-0.2,0-0.3,0c-0.2-0.2-0.5-0.1-0.6,0.1c0,0-0.1,0.1-0.1,0.2
							c-0.2,1-0.2,2-0.1,3c0,1.6-0.7,2.3-2.2,2.7c-0.3,0.1-0.5,0.3-0.4,0.6c0,0.1,0.1,0.2,0.1,0.2c1,1.1,2.3,1.8,3.8,1.8
							c1.3,0,2.4-0.9,2.8-2.1C32,14.1,30.9,10.9,28,10.3z"/>
						<path id="Path_288" class="st13" d="M26.8,2.3c-0.1-0.2-0.3-0.4-0.6-0.3c0,0-0.1,0-0.1,0c-1.7,0.8-2.4,2.9-1.5,4.5
							c0.3,0.6,0.7,1,1.2,1.4C26,8.1,26.4,8,26.5,7.8c0,0,0-0.1,0.1-0.1C27.3,5.9,27.9,4,26.8,2.3z"/>
						<path id="Path_289" class="st7" d="M29.9,51.1l1.3-9l-2,2.7l-14,3.5c-1.2,0.5-1.9,1.6-1.9,2.8c0.1,3.9-7.8,21.1-9.4,24.6
							c-0.1,0.3,0,0.7,0.3,0.8c0.1,0,0.1,0,0.2,0c1.3,0.2,2.7,0.2,4,0.1c0.9-0.1,1.7-0.6,2.1-1.5c2.2-5.9,8.2-19.7,9-21.8
							C19.7,54.3,29.9,51.1,29.9,51.1z"/>
						<path id="Path_290" class="st14" d="M27.5,22.4c0.1-0.7,0.4-1.4,0.8-2c1.4-2,3.7-3.3,6.1-3.4c-0.9-1-1.5-2.3-1.6-3.6l-4.1,1.3
							c0,0,2,3.3-0.5,4.7c-0.6,0.4-1.9,2.3-3.4,4.6l0.1,1.6C25.6,24.3,26.4,23.2,27.5,22.4z"/>
						<path id="Path_291" class="st14" d="M26.3,21.8c-2.2,3.5-4.8,7.9-5.6,7.8c-1.2-0.2-8.1-8.8-9.4-9S5.1,18.3,5,18.8
							s-0.2,3.9,2.3,4.2s2.8-0.5,3.8,0.6s6.2,12.4,9.6,11.2c2-0.7,4.5-3.1,6.3-5"/>
						<path id="Path_292" class="st14" d="M25.1,5.8c0-2.4,1.5-4.6,3.7-5.5C37.7,1.5,36.3,8,35,11.5s-6.5,4.1-8.5,3.8
							c-1.5-0.2-1.7-2.2-1.7-4.7c-0.3-0.1-1-0.3-1-0.6c0.3-0.8,0.7-1.6,1.1-2.3C25.1,7.1,25.1,6.4,25.1,5.8z"/>
						<path id="Path_293" class="st7" d="M41.5,44c0-0.1-0.1-0.3-0.2-0.6C38.9,43.6,31,43.8,28.8,44c-0.1,1.2,0.7,3.7-2.6,4.3
							c-3.6,0.6-10.3,2.5-11,4s2.6,21.5,5,24.7c1.7-0.3,3.4,0,3.8-0.4c-1.4-3,0.4-18.6-0.9-19.4c0,0,0.1,0,0.3,0
							c2.4,0,16.5,0.1,18.6-4.1C44.1,49,41.7,45,41.5,44z"/>
						<path id="Path_294" class="st15" d="M42.4,46.2c-0.2-1.3-3.6-23.7-4.3-25.5c-0.4-1.1-2.3-2.2-3.8-3.8c0.6-0.6-0.1-1.9-0.9-1.4
							c-1.3,0.7-5.4,2.9-4.3,2.9c-0.1,0.1-0.3,0.2-0.4,0.3c-1.2,0.7-5.3,6.8-7.5,9.7c0.5,1.2,2,3.9,3.3,4.9c1.1-1.1,2.4-2.1,3.7-3.1
							c0,0-1.2,0.2,0.1,1.6c0.8,0.9,0.6,10.1,0.3,12.2c-0.2,1.3,0.7,2.5,2,2.7c0.1,0,0.1,0,0.2,0C34.7,47,38.6,46.7,42.4,46.2z"/>
						<path id="Path_295" class="st13" d="M39.7,14.3c-0.4-1.1-0.9-2.1-1.5-3.1c-0.2-0.4-0.3-0.8-0.5-1.2c-0.1-0.9-0.1-1.8-0.2-2.7
							c-0.2-3-1.5-5.7-4.4-6.8c-2.7-1-5.6-0.3-7.5,1.9c-0.1,0.1-0.1,0.2-0.1,0.4c0,0,0,0,0,0c0,1.8,1,3.5,2.6,4.4
							c1.2,0.7,3.1,1.1,4,2.2c0,0.2,0,0.3,0,0.5c0,0.8,0,1.6,0.2,2.3c0.2,0.9,1.9,4.9-0.2,4.7c-0.3,0-0.5,0.2-0.5,0.5
							c0,0.3,0.2,0.5,0.4,0.5h0c1.6,0.6,4.1,0.9,5.7-0.1c0.5,0,0.9-0.2,1.2-0.6C39.7,16.4,39.9,15.3,39.7,14.3z"/>
						<path id="Path_296" class="st16" d="M13.4,51.1l2.5,10.7l-0.6,1.6C15.3,63.3,14.6,59.2,13.4,51.1z"/>
					</g>
					<g id="Group_58" transform="translate(88.834 46.873)">
						<g id="Group_57" transform="translate(0 26.595)">
							<g id="Group_56">
								<path id="Path_297" class="st4" d="M3.9,1.7L3.9,1.7l0-1.7h17.9v1.7l3.9,23.4h-1.4L20.6,3c-0.2-0.9-1.1-1.4-2-1.3H7.1
									C6.2,1.6,5.3,2.2,5.1,3l-3.7,22H0L3.9,1.7z"/>
							</g>
						</g>
						<path id="Rectangle_13" class="st4" d="M21.8,27.6L21.8,27.6c-1.5,0-2.7-1.2-2.7-2.7l0,0V2.7c0-1.5,1.2-2.7,2.7-2.7
							c0,0,0,0,0,0l0,0l0,0V27.6L21.8,27.6z"/>
					</g>
					<path id="Path_298" class="st4" d="M77.1,56.1l7.2,46.1h1.4l-5.3-46.1H77.1z"/>
					<g id="Group_60" transform="translate(17.896 45.567)">
						<g id="Group_59">
							<path id="Path_299" class="st17" d="M2.1,0c0,0,0.1,0,0.1,0c0,0,0.1,0.1,0.1,0.1c0,0.1,0.1,0.5-0.1,0.6s-0.8,0-1,0
								c-0.7,0-0.3,0-1-0.1c0,0-0.1,0-0.1,0c0,0,0-0.1,0-0.1C0,0.4,0,0.2,0,0C1.1,0,1,0,2.1,0z"/>
						</g>
					</g>
				</g>
			</g>
		</g>
		<g id="Group_316" transform="translate(682.69 -1664.854)">
			<ellipse id="Ellipse_150" class="st3" cx="-613.5" cy="1847.3" rx="11" ry="10.7"/>
			<path id="Path_476" class="st1" d="M-613.5,1836.6c2.8,0,5.5,1.1,7.5,3.1c2,2,3.2,4.7,3.2,7.5c0.1,2.8-1,5.6-3,7.6
				c-2,2-4.7,3.2-7.5,3.2h-0.2c-2.8,0-5.5-1.1-7.5-3.1c-2-2-3.2-4.7-3.2-7.5c-0.1-2.8,1-5.6,3-7.6c2-2,4.7-3.2,7.5-3.2
				L-613.5,1836.6 M-613.5,1835.7h-0.2c-6.4,0.1-11.5,5.4-11.4,11.8c0,0,0,0,0,0c0.1,6.4,5.3,11.4,11.6,11.4h0.2
				c6.4-0.1,11.5-5.4,11.4-11.8c0,0,0,0,0,0C-602,1840.8-607.2,1835.7-613.5,1835.7L-613.5,1835.7z"/>
			
				<ellipse id="Ellipse_151" transform="matrix(0.9996 -2.798903e-02 2.798903e-02 0.9996 -51.9643 -16.2545)" class="st1" cx="-606.6" cy="1848.1" rx="2.5" ry="2.6"/>
			
				<ellipse id="Ellipse_152" transform="matrix(0.9996 -2.798903e-02 2.798903e-02 0.9996 -51.8087 -16.6268)" class="st1" cx="-619.8" cy="1842.4" rx="2.6" ry="2.7"/>
			
				<ellipse id="Ellipse_153" transform="matrix(0.9996 -2.798903e-02 2.798903e-02 0.9996 -52.039 -16.6483)" class="st1" cx="-620.7" cy="1850.6" rx="2.3" ry="2.3"/>
			
				<ellipse id="Ellipse_154" transform="matrix(0.9996 -2.798903e-02 2.798903e-02 0.9996 -51.7785 -16.4242)" class="st1" cx="-612.6" cy="1841.4" rx="2.3" ry="2.3"/>
			
				<ellipse id="Ellipse_155" transform="matrix(0.9996 -2.798903e-02 2.798903e-02 0.9996 -52.1787 -16.5644)" class="st1" cx="-617.8" cy="1855.6" rx="1.8" ry="1.9"/>
			
				<ellipse id="Ellipse_156" transform="matrix(0.9996 -2.798903e-02 2.798903e-02 0.9996 -51.797 -16.2687)" class="st1" cx="-607" cy="1842.1" rx="2.3" ry="2.3"/>
			
				<ellipse id="Ellipse_157" transform="matrix(0.9996 -2.798903e-02 2.798903e-02 0.9996 -51.8817 -16.3608)" class="st1" cx="-610.4" cy="1845.1" rx="1.2" ry="1.3"/>
			
				<ellipse id="Ellipse_158" transform="matrix(0.9996 -2.798903e-02 2.798903e-02 0.9996 -51.9377 -16.6228)" class="st1" cx="-619.8" cy="1847" rx="0.8" ry="0.8"/>
			
				<ellipse id="Ellipse_159" transform="matrix(0.9996 -2.798903e-02 2.798903e-02 0.9996 -52.0863 -16.3065)" class="st1" cx="-608.5" cy="1852.4" rx="0.8" ry="0.8"/>
			
				<ellipse id="Ellipse_160" transform="matrix(0.9996 -2.798903e-02 2.798903e-02 0.9996 -51.9905 -16.7362)" class="st1" cx="-623.8" cy="1848.8" rx="0.8" ry="0.8"/>
			
				<ellipse id="Ellipse_161" transform="matrix(0.9996 -2.798903e-02 2.798903e-02 0.9996 -52.1404 -16.6512)" class="st1" cx="-620.9" cy="1854.2" rx="0.8" ry="0.8"/>
			
				<ellipse id="Ellipse_162" transform="matrix(0.9996 -2.798903e-02 2.798903e-02 0.9996 -51.8412 -16.5115)" class="st1" cx="-615.7" cy="1843.6" rx="0.8" ry="0.8"/>
			
				<ellipse id="Ellipse_163" transform="matrix(0.9996 -2.798903e-02 2.798903e-02 0.9996 -52.042 -16.7346)" class="st1" cx="-623.8" cy="1850.6" rx="0.5" ry="0.5"/>
			
				<ellipse id="Ellipse_164" transform="matrix(0.9996 -2.798903e-02 2.798903e-02 0.9996 -51.875 -16.7169)" class="st1" cx="-623.1" cy="1844.7" rx="0.5" ry="0.5"/>
			
				<ellipse id="Ellipse_165" transform="matrix(0.9996 -2.798903e-02 2.798903e-02 0.9996 -51.709 -16.2735)" class="st1" cx="-607.2" cy="1839" rx="0.5" ry="0.5"/>
			
				<ellipse id="Ellipse_166" transform="matrix(0.9996 -2.798903e-02 2.798903e-02 0.9996 -51.8251 -16.3499)" class="st1" cx="-610" cy="1843.1" rx="0.5" ry="0.5"/>
			
				<ellipse id="Ellipse_167" transform="matrix(0.9996 -2.798903e-02 2.798903e-02 0.9996 -51.9511 -16.3635)" class="st1" cx="-610.5" cy="1847.6" rx="0.5" ry="0.5"/>
			
				<ellipse id="Ellipse_168" transform="matrix(0.9996 -2.798903e-02 2.798903e-02 0.9996 -52.0489 -16.1849)" class="st1" cx="-604.2" cy="1851.2" rx="0.5" ry="0.5"/>
			
				<ellipse id="Ellipse_169" transform="matrix(0.9996 -2.798903e-02 2.798903e-02 0.9996 -52.0765 -16.2484)" class="st1" cx="-606.5" cy="1852.1" rx="0.5" ry="0.5"/>
			
				<ellipse id="Ellipse_170" transform="matrix(0.9996 -2.798903e-02 2.798903e-02 0.9996 -51.8642 -16.4215)" class="st1" cx="-612.5" cy="1844.4" rx="0.5" ry="0.5"/>
			
				<ellipse id="Ellipse_171" transform="matrix(0.9996 -2.798903e-02 2.798903e-02 0.9996 -52.0368 -16.5601)" class="st1" cx="-617.6" cy="1850.5" rx="0.5" ry="0.5"/>
			
				<ellipse id="Ellipse_172" transform="matrix(0.9996 -2.798903e-02 2.798903e-02 0.9996 -51.784 -16.5142)" class="st1" cx="-615.8" cy="1841.5" rx="0.5" ry="0.5"/>
			
				<ellipse id="Ellipse_173" transform="matrix(0.9996 -2.798903e-02 2.798903e-02 0.9996 -51.9105 -16.5854)" class="st1" cx="-618.4" cy="1846" rx="0.5" ry="0.5"/>
			
				<ellipse id="Ellipse_174" transform="matrix(0.9996 -2.798903e-02 2.798903e-02 0.9996 -51.9776 -16.5878)" class="st1" cx="-618.5" cy="1848.4" rx="0.5" ry="0.5"/>
			
				<ellipse id="Ellipse_175" transform="matrix(0.9996 -2.798903e-02 2.798903e-02 0.9996 -51.9322 -16.1508)" class="st1" cx="-602.9" cy="1847" rx="0.5" ry="0.5"/>
			
				<ellipse id="Ellipse_176" transform="matrix(0.9996 -2.798903e-02 2.798903e-02 0.9996 -52.096 -16.1979)" class="st1" cx="-604.7" cy="1852.8" rx="0.5" ry="0.5"/>
			
				<ellipse id="Ellipse_177" transform="matrix(0.9996 -2.798903e-02 2.798903e-02 0.9996 -52.1786 -16.2889)" class="st1" cx="-607.9" cy="1855.7" rx="0.5" ry="0.5"/>
			
				<ellipse id="Ellipse_178" transform="matrix(0.9996 -2.798903e-02 2.798903e-02 0.9996 -51.6745 -16.4734)" class="st1" cx="-614.3" cy="1837.6" rx="0.5" ry="0.5"/>
			
				<ellipse id="Ellipse_179" transform="matrix(0.9996 -2.798903e-02 2.798903e-02 0.9996 -52.1073 -16.5827)" class="st1" cx="-618.4" cy="1853" rx="0.5" ry="0.5"/>
			
				<ellipse id="Ellipse_180" transform="matrix(0.9996 -2.798903e-02 2.798903e-02 0.9996 -52.229 -16.4996)" class="st1" cx="-615.5" cy="1857.4" rx="0.5" ry="0.5"/>
			
				<ellipse id="Ellipse_181" transform="matrix(0.9996 -2.798903e-02 2.798903e-02 0.9996 -52.0696 -16.4485)" class="st1" cx="-613.6" cy="1851.8" rx="0.5" ry="0.5"/>
			
				<ellipse id="Ellipse_182" transform="matrix(0.9996 -2.798903e-02 2.798903e-02 0.9996 -51.9572 -16.4764)" class="st1" cx="-614.5" cy="1847.7" rx="2.3" ry="2.4"/>
			
				<ellipse id="Ellipse_183" transform="matrix(0.9996 -2.798903e-02 2.798903e-02 0.9996 -52.1739 -16.4006)" class="st1" cx="-611.9" cy="1855.5" rx="2.5" ry="2.5"/>
			
				<ellipse id="Ellipse_184" transform="matrix(0.9996 -2.798903e-02 2.798903e-02 0.9996 -52.0833 -16.52)" class="st1" cx="-616.2" cy="1852.2" rx="1.2" ry="1.3"/>
			
				<ellipse id="Ellipse_185" transform="matrix(0.9996 -2.798903e-02 2.798903e-02 0.9996 -51.9265 -16.6966)" class="st1" cx="-622.4" cy="1846.5" rx="1.2" ry="1.3"/>
			
				<ellipse id="Ellipse_186" transform="matrix(0.9996 -2.798903e-02 2.798903e-02 0.9996 -52.1339 -16.2492)" class="st1" cx="-606.5" cy="1854.2" rx="1.2" ry="1.3"/>
			
				<ellipse id="Ellipse_187" transform="matrix(0.9996 -2.798903e-02 2.798903e-02 0.9996 -51.6928 -16.3321)" class="st1" cx="-609.2" cy="1838.4" rx="1.2" ry="1.3"/>
			
				<ellipse id="Ellipse_188" transform="matrix(0.9996 -2.798903e-02 2.798903e-02 0.9996 -51.6669 -16.4069)" class="st1" cx="-611.9" cy="1837.4" rx="1.2" ry="1.3"/>
			
				<ellipse id="Ellipse_189" transform="matrix(0.9996 -2.798903e-02 2.798903e-02 0.9996 -51.6987 -16.5319)" class="st1" cx="-616.4" cy="1838.5" rx="1.2" ry="1.3"/>
			
				<ellipse id="Ellipse_190" transform="matrix(0.9996 -2.798903e-02 2.798903e-02 0.9996 -51.8592 -16.1767)" class="st1" cx="-603.8" cy="1844.4" rx="1.2" ry="1.3"/>
			
				<ellipse id="Ellipse_191" transform="matrix(0.9996 -2.798903e-02 2.798903e-02 0.9996 -52.0344 -16.3634)" class="st1" cx="-610.5" cy="1850.6" rx="1.2" ry="1.3"/>
		</g>
	</g>
	<g id="Group_344">
		<g id="Group_16" transform="translate(134.573 222.703) rotate(-26)">
			<g id="Group_3" transform="translate(0 0)">
				<path id="Path_2" class="st1" d="M154.9,102.8l-2.8,7.1c-0.5,1.4-2,2.2-3.5,1.9l-10.5-1.8c-1.8,3.5-3.9,6.8-6.4,9.9l5.8,9.5
					c0.8,1.3,0.6,2.9-0.5,3.9l-5.6,5.2c-1.1,1-2.7,1.1-4,0.3l-8.6-6.2c-3.1,2.4-6.5,4.4-10,6.2l1.1,11.1c0.1,1.5-0.8,2.9-2.2,3.3
					l-7.3,2.3c-1.4,0.4-3-0.2-3.7-1.5l-5.1-9.3c-3.9,0.8-7.8,1.2-11.7,1.2l-3.8,10.5c-0.5,1.4-1.9,2.2-3.4,2l-7.5-1.1
					c-1.5-0.2-2.6-1.4-2.7-2.9l-0.5-10.6c-3.8-1-7.5-2.3-11.1-4l-8,7.8c-1.1,1-2.7,1.2-3.9,0.4l-6.3-4.3c-1.2-0.8-1.7-2.4-1.1-3.8
					l4.1-9.8c-3-2.5-5.8-5.4-8.2-8.4l-10.6,3.6c-1.4,0.5-3-0.1-3.7-1.4l-3.8-6.6c-0.7-1.3-0.5-2.9,0.6-3.9l8-7
					c-1.6-3.6-2.9-7.3-3.8-11.1L3.3,93.6c-1.5-0.2-2.6-1.4-2.7-2.9L0,83.2c-0.1-1.5,0.8-2.8,2.3-3.2L12.5,77
					c0.1-2.6,1.1-10.4,1.4-11.7l-9.4-6c-1.3-0.8-1.8-2.4-1.2-3.8l2.8-7.1c0.5-1.4,2-2.2,3.5-1.9L20,48.4c1.8-3.5,3.9-6.8,6.4-9.9
					l-5.8-9.5C19.8,27.7,20,26,21.1,25l5.6-5.2c1.1-1,2.7-1.1,4-0.3l8.6,6.2c3.1-2.4,6.5-4.4,10-6.2L48.1,8.5
					C48,7,48.9,5.6,50.3,5.2l7.3-2.3c1.4-0.4,3,0.2,3.7,1.5l5.1,9.3c3.9-0.8,7.8-1.2,11.7-1.2l3.8-10.5c0.5-1.4,1.9-2.2,3.4-2
					l7.5,1.1c1.5,0.2,2.6,1.5,2.7,2.9L96,14.7c3.8,1,7.5,2.3,11.1,4l8-7.8c1.1-1,2.7-1.2,3.9-0.4l6.3,4.3c1.2,0.8,1.7,2.4,1.1,3.8
					l-4.1,9.8c3,2.5,5.8,5.4,8.2,8.4l10.6-3.6c1.4-0.5,3,0.1,3.7,1.4l3.8,6.6c0.7,1.3,0.5,2.9-0.6,3.9l-8,7
					c1.6,3.6,2.9,7.3,3.8,11.1l11.1,1.4c1.5,0.2,2.6,1.4,2.7,2.9l0.6,7.6c0.1,1.5-0.8,2.8-2.3,3.2l-10.2,2.9
					c-0.1,2.6-0.3,5.2-0.7,7.7c-0.2,1.3-0.4,2.7-0.7,4l9.4,6C154.9,99.8,155.4,101.4,154.9,102.8z"/>
			</g>
		</g>
		<g id="Group_342" transform="translate(-759.556 -1743.698)">
			<g id="Group_340" transform="translate(972.863 1960.708)">
				<g id="Group_320" transform="translate(0.039 47.699)">
					<g>
						<defs>
							<path id="SVGID_1_" d="M56.1,0v17.3c0,0.1,0,0.2,0,0.3c-0.8,3.1-13,5.6-28,5.6S0.8,20.7,0,17.6c0-0.1,0-0.2,0-0.3V0H56.1z"/>
						</defs>
						<clipPath id="SVGID_2_">
							<use xlink:href="#SVGID_1_"  style="overflow:visible;"/>
						</clipPath>
						<g id="Group_319" class="st18">
							<g id="Group_317">
								<path id="Path_477" class="st3" d="M56.1,0v17.3c0,0.1,0,0.2,0,0.3c-0.8,3.1-13,5.6-28,5.6S0.8,20.7,0,17.6
									c0-0.1,0-0.2,0-0.3V0H56.1z"/>
							</g>
							<g id="Group_318" transform="translate(-5.044 5.908)">
								<path id="Path_478" class="st19" d="M32.1,10C21.8,10,3.9,9.1,0.3,3C-0.3,2,0,0.8,1,0.3C1.9-0.3,3.1,0,3.7,1
									c1.4,2.4,10.9,5,28.4,5c1.1,0,2,0.9,2,2C34.1,9.1,33.2,10,32.1,10L32.1,10z"/>
							</g>
						</g>
					</g>
				</g>
				<g id="Group_321" transform="translate(0.042 42.859)">
					<ellipse id="Ellipse_192" class="st20" cx="28.1" cy="5.9" rx="28.1" ry="5.9"/>
				</g>
				<g id="Group_325" transform="translate(0.039 26.726)">
					<g>
						<defs>
							<path id="SVGID_3_" d="M56.1,0v17.3c0,0.1,0,0.2,0,0.3c-0.8,3.1-13,5.6-28,5.6S0.8,20.7,0,17.6c0-0.1,0-0.2,0-0.3V0H56.1z"/>
						</defs>
						<clipPath id="SVGID_4_">
							<use xlink:href="#SVGID_3_"  style="overflow:visible;"/>
						</clipPath>
						<g id="Group_324" class="st21">
							<g id="Group_322">
								<path id="Path_480" class="st3" d="M56.1,0v17.3c0,0.1,0,0.2,0,0.3c-0.8,3.1-13,5.6-28,5.6S0.8,20.7,0,17.6
									c0-0.1,0-0.2,0-0.3V0H56.1z"/>
							</g>
							<g id="Group_323" transform="translate(-5.044 5.908)">
								<path id="Path_481" class="st19" d="M32.1,10C21.8,10,3.9,9.1,0.3,3C-0.3,2,0,0.8,1,0.3C1.9-0.3,3.1,0,3.7,1
									c1.4,2.4,10.9,5,28.4,5c1.1,0,2,0.9,2,2S33.2,10,32.1,10L32.1,10z"/>
							</g>
						</g>
					</g>
				</g>
				<g id="Group_326" transform="translate(0.042 21.245)">
					<ellipse id="Ellipse_193" class="st20" cx="28.1" cy="5.9" rx="28.1" ry="5.9"/>
				</g>
				<g id="Group_330" transform="translate(0.039 5.481)">
					<g>
						<defs>
							<path id="SVGID_5_" d="M56.1,0v17.3c0,0.1,0,0.2,0,0.3c-0.8,3.1-13,5.6-28,5.6S0.8,20.7,0,17.6c0-0.1,0-0.2,0-0.3V0H56.1z"/>
						</defs>
						<clipPath id="SVGID_6_">
							<use xlink:href="#SVGID_5_"  style="overflow:visible;"/>
						</clipPath>
						<g id="Group_329" class="st22">
							<g id="Group_327">
								<path id="Path_483" class="st3" d="M56.1,0v17.3c0,0.1,0,0.2,0,0.3c-0.8,3.1-13,5.6-28,5.6S0.8,20.7,0,17.6
									c0-0.1,0-0.2,0-0.3V0H56.1z"/>
							</g>
							<g id="Group_328" transform="translate(-5.044 5.908)">
								<path id="Path_484" class="st19" d="M32.1,10C21.8,10,3.9,9.1,0.3,3C-0.3,2,0,0.8,1,0.3C1.9-0.3,3.1,0,3.7,1
									c1.4,2.4,10.9,5,28.4,5c1.1,0,2,0.9,2,2S33.2,10,32.1,10L32.1,10z"/>
							</g>
						</g>
					</g>
				</g>
				<g id="Group_331" transform="translate(0 25.207)">
					<path id="Path_486" class="st23" d="M0,0.3L0,0.3L0,0C0,0.1,0,0.2,0,0.3z"/>
				</g>
				<g id="Group_332" transform="translate(56.137 22.776)">
					<path id="Path_487" class="st23" d="M0,0v0.3h0C0,0.2,0,0.1,0,0z"/>
				</g>
				<g id="Group_333" transform="translate(0.042)">
					<ellipse id="Ellipse_194" class="st20" cx="28.1" cy="5.9" rx="28.1" ry="5.9"/>
				</g>
				<g id="Group_334" transform="translate(31.885 17.704)">
					<circle id="Ellipse_195" class="st20" cx="1.9" cy="1.8" r="1.9"/>
				</g>
				<g id="Group_335" transform="translate(37.316 17.386)">
					<circle id="Ellipse_196" class="st24" cx="1.9" cy="1.8" r="1.9"/>
				</g>
				<g id="Group_336" transform="translate(31.885 38.635)">
					<circle id="Ellipse_197" class="st20" cx="1.9" cy="1.8" r="1.9"/>
				</g>
				<g id="Group_337" transform="translate(37.316 38.317)">
					<circle id="Ellipse_198" class="st24" cx="1.9" cy="1.8" r="1.9"/>
				</g>
				<g id="Group_338" transform="translate(32.074 59.885)">
					<circle id="Ellipse_199" class="st20" cx="1.9" cy="1.8" r="1.9"/>
				</g>
				<g id="Group_339" transform="translate(37.505 59.566)">
					<circle id="Ellipse_200" class="st24" cx="1.9" cy="1.8" r="1.9"/>
				</g>
			</g>
			<g id="Group_341" transform="translate(969.257 2037.022)">
				<path id="Path_488" class="st3" d="M5.8,5.5c0,0.4-0.1,0.7-0.2,1C5.5,6.8,5.3,7,5,7.2c-0.3,0.2-0.6,0.4-1,0.5
					C3.6,7.8,3.2,7.9,2.7,7.9H0V0.2h2.3c0.4,0,0.8,0,1.3,0.1c0.3,0,0.5,0.1,0.8,0.3C4.6,0.6,4.8,0.8,5,1.1c0.1,0.3,0.2,0.5,0.2,0.8
					c0,0.3-0.1,0.7-0.3,0.9C4.7,3.1,4.4,3.3,4.1,3.4v0C4.6,3.6,5,3.8,5.4,4.2C5.7,4.5,5.8,5,5.8,5.5z M4.1,2c0-0.2,0-0.3-0.1-0.5
					C3.9,1.4,3.8,1.3,3.7,1.2C3.5,1.1,3.3,1.1,3.1,1.1C2.9,1,2.6,1,2.2,1H1v2.2h1.3c0.3,0,0.5,0,0.8,0c0.2,0,0.4-0.1,0.5-0.2
					C3.8,2.9,3.9,2.8,4,2.6C4.1,2.4,4.1,2.2,4.1,2L4.1,2z M4.7,5.5c0-0.3,0-0.5-0.1-0.7C4.5,4.6,4.3,4.4,4.1,4.3
					C3.9,4.2,3.7,4.2,3.5,4.2c-0.3,0-0.6,0-0.9,0H1V7h1.4c0.4,0,0.7,0,1.1-0.1c0.2,0,0.5-0.1,0.7-0.3c0.2-0.1,0.3-0.3,0.4-0.5
					C4.7,6,4.8,5.8,4.7,5.5L4.7,5.5z"/>
				<path id="Path_489" class="st3" d="M10.8,3.1L10.8,3.1c-0.2,0-0.3-0.1-0.5-0.1c-0.2,0-0.3,0-0.5,0C9.5,3,9.2,3.1,9,3.2
					C8.7,3.4,8.4,3.6,8.2,3.8v4.1h-1V2.1h1v0.9c0.3-0.3,0.7-0.5,1-0.7c0.3-0.1,0.6-0.2,0.9-0.2c0.1,0,0.2,0,0.4,0c0.1,0,0.2,0,0.3,0
					L10.8,3.1z"/>
				<path id="Path_490" class="st3" d="M16,7.9h-1V7.2c-0.1,0.1-0.2,0.1-0.3,0.2c-0.1,0.1-0.3,0.2-0.4,0.3c-0.2,0.1-0.4,0.2-0.6,0.2
					C13.5,8,13.2,8,13,8c-0.5,0-1-0.2-1.3-0.5c-0.4-0.3-0.6-0.8-0.5-1.3c0-0.4,0.1-0.7,0.3-1.1c0.2-0.3,0.5-0.5,0.8-0.6
					c0.4-0.2,0.8-0.3,1.3-0.3c0.5-0.1,1-0.1,1.6-0.1V3.9c0-0.2,0-0.4-0.1-0.5c-0.1-0.1-0.2-0.3-0.3-0.3c-0.2-0.1-0.3-0.1-0.5-0.2
					c-0.2,0-0.4,0-0.6,0c-0.3,0-0.6,0-0.9,0.1c-0.3,0.1-0.7,0.2-1,0.3h-0.1v-1c0.2-0.1,0.5-0.1,0.8-0.2c0.4-0.1,0.7-0.1,1.1-0.1
					c0.4,0,0.7,0,1.1,0.1c0.3,0.1,0.5,0.2,0.8,0.3c0.2,0.2,0.4,0.4,0.5,0.6C16,3.3,16,3.6,16,3.9L16,7.9z M15,6.4V4.8
					c-0.3,0-0.6,0-1,0.1c-0.3,0-0.6,0.1-1,0.1c-0.3,0.1-0.5,0.2-0.7,0.4c-0.4,0.4-0.3,1,0,1.4c0.3,0.2,0.6,0.3,0.9,0.3
					c0.3,0,0.6-0.1,0.9-0.2C14.5,6.8,14.8,6.6,15,6.4L15,6.4z"/>
				<path id="Path_491" class="st3" d="M18.9,1.1h-1.1v-1h1.1V1.1z M18.9,7.9h-1V2.1h1V7.9z"/>
				<path id="Path_492" class="st3" d="M25.6,7.9h-1V4.6c0-0.2,0-0.5,0-0.7c0-0.2-0.1-0.4-0.2-0.5C24.3,3.1,24.2,3,24.1,3
					c-0.2-0.1-0.4-0.1-0.6-0.1c-0.3,0-0.6,0.1-0.8,0.2c-0.3,0.1-0.6,0.3-0.8,0.5v4.3h-1V2.1h1v0.6c0.3-0.2,0.6-0.4,0.9-0.6
					c0.3-0.1,0.7-0.2,1-0.2c0.5,0,1.1,0.2,1.4,0.6c0.4,0.5,0.5,1,0.5,1.6L25.6,7.9z"/>
				<path id="Path_493" class="st3" d="M30.5,5h-3.2V4h3.2V5z"/>
				<path id="Path_494" class="st3" d="M38.3,7.3c-0.2,0.1-0.4,0.2-0.5,0.2c-0.2,0.1-0.4,0.2-0.6,0.2c-0.2,0.1-0.5,0.1-0.7,0.2
					C36.2,8,36,8,35.7,8c-0.5,0-1-0.1-1.5-0.2C33.7,7.6,33.3,7.4,33,7c-0.3-0.4-0.6-0.8-0.8-1.2C32,5.2,31.9,4.6,31.9,4
					c0-0.6,0.1-1.2,0.3-1.7C32.4,1.8,32.6,1.4,33,1c0.3-0.3,0.7-0.6,1.2-0.8c0.5-0.2,1-0.3,1.5-0.3c0.4,0,0.8,0.1,1.2,0.1
					c0.5,0.1,0.9,0.3,1.4,0.5v1.2h-0.1c-0.4-0.3-0.8-0.6-1.3-0.8c-0.4-0.2-0.9-0.2-1.3-0.2c-0.4,0-0.7,0.1-1.1,0.2
					c-0.3,0.1-0.6,0.3-0.8,0.6c-0.3,0.3-0.4,0.6-0.6,1C33.1,3.1,33,3.6,33,4c0,0.5,0.1,1,0.2,1.4c0.1,0.4,0.3,0.7,0.6,1
					c0.2,0.3,0.5,0.4,0.8,0.6c0.3,0.1,0.7,0.2,1,0.2c0.5,0,0.9-0.1,1.4-0.3c0.4-0.2,0.9-0.4,1.2-0.8h0.1L38.3,7.3z"/>
				<path id="Path_495" class="st3" d="M45.5,1c0.3,0.4,0.6,0.8,0.7,1.3c0.2,0.5,0.3,1.1,0.3,1.7c0,0.6-0.1,1.2-0.3,1.7
					c-0.1,0.5-0.4,0.9-0.7,1.3c-0.3,0.3-0.7,0.6-1.1,0.8c-1,0.4-2,0.4-3,0C41,7.6,40.6,7.3,40.3,7c-0.3-0.4-0.6-0.8-0.7-1.3
					c-0.3-1.1-0.3-2.3,0-3.4C39.7,1.8,40,1.4,40.3,1c0.3-0.3,0.7-0.6,1.1-0.8c0.5-0.2,1-0.3,1.5-0.3c0.5,0,1,0.1,1.5,0.3
					C44.8,0.4,45.2,0.7,45.5,1z M45.4,4c0.1-0.8-0.2-1.6-0.7-2.3c-0.9-1-2.5-1.1-3.5-0.2c-0.1,0.1-0.1,0.1-0.2,0.2
					c-0.5,0.7-0.7,1.5-0.7,2.3c-0.1,0.8,0.2,1.7,0.7,2.3c0.9,1,2.5,1.1,3.5,0.2c0.1,0,0.1-0.1,0.2-0.2C45.2,5.7,45.5,4.8,45.4,4
					L45.4,4z"/>
				<path id="Path_496" class="st3" d="M54.6,4c0,0.7-0.1,1.3-0.5,1.9c-0.3,0.5-0.7,1-1.2,1.3c-0.4,0.2-0.8,0.4-1.2,0.5
					c-0.6,0.1-1.1,0.2-1.7,0.1h-1.9V0.2H50c0.6,0,1.2,0,1.8,0.2c0.4,0.1,0.8,0.2,1.1,0.4c0.5,0.3,0.9,0.8,1.2,1.3
					C54.5,2.7,54.6,3.3,54.6,4z M53.5,4c0-0.5-0.1-1-0.3-1.5c-0.2-0.4-0.5-0.8-0.9-1c-0.3-0.2-0.6-0.3-1-0.4C50.9,1.1,50.5,1,50.1,1
					h-1V7h1c0.4,0,0.9,0,1.3-0.1c0.4-0.1,0.7-0.2,1-0.4c0.4-0.2,0.7-0.6,0.9-1C53.5,5,53.6,4.5,53.5,4z"/>
				<path id="Path_497" class="st3" d="M61.3,7.9h-5.1V0.2h5.1v0.9h-4v2.1h4v0.9h-4v2.9h4V7.9z"/>
			</g>
		</g>
	</g>
	<g id="Group_51" transform="translate(53.432 200.272)">
		<g id="Group_39" transform="translate(134.068 37.774)">
			<path id="Path_258" class="st25" d="M18.4,9c0.2-5.1-3.9-8.8-9-9S0.2,3.1,0,8.2c-0.2,5.1,3.7,9.4,8.8,9.6
				C13.9,18,18.2,14.1,18.4,9L18.4,9L18.4,9z"/>
		</g>
		<g id="Group_41" transform="translate(0 0)">
			<path id="Path_259" class="st26" d="M0.1,9.6l4.8,4.7c0.3,0.6,0.6,1.3,0.7,2C7,20.8,9.8,28.8,9.8,28.8c1.5,2.9,2.3-0.4,4.4-0.4
				l0.5,0c2.1,0.1,4.2-1.2,6.2-3.8c1.8-2.2,4.2-10.4,4.2-10.4l4.2-4.7C29.6,5.9,1.3,5.5,0.1,9.6z"/>
			<path id="Path_260" class="st26" d="M6.8,17.3l-0.3,7.9c0,9,7.7,16.4,17.2,16.4l111.5,0.8v2.9c0,4.4,3.5,8.1,7.9,8.3
				c4.6,0.4,8.6-3,9-7.6c0-0.2,0-0.3,0-0.5V34.6c0-4.5-3.8-7.7-8.5-7.7L29.6,25.5c-3.3,0.1-6-2.5-6.1-5.8v-2
				c0.1-4.4-3.3-8.1-7.6-8.4c-4.6-0.4-8.6,3-9,7.6C6.8,17,6.8,17.2,6.8,17.3z"/>
			<g id="Group_40" transform="translate(5.857 20.289)">
				<rect id="Rectangle_8" x="0" y="0" class="st1" width="18.6" height="2.6"/>
			</g>
		</g>
	</g>
</g>
</svg>
