<svg xmlns="http://www.w3.org/2000/svg" xmlns:xlink="http://www.w3.org/1999/xlink" width="292.836" height="246.61" viewBox="0 0 292.836 246.61">
  <defs>
    <clipPath id="clip-path">
      <path id="Path_479" data-name="Path 479" d="M1033.165,2062.382v17.3a1.37,1.37,0,0,1-.039.309c-.769,3.11-13.027,5.577-28.029,5.577s-27.259-2.467-28.029-5.577a1.374,1.374,0,0,1-.04-.309v-17.3Z" transform="translate(-977.028 -2062.382)" fill="none"/>
    </clipPath>
    <clipPath id="clip-path-2">
      <path id="Path_482" data-name="Path 482" d="M1033.165,2017.677v17.3a1.371,1.371,0,0,1-.039.309c-.769,3.11-13.027,5.578-28.029,5.578s-27.259-2.468-28.029-5.578a1.376,1.376,0,0,1-.04-.309v-17.3Z" transform="translate(-977.028 -2017.677)" fill="none"/>
    </clipPath>
    <clipPath id="clip-path-3">
      <path id="Path_485" data-name="Path 485" d="M1033.165,1972.392v17.295a1.374,1.374,0,0,1-.039.31c-.769,3.11-13.027,5.577-28.029,5.577s-27.259-2.467-28.029-5.577a1.378,1.378,0,0,1-.04-.31v-17.295Z" transform="translate(-977.028 -1972.392)" fill="none"/>
    </clipPath>
  </defs>
  <g id="Group_365" data-name="Group 365" transform="translate(-53.327 -118.39)">
    <g id="Group_343" data-name="Group 343" transform="translate(-4.221 -6.486)">
      <g id="Group_62" data-name="Group 62" transform="translate(53.535 124.877)">
        <g id="Group_184" data-name="Group 184" transform="translate(17.917)">
          <path id="Path_261" data-name="Path 261" d="M798.558,1720.71s-8.992.094-6.722-.952c1.575-.726,4.929-2.923,7.229-2.1,1.015.363,3.01,1.632,2.371,2.308S798.558,1720.71,798.558,1720.71Z" transform="translate(-791.468 -1650.41)" fill="#8c6151"/>
          <g id="Group_61" data-name="Group 61" transform="translate(5.734)">
            <g id="Group_53" data-name="Group 53" transform="translate(56.864)">
              <ellipse id="Ellipse_102" data-name="Ellipse 102" cx="12.795" cy="9.986" rx="12.795" ry="9.986" fill="#0097ff"/>
              <path id="Path_262" data-name="Path 262" d="M975.761,1619.767s1.69,3.575,9.168,3.991a13.179,13.179,0,0,1-4.237-5.358C978.5,1612.876,975.761,1619.767,975.761,1619.767Z" transform="translate(-957.927 -1602.949)" fill="#0097ff"/>
            </g>
            <g id="Group_54" data-name="Group 54" transform="translate(0 15.663)">
              <path id="Path_263" data-name="Path 263" d="M842.449,1643.154l4.124.216-.894,6-3.854,1.953-3.773-5.575Z" transform="translate(-822.249 -1631.224)" fill="#37393a"/>
              <path id="Path_264" data-name="Path 264" d="M866.611,1695.71c2.074,6.5,3.271,7.736,4.068,7.923a17,17,0,0,0,2.751.622c1.268.163,1.374-.456,3.842,2.946,1.081,3.409-1.468-.673-2.427.332,0,0-9.849-.243-10.432-3.44,0,0-1.664-7.528-1.638-8.964" transform="translate(-833.842 -1655.595)" fill="#fff"/>
              <rect id="Rectangle_9" data-name="Rectangle 9" width="3.505" height="5.172" transform="translate(21.55 62.989)" fill="#58666d"/>
              <path id="Path_265" data-name="Path 265" d="M814.513,1675.219l8.719,34.455H850.8l-.769-3.59H824.974S823.232,1674.936,814.513,1675.219Z" transform="translate(-811.213 -1646.258)" fill="#293260"/>
              <path id="Path_266" data-name="Path 266" d="M877.71,1724.942a24.576,24.576,0,0,1,1.31,7.121c0,3.461,2.967,15.779,3.237,17.089s4.12-.023,4.12-.023-1.95-18.392-2.487-20.156.463-8.627-3.211-7.438S877.71,1724.942,877.71,1724.942Z" transform="translate(-840.819 -1667.912)" fill="#2c2a29"/>
              <path id="Path_267" data-name="Path 267" d="M831.031,1668.193c.41-.619-7.023,10.252-7.208,12.591-3.356,6.329-5.1,8.584-7.868,11.131a.869.869,0,0,1-1.171,0l-2.9-2.606a.869.869,0,0,1,.032-1.325,70.451,70.451,0,0,0,7.772-12.65c3.443-13.424,4.388-18.055,11.26-19.19C830.949,1656.148,827.961,1672.827,831.031,1668.193Z" transform="translate(-811.594 -1637.317)" fill="#fff"/>
              <ellipse id="Ellipse_103" data-name="Ellipse 103" cx="3.061" cy="1.091" rx="3.061" ry="1.091" transform="translate(47.441 37.176)" fill="#8c6151"/>
              <path id="Path_268" data-name="Path 268" d="M889.192,1773.426s8.263.861,6.45,2.37-9.776.653-9.776.653l.839-3.023Z" transform="translate(-844.669 -1692.308)" fill="#818385"/>
              <path id="Path_269" data-name="Path 269" d="M855.912,1705.059c-.072.481,1.507,1.071,2.873,1.083,8.209.075,9.18.075,11.095,8.827,1.487,6.8,9.6,23.985,9.6,23.985l-1.776.616s-10.267-14.423-10.217-17.245-1.411-5.845-3.124-5.14c-1.177.485-17.547-4.478-19.643-9.685-.384-.955,8.344-2.379,10.4-2.953C855.587,1704.418,856.037,1704.211,855.912,1705.059Z" transform="translate(-825.369 -1659.955)" fill="#2c2a29"/>
              <path id="Path_270" data-name="Path 270" d="M896.925,1690.882l-2.308-.641-.192,1.25,1.7.224" transform="translate(-848.682 -1653.303)" fill="#8c6151"/>
              <path id="Path_271" data-name="Path 271" d="M922.044,1672.508H916.83l-7.437,10.893h5.3Z" transform="translate(-855.701 -1644.988)" fill="#2c2a29"/>
              <rect id="Rectangle_10" data-name="Rectangle 10" width="12.016" height="0.943" transform="translate(46.549 38.413)" fill="#2c2a29"/>
              <path id="Path_272" data-name="Path 272" d="M852.652,1628.921c.113,3.688-2.284,6.631-5.972,6.744a6.681,6.681,0,0,1-.407-13.356C849.961,1622.2,852.539,1625.233,852.652,1628.921Z" transform="translate(-823.067 -1621.448)" fill="#8c6151"/>
              <path id="Path_273" data-name="Path 273" d="M856.051,1633.3c1.108-7.142-5.61.158-5.61.158l-3.435,1.453s-.688,4.559,2.084,5.488S854.747,1641.7,856.051,1633.3Z" transform="translate(-826.413 -1625.132)" fill="#8c6151"/>
              <rect id="Rectangle_11" data-name="Rectangle 11" width="1.581" height="13.164" transform="translate(22.577 67.477)" fill="#58666d"/>
              <path id="Path_274" data-name="Path 274" d="M842.062,1770.6l-11.455,3.376V1775l11.519-2.65,10.963,2.351.256-.684Z" transform="translate(-818.759 -1690.98)" fill="#58666d"/>
              <circle id="Ellipse_104" data-name="Ellipse 104" cx="1.844" cy="1.844" r="1.844" transform="translate(9.684 82.751)" fill="#58666d"/>
              <circle id="Ellipse_105" data-name="Ellipse 105" cx="1.844" cy="1.844" r="1.844" transform="translate(33.149 82.751)" fill="#58666d"/>
              <path id="Path_275" data-name="Path 275" d="M909.393,1767.538" transform="translate(-855.701 -1689.547)" fill="#8c6151"/>
              <path id="Path_276" data-name="Path 276" d="M892.687,1698.093l-7.155,46.054h-1.411l5.341-46.054Z" transform="translate(-843.851 -1656.984)" fill="#58666d"/>
              <rect id="Rectangle_12" data-name="Rectangle 12" width="45.559" height="1.573" transform="translate(39.554 39.535)" fill="#58666d"/>
              <path id="Path_277" data-name="Path 277" d="M876.22,1671.873c-.3.622.314,2.266.017,2.89a1,1,0,0,1-.317.433.944.944,0,0,1-.714.01c-4.391-1.034-8.593,1.655-12.987,1.433a7.39,7.39,0,0,1-2.666-.584,1.852,1.852,0,0,1-.563-.349,1.479,1.479,0,0,1-.326-.867,51.589,51.589,0,0,0-1.757-7.408c-.027-.078-.052-.155-.081-.233,0,0-2.163-11.082-2.728-13.509l.741-1.321c-.148-.007.573-.038,1.584,1.438a10.457,10.457,0,0,1,1.143,2.542q1.92,5.573,3.578,11.244c.283.969.5,2.2,1.393,2.76.622.391,7.533,1.226,9.261,1.233C873.382,1671.591,874.258,1671.761,876.22,1671.873Z" transform="translate(-829.773 -1635.544)" fill="#fff"/>
              <path id="Path_278" data-name="Path 278" d="M855.633,1653.9" transform="translate(-830.493 -1636.263)" fill="#efefef"/>
              <path id="Path_279" data-name="Path 279" d="M844.84,1684.491s7.87-3.666,10.517-3.362-5.226-26.509-5.226-26.509l-.1-1.438-3.53-.815-1.507,5.788-1.313,26.431Z" transform="translate(-824.887 -1635.544)" fill="#8475b6"/>
              <path id="Path_280" data-name="Path 280" d="M840.327,1653.171a14.256,14.256,0,0,1-1.37.847c-.612.328,1,1.1.551,1.629a23.683,23.683,0,0,0-4.875,11.862,72.689,72.689,0,0,0,.3,20.088c.333,2.36.989,4.854,3.271,6.046a8.111,8.111,0,0,0,3.585.855q2.211.273,4.427.516c2.953.325,5.976.2,8.872.861,3.411.78,3.571.859,3.636-.357.189-3.52-1.516-6.122-.071-9.089,1.018-2.09-4.888-3.076-13.714-2.99-7.97.077-4.228-24.725-3.436-30Z" transform="translate(-820.381 -1635.921)" fill="#fff"/>
              <path id="Path_281" data-name="Path 281" d="M852.206,1645.352s-.984,2.641-.612,3.745-4.575-.234-4.575-.234l.114-5.208Z" transform="translate(-826.454 -1631.459)" fill="#8c6151"/>
              <path id="Path_282" data-name="Path 282" d="M840.664,1639.06c-2.207,3.721-3.592,1.062-6.067,2.952-2.2,1.677,2.229-14.666,2.752-16.791,1.786-7.255,10.821-4.531,13.481-.575,3.586,5.334-1.676,4.113-6.291,2.941-.539-.137-3.073.55-2.519,4.045A11.306,11.306,0,0,1,840.664,1639.06Z" transform="translate(-820.345 -1620.692)" fill="#421a0f"/>
              <path id="Path_283" data-name="Path 283" d="M906.169,1768.186l-.28,2.627a.84.84,0,0,0,.11.651.78.78,0,0,0,.663.17c1.762-.141,3.309-1.161,4.932-1.859a14.084,14.084,0,0,1,3.007-.912c.15-.028.329-.077.372-.223a.336.336,0,0,0-.014-.193c-.214-.676-1.083-.833-1.791-.872l-6.582-.36c-.405-.022-.95.065-.993.469" transform="translate(-853.919 -1689.394)" fill="#818385"/>
            </g>
            <g id="Group_55" data-name="Group 55" transform="translate(64.262 16.718)">
              <path id="Path_284" data-name="Path 284" d="M964.366,1772.233c.552-.662.267-2.774-.2-3.9,0,0-1.6,2.832-3.571,2.682a5.094,5.094,0,0,1-2.112-.533c-1.234.8-2.32,1.365-2.367,1.75C956.018,1773.08,963.814,1772.9,964.366,1772.233Z" transform="translate(-956.113 -1690.974)" fill="#262859"/>
              <path id="Path_285" data-name="Path 285" d="M964.421,1760.876a2.818,2.818,0,0,1-1.127-1.186c-.329.018-.659.034-.989.053a14.348,14.348,0,0,1-.3,2.709c-.807,3.251-5.784,4.88-5.885,5.727s7.695.661,8.246,0,.267-2.775-.2-3.9A9.917,9.917,0,0,1,964.421,1760.876Z" transform="translate(-956.115 -1686.922)" fill="#e0dfcd"/>
              <path id="Path_286" data-name="Path 286" d="M990.187,1766.053c-.469,2.23-4.645,4.49-5.487,5.115-1.285.954,6.853.463,8.614-.013s-.339-4.811-.339-4.811Z" transform="translate(-969.452 -1689.905)" fill="#e0dfcd"/>
              <path id="Path_287" data-name="Path 287" d="M1005.577,1641.94a.568.568,0,0,0-.293.011.46.46,0,0,0-.727.24,10.892,10.892,0,0,0-.12,3c.02,1.57-.737,2.282-2.217,2.661a.524.524,0,0,0-.305.836,5.268,5.268,0,0,0,3.767,1.816,2.994,2.994,0,0,0,2.78-2.149C1009.562,1645.819,1008.438,1642.582,1005.577,1641.94Z" transform="translate(-977.532 -1631.672)" fill="#752e1b"/>
              <path id="Path_288" data-name="Path 288" d="M1004.252,1626.7a.465.465,0,0,0-.679-.291,3.391,3.391,0,0,0-.292,5.907.521.521,0,0,0,.775-.236C1004.807,1630.321,1005.4,1628.38,1004.252,1626.7Z" transform="translate(-977.484 -1624.397)" fill="#752e1b"/>
              <path id="Path_289" data-name="Path 289" d="M989.467,1710.943l1.274-9.037-1.951,2.661-14.019,3.48a3.079,3.079,0,0,0-1.914,2.844c.061,3.881-7.777,21.137-9.383,24.62a.632.632,0,0,0,.542.873,18.25,18.25,0,0,0,4.028.147,2.383,2.383,0,0,0,2.056-1.5c2.151-5.887,8.229-19.723,9.037-21.8C979.277,1714.117,989.467,1710.943,989.467,1710.943Z" transform="translate(-959.539 -1659.827)" fill="#818385"/>
              <path id="Path_290" data-name="Path 290" d="M1005.624,1656.9a5.194,5.194,0,0,1,.827-2,7.964,7.964,0,0,1,6.116-3.387,5.987,5.987,0,0,1-1.567-3.6l-4.112,1.261s1.951,3.3-.461,4.711c-.632.369-1.916,2.294-3.354,4.571l.122,1.638A8.649,8.649,0,0,1,1005.624,1656.9Z" transform="translate(-978.131 -1634.513)" fill="#dbb38a"/>
              <path id="Path_291" data-name="Path 291" d="M986.821,1660.984c-2.2,3.482-4.81,7.9-5.566,7.755-1.192-.223-8.087-8.83-9.392-9s-6.314-2.23-6.413-1.662-.232,3.949,2.334,4.235,2.753-.51,3.753.566,6.158,12.4,9.612,11.156c1.955-.708,4.461-3.1,6.267-5.046" transform="translate(-960.471 -1639.227)" fill="#dbb38a"/>
              <path id="Path_292" data-name="Path 292" d="M1002.376,1628.785a5.951,5.951,0,0,1,3.717-5.459c8.848,1.135,7.468,7.676,6.2,11.175s-6.467,4.109-8.471,3.81c-1.525-.22-1.747-2.246-1.671-4.744-.288-.05-.972-.281-.97-.584a14.47,14.47,0,0,1,1.116-2.309C1002.337,1630.046,1002.37,1629.4,1002.376,1628.785Z" transform="translate(-977.243 -1622.981)" fill="#dbb38a"/>
              <path id="Path_293" data-name="Path 293" d="M1010.91,1705.039c-.026-.095-.1-.313-.2-.611-2.367.16-10.261.393-12.418.552-.148,1.192.665,3.665-2.632,4.254-3.584.64-10.34,2.492-11.01,4.034s2.606,21.483,4.981,24.682c1.662-.312,3.4-.029,3.839-.429-1.367-2.962.391-18.615-.94-19.43,0,0,.116,0,.33,0,2.351.014,16.488.056,18.649-4.1C1013.581,1710.014,1011.162,1705.984,1010.91,1705.039Z" transform="translate(-969.452 -1661.009)" fill="#818385"/>
              <path id="Path_294" data-name="Path 294" d="M1017.313,1682.452c-.17-1.286-3.588-23.673-4.3-25.467-.439-1.114-2.348-2.2-3.784-3.756.633-.638-.056-1.912-.932-1.4-1.268.739-5.38,2.907-4.326,2.932a2.506,2.506,0,0,1-.4.3c-1.186.7-5.287,6.838-7.469,9.735.523,1.161,2.017,3.927,3.31,4.892a29.309,29.309,0,0,1,3.707-3.061s-1.177.173.074,1.613c.8.914.626,10.078.31,12.238a2.393,2.393,0,0,0,2.222,2.74A78.784,78.784,0,0,0,1017.313,1682.452Z" transform="translate(-974.864 -1636.29)" fill="#0098ff"/>
              <path id="Path_295" data-name="Path 295" d="M1018.4,1636.97a15.444,15.444,0,0,0-1.512-3.113,11.167,11.167,0,0,1-.454-1.2c-.067-.893-.072-1.793-.152-2.676-.249-2.964-1.5-5.677-4.4-6.846a6.8,6.8,0,0,0-7.521,1.864.393.393,0,0,0-.117.354.075.075,0,0,0-.016.047,5.229,5.229,0,0,0,2.635,4.44c1.165.711,3.1,1.065,4.05,2.182.01.159.019.33.015.524a13.588,13.588,0,0,0,.17,2.337c.159.95,1.89,4.9-.222,4.711a.515.515,0,0,0-.09,1.025h.012c1.613.6,4.115.911,5.664-.119a1.6,1.6,0,0,0,1.208-.6A3.6,3.6,0,0,0,1018.4,1636.97Z" transform="translate(-978.67 -1622.678)" fill="#752e1b"/>
              <path id="Path_296" data-name="Path 296" d="M981.344,1718.824l2.5,10.683-.609,1.59S982.573,1727,981.344,1718.824Z" transform="translate(-967.943 -1667.76)" fill="#7d8689"/>
            </g>
            <g id="Group_58" data-name="Group 58" transform="translate(88.834 46.873)">
              <g id="Group_57" data-name="Group 57" transform="translate(0 26.595)">
                <g id="Group_56" data-name="Group 56">
                  <path id="Path_297" data-name="Path 297" d="M1006.274,1731.218h.029v-1.686h17.872v1.708l3.905,23.369h-1.363l-3.759-22.042a1.834,1.834,0,0,0-1.958-1.32h-11.561a1.826,1.826,0,0,0-1.958,1.32l-3.74,22.028h-1.363Z" transform="translate(-1002.378 -1729.531)" fill="#58666d"/>
                </g>
              </g>
              <path id="Rectangle_13" data-name="Rectangle 13" d="M0,0H0A2.68,2.68,0,0,1,2.68,2.68V24.918A2.68,2.68,0,0,1,0,27.6H0a0,0,0,0,1,0,0V0A0,0,0,0,1,0,0Z" transform="translate(21.797 27.598) rotate(180)" fill="#58666d"/>
            </g>
            <path id="Path_298" data-name="Path 298" d="M977.358,1696.911l7.155,46.054h1.411l-5.341-46.054Z" transform="translate(-900.217 -1640.767)" fill="#58666d"/>
            <g id="Group_60" data-name="Group 60" transform="translate(17.896 45.567)">
              <g id="Group_59" data-name="Group 59">
                <path id="Path_299" data-name="Path 299" d="M844.053,1677.02a.318.318,0,0,1,.139.028.151.151,0,0,1,.064.1c.033.135.084.521-.08.627s-.753-.006-.975-.02c-.728-.045-.313-.011-1.041-.055a.2.2,0,0,1-.111-.027.1.1,0,0,1-.032-.082q-.012-.295-.024-.59C843.062,1677.017,842.987,1676.971,844.053,1677.02Z" transform="translate(-841.993 -1676.997)" fill="#335166"/>
              </g>
            </g>
          </g>
        </g>
      </g>
      <g id="Group_316" data-name="Group 316" transform="translate(682.69 -1664.854)">
        <ellipse id="Ellipse_150" data-name="Ellipse 150" cx="10.979" cy="10.711" rx="10.979" ry="10.711" transform="translate(-624.5 1836.6)" fill="#fff"/>
        <path id="Path_476" data-name="Path 476" d="M-613.525,1836.626a10.636,10.636,0,0,1,7.495,3.07,10.682,10.682,0,0,1,3.211,7.482,10.64,10.64,0,0,1-3.012,7.633,10.6,10.6,0,0,1-7.5,3.248h-.169a10.634,10.634,0,0,1-7.495-3.07,10.676,10.676,0,0,1-3.211-7.482,10.642,10.642,0,0,1,3.012-7.634,10.606,10.606,0,0,1,7.5-3.248h.17m0-.911h-.183a11.61,11.61,0,0,0-11.432,11.807,11.646,11.646,0,0,0,11.637,11.448h.184a11.61,11.61,0,0,0,11.432-11.807,11.646,11.646,0,0,0-11.638-11.448Z" transform="translate(0 0)" fill="#0097ff"/>
        <ellipse id="Ellipse_151" data-name="Ellipse 151" cx="2.517" cy="2.575" rx="2.517" ry="2.575" transform="matrix(1, -0.028, 0.028, 1, -609.203, 1845.598)" fill="#0097ff"/>
        <ellipse id="Ellipse_152" data-name="Ellipse 152" cx="2.635" cy="2.696" rx="2.635" ry="2.696" transform="matrix(1, -0.028, 0.028, 1, -622.544, 1839.738)" fill="#0097ff"/>
        <ellipse id="Ellipse_153" data-name="Ellipse 153" cx="2.269" cy="2.321" rx="2.269" ry="2.321" transform="matrix(1, -0.028, 0.028, 1, -623.053, 1848.319)" fill="#0097ff"/>
        <ellipse id="Ellipse_154" data-name="Ellipse 154" cx="2.269" cy="2.321" rx="2.269" ry="2.321" transform="matrix(1, -0.028, 0.028, 1, -614.916, 1839.124)" fill="#0097ff"/>
        <ellipse id="Ellipse_155" data-name="Ellipse 155" cx="1.822" cy="1.864" rx="1.822" ry="1.864" transform="matrix(1, -0.028, 0.028, 1, -619.666, 1853.796)" fill="#0097ff"/>
        <ellipse id="Ellipse_156" data-name="Ellipse 156" cx="2.269" cy="2.321" rx="2.269" ry="2.321" transform="matrix(1, -0.028, 0.028, 1, -609.373, 1839.862)" fill="#0097ff"/>
        <ellipse id="Ellipse_157" data-name="Ellipse 157" cx="1.235" cy="1.264" rx="1.235" ry="1.264" transform="matrix(1, -0.028, 0.028, 1, -611.64, 1843.872)" fill="#0097ff"/>
        <ellipse id="Ellipse_158" data-name="Ellipse 158" cx="0.755" cy="0.773" rx="0.755" ry="0.773" transform="matrix(1, -0.028, 0.028, 1, -620.534, 1846.217)" fill="#0097ff"/>
        <ellipse id="Ellipse_159" data-name="Ellipse 159" cx="0.755" cy="0.773" rx="0.755" ry="0.773" transform="matrix(1, -0.028, 0.028, 1, -609.308, 1851.684)" fill="#0097ff"/>
        <ellipse id="Ellipse_160" data-name="Ellipse 160" cx="0.755" cy="0.773" rx="0.755" ry="0.773" transform="matrix(1, -0.028, 0.028, 1, -624.61, 1848.046)" fill="#0097ff"/>
        <ellipse id="Ellipse_161" data-name="Ellipse 161" cx="0.755" cy="0.773" rx="0.755" ry="0.773" transform="matrix(1, -0.028, 0.028, 1, -621.65, 1853.445)" fill="#0097ff"/>
        <ellipse id="Ellipse_162" data-name="Ellipse 162" cx="0.755" cy="0.773" rx="0.755" ry="0.773" transform="matrix(1, -0.028, 0.028, 1, -616.511, 1842.826)" fill="#0097ff"/>
        <ellipse id="Ellipse_163" data-name="Ellipse 163" cx="0.451" cy="0.462" rx="0.451" ry="0.462" transform="matrix(1, -0.028, 0.028, 1, -624.267, 1850.189)" fill="#0097ff"/>
        <ellipse id="Ellipse_164" data-name="Ellipse 164" cx="0.451" cy="0.462" rx="0.451" ry="0.462" transform="matrix(1, -0.028, 0.028, 1, -623.552, 1844.232)" fill="#0097ff"/>
        <ellipse id="Ellipse_165" data-name="Ellipse 165" cx="0.451" cy="0.462" rx="0.451" ry="0.462" transform="matrix(1, -0.028, 0.028, 1, -607.63, 1838.524)" fill="#0097ff"/>
        <ellipse id="Ellipse_166" data-name="Ellipse 166" cx="0.451" cy="0.462" rx="0.451" ry="0.462" transform="matrix(1, -0.028, 0.028, 1, -610.416, 1842.635)" fill="#0097ff"/>
        <ellipse id="Ellipse_167" data-name="Ellipse 167" cx="0.451" cy="0.462" rx="0.451" ry="0.462" transform="matrix(1, -0.028, 0.028, 1, -610.965, 1847.13)" fill="#0097ff"/>
        <ellipse id="Ellipse_168" data-name="Ellipse 168" cx="0.451" cy="0.462" rx="0.451" ry="0.462" transform="matrix(1, -0.028, 0.028, 1, -604.632, 1850.712)" fill="#0097ff"/>
        <ellipse id="Ellipse_169" data-name="Ellipse 169" cx="0.451" cy="0.462" rx="0.451" ry="0.462" transform="matrix(1, -0.028, 0.028, 1, -606.915, 1851.665)" fill="#0097ff"/>
        <ellipse id="Ellipse_170" data-name="Ellipse 170" cx="0.451" cy="0.462" rx="0.451" ry="0.462" transform="matrix(1, -0.028, 0.028, 1, -612.994, 1843.996)" fill="#0097ff"/>
        <ellipse id="Ellipse_171" data-name="Ellipse 171" cx="0.451" cy="0.462" rx="0.451" ry="0.462" transform="matrix(1, -0.028, 0.028, 1, -618.029, 1850.093)" fill="#0097ff"/>
        <ellipse id="Ellipse_172" data-name="Ellipse 172" cx="0.451" cy="0.462" rx="0.451" ry="0.462" transform="matrix(1, -0.028, 0.028, 1, -616.264, 1841.086)" fill="#0097ff"/>
        <ellipse id="Ellipse_173" data-name="Ellipse 173" cx="0.451" cy="0.462" rx="0.451" ry="0.462" transform="matrix(1, -0.028, 0.028, 1, -618.87, 1845.567)" fill="#0097ff"/>
        <ellipse id="Ellipse_174" data-name="Ellipse 174" cx="0.451" cy="0.462" rx="0.451" ry="0.462" transform="matrix(1, -0.028, 0.028, 1, -618.99, 1847.963)" fill="#0097ff"/>
        <ellipse id="Ellipse_175" data-name="Ellipse 175" cx="0.451" cy="0.462" rx="0.451" ry="0.462" transform="matrix(1, -0.028, 0.028, 1, -603.357, 1846.561)" fill="#0097ff"/>
        <ellipse id="Ellipse_176" data-name="Ellipse 176" cx="0.451" cy="0.462" rx="0.451" ry="0.462" transform="matrix(1, -0.028, 0.028, 1, -605.121, 1852.386)" fill="#0097ff"/>
        <ellipse id="Ellipse_177" data-name="Ellipse 177" cx="0.451" cy="0.462" rx="0.451" ry="0.462" transform="matrix(1, -0.028, 0.028, 1, -608.413, 1855.294)" fill="#0097ff"/>
        <ellipse id="Ellipse_178" data-name="Ellipse 178" cx="0.451" cy="0.462" rx="0.451" ry="0.462" transform="matrix(1, -0.028, 0.028, 1, -614.751, 1837.194)" fill="#0097ff"/>
        <ellipse id="Ellipse_179" data-name="Ellipse 179" cx="0.451" cy="0.462" rx="0.451" ry="0.462" transform="matrix(1, -0.028, 0.028, 1, -618.873, 1852.599)" fill="#0097ff"/>
        <ellipse id="Ellipse_180" data-name="Ellipse 180" cx="0.451" cy="0.462" rx="0.451" ry="0.462" transform="matrix(1, -0.028, 0.028, 1, -615.966, 1856.986)" fill="#0097ff"/>
        <ellipse id="Ellipse_181" data-name="Ellipse 181" cx="0.451" cy="0.462" rx="0.451" ry="0.462" transform="matrix(1, -0.028, 0.028, 1, -614.062, 1851.32)" fill="#0097ff"/>
        <ellipse id="Ellipse_182" data-name="Ellipse 182" cx="2.303" cy="2.356" rx="2.303" ry="2.356" transform="matrix(1, -0.028, 0.028, 1, -616.906, 1845.448)" fill="#0097ff"/>
        <ellipse id="Ellipse_183" data-name="Ellipse 183" cx="2.467" cy="2.524" rx="2.467" ry="2.524" transform="matrix(1, -0.028, 0.028, 1, -614.475, 1853.062)" fill="#0097ff"/>
        <ellipse id="Ellipse_184" data-name="Ellipse 184" cx="1.235" cy="1.264" rx="1.235" ry="1.264" transform="matrix(1, -0.028, 0.028, 1, -617.427, 1850.993)" fill="#0097ff"/>
        <ellipse id="Ellipse_185" data-name="Ellipse 185" cx="1.235" cy="1.264" rx="1.235" ry="1.264" transform="matrix(1, -0.028, 0.028, 1, -623.659, 1845.302)" fill="#0097ff"/>
        <ellipse id="Ellipse_186" data-name="Ellipse 186" cx="1.235" cy="1.264" rx="1.235" ry="1.264" transform="matrix(1, -0.028, 0.028, 1, -607.78, 1852.937)" fill="#0097ff"/>
        <ellipse id="Ellipse_187" data-name="Ellipse 187" cx="1.235" cy="1.264" rx="1.235" ry="1.264" transform="matrix(1, -0.028, 0.028, 1, -610.519, 1837.137)" fill="#0097ff"/>
        <ellipse id="Ellipse_188" data-name="Ellipse 188" cx="1.235" cy="1.264" rx="1.235" ry="1.264" transform="matrix(1, -0.028, 0.028, 1, -613.178, 1836.176)" fill="#0097ff"/>
        <ellipse id="Ellipse_189" data-name="Ellipse 189" cx="1.235" cy="1.264" rx="1.235" ry="1.264" transform="matrix(1, -0.028, 0.028, 1, -617.659, 1837.25)" fill="#0097ff"/>
        <ellipse id="Ellipse_190" data-name="Ellipse 190" cx="1.235" cy="1.264" rx="1.235" ry="1.264" transform="matrix(1, -0.028, 0.028, 1, -605.053, 1843.159)" fill="#0097ff"/>
        <ellipse id="Ellipse_191" data-name="Ellipse 191" cx="1.235" cy="1.264" rx="1.235" ry="1.264" transform="matrix(1, -0.028, 0.028, 1, -611.811, 1849.323)" fill="#0097ff"/>
      </g>
    </g>
    <g id="Group_344" data-name="Group 344">
      <g id="Group_16" data-name="Group 16" transform="translate(134.573 222.703) rotate(-26)">
        <g id="Group_3" data-name="Group 3" transform="translate(0 0)">
          <path id="Path_2" data-name="Path 2" d="M154.869,102.763l-2.77,7.1a3.125,3.125,0,0,1-3.455,1.937l-10.461-1.834a65.551,65.551,0,0,1-6.35,9.914l5.831,9.5a3.132,3.132,0,0,1-.538,3.925l-5.577,5.19a3.133,3.133,0,0,1-3.953.256l-8.648-6.209a66.183,66.183,0,0,1-10.009,6.184l1.135,11.092a3.133,3.133,0,0,1-2.185,3.3l-7.278,2.254a3.128,3.128,0,0,1-3.675-1.485l-5.089-9.327a65.938,65.938,0,0,1-11.708,1.218L76.35,156.256a3.133,3.133,0,0,1-3.4,2.029l-7.54-1.126a3.133,3.133,0,0,1-2.661-2.935l-.54-10.622a65.248,65.248,0,0,1-11.078-3.968l-7.961,7.794a3.123,3.123,0,0,1-3.943.354l-6.3-4.288A3.115,3.115,0,0,1,31.8,139.7l4.122-9.805a66.216,66.216,0,0,1-8.244-8.39L17.1,125.08a3.139,3.139,0,0,1-3.707-1.393l-3.817-6.6a3.132,3.132,0,0,1,.632-3.911l7.974-7.037A65.3,65.3,0,0,1,14.378,95L3.321,93.632A3.114,3.114,0,0,1,.589,90.771l-.58-7.6a3.124,3.124,0,0,1,2.267-3.244l10.243-2.892c.073-2.55,1.132-10.373,1.412-11.678L4.549,59.321a3.117,3.117,0,0,1-1.22-3.765l2.77-7.1a3.125,3.125,0,0,1,3.455-1.937l10.461,1.834a65.537,65.537,0,0,1,6.35-9.913l-5.831-9.5a3.132,3.132,0,0,1,.538-3.925l5.578-5.19a3.133,3.133,0,0,1,3.953-.255L39.25,25.78A66.152,66.152,0,0,1,49.259,19.6L48.125,8.505A3.133,3.133,0,0,1,50.31,5.2l7.278-2.254a3.129,3.129,0,0,1,3.675,1.485l5.089,9.326A65.936,65.936,0,0,1,78.06,12.541L81.847,2.063A3.133,3.133,0,0,1,85.25.034L92.79,1.16A3.134,3.134,0,0,1,95.451,4.1l.54,10.622a65.237,65.237,0,0,1,11.078,3.968l7.96-7.794a3.123,3.123,0,0,1,3.943-.354l6.3,4.288a3.115,3.115,0,0,1,1.125,3.793l-4.123,9.805a66.189,66.189,0,0,1,8.244,8.39l10.574-3.574a3.14,3.14,0,0,1,3.707,1.393l3.817,6.6a3.132,3.132,0,0,1-.632,3.911l-7.974,7.037a65.351,65.351,0,0,1,3.809,11.141l11.056,1.367a3.113,3.113,0,0,1,2.732,2.86l.58,7.6a3.124,3.124,0,0,1-2.267,3.244L145.68,81.287A64.74,64.74,0,0,1,144.987,89q-.3,2-.719,3.964L153.649,99A3.117,3.117,0,0,1,154.869,102.763Z" fill="#0097ff"/>
        </g>
      </g>
      <g id="Group_342" data-name="Group 342" transform="translate(-759.556 -1743.698)">
        <g id="Group_340" data-name="Group 340" transform="translate(972.863 1960.708)">
          <g id="Group_320" data-name="Group 320" transform="translate(0.039 47.699)">
            <g id="Group_319" data-name="Group 319" clip-path="url(#clip-path)">
              <g id="Group_317" data-name="Group 317">
                <path id="Path_477" data-name="Path 477" d="M1033.165,2062.382v17.3a1.37,1.37,0,0,1-.039.309c-.769,3.11-13.027,5.577-28.029,5.577s-27.259-2.467-28.029-5.577a1.374,1.374,0,0,1-.04-.309v-17.3Z" transform="translate(-977.028 -2062.382)" fill="#fff"/>
              </g>
              <g id="Group_318" data-name="Group 318" transform="translate(-5.044 5.908)">
                <path id="Path_478" data-name="Path 478" d="M998.394,2084.964c-10.354,0-28.26-.909-31.842-7a1.983,1.983,0,1,1,3.419-2.011c1.429,2.429,10.934,5.044,28.424,5.044a1.983,1.983,0,0,1,0,3.966Z" transform="translate(-966.277 -2074.976)" fill="#064d6d"/>
              </g>
            </g>
          </g>
          <g id="Group_321" data-name="Group 321" transform="translate(0.042 42.859)">
            <ellipse id="Ellipse_192" data-name="Ellipse 192" cx="28.068" cy="5.883" rx="28.068" ry="5.883" fill="#62b5e5"/>
          </g>
          <g id="Group_325" data-name="Group 325" transform="translate(0.039 26.726)">
            <g id="Group_324" data-name="Group 324" clip-path="url(#clip-path-2)">
              <g id="Group_322" data-name="Group 322">
                <path id="Path_480" data-name="Path 480" d="M1033.165,2017.677v17.3a1.371,1.371,0,0,1-.039.309c-.769,3.11-13.027,5.578-28.029,5.578s-27.259-2.468-28.029-5.578a1.376,1.376,0,0,1-.04-.309v-17.3Z" transform="translate(-977.028 -2017.677)" fill="#fff"/>
              </g>
              <g id="Group_323" data-name="Group 323" transform="translate(-5.044 5.908)">
                <path id="Path_481" data-name="Path 481" d="M998.394,2040.259c-10.354,0-28.26-.91-31.842-7a1.983,1.983,0,1,1,3.419-2.011c1.429,2.429,10.934,5.044,28.424,5.044a1.983,1.983,0,0,1,0,3.967Z" transform="translate(-966.277 -2030.27)" fill="#064d6d"/>
              </g>
            </g>
          </g>
          <g id="Group_326" data-name="Group 326" transform="translate(0.042 21.245)">
            <ellipse id="Ellipse_193" data-name="Ellipse 193" cx="28.068" cy="5.883" rx="28.068" ry="5.883" fill="#62b5e5"/>
          </g>
          <g id="Group_330" data-name="Group 330" transform="translate(0.039 5.481)">
            <g id="Group_329" data-name="Group 329" clip-path="url(#clip-path-3)">
              <g id="Group_327" data-name="Group 327">
                <path id="Path_483" data-name="Path 483" d="M1033.165,1972.392v17.295a1.374,1.374,0,0,1-.039.31c-.769,3.11-13.027,5.577-28.029,5.577s-27.259-2.467-28.029-5.577a1.378,1.378,0,0,1-.04-.31v-17.295Z" transform="translate(-977.028 -1972.392)" fill="#fff"/>
              </g>
              <g id="Group_328" data-name="Group 328" transform="translate(-5.044 5.908)">
                <path id="Path_484" data-name="Path 484" d="M998.394,1994.974c-10.354,0-28.26-.909-31.842-7a1.983,1.983,0,1,1,3.419-2.011c1.429,2.43,10.934,5.045,28.424,5.045a1.983,1.983,0,0,1,0,3.967Z" transform="translate(-966.277 -1984.985)" fill="#064d6d"/>
              </g>
            </g>
          </g>
          <g id="Group_331" data-name="Group 331" transform="translate(0 25.207)">
            <path id="Path_486" data-name="Path 486" d="M976.983,2014.747h-.039v-.309A1.4,1.4,0,0,0,976.983,2014.747Z" transform="translate(-976.944 -2014.438)" fill="#d9f1ff"/>
          </g>
          <g id="Group_332" data-name="Group 332" transform="translate(56.137 22.776)">
            <path id="Path_487" data-name="Path 487" d="M1096.645,2009.257v.31h-.039A1.372,1.372,0,0,0,1096.645,2009.257Z" transform="translate(-1096.606 -2009.257)" fill="#d9f1ff"/>
          </g>
          <g id="Group_333" data-name="Group 333" transform="translate(0.042)">
            <ellipse id="Ellipse_194" data-name="Ellipse 194" cx="28.068" cy="5.883" rx="28.068" ry="5.883" fill="#62b5e5"/>
          </g>
          <g id="Group_334" data-name="Group 334" transform="translate(31.885 17.704)">
            <circle id="Ellipse_195" data-name="Ellipse 195" cx="1.85" cy="1.85" r="1.85" fill="#62b5e5"/>
          </g>
          <g id="Group_335" data-name="Group 335" transform="translate(37.316 17.386)">
            <circle id="Ellipse_196" data-name="Ellipse 196" cx="1.85" cy="1.85" r="1.85" fill="#bbeaff"/>
          </g>
          <g id="Group_336" data-name="Group 336" transform="translate(31.885 38.635)">
            <circle id="Ellipse_197" data-name="Ellipse 197" cx="1.85" cy="1.85" r="1.85" fill="#62b5e5"/>
          </g>
          <g id="Group_337" data-name="Group 337" transform="translate(37.316 38.317)">
            <circle id="Ellipse_198" data-name="Ellipse 198" cx="1.85" cy="1.85" r="1.85" fill="#bbeaff"/>
          </g>
          <g id="Group_338" data-name="Group 338" transform="translate(32.074 59.885)">
            <circle id="Ellipse_199" data-name="Ellipse 199" cx="1.85" cy="1.85" r="1.85" fill="#62b5e5"/>
          </g>
          <g id="Group_339" data-name="Group 339" transform="translate(37.505 59.566)">
            <circle id="Ellipse_200" data-name="Ellipse 200" cx="1.85" cy="1.85" r="1.85" fill="#bbeaff"/>
          </g>
        </g>
        <g id="Group_341" data-name="Group 341" transform="translate(969.257 2037.022)">
          <path id="Path_488" data-name="Path 488" d="M975.064,2129.051a2.258,2.258,0,0,1-.217,1.014,2.052,2.052,0,0,1-.584.724,2.717,2.717,0,0,1-.954.486,5.046,5.046,0,0,1-1.321.145h-2.731v-7.7h2.281a9.4,9.4,0,0,1,1.261.062,2.561,2.561,0,0,1,.8.259,1.436,1.436,0,0,1,.615.572,1.716,1.716,0,0,1,.191.835,1.547,1.547,0,0,1-.279.934,2.008,2.008,0,0,1-.745.618v.041a2.123,2.123,0,0,1,1.231.686A1.966,1.966,0,0,1,975.064,2129.051Zm-1.722-3.47a1.071,1.071,0,0,0-.093-.47.725.725,0,0,0-.3-.311,1.454,1.454,0,0,0-.589-.173q-.348-.034-.859-.033h-1.221v2.223h1.324a4.715,4.715,0,0,0,.765-.049,1.426,1.426,0,0,0,.527-.2.856.856,0,0,0,.344-.4A1.528,1.528,0,0,0,973.342,2125.582Zm.657,3.511a1.646,1.646,0,0,0-.14-.74,1.123,1.123,0,0,0-.507-.465,1.7,1.7,0,0,0-.6-.168,7.961,7.961,0,0,0-.861-.039h-1.609v2.865h1.355a7.108,7.108,0,0,0,1.1-.07,1.734,1.734,0,0,0,.7-.256,1.307,1.307,0,0,0,.424-.46A1.444,1.444,0,0,0,974,2129.093Z" transform="translate(-969.257 -2123.56)" fill="#fff"/>
          <path id="Path_489" data-name="Path 489" d="M988.172,2128.88h-.052a3.427,3.427,0,0,0-.421-.075,4.324,4.324,0,0,0-.484-.023,2,2,0,0,0-.868.2,3.977,3.977,0,0,0-.807.515v4.1h-.972v-5.776h.972v.853a4.785,4.785,0,0,1,1.021-.659,2.229,2.229,0,0,1,.9-.194,3.651,3.651,0,0,1,.367.013c.076.008.19.025.341.049Z" transform="translate(-977.385 -2125.736)" fill="#fff"/>
          <path id="Path_490" data-name="Path 490" d="M997.82,2133.438h-.967v-.615q-.13.088-.349.246a2.512,2.512,0,0,1-.426.251,2.9,2.9,0,0,1-.559.2,3.027,3.027,0,0,1-.74.08,1.849,1.849,0,0,1-1.323-.517,1.741,1.741,0,0,1-.543-1.319,1.828,1.828,0,0,1,.281-1.062,1.88,1.88,0,0,1,.8-.638,4.333,4.333,0,0,1,1.267-.316q.74-.082,1.588-.124v-.15a1.153,1.153,0,0,0-.116-.548.849.849,0,0,0-.334-.342,1.389,1.389,0,0,0-.5-.16,4.309,4.309,0,0,0-.605-.041,4.125,4.125,0,0,0-.853.1,6.638,6.638,0,0,0-.972.292h-.052v-.988q.285-.077.822-.171a6.239,6.239,0,0,1,1.06-.093,4.953,4.953,0,0,1,1.063.1,2.069,2.069,0,0,1,.784.344,1.53,1.53,0,0,1,.5.615,2.275,2.275,0,0,1,.171.936Zm-.967-1.422v-1.608q-.445.026-1.047.077a5.494,5.494,0,0,0-.955.15,1.573,1.573,0,0,0-.677.37,1.067,1.067,0,0,0,.041,1.438,1.4,1.4,0,0,0,.915.251,2.175,2.175,0,0,0,.936-.2A4.235,4.235,0,0,0,996.853,2132.016Z" transform="translate(-981.815 -2125.578)" fill="#fff"/>
          <path id="Path_491" data-name="Path 491" d="M1008.348,2124.618h-1.1v-1.009h1.1Zm-.062,6.743h-.972v-5.776h.972Z" transform="translate(-989.427 -2123.5)" fill="#fff"/>
          <path id="Path_492" data-name="Path 492" d="M1018.387,2133.415h-.972v-3.289a5.673,5.673,0,0,0-.046-.747,1.361,1.361,0,0,0-.171-.546.786.786,0,0,0-.372-.323,1.593,1.593,0,0,0-.631-.106,2.009,2.009,0,0,0-.832.2,4.254,4.254,0,0,0-.833.5v4.313h-.972v-5.776h.972v.641a3.967,3.967,0,0,1,.941-.589,2.472,2.472,0,0,1,1-.212,1.79,1.79,0,0,1,1.427.563,2.4,2.4,0,0,1,.491,1.624Z" transform="translate(-992.774 -2125.555)" fill="#fff"/>
          <path id="Path_493" data-name="Path 493" d="M1030.717,2132.89h-3.227v-.936h3.227Z" transform="translate(-1000.171 -2127.931)" fill="#fff"/>
          <path id="Path_494" data-name="Path 494" d="M1043.708,2130.7q-.284.124-.515.233a5.072,5.072,0,0,1-.6.228,6.09,6.09,0,0,1-.685.168,4.411,4.411,0,0,1-.814.07,4.656,4.656,0,0,1-1.523-.236,3.1,3.1,0,0,1-1.192-.736,3.365,3.365,0,0,1-.776-1.249,5.079,5.079,0,0,1-.279-1.761,5.021,5.021,0,0,1,.269-1.7,3.444,3.444,0,0,1,.775-1.267,3.251,3.251,0,0,1,1.187-.765,4.318,4.318,0,0,1,1.544-.264,5.238,5.238,0,0,1,1.238.15,6.594,6.594,0,0,1,1.373.527v1.215h-.077a4.552,4.552,0,0,0-1.262-.776,3.669,3.669,0,0,0-1.339-.243,2.782,2.782,0,0,0-1.052.189,2.292,2.292,0,0,0-.835.587,2.683,2.683,0,0,0-.556.979,4.287,4.287,0,0,0-.2,1.367,3.969,3.969,0,0,0,.22,1.4,2.812,2.812,0,0,0,.566.952,2.25,2.25,0,0,0,.845.566,2.849,2.849,0,0,0,1.021.183,3.762,3.762,0,0,0,1.386-.253,3.981,3.981,0,0,0,1.21-.76h.072Z" transform="translate(-1005.391 -2123.401)" fill="#fff"/>
          <path id="Path_495" data-name="Path 495" d="M1059.263,2124.423a3.508,3.508,0,0,1,.722,1.267,5.36,5.36,0,0,1,.251,1.7,5.275,5.275,0,0,1-.256,1.7,3.481,3.481,0,0,1-.716,1.253,3.061,3.061,0,0,1-1.125.786,4.239,4.239,0,0,1-2.958-.005,3.046,3.046,0,0,1-1.13-.781,3.492,3.492,0,0,1-.716-1.256,5.885,5.885,0,0,1,0-3.39,3.589,3.589,0,0,1,.724-1.28,2.969,2.969,0,0,1,1.13-.776,3.935,3.935,0,0,1,1.471-.269,3.875,3.875,0,0,1,1.487.272A3.1,3.1,0,0,1,1059.263,2124.423Zm-.093,2.968a3.545,3.545,0,0,0-.672-2.314,2.486,2.486,0,0,0-3.68,0,3.553,3.553,0,0,0-.67,2.314,3.49,3.49,0,0,0,.682,2.319,2.483,2.483,0,0,0,3.659,0A3.5,3.5,0,0,0,1059.17,2127.391Z" transform="translate(-1013.758 -2123.378)" fill="#fff"/>
          <path id="Path_496" data-name="Path 496" d="M1078.294,2127.577a3.955,3.955,0,0,1-.457,1.9,3.417,3.417,0,0,1-1.218,1.324,3.8,3.8,0,0,1-1.176.47,8.162,8.162,0,0,1-1.709.145h-1.944v-7.7h1.923a7.818,7.818,0,0,1,1.792.163,3.875,3.875,0,0,1,1.125.448,3.437,3.437,0,0,1,1.225,1.308A4.035,4.035,0,0,1,1078.294,2127.577Zm-1.07-.015a3.35,3.35,0,0,0-.315-1.526,2.318,2.318,0,0,0-.942-.977,3.191,3.191,0,0,0-.967-.359,6.436,6.436,0,0,0-1.225-.1h-.962v5.941h.962a6.753,6.753,0,0,0,1.29-.108,2.9,2.9,0,0,0,1.01-.4,2.316,2.316,0,0,0,.861-.968A3.472,3.472,0,0,0,1077.224,2127.562Z" transform="translate(-1023.688 -2123.56)" fill="#fff"/>
          <path id="Path_497" data-name="Path 497" d="M1094.255,2131.419h-5.073v-7.7h5.073v.91h-4.049v2.11h4.049v.91h-4.049v2.859h4.049Z" transform="translate(-1032.921 -2123.56)" fill="#fff"/>
        </g>
      </g>
    </g>
    <g id="Group_51" data-name="Group 51" transform="translate(53.432 200.272)">
      <g id="Group_39" data-name="Group 39" transform="translate(134.068 37.774)">
        <path id="Path_258" data-name="Path 258" d="M867.065,1904.9c.219-5.078-3.945-8.754-9.023-8.973s-9.147,3.1-9.366,8.181a9.2,9.2,0,0,0,18.389.792Z" transform="translate(-848.667 -1895.914)" fill="#3d4a5d"/>
      </g>
      <g id="Group_41" data-name="Group 41" transform="translate(0 0)">
        <path id="Path_259" data-name="Path 259" d="M0,.792,3.1,6.771A6.911,6.911,0,0,1,3.15,8.9c-.078,4.673.132,13.138.132,13.138.545,3.223,2.344.306,4.29,1.025l.448.165c1.946.719,4.325.146,7.042-1.671C17.437,19.976,22.273,13,22.273,13l5.5-3.184C29.113,6.411,2.4-2.726,0,.792Z" transform="matrix(0.951, -0.309, 0.309, 0.951, -0.105, 8.844)" fill="#bcc1c4"/>
        <path id="Path_260" data-name="Path 260" d="M635.64,1817.8l-.295,7.947c0,9.047,7.719,16.382,17.24,16.382l111.478.848v2.894a8.438,8.438,0,0,0,7.939,8.341,8.334,8.334,0,0,0,9.07-8.064v-11.1c0-4.463-3.808-7.746-8.5-7.746l-114.112-1.338a5.955,5.955,0,0,1-6.1-5.8v-2.023a8.247,8.247,0,0,0-7.644-8.41A8.334,8.334,0,0,0,635.64,1817.8Z" transform="translate(-628.857 -1800.469)" fill="#bcc1c4"/>
        <g id="Group_40" data-name="Group 40" transform="translate(5.857 20.289)">
          <rect id="Rectangle_8" data-name="Rectangle 8" width="18.56" height="2.635" transform="translate(0 0)" fill="#0097ff"/>
        </g>
      </g>
    </g>
  </g>
</svg>
