<svg id="a360f924-5e88-4c73-bc13-4bdcd0790649" data-name="step2" xmlns="http://www.w3.org/2000/svg" xmlns:xlink="http://www.w3.org/1999/xlink" viewBox="0 0 177.82 243.71"><defs><style>.f4cd0863-ee11-4bf3-baec-67768682520a,.fa5e082a-87d4-47eb-a548-5ae60a795110{fill:none;}.b0130b5c-3f3c-4e71-85cf-80e7b14e632e{clip-path:url(#fd1ab370-36a1-48b6-81eb-11a7fd2147d9);}.be63ae1d-c47e-4e97-b450-7b6aeecbd055{fill:#fff;}.fa5e082a-87d4-47eb-a548-5ae60a795110{stroke:#004c6f;stroke-linecap:round;stroke-miterlimit:10;stroke-width:11.53px;}.a16b06b4-e3f0-4a0f-ab3b-f1613eb738fc{fill:#00b5e7;}.a1a141c3-8fd2-4eeb-a760-ee4da6ccce8e{clip-path:url(#f2d251ba-8968-473e-ab4f-72e249ee6ad7);}.a853cd05-7878-497d-ae0d-0e5f8a344429{clip-path:url(#e3ef1ee8-9863-4b0f-88bb-5759aa3ebc0f);}.abb93c15-3e6f-4163-b7ea-551400098814{fill:#cff0ff;}.b6c83c8f-1ccc-4cb1-8a0b-148df650934e{fill:#a4eaff;}</style><clipPath id="fd1ab370-36a1-48b6-81eb-11a7fd2147d9" transform="translate(-226.56 -344.47)"><path id="bf16cda6-678e-4c91-9a5a-4310f7c51e3e" data-name="SVGID" class="f4cd0863-ee11-4bf3-baec-67768682520a" d="M404.38,483.1v50.26a4,4,0,0,1-.12.9c-2.24,9-37.86,16.21-81.46,16.21s-79.23-7.17-81.46-16.21a4,4,0,0,1-.12-.9V483.1Z"/></clipPath><clipPath id="f2d251ba-8968-473e-ab4f-72e249ee6ad7" transform="translate(-226.56 -344.47)"><path id="f44f8f95-a5e8-45c6-b8a2-f9ea78cf1d3a" data-name="SVGID" class="f4cd0863-ee11-4bf3-baec-67768682520a" d="M404.38,422.14v50.27a4,4,0,0,1-.12.9c-2.24,9-37.86,16.21-81.46,16.21s-79.23-7.17-81.46-16.21a4,4,0,0,1-.12-.9V422.14Z"/></clipPath><clipPath id="e3ef1ee8-9863-4b0f-88bb-5759aa3ebc0f" transform="translate(-226.56 -344.47)"><path id="fe66260a-cd26-4853-bf06-4dcb80335646" data-name="SVGID" class="f4cd0863-ee11-4bf3-baec-67768682520a" d="M404.38,360.4v50.26a4,4,0,0,1-.12.9c-2.24,9-37.86,16.21-81.46,16.21s-79.23-7.17-81.46-16.21a4,4,0,0,1-.12-.9V360.4Z"/></clipPath></defs><title>server</title><g class="b0130b5c-3f3c-4e71-85cf-80e7b14e632e"><path class="be63ae1d-c47e-4e97-b450-7b6aeecbd055" d="M404.38,483.1v50.26a4,4,0,0,1-.12.9c-2.24,9-37.86,16.21-81.46,16.21s-79.23-7.17-81.46-16.21a4,4,0,0,1-.12-.9V483.1Z" transform="translate(-226.56 -344.47)"/><path class="fa5e082a-87d4-47eb-a548-5ae60a795110" d="M319.9,523.53c-45,0-80.83-6-87.57-17.5" transform="translate(-226.56 -344.47)"/></g><ellipse class="a16b06b4-e3f0-4a0f-ab3b-f1613eb738fc" cx="96.24" cy="141.66" rx="81.58" ry="17.1"/><g class="a1a141c3-8fd2-4eeb-a760-ee4da6ccce8e"><path class="be63ae1d-c47e-4e97-b450-7b6aeecbd055" d="M404.38,422.14v50.27a4,4,0,0,1-.12.9c-2.24,9-37.86,16.21-81.46,16.21s-79.23-7.17-81.46-16.21a4,4,0,0,1-.12-.9V422.14Z" transform="translate(-226.56 -344.47)"/><path class="fa5e082a-87d4-47eb-a548-5ae60a795110" d="M319.9,462.58c-45,0-80.83-6.05-87.57-17.5" transform="translate(-226.56 -344.47)"/></g><ellipse class="a16b06b4-e3f0-4a0f-ab3b-f1613eb738fc" cx="96.24" cy="78.84" rx="81.58" ry="17.1"/><g class="a853cd05-7878-497d-ae0d-0e5f8a344429"><path class="be63ae1d-c47e-4e97-b450-7b6aeecbd055" d="M404.38,360.4v50.26a4,4,0,0,1-.12.9c-2.24,9-37.86,16.21-81.46,16.21s-79.23-7.17-81.46-16.21a4,4,0,0,1-.12-.9V360.4Z" transform="translate(-226.56 -344.47)"/><path class="fa5e082a-87d4-47eb-a548-5ae60a795110" d="M319.9,400.84c-45,0-80.83-6-87.57-17.51" transform="translate(-226.56 -344.47)"/></g><path class="abb93c15-3e6f-4163-b7ea-551400098814" d="M241.22,418.63h-.11v-.9A4,4,0,0,0,241.22,418.63Z" transform="translate(-226.56 -344.47)"/><path class="abb93c15-3e6f-4163-b7ea-551400098814" d="M404.38,410.66v.9h-.12A4,4,0,0,0,404.38,410.66Z" transform="translate(-226.56 -344.47)"/><ellipse class="a16b06b4-e3f0-4a0f-ab3b-f1613eb738fc" cx="96.24" cy="17.1" rx="81.58" ry="17.1"/><circle class="a16b06b4-e3f0-4a0f-ab3b-f1613eb738fc" cx="112.59" cy="56.83" r="5.38"/><circle class="b6c83c8f-1ccc-4cb1-8a0b-148df650934e" cx="128.37" cy="55.9" r="5.38"/><circle class="a16b06b4-e3f0-4a0f-ab3b-f1613eb738fc" cx="112.59" cy="117.66" r="5.38"/><circle class="b6c83c8f-1ccc-4cb1-8a0b-148df650934e" cx="128.37" cy="116.74" r="5.38"/><circle class="a16b06b4-e3f0-4a0f-ab3b-f1613eb738fc" cx="113.14" cy="179.42" r="5.38"/><circle class="b6c83c8f-1ccc-4cb1-8a0b-148df650934e" cx="128.92" cy="178.5" r="5.38"/><path class="be63ae1d-c47e-4e97-b450-7b6aeecbd055" d="M244.55,565.71l1.52,0c.55,0,1.08,0,1.62.09a12.61,12.61,0,0,1,1.49.23,3.89,3.89,0,0,1,1.19.46,5.88,5.88,0,0,1,1.83,1.79,5,5,0,0,1,.75,2.8,5.31,5.31,0,0,1-.85,3,5,5,0,0,1-2.41,1.89v.06a5.11,5.11,0,0,1,3.11,1.85,5.58,5.58,0,0,1,1.07,3.45,6.51,6.51,0,0,1-.43,2.34,5.72,5.72,0,0,1-1.27,2,6.43,6.43,0,0,1-2.1,1.42,7.17,7.17,0,0,1-2.87.54H236.58v-22Zm.8,9.45a5.7,5.7,0,0,0,3.58-.88,3.16,3.16,0,0,0,1.1-2.63,3.92,3.92,0,0,0-.37-1.84,2.71,2.71,0,0,0-1-1,3.9,3.9,0,0,0-1.49-.48,14.75,14.75,0,0,0-1.8-.11H239.5v7Zm1.48,10.07a4.2,4.2,0,0,0,3-1.05,3.81,3.81,0,0,0,1.09-2.89,3.57,3.57,0,0,0-.4-1.79,3.17,3.17,0,0,0-1.06-1.12,4.52,4.52,0,0,0-1.53-.59,9.43,9.43,0,0,0-1.78-.17H239.5v7.61Z" transform="translate(-226.56 -344.47)"/><path class="be63ae1d-c47e-4e97-b450-7b6aeecbd055" d="M259.6,571.78v3.35h.06a7.12,7.12,0,0,1,2.34-2.86,5.84,5.84,0,0,1,3.51-.86v2.77a7.35,7.35,0,0,0-2.68.43,4.34,4.34,0,0,0-1.79,1.26,5.15,5.15,0,0,0-1,2,10.6,10.6,0,0,0-.31,2.72v7.08h-2.61V571.78Z" transform="translate(-226.56 -344.47)"/><path class="be63ae1d-c47e-4e97-b450-7b6aeecbd055" d="M281.57,587.63a3.74,3.74,0,0,1-1.87.4,2.26,2.26,0,0,1-1.62-.57,2.47,2.47,0,0,1-.6-1.86,6.25,6.25,0,0,1-2.51,1.86,8.24,8.24,0,0,1-3.09.57,8.05,8.05,0,0,1-2.05-.25,4.8,4.8,0,0,1-1.68-.77,3.7,3.7,0,0,1-1.12-1.37,4.54,4.54,0,0,1-.41-2,4.62,4.62,0,0,1,.46-2.21,4,4,0,0,1,1.21-1.4,5.76,5.76,0,0,1,1.73-.82c.64-.18,1.31-.34,2-.46s1.4-.25,2.05-.32a11.71,11.71,0,0,0,1.71-.31,2.92,2.92,0,0,0,1.17-.58,1.48,1.48,0,0,0,.43-1.13A2.56,2.56,0,0,0,277,575a2.12,2.12,0,0,0-.83-.8,3.12,3.12,0,0,0-1.14-.37,8.75,8.75,0,0,0-1.24-.1,5.54,5.54,0,0,0-2.77.64,2.66,2.66,0,0,0-1.2,2.38h-2.62a5.64,5.64,0,0,1,.62-2.49,4.69,4.69,0,0,1,1.47-1.65,6.37,6.37,0,0,1,2.11-.91,11.44,11.44,0,0,1,2.54-.27,15.29,15.29,0,0,1,2.14.15,5.55,5.55,0,0,1,1.93.63,3.69,3.69,0,0,1,1.38,1.34,4.25,4.25,0,0,1,.52,2.24v8.17a6.21,6.21,0,0,0,.11,1.35c.07.29.31.43.72.43a3.17,3.17,0,0,0,.8-.12Zm-4.24-8.16a3.31,3.31,0,0,1-1.3.54c-.53.11-1.09.2-1.67.27s-1.18.16-1.77.25a6.55,6.55,0,0,0-1.6.44,3,3,0,0,0-1.16.87,2.44,2.44,0,0,0-.44,1.55,2.07,2.07,0,0,0,.26,1.09,2.31,2.31,0,0,0,.67.72,3.14,3.14,0,0,0,1,.4,5.52,5.52,0,0,0,1.17.12,6.35,6.35,0,0,0,2.22-.35,4.68,4.68,0,0,0,1.51-.89,3.47,3.47,0,0,0,.86-1.17,3,3,0,0,0,.28-1.17Z" transform="translate(-226.56 -344.47)"/><path class="be63ae1d-c47e-4e97-b450-7b6aeecbd055" d="M284.16,568.91v-3.2h2.62v3.2Zm2.62,2.87v15.91h-2.62V571.78Z" transform="translate(-226.56 -344.47)"/><path class="be63ae1d-c47e-4e97-b450-7b6aeecbd055" d="M293.3,571.78v2.52h.06a5.5,5.5,0,0,1,5.17-2.89,6.87,6.87,0,0,1,2.62.43,4.23,4.23,0,0,1,1.69,1.2,4.51,4.51,0,0,1,.91,1.83,10.06,10.06,0,0,1,.26,2.35v10.47h-2.62V576.92a3.13,3.13,0,0,0-.86-2.34,3.17,3.17,0,0,0-2.37-.87,5.48,5.48,0,0,0-2.08.37,4,4,0,0,0-1.46,1,4.39,4.39,0,0,0-.87,1.59,6.23,6.23,0,0,0-.3,2v9h-2.61V571.78Z" transform="translate(-226.56 -344.47)"/><path class="be63ae1d-c47e-4e97-b450-7b6aeecbd055" d="M316.41,577.9v2.46h-8.89V577.9Z" transform="translate(-226.56 -344.47)"/><path class="be63ae1d-c47e-4e97-b450-7b6aeecbd055" d="M333.63,568.82a6.75,6.75,0,0,0-4-1.17,7.17,7.17,0,0,0-3.37.74,6.54,6.54,0,0,0-2.31,2,8.75,8.75,0,0,0-1.34,2.84,12.67,12.67,0,0,0-.43,3.33,14.09,14.09,0,0,0,.43,3.55A8.75,8.75,0,0,0,324,583a6.65,6.65,0,0,0,2.32,2,7.31,7.31,0,0,0,3.39.74,6.51,6.51,0,0,0,2.57-.48,5.81,5.81,0,0,0,1.94-1.32,6.27,6.27,0,0,0,1.28-2,8.57,8.57,0,0,0,.55-2.52h2.92a9.94,9.94,0,0,1-2.86,6.46,9.26,9.26,0,0,1-6.65,2.31,10.5,10.5,0,0,1-4.46-.88,8.77,8.77,0,0,1-3.17-2.41,10.46,10.46,0,0,1-1.89-3.63,15.59,15.59,0,0,1-.63-4.5,14.73,14.73,0,0,1,.67-4.51,11,11,0,0,1,2-3.67,9.16,9.16,0,0,1,3.26-2.48,10.45,10.45,0,0,1,4.48-.91,11.17,11.17,0,0,1,3.26.46,8.68,8.68,0,0,1,2.74,1.36,7.41,7.41,0,0,1,2,2.23,8.13,8.13,0,0,1,1.05,3.09H335.8A5.4,5.4,0,0,0,333.63,568.82Z" transform="translate(-226.56 -344.47)"/><path class="be63ae1d-c47e-4e97-b450-7b6aeecbd055" d="M342,572.38a10.9,10.9,0,0,1,2-3.68,9.65,9.65,0,0,1,3.3-2.56,11.54,11.54,0,0,1,9.17,0,9.71,9.71,0,0,1,3.29,2.56,11.1,11.1,0,0,1,2,3.68,14.5,14.5,0,0,1,0,8.65,11,11,0,0,1-2,3.67,9.42,9.42,0,0,1-3.29,2.54,11.65,11.65,0,0,1-9.17,0,9.36,9.36,0,0,1-3.3-2.54,10.85,10.85,0,0,1-2-3.67,14.29,14.29,0,0,1,0-8.65Zm2.69,7.6a9,9,0,0,0,1.35,2.91,7,7,0,0,0,2.37,2.07,7.93,7.93,0,0,0,6.9,0,7,7,0,0,0,2.37-2.07A9,9,0,0,0,359,580a12.72,12.72,0,0,0,0-6.56,9.23,9.23,0,0,0-1.35-2.91,7,7,0,0,0-2.37-2.07,7.93,7.93,0,0,0-6.9,0,7,7,0,0,0-2.37,2.07,9.23,9.23,0,0,0-1.35,2.91,12.72,12.72,0,0,0,0,6.56Z" transform="translate(-226.56 -344.47)"/><path class="be63ae1d-c47e-4e97-b450-7b6aeecbd055" d="M373.51,565.71q5.07,0,7.82,2.59c1.82,1.72,2.74,4.35,2.74,7.88a17.86,17.86,0,0,1-.62,4.91,9.27,9.27,0,0,1-1.91,3.6,8.29,8.29,0,0,1-3.29,2.23,13.3,13.3,0,0,1-4.74.77H366v-22Zm.24,19.52c.33,0,.74,0,1.24-.08a6.5,6.5,0,0,0,1.56-.37,7.19,7.19,0,0,0,1.65-.85,5.51,5.51,0,0,0,1.46-1.5,8.69,8.69,0,0,0,1.07-2.39,12.82,12.82,0,0,0,.41-3.46,15.1,15.1,0,0,0-.38-3.53,6.7,6.7,0,0,0-1.27-2.64,5.47,5.47,0,0,0-2.26-1.67,9.17,9.17,0,0,0-3.41-.57h-4.93v17.06Z" transform="translate(-226.56 -344.47)"/><path class="be63ae1d-c47e-4e97-b450-7b6aeecbd055" d="M402.81,565.71v2.46H390.56v7H402v2.46H390.56v7.61H402.9v2.46H387.63v-22Z" transform="translate(-226.56 -344.47)"/></svg>