<svg id="ecrh73o0jzg1" xmlns="http://www.w3.org/2000/svg" xmlns:xlink="http://www.w3.org/1999/xlink" viewBox="0 0 177.820000 243.710000" shape-rendering="geometricPrecision" text-rendering="geometricPrecision"><g id="ecrh73o0jzg2" clip-path="url(#ecrh73o0jzg6)"><g id="ecrh73o0jzg3"><path id="ecrh73o0jzg4" d="M404.380000,483.100000L404.380000,533.360000C404.374289,533.663582,404.334029,533.965527,404.260000,534.260000C402.020000,543.260000,366.400000,550.470000,322.800000,550.470000C279.200000,550.470000,243.570000,543.300000,241.340000,534.260000C241.265971,533.965527,241.225711,533.663582,241.220000,533.360000L241.220000,483.100000Z" transform="matrix(1 0 0 1 -226.56000000000000 -344.47000000000003)" fill="rgb(255,255,255)" stroke="none" stroke-width="1"/><path id="ecrh73o0jzg5" d="M319.900000,523.530000C274.900000,523.530000,239.070000,517.530000,232.330000,506.030000" transform="matrix(1 0 0 1 -226.56000000000000 -344.47000000000003)" fill="none" stroke="rgb(0,76,111)" stroke-width="11.530000" stroke-linecap="round" stroke-miterlimit="10"/></g><clipPath id="ecrh73o0jzg6" transform="matrix(1 0 0 1 -226.56000000000000 -344.47000000000003)"><path id="ecrh73o0jzg7" d="M404.380000,483.100000L404.380000,533.360000C404.374289,533.663582,404.334029,533.965527,404.260000,534.260000C402.020000,543.260000,366.400000,550.470000,322.800000,550.470000C279.200000,550.470000,243.570000,543.300000,241.340000,534.260000C241.265971,533.965527,241.225711,533.663582,241.220000,533.360000L241.220000,483.100000Z" fill="none" stroke="none" stroke-width="1"/></clipPath></g><ellipse id="ecrh73o0jzg8" rx="81.580000" ry="17.100000" transform="matrix(1 0 0 1 96.23999999999999 141.66000000000000)" fill="rgb(0,181,231)" stroke="none" stroke-width="1"/><g id="ecrh73o0jzg9" clip-path="url(#ecrh73o0jzg13)"><g id="ecrh73o0jzg10"><path id="ecrh73o0jzg11" d="M404.380000,422.140000L404.380000,472.410000C404.374289,472.713582,404.334029,473.015527,404.260000,473.310000C402.020000,482.310000,366.400000,489.520000,322.800000,489.520000C279.200000,489.520000,243.570000,482.350000,241.340000,473.310000C241.265971,473.015527,241.225711,472.713582,241.220000,472.410000L241.220000,422.140000Z" transform="matrix(1 0 0 1 -226.56000000000000 -344.47000000000003)" fill="rgb(255,255,255)" stroke="none" stroke-width="1"/><path id="ecrh73o0jzg12" d="M319.900000,462.580000C274.900000,462.580000,239.070000,456.530000,232.330000,445.080000" transform="matrix(1 0 0 1 -226.56000000000000 -344.47000000000003)" fill="none" stroke="rgb(0,76,111)" stroke-width="11.530000" stroke-linecap="round" stroke-miterlimit="10"/></g><clipPath id="ecrh73o0jzg13" transform="matrix(1 0 0 1 -226.56000000000000 -344.47000000000003)"><path id="ecrh73o0jzg14" d="M404.380000,422.140000L404.380000,472.410000C404.374289,472.713582,404.334029,473.015527,404.260000,473.310000C402.020000,482.310000,366.400000,489.520000,322.800000,489.520000C279.200000,489.520000,243.570000,482.350000,241.340000,473.310000C241.265971,473.015527,241.225711,472.713582,241.220000,472.410000L241.220000,422.140000Z" fill="none" stroke="none" stroke-width="1"/></clipPath></g><ellipse id="ecrh73o0jzg15" rx="81.580000" ry="17.100000" transform="matrix(1 0 0 1 96.23999999999999 78.84000000000000)" fill="rgb(0,181,231)" stroke="none" stroke-width="1"/><g id="ecrh73o0jzg16" clip-path="url(#ecrh73o0jzg20)"><g id="ecrh73o0jzg17"><path id="ecrh73o0jzg18" d="M404.380000,360.400000L404.380000,410.660000C404.374289,410.963582,404.334029,411.265527,404.260000,411.560000C402.020000,420.560000,366.400000,427.770000,322.800000,427.770000C279.200000,427.770000,243.570000,420.600000,241.340000,411.560000C241.265971,411.265527,241.225711,410.963582,241.220000,410.660000L241.220000,360.400000Z" transform="matrix(1 0 0 1 -226.56000000000000 -344.47000000000003)" fill="rgb(255,255,255)" stroke="none" stroke-width="1"/><path id="ecrh73o0jzg19" d="M319.900000,400.840000C274.900000,400.840000,239.070000,394.840000,232.330000,383.330000" transform="matrix(1 0 0 1 -226.56000000000000 -344.47000000000003)" fill="none" stroke="rgb(0,76,111)" stroke-width="11.530000" stroke-linecap="round" stroke-miterlimit="10"/></g><clipPath id="ecrh73o0jzg20" transform="matrix(1 0 0 1 -226.56000000000000 -344.47000000000003)"><path id="ecrh73o0jzg21" d="M404.380000,360.400000L404.380000,410.660000C404.374289,410.963582,404.334029,411.265527,404.260000,411.560000C402.020000,420.560000,366.400000,427.770000,322.800000,427.770000C279.200000,427.770000,243.570000,420.600000,241.340000,411.560000C241.265971,411.265527,241.225711,410.963582,241.220000,410.660000L241.220000,360.400000Z" fill="none" stroke="none" stroke-width="1"/></clipPath></g><path id="ecrh73o0jzg22" d="M241.220000,418.630000L241.110000,418.630000L241.110000,417.730000C241.112437,418.033199,241.149341,418.335139,241.220000,418.630000Z" transform="matrix(1 0 0 1 -226.56000000000000 -344.47000000000003)" fill="rgb(207,240,255)" stroke="none" stroke-width="1"/><path id="ecrh73o0jzg23" d="M404.380000,410.660000L404.380000,411.560000L404.260000,411.560000C404.334029,411.265527,404.374289,410.963582,404.380000,410.660000Z" transform="matrix(1 0 0 1 -226.56000000000000 -344.47000000000003)" fill="rgb(207,240,255)" stroke="none" stroke-width="1"/><ellipse id="ecrh73o0jzg24" rx="81.580000" ry="17.100000" transform="matrix(1 0 0 1 96.23999999999999 17.10000000000000)" fill="rgb(0,181,231)" stroke="none" stroke-width="1"/><circle id="ecrh73o0jzg25" r="5.380000" transform="matrix(1 0 0 1 128.37000000000000 55.90000000000000)" fill="rgb(164,234,255)" stroke="none" stroke-width="1"/><circle id="ecrh73o0jzg26" r="5.380000" transform="matrix(1 0 0 1 112.59000000000000 56.83000000000000)" fill="rgb(120,120,120)" stroke="none" stroke-width="1"/><circle id="ecrh73o0jzg27" r="5.380000" transform="matrix(1 0 0 1 112.59000000000000 56.83000000000000)" opacity="0" fill="rgb(0,181,231)" stroke="none" stroke-width="1"/><circle id="ecrh73o0jzg28" r="5.380000" transform="matrix(1 0 0 1 112.59000000000000 117.66000000000000)" fill="rgb(0,181,231)" stroke="none" stroke-width="1"/><circle id="ecrh73o0jzg29" r="5.380000" transform="matrix(1 0 0 1 128.37000000000000 116.73999999999999)" opacity="0.9183381630981202" fill="rgb(169,169,169)" stroke="none" stroke-width="1"/><circle id="ecrh73o0jzg30" r="5.380000" transform="matrix(1 0 0 1 128.37000000000000 116.73999999999999)" fill="rgb(164,234,255)" stroke="none" stroke-width="1"/><circle id="ecrh73o0jzg31" r="5.380000" transform="matrix(1 0 0 1 113.14000000000000 179.41999999999999)" fill="rgb(174,174,174)" stroke="none" stroke-width="1"/><circle id="ecrh73o0jzg32" r="5.380000" transform="matrix(1 0 0 1 113.14000000000000 179.41999999999999)" fill="rgb(0,181,231)" stroke="none" stroke-width="1"/><circle id="ecrh73o0jzg33" r="5.380000" transform="matrix(1 0 0 1 128.91999999999999 178.50000000000000)" fill="rgb(164,234,255)" stroke="none" stroke-width="1"/><path id="ecrh73o0jzg34" d="M244.550000,565.710000L246.070000,565.710000C246.620000,565.710000,247.150000,565.710000,247.690000,565.800000C248.190809,565.846881,248.688365,565.923685,249.180000,566.030000C249.599279,566.116797,250.001352,566.272220,250.370000,566.490000C251.104054,566.945032,251.728859,567.556180,252.200000,568.280000C252.720997,569.118800,252.981966,570.093085,252.950000,571.080000C252.973273,572.142530,252.677170,573.187596,252.100000,574.080000C251.514145,574.946585,250.671257,575.607605,249.690000,575.970000L249.690000,576.030000C250.917619,576.246678,252.023692,576.904631,252.800000,577.880000C253.529313,578.879558,253.905710,580.093174,253.870000,581.330000C253.871625,582.129792,253.725858,582.923036,253.440000,583.670000C253.160881,584.417992,252.728270,585.099269,252.170000,585.670000C251.571166,586.277999,250.857295,586.760712,250.070000,587.090000C249.160509,587.464983,248.183582,587.648796,247.200000,587.630000L236.580000,587.630000L236.580000,565.630000ZM245.350000,575.160000C246.607866,575.271323,247.867090,574.961793,248.930000,574.280000C249.693741,573.627926,250.102068,572.651652,250.030000,571.650000C250.057479,571.015755,249.930507,570.384324,249.660000,569.810000C249.421050,569.394034,249.075966,569.048950,248.660000,568.810000C248.200879,568.550942,247.694003,568.387654,247.170000,568.330000C246.572805,568.256655,245.971682,568.219920,245.370000,568.220000L239.500000,568.220000L239.500000,575.220000ZM246.830000,585.230000C247.928937,585.286510,249.006160,584.909482,249.830000,584.180000C250.585032,583.413744,250.980951,582.364014,250.920000,581.290000C250.944831,580.668680,250.806947,580.051649,250.520000,579.500000C250.264243,579.045107,249.900137,578.660391,249.460000,578.380000C248.990239,578.091693,248.471707,577.891736,247.930000,577.790000C247.343391,577.677081,246.747379,577.620158,246.150000,577.620000L239.500000,577.620000L239.500000,585.230000Z" transform="matrix(1 0 0 1 -226.56000000000000 -344.47000000000003)" fill="rgb(255,255,255)" stroke="none" stroke-width="1"/><path id="ecrh73o0jzg35" d="M259.600000,571.780000L259.600000,575.130000L259.660000,575.130000C260.174705,573.987342,260.981891,573.000781,262,572.270000C263.049647,571.619438,264.278501,571.318351,265.510000,571.410000L265.510000,574.180000C264.597718,574.155711,263.688891,574.301530,262.830000,574.610000C262.135475,574.870157,261.519207,575.303955,261.040000,575.870000C260.564214,576.455383,260.222834,577.138141,260.040000,577.870000C259.819529,578.759455,259.715327,579.673745,259.730000,580.590000L259.730000,587.670000L257.120000,587.670000L257.120000,571.780000Z" transform="matrix(1 0 0 1 -226.56000000000000 -344.47000000000003)" fill="rgb(255,255,255)" stroke="none" stroke-width="1"/><path id="ecrh73o0jzg36" d="M281.570000,587.630000C280.991862,587.923132,280.347464,588.060971,279.700000,588.030000C279.106035,588.060565,278.523962,587.855761,278.080000,587.460000C277.632788,586.948857,277.415776,586.276122,277.480000,585.600000C276.814274,586.422478,275.950628,587.062471,274.970000,587.460000C273.986096,587.846442,272.937027,588.039960,271.880000,588.030000C271.188767,588.035029,270.499765,587.951004,269.830000,587.780000C269.225410,587.634577,268.654837,587.373064,268.150000,587.010000C267.671353,586.650644,267.287029,586.180533,267.030000,585.640000C266.743265,585.013107,266.603054,584.329148,266.620000,583.640000C266.588236,582.876630,266.746287,582.117298,267.080000,581.430000C267.368364,580.875173,267.782785,580.395677,268.290000,580.030000C268.816886,579.662074,269.401628,579.384913,270.020000,579.210000C270.660000,579.030000,271.330000,578.870000,272.020000,578.750000C272.710000,578.630000,273.420000,578.500000,274.070000,578.430000C274.646892,578.369164,275.218465,578.265546,275.780000,578.120000C276.208784,578.017471,276.608786,577.819180,276.950000,577.540000C277.247667,577.241726,277.404073,576.830706,277.380000,576.410000C277.392915,575.913075,277.260875,575.423138,277,575C276.802538,574.661788,276.515249,574.384883,276.170000,574.200000C275.817483,574.004152,275.430341,573.878500,275.030000,573.830000C274.619563,573.767289,274.205182,573.733871,273.790000,573.730000C272.826716,573.698754,271.871944,573.919351,271.020000,574.370000C270.222709,574.891244,269.765002,575.799030,269.820000,576.750000L267.200000,576.750000C267.212601,575.883387,267.424758,575.031337,267.820000,574.260000C268.171581,573.600764,268.675570,573.035062,269.290000,572.610000C269.932355,572.181268,270.647318,571.872919,271.400000,571.700000C272.233933,571.515464,273.085909,571.424900,273.940000,571.430000C274.655965,571.429835,275.371058,571.479958,276.080000,571.580000C276.756597,571.669545,277.410875,571.883118,278.010000,572.210000C278.580378,572.526808,279.056557,572.989185,279.390000,573.550000C279.765879,574.234696,279.945799,575.009736,279.910000,575.790000L279.910000,583.960000C279.897335,584.412665,279.934221,584.865357,280.020000,585.310000C280.090000,585.600000,280.330000,585.740000,280.740000,585.740000C281.010697,585.734329,281.279552,585.694001,281.540000,585.620000ZM277.330000,579.470000C276.940398,579.741129,276.497039,579.925293,276.030000,580.010000C275.500000,580.120000,274.940000,580.210000,274.360000,580.280000C273.780000,580.350000,273.180000,580.440000,272.590000,580.530000C272.040170,580.608242,271.502523,580.756095,270.990000,580.970000C270.538012,581.160787,270.139712,581.459512,269.830000,581.840000C269.512054,582.291939,269.356925,582.838416,269.390000,583.390000C269.374804,583.770327,269.464767,584.147481,269.650000,584.480000C269.819060,584.765312,270.047572,585.010877,270.320000,585.200000C270.627808,585.389932,270.966117,585.525256,271.320000,585.600000C271.704614,585.681553,272.096839,585.721781,272.490000,585.720000C273.244924,585.736255,273.996696,585.617732,274.710000,585.370000C275.264892,585.171077,275.777208,584.869115,276.220000,584.480000C276.585972,584.155015,276.879055,583.756287,277.080000,583.310000C277.251376,582.942906,277.346624,582.544905,277.360000,582.140000Z" transform="matrix(1 0 0 1 -226.56000000000000 -344.47000000000003)" fill="rgb(255,255,255)" stroke="none" stroke-width="1"/><path id="ecrh73o0jzg37" d="M284.160000,568.910000L284.160000,565.710000L286.780000,565.710000L286.780000,568.910000ZM286.780000,571.780000L286.780000,587.690000L284.160000,587.690000L284.160000,571.780000Z" transform="matrix(1 0 0 1 -226.56000000000000 -344.47000000000003)" fill="rgb(255,255,255)" stroke="none" stroke-width="1"/><path id="ecrh73o0jzg38" d="M293.300000,571.780000L293.300000,574.300000L293.360000,574.300000C294.373186,572.411766,296.390823,571.283918,298.530000,571.410000C299.422985,571.381606,300.312936,571.527666,301.150000,571.840000C301.804133,572.093658,302.384901,572.506037,302.840000,573.040000C303.279373,573.572328,303.590699,574.198401,303.750000,574.870000C303.928736,575.640390,304.016006,576.429170,304.010000,577.220000L304.010000,587.690000L301.390000,587.690000L301.390000,576.920000C301.439737,576.054564,301.128334,575.207256,300.530000,574.580000C299.894539,573.974355,299.036384,573.659336,298.160000,573.710000C297.449231,573.697254,296.742772,573.822922,296.080000,574.080000C295.524777,574.300150,295.025904,574.641844,294.620000,575.080000C294.222558,575.543714,293.926244,576.085253,293.750000,576.670000C293.541739,577.315878,293.440404,577.991444,293.450000,578.670000L293.450000,587.670000L290.840000,587.670000L290.840000,571.780000Z" transform="matrix(1 0 0 1 -226.56000000000000 -344.47000000000003)" fill="rgb(255,255,255)" stroke="none" stroke-width="1"/><path id="ecrh73o0jzg39" d="M316.410000,577.900000L316.410000,580.360000L307.520000,580.360000L307.520000,577.900000Z" transform="matrix(1 0 0 1 -226.56000000000000 -344.47000000000003)" fill="rgb(255,255,255)" stroke="none" stroke-width="1"/><path id="ecrh73o0jzg40" d="M333.630000,568.820000C332.453456,568.017844,331.053367,567.608318,329.630000,567.650000C328.463179,567.618680,327.306353,567.872701,326.260000,568.390000C325.342883,568.864919,324.551280,569.550289,323.950000,570.390000C323.335725,571.248114,322.881749,572.210272,322.610000,573.230000C322.319571,574.316008,322.174968,575.435839,322.180000,576.560000C322.171981,577.756793,322.316478,578.949731,322.610000,580.110000C322.891337,581.150739,323.362584,582.130524,324,583C324.607168,583.838114,325.401573,584.522946,326.320000,585C327.374232,585.515166,328.536986,585.768983,329.710000,585.740000C330.590311,585.755436,331.464606,585.592144,332.280000,585.260000C333.009713,584.956523,333.669840,584.507364,334.220000,583.940000C334.770162,583.360949,335.204618,582.682111,335.500000,581.940000C335.809415,581.132557,335.994848,580.282937,336.050000,579.420000L338.970000,579.420000C338.839882,581.850901,337.822220,584.149535,336.110000,585.880000C334.283875,587.495426,331.894333,588.325477,329.460000,588.190000C327.926909,588.225875,326.404568,587.925502,325,587.310000C323.772519,586.760361,322.687896,585.935774,321.830000,584.900000C320.967126,583.826252,320.324834,582.592645,319.940000,581.270000C319.511358,579.808817,319.299104,578.292718,319.310000,576.770000C319.297900,575.241004,319.523941,573.719447,319.980000,572.260000C320.405994,570.920091,321.084914,569.674273,321.980000,568.590000C322.865535,567.527853,323.980064,566.679990,325.240000,566.110000C326.647870,565.479742,328.177807,565.168973,329.720000,565.200000C330.823423,565.191468,331.922020,565.346485,332.980000,565.660000C333.966642,565.947554,334.894379,566.408037,335.720000,567.020000C336.531527,567.619428,337.212097,568.378263,337.720000,569.250000C338.275257,570.198442,338.632453,571.249617,338.770000,572.340000L335.800000,572.340000C335.572362,570.925221,334.791725,569.658935,333.630000,568.820000Z" transform="matrix(1 0 0 1 -226.56000000000000 -344.47000000000003)" fill="rgb(255,255,255)" stroke="none" stroke-width="1"/><path id="ecrh73o0jzg41" d="M342,572.380000C342.422507,571.035578,343.101710,569.785844,344,568.700000C344.899934,567.616002,346.026312,566.742206,347.300000,566.140000C350.225458,564.873414,353.544542,564.873414,356.470000,566.140000C357.739069,566.745086,358.861601,567.618546,359.760000,568.700000C360.654152,569.788636,361.332900,571.037531,361.760000,572.380000C362.640059,575.196180,362.640059,578.213820,361.760000,581.030000C361.334006,582.369909,360.655086,583.615727,359.760000,584.700000C358.866130,585.781066,357.742106,586.648854,356.470000,587.240000C353.541859,588.493571,350.228141,588.493571,347.300000,587.240000C346.023223,586.651878,344.895311,585.783728,344,584.700000C343.101784,583.617846,342.422516,582.371391,342,581.030000C341.106377,578.215906,341.106377,575.194094,342,572.380000ZM344.690000,579.980000C344.962104,581.023018,345.419366,582.008671,346.040000,582.890000C346.662664,583.750924,347.473140,584.458808,348.410000,584.960000C350.589461,586.013072,353.130539,586.013072,355.310000,584.960000C356.246860,584.458808,357.057336,583.750924,357.680000,582.890000C358.287902,582.012568,358.734865,581.033990,359,580C359.573556,577.850944,359.573556,575.589056,359,573.440000C358.723304,572.398637,358.266405,571.413766,357.650000,570.530000C357.027336,569.669076,356.216860,568.961192,355.280000,568.460000C353.100539,567.406928,350.559461,567.406928,348.380000,568.460000C347.443140,568.961192,346.632664,569.669076,346.010000,570.530000C345.393595,571.413766,344.936696,572.398637,344.660000,573.440000C344.086444,575.589056,344.086444,577.850944,344.660000,580Z" transform="matrix(1 0 0 1 -226.56000000000000 -344.47000000000003)" fill="rgb(255,255,255)" stroke="none" stroke-width="1"/><path id="ecrh73o0jzg42" d="M373.510000,565.710000Q378.580000,565.710000,381.330000,568.300000C383.150000,570.020000,384.070000,572.650000,384.070000,576.180000C384.092193,577.837508,383.883523,579.490036,383.450000,581.090000C383.088255,582.416823,382.435824,583.646535,381.540000,584.690000C380.640386,585.689117,379.511269,586.454445,378.250000,586.920000C376.729808,587.462143,375.123632,587.723062,373.510000,587.690000L366,587.690000L366,565.690000ZM373.750000,585.230000C374.080000,585.230000,374.490000,585.230000,374.990000,585.150000C375.523276,585.091516,376.047261,584.967238,376.550000,584.780000C377.134414,584.569145,377.689034,584.283432,378.200000,583.930000C378.778042,583.527884,379.273651,583.018697,379.660000,582.430000C380.135339,581.691953,380.496101,580.886140,380.730000,580.040000C381.023486,578.910699,381.161426,577.746617,381.140000,576.580000C381.152587,575.392484,381.025039,574.207630,380.760000,573.050000C380.536596,572.087090,380.102897,571.185541,379.490000,570.410000C378.894946,569.666027,378.115906,569.090364,377.230000,568.740000C376.139757,568.335505,374.982526,568.142068,373.820000,568.170000L368.890000,568.170000L368.890000,585.230000Z" transform="matrix(1 0 0 1 -226.56000000000000 -344.47000000000003)" fill="rgb(255,255,255)" stroke="none" stroke-width="1"/><path id="ecrh73o0jzg43" d="M402.810000,565.710000L402.810000,568.170000L390.560000,568.170000L390.560000,575.170000L402,575.170000L402,577.630000L390.560000,577.630000L390.560000,585.240000L402.900000,585.240000L402.900000,587.700000L387.630000,587.700000L387.630000,565.700000Z" transform="matrix(1 0 0 1 -226.56000000000000 -344.47000000000003)" fill="rgb(255,255,255)" stroke="none" stroke-width="1"/><script><![CDATA[!function(t,n){"object"==typeof exports&&"undefined"!=typeof module?module.exports=n():"function"==typeof define&&define.amd?define(n):(t="undefined"!=typeof globalThis?globalThis:t||self).__SVGATOR_PLAYER__=n()}(this,(function(){"use strict";function t(n){return(t="function"==typeof Symbol&&"symbol"==typeof Symbol.iterator?function(t){return typeof t}:function(t){return t&&"function"==typeof Symbol&&t.constructor===Symbol&&t!==Symbol.prototype?"symbol":typeof t})(n)}function n(t,n){if(!(t instanceof n))throw new TypeError("Cannot call a class as a function")}function r(t,n){for(var r=0;r<n.length;r++){var e=n[r];e.enumerable=e.enumerable||!1,e.configurable=!0,"value"in e&&(e.writable=!0),Object.defineProperty(t,e.key,e)}}function e(t,n,e){return n&&r(t.prototype,n),e&&r(t,e),t}function i(t){return(i=Object.setPrototypeOf?Object.getPrototypeOf:function(t){return t.__proto__||Object.getPrototypeOf(t)})(t)}function o(t,n){return(o=Object.setPrototypeOf||function(t,n){return t.__proto__=n,t})(t,n)}function u(t,n){return!n||"object"!=typeof n&&"function"!=typeof n?function(t){if(void 0===t)throw new ReferenceError("this hasn't been initialised - super() hasn't been called");return t}(t):n}function a(t){var n=function(){if("undefined"==typeof Reflect||!Reflect.construct)return!1;if(Reflect.construct.sham)return!1;if("function"==typeof Proxy)return!0;try{return Boolean.prototype.valueOf.call(Reflect.construct(Boolean,[],(function(){}))),!0}catch(t){return!1}}();return function(){var r,e=i(t);if(n){var o=i(this).constructor;r=Reflect.construct(e,arguments,o)}else r=e.apply(this,arguments);return u(this,r)}}function l(t,n,r){return(l="undefined"!=typeof Reflect&&Reflect.get?Reflect.get:function(t,n,r){var e=function(t,n){for(;!Object.prototype.hasOwnProperty.call(t,n)&&null!==(t=i(t)););return t}(t,n);if(e){var o=Object.getOwnPropertyDescriptor(e,n);return o.get?o.get.call(r):o.value}})(t,n,r||t)}var f=Math.abs;function s(t){return t}function c(t,n,r){var e=1-r;return 3*r*e*(t*e+n*r)+r*r*r}function h(){var t=arguments.length>0&&void 0!==arguments[0]?arguments[0]:0,n=arguments.length>1&&void 0!==arguments[1]?arguments[1]:0,r=arguments.length>2&&void 0!==arguments[2]?arguments[2]:1,e=arguments.length>3&&void 0!==arguments[3]?arguments[3]:1;return t<0||t>1||r<0||r>1?null:f(t-n)<=1e-5&&f(r-e)<=1e-5?s:function(i){if(i<=0)return t>0?i*n/t:0===n&&r>0?i*e/r:0;if(i>=1)return r<1?1+(i-1)*(e-1)/(r-1):1===r&&t<1?1+(i-1)*(n-1)/(t-1):1;for(var o,u=0,a=1;u<a;){var l=c(t,r,o=(u+a)/2);if(f(i-l)<1e-5)break;l<i?u=o:a=o}return c(n,e,o)}}function v(){return 1}function y(t){return 1===t?1:0}function d(){var t=arguments.length>0&&void 0!==arguments[0]?arguments[0]:1,n=arguments.length>1&&void 0!==arguments[1]?arguments[1]:0;if(1===t){if(0===n)return y;if(1===n)return v}var r=1/t;return function(t){return t>=1?1:(t+=n*r)-t%r}}function g(t){var n=arguments.length>1&&void 0!==arguments[1]?arguments[1]:2;if(Number.isInteger(t))return t;var r=Math.pow(10,n);return Math.round(t*r)/r}var p=Math.PI/180;function m(t,n,r){return t>=.5?r:n}function b(t,n,r){return 0===t||n===r?n:t*(r-n)+n}function w(t,n,r){var e=b(t,n,r);return e<=0?0:e}function x(t,n,r){return 0===t?n:1===t?r:{x:b(t,n.x,r.x),y:b(t,n.y,r.y)}}function k(t,n,r){var e=function(t,n,r){return Math.round(b(t,n,r))}(t,n,r);return e<=0?0:e>=255?255:e}function A(t,n,r){return 0===t?n:1===t?r:{r:k(t,n.r,r.r),g:k(t,n.g,r.g),b:k(t,n.b,r.b),a:b(t,null==n.a?1:n.a,null==r.a?1:r.a)}}function _(t,n,r){if(0===t)return n;if(1===t)return r;var e=n.length;if(e!==r.length)return m(t,n,r);for(var i=[],o=0;o<e;o++)i.push(A(t,n[o],r[o]));return i}function S(t,n){for(var r=[],e=0;e<t;e++)r.push(n);return r}function O(t,n){if(--n<=0)return t;var r=(t=Object.assign([],t)).length;do{for(var e=0;e<r;e++)t.push(t[e])}while(--n>0);return t}var M,j=function(){function t(r){n(this,t),this.list=r,this.length=r.length}return e(t,[{key:"setAttribute",value:function(t,n){for(var r=this.list,e=0;e<this.length;e++)r[e].setAttribute(t,n)}},{key:"removeAttribute",value:function(t){for(var n=this.list,r=0;r<this.length;r++)n[r].removeAttribute(t)}},{key:"style",value:function(t,n){for(var r=this.list,e=0;e<this.length;e++)r[e].style[t]=n}}]),t}(),F=/-./g,P=function(t,n){return n.toUpperCase()};function B(t){return"function"==typeof t?t:m}function I(t){return t?"function"==typeof t?t:Array.isArray(t)?function(t){var n=arguments.length>1&&void 0!==arguments[1]?arguments[1]:s;if(!Array.isArray(t))return n;switch(t.length){case 1:return d(t[0])||n;case 2:return d(t[0],t[1])||n;case 4:return h(t[0],t[1],t[2],t[3])||n}return n}(t,null):function(t,n){var r=arguments.length>2&&void 0!==arguments[2]?arguments[2]:s;switch(t){case"linear":return s;case"steps":return d(n.steps||1,n.jump||0)||r;case"bezier":case"cubic-bezier":return h(n.x1||0,n.y1||0,n.x2||0,n.y2||0)||r}return r}(t.type,t.value,null):null}function R(t,n,r){var e=arguments.length>3&&void 0!==arguments[3]&&arguments[3],i=n.length-1;if(t<=n[0].t)return e?[0,0,n[0].v]:n[0].v;if(t>=n[i].t)return e?[i,1,n[i].v]:n[i].v;var o,u=n[0],a=null;for(o=1;o<=i;o++){if(!(t>n[o].t)){a=n[o];break}u=n[o]}return null==a?e?[i,1,n[i].v]:n[i].v:u.t===a.t?e?[o,1,a.v]:a.v:(t=(t-u.t)/(a.t-u.t),u.e&&(t=u.e(t)),e?[o,t,r(t,u.v,a.v)]:r(t,u.v,a.v))}function q(t,n){var r=arguments.length>2&&void 0!==arguments[2]?arguments[2]:null;return t&&t.length?"function"!=typeof n?null:("function"!=typeof r&&(r=null),function(e){var i=R(e,t,n);return null!=i&&r&&(i=r(i)),i}):null}function E(t,n){return t.t-n.t}function T(n,r,e,i,o){var u,a="@"===e[0],l="#"===e[0],f=M[e],s=m;switch(a?(u=e.substr(1),e=u.replace(F,P)):l&&(e=e.substr(1)),t(f)){case"function":if(s=f(i,o,R,I,e,a,r,n),l)return s;break;case"string":s=q(i,B(f));break;case"object":if((s=q(i,B(f.i),f.f))&&"function"==typeof f.u)return f.u(r,s,e,a,n)}return s?function(t,n,r){var e=arguments.length>3&&void 0!==arguments[3]&&arguments[3];if(e)return t instanceof j?function(e){return t.style(n,r(e))}:function(e){return t.style[n]=r(e)};if(Array.isArray(n)){var i=n.length;return function(e){var o=r(e);if(null==o)for(var u=0;u<i;u++)t[u].removeAttribute(n);else for(var a=0;a<i;a++)t[a].setAttribute(n,o)}}return function(e){var i=r(e);null==i?t.removeAttribute(n):t.setAttribute(n,i)}}(r,e,s,a):null}function N(n,r,e,i){if(!i||"object"!==t(i))return null;var o=null,u=null;return Array.isArray(i)?u=function(t){if(!t||!t.length)return null;for(var n=0;n<t.length;n++)t[n].e&&(t[n].e=I(t[n].e));return t.sort(E)}(i):(u=i.keys,o=i.data||null),u?T(n,r,e,u,o):null}function C(t,n,r){if(!r)return null;var e=[];for(var i in r)if(r.hasOwnProperty(i)){var o=N(t,n,i,r[i]);o&&e.push(o)}return e.length?e:null}function z(t,n){if(!n.duration||n.duration<0)return null;var r=function(t,n){if(!n)return null;var r=[];if(Array.isArray(n))for(var e=n.length,i=0;i<e;i++){var o=n[i];if(2===o.length){var u=null;if("string"==typeof o[0])u=t.getElementById(o[0]);else if(Array.isArray(o[0])){u=[];for(var a=0;a<o[0].length;a++)if("string"==typeof o[0][a]){var l=t.getElementById(o[0][a]);l&&u.push(l)}u=u.length?1===u.length?u[0]:new j(u):null}if(u){var f=C(t,u,o[1]);f&&(r=r.concat(f))}}}else for(var s in n)if(n.hasOwnProperty(s)){var c=t.getElementById(s);if(c){var h=C(t,c,n[s]);h&&(r=r.concat(h))}}return r.length?r:null}(t,n.elements);return r?function(t,n){var r=arguments.length>2&&void 0!==arguments[2]?arguments[2]:1/0,e=arguments.length>3&&void 0!==arguments[3]?arguments[3]:1,i=arguments.length>4&&void 0!==arguments[4]&&arguments[4],o=arguments.length>5&&void 0!==arguments[5]?arguments[5]:1,u=t.length,a=e>0?n:0;i&&r%2==0&&(a=n-a);var l=null;return function(f,s){var c=f%n,h=1+(f-c)/n;s*=e,i&&h%2==0&&(s=-s);var v=!1;if(h>r)c=a,v=!0,-1===o&&(c=e>0?0:n);else if(s<0&&(c=n-c),c===l)return!1;l=c;for(var y=0;y<u;y++)t[y](c);return v}}(r,n.duration,n.iterations||1/0,n.direction||1,!!n.alternate,n.fill||1):null}var L=function(){function t(r,e){var i=arguments.length>2&&void 0!==arguments[2]?arguments[2]:{};n(this,t),this._id=0,this._running=!1,this._rollingBack=!1,this._animations=r,this.duration=e.duration,this.alternate=e.alternate,this.fill=e.fill,this.iterations=e.iterations,this.direction=i.direction||1,this.speed=i.speed||1,this.fps=i.fps||100,this.offset=i.offset||0,this.rollbackStartOffset=0}return e(t,[{key:"_rollback",value:function(){var t=this,n=1/0,r=null;this.rollbackStartOffset=this.offset,this._rollingBack||(this._rollingBack=!0,this._running=!0);this._id=window.requestAnimationFrame((function e(i){if(t._rollingBack){null==r&&(r=i);var o=i-r,u=t.rollbackStartOffset-o,a=Math.round(u*t.speed);if(a>t.duration&&n!=1/0){var l=!!t.alternate&&a/t.duration%2>1,f=a%t.duration;a=(f+=l?t.duration:0)||t.duration}var s=t.fps?1e3/t.fps:0,c=Math.max(0,a);if(c<n-s){t.offset=c,n=c;for(var h=t._animations,v=h.length,y=0;y<v;y++)h[y](c,t.direction)}var d=!1;if(t.iterations>0&&-1===t.fill){var g=t.iterations*t.duration,p=g==a;a=p?0:a,t.offset=p?0:t.offset,d=a>g}a>0&&t.offset>=a&&!d?t._id=window.requestAnimationFrame(e):t.stop()}}))}},{key:"_start",value:function(){var t=this,n=arguments.length>0&&void 0!==arguments[0]?arguments[0]:0,r=-1/0,e=null,i={},o=function o(u){t._running=!0,null==e&&(e=u);var a=Math.round((u-e+n)*t.speed),l=t.fps?1e3/t.fps:0;if(a>r+l&&!t._rollingBack){t.offset=a,r=a;for(var f=t._animations,s=f.length,c=0,h=0;h<s;h++)i[h]?c++:(i[h]=f[h](a,t.direction),i[h]&&c++);if(c===s)return void t._stop()}t._id=window.requestAnimationFrame(o)};this._id=window.requestAnimationFrame(o)}},{key:"_stop",value:function(){this._id&&window.cancelAnimationFrame(this._id),this._running=!1,this._rollingBack=!1}},{key:"play",value:function(){!this._rollingBack&&this._running||(this._rollingBack=!1,this.rollbackStartOffset>this.duration&&(this.offset=this.rollbackStartOffset-(this.rollbackStartOffset-this.offset)%this.duration,this.rollbackStartOffset=0),this._start(this.offset))}},{key:"stop",value:function(){this._stop(),this.offset=0,this.rollbackStartOffset=0;var t=this.direction,n=this._animations;window.requestAnimationFrame((function(){for(var r=0;r<n.length;r++)n[r](0,t)}))}},{key:"reachedToEnd",value:function(){return this.iterations>0&&this.offset>=this.iterations*this.duration}},{key:"restart",value:function(){this._stop(),this.offset=0,this._start()}},{key:"pause",value:function(){this._stop()}},{key:"reverse",value:function(){this.direction=-this.direction}}],[{key:"build",value:function(n,r){return(n=function(t,n){if(M=n,!t||!t.root||!Array.isArray(t.animations))return null;for(var r=document.getElementsByTagName("svg"),e=!1,i=0;i<r.length;i++)if(r[i].id===t.root&&!r[i].svgatorAnimation){(e=r[i]).svgatorAnimation=!0;break}if(!e)return null;var o=t.animations.map((function(t){return z(e,t)})).filter((function(t){return!!t}));return o.length?{element:e,animations:o,animationSettings:t.animationSettings,options:t.options||void 0}:null}(n,r))?{el:n.element,options:n.options||{},player:new t(n.animations,n.animationSettings,n.options)}:null}}]),t}();!function(){for(var t=0,n=["ms","moz","webkit","o"],r=0;r<n.length&&!window.requestAnimationFrame;++r)window.requestAnimationFrame=window[n[r]+"RequestAnimationFrame"],window.cancelAnimationFrame=window[n[r]+"CancelAnimationFrame"]||window[n[r]+"CancelRequestAnimationFrame"];window.requestAnimationFrame||(window.requestAnimationFrame=function(n){var r=Date.now(),e=Math.max(0,16-(r-t)),i=window.setTimeout((function(){n(r+e)}),e);return t=r+e,i},window.cancelAnimationFrame=window.clearTimeout)}();var D=/\.0+$/g;function Q(t){return Number.isInteger(t)?t+"":t.toFixed(6).replace(D,"")}function U(t){var n=arguments.length>1&&void 0!==arguments[1]?arguments[1]:" ";return t&&t.length?t.map(Q).join(n):""}function V(t){return t?null==t.a||t.a>=1?"rgb("+t.r+","+t.g+","+t.b+")":"rgba("+t.r+","+t.g+","+t.b+","+t.a+")":"transparent"}var $={f:null,i:function(t,n,r){return 0===t?n:1===t?r:{x:w(t,n.x,r.x),y:w(t,n.y,r.y)}},u:function(t,n){return function(r){var e=n(r);t.setAttribute("rx",Q(e.x)),t.setAttribute("ry",Q(e.y))}}},G={f:null,i:function(t,n,r){return 0===t?n:1===t?r:{width:w(t,n.width,r.width),height:w(t,n.height,r.height)}},u:function(t,n){return function(r){var e=n(r);t.setAttribute("width",Q(e.width)),t.setAttribute("height",Q(e.height))}}},H=Math.sin,Y=Math.cos,Z=Math.acos,J=Math.asin,K=Math.tan,W=Math.atan2,X=Math.PI/180,tt=180/Math.PI,nt=Math.sqrt,rt=function(){function t(){var r=arguments.length>0&&void 0!==arguments[0]?arguments[0]:1,e=arguments.length>1&&void 0!==arguments[1]?arguments[1]:0,i=arguments.length>2&&void 0!==arguments[2]?arguments[2]:0,o=arguments.length>3&&void 0!==arguments[3]?arguments[3]:1,u=arguments.length>4&&void 0!==arguments[4]?arguments[4]:0,a=arguments.length>5&&void 0!==arguments[5]?arguments[5]:0;n(this,t),this.m=[r,e,i,o,u,a],this.i=null,this.w=null,this.s=null}return e(t,[{key:"determinant",get:function(){var t=this.m;return t[0]*t[3]-t[1]*t[2]}},{key:"isIdentity",get:function(){if(null===this.i){var t=this.m;this.i=1===t[0]&&0===t[1]&&0===t[2]&&1===t[3]&&0===t[4]&&0===t[5]}return this.i}},{key:"point",value:function(t,n){var r=this.m;return{x:r[0]*t+r[2]*n+r[4],y:r[1]*t+r[3]*n+r[5]}}},{key:"translateSelf",value:function(){var t=arguments.length>0&&void 0!==arguments[0]?arguments[0]:0,n=arguments.length>1&&void 0!==arguments[1]?arguments[1]:0;if(!t&&!n)return this;var r=this.m;return r[4]+=r[0]*t+r[2]*n,r[5]+=r[1]*t+r[3]*n,this.w=this.s=this.i=null,this}},{key:"rotateSelf",value:function(){var t=arguments.length>0&&void 0!==arguments[0]?arguments[0]:0;if(t%=360){var n=H(t*=X),r=Y(t),e=this.m,i=e[0],o=e[1];e[0]=i*r+e[2]*n,e[1]=o*r+e[3]*n,e[2]=e[2]*r-i*n,e[3]=e[3]*r-o*n,this.w=this.s=this.i=null}return this}},{key:"scaleSelf",value:function(){var t=arguments.length>0&&void 0!==arguments[0]?arguments[0]:1,n=arguments.length>1&&void 0!==arguments[1]?arguments[1]:1;if(1!==t||1!==n){var r=this.m;r[0]*=t,r[1]*=t,r[2]*=n,r[3]*=n,this.w=this.s=this.i=null}return this}},{key:"skewSelf",value:function(t,n){if(n%=360,(t%=360)||n){var r=this.m,e=r[0],i=r[1],o=r[2],u=r[3];t&&(t=K(t*X),r[2]+=e*t,r[3]+=i*t),n&&(n=K(n*X),r[0]+=o*n,r[1]+=u*n),this.w=this.s=this.i=null}return this}},{key:"resetSelf",value:function(){var t=arguments.length>0&&void 0!==arguments[0]?arguments[0]:1,n=arguments.length>1&&void 0!==arguments[1]?arguments[1]:0,r=arguments.length>2&&void 0!==arguments[2]?arguments[2]:0,e=arguments.length>3&&void 0!==arguments[3]?arguments[3]:1,i=arguments.length>4&&void 0!==arguments[4]?arguments[4]:0,o=arguments.length>5&&void 0!==arguments[5]?arguments[5]:0,u=this.m;return u[0]=t,u[1]=n,u[2]=r,u[3]=e,u[4]=i,u[5]=o,this.w=this.s=this.i=null,this}},{key:"recomposeSelf",value:function(){var t=arguments.length>0&&void 0!==arguments[0]?arguments[0]:null,n=arguments.length>1&&void 0!==arguments[1]?arguments[1]:null,r=arguments.length>2&&void 0!==arguments[2]?arguments[2]:null,e=arguments.length>3&&void 0!==arguments[3]?arguments[3]:null,i=arguments.length>4&&void 0!==arguments[4]?arguments[4]:null;return this.isIdentity||this.resetSelf(),t&&(t.x||t.y)&&this.translateSelf(t.x,t.y),n&&this.rotateSelf(n),r&&(r.x&&this.skewSelf(r.x,0),r.y&&this.skewSelf(0,r.y)),!e||1===e.x&&1===e.y||this.scaleSelf(e.x,e.y),i&&(i.x||i.y)&&this.translateSelf(i.x,i.y),this}},{key:"decompose",value:function(){var t=arguments.length>0&&void 0!==arguments[0]?arguments[0]:0,n=arguments.length>1&&void 0!==arguments[1]?arguments[1]:0,r=this.m,e=r[0]*r[0]+r[1]*r[1],i=[[r[0],r[1]],[r[2],r[3]]],o=nt(e);if(0===o)return{origin:{x:r[4],y:r[5]},translate:{x:t,y:n},scale:{x:0,y:0},skew:{x:0,y:0},rotate:0};i[0][0]/=o,i[0][1]/=o;var u=r[0]*r[3]-r[1]*r[2]<0;u&&(o=-o);var a=i[0][0]*i[1][0]+i[0][1]*i[1][1];i[1][0]-=i[0][0]*a,i[1][1]-=i[0][1]*a;var l=nt(i[1][0]*i[1][0]+i[1][1]*i[1][1]);if(0===l)return{origin:{x:r[4],y:r[5]},translate:{x:t,y:n},scale:{x:o,y:0},skew:{x:0,y:0},rotate:0};i[1][0]/=l,i[1][1]/=l,a/=l;var f=0;return i[1][1]<0?(f=Z(i[1][1])*tt,i[0][1]<0&&(f=360-f)):f=J(i[0][1])*tt,u&&(f=-f),a=W(a,nt(i[0][0]*i[0][0]+i[0][1]*i[0][1]))*tt,u&&(a=-a),{origin:{x:r[4],y:r[5]},translate:{x:t,y:n},scale:{x:o,y:l},skew:{x:a,y:0},rotate:f}}},{key:"toString",value:function(){return null===this.s&&(this.s="matrix("+this.m.map(it).join(" ")+")"),this.s}}]),t}(),et=/\.0+$/;function it(t){return Number.isInteger(t)?t:t.toFixed(14).replace(et,"")}function ot(t,n,r){return t+(n-t)*r}function ut(t,n,r){var e=arguments.length>3&&void 0!==arguments[3]&&arguments[3],i={x:ot(t.x,n.x,r),y:ot(t.y,n.y,r)};return e&&(i.a=at(t,n)),i}function at(t,n){return Math.atan2(n.y-t.y,n.x-t.x)}Object.freeze({M:2,L:2,Z:0,H:1,V:1,C:6,Q:4,T:2,S:4,A:7});var lt={},ft=null;function st(n){var r=function(){if(ft)return ft;if("object"!==("undefined"==typeof document?"undefined":t(document)))return{};var n=document.createElementNS("http://www.w3.org/2000/svg","svg");return n.style.position="absolute",n.style.opacity="0.01",n.style.zIndex="-9999",n.style.left="-9999px",n.style.width="1px",n.style.height="1px",ft={svg:n}}().svg;if(!r)return function(t){return null};var e=document.createElementNS(r.namespaceURI,"path");e.setAttributeNS(null,"d",n),e.setAttributeNS(null,"fill","none"),e.setAttributeNS(null,"stroke","none"),r.appendChild(e);var i=e.getTotalLength();return function(t){var n=e.getPointAtLength(i*t);return{x:n.x,y:n.y}}}function ct(t){return lt[t]?lt[t]:lt[t]=st(t)}function ht(t,n,r,e){if(!t||!e)return!1;var i=["M",t.x,t.y];if(n&&r&&(i.push("C"),i.push(n.x),i.push(n.y),i.push(r.x),i.push(r.y)),n?!r:r){var o=n||r;i.push("Q"),i.push(o.x),i.push(o.y)}return n||r||i.push("L"),i.push(e.x),i.push(e.y),i.join(" ")}function vt(t,n,r,e){var i=arguments.length>4&&void 0!==arguments[4]?arguments[4]:1,o=ht(t,n,r,e),u=ct(o);try{return u(i)}catch(t){return null}}function yt(t,n,r,e){var i=1-e;return i*i*t+2*i*e*n+e*e*r}function dt(t,n,r,e){return 2*(1-e)*(n-t)+2*e*(r-n)}function gt(t,n,r,e){var i=arguments.length>4&&void 0!==arguments[4]&&arguments[4],o=vt(t,n,null,r,e);return o||(o={x:yt(t.x,n.x,r.x,e),y:yt(t.y,n.y,r.y,e)}),i&&(o.a=pt(t,n,r,e)),o}function pt(t,n,r,e){return Math.atan2(dt(t.y,n.y,r.y,e),dt(t.x,n.x,r.x,e))}function mt(t,n,r,e,i){var o=i*i;return i*o*(e-t+3*(n-r))+3*o*(t+r-2*n)+3*i*(n-t)+t}function bt(t,n,r,e,i){var o=1-i;return 3*(o*o*(n-t)+2*o*i*(r-n)+i*i*(e-r))}function wt(t,n,r,e,i){var o=arguments.length>5&&void 0!==arguments[5]&&arguments[5],u=vt(t,n,r,e,i);return u||(u={x:mt(t.x,n.x,r.x,e.x,i),y:mt(t.y,n.y,r.y,e.y,i)}),o&&(u.a=xt(t,n,r,e,i)),u}function xt(t,n,r,e,i){return Math.atan2(bt(t.y,n.y,r.y,e.y,i),bt(t.x,n.x,r.x,e.x,i))}function kt(t,n,r){var e=arguments.length>3&&void 0!==arguments[3]&&arguments[3];if(_t(n)){if(St(r))return gt(n,r.start,r,t,e)}else if(_t(r)){if(n.end)return gt(n,n.end,r,t,e)}else{if(n.end)return r.start?wt(n,n.end,r.start,r,t,e):gt(n,n.end,r,t,e);if(r.start)return gt(n,r.start,r,t,e)}return ut(n,r,t,e)}function At(t,n,r){var e=kt(t,n,r,!0);return e.a=function(t){var n=arguments.length>1&&void 0!==arguments[1]&&arguments[1];return n?t+Math.PI:t}(e.a)/p,e}function _t(t){return!t.type||"corner"===t.type}function St(t){return null!=t.start&&!_t(t)}var Ot=new rt;var Mt={f:Q,i:b},jt={f:Q,i:function(t,n,r){var e=b(t,n,r);return e<=0?0:e>=1?1:e}};function Ft(t,n,r,e,i,o,u,a){return n=function(t,n,r){for(var e,i,o,u=t.length-1,a={},l=0;l<=u;l++)(e=t[l]).e&&(e.e=n(e.e)),e.v&&"g"===(i=e.v).t&&i.r&&(o=r.getElementById(i.r))&&(a[i.r]=o.querySelectorAll("stop"));return a}(t,e,a),function(e){var i,o=r(e,t,Pt);return o?"c"===o.t?V(o.v):"g"===o.t?(n[o.r]&&function(t,n){for(var r=0,e=t.length;r<e;r++)t[r].setAttribute("stop-color",V(n[r]))}(n[o.r],o.v),(i=o.r)?"url(#"+i+")":"none"):"none":"none"}}function Pt(t,n,r){if(0===t)return n;if(1===t)return r;if(n&&r){var e=n.t;if(e===r.t)switch(n.t){case"c":return{t:e,v:A(t,n.v,r.v)};case"g":if(n.r===r.r)return{t:e,v:_(t,n.v,r.v),r:n.r}}}return m(t,n,r)}var Bt={fill:Ft,"fill-opacity":jt,stroke:Ft,"stroke-opacity":jt,"stroke-width":Mt,"stroke-dashoffset":{f:Q,i:b},"stroke-dasharray":{f:function(t){var n=arguments.length>1&&void 0!==arguments[1]?arguments[1]:" ";return t&&t.length>0&&(t=t.map((function(t){return Math.floor(1e4*t)/1e4}))),U(t,n)},i:function(t,n,r){var e,i,o,u=n.length,a=r.length;if(u!==a)if(0===u)n=S(u=a,0);else if(0===a)a=u,r=S(u,0);else{var l=(o=(e=u)*(i=a)/function(t,n){for(var r;n;)r=n,n=t%n,t=r;return t||1}(e,i))<0?-o:o;n=O(n,Math.floor(l/u)),r=O(r,Math.floor(l/a)),u=a=l}for(var f=[],s=0;s<u;s++)f.push(g(w(t,n[s],r[s]),6));return f}},opacity:jt,transform:function(n,r,e,i){if(!(n=function(n,r){if(!n||"object"!==t(n))return null;var e=!1;for(var i in n)n.hasOwnProperty(i)&&(n[i]&&n[i].length?(n[i].forEach((function(t){t.e&&(t.e=r(t.e))})),e=!0):delete n[i]);return e?n:null}(n,i)))return null;var o=function(t,i,o){var u=arguments.length>3&&void 0!==arguments[3]?arguments[3]:null;return n[t]?e(i,n[t],o):r&&r[t]?r[t]:u};return r&&r.a&&n.o?function(t){var r=e(t,n.o,At);return Ot.recomposeSelf(r,o("r",t,b,0)+r.a,o("k",t,x),o("s",t,x),o("t",t,x)).toString()}:function(t){return Ot.recomposeSelf(o("o",t,kt,null),o("r",t,b,0),o("k",t,x),o("s",t,x),o("t",t,x)).toString()}},r:Mt,"#size":G,"#radius":$,_:function(t,n){if(Array.isArray(t))for(var r=0;r<t.length;r++)this[t[r]]=n;else this[t]=n}};return function(t){!function(t,n){if("function"!=typeof n&&null!==n)throw new TypeError("Super expression must either be null or a function");t.prototype=Object.create(n&&n.prototype,{constructor:{value:t,writable:!0,configurable:!0}}),n&&o(t,n)}(u,t);var r=a(u);function u(){return n(this,u),r.apply(this,arguments)}return e(u,null,[{key:"build",value:function(t){var n=l(i(u),"build",this).call(this,t,Bt);n.el,n.options;var r=n.player;return function(t){t.play()}(r),r}}]),u}(L)}));
__SVGATOR_PLAYER__.build({"root":"ecrh73o0jzg1","animations":[{"duration":2000,"direction":1,"iterations":0,"fill":1,"alternate":false,"elements":{"ecrh73o0jzg27":{"opacity":[{"t":1000,"v":0},{"t":1500,"v":1},{"t":2000,"v":0}]},"ecrh73o0jzg30":{"opacity":[{"t":0,"v":1,"e":[0.42,0,0.58,1]},{"t":600,"v":0,"e":[0.42,0,0.58,1]},{"t":1100,"v":1,"e":[0.42,0,0.58,1]}]},"ecrh73o0jzg32":{"opacity":[{"t":770,"v":1,"e":[0.42,0,0.58,1]},{"t":1270,"v":0,"e":[0.42,0,0.58,1]},{"t":1770,"v":1,"e":[0.42,0,0.58,1]}]}}}],"options":{"start":"load","hover":"freeze","click":"freeze","scroll":25,"font":"embed","exportedIds":"unique","title":"server"},"animationSettings":{"duration":2000,"direction":1,"iterations":0,"fill":1,"alternate":false}})]]></script></svg>