<svg id="e32633d5-4e35-4ab9-b1ae-f39b5cc02773" data-name="abc52cdf-0562-48d4-8db2-bcbedaf5a888" xmlns="http://www.w3.org/2000/svg" xmlns:xlink="http://www.w3.org/1999/xlink" viewBox="0 0 184.57 292.73"><defs><style>.aac6dbea-604b-48f3-bd6a-2eb4a9953882{fill:none;}.b7fd6ed8-0f1e-4531-937c-110c6ab5bd3f{fill:#2d3f51;}.a8115b03-cfec-487b-a146-35b0291f9950{clip-path:url(#b0a8d0f0-42db-4d5f-b300-2814bc2168d0);}.a3e6f5a6-e56e-4e65-b8eb-2aabb2ee582a{fill:#304356;}.afda8b68-6ac0-446b-afd9-9ad65d4d98b0{fill:#2f4254;}.ba9aae98-6f73-47ed-9b89-e7b24471e95f{fill:#2e4052;}.b84088bb-ad8f-4693-b82b-dbe0296064a0{fill:#2d3f50;}.ff046e10-7146-4ba3-b78d-067d75522a73{fill:#2c3d4e;}.e97451e2-6b48-4e06-ba81-306b0b62ecbb{fill:#2b3c4c;}.eac2ec5c-2a4a-4b93-b71b-8c22de402ca4{fill:#2a3a4a;}.eaac2642-2863-466b-ba9d-a060fba8e42c{fill:#293949;}.a1e5f9d7-2524-4c61-ae9b-9796018e737c{fill:#283747;}.ba7818d1-195e-421f-9349-b0c4f91b32ba{fill:#263645;}.a17a720c-f66e-47d3-9574-e31d6d725b73{fill:#253543;}.a856d2ca-5b48-487a-a740-ca089ebb9a2c{fill:#243341;}.a4cc7c40-5cfe-4502-80a7-d9729a75d3e2{fill:#23323f;}.acdd7173-61f5-4142-92ec-74c03ca57346{fill:#22303d;}.b943eed9-1f25-4a44-a51c-96c5f28241c1{fill:#212f3c;}.ba3e760d-5830-4cbb-b8e8-67e84aa3a3f0{fill:#202d3a;}.e9d30a19-fa12-46c6-a5bb-26a2e0cf1390{fill:#1f2c38;}.acc2b0c8-bf59-4df1-a1c1-b6e63c70eff6{fill:#1e2a36;}.e7309597-1970-4513-9cff-b2ca7d5853ca{fill:#1d2934;}.f2aa6b29-e443-4ab2-9353-66abff85aa4c{fill:#1c2732;}.abbd3e0e-3765-4572-9a0a-8a231ccb56de{fill:#1b2630;}.f4cfbca9-4e3d-4bfc-b4f7-315a15cf4420{fill:#314557;}.bfbcd094-398b-42c4-a20c-b6adc12c8379{fill:#324659;}.a783ce55-6aa5-439e-b3c0-ff6d6962c9e0{fill:#33485b;}.a0200785-5b4f-40ef-9d38-9cebe9e2135a{fill:#bac1c4;}.a86f1f82-f67d-44f1-a3d6-ec3fa3c4568a{clip-path:url(#babc11c7-4311-4f2f-a31a-337bd072df7b);}.bb69ad6c-489b-4fa9-b3ea-642d65c20c4e{fill:#004f85;}.b7d31d63-05eb-48dc-985a-47385a477654{clip-path:url(#acd01ea0-2bcc-408e-9f1f-b86480130e41);}.e6c93b65-6fe9-4a1e-a21a-ab368c323550{clip-path:url(#fed34824-26b6-4a40-b678-0f40d073a3ed);}.f17b6d75-5c75-4dd7-ba17-5955aea1d1c8{clip-path:url(#a468b8ed-c5f2-40f9-a5b4-6de9c818a154);}.b2a35b68-6007-4dca-849a-115a4595df84{clip-path:url(#bcfa9a42-6601-44d4-a94e-e5241b22064e);}.ffcbf3ad-0865-483a-8639-c908ec17d887{fill:#0085e0;}.e63ff196-d38a-42f8-8c39-6f9d45f08579{fill:#0082db;}.e3254979-1abf-497a-bf4d-1f90b9e61590{fill:#007fd6;}.bd0704aa-26b5-4e05-a0aa-96fe0affbf69{fill:#007cd1;}.a67bb110-de8c-4932-87f4-31161466e301{fill:#0079cc;}.a4f5dd9f-6884-4219-a5ba-9a81c623f2ea{fill:#0076c7;}.b608a088-a196-4a2a-9f6a-b4f601385a8c{fill:#0073c2;}.aa2e2574-95a3-4eb1-bf1c-57c4ccbeb12d{fill:#0070bd;}.f06def13-b5c2-4242-b341-785cb3af8ac3{fill:#006db8;}.a6fbff56-a20a-48fd-8a65-397dcc28928b{fill:#006ab3;}.ee425d7b-339b-422f-9109-d364215f1576{fill:#0067ad;}.edb30823-e2bc-445a-80ec-b6202dcf923a{fill:#0064a8;}.b5f2ccf5-9859-4b9b-8c16-ce98dd65bef2{fill:#0061a3;}.a8a98d23-e61d-44e5-a760-68c9db0f7a3e{fill:#005e9e;}.a1b48d35-493d-4e83-8872-86172c13ed72{fill:#005b99;}.e73d5ba5-367b-41bb-b001-ecfe463d54dd{fill:#005894;}.bb15d96c-91ce-4c19-83f2-05b290d2bd2d{fill:#00558f;}.e17fa239-03e6-46f5-b532-5104acd64a43{fill:#00528a;}.a51b526a-9a5b-486c-aff6-bb79d3b92189{clip-path:url(#ac10c64f-4e9d-4403-89c9-3ee5a3f9d089);}.f1e8281c-18dc-4e00-9594-36d20e641ab2{clip-path:url(#b6af996a-730c-4462-bfc1-2184175ab592);}.b35cd2b6-af57-4515-bca6-177ff30587f6{clip-path:url(#a96a1480-afe3-49e9-8e2b-38bf320b8992);}.ed7a80e5-f8a3-4731-9356-1920ebdd62ab{fill:#0088e6;}.a619a73d-4efc-48c5-a8bf-40cf768830f7{clip-path:url(#b8ba531f-0ade-44af-808e-e555631a7ba4);}.b28e9e6f-943d-4533-9627-3d8185cf32b2{fill:#008beb;}.ff895d80-72be-4897-9f9f-a2e8f193f793{fill:#008ef0;}.f1bf9df4-426b-4a58-a3c8-c24efd68fd91{fill:#0091f5;}.b7ddf034-2e56-484f-9f26-799a84f7d8e3{clip-path:url(#f0f01620-bdd4-4bb2-9588-58b28d145099);}.f0c91c3e-33a7-431a-b96f-e1119240938f{clip-path:url(#a35bdaaf-c8f4-40aa-8f3e-ecf3dece4a94);}.ec79fb95-629b-4c3e-890a-e11deee00a7a{clip-path:url(#bbfc6c2a-7ec7-4104-8bce-dafe5897e928);}.e8adb6bd-f869-4da1-9247-e3e234272b90{fill:#0083dd;}</style><clipPath id="b0a8d0f0-42db-4d5f-b300-2814bc2168d0" transform="translate(-0.89 -1.38)"><path class="aac6dbea-604b-48f3-bd6a-2eb4a9953882" d="M154,245.65V235.17h1.55c16.81.73,30.59,12.9,29.87,29.71A30.46,30.46,0,0,1,155,294h-1.34a30.43,30.43,0,0,1-29.13-31.71v0c.7-16.29,13.37-27.12,29.45-27.12v10.48c-10.75.07-18.52,6.79-19,17.09a20,20,0,0,0,19.11,20.82H155a20,20,0,0,0,19.93-19.12c.48-10.33-8.19-18.2-19.85-18.78C154.86,245.78,154.34,245.65,154,245.65Z"/></clipPath><clipPath id="babc11c7-4311-4f2f-a31a-337bd072df7b" transform="translate(-0.89 -1.38)"><polygon class="aac6dbea-604b-48f3-bd6a-2eb4a9953882" points="12.53 131.65 12.23 131.93 12.53 131.63 12.53 131.65"/></clipPath><clipPath id="acd01ea0-2bcc-408e-9f1f-b86480130e41" transform="translate(-0.89 -1.38)"><path class="aac6dbea-604b-48f3-bd6a-2eb4a9953882" d="M63.05,129.54l.3-.28-.3.3Z"/></clipPath><clipPath id="fed34824-26b6-4a40-b678-0f40d073a3ed" transform="translate(-0.89 -1.38)"><polygon class="aac6dbea-604b-48f3-bd6a-2eb4a9953882" points="63.35 131.93 63.05 131.65 63.05 131.65 63.35 131.93"/></clipPath><clipPath id="a468b8ed-c5f2-40f9-a5b4-6de9c818a154" transform="translate(-0.89 -1.38)"><polygon class="aac6dbea-604b-48f3-bd6a-2eb4a9953882" points="12.23 129.26 12.53 129.54 12.53 129.54 12.23 129.26"/></clipPath><clipPath id="bcfa9a42-6601-44d4-a94e-e5241b22064e" transform="translate(-0.89 -1.38)"><polygon class="aac6dbea-604b-48f3-bd6a-2eb4a9953882" points="63.05 131.63 66.05 134.63 9.56 134.63 12.56 131.63 63.05 131.63"/></clipPath><clipPath id="ac10c64f-4e9d-4403-89c9-3ee5a3f9d089" transform="translate(-0.89 -1.38)"><polygon class="aac6dbea-604b-48f3-bd6a-2eb4a9953882" points="12.23 131.93 12.53 131.63 12.53 131.63 12.23 131.93"/></clipPath><clipPath id="b6af996a-730c-4462-bfc1-2184175ab592" transform="translate(-0.89 -1.38)"><polygon class="aac6dbea-604b-48f3-bd6a-2eb4a9953882" points="12.53 131.65 12.23 131.93 9.56 134.6 9.56 126.6 12.23 129.27 12.53 129.55 12.53 131.65"/></clipPath><clipPath id="a96a1480-afe3-49e9-8e2b-38bf320b8992" transform="translate(-0.89 -1.38)"><polygon class="aac6dbea-604b-48f3-bd6a-2eb4a9953882" points="63.05 131.65 63.05 131.65 63.35 131.95 63.05 131.65"/></clipPath><clipPath id="b8ba531f-0ade-44af-808e-e555631a7ba4" transform="translate(-0.89 -1.38)"><path class="aac6dbea-604b-48f3-bd6a-2eb4a9953882" d="M63.05,129.54l.3-.28L66,126.59v8l-2.67-2.67-.3-.28Z"/></clipPath><clipPath id="f0f01620-bdd4-4bb2-9588-58b28d145099" transform="translate(-0.89 -1.38)"><polygon class="aac6dbea-604b-48f3-bd6a-2eb4a9953882" points="12.53 129.56 9.53 126.56 65.99 126.56 62.99 129.56 12.53 129.56"/></clipPath><clipPath id="a35bdaaf-c8f4-40aa-8f3e-ecf3dece4a94" transform="translate(-0.89 -1.38)"><polygon class="aac6dbea-604b-48f3-bd6a-2eb4a9953882" points="12.53 129.54 12.53 129.54 12.23 129.24 12.53 129.54"/></clipPath><clipPath id="bbfc6c2a-7ec7-4104-8bce-dafe5897e928" transform="translate(-0.89 -1.38)"><polygon class="aac6dbea-604b-48f3-bd6a-2eb4a9953882" points="63.35 129.26 63.05 129.56 63.05 129.56 63.35 129.26"/></clipPath></defs><title>tube-c</title><path class="b7fd6ed8-0f1e-4531-937c-110c6ab5bd3f" d="M154,245.65c.36,0,.88.16,1.1,0,11.66.58,20.33,8.45,19.85,18.78A20,20,0,0,1,155,283.58h-.89A20,20,0,0,1,135,262.78C135.46,252.44,143.23,245.72,154,245.65Z" transform="translate(-0.89 -1.38)"/><g class="a8115b03-cfec-487b-a146-35b0291f9950"><path class="a3e6f5a6-e56e-4e65-b8eb-2aabb2ee582a" d="M154,245.65V235.17h1.55c16.81.73,30.59,12.9,29.87,29.71A30.46,30.46,0,0,1,155,294h-1.34a30.43,30.43,0,0,1-29.13-31.71v0c.7-16.29,13.37-27.12,29.45-27.12v10.48c-10.75.07-18.52,6.79-19,17.09a20,20,0,0,0,19.11,20.82H155a20,20,0,0,0,19.93-19.12c.48-10.33-8.19-18.2-19.85-18.78-.22.13-.74,0-1.1,0" transform="translate(-0.89 -1.38)"/><path class="a3e6f5a6-e56e-4e65-b8eb-2aabb2ee582a" d="M154,241.23c-.06.14-.39.19-.38.35s.26.19.38.28v3.79c-10.75.07-18.52,6.79-19,17.09a20,20,0,0,0,19.11,20.82H155a20,20,0,0,0,19.93-19.12c.48-10.33-8.19-18.2-19.85-18.78-.22.13-.74,0-1.1,0v-3.79H154c.12.16.32.49.52.44s.38-1.59.06-1.73a.37.37,0,0,0-.32.1,2.14,2.14,0,0,0-.32.57v-6.06h1.55c16.81.73,30.59,12.9,29.87,29.71A30.46,30.46,0,0,1,155,294.05h-1.34a30.43,30.43,0,0,1-29.13-31.71v0c.7-16.29,13.37-27.12,29.45-27.12v6.06" transform="translate(-0.89 -1.38)"/><path class="afda8b68-6ac0-446b-afd9-9ad65d4d98b0" d="M154,239.37c-.93,1.29-3.75.36-3.72,2.45,0,.53.51,1.5,3.72,2.09v1.74c-10.75.07-18.52,6.79-19,17.09a20,20,0,0,0,19.11,20.82H155a20,20,0,0,0,19.93-19.12c.48-10.33-8.19-18.2-19.85-18.78-.22.13-.74,0-1.1,0v-1.74H154c.77.23.84,0,1-.65a.43.43,0,0,0,.1.34c.5.6,1.75.55,2.52.69,1.69.32,10.34,2.25,15.37,9.5a20.45,20.45,0,0,1,3.2,7.83c.46,2.49-.14,5.1.86,7.52.21.5.36,1.52.89,1.55,2,.11,10-13.07-1-24.51-8.81-9.25-21-7.59-21.7-6.87-.06.07,0,.28-.06.32-.49.22-.92-.74-1.28-.24v-4.2h1.55c16.81.73,30.59,12.9,29.87,29.71A30.46,30.46,0,0,1,155,294.06h-1.34a30.43,30.43,0,0,1-29.13-31.71v0c.7-16.29,13.37-27.12,29.45-27.12v4.2" transform="translate(-0.89 -1.38)"/><path class="ba9aae98-6f73-47ed-9b89-e7b24471e95f" d="M154,238.58c-.28.38-1.06.32-1.52.46-4.36,1.33-7,4.51-6.24,5.73.28.47,1.26,0,1.8,0s5.92.2,6,.21v.68c-10.75.07-18.52,6.79-19,17.09a20,20,0,0,0,19.11,20.82H155A20,20,0,0,0,175,264.45c.48-10.33-8.19-18.2-19.85-18.78-.22.13-.74,0-1.1,0V245h.06a3,3,0,0,0,.94-.15c.27,0,25.89,2.14,19.67,27.65-.11.46-.55,1.24-.2,1.57,1.51,1.42,8.9-3.56,8.68-14.52-.39-19.46-26.38-22.37-27.74-21.24-.14.12-.1.41-.14.59-.25-.25-.86-.84-1.27-.28V235.2h1.55c16.81.73,30.59,12.9,29.87,29.71A30.46,30.46,0,0,1,155,294.06h-1.34a30.43,30.43,0,0,1-29.13-31.71v0c.7-16.29,13.37-27.12,29.45-27.12v3.41" transform="translate(-0.89 -1.38)"/><path class="b84088bb-ad8f-4693-b82b-dbe0296064a0" d="M154,238c-.26.32-.94.19-1.34.27-3.06.62-7.54,3.29-9,5.4-8.42,11.86-9.14,15.61-8.79,21.33a20.3,20.3,0,0,0,21.69,18.8l.26,0c.19,0,19.75-3.55,25-14.91,3.77-8.1,1-18.82-6.48-24.94a26,26,0,0,0-20.25-5.84c-.38,0-.8-.51-1.14-.09v-2.83h1.55c16.81.73,30.59,12.9,29.87,29.71A30.46,30.46,0,0,1,155,294h-1.34a30.43,30.43,0,0,1-29.13-31.71v0c.7-16.29,13.37-27.12,29.45-27.12V238" transform="translate(-0.89 -1.38)"/><path class="ff046e10-7146-4ba3-b78d-067d75522a73" d="M154,237.59c-21.64,4.23-25.85,32.08-11,42.83,14.14,10.28,44.2-.16,40.5-23.19-2-12.23-14.92-21.2-28.29-19.59-.39,0-.77-.07-1.16,0v-2.42h1.55c16.81.73,30.59,12.9,29.87,29.71A30.46,30.46,0,0,1,155,294h-1.34a30.43,30.43,0,0,1-29.13-31.71v0c.7-16.29,13.37-27.12,29.45-27.12v2.42" transform="translate(-0.89 -1.38)"/><path class="e97451e2-6b48-4e06-ba81-306b0b62ecbb" d="M154,237.2c-.36.43-1.27.23-1.82.33a21.3,21.3,0,0,0-12.57,7.73c-4.61,6.32-6.61,13-6,19.82,1,10.56,10.12,21.21,25,20.13,25.39-1.85,32.76-28.46,17-41.54a28.24,28.24,0,0,0-20.45-6.45c-.4.08-.83-.45-1.19,0v-2h1.55c16.81.73,30.59,12.9,29.87,29.71A30.46,30.46,0,0,1,155,294.08h-1.34a30.43,30.43,0,0,1-29.13-31.71v0c.7-16.29,13.37-27.12,29.45-27.12v2" transform="translate(-0.89 -1.38)"/><path class="eac2ec5c-2a4a-4b93-b71b-8c22de402ca4" d="M154,236.87c-.17.19-.59.07-.84.1-9.14,1.12-13.84,7.46-15.6,9.85a28.44,28.44,0,0,0-4.47,18.3c1.07,11,11,21.78,25.65,20.75,25.76-1.8,33.07-28.91,17-42.3a29.09,29.09,0,0,0-21.73-6.7v-1.7h1.55c16.81.73,30.59,12.9,29.87,29.71A30.46,30.46,0,0,1,155,294h-1.34a30.43,30.43,0,0,1-29.13-31.71v0c.7-16.29,13.37-27.12,29.45-27.12v1.7" transform="translate(-0.89 -1.38)"/><path class="eaac2642-2863-466b-ba9d-a060fba8e42c" d="M154,236.61c-.4.45-1.39.19-2,.27-4.35.58-10.48,3.47-13.78,7.86a27.83,27.83,0,0,0-5.68,20.41c1.08,11.15,11.2,22.18,26.27,21.35,23.92-1.33,34.35-26.82,17.43-42.63-8.85-8.26-22-7.57-22.26-7.26v-1.44h1.55c16.81.73,30.59,12.9,29.87,29.71A30.46,30.46,0,0,1,155,294h-1.34a30.43,30.43,0,0,1-29.13-31.71v0c.7-16.29,13.37-27.12,29.45-27.12v1.44" transform="translate(-0.89 -1.38)"/><path class="a1e5f9d7-2524-4c61-ae9b-9796018e737c" d="M154,236.38c-.4.45-1.4.17-2,.25-4.17.51-10.22,2.54-15.31,9.22-1.36,1.78-5.7,8.43-4.64,19.33,1.1,11.32,11.44,22.61,26.87,21.92,23.9-1.06,34.45-27.32,17.42-43.32-8.89-8.31-22.07-7.72-22.34-7.41v-1.21h1.55c16.81.73,30.59,12.9,29.87,29.71A30.46,30.46,0,0,1,155,294h-1.34a30.43,30.43,0,0,1-29.13-31.71v0c.7-16.29,13.37-27.12,29.45-27.12v1.21" transform="translate(-0.89 -1.38)"/><path class="ba7818d1-195e-421f-9349-b0c4f91b32ba" d="M154,236.16c-.41.46-1.42.16-2,.23a23,23,0,0,0-15.63,9.07c-1.79,2.32-5.85,8.89-4.79,19.75,1.11,11.42,11.92,23.25,27.46,22.44,23.9-1.25,34.47-27.93,17.39-43.92-9.19-8.61-22.34-7.64-22.4-7.57v-1h1.55c16.81.73,30.59,12.9,29.87,29.71A30.46,30.46,0,0,1,155,294h-1.34a30.43,30.43,0,0,1-29.13-31.71v0c.7-16.29,13.37-27.12,29.45-27.12v1" transform="translate(-0.89 -1.38)"/><path class="a17a720c-f66e-47d3-9574-e31d6d725b73" d="M154,236c-.1.11-.35,0-.5,0-7.82.54-13.62,4.4-16.45,7.83a27.33,27.33,0,0,0-6.12,20.14c1.61,16.54,15.71,24.81,28.15,24.19,24.16-1.2,34.71-28.22,17.37-44.49-9.12-8.56-22.17-8-22.45-7.71v-.79h1.55c16.81.73,30.59,12.9,29.87,29.71A30.46,30.46,0,0,1,155,294h-1.34a30.43,30.43,0,0,1-29.13-31.71v0c.7-16.29,13.37-27.12,29.45-27.12v.79" transform="translate(-0.89 -1.38)"/><path class="a856d2ca-5b48-487a-a740-ca089ebb9a2c" d="M154,235.78c-.43.47-1.48.13-2.12.19a23.82,23.82,0,0,0-16.17,8.81c-2.9,3.65-6.14,10.16-5.13,20.5,1.16,11.86,12.41,24.17,28.57,23.39,24.38-1.18,34.91-28.54,17.34-45-9.2-8.65-22.21-8.14-22.49-7.83v-.63h1.55c16.81.73,30.59,12.9,29.87,29.71A30.46,30.46,0,0,1,155,294.07h-1.34a30.43,30.43,0,0,1-29.13-31.71v0c.7-16.29,13.37-27.12,29.45-27.12v.57" transform="translate(-0.89 -1.38)"/><path class="a4cc7c40-5cfe-4502-80a7-d9729a75d3e2" d="M154,235.65c-.44.47-1.5.12-2.14.18a24.45,24.45,0,0,0-16.42,8.64c-6.5,8.07-5.62,17.67-5.33,20.83,1.11,12,13,24.49,28.8,23.84,24.27-1,35.13-29.08,17.62-45.54-9-8.45-22.26-8.25-22.53-7.95v-.48h1.55c16.81.73,30.59,12.9,29.87,29.71A30.46,30.46,0,0,1,155,294h-1.34a30.43,30.43,0,0,1-29.13-31.71v0c.7-16.29,13.37-27.12,29.45-27.12v.48" transform="translate(-0.89 -1.38)"/><path class="acdd7173-61f5-4142-92ec-74c03ca57346" d="M154,235.52c-.45.48-1.52.11-2.17.16-1.06.08-10.48,1-16.65,8.52-6.78,8.29-5.83,17.95-5.52,21.13,1.22,12.42,13.42,25.14,29.64,24.27,24.56-1.33,35-29.29,17.25-46-9.24-8.69-22.27-8.35-22.55-8v-.35h1.55c16.81.73,30.59,12.9,29.87,29.71A30.46,30.46,0,0,1,155,294.06h-1.34a30.43,30.43,0,0,1-29.13-31.71v0C125.23,246,137.9,235.2,154,235.2v.35" transform="translate(-0.89 -1.38)"/><path class="b943eed9-1f25-4a44-a51c-96c5f28241c1" d="M154,235.42c-.46.48-1.54.09-2.2.13a25.28,25.28,0,0,0-17.35,9c-2.43,2.91-6.36,9.45-5.27,20.54,1.45,14.69,15,25.9,30.19,25,26.28-1.58,33.61-32.5,16.74-46.88A32.39,32.39,0,0,0,154,235.47a3.16,3.16,0,0,1,1.55-.22c16.81.73,30.59,12.9,29.87,29.71A30.46,30.46,0,0,1,155,294.11h-1.34a30.43,30.43,0,0,1-29.13-31.71v0c.7-16.29,13.37-27.12,29.45-27.12v.25" transform="translate(-0.89 -1.38)"/><path class="ba3e760d-5830-4cbb-b8e8-67e84aa3a3f0" d="M154,235.32c-.46.48-1.55.09-2.21.12a25.33,25.33,0,0,0-17.08,8.24c-4.13,4.41-6.57,11.81-6.21,18.86a29.2,29.2,0,0,0,28.31,28,27.2,27.2,0,0,0,26.51-37.49,27.39,27.39,0,0,1,2.1,11.86A30.46,30.46,0,0,1,155,294.06h-1.34a30.43,30.43,0,0,1-29.13-31.71v0C125.23,246,137.9,235.2,154,235.2v.15" transform="translate(-0.89 -1.38)"/><path class="e9d30a19-fa12-46c6-a5bb-26a2e0cf1390" d="M154,235.24c-.46.49-1.56.08-2.23.11a26,26,0,0,0-17.29,8.11c-4.54,4.91-6.87,12.14-6.39,19.82,1.08,17.37,16.1,27.89,29.39,27.68,19.91-.32,30.29-17.07,27.48-32.52a28.62,28.62,0,0,1,.46,6.47A30.46,30.46,0,0,1,155,294.06h-1.34a30.43,30.43,0,0,1-29.13-31.71v0C125.23,246,137.9,235.2,154,235.2v.07" transform="translate(-0.89 -1.38)"/><path class="acc2b0c8-bf59-4df1-a1c1-b6e63c70eff6" d="M154,235.19c-.47.49-1.58.07-2.25.1a26.15,26.15,0,0,0-17.49,8c-3.3,3.51-7.12,9.84-6.61,20a29.74,29.74,0,0,0,29.17,28.16c14,.44,28.52-10.06,28.59-28.37v1.83A30.46,30.46,0,0,1,155,294.06h-1.34a30.43,30.43,0,0,1-29.13-31.71v0c.7-16.29,13.37-27.12,29.45-27.12h0" transform="translate(-0.89 -1.38)"/><path class="e7309597-1970-4513-9cff-b2ca7d5853ca" d="M154,235.17c-.48.49-1.59.06-2.28.08-1.76.06-10.89.73-17.61,7.75-6.88,7.19-7.18,16.57-7,20.26a30.39,30.39,0,0,0,29.79,28.64,27.64,27.64,0,0,0,28.28-24.26A30.47,30.47,0,0,1,155,294.06h-1.34a30.43,30.43,0,0,1-29.13-31.71v0C125.23,246,137.9,235.2,154,235.2h0" transform="translate(-0.89 -1.38)"/><path class="f2aa6b29-e443-4ab2-9353-66abff85aa4c" d="M148.66,235.58c-27.56,5.36-28.86,38.2-8.16,51.9,14.66,9.71,37.41,5.09,43.67-15.21A30.46,30.46,0,0,1,155,294.06h-1.34a30.43,30.43,0,0,1-29.13-31.71v0c.64-14.84,11.21-25.14,25.24-26.86l-1.11.15" transform="translate(-0.89 -1.38)"/><path class="abbd3e0e-3765-4572-9a0a-8a231ccb56de" d="M143.68,236.78c-26,9.63-21.63,43.82,1,53.56,14.59,6.3,30.34.88,37.46-12.87a30.48,30.48,0,0,1-27.1,16.6H153.7a30.43,30.43,0,0,1-29.13-31.71v0a27.32,27.32,0,0,1,19.51-25.63l-.36.11" transform="translate(-0.89 -1.38)"/><path class="a3e6f5a6-e56e-4e65-b8eb-2aabb2ee582a" d="M178.39,266c-3.49-11.55-4.06-12.16-6.81-15.06a25.9,25.9,0,0,0-9-6c-7.27-3.22-7.27-3.22-7.32-3.32a.92.92,0,0,1,.06-.69c2.06-3.71,21.4-2,26,12.92,2.59,8.32-1.16,13.62-2.56,13.19-.31-.09-.3-.69-.39-1" transform="translate(-0.89 -1.38)"/><path class="f4cfbca9-4e3d-4bfc-b4f7-315a15cf4420" d="M178.59,261.78c-1.87-5.18-3.79-8.57-6.44-11.35a37.69,37.69,0,0,0-10.93-7.65c-.43-.18-1.24-.22-1.4-.66,0,0,.68-1.66.7-1.67s8.12-1.51,15.57,5.74c1.14,1.1,6.72,7,5.18,14.44-.12.56-.07,1.46-.49,1.86,0,0-1.75.39-1.77.38-.3-.17-.3-.76-.42-1.09" transform="translate(-0.89 -1.38)"/><path class="bfbcd094-398b-42c4-a20c-b6adc12c8379" d="M178.32,258.21c-.12-.09-.17-.3-.23-.43a30.58,30.58,0,0,0-2.83-4.9,29.83,29.83,0,0,0-4-4.54c-.76-.7-1.82-1.62-2.64-2.26a24.19,24.19,0,0,1-2.91-2,5.44,5.44,0,0,1-1-2.33c3.52.28,7.16.56,12.37,6.35,4.56,5.06,3.42,10.85,3.22,11l-2-.81" transform="translate(-0.89 -1.38)"/><path class="ba3e760d-5830-4cbb-b8e8-67e84aa3a3f0" d="M171.91,240.09c-8.32-4.69-14.81-5-17.93-4.77v-.15h1.55a34.27,34.27,0,0,1,16.55,5l-.17-.1" transform="translate(-0.89 -1.38)"/><path class="e9d30a19-fa12-46c6-a5bb-26a2e0cf1390" d="M162,236.08a34.74,34.74,0,0,0-8-.84v-.07h1.55a35.58,35.58,0,0,1,10.59,2.1l-2.22-.73c-.57-.15-1.32-.36-1.9-.49" transform="translate(-0.89 -1.38)"/><path class="a783ce55-6aa5-439e-b3c0-ff6d6962c9e0" d="M177.6,253.59a13.88,13.88,0,0,1-1.08-1.35c-.46-.57-1.23-1.18-1.7-1.74s-.75-1-1.08-1.41a37.3,37.3,0,0,1-2.42-3,20.81,20.81,0,0,0-1.62-2c2.76,1.12,8.49,3.46,9.26,10.51-.41-.33-1-.72-1.36-1.08" transform="translate(-0.89 -1.38)"/><path class="acc2b0c8-bf59-4df1-a1c1-b6e63c70eff6" d="M156.48,235.26c-1.23-.08-2.45-.07-2.5-.07h1.55a37.1,37.1,0,0,1,5.15.6l-2.36-.36c-.55-.06-1.29-.14-1.84-.18" transform="translate(-0.89 -1.38)"/><path class="e7309597-1970-4513-9cff-b2ca7d5853ca" d="M155.21,235.19h0" transform="translate(-0.89 -1.38)"/></g><path class="a0200785-5b4f-40ef-9d38-9cebe9e2135a" d="M14.9,146.87c-1.93,0-3.06-1.56-3.65-5,0-.31-.64-26-.41-40a10.81,10.81,0,0,0-.9-4.52l-8.65-20a.43.43,0,0,1,0-.16c0-1.16,1.22-1.74,3.53-1.74,8.22,0,30,7,47.94,14,17.59,6.81,37.15,15.7,39.32,20.22a1.54,1.54,0,0,1-.1,1.72.36.36,0,0,1-.18.12l-20.46,6.27C63,128,55.06,135.78,47.67,140.66c-6,4-11.52,6.06-16.36,6.06h0a15.56,15.56,0,0,1-5.41-.94l-1.36-.5a5.31,5.31,0,0,0-1.93-.34,12.88,12.88,0,0,0-4.4,1.09A10,10,0,0,1,14.9,146.87Z" transform="translate(-0.89 -1.38)"/><path class="a0200785-5b4f-40ef-9d38-9cebe9e2135a" d="M4.8,75.78c16.48,0,91.75,29.2,86.87,35.28l-20.54,6.38c-8.48,10.48-16.43,18.09-23.66,22.9q-9,6-16.15,6a15.09,15.09,0,0,1-5.28-.92l-1.36-.5a5.81,5.81,0,0,0-2.06-.36c-2.94,0-5.65,2-7.71,2-1.51,0-2.66-1.06-3.28-4.72,0,0-.64-25.75-.4-40a11.42,11.42,0,0,0-.94-4.68l-8.65-20c0-1,1.16-1.38,3.16-1.38m0-.75c-2.56,0-3.87.71-3.91,2.11a.6.6,0,0,0,.07.32l8.64,20a10.61,10.61,0,0,1,.88,4.37c-.24,14.07.39,39.74.4,40v.11c.42,2.49,1.26,5.34,4,5.34a10.36,10.36,0,0,0,3.45-.9,12.25,12.25,0,0,1,4.26-1.06,5.05,5.05,0,0,1,1.8.31l1.36.51a15.87,15.87,0,0,0,5.54,1c4.91,0,10.49-2.06,16.57-6.13,7.4-4.93,15.37-12.62,23.68-22.87l20.34-6.36a.84.84,0,0,0,.37-.25,1.93,1.93,0,0,0,.14-2.11C90.17,104.78,70.52,95.78,52.87,89c-18-7-39.82-14-48.08-14Z" transform="translate(-0.89 -1.38)"/><path class="a0200785-5b4f-40ef-9d38-9cebe9e2135a" d="M155,284.53c-.59,0-1.2,0-1.8-.06-14.2-.92-25.32-13.21-25.32-28v-25.1H65.4a54.66,54.66,0,0,1-54.6-54.59v-56A27.15,27.15,0,0,1,37.92,93.65q.9,0,1.8.06c14.2.92,25.32,13.21,25.32,28v36.68a18.84,18.84,0,0,0,18.82,18.82H155a27.17,27.17,0,0,1,27.13,27.12v53.14A27.13,27.13,0,0,1,155,284.6h0Z" transform="translate(-0.89 -1.38)"/><path class="a0200785-5b4f-40ef-9d38-9cebe9e2135a" d="M37.93,94a17.74,17.74,0,0,1,1.78.06c14.22.92,25,13.36,25,27.6v36.69A19.19,19.19,0,0,0,83.9,177.52H155a26.75,26.75,0,0,1,26.75,26.74V257.4A26.75,26.75,0,0,1,155,284.15h0c-.59,0-1.18,0-1.78,0-14.22-.92-25-13.36-25-27.61V231H65.4a54.21,54.21,0,0,1-54.22-54.22h0v-56A26.75,26.75,0,0,1,37.88,94h0m0-.75a27.53,27.53,0,0,0-27.5,27.55v56a55,55,0,0,0,55,55H127.5v24.73c0,15,11.28,27.42,25.67,28.35.61,0,1.23.06,1.83.06a27.54,27.54,0,0,0,27.5-27.5V204.26A27.54,27.54,0,0,0,155,176.78H83.87a18.46,18.46,0,0,1-18.44-18.44v-36.7c0-15-11.28-27.42-25.67-28.35Q38.83,93.23,37.93,93.23Z" transform="translate(-0.89 -1.38)"/><g class="a86f1f82-f67d-44f1-a3d6-ec3fa3c4568a"><path class="bb69ad6c-489b-4fa9-b3ea-642d65c20c4e" d="M12.23,131.93l.3-.3h0l-.18.17-.12.11" transform="translate(-0.89 -1.38)"/></g><g class="b7d31d63-05eb-48dc-985a-47385a477654"><path class="bb69ad6c-489b-4fa9-b3ea-642d65c20c4e" d="M63.35,129.26l-.3.3h0l.19-.16.11-.12" transform="translate(-0.89 -1.38)"/></g><g class="e6c93b65-6fe9-4a1e-a21a-ab368c323550"><path class="bb69ad6c-489b-4fa9-b3ea-642d65c20c4e" d="M63.35,131.93l-.18-.17-.12-.11h0l.3.3" transform="translate(-0.89 -1.38)"/></g><g class="f17b6d75-5c75-4dd7-ba17-5955aea1d1c8"><path class="bb69ad6c-489b-4fa9-b3ea-642d65c20c4e" d="M12.23,129.26l.18.18.12.1h0l-.3-.3" transform="translate(-0.89 -1.38)"/></g><g class="b2a35b68-6007-4dca-849a-115a4595df84"><path class="ffcbf3ad-0865-483a-8639-c908ec17d887" d="M12.53,131.63H63.05l.08.08H12.45l.08-.08" transform="translate(-0.89 -1.38)"/><path class="e63ff196-d38a-42f8-8c39-6f9d45f08579" d="M12.45,131.71H63.13l.22.21H12.24l.21-.21" transform="translate(-0.89 -1.38)"/><path class="e3254979-1abf-497a-bf4d-1f90b9e61590" d="M12.24,131.92H63.35l.19.2H12l.2-.2" transform="translate(-0.89 -1.38)"/><path class="bd0704aa-26b5-4e05-a0aa-96fe0affbf69" d="M12,132.12h51.5l.17.17H11.87l.17-.17" transform="translate(-0.89 -1.38)"/><path class="a67bb110-de8c-4932-87f4-31161466e301" d="M11.87,132.29H63.71l.16.16H11.71l.16-.16" transform="translate(-0.89 -1.38)"/><path class="a4f5dd9f-6884-4219-a5ba-9a81c623f2ea" d="M11.71,132.45H63.87l.16.15H11.56l.15-.15" transform="translate(-0.89 -1.38)"/><path class="b608a088-a196-4a2a-9f6a-b4f601385a8c" d="M11.56,132.6H64l.14.15H11.41l.15-.15" transform="translate(-0.89 -1.38)"/><path class="aa2e2574-95a3-4eb1-bf1c-57c4ccbeb12d" d="M11.41,132.78H64.17l.14.14h-53l.14-.14" transform="translate(-0.89 -1.38)"/><path class="f06def13-b5c2-4242-b341-785cb3af8ac3" d="M11.27,132.89h53l.14.13H11.14l.13-.13" transform="translate(-0.89 -1.38)"/><path class="a6fbff56-a20a-48fd-8a65-397dcc28928b" d="M11.14,133H64.45l.13.14H11l.14-.14" transform="translate(-0.89 -1.38)"/><path class="ee425d7b-339b-422f-9109-d364215f1576" d="M11,133.16H64.58l.13.12H10.88l.12-.12" transform="translate(-0.89 -1.38)"/><path class="edb30823-e2bc-445a-80ec-b6202dcf923a" d="M10.88,133.28H64.71l.12.13h-54l.13-.13" transform="translate(-0.89 -1.38)"/><path class="b5f2ccf5-9859-4b9b-8c16-ce98dd65bef2" d="M10.8,133.41h54l.13.12H10.63l.12-.12" transform="translate(-0.89 -1.38)"/><path class="a8a98d23-e61d-44e5-a760-68c9db0f7a3e" d="M10.63,133.53H65l.12.13H10.5l.13-.13" transform="translate(-0.89 -1.38)"/><path class="a1b48d35-493d-4e83-8872-86172c13ed72" d="M10.5,133.66H65.08l.13.12H10.38l.12-.12" transform="translate(-0.89 -1.38)"/><path class="e73d5ba5-367b-41bb-b001-ecfe463d54dd" d="M10.38,133.78H65.21l.12.13H10.25l.13-.13" transform="translate(-0.89 -1.38)"/><path class="bb15d96c-91ce-4c19-83f2-05b290d2bd2d" d="M10.25,133.91H65.33l.13.13H10.12l.13-.13" transform="translate(-0.89 -1.38)"/><path class="e17fa239-03e6-46f5-b532-5104acd64a43" d="M10.12,134H65.46l.15.15H10l.15-.15" transform="translate(-0.89 -1.38)"/><path class="bb69ad6c-489b-4fa9-b3ea-642d65c20c4e" d="M10,134.19H65.61l.41.41H9.56l.41-.41" transform="translate(-0.89 -1.38)"/></g><g class="a51b526a-9a5b-486c-aff6-bb79d3b92189"><path class="ffcbf3ad-0865-483a-8639-c908ec17d887" d="M12.53,131.63l-.07.07h0l.07-.06h0" transform="translate(-0.89 -1.38)"/><path class="e63ff196-d38a-42f8-8c39-6f9d45f08579" d="M12.46,131.7l-.19.19h0l.19-.17h0" transform="translate(-0.89 -1.38)"/><path class="e3254979-1abf-497a-bf4d-1f90b9e61590" d="M12.27,131.89h0" transform="translate(-0.89 -1.38)"/></g><g class="f1e8281c-18dc-4e00-9594-36d20e641ab2"><polyline class="ffcbf3ad-0865-483a-8639-c908ec17d887" points="11.64 128.16 11.64 130.27 11.57 130.33 11.57 128.1 11.64 128.16"/><polyline class="e63ff196-d38a-42f8-8c39-6f9d45f08579" points="11.57 128.1 11.57 130.33 11.38 130.5 11.38 130.5 11.38 127.92 11.56 128.09 11.57 128.1"/><path class="e3254979-1abf-497a-bf4d-1f90b9e61590" d="M12.23,129.26v2.63h0l-.13.13V129.1l.13.12" transform="translate(-0.89 -1.38)"/><path class="bd0704aa-26b5-4e05-a0aa-96fe0affbf69" d="M12.1,129.14v2.92l-.16.16V129l.16.16" transform="translate(-0.89 -1.38)"/><path class="a67bb110-de8c-4932-87f4-31161466e301" d="M11.94,129v3.24l-.15.15v-3.59l.15.16" transform="translate(-0.89 -1.38)"/><path class="a4f5dd9f-6884-4219-a5ba-9a81c623f2ea" d="M11.8,128.78v3.55l-.14.14v-3.79l.14.1" transform="translate(-0.89 -1.38)"/><path class="b608a088-a196-4a2a-9f6a-b4f601385a8c" d="M11.65,128.68v3.83l-.14.14v-4.11l.14.14" transform="translate(-0.89 -1.38)"/><path class="aa2e2574-95a3-4eb1-bf1c-57c4ccbeb12d" d="M11.51,128.54v4.11l-.14.14v-4.38l.14.13" transform="translate(-0.89 -1.38)"/><path class="f06def13-b5c2-4242-b341-785cb3af8ac3" d="M11.37,128.41v4.37l-.13.13v-4.65l.13.14" transform="translate(-0.89 -1.38)"/><path class="a6fbff56-a20a-48fd-8a65-397dcc28928b" d="M11.24,128.27v4.65l-.13.13v-4.91l.13.13" transform="translate(-0.89 -1.38)"/><path class="ee425d7b-339b-422f-9109-d364215f1576" d="M11.11,128.14v4.91l-.13.13V128l.13.12" transform="translate(-0.89 -1.38)"/><path class="edb30823-e2bc-445a-80ec-b6202dcf923a" d="M11,128v5.16l-.12.12v-5.41L11,128" transform="translate(-0.89 -1.38)"/><path class="b5f2ccf5-9859-4b9b-8c16-ce98dd65bef2" d="M10.86,127.89v5.41l-.13.13v-5.65l.13.12" transform="translate(-0.89 -1.38)"/><path class="a8a98d23-e61d-44e5-a760-68c9db0f7a3e" d="M10.73,127.78v5.66l-.12.12v-5.91l.12.13" transform="translate(-0.89 -1.38)"/><path class="a1b48d35-493d-4e83-8872-86172c13ed72" d="M10.61,127.64v5.91l-.13.13v-6.17l.13.13" transform="translate(-0.89 -1.38)"/><path class="e73d5ba5-367b-41bb-b001-ecfe463d54dd" d="M10.48,127.51v6.17l-.13.13v-6.43l.13.13" transform="translate(-0.89 -1.38)"/><path class="bb15d96c-91ce-4c19-83f2-05b290d2bd2d" d="M10.35,127.38v6.4l-.14.14v-6.71l.14.14" transform="translate(-0.89 -1.38)"/><path class="e17fa239-03e6-46f5-b532-5104acd64a43" d="M10.21,127.24V134l-.16.16v-7l.16.15" transform="translate(-0.89 -1.38)"/><path class="bb69ad6c-489b-4fa9-b3ea-642d65c20c4e" d="M10.05,127.09v7l-.49.49v-8l.49.5" transform="translate(-0.89 -1.38)"/></g><g class="b35cd2b6-af57-4515-bca6-177ff30587f6"><path class="ffcbf3ad-0865-483a-8639-c908ec17d887" d="M63.05,131.63h0l.14.12h0l-.14-.14" transform="translate(-0.89 -1.38)"/><path class="ed7a80e5-f8a3-4731-9356-1920ebdd62ab" d="M63.19,131.78h0l.16.16-.16-.16" transform="translate(-0.89 -1.38)"/></g><g class="a619a73d-4efc-48c5-a8bf-40cf768830f7"><polyline class="ffcbf3ad-0865-483a-8639-c908ec17d887" points="62.16 130.27 62.16 128.16 62.29 128.04 62.29 130.39 62.16 130.27"/><path class="ed7a80e5-f8a3-4731-9356-1920ebdd62ab" d="M63.35,131.93l-.16-.16v-2.35l.16-.16.07-.06V132l-.07-.07" transform="translate(-0.89 -1.38)"/><path class="b28e9e6f-943d-4533-9627-3d8185cf32b2" d="M63.42,132v-2.8l.28-.28v3.36l-.28-.28" transform="translate(-0.89 -1.38)"/><path class="ff895d80-72be-4897-9f9f-a2e8f193f793" d="M63.7,132.28v-3.36l.43-.43v4.22l-.43-.43" transform="translate(-0.89 -1.38)"/><path class="f1bf9df4-426b-4a58-a3c8-c24efd68fd91" d="M64.13,132.71v-4.22l.55-.55v5.32l-.55-.55" transform="translate(-0.89 -1.38)"/><path class="ff895d80-72be-4897-9f9f-a2e8f193f793" d="M64.68,133.26v-5.32l.34-.34v6l-.34-.34" transform="translate(-0.89 -1.38)"/><path class="b28e9e6f-943d-4533-9627-3d8185cf32b2" d="M65,133.6v-6l.18-.19v6.37L65,133.6" transform="translate(-0.89 -1.38)"/><path class="ed7a80e5-f8a3-4731-9356-1920ebdd62ab" d="M65.2,133.78v-6.37l.14-.13v6.64l-.14-.14" transform="translate(-0.89 -1.38)"/><path class="ffcbf3ad-0865-483a-8639-c908ec17d887" d="M65.34,133.92v-6.64l.11-.11V134l-.11-.11" transform="translate(-0.89 -1.38)"/><path class="e63ff196-d38a-42f8-8c39-6f9d45f08579" d="M65.45,134v-6.86l.09-.09v7l-.09-.09" transform="translate(-0.89 -1.38)"/><path class="e3254979-1abf-497a-bf4d-1f90b9e61590" d="M65.54,134.12v-7l.08-.08v7.2l-.08-.08" transform="translate(-0.89 -1.38)"/><path class="bd0704aa-26b5-4e05-a0aa-96fe0affbf69" d="M65.62,134.2V127l.06-.07v7.33l-.06-.06" transform="translate(-0.89 -1.38)"/><path class="a67bb110-de8c-4932-87f4-31161466e301" d="M65.68,134.26v-7.33l.06-.06v7.45l-.06-.06" transform="translate(-0.89 -1.38)"/><path class="a4f5dd9f-6884-4219-a5ba-9a81c623f2ea" d="M65.74,134.32v0" transform="translate(-0.89 -1.38)"/><path class="b608a088-a196-4a2a-9f6a-b4f601385a8c" d="M65.8,134.37v-7.59h0v7.64h0" transform="translate(-0.89 -1.38)"/><path class="aa2e2574-95a3-4eb1-bf1c-57c4ccbeb12d" d="M65.8,134.42v-7.64h0v7.72h0" transform="translate(-0.89 -1.38)"/><path class="f06def13-b5c2-4242-b341-785cb3af8ac3" d="M65.88,134.46v-7.68h0v7.79h0" transform="translate(-0.89 -1.38)"/><path class="a6fbff56-a20a-48fd-8a65-397dcc28928b" d="M65.91,134.49V126.7h0v7.85h0" transform="translate(-0.89 -1.38)"/><path class="ee425d7b-339b-422f-9109-d364215f1576" d="M65.94,134.52v-7.85h0v7.9h0" transform="translate(-0.89 -1.38)"/><path class="edb30823-e2bc-445a-80ec-b6202dcf923a" d="M66,134.55v-7.9h0v7.95h0" transform="translate(-0.89 -1.38)"/><path class="b5f2ccf5-9859-4b9b-8c16-ce98dd65bef2" d="M66,134.57v-7.95h0v8h0" transform="translate(-0.89 -1.38)"/><path class="a8a98d23-e61d-44e5-a760-68c9db0f7a3e" d="M66,134.59v-8h0v8h0" transform="translate(-0.89 -1.38)"/><polyline class="a1b48d35-493d-4e83-8872-86172c13ed72" points="65.13 133.21 65.13 125.21 65.13 125.21 65.13 133.22 65.13 133.21"/><polyline class="e73d5ba5-367b-41bb-b001-ecfe463d54dd" points="65.13 133.22 65.13 125.21 65.13 125.21 65.13 133.22 65.13 133.22"/></g><g class="b7ddf034-2e56-484f-9f26-799a84f7d8e3"><path class="ffcbf3ad-0865-483a-8639-c908ec17d887" d="M63.05,129.56H12.53l-.16-.16H63.22l-.17.16" transform="translate(-0.89 -1.38)"/><path class="ed7a80e5-f8a3-4731-9356-1920ebdd62ab" d="M63.22,129.4H12.37l-.3-.3H63.51l-.29.3" transform="translate(-0.89 -1.38)"/><path class="b28e9e6f-943d-4533-9627-3d8185cf32b2" d="M63.51,129.1H12.07l-.49-.49H64l-.5.49" transform="translate(-0.89 -1.38)"/><path class="ff895d80-72be-4897-9f9f-a2e8f193f793" d="M64,128.61H11.58l-.45-.45H64.45l-.44.45" transform="translate(-0.89 -1.38)"/><path class="b28e9e6f-943d-4533-9627-3d8185cf32b2" d="M64.45,128.16H11.13l-.41-.41H64.87l-.42.41" transform="translate(-0.89 -1.38)"/><path class="ed7a80e5-f8a3-4731-9356-1920ebdd62ab" d="M64.87,127.78H10.72l-.22-.21H65.08l-.21.21" transform="translate(-0.89 -1.38)"/><path class="ffcbf3ad-0865-483a-8639-c908ec17d887" d="M65.08,127.54H10.5l-.15-.15H65.23l-.15.15" transform="translate(-0.89 -1.38)"/><path class="e63ff196-d38a-42f8-8c39-6f9d45f08579" d="M65.23,127.39H10.35l-.12-.13H65.35l-.12.13" transform="translate(-0.89 -1.38)"/><path class="e3254979-1abf-497a-bf4d-1f90b9e61590" d="M65.35,127.26H10.23l-.11-.1H65.46l-.11.1" transform="translate(-0.89 -1.38)"/><path class="bd0704aa-26b5-4e05-a0aa-96fe0affbf69" d="M65.46,127.16H10.12l-.08-.09h55.5l-.08.09" transform="translate(-0.89 -1.38)"/><path class="a67bb110-de8c-4932-87f4-31161466e301" d="M65.54,127.07H10L10,127H65.62l-.08.07" transform="translate(-0.89 -1.38)"/><path class="a4f5dd9f-6884-4219-a5ba-9a81c623f2ea" d="M65.62,127H10l-.07-.07h55.8l-.07.07" transform="translate(-0.89 -1.38)"/><path class="b608a088-a196-4a2a-9f6a-b4f601385a8c" d="M65.69,126.93H9.89l-.05-.06h56l-.06.06" transform="translate(-0.89 -1.38)"/><path class="aa2e2574-95a3-4eb1-bf1c-57c4ccbeb12d" d="M65.8,126.87H9.8v-.09h56v0" transform="translate(-0.89 -1.38)"/><path class="f06def13-b5c2-4242-b341-785cb3af8ac3" d="M65.8,126.78h.11" transform="translate(-0.89 -1.38)"/><path class="a6fbff56-a20a-48fd-8a65-397dcc28928b" d="M65.85,126.78h.09" transform="translate(-0.89 -1.38)"/><path class="ee425d7b-339b-422f-9109-d364215f1576" d="M65.89,126.78H66" transform="translate(-0.89 -1.38)"/><path class="edb30823-e2bc-445a-80ec-b6202dcf923a" d="M65.92,126.69H66" transform="translate(-0.89 -1.38)"/><path class="b5f2ccf5-9859-4b9b-8c16-ce98dd65bef2" d="M66,126.66H66" transform="translate(-0.89 -1.38)"/><path class="a8a98d23-e61d-44e5-a760-68c9db0f7a3e" d="M66,126.64h0" transform="translate(-0.89 -1.38)"/><path class="a1b48d35-493d-4e83-8872-86172c13ed72" d="M66,126.61h0" transform="translate(-0.89 -1.38)"/><path class="e73d5ba5-367b-41bb-b001-ecfe463d54dd" d="M66,126.6h0" transform="translate(-0.89 -1.38)"/><polyline class="bb15d96c-91ce-4c19-83f2-05b290d2bd2d" points="65.13 125.21 8.66 125.21 8.66 125.21 65.13 125.21 65.13 125.21"/></g><g class="f0c91c3e-33a7-431a-b96f-e1119240938f"><path class="ffcbf3ad-0865-483a-8639-c908ec17d887" d="M12.53,129.56h0l-.07-.06h0l.07.07" transform="translate(-0.89 -1.38)"/><path class="e63ff196-d38a-42f8-8c39-6f9d45f08579" d="M12.46,129.49h0l-.18-.17h0l.19.18" transform="translate(-0.89 -1.38)"/><path class="e3254979-1abf-497a-bf4d-1f90b9e61590" d="M12.27,129.31h0v0" transform="translate(-0.89 -1.38)"/></g><g class="ec79fb95-629b-4c3e-890a-e11deee00a7a"><path class="ffcbf3ad-0865-483a-8639-c908ec17d887" d="M63.05,129.56l.14-.13h0l-.14.12h0" transform="translate(-0.89 -1.38)"/><path class="ed7a80e5-f8a3-4731-9356-1920ebdd62ab" d="M63.19,129.43l.16-.17h0l-.16.16h0" transform="translate(-0.89 -1.38)"/></g><ellipse class="e8adb6bd-f869-4da1-9247-e3e234272b90" cx="36.9" cy="129.21" rx="27.03" ry="0.75"/><circle class="aac6dbea-604b-48f3-bd6a-2eb4a9953882" cx="47.73" cy="1.55" r="1.55"/></svg>