<svg id="Capa_1" data-name="Capa 1" xmlns="http://www.w3.org/2000/svg" viewBox="0 0 410.73 133.9"><defs><style>.cls-1{fill:#3d4a5d;}.cls-2{fill:#bcc1c4;}.cls-3{fill:#0097ff;}</style></defs><g id="Group_51" data-name="Group 51"><g id="Group_39" data-name="Group 39"><path id="Path_258" data-name="Path 258" class="cls-1" d="M455.28,293c.62-14.26-11.08-24.59-25.34-25.2s-25.68,8.71-26.3,23A25.84,25.84,0,0,0,455.28,293Z" transform="translate(-44.58 -183.78)"/></g><g id="Group_41" data-name="Group 41"><g id="Path_259" data-name="Path 259"><path class="cls-2" d="M76.91,246.1c-1.71.56-3.16-.49-4.67-3.39l0,0v0c-.08-.22-8-22.57-11.76-35a10.07,10.07,0,0,0-2.08-3.7L45.09,188.89l-.06-.06,0-.08c-.31-1,.57-1.91,2.62-2.57,3.23-1.05,9.62-1.73,18.47-2,8.06-.2,17.86,0,27.6.52s19.15,1.43,26.14,2.49c8,1.2,12.74,2.57,14.16,4.06a1.43,1.43,0,0,1,.41,1.56l0,.11-.09.06-16.12,11.39c-4.37,11.38-9.17,20.41-14.26,26.84-4.13,5.25-8.39,8.62-12.64,10h0a14.34,14.34,0,0,1-5,.72l-1.34,0a4.77,4.77,0,0,0-1.78.25,11.43,11.43,0,0,0-3.54,2.2A9.32,9.32,0,0,1,76.91,246.1Z" transform="translate(-44.58 -183.78)"/><path class="cls-2" d="M47.74,186.53c-1.75.57-2.62,1.27-2.37,2.11l13.29,15.08a10.59,10.59,0,0,1,2.16,3.84c3.84,12.55,11.75,35,11.75,35,1.59,3,2.9,3.63,4.22,3.2,1.81-.58,3.64-3.08,6.21-3.92a5.48,5.48,0,0,1,1.92-.27l1.33,0a14,14,0,0,0,4.89-.69c4.2-1.37,8.38-4.68,12.47-9.88,5-6.28,9.79-15.23,14.24-26.85l16.21-11.45c2.55-6.74-71.85-10.89-86.32-6.2m-.23-.71h0c2.28-.74,7.35-1.68,18.58-2,8.07-.2,17.88,0,27.64.52s19.17,1.43,26.17,2.49a81.77,81.77,0,0,1,9.24,1.84c2.65.73,4.33,1.49,5.13,2.33a1.78,1.78,0,0,1,.49,2,.77.77,0,0,1-.27.35l-16,11.32c-4.38,11.37-9.18,20.39-14.27,26.84-4.18,5.31-8.5,8.71-12.83,10.12a14.78,14.78,0,0,1-5.14.73l-1.34,0a4.69,4.69,0,0,0-1.65.24,11.22,11.22,0,0,0-3.43,2.14A9.71,9.71,0,0,1,77,246.46a2.93,2.93,0,0,1-2.67-.4,8.63,8.63,0,0,1-2.46-3.18l0-.09c-.08-.23-8-22.59-11.76-35a9.68,9.68,0,0,0-2-3.56L44.81,189.14a.66.66,0,0,1-.16-.28,1.78,1.78,0,0,1,.66-1.94A6.58,6.58,0,0,1,47.51,185.82Z" transform="translate(-44.58 -183.78)"/></g><g id="Path_260" data-name="Path 260"><path class="cls-2" d="M429.37,313h0c-.51,0-1,0-1.54,0a22.48,22.48,0,0,1-15.37-7.6,24.44,24.44,0,0,1-6.16-16.2v-7.76l-297.11-2.37a46.33,46.33,0,0,1-46.37-46.38h0l.79-22.31a23,23,0,0,1,23.06-23.06c.51,0,1,0,1.54.05a20.9,20.9,0,0,1,8.43,2.36,21.75,21.75,0,0,1,6.55,5.34A25.37,25.37,0,0,1,109,211.32V217a15.91,15.91,0,0,0,15.9,15.91l304.51,3.75a23.57,23.57,0,0,1,16.3,6.28,21.55,21.55,0,0,1,6.77,15.85V290A23.07,23.07,0,0,1,429.37,313Z" transform="translate(-44.58 -183.78)"/><path class="cls-2" d="M86.67,187.65A22.69,22.69,0,0,0,64,210.35l-.79,22.32a46,46,0,0,0,46,46l297.47,2.38v8.13c0,12.09,9.12,22.64,21.19,23.42.5,0,1,0,1.51,0A22.69,22.69,0,0,0,452.06,290V258.79c0-12.53-10.16-21.75-22.69-21.75l-304.51-3.76A16.28,16.28,0,0,1,108.58,217v-5.68c0-12.09-8.33-22.84-20.4-23.62-.5,0-1,0-1.51,0m0-.75h0c.52,0,1,0,1.56.06a21.07,21.07,0,0,1,8.58,2.4,22.09,22.09,0,0,1,6.67,5.43,25.76,25.76,0,0,1,5.85,16.53V217a15.53,15.53,0,0,0,15.53,15.53h0l304.51,3.76a24,24,0,0,1,16.55,6.38,21.9,21.9,0,0,1,6.88,16.12V290a23.42,23.42,0,0,1-23.44,23.44c-.52,0-1,0-1.56,0a22.89,22.89,0,0,1-15.63-7.72,24.83,24.83,0,0,1-6.26-16.45V281.8l-296.73-2.38a46.73,46.73,0,0,1-46.75-46.75v0l.79-22.3A23.45,23.45,0,0,1,86.67,186.9Z" transform="translate(-44.58 -183.78)"/></g><g id="Group_40" data-name="Group 40"><rect id="Rectangle_8" data-name="Rectangle 8" class="cls-3" x="16.85" y="34.89" width="52.12" height="7.4"/></g></g></g></svg>