<svg id="a4e4cfd8-f277-4c6a-9ab7-cf6653fc810b" data-name="abc52cdf-0562-48d4-8db2-bcbedaf5a888" xmlns="http://www.w3.org/2000/svg" xmlns:xlink="http://www.w3.org/1999/xlink" viewBox="0 0 185.83 292.73"><defs><style>.f2108a47-f264-4687-8ac0-106983f02091{fill:none;}.fb20504f-0f4d-40fc-b17a-6e33be75a179{fill:#1d2934;}.ad53426e-1497-4662-9864-c963cc5272ee{fill:#bac1c4;}.a0fc6fd6-2d85-43e8-b88f-52bd86c50633{clip-path:url(#a4173361-7f2f-4570-a606-95b15f3227ba);}.a8bda082-7f0d-4e35-9690-806279b99ca1{fill:#004f85;}.a93bb8eb-434e-4f91-810a-693553a136ef{clip-path:url(#a1721b54-867e-4e68-9d5a-0ab7d8254045);}.bce4dc90-a24b-438f-b40f-53d8b4fdf244{clip-path:url(#a9511194-a310-4a94-b3b6-57ded4e5f69b);}.ec630fcf-6a63-46f8-8996-861524be2827{clip-path:url(#ab848b83-39c6-4507-91b7-675c8692247d);}.a5e2c65d-a454-4c67-9567-5ae5075e2991{clip-path:url(#fb075fc3-c8b0-4003-ac81-9ee22c604bf3);}.fe6e5a3e-eb12-405e-a624-13c1ac46535b{fill:#0085e0;}.ef70a21a-a762-430c-8408-5cd5bba8610a{fill:#0082db;}.aa5c49b1-174f-4078-920a-2da6fb4ae461{fill:#007fd6;}.fefd20f7-4093-4a4d-8008-eba4ea25cc78{fill:#007cd1;}.f061e764-f424-4fe8-8ae1-36a5e21522ad{fill:#0079cc;}.fde42de9-8023-495e-9a8e-92fea0c60475{fill:#0076c7;}.f1b0b584-ed90-43b8-bba7-e46ea1d1e0e3{fill:#0073c2;}.a69f7a96-1cfb-4553-ad06-2a0f478b8370{fill:#0070bd;}.fbd3a6d7-176f-4269-8290-04f1224d7c6c{fill:#006db8;}.f34699ad-0359-4b23-b404-a56fe4102158{fill:#006ab3;}.e2de5c0d-e54c-4c95-ad8d-80d2bbd019a3{fill:#0067ad;}.a30859c9-c040-4e96-9854-e2280b212f47{fill:#0064a8;}.ae9aa8d0-bd7e-400c-b2e3-086c0634ea56{fill:#0061a3;}.e0859d70-b30f-4f80-9a1a-435487439734{fill:#005e9e;}.fb5e3509-9d21-4930-b92f-20c1061be0e1{fill:#005b99;}.b98c99b8-b546-419f-924e-a2f5e050b9ee{fill:#005894;}.ab34c774-4494-424c-ade6-e64ad34b2311{fill:#00558f;}.a670a985-6061-4906-a215-6cedfbb08412{fill:#00528a;}.ba302387-717e-4a26-9602-73f74d4c3808{clip-path:url(#e7731b7c-705b-4d25-b7c7-cdc45225c1ad);}.ba1d06ba-4b3c-4b02-9501-7ab8316be20a{clip-path:url(#ae0e940b-217e-42ad-9d86-e81c9a496ebb);}.b2d6af39-c349-47d9-8954-ed6f8cc8e2d7{clip-path:url(#fb07df4f-8b23-47ff-a5d1-9a865d957f99);}.e70e8d27-f2a2-4661-a785-db2deebdc220{fill:#0088e6;}.b2a2bfc7-3626-4f56-bba2-80bf289d1589{clip-path:url(#ac6d584f-29d3-498d-8be3-69f2a3e7693d);}.b0000d03-17b2-4617-bc5c-24676ac33f1d{fill:#008beb;}.a8e239da-0974-436f-a3e0-032a6a8cabdf{fill:#008ef0;}.faf5be8f-6f18-4520-8ac1-fbd54b573e60{fill:#0091f5;}.a3d8d68a-98ca-45c6-ab11-1ae7eea27485{clip-path:url(#ae5ce447-d72f-43ad-9426-f1fb58140cd5);}.aad0ce3c-92d5-4378-906b-a5998d7e680d{clip-path:url(#b76f5f03-1409-4174-9724-a9b7e2415283);}.af3f5f13-cc24-493f-9a8b-cf1536ac3a6b{clip-path:url(#e4bb228e-ca81-409d-8b27-cc4b0bc5dcc7);}.a4af31b1-73bd-456c-b9b6-e730dc7dd91e{fill:#0083dd;}</style><clipPath id="a4173361-7f2f-4570-a606-95b15f3227ba" transform="translate(-1.38 -2.58)"><polygon class="f2108a47-f264-4687-8ac0-106983f02091" points="13.76 132.87 13.45 133.16 13.76 132.85 13.76 132.87"/></clipPath><clipPath id="a1721b54-867e-4e68-9d5a-0ab7d8254045" transform="translate(-1.38 -2.58)"><path class="f2108a47-f264-4687-8ac0-106983f02091" d="M65.33,130.72a2.76,2.76,0,0,0,.3-.29l-.3.31Z"/></clipPath><clipPath id="a9511194-a310-4a94-b3b6-57ded4e5f69b" transform="translate(-1.38 -2.58)"><polygon class="f2108a47-f264-4687-8ac0-106983f02091" points="65.64 133.16 65.33 132.87 65.33 132.87 65.64 133.16"/></clipPath><clipPath id="ab848b83-39c6-4507-91b7-675c8692247d" transform="translate(-1.38 -2.58)"><polygon class="f2108a47-f264-4687-8ac0-106983f02091" points="13.45 130.43 13.76 130.72 13.76 130.72 13.45 130.43"/></clipPath><clipPath id="fb075fc3-c8b0-4003-ac81-9ee22c604bf3" transform="translate(-1.38 -2.58)"><polygon class="f2108a47-f264-4687-8ac0-106983f02091" points="65.33 132.85 68.39 135.91 10.72 135.91 13.79 132.85 65.33 132.85"/></clipPath><clipPath id="e7731b7c-705b-4d25-b7c7-cdc45225c1ad" transform="translate(-1.38 -2.58)"><polygon class="f2108a47-f264-4687-8ac0-106983f02091" points="13.45 133.16 13.76 132.85 13.76 132.85 13.45 133.16"/></clipPath><clipPath id="ae0e940b-217e-42ad-9d86-e81c9a496ebb" transform="translate(-1.38 -2.58)"><polygon class="f2108a47-f264-4687-8ac0-106983f02091" points="13.76 132.87 13.45 133.16 10.72 135.88 10.72 127.72 13.45 130.44 13.76 130.73 13.76 132.87"/></clipPath><clipPath id="fb07df4f-8b23-47ff-a5d1-9a865d957f99" transform="translate(-1.38 -2.58)"><polygon class="f2108a47-f264-4687-8ac0-106983f02091" points="65.33 132.87 65.33 132.87 65.64 133.18 65.33 132.87"/></clipPath><clipPath id="ac6d584f-29d3-498d-8be3-69f2a3e7693d" transform="translate(-1.38 -2.58)"><path class="f2108a47-f264-4687-8ac0-106983f02091" d="M65.33,130.72a2.76,2.76,0,0,0,.3-.29l2.73-2.72v8.16l-2.73-2.72-.3-.29Z"/></clipPath><clipPath id="ae5ce447-d72f-43ad-9426-f1fb58140cd5" transform="translate(-1.38 -2.58)"><polygon class="f2108a47-f264-4687-8ac0-106983f02091" points="13.76 130.74 10.69 127.67 68.33 127.67 65.27 130.74 13.76 130.74"/></clipPath><clipPath id="b76f5f03-1409-4174-9724-a9b7e2415283" transform="translate(-1.38 -2.58)"><polygon class="f2108a47-f264-4687-8ac0-106983f02091" points="13.76 130.72 13.76 130.72 13.45 130.41 13.76 130.72"/></clipPath><clipPath id="e4bb228e-ca81-409d-8b27-cc4b0bc5dcc7" transform="translate(-1.38 -2.58)"><polygon class="f2108a47-f264-4687-8ac0-106983f02091" points="65.64 130.43 65.33 130.74 65.33 130.74 65.64 130.43"/></clipPath></defs><title>tube</title><path class="fb20504f-0f4d-40fc-b17a-6e33be75a179" d="M186.15,272.74v0q.17-.61.3-1.23v-.06c.17-.75.32-1.51.43-2.28.14-1,.24-2,.28-3.07a26.86,26.86,0,0,0-8.36-20.89,33,33,0,0,0-21.54-8.85h-1.55a30.54,30.54,0,0,0-19.5,6.6,27.48,27.48,0,0,0-10,20.56v0a30.56,30.56,0,0,0,29.18,31.79h1.34a30.32,30.32,0,0,0,19.2-6.85l.25-.21c.39-.32.77-.65,1.13-1l.4-.35c.39-.38.77-.76,1.14-1.15.21-.22.41-.45.61-.68l.51-.58a31,31,0,0,0,2.23-3l.11-.16.07-.12a1,1,0,0,0,.11-.17l-.09.14A30.17,30.17,0,0,0,186.15,272.74Z" transform="translate(-1.38 -2.58)"/><path class="fb20504f-0f4d-40fc-b17a-6e33be75a179" d="M183.08,280.13c.28-.48.55-1,.81-1.46C183.64,279.17,183.36,279.65,183.08,280.13Z" transform="translate(-1.38 -2.58)"/><path class="fb20504f-0f4d-40fc-b17a-6e33be75a179" d="M183.08,280.13q-.27.48-.57.93C182.71,280.75,182.9,280.45,183.08,280.13Z" transform="translate(-1.38 -2.58)"/><path class="ad53426e-1497-4662-9864-c963cc5272ee" d="M156.46,177.3H85.36a17.48,17.48,0,0,1-17.44-17.44V127.19c1.87-2.09,3.79-4.32,5.69-6.66l20.06-6.28a1.78,1.78,0,0,0,.86-.59,2.88,2.88,0,0,0,.25-3.15c-3-6.26-31.42-17.61-40.06-20.94C37.91,83.08,15.14,75.5,6.28,75.5l-1.22,0v.06c-2.95.31-3.66,1.77-3.69,3a1.58,1.58,0,0,0,.15.74l8.64,20a9.47,9.47,0,0,1,.8,4c-.08,4.3-.08,10.13,0,17.32,0,.55-.05,1.1-.05,1.65v56a56.06,56.06,0,0,0,56,56H128V258c0,15.49,11.68,28.39,26.67,29.35l.87,0,1,0a28.58,28.58,0,0,0,28.5-28.5V205.78A28.58,28.58,0,0,0,156.46,177.3Z" transform="translate(-1.38 -2.58)"/><g class="a0fc6fd6-2d85-43e8-b88f-52bd86c50633"><path class="a8bda082-7f0d-4e35-9690-806279b99ca1" d="M13.45,133.16l.31-.31h0l-.19.17-.12.12" transform="translate(-1.38 -2.58)"/></g><g class="a93bb8eb-434e-4f91-810a-693553a136ef"><path class="a8bda082-7f0d-4e35-9690-806279b99ca1" d="M65.63,130.43l-.3.31h0l.19-.17.11-.12" transform="translate(-1.38 -2.58)"/></g><g class="bce4dc90-a24b-438f-b40f-53d8b4fdf244"><path class="a8bda082-7f0d-4e35-9690-806279b99ca1" d="M65.63,133.16l-.18-.18-.12-.11h0l.3.31" transform="translate(-1.38 -2.58)"/></g><g class="ec630fcf-6a63-46f8-8996-861524be2827"><path class="a8bda082-7f0d-4e35-9690-806279b99ca1" d="M13.45,130.43l.18.19.13.1h0l-.31-.31" transform="translate(-1.38 -2.58)"/></g><g class="a5e2c65d-a454-4c67-9567-5ae5075e2991"><path class="fe6e5a3e-eb12-405e-a624-13c1ac46535b" d="M13.76,132.85H65.33l.08.08H13.68l.08-.08" transform="translate(-1.38 -2.58)"/><path class="ef70a21a-a762-430c-8408-5cd5bba8610a" d="M13.68,132.93H65.41l.22.22H13.46l.22-.22" transform="translate(-1.38 -2.58)"/><path class="aa5c49b1-174f-4078-920a-2da6fb4ae461" d="M13.46,133.15H65.63l.2.2H13.26l.2-.2" transform="translate(-1.38 -2.58)"/><path class="fefd20f7-4093-4a4d-8008-eba4ea25cc78" d="M13.26,133.35H65.83l.17.17H13.08l.18-.17" transform="translate(-1.38 -2.58)"/><path class="f061e764-f424-4fe8-8ae1-36a5e21522ad" d="M13.08,133.52H66l.17.17H12.92l.16-.17" transform="translate(-1.38 -2.58)"/><path class="fde42de9-8023-495e-9a8e-92fea0c60475" d="M12.92,133.69H66.17l.16.15H12.77l.15-.15" transform="translate(-1.38 -2.58)"/><path class="f1b0b584-ed90-43b8-bba7-e46ea1d1e0e3" d="M12.77,133.84H66.33l.14.15H12.61l.16-.15" transform="translate(-1.38 -2.58)"/><path class="a69f7a96-1cfb-4553-ad06-2a0f478b8370" d="M12.61,134H66.47l.14.15H12.51l.14-.15" transform="translate(-1.38 -2.58)"/><path class="fbd3a6d7-176f-4269-8290-04f1224d7c6c" d="M12.47,134.14h54.1l.15.13H12.34l.13-.13" transform="translate(-1.38 -2.58)"/><path class="f34699ad-0359-4b23-b404-a56fe4102158" d="M12.34,134.27H66.76l.13.14H12.2l.14-.14" transform="translate(-1.38 -2.58)"/><path class="e2de5c0d-e54c-4c95-ad8d-80d2bbd019a3" d="M12.2,134.41H66.89l.13.13H12.07l.13-.13" transform="translate(-1.38 -2.58)"/><path class="a30859c9-c040-4e96-9854-e2280b212f47" d="M12.07,134.54H67l.13.13H12l.13-.13" transform="translate(-1.38 -2.58)"/><path class="ae9aa8d0-bd7e-400c-b2e3-086c0634ea56" d="M12,134.67H67.12l.13.12H11.82l.12-.12" transform="translate(-1.38 -2.58)"/><path class="e0859d70-b30f-4f80-9a1a-435487439734" d="M11.82,134.79H67.28l.12.13H11.68l.14-.13" transform="translate(-1.38 -2.58)"/><path class="fb5e3509-9d21-4930-b92f-20c1061be0e1" d="M11.68,134.92H67.4l.13.13h-56l.12-.13" transform="translate(-1.38 -2.58)"/><path class="b98c99b8-b546-419f-924e-a2f5e050b9ee" d="M11.56,135.05h56l.13.13H11.43l.13-.13" transform="translate(-1.38 -2.58)"/><path class="ab34c774-4494-424c-ade6-e64ad34b2311" d="M11.43,135.18H67.66l.13.13H11.3l.13-.13" transform="translate(-1.38 -2.58)"/><path class="a670a985-6061-4906-a215-6cedfbb08412" d="M11.3,135.31H67.79l.15.15H11.14l.16-.15" transform="translate(-1.38 -2.58)"/><path class="a8bda082-7f0d-4e35-9690-806279b99ca1" d="M11.14,135.46h56.8l.42.42H10.73l.41-.42" transform="translate(-1.38 -2.58)"/></g><g class="ba302387-717e-4a26-9602-73f74d4c3808"><path class="fe6e5a3e-eb12-405e-a624-13c1ac46535b" d="M13.76,132.85l-.07.07h0l.07-.06h0" transform="translate(-1.38 -2.58)"/><path class="ef70a21a-a762-430c-8408-5cd5bba8610a" d="M13.69,132.92l-.2.2h0l.2-.18h0" transform="translate(-1.38 -2.58)"/><path class="aa5c49b1-174f-4078-920a-2da6fb4ae461" d="M13.49,133.12h0" transform="translate(-1.38 -2.58)"/></g><g class="ba1d06ba-4b3c-4b02-9501-7ab8316be20a"><polyline class="fe6e5a3e-eb12-405e-a624-13c1ac46535b" points="12.38 128.14 12.38 130.29 12.31 130.35 12.31 128.08 12.38 128.14"/><polyline class="ef70a21a-a762-430c-8408-5cd5bba8610a" points="12.31 128.08 12.31 130.35 12.12 130.53 12.12 130.53 12.12 127.89 12.3 128.07 12.31 128.08"/><path class="aa5c49b1-174f-4078-920a-2da6fb4ae461" d="M13.45,130.43v2.69h0l-.13.13v-3l.13.12" transform="translate(-1.38 -2.58)"/><path class="fefd20f7-4093-4a4d-8008-eba4ea25cc78" d="M13.32,130.31v3l-.17.16v-3.3l.17.16" transform="translate(-1.38 -2.58)"/><path class="f061e764-f424-4fe8-8ae1-36a5e21522ad" d="M13.15,130.15v3.3l-.15.16v-3.67l.15.16" transform="translate(-1.38 -2.58)"/><path class="fde42de9-8023-495e-9a8e-92fea0c60475" d="M13,129.94v3.63l-.14.14v-3.87l.14.1" transform="translate(-1.38 -2.58)"/><path class="f1b0b584-ed90-43b8-bba7-e46ea1d1e0e3" d="M12.86,129.84v3.91l-.14.14V129.7l.14.14" transform="translate(-1.38 -2.58)"/><path class="a69f7a96-1cfb-4553-ad06-2a0f478b8370" d="M12.72,129.7v4.19l-.15.15v-4.48l.15.14" transform="translate(-1.38 -2.58)"/><path class="fbd3a6d7-176f-4269-8290-04f1224d7c6c" d="M12.57,129.56V134l-.13.14v-4.75l.13.14" transform="translate(-1.38 -2.58)"/><path class="f34699ad-0359-4b23-b404-a56fe4102158" d="M12.44,129.42v4.75l-.13.13v-5l.13.13" transform="translate(-1.38 -2.58)"/><path class="e2de5c0d-e54c-4c95-ad8d-80d2bbd019a3" d="M12.31,129.29v5l-.14.13v-5.26l.14.12" transform="translate(-1.38 -2.58)"/><path class="a30859c9-c040-4e96-9854-e2280b212f47" d="M12.17,129.17v5.26l-.12.13V129l.12.14" transform="translate(-1.38 -2.58)"/><path class="ae9aa8d0-bd7e-400c-b2e3-086c0634ea56" d="M12.05,129v5.53l-.13.13v-5.77l.13.12" transform="translate(-1.38 -2.58)"/><path class="e0859d70-b30f-4f80-9a1a-435487439734" d="M11.92,128.92v5.78l-.12.12v-6l.12.13" transform="translate(-1.38 -2.58)"/><path class="fb5e3509-9d21-4930-b92f-20c1061be0e1" d="M11.8,128.78v6l-.14.13v-6.29l.14.13" transform="translate(-1.38 -2.58)"/><path class="b98c99b8-b546-419f-924e-a2f5e050b9ee" d="M11.66,128.65v6.29l-.13.14v-6.57l.13.14" transform="translate(-1.38 -2.58)"/><path class="ab34c774-4494-424c-ade6-e64ad34b2311" d="M11.53,128.51v6.54l-.14.14v-6.85l.14.14" transform="translate(-1.38 -2.58)"/><path class="a670a985-6061-4906-a215-6cedfbb08412" d="M11.39,128.37v6.85l-.16.16v-7.14l.16.15" transform="translate(-1.38 -2.58)"/><path class="a8bda082-7f0d-4e35-9690-806279b99ca1" d="M11.23,128.22v7.14l-.5.5V127.7l.5.51" transform="translate(-1.38 -2.58)"/></g><g class="b2d6af39-c349-47d9-8954-ed6f8cc8e2d7"><path class="fe6e5a3e-eb12-405e-a624-13c1ac46535b" d="M65.33,132.85h0l.14.12h0l-.14-.14" transform="translate(-1.38 -2.58)"/><path class="e70e8d27-f2a2-4661-a785-db2deebdc220" d="M65.47,133h0l.16.17-.16-.17" transform="translate(-1.38 -2.58)"/></g><g class="b2a2bfc7-3626-4f56-bba2-80bf289d1589"><polyline class="fe6e5a3e-eb12-405e-a624-13c1ac46535b" points="63.95 130.29 63.95 128.14 64.09 128.02 64.09 130.41 63.95 130.29"/><path class="e70e8d27-f2a2-4661-a785-db2deebdc220" d="M65.63,133.16l-.16-.17v-2.4l.16-.16.08-.06v2.86l-.08-.07" transform="translate(-1.38 -2.58)"/><path class="b0000d03-17b2-4617-bc5c-24676ac33f1d" d="M65.71,133.23v-2.86l.28-.29v3.43l-.28-.28" transform="translate(-1.38 -2.58)"/><path class="a8e239da-0974-436f-a3e0-032a6a8cabdf" d="M66,133.51v-3.43l.44-.43V134l-.44-.44" transform="translate(-1.38 -2.58)"/><path class="faf5be8f-6f18-4520-8ac1-fbd54b573e60" d="M66.43,134v-4.3l.56-.57v5.43l-.56-.56" transform="translate(-1.38 -2.58)"/><path class="a8e239da-0974-436f-a3e0-032a6a8cabdf" d="M67,134.51v-5.43l.35-.34v6.12l-.35-.35" transform="translate(-1.38 -2.58)"/><path class="b0000d03-17b2-4617-bc5c-24676ac33f1d" d="M67.34,134.86v-6.12l.18-.2v6.51l-.18-.19" transform="translate(-1.38 -2.58)"/><path class="e70e8d27-f2a2-4661-a785-db2deebdc220" d="M67.52,135.05v-6.51l.15-.13v6.78l-.15-.14" transform="translate(-1.38 -2.58)"/><path class="fe6e5a3e-eb12-405e-a624-13c1ac46535b" d="M67.67,135.19v-6.78l.11-.11v7l-.11-.11" transform="translate(-1.38 -2.58)"/><path class="ef70a21a-a762-430c-8408-5cd5bba8610a" d="M67.78,135.3v-7l.09-.09v7.14l-.09-.09" transform="translate(-1.38 -2.58)"/><path class="aa5c49b1-174f-4078-920a-2da6fb4ae461" d="M67.87,135.39v-7.14l.08-.08v7.35l-.08-.09" transform="translate(-1.38 -2.58)"/><path class="fefd20f7-4093-4a4d-8008-eba4ea25cc78" d="M68,135.47v-7.35l.06-.07v7.49l-.06-.07" transform="translate(-1.38 -2.58)"/><path class="f061e764-f424-4fe8-8ae1-36a5e21522ad" d="M68,135.54v-7.49l.06-.06v7.61l-.06-.06" transform="translate(-1.38 -2.58)"/><path class="fde42de9-8023-495e-9a8e-92fea0c60475" d="M68.07,135.6v0" transform="translate(-1.38 -2.58)"/><path class="f1b0b584-ed90-43b8-bba7-e46ea1d1e0e3" d="M68.14,135.65V127.9h0v7.8h0" transform="translate(-1.38 -2.58)"/><path class="a69f7a96-1cfb-4553-ad06-2a0f478b8370" d="M68.14,135.7v-7.8h0v7.88h0" transform="translate(-1.38 -2.58)"/><path class="fbd3a6d7-176f-4269-8290-04f1224d7c6c" d="M68.22,135.74V127.9h0v7.95h0" transform="translate(-1.38 -2.58)"/><path class="f34699ad-0359-4b23-b404-a56fe4102158" d="M68.25,135.77v-8h0v8h0" transform="translate(-1.38 -2.58)"/><path class="e2de5c0d-e54c-4c95-ad8d-80d2bbd019a3" d="M68.28,135.8v-8h0v8.06h0" transform="translate(-1.38 -2.58)"/><path class="a30859c9-c040-4e96-9854-e2280b212f47" d="M68.31,135.83v-8.06h0v8.11h0" transform="translate(-1.38 -2.58)"/><path class="ae9aa8d0-bd7e-400c-b2e3-086c0634ea56" d="M68.33,135.85v-8.11h0v8.16h0" transform="translate(-1.38 -2.58)"/><path class="e0859d70-b30f-4f80-9a1a-435487439734" d="M68.35,135.87v-8.16h0v8.16h0" transform="translate(-1.38 -2.58)"/><polyline class="fb5e3509-9d21-4930-b92f-20c1061be0e1" points="66.98 133.29 66.98 125.13 66.98 125.13 66.98 133.3 66.98 133.29"/><polyline class="b98c99b8-b546-419f-924e-a2f5e050b9ee" points="66.98 133.3 66.98 125.13 66.98 125.13 66.98 133.3 66.98 133.3"/></g><g class="a3d8d68a-98ca-45c6-ab11-1ae7eea27485"><path class="fe6e5a3e-eb12-405e-a624-13c1ac46535b" d="M65.33,130.74H13.76l-.17-.17H65.5l-.17.17" transform="translate(-1.38 -2.58)"/><path class="e70e8d27-f2a2-4661-a785-db2deebdc220" d="M65.5,130.57H13.59l-.3-.3H65.8l-.3.3" transform="translate(-1.38 -2.58)"/><path class="b0000d03-17b2-4617-bc5c-24676ac33f1d" d="M65.8,130.27H13.29l-.5-.5H66.31l-.51.5" transform="translate(-1.38 -2.58)"/><path class="a8e239da-0974-436f-a3e0-032a6a8cabdf" d="M66.31,129.77H12.79l-.46-.46H66.76l-.45.46" transform="translate(-1.38 -2.58)"/><path class="b0000d03-17b2-4617-bc5c-24676ac33f1d" d="M66.76,129.31H12.33l-.42-.42H67.19l-.43.42" transform="translate(-1.38 -2.58)"/><path class="e70e8d27-f2a2-4661-a785-db2deebdc220" d="M67.19,128.92H11.91l-.23-.21H67.4l-.21.21" transform="translate(-1.38 -2.58)"/><path class="fe6e5a3e-eb12-405e-a624-13c1ac46535b" d="M67.4,128.68H11.68l-.15-.16h56l-.15.16" transform="translate(-1.38 -2.58)"/><path class="ef70a21a-a762-430c-8408-5cd5bba8610a" d="M67.55,128.52h-56l-.12-.13H67.68l-.13.13" transform="translate(-1.38 -2.58)"/><path class="aa5c49b1-174f-4078-920a-2da6fb4ae461" d="M67.68,128.39H11.41l-.11-.1H67.79l-.11.1" transform="translate(-1.38 -2.58)"/><path class="fefd20f7-4093-4a4d-8008-eba4ea25cc78" d="M67.79,128.29H11.3l-.08-.09H67.87l-.08.09" transform="translate(-1.38 -2.58)"/><path class="f061e764-f424-4fe8-8ae1-36a5e21522ad" d="M67.87,128.2H11.22l-.09-.08H68l-.08.08" transform="translate(-1.38 -2.58)"/><path class="fde42de9-8023-495e-9a8e-92fea0c60475" d="M68,128.12H11.13l-.07-.07H68l-.07.07" transform="translate(-1.38 -2.58)"/><path class="f1b0b584-ed90-43b8-bba7-e46ea1d1e0e3" d="M68,128.05h-57L11,128H68.14l-.07.06" transform="translate(-1.38 -2.58)"/><path class="a69f7a96-1cfb-4553-ad06-2a0f478b8370" d="M68.14,128H11v-.09H68.14v0" transform="translate(-1.38 -2.58)"/><path class="fbd3a6d7-176f-4269-8290-04f1224d7c6c" d="M68.14,127.9h.11" transform="translate(-1.38 -2.58)"/><path class="f34699ad-0359-4b23-b404-a56fe4102158" d="M68.19,127.9h.09" transform="translate(-1.38 -2.58)"/><path class="e2de5c0d-e54c-4c95-ad8d-80d2bbd019a3" d="M68.23,127.9h.06" transform="translate(-1.38 -2.58)"/><path class="a30859c9-c040-4e96-9854-e2280b212f47" d="M68.26,127.81h.06" transform="translate(-1.38 -2.58)"/><path class="ae9aa8d0-bd7e-400c-b2e3-086c0634ea56" d="M68.29,127.78h.06" transform="translate(-1.38 -2.58)"/><path class="e0859d70-b30f-4f80-9a1a-435487439734" d="M68.32,127.76h0" transform="translate(-1.38 -2.58)"/><path class="fb5e3509-9d21-4930-b92f-20c1061be0e1" d="M68.34,127.73h0" transform="translate(-1.38 -2.58)"/><path class="b98c99b8-b546-419f-924e-a2f5e050b9ee" d="M68.36,127.72h0" transform="translate(-1.38 -2.58)"/><polyline class="ab34c774-4494-424c-ade6-e64ad34b2311" points="66.98 125.13 9.34 125.13 9.34 125.13 66.98 125.13 66.98 125.13"/></g><g class="aad0ce3c-92d5-4378-906b-a5998d7e680d"><path class="fe6e5a3e-eb12-405e-a624-13c1ac46535b" d="M13.76,130.74h0l-.07-.06h0l.07.07" transform="translate(-1.38 -2.58)"/><path class="ef70a21a-a762-430c-8408-5cd5bba8610a" d="M13.69,130.67h0l-.19-.18h0l.2.19" transform="translate(-1.38 -2.58)"/><path class="aa5c49b1-174f-4078-920a-2da6fb4ae461" d="M13.49,130.48h0v0" transform="translate(-1.38 -2.58)"/></g><g class="af3f5f13-cc24-493f-9a8b-cf1536ac3a6b"><path class="fe6e5a3e-eb12-405e-a624-13c1ac46535b" d="M65.33,130.74l.14-.13h0l-.14.12h0" transform="translate(-1.38 -2.58)"/><path class="e70e8d27-f2a2-4661-a785-db2deebdc220" d="M65.47,130.61l.16-.18h0l-.16.16h0" transform="translate(-1.38 -2.58)"/></g><ellipse class="a4af31b1-73bd-456c-b9b6-e730dc7dd91e" cx="38.17" cy="129.21" rx="27.59" ry="0.77"/><circle class="f2108a47-f264-4687-8ac0-106983f02091" cx="48" cy="1.55" r="1.55"/></svg>