<svg id="abc52cdf-0562-48d4-8db2-bcbedaf5a888" data-name="step2" xmlns="http://www.w3.org/2000/svg" xmlns:xlink="http://www.w3.org/1999/xlink" viewBox="0 0 184.55 292.66"><defs><style>.ace7e94e-3fa1-4c9d-9c37-38b27bfddf02{fill:none;}.f062713f-1530-493c-a683-38d031e63d90{fill:#0097ff;}.ed2fc0e1-bf6c-47f6-9158-7654bb6d307f{isolation:isolate;}.ef9fcf74-7192-4b1f-b7fb-0a90e26fa06c{fill:#2d3f51;}.b2ec8621-037d-4413-9cb1-c9b82961c260{clip-path:url(#b9ff3c69-abb1-4837-8019-af3b7096e220);}.a6ac63af-7ce4-4995-afe2-68a1d23e0b26{fill:#304356;}.ab972739-74c7-41e3-9782-07c02079a0fd{fill:#2f4254;}.be35577e-d691-4357-9e55-fbcc2e65df9b{fill:#2e4052;}.a9d8f44e-1fe0-456d-8086-460fd436e796{fill:#2d3f50;}.bdf310a2-fe8b-4a07-b704-d44c5d46cc00{fill:#2c3d4e;}.aa894e3f-b1da-4465-a74a-1799c26e51a5{fill:#2b3c4c;}.f6e5faca-e550-4140-a8b9-d73bdffd7453{fill:#2a3a4a;}.b1eb1ff8-0bf9-42f1-9184-f5b38fdbdab0{fill:#293949;}.fa7eb3a1-97c9-4f34-929b-757e50256fbf{fill:#283747;}.f1b1bae9-9bce-4734-95cb-d536ed822bde{fill:#263645;}.a301d53d-2764-4f17-a852-5dfdfb303e8a{fill:#253543;}.ad52c53b-55bb-4fa0-b49a-1d54dd162332{fill:#243341;}.e339d9b7-ca94-4c37-a7a3-b6ee00a05311{fill:#23323f;}.be32f8a0-dba5-4990-80e8-8dc1f54c665d{fill:#22303d;}.b3a969b9-98f4-411a-8d90-485a256207b7{fill:#212f3c;}.f84f3108-bc6a-4879-94e9-6a6ba75c10e2{fill:#202d3a;}.fe8fdb4a-7c42-4e58-ae3f-1e0f1ad578fc{fill:#1f2c38;}.b432e641-2ee9-48b6-ac24-6ca166e977af{fill:#1e2a36;}.bce78c84-d56b-403c-ad0f-985ae67748bb{fill:#1d2934;}.fa94af0c-a09e-47fb-bb2e-b4e1efbf4b7d{fill:#1c2732;}.a63d80ae-b679-44c2-9cd7-d34695068ab7{fill:#1b2630;}.bc544776-74e2-4a44-b5c2-5ed3b2cee3b3{fill:#314557;}.b8613e7a-585d-4e5a-989b-52dc813d7474{fill:#324659;}.b20f90b7-877b-4269-96ab-f7e4448b2105{fill:#33485b;}.acc09b60-c097-4d24-9d3a-d6f825bd9540{fill:#bac1c4;}.fcb83fd5-3fb6-433f-a75b-58209068c561{clip-path:url(#a3341713-9228-4ee4-88e2-805fbc17eb9b);}.b7becaf0-2aab-4f7c-a995-4fe129041342{fill:#004f85;}.ea03b822-be3e-4214-91ca-7cbe24346b77{clip-path:url(#abd7e647-3948-48da-85a9-b58b56fee0ac);}.bee6bc94-414a-4b06-b7e1-3e0dba65389c{clip-path:url(#bc1439be-c193-4f57-a1c4-fec62e1b3357);}.aa09ee78-5258-491e-8e34-7e10785462f6{clip-path:url(#b777e902-85d7-48d3-9c0f-745577e71eb8);}.a6341a2c-5d24-464f-92ec-19f8bce67042{clip-path:url(#e86313a4-3d6d-4d59-9028-34c308cedd43);}.a9818359-9f39-46d6-b074-87cd0f316ee1{fill:#0085e0;}.a4703c18-2667-40d1-98db-3e895ae23d7b{fill:#0082db;}.b4c7c316-a82e-4b47-ada1-0292d0757be1{fill:#007fd6;}.b47fae77-6be3-4e44-8acf-222587df531c{fill:#007cd1;}.b4bae1b5-2767-4773-ba43-51599bf3866c{fill:#0079cc;}.b36fe0fe-f74d-45a9-a78c-45afe928f66e{fill:#0076c7;}.b228fca3-7bb0-4b98-aaa0-da39a10dda7b{fill:#0073c2;}.f0193b36-f5f5-456b-baeb-acaafb9413da{fill:#0070bd;}.fd6f0ba4-40f6-4e64-89f3-9546fbc88813{fill:#006db8;}.b9c9a38e-988e-41c0-8a5f-e16a74538b52{fill:#006ab3;}.e009d54d-7b03-4669-b8f1-ad3224dc42ce{fill:#0067ad;}.f7073726-5dee-4893-9231-5ff729278172{fill:#0064a8;}.f764baa4-5209-4288-89fe-b8bf142cb15b{fill:#0061a3;}.b29039fc-9d1f-4e85-ae58-d146a54d5fe2{fill:#005e9e;}.a02da361-efce-40ea-84ba-df6feb5f5768{fill:#005b99;}.b98895a0-7e88-4e34-8f40-00c0ab38a07a{fill:#005894;}.aa5866cd-4df5-4806-8bdc-0ebc38d041d7{fill:#00558f;}.a7c2aec4-c7a9-4968-a987-bd3580e023d2{fill:#00528a;}.aeed3b29-ac65-4035-b579-7689ae04fab5{clip-path:url(#a4c0a0e9-2fbd-4a1b-a99b-9c5f752cc72b);}.af309697-9a6c-462d-b6bf-60a1ef60f81f{clip-path:url(#af6fda09-950f-4ed5-b425-93c1c2874b09);}.f9a4d7f6-e893-424f-bf39-158b50b0d565{clip-path:url(#e010bd5f-b1d5-4df3-90b6-616705bcfbbb);}.a86b4593-13ee-4845-bf78-050101716729{fill:#0088e6;}.a9e5e69a-83c2-4ae5-980e-2edd50f6b4aa{clip-path:url(#b3bbc27d-4a1d-496d-a1c2-1428d68e45f7);}.b7bc77df-8394-4f41-959f-77049b9d65d5{fill:#008beb;}.ef3b22c7-f4ea-47d8-87c8-d92177869924{fill:#008ef0;}.f66049d0-c502-4dd1-bf6b-c2a8f20dd203{fill:#0091f5;}.a50a076e-7227-4b89-82d6-bb855e2042ef{clip-path:url(#f956d30e-87af-451f-9f28-1bb8d426544d);}.fc3e291d-f858-4104-9b66-a4fd4b389690{clip-path:url(#a7f17b69-8597-48cb-9034-3da279a5cd81);}.ae6b1153-3dbc-4441-860d-231ec00ee3a0{clip-path:url(#e7c7de5d-e0ae-4dce-ae20-67a1ff9f5559);}.b8bf18e7-3eea-400e-aa09-4a65c391473a{fill:#0083dd;}</style><clipPath id="b9ff3c69-abb1-4837-8019-af3b7096e220" transform="translate(-43.08 -90.61)"><path class="ace7e94e-3fa1-4c9d-9c37-38b27bfddf02" d="M196.18,334.87V324.39l1.55,0c16.81.73,30.59,12.9,29.87,29.71a30.46,30.46,0,0,1-30.4,29.15c-.45,0-.89,0-1.34,0a30.45,30.45,0,0,1-29.13-31.74c.7-16.29,13.37-27.12,29.45-27.12v10.48c-10.75.07-18.52,6.79-19,17.09a20,20,0,0,0,19.11,20.82l.89,0a20,20,0,0,0,19.93-19.12c.48-10.33-8.19-18.2-19.85-18.78C197.06,335,196.54,334.87,196.18,334.87Z"/></clipPath><clipPath id="a3341713-9228-4ee4-88e2-805fbc17eb9b" transform="translate(-43.08 -90.61)"><path class="ace7e94e-3fa1-4c9d-9c37-38b27bfddf02" d="M54.73,220.87l-.3.28.3-.3Z"/></clipPath><clipPath id="abd7e647-3948-48da-85a9-b58b56fee0ac" transform="translate(-43.08 -90.61)"><path class="ace7e94e-3fa1-4c9d-9c37-38b27bfddf02" d="M105.25,218.76a4,4,0,0,0,.3-.28l-.3.3Z"/></clipPath><clipPath id="bc1439be-c193-4f57-a1c4-fec62e1b3357" transform="translate(-43.08 -90.61)"><path class="ace7e94e-3fa1-4c9d-9c37-38b27bfddf02" d="M105.55,221.15l-.3-.28v0Z"/></clipPath><clipPath id="b777e902-85d7-48d3-9c0f-745577e71eb8" transform="translate(-43.08 -90.61)"><path class="ace7e94e-3fa1-4c9d-9c37-38b27bfddf02" d="M54.43,218.48l.3.28v0Z"/></clipPath><clipPath id="e86313a4-3d6d-4d59-9028-34c308cedd43" transform="translate(-43.08 -90.61)"><path class="ace7e94e-3fa1-4c9d-9c37-38b27bfddf02" d="M105.25,220.85l3,3H51.76l3-3Z"/></clipPath><clipPath id="a4c0a0e9-2fbd-4a1b-a99b-9c5f752cc72b" transform="translate(-43.08 -90.61)"><path class="ace7e94e-3fa1-4c9d-9c37-38b27bfddf02" d="M54.43,221.15l.3-.3v0Z"/></clipPath><clipPath id="af6fda09-950f-4ed5-b425-93c1c2874b09" transform="translate(-43.08 -90.61)"><path class="ace7e94e-3fa1-4c9d-9c37-38b27bfddf02" d="M54.73,220.87l-.3.28-2.67,2.67v-8l2.67,2.67.3.28Z"/></clipPath><clipPath id="e010bd5f-b1d5-4df3-90b6-616705bcfbbb" transform="translate(-43.08 -90.61)"><path class="ace7e94e-3fa1-4c9d-9c37-38b27bfddf02" d="M105.25,220.87v0l.3.3Z"/></clipPath><clipPath id="b3bbc27d-4a1d-496d-a1c2-1428d68e45f7" transform="translate(-43.08 -90.61)"><path class="ace7e94e-3fa1-4c9d-9c37-38b27bfddf02" d="M105.25,218.76a4,4,0,0,0,.3-.28l2.67-2.67v8l-2.67-2.67-.3-.28Z"/></clipPath><clipPath id="f956d30e-87af-451f-9f28-1bb8d426544d" transform="translate(-43.08 -90.61)"><path class="ace7e94e-3fa1-4c9d-9c37-38b27bfddf02" d="M54.73,218.78l-3-3h56.46l-3,3Z"/></clipPath><clipPath id="a7f17b69-8597-48cb-9034-3da279a5cd81" transform="translate(-43.08 -90.61)"><path class="ace7e94e-3fa1-4c9d-9c37-38b27bfddf02" d="M54.73,218.76v0l-.3-.3Z"/></clipPath><clipPath id="e7c7de5d-e0ae-4dce-ae20-67a1ff9f5559" transform="translate(-43.08 -90.61)"><path class="ace7e94e-3fa1-4c9d-9c37-38b27bfddf02" d="M105.55,218.48l-.3.3v0Z"/></clipPath></defs><title>tube</title><path class="f062713f-1530-493c-a683-38d031e63d90" d="M90.4,93.35a30.84,30.84,0,0,1,22,9.21,32.75,32.75,0,0,1,.58,45.37,30.76,30.76,0,0,1-22,9.74h-.5a30.81,30.81,0,0,1-22-9.22,32.73,32.73,0,0,1-.58-45.36,30.82,30.82,0,0,1,22-9.75h.5m0-2.74h-.53C71,90.92,56,106.78,56.32,126.05c.31,19.09,15.55,34.36,34.14,34.36H91c18.84-.3,33.85-16.16,33.54-35.44-.32-19.08-15.55-34.36-34.15-34.36Z" transform="translate(-43.08 -90.61)"/><ellipse class="f062713f-1530-493c-a683-38d031e63d90" cx="110.67" cy="127.8" rx="7.39" ry="7.56" transform="translate(-46.65 -87.44) rotate(-1.62)"/><ellipse class="f062713f-1530-493c-a683-38d031e63d90" cx="71.89" cy="110.45" rx="7.73" ry="7.91" transform="translate(-46.17 -88.54) rotate(-1.62)"/><ellipse class="f062713f-1530-493c-a683-38d031e63d90" cx="69.29" cy="135.27" rx="6.66" ry="6.81" transform="translate(-46.87 -88.61) rotate(-1.62)"/><ellipse class="f062713f-1530-493c-a683-38d031e63d90" cx="93.16" cy="107.24" rx="6.66" ry="6.81" transform="translate(-46.07 -87.94) rotate(-1.62)"/><ellipse class="f062713f-1530-493c-a683-38d031e63d90" cx="77.88" cy="150.54" rx="5.34" ry="5.47" transform="translate(-47.3 -88.36) rotate(-1.62)"/><ellipse class="f062713f-1530-493c-a683-38d031e63d90" cx="109.42" cy="109.74" rx="6.66" ry="6.81" transform="translate(-46.14 -87.48) rotate(-1.62)"/><ellipse class="f062713f-1530-493c-a683-38d031e63d90" cx="99.65" cy="118.76" rx="3.62" ry="3.71" transform="translate(-46.4 -87.76) rotate(-1.62)"/><ellipse class="f062713f-1530-493c-a683-38d031e63d90" cx="72.11" cy="124.39" rx="2.22" ry="2.27" transform="translate(-46.57 -88.53) rotate(-1.62)"/><ellipse class="f062713f-1530-493c-a683-38d031e63d90" cx="105.05" cy="140.82" rx="2.22" ry="2.27" transform="translate(-47.02 -87.6) rotate(-1.62)"/><ellipse class="f062713f-1530-493c-a683-38d031e63d90" cx="60.15" cy="129.88" rx="2.22" ry="2.27" transform="translate(-46.73 -88.87) rotate(-1.62)"/><ellipse class="f062713f-1530-493c-a683-38d031e63d90" cx="68.84" cy="146.11" rx="2.22" ry="2.27" transform="translate(-47.18 -88.61) rotate(-1.62)"/><ellipse class="f062713f-1530-493c-a683-38d031e63d90" cx="83.91" cy="114.19" rx="2.22" ry="2.27" transform="translate(-46.27 -88.2) rotate(-1.62)"/><ellipse class="f062713f-1530-493c-a683-38d031e63d90" cx="60.25" cy="135.41" rx="1.32" ry="1.36" transform="translate(-46.88 -88.86) rotate(-1.62)"/><ellipse class="f062713f-1530-493c-a683-38d031e63d90" cx="62.34" cy="117.52" rx="1.32" ry="1.36" transform="translate(-46.38 -88.81) rotate(-1.62)"/><ellipse class="f062713f-1530-493c-a683-38d031e63d90" cx="109.05" cy="100.17" rx="1.32" ry="1.36" transform="translate(-45.87 -87.5) rotate(-1.62)"/><ellipse class="f062713f-1530-493c-a683-38d031e63d90" cx="100.88" cy="112.72" rx="1.32" ry="1.36" transform="translate(-46.22 -87.72) rotate(-1.62)"/><ellipse class="f062713f-1530-493c-a683-38d031e63d90" cx="99.27" cy="126.22" rx="1.32" ry="1.36" transform="translate(-46.61 -87.76) rotate(-1.62)"/><ellipse class="f062713f-1530-493c-a683-38d031e63d90" cx="117.85" cy="136.98" rx="1.32" ry="1.36" transform="translate(-46.9 -87.24) rotate(-1.62)"/><ellipse class="f062713f-1530-493c-a683-38d031e63d90" cx="111.15" cy="139.84" rx="1.32" ry="1.36" transform="translate(-46.99 -87.42) rotate(-1.62)"/><ellipse class="f062713f-1530-493c-a683-38d031e63d90" cx="93.32" cy="116.81" rx="1.32" ry="1.36" transform="translate(-46.34 -87.94) rotate(-1.62)"/><ellipse class="f062713f-1530-493c-a683-38d031e63d90" cx="78.55" cy="135.12" rx="1.32" ry="1.36" transform="matrix(1, -0.03, 0.03, 1, -46.87, -88.34)"/><ellipse class="f062713f-1530-493c-a683-38d031e63d90" cx="83.72" cy="108.07" rx="1.32" ry="1.36" transform="translate(-46.1 -88.21) rotate(-1.62)"/><ellipse class="f062713f-1530-493c-a683-38d031e63d90" cx="76.08" cy="121.53" rx="1.32" ry="1.36" transform="translate(-46.48 -88.42) rotate(-1.62)"/><ellipse class="f062713f-1530-493c-a683-38d031e63d90" cx="75.73" cy="128.73" rx="1.32" ry="1.36" transform="translate(-46.69 -88.43) rotate(-1.62)"/><ellipse class="f062713f-1530-493c-a683-38d031e63d90" cx="121.59" cy="124.51" rx="1.32" ry="1.36" transform="translate(-46.55 -87.13) rotate(-1.62)"/><ellipse class="f062713f-1530-493c-a683-38d031e63d90" cx="116.41" cy="142.01" rx="1.32" ry="1.36" transform="translate(-47.04 -87.27) rotate(-1.62)"/><ellipse class="f062713f-1530-493c-a683-38d031e63d90" cx="106.75" cy="150.94" rx="1.32" ry="1.36" transform="translate(-47.3 -87.54) rotate(-1.62)"/><ellipse class="f062713f-1530-493c-a683-38d031e63d90" cx="88.16" cy="96.27" rx="1.32" ry="1.36" transform="translate(-45.77 -88.09) rotate(-1.62)"/><ellipse class="f062713f-1530-493c-a683-38d031e63d90" cx="76.07" cy="142.65" rx="1.32" ry="1.36" transform="translate(-47.08 -88.41) rotate(-1.62)"/><ellipse class="f062713f-1530-493c-a683-38d031e63d90" cx="84.6" cy="155.91" rx="1.32" ry="1.36" transform="translate(-47.45 -88.17) rotate(-1.62)"/><ellipse class="f062713f-1530-493c-a683-38d031e63d90" cx="90.18" cy="138.81" rx="1.32" ry="1.36" transform="translate(-46.96 -88.02) rotate(-1.62)"/><ellipse class="f062713f-1530-493c-a683-38d031e63d90" cx="87.43" cy="126.71" rx="6.76" ry="6.91" transform="translate(-46.63 -88.1) rotate(-1.62)"/><ellipse class="f062713f-1530-493c-a683-38d031e63d90" cx="95.05" cy="150.27" rx="7.24" ry="7.4" transform="translate(-47.29 -87.87) rotate(-1.62)"/><ellipse class="f062713f-1530-493c-a683-38d031e63d90" cx="82.68" cy="140.2" rx="3.62" ry="3.71" transform="translate(-47.01 -88.23) rotate(-1.62)"/><ellipse class="f062713f-1530-493c-a683-38d031e63d90" cx="64.39" cy="123.07" rx="3.62" ry="3.71" transform="translate(-46.53 -88.75) rotate(-1.62)"/><ellipse class="f062713f-1530-493c-a683-38d031e63d90" cx="110.98" cy="146.31" rx="3.62" ry="3.71" transform="translate(-47.17 -87.43) rotate(-1.62)"/><ellipse class="f062713f-1530-493c-a683-38d031e63d90" cx="102.94" cy="98.39" rx="3.62" ry="3.71" transform="translate(-45.82 -87.67) rotate(-1.62)"/><ellipse class="f062713f-1530-493c-a683-38d031e63d90" cx="95.14" cy="95.57" rx="3.62" ry="3.71" transform="translate(-45.74 -87.89) rotate(-1.62)"/><ellipse class="f062713f-1530-493c-a683-38d031e63d90" cx="82" cy="98.72" rx="3.62" ry="3.71" transform="translate(-45.84 -88.26) rotate(-1.62)"/><ellipse class="f062713f-1530-493c-a683-38d031e63d90" cx="118.98" cy="116.62" rx="3.62" ry="3.71" transform="matrix(1, -0.03, 0.03, 1, -46.33, -87.21)"/><ellipse class="f062713f-1530-493c-a683-38d031e63d90" cx="99.15" cy="135.17" rx="3.62" ry="3.71" transform="translate(-46.86 -87.76) rotate(-1.62)"/><g class="ed2fc0e1-bf6c-47f6-9158-7654bb6d307f"><path class="ef9fcf74-7192-4b1f-b7fb-0a90e26fa06c" d="M196.18,334.87c.36,0,.88.16,1.1,0,11.66.58,20.33,8.45,19.85,18.78A20,20,0,0,1,197.2,372.8l-.89,0A20,20,0,0,1,177.2,352C177.66,341.66,185.43,334.94,196.18,334.87Z" transform="translate(-43.08 -90.61)"/><g class="ed2fc0e1-bf6c-47f6-9158-7654bb6d307f"><g class="b2ec8621-037d-4413-9cb1-c9b82961c260"><g class="ed2fc0e1-bf6c-47f6-9158-7654bb6d307f"><path class="a6ac63af-7ce4-4995-afe2-68a1d23e0b26" d="M196.18,334.87V324.39l1.55,0c16.81.73,30.59,12.9,29.87,29.71a30.46,30.46,0,0,1-30.4,29.15c-.45,0-.89,0-1.34,0a30.45,30.45,0,0,1-29.13-31.74c.7-16.29,13.37-27.12,29.45-27.12v10.48c-10.75.07-18.52,6.79-19,17.09a20,20,0,0,0,19.11,20.82l.89,0a20,20,0,0,0,19.93-19.12c.48-10.33-8.19-18.2-19.85-18.78-.22.13-.74,0-1.1,0" transform="translate(-43.08 -90.61)"/><path class="a6ac63af-7ce4-4995-afe2-68a1d23e0b26" d="M196.18,330.45c-.06.14-.39.19-.38.35s.26.19.38.28v3.79c-10.75.07-18.52,6.79-19,17.09a20,20,0,0,0,19.11,20.82l.89,0a20,20,0,0,0,19.93-19.12c.48-10.33-8.19-18.2-19.85-18.78-.22.13-.74,0-1.1,0v-3.79h.06c.12.16.32.49.52.44s.38-1.59.06-1.73a.36.36,0,0,0-.32.1,2.27,2.27,0,0,0-.32.57v-6.06l1.55,0c16.81.73,30.59,12.9,29.87,29.71a30.46,30.46,0,0,1-30.4,29.15c-.45,0-.89,0-1.34,0a30.45,30.45,0,0,1-29.13-31.74c.7-16.29,13.37-27.12,29.45-27.12v6.06" transform="translate(-43.08 -90.61)"/><path class="ab972739-74c7-41e3-9782-07c02079a0fd" d="M196.18,328.59c-.93,1.29-3.75.36-3.72,2.45,0,.53.51,1.5,3.72,2.09v1.74c-10.75.07-18.52,6.79-19,17.09a20,20,0,0,0,19.11,20.82l.89,0a20,20,0,0,0,19.93-19.12c.48-10.33-8.19-18.2-19.85-18.78-.22.13-.74,0-1.1,0v-1.74l.06,0c.77.23.84,0,1-.65,0,.1,0,.26.1.34.5.6,1.75.55,2.52.69,1.69.32,10.34,2.25,15.37,9.5a20.21,20.21,0,0,1,3.2,7.83c.46,2.49-.14,5.1.86,7.52.21.5.36,1.52.89,1.55,2,.11,10-13.07-.95-24.51-8.81-9.25-21.05-7.59-21.7-6.87-.06.07,0,.28-.06.32-.49.22-.92-.74-1.28-.24v-4.2l1.55,0c16.81.73,30.59,12.9,29.87,29.71a30.46,30.46,0,0,1-30.4,29.15c-.45,0-.89,0-1.34,0a30.45,30.45,0,0,1-29.13-31.74c.7-16.29,13.37-27.12,29.45-27.12v4.2" transform="translate(-43.08 -90.61)"/><path class="be35577e-d691-4357-9e55-fbcc2e65df9b" d="M196.18,327.8c-.28.38-1.06.32-1.52.46-4.36,1.33-7,4.51-6.24,5.73.28.47,1.26,0,1.8,0s5.92.2,6,.21v.68c-10.75.07-18.52,6.79-19,17.09a20,20,0,0,0,19.11,20.82l.89,0a20,20,0,0,0,19.93-19.12c.48-10.33-8.19-18.2-19.85-18.78-.22.13-.74,0-1.1,0v-.68h.06a3,3,0,0,0,.94-.15c.27,0,25.89,2.14,19.67,27.65-.11.46-.55,1.24-.2,1.57,1.51,1.42,8.9-3.56,8.68-14.52-.39-19.46-26.38-22.37-27.74-21.24-.14.12-.1.41-.14.59-.25-.25-.86-.84-1.27-.28v-3.41l1.55,0c16.81.73,30.59,12.9,29.87,29.71a30.46,30.46,0,0,1-30.4,29.15c-.45,0-.89,0-1.34,0a30.45,30.45,0,0,1-29.13-31.74c.7-16.29,13.37-27.12,29.45-27.12v3.41" transform="translate(-43.08 -90.61)"/><path class="a9d8f44e-1fe0-456d-8086-460fd436e796" d="M196.18,327.22c-.26.32-.94.19-1.34.27-3.06.62-7.54,3.29-9,5.4-8.42,11.86-9.14,15.61-8.79,21.33A20.3,20.3,0,0,0,199,373c.19,0,19.75-3.55,25-14.91,3.77-8.1,1-18.82-6.48-24.94a26,26,0,0,0-20.25-5.84c-.38,0-.8-.51-1.14-.09v-2.83l1.55,0c16.81.73,30.59,12.9,29.87,29.71a30.46,30.46,0,0,1-30.4,29.15c-.45,0-.89,0-1.34,0a30.45,30.45,0,0,1-29.13-31.74c.7-16.29,13.37-27.12,29.45-27.12v2.83" transform="translate(-43.08 -90.61)"/><path class="bdf310a2-fe8b-4a07-b704-d44c5d46cc00" d="M196.18,326.81c-21.64,4.23-25.85,32.08-11.05,42.83,14.14,10.28,44.2-.16,40.5-23.19-2-12.23-14.92-21.2-28.29-19.59-.39,0-.77-.07-1.16-.05v-2.42l1.55,0c16.81.73,30.59,12.9,29.87,29.71a30.46,30.46,0,0,1-30.4,29.15c-.45,0-.89,0-1.34,0a30.45,30.45,0,0,1-29.13-31.74c.7-16.29,13.37-27.12,29.45-27.12v2.42" transform="translate(-43.08 -90.61)"/><path class="aa894e3f-b1da-4465-a74a-1799c26e51a5" d="M196.18,326.42c-.36.43-1.27.23-1.82.33a21.32,21.32,0,0,0-12.57,7.73c-4.61,6.32-6.61,13-5.95,19.82,1,10.56,10.12,21.21,25,20.13,25.39-1.85,32.76-28.46,17-41.54a28.22,28.22,0,0,0-20.45-6.45c-.4.08-.83-.45-1.19,0v-2l1.55,0c16.81.73,30.59,12.9,29.87,29.71a30.46,30.46,0,0,1-30.4,29.15c-.45,0-.89,0-1.34,0a30.45,30.45,0,0,1-29.13-31.74c.7-16.29,13.37-27.12,29.45-27.12v2" transform="translate(-43.08 -90.61)"/><path class="f6e5faca-e550-4140-a8b9-d73bdffd7453" d="M196.18,326.09c-.17.19-.59.07-.84.1-9.14,1.12-13.84,7.46-15.6,9.85a28.49,28.49,0,0,0-4.47,18.3c1.07,11,10.95,21.78,25.65,20.75,25.76-1.8,33.07-28.91,17-42.3a29.05,29.05,0,0,0-21.73-6.7v-1.7l1.55,0c16.81.73,30.59,12.9,29.87,29.71a30.46,30.46,0,0,1-30.4,29.15c-.45,0-.89,0-1.34,0a30.45,30.45,0,0,1-29.13-31.74c.7-16.29,13.37-27.12,29.45-27.12v1.7" transform="translate(-43.08 -90.61)"/><path class="b1eb1ff8-0bf9-42f1-9184-f5b38fdbdab0" d="M196.18,325.83c-.4.45-1.39.19-2,.27-4.35.58-10.48,3.47-13.78,7.86a27.9,27.9,0,0,0-5.68,20.41c1.08,11.15,11.2,22.18,26.27,21.35,23.92-1.33,34.35-26.82,17.43-42.63-8.85-8.26-22-7.57-22.26-7.26v-1.44l1.55,0c16.81.73,30.59,12.9,29.87,29.71a30.46,30.46,0,0,1-30.4,29.15c-.45,0-.89,0-1.34,0a30.45,30.45,0,0,1-29.13-31.74c.7-16.29,13.37-27.12,29.45-27.12v1.44" transform="translate(-43.08 -90.61)"/><path class="fa7eb3a1-97c9-4f34-929b-757e50256fbf" d="M196.18,325.6c-.4.45-1.4.17-2,.25-4.17.51-10.22,2.54-15.31,9.22-1.36,1.78-5.7,8.43-4.64,19.33,1.1,11.32,11.44,22.61,26.87,21.92C225,375.26,235.55,349,218.52,333c-8.89-8.31-22.07-7.72-22.34-7.41v-1.21l1.55,0c16.81.73,30.59,12.9,29.87,29.71a30.46,30.46,0,0,1-30.4,29.15c-.45,0-.89,0-1.34,0a30.45,30.45,0,0,1-29.13-31.74c.7-16.29,13.37-27.12,29.45-27.12v1.21" transform="translate(-43.08 -90.61)"/><path class="f1b1bae9-9bce-4734-95cb-d536ed822bde" d="M196.18,325.38c-.41.46-1.42.16-2,.23a23,23,0,0,0-15.63,9.07c-1.79,2.32-5.85,8.89-4.79,19.75,1.11,11.42,11.92,23.25,27.46,22.44,23.9-1.25,34.47-27.93,17.39-43.92-9.19-8.61-22.34-7.64-22.4-7.57v-1l1.55,0c16.81.73,30.59,12.9,29.87,29.71a30.46,30.46,0,0,1-30.4,29.15c-.45,0-.89,0-1.34,0a30.45,30.45,0,0,1-29.13-31.74c.7-16.29,13.37-27.12,29.45-27.12v1" transform="translate(-43.08 -90.61)"/><path class="a301d53d-2764-4f17-a852-5dfdfb303e8a" d="M196.18,325.18c-.1.11-.35,0-.5,0-7.82.54-13.62,4.4-16.45,7.83a27.33,27.33,0,0,0-6.12,20.14c1.61,16.54,15.71,24.81,28.15,24.19,24.16-1.2,34.71-28.22,17.37-44.49-9.12-8.56-22.17-8-22.45-7.71v-.79l1.55,0c16.81.73,30.59,12.9,29.87,29.71a30.46,30.46,0,0,1-30.4,29.15c-.45,0-.89,0-1.34,0a30.45,30.45,0,0,1-29.13-31.74c.7-16.29,13.37-27.12,29.45-27.12v.79" transform="translate(-43.08 -90.61)"/><path class="ad52c53b-55bb-4fa0-b49a-1d54dd162332" d="M196.18,325c-.43.47-1.48.13-2.12.19A23.85,23.85,0,0,0,177.89,334c-2.9,3.65-6.14,10.16-5.13,20.5,1.16,11.86,12.41,24.17,28.57,23.39,24.38-1.18,34.91-28.54,17.34-45-9.2-8.65-22.21-8.14-22.49-7.83v-.63l1.55,0c16.81.73,30.59,12.9,29.87,29.71a30.46,30.46,0,0,1-30.4,29.15c-.45,0-.89,0-1.34,0a30.45,30.45,0,0,1-29.13-31.74c.7-16.29,13.37-27.12,29.45-27.12V325" transform="translate(-43.08 -90.61)"/><path class="e339d9b7-ca94-4c37-a7a3-b6ee00a05311" d="M196.18,324.87c-.44.47-1.5.12-2.14.18a24.47,24.47,0,0,0-16.42,8.64c-6.5,8.07-5.62,17.67-5.33,20.83,1.11,12,13,24.49,28.8,23.84,24.27-1,35.13-29.08,17.62-45.54-9-8.45-22.26-8.25-22.53-7.95v-.48l1.55,0c16.81.73,30.59,12.9,29.87,29.71a30.46,30.46,0,0,1-30.4,29.15c-.45,0-.89,0-1.34,0a30.45,30.45,0,0,1-29.13-31.74c.7-16.29,13.37-27.12,29.45-27.12v.48" transform="translate(-43.08 -90.61)"/><path class="be32f8a0-dba5-4990-80e8-8dc1f54c665d" d="M196.18,324.74c-.45.48-1.52.11-2.17.16-1.06.08-10.48,1-16.65,8.52-6.78,8.29-5.83,17.95-5.52,21.13,1.22,12.42,13.42,25.14,29.64,24.27,24.56-1.33,35-29.29,17.25-46-9.24-8.69-22.27-8.35-22.55-8.05v-.35l1.55,0c16.81.73,30.59,12.9,29.87,29.71a30.46,30.46,0,0,1-30.4,29.15c-.45,0-.89,0-1.34,0a30.45,30.45,0,0,1-29.13-31.74c.7-16.29,13.37-27.12,29.45-27.12v.35" transform="translate(-43.08 -90.61)"/><path class="b3a969b9-98f4-411a-8d90-485a256207b7" d="M196.18,324.64c-.46.48-1.54.09-2.2.13a25.28,25.28,0,0,0-17.35,9c-2.43,2.91-6.36,9.45-5.27,20.54,1.45,14.69,15,25.9,30.19,25,26.28-1.58,33.61-32.5,16.74-46.88a32.42,32.42,0,0,0-22.11-7.74,3.09,3.09,0,0,1,1.55-.22c16.81.73,30.59,12.9,29.87,29.71a30.46,30.46,0,0,1-30.4,29.15c-.45,0-.89,0-1.34,0a30.45,30.45,0,0,1-29.13-31.74c.7-16.29,13.37-27.12,29.45-27.12v.25" transform="translate(-43.08 -90.61)"/><path class="f84f3108-bc6a-4879-94e9-6a6ba75c10e2" d="M196.18,324.54c-.46.48-1.55.09-2.21.12a25.36,25.36,0,0,0-17.08,8.24c-4.13,4.41-6.57,11.81-6.21,18.86a29.21,29.21,0,0,0,28.31,28c20.16.65,34-19,26.51-37.49a27.19,27.19,0,0,1,2.1,11.86,30.46,30.46,0,0,1-30.4,29.15c-.45,0-.89,0-1.34,0a30.45,30.45,0,0,1-29.13-31.74c.7-16.29,13.37-27.12,29.45-27.12v.15" transform="translate(-43.08 -90.61)"/><path class="fe8fdb4a-7c42-4e58-ae3f-1e0f1ad578fc" d="M196.18,324.46c-.46.49-1.56.08-2.23.11a25.94,25.94,0,0,0-17.29,8.11c-4.54,4.91-6.87,12.14-6.39,19.82,1.08,17.37,16.1,27.89,29.39,27.68,19.91-.32,30.29-17.07,27.48-32.52a28,28,0,0,1,.46,6.47,30.46,30.46,0,0,1-30.4,29.15c-.45,0-.89,0-1.34,0a30.45,30.45,0,0,1-29.13-31.74c.7-16.29,13.37-27.12,29.45-27.12v.07" transform="translate(-43.08 -90.61)"/><path class="b432e641-2ee9-48b6-ac24-6ca166e977af" d="M196.18,324.41c-.47.49-1.58.07-2.25.1a26.12,26.12,0,0,0-17.49,8c-3.3,3.51-7.12,9.84-6.61,20A29.75,29.75,0,0,0,199,380.67c14,.44,28.52-10.06,28.59-28.37,0,.61,0,1.22,0,1.83a30.46,30.46,0,0,1-30.4,29.15c-.45,0-.89,0-1.34,0a30.45,30.45,0,0,1-29.13-31.74c.7-16.29,13.37-27.12,29.45-27.12v0" transform="translate(-43.08 -90.61)"/><path class="bce78c84-d56b-403c-ad0f-985ae67748bb" d="M196.18,324.39c-.48.49-1.59.06-2.28.08-1.76.06-10.89.73-17.61,7.75-6.88,7.19-7.18,16.57-7,20.26a30.4,30.4,0,0,0,29.79,28.64,27.63,27.63,0,0,0,28.28-24.26,30.46,30.46,0,0,1-30.16,26.42c-.45,0-.89,0-1.34,0a30.45,30.45,0,0,1-29.13-31.74c.7-16.29,13.37-27.12,29.45-27.12h0" transform="translate(-43.08 -90.61)"/><path class="fa94af0c-a09e-47fb-bb2e-b4e1efbf4b7d" d="M190.86,324.8C163.3,330.16,162,363,182.7,376.7c14.66,9.71,37.41,5.09,43.67-15.21a30.46,30.46,0,0,1-29.17,21.79c-.45,0-.89,0-1.34,0a30.45,30.45,0,0,1-29.13-31.74c.64-14.84,11.21-25.14,25.24-26.86l-1.11.15" transform="translate(-43.08 -90.61)"/><path class="a63d80ae-b679-44c2-9cd7-d34695068ab7" d="M185.88,326c-26,9.63-21.63,43.82,1,53.56,14.59,6.3,30.34.88,37.46-12.87a30.47,30.47,0,0,1-27.1,16.6c-.45,0-.89,0-1.34,0a30.45,30.45,0,0,1-29.13-31.74,27.33,27.33,0,0,1,19.51-25.63l-.36.11" transform="translate(-43.08 -90.61)"/><path class="a6ac63af-7ce4-4995-afe2-68a1d23e0b26" d="M220.59,355.25c-3.49-11.55-4.06-12.16-6.81-15.06a25.91,25.91,0,0,0-9-6c-7.27-3.22-7.27-3.22-7.32-3.32a.92.92,0,0,1,.06-.69c2.06-3.71,21.4-2,26,12.92,2.59,8.32-1.16,13.62-2.56,13.19-.31-.09-.3-.69-.39-1" transform="translate(-43.08 -90.61)"/><path class="bc544776-74e2-4a44-b5c2-5ed3b2cee3b3" d="M220.79,351c-1.87-5.18-3.79-8.57-6.44-11.35A37.52,37.52,0,0,0,203.42,332c-.43-.18-1.24-.22-1.4-.66,0,0,.68-1.66.7-1.67s8.12-1.51,15.57,5.74c1.14,1.1,6.72,7,5.18,14.44-.12.56-.07,1.46-.49,1.86,0,0-1.75.39-1.77.38-.3-.17-.3-.76-.42-1.09" transform="translate(-43.08 -90.61)"/><path class="b8613e7a-585d-4e5a-989b-52dc813d7474" d="M220.52,347.43c-.12-.09-.17-.3-.23-.43a30.21,30.21,0,0,0-2.83-4.9,29.28,29.28,0,0,0-4-4.54c-.76-.7-1.82-1.62-2.64-2.26a24.42,24.42,0,0,1-2.91-2,5.48,5.48,0,0,1-1-2.33c3.52.28,7.16.56,12.37,6.35,4.56,5.06,3.42,10.85,3.22,10.95l-2-.81" transform="translate(-43.08 -90.61)"/><path class="f84f3108-bc6a-4879-94e9-6a6ba75c10e2" d="M214.11,329.31c-8.32-4.69-14.81-5-17.93-4.77v-.15l1.55,0a34.24,34.24,0,0,1,16.55,5l-.17-.1" transform="translate(-43.08 -90.61)"/><path class="fe8fdb4a-7c42-4e58-ae3f-1e0f1ad578fc" d="M204.2,325.3a34.74,34.74,0,0,0-8-.84v-.07l1.55,0a35.46,35.46,0,0,1,10.59,2.1l-2.22-.73c-.57-.15-1.32-.36-1.9-.49" transform="translate(-43.08 -90.61)"/><path class="b20f90b7-877b-4269-96ab-f7e4448b2105" d="M219.8,342.81a13.88,13.88,0,0,1-1.08-1.35c-.46-.57-1.23-1.18-1.7-1.74s-.75-1-1.08-1.41c-.8-1-1.71-1.9-2.42-3a20.43,20.43,0,0,0-1.62-2c2.76,1.12,8.49,3.46,9.26,10.51-.41-.33-1-.72-1.36-1.08" transform="translate(-43.08 -90.61)"/><path class="b432e641-2ee9-48b6-ac24-6ca166e977af" d="M198.68,324.48c-1.23-.08-2.45-.07-2.5-.07.51,0,1,0,1.55,0a36.23,36.23,0,0,1,5.15.6l-2.36-.36c-.55-.06-1.29-.14-1.84-.18" transform="translate(-43.08 -90.61)"/><path class="bce78c84-d56b-403c-ad0f-985ae67748bb" d="M197.41,324.41l-1.23,0,1.27,0h0" transform="translate(-43.08 -90.61)"/></g></g></g></g><path class="acc09b60-c097-4d24-9d3a-d6f825bd9540" d="M57.1,236.09c-1.93,0-3.06-1.56-3.65-5,0-.31-.64-26-.41-40a10.74,10.74,0,0,0-.9-4.52l-8.65-20a.41.41,0,0,1,0-.16c0-1.16,1.22-1.74,3.53-1.74,8.22,0,30,7,47.94,14,17.59,6.81,37.15,15.7,39.32,20.22a1.54,1.54,0,0,1-.1,1.72.32.32,0,0,1-.18.12L113.54,207c-8.31,10.26-16.28,18-23.67,22.88-6,4-11.52,6.06-16.36,6.06h0A15.43,15.43,0,0,1,68.1,235l-1.36-.5a5.37,5.37,0,0,0-1.93-.34,12.82,12.82,0,0,0-4.4,1.09A10,10,0,0,1,57.1,236.09Z" transform="translate(-43.08 -90.61)"/><path class="acc09b60-c097-4d24-9d3a-d6f825bd9540" d="M47,165c16.48,0,91.75,29.2,86.87,35.28l-20.54,6.38c-8.48,10.48-16.43,18.09-23.66,22.9-6,4-11.38,6-16.15,6a15.19,15.19,0,0,1-5.28-.92l-1.36-.5a5.78,5.78,0,0,0-2.06-.36c-2.94,0-5.65,2-7.71,2-1.51,0-2.66-1.06-3.28-4.72,0,0-.64-25.75-.4-40a11.26,11.26,0,0,0-.94-4.68l-8.65-20C43.86,165.4,45,165,47,165m0-.75c-2.56,0-3.87.71-3.91,2.11a.71.71,0,0,0,.07.32l8.64,20a10.51,10.51,0,0,1,.88,4.37c-.24,14.07.39,39.74.4,40,0,0,0,.07,0,.11.42,2.49,1.26,5.34,4,5.34a10.45,10.45,0,0,0,3.45-.9,12.3,12.3,0,0,1,4.26-1.06,5.12,5.12,0,0,1,1.8.31l1.36.51a15.89,15.89,0,0,0,5.54,1c4.91,0,10.49-2.06,16.57-6.13,7.4-4.93,15.37-12.62,23.68-22.87L134.08,201a.79.79,0,0,0,.37-.25,1.91,1.91,0,0,0,.14-2.11C132.37,194,112.72,185,95.07,178.2c-18-6.95-39.82-14-48.08-14Z" transform="translate(-43.08 -90.61)"/><path class="acc09b60-c097-4d24-9d3a-d6f825bd9540" d="M197.17,373.75c-.59,0-1.2,0-1.8-.06-14.2-.92-25.32-13.21-25.32-28v-25.1H107.6A54.66,54.66,0,0,1,53,266V210a27.15,27.15,0,0,1,27.12-27.13q.9,0,1.8.06c14.2.92,25.32,13.21,25.32,28v36.68a18.84,18.84,0,0,0,18.82,18.82h71.1a27.16,27.16,0,0,1,27.13,27.12v53.14a27.13,27.13,0,0,1-27.13,27.13Z" transform="translate(-43.08 -90.61)"/><path class="acc09b60-c097-4d24-9d3a-d6f825bd9540" d="M80.13,183.2c.59,0,1.18,0,1.78.06,14.22.92,25,13.36,25,27.6v36.69a19.19,19.19,0,0,0,19.19,19.19h71.1a26.75,26.75,0,0,1,26.75,26.74v53.14a26.74,26.74,0,0,1-26.75,26.75c-.59,0-1.18,0-1.78-.05-14.22-.92-25-13.36-25-27.61V320.23H107.6A54.22,54.22,0,0,1,53.38,266V210A26.75,26.75,0,0,1,80.13,183.2m0-.75A27.54,27.54,0,0,0,52.63,210V266a55,55,0,0,0,55,55h62.07v24.73c0,15,11.28,27.42,25.67,28.35.61,0,1.23.06,1.83.06a27.53,27.53,0,0,0,27.5-27.5V293.48A27.53,27.53,0,0,0,197.17,266h-71.1a18.46,18.46,0,0,1-18.44-18.44V210.86c0-15-11.28-27.42-25.67-28.35q-.92-.06-1.83-.06Z" transform="translate(-43.08 -90.61)"/><g class="ed2fc0e1-bf6c-47f6-9158-7654bb6d307f"><g class="ed2fc0e1-bf6c-47f6-9158-7654bb6d307f"><g class="fcb83fd5-3fb6-433f-a75b-58209068c561"><g class="ed2fc0e1-bf6c-47f6-9158-7654bb6d307f"><path class="b7becaf0-2aab-4f7c-a995-4fe129041342" d="M54.43,221.15l.3-.3v0h0l-.18.17-.12.11" transform="translate(-43.08 -90.61)"/></g></g></g><g class="ed2fc0e1-bf6c-47f6-9158-7654bb6d307f"><g class="ea03b822-be3e-4214-91ca-7cbe24346b77"><g class="ed2fc0e1-bf6c-47f6-9158-7654bb6d307f"><path class="b7becaf0-2aab-4f7c-a995-4fe129041342" d="M105.55,218.48l-.3.3v0h0l.19-.16.11-.12" transform="translate(-43.08 -90.61)"/></g></g></g><g class="ed2fc0e1-bf6c-47f6-9158-7654bb6d307f"><g class="bee6bc94-414a-4b06-b7e1-3e0dba65389c"><g class="ed2fc0e1-bf6c-47f6-9158-7654bb6d307f"><path class="b7becaf0-2aab-4f7c-a995-4fe129041342" d="M105.55,221.15l-.18-.17-.12-.11v0l.3.3" transform="translate(-43.08 -90.61)"/></g></g></g><g class="ed2fc0e1-bf6c-47f6-9158-7654bb6d307f"><g class="aa09ee78-5258-491e-8e34-7e10785462f6"><g class="ed2fc0e1-bf6c-47f6-9158-7654bb6d307f"><path class="b7becaf0-2aab-4f7c-a995-4fe129041342" d="M54.43,218.48l.18.18.12.1v0l-.3-.3" transform="translate(-43.08 -90.61)"/></g></g></g><g class="ed2fc0e1-bf6c-47f6-9158-7654bb6d307f"><g class="a6341a2c-5d24-464f-92ec-19f8bce67042"><g class="ed2fc0e1-bf6c-47f6-9158-7654bb6d307f"><path class="a9818359-9f39-46d6-b074-87cd0f316ee1" d="M54.73,220.85h50.52l.08.08H54.65l.08-.08" transform="translate(-43.08 -90.61)"/><path class="a4703c18-2667-40d1-98db-3e895ae23d7b" d="M54.65,220.93h50.68l.22.21H54.44l.21-.21" transform="translate(-43.08 -90.61)"/><path class="b4c7c316-a82e-4b47-ada1-0292d0757be1" d="M54.44,221.14h51.11l.19.2H54.24l.2-.2" transform="translate(-43.08 -90.61)"/><path class="b47fae77-6be3-4e44-8acf-222587df531c" d="M54.24,221.34h51.5l.17.17H54.07l.17-.17" transform="translate(-43.08 -90.61)"/><path class="b4bae1b5-2767-4773-ba43-51599bf3866c" d="M54.07,221.51h51.84l.16.16H53.91l.16-.16" transform="translate(-43.08 -90.61)"/><path class="b36fe0fe-f74d-45a9-a78c-45afe928f66e" d="M53.91,221.67h52.16l.16.15H53.76l.15-.15" transform="translate(-43.08 -90.61)"/><path class="b228fca3-7bb0-4b98-aaa0-da39a10dda7b" d="M53.76,221.82h52.47l.14.15H53.61l.15-.15" transform="translate(-43.08 -90.61)"/><path class="f0193b36-f5f5-456b-baeb-acaafb9413da" d="M53.61,222h52.76l.14.14h-53l.14-.14" transform="translate(-43.08 -90.61)"/><path class="fd6f0ba4-40f6-4e64-89f3-9546fbc88813" d="M53.47,222.11h53l.14.13H53.34l.13-.13" transform="translate(-43.08 -90.61)"/><path class="b9c9a38e-988e-41c0-8a5f-e16a74538b52" d="M53.34,222.24h53.31l.13.14H53.2l.14-.14" transform="translate(-43.08 -90.61)"/><path class="e009d54d-7b03-4669-b8f1-ad3224dc42ce" d="M53.2,222.38h53.58l.13.12H53.08l.12-.12" transform="translate(-43.08 -90.61)"/><path class="f7073726-5dee-4893-9231-5ff729278172" d="M53.08,222.5h53.83l.12.13H53l.13-.13" transform="translate(-43.08 -90.61)"/><path class="f764baa4-5209-4288-89fe-b8bf142cb15b" d="M53,222.63H107l.13.12H52.83l.12-.12" transform="translate(-43.08 -90.61)"/><path class="b29039fc-9d1f-4e85-ae58-d146a54d5fe2" d="M52.83,222.75h54.33l.12.13H52.7l.13-.13" transform="translate(-43.08 -90.61)"/><path class="a02da361-efce-40ea-84ba-df6feb5f5768" d="M52.7,222.88h54.58l.13.12H52.58l.12-.12" transform="translate(-43.08 -90.61)"/><path class="b98895a0-7e88-4e34-8f40-00c0ab38a07a" d="M52.58,223h54.83l.12.13H52.45l.13-.13" transform="translate(-43.08 -90.61)"/><path class="aa5866cd-4df5-4806-8bdc-0ebc38d041d7" d="M52.45,223.13h55.08l.13.13H52.32l.13-.13" transform="translate(-43.08 -90.61)"/><path class="a7c2aec4-c7a9-4968-a987-bd3580e023d2" d="M52.32,223.26h55.34l.15.15H52.17l.15-.15" transform="translate(-43.08 -90.61)"/><path class="b7becaf0-2aab-4f7c-a995-4fe129041342" d="M52.17,223.41h55.64l.41.41H51.76l.41-.41" transform="translate(-43.08 -90.61)"/></g></g></g><g class="ed2fc0e1-bf6c-47f6-9158-7654bb6d307f"><g class="aeed3b29-ac65-4035-b579-7689ae04fab5"><g class="ed2fc0e1-bf6c-47f6-9158-7654bb6d307f"><path class="a9818359-9f39-46d6-b074-87cd0f316ee1" d="M54.73,220.85l-.07.07h0l.07-.06v0" transform="translate(-43.08 -90.61)"/><path class="a4703c18-2667-40d1-98db-3e895ae23d7b" d="M54.66,220.92l-.19.19h0l.19-.17h0" transform="translate(-43.08 -90.61)"/><path class="b4c7c316-a82e-4b47-ada1-0292d0757be1" d="M54.47,221.11l0,0,0,0h0" transform="translate(-43.08 -90.61)"/></g></g></g><g class="ed2fc0e1-bf6c-47f6-9158-7654bb6d307f"><g class="af309697-9a6c-462d-b6bf-60a1ef60f81f"><g class="ed2fc0e1-bf6c-47f6-9158-7654bb6d307f"><polyline class="a9818359-9f39-46d6-b074-87cd0f316ee1" points="11.65 128.15 11.65 130.26 11.58 130.32 11.58 128.09 11.65 128.15"/><polyline class="a4703c18-2667-40d1-98db-3e895ae23d7b" points="11.58 128.09 11.58 130.32 11.39 130.49 11.39 130.49 11.39 127.91 11.57 128.08 11.58 128.09"/><path class="b4c7c316-a82e-4b47-ada1-0292d0757be1" d="M54.43,218.48l0,.05v2.58l0,0-.13.13v-2.92l.13.12" transform="translate(-43.08 -90.61)"/><path class="b47fae77-6be3-4e44-8acf-222587df531c" d="M54.3,218.36v2.92l-.16.16V218.2l.16.16" transform="translate(-43.08 -90.61)"/><path class="b4bae1b5-2767-4773-ba43-51599bf3866c" d="M54.14,218.2v3.24l-.15.15V218l.15.16" transform="translate(-43.08 -90.61)"/><path class="b36fe0fe-f74d-45a9-a78c-45afe928f66e" d="M54,218v3.55l-.14.14V217.9L54,218" transform="translate(-43.08 -90.61)"/><path class="b228fca3-7bb0-4b98-aaa0-da39a10dda7b" d="M53.85,217.9v3.83l-.14.14v-4.11l.14.14" transform="translate(-43.08 -90.61)"/><path class="f0193b36-f5f5-456b-baeb-acaafb9413da" d="M53.71,217.76v4.11l-.14.14v-4.38l.14.13" transform="translate(-43.08 -90.61)"/><path class="fd6f0ba4-40f6-4e64-89f3-9546fbc88813" d="M53.57,217.63V222l-.13.13v-4.65l.13.14" transform="translate(-43.08 -90.61)"/><path class="b9c9a38e-988e-41c0-8a5f-e16a74538b52" d="M53.44,217.49v4.65l-.13.13v-4.91l.13.13" transform="translate(-43.08 -90.61)"/><path class="e009d54d-7b03-4669-b8f1-ad3224dc42ce" d="M53.31,217.36v4.91l-.13.13v-5.16l.13.12" transform="translate(-43.08 -90.61)"/><path class="f7073726-5dee-4893-9231-5ff729278172" d="M53.18,217.24v5.16l-.12.12v-5.41l.12.13" transform="translate(-43.08 -90.61)"/><path class="f764baa4-5209-4288-89fe-b8bf142cb15b" d="M53.06,217.11v5.41l-.13.13V217l.13.12" transform="translate(-43.08 -90.61)"/><path class="b29039fc-9d1f-4e85-ae58-d146a54d5fe2" d="M52.93,217v5.66l-.12.12v-5.91l.12.13" transform="translate(-43.08 -90.61)"/><path class="a02da361-efce-40ea-84ba-df6feb5f5768" d="M52.81,216.86v5.91l-.13.13v-6.17l.13.13" transform="translate(-43.08 -90.61)"/><path class="b98895a0-7e88-4e34-8f40-00c0ab38a07a" d="M52.68,216.73v6.17l-.13.13V216.6l.13.13" transform="translate(-43.08 -90.61)"/><path class="aa5866cd-4df5-4806-8bdc-0ebc38d041d7" d="M52.55,216.6V223l-.14.14v-6.71l.14.14" transform="translate(-43.08 -90.61)"/><path class="a7c2aec4-c7a9-4968-a987-bd3580e023d2" d="M52.41,216.46v6.71l-.16.16v-7l.16.15" transform="translate(-43.08 -90.61)"/><path class="b7becaf0-2aab-4f7c-a995-4fe129041342" d="M52.25,216.31v7l-.49.49v-8l.49.5" transform="translate(-43.08 -90.61)"/></g></g></g><g class="ed2fc0e1-bf6c-47f6-9158-7654bb6d307f"><g class="f9a4d7f6-e893-424f-bf39-158b50b0d565"><g class="ed2fc0e1-bf6c-47f6-9158-7654bb6d307f"><path class="a9818359-9f39-46d6-b074-87cd0f316ee1" d="M105.25,220.85v0l.14.12h0l-.14-.14" transform="translate(-43.08 -90.61)"/><path class="a86b4593-13ee-4845-bf78-050101716729" d="M105.39,221h0l.16.16-.16-.16" transform="translate(-43.08 -90.61)"/></g></g></g><g class="ed2fc0e1-bf6c-47f6-9158-7654bb6d307f"><g class="a9e5e69a-83c2-4ae5-980e-2edd50f6b4aa"><g class="ed2fc0e1-bf6c-47f6-9158-7654bb6d307f"><polyline class="a9818359-9f39-46d6-b074-87cd0f316ee1" points="62.17 130.26 62.17 128.15 62.3 128.03 62.3 130.38 62.17 130.26"/><path class="a86b4593-13ee-4845-bf78-050101716729" d="M105.55,221.15l-.16-.16v-2.35l.16-.16.07-.06v2.8l-.07-.07" transform="translate(-43.08 -90.61)"/><path class="b7bc77df-8394-4f41-959f-77049b9d65d5" d="M105.62,221.22v-2.8l.28-.28v3.36l-.28-.28" transform="translate(-43.08 -90.61)"/><path class="ef3b22c7-f4ea-47d8-87c8-d92177869924" d="M105.9,221.5v-3.36l.43-.43v4.22l-.43-.43" transform="translate(-43.08 -90.61)"/><path class="f66049d0-c502-4dd1-bf6b-c2a8f20dd203" d="M106.33,221.93v-4.22l.55-.55v5.32l-.55-.55" transform="translate(-43.08 -90.61)"/><path class="ef3b22c7-f4ea-47d8-87c8-d92177869924" d="M106.88,222.48v-5.32l.34-.34v6l-.34-.34" transform="translate(-43.08 -90.61)"/><path class="b7bc77df-8394-4f41-959f-77049b9d65d5" d="M107.22,222.82v-6l.18-.19V223l-.18-.18" transform="translate(-43.08 -90.61)"/><path class="a86b4593-13ee-4845-bf78-050101716729" d="M107.4,223v-6.37l.14-.13v6.64l-.14-.14" transform="translate(-43.08 -90.61)"/><path class="a9818359-9f39-46d6-b074-87cd0f316ee1" d="M107.54,223.14V216.5l.11-.11v6.86l-.11-.11" transform="translate(-43.08 -90.61)"/><path class="a4703c18-2667-40d1-98db-3e895ae23d7b" d="M107.65,223.25v-6.86l.09-.09v7l-.09-.09" transform="translate(-43.08 -90.61)"/><path class="b4c7c316-a82e-4b47-ada1-0292d0757be1" d="M107.74,223.34v-7l.08-.08v7.2l-.08-.08" transform="translate(-43.08 -90.61)"/><path class="b47fae77-6be3-4e44-8acf-222587df531c" d="M107.82,223.42v-7.2l.06-.07v7.33l-.06-.06" transform="translate(-43.08 -90.61)"/><path class="b4bae1b5-2767-4773-ba43-51599bf3866c" d="M107.88,223.48v-7.33l.06-.06v7.45l-.06-.06" transform="translate(-43.08 -90.61)"/><path class="b36fe0fe-f74d-45a9-a78c-45afe928f66e" d="M107.94,223.54v-7.45l0-.05v7.55l0-.05" transform="translate(-43.08 -90.61)"/><path class="b228fca3-7bb0-4b98-aaa0-da39a10dda7b" d="M108,223.59V216l.05,0v7.64l-.05,0" transform="translate(-43.08 -90.61)"/><path class="f0193b36-f5f5-456b-baeb-acaafb9413da" d="M108,223.64V216l0,0v7.72l0,0" transform="translate(-43.08 -90.61)"/><path class="fd6f0ba4-40f6-4e64-89f3-9546fbc88813" d="M108.08,223.68V216l0,0v7.79l0,0" transform="translate(-43.08 -90.61)"/><path class="b9c9a38e-988e-41c0-8a5f-e16a74538b52" d="M108.11,223.71v-7.79l0,0v7.85l0,0" transform="translate(-43.08 -90.61)"/><path class="e009d54d-7b03-4669-b8f1-ad3224dc42ce" d="M108.14,223.74v-7.85l0,0v7.9l0,0" transform="translate(-43.08 -90.61)"/><path class="f7073726-5dee-4893-9231-5ff729278172" d="M108.17,223.77v-7.9l0,0v7.95l0,0" transform="translate(-43.08 -90.61)"/><path class="f764baa4-5209-4288-89fe-b8bf142cb15b" d="M108.19,223.79v-7.95h0v8l0,0" transform="translate(-43.08 -90.61)"/><path class="b29039fc-9d1f-4e85-ae58-d146a54d5fe2" d="M108.21,223.81v-8h0v8h0" transform="translate(-43.08 -90.61)"/><polyline class="a02da361-efce-40ea-84ba-df6feb5f5768" points="65.14 133.2 65.14 125.2 65.14 125.2 65.14 133.21 65.14 133.2"/><polyline class="b98895a0-7e88-4e34-8f40-00c0ab38a07a" points="65.14 133.21 65.14 125.2 65.14 125.2 65.14 133.21 65.14 133.21"/></g></g></g><g class="ed2fc0e1-bf6c-47f6-9158-7654bb6d307f"><g class="a50a076e-7227-4b89-82d6-bb855e2042ef"><g class="ed2fc0e1-bf6c-47f6-9158-7654bb6d307f"><path class="a9818359-9f39-46d6-b074-87cd0f316ee1" d="M105.25,218.78H54.73l-.16-.16h50.85l-.17.16" transform="translate(-43.08 -90.61)"/><path class="a86b4593-13ee-4845-bf78-050101716729" d="M105.42,218.62H54.57l-.3-.3h51.44l-.29.3" transform="translate(-43.08 -90.61)"/><path class="b7bc77df-8394-4f41-959f-77049b9d65d5" d="M105.71,218.32H54.27l-.49-.49h52.43l-.5.49" transform="translate(-43.08 -90.61)"/><path class="ef3b22c7-f4ea-47d8-87c8-d92177869924" d="M106.21,217.83H53.78l-.45-.45h53.32l-.44.45" transform="translate(-43.08 -90.61)"/><path class="b7bc77df-8394-4f41-959f-77049b9d65d5" d="M106.65,217.38H53.33l-.41-.41h54.15l-.42.41" transform="translate(-43.08 -90.61)"/><path class="a86b4593-13ee-4845-bf78-050101716729" d="M107.07,217H52.92l-.22-.21h54.58l-.21.21" transform="translate(-43.08 -90.61)"/><path class="a9818359-9f39-46d6-b074-87cd0f316ee1" d="M107.28,216.76H52.7l-.15-.15h54.88l-.15.15" transform="translate(-43.08 -90.61)"/><path class="a4703c18-2667-40d1-98db-3e895ae23d7b" d="M107.43,216.61H52.55l-.12-.13h55.12l-.12.13" transform="translate(-43.08 -90.61)"/><path class="b4c7c316-a82e-4b47-ada1-0292d0757be1" d="M107.55,216.48H52.43l-.11-.1h55.34l-.11.1" transform="translate(-43.08 -90.61)"/><path class="b47fae77-6be3-4e44-8acf-222587df531c" d="M107.66,216.38H52.32l-.08-.09h55.5l-.08.09" transform="translate(-43.08 -90.61)"/><path class="b4bae1b5-2767-4773-ba43-51599bf3866c" d="M107.74,216.29H52.24l-.08-.07h55.66l-.08.07" transform="translate(-43.08 -90.61)"/><path class="b36fe0fe-f74d-45a9-a78c-45afe928f66e" d="M107.82,216.22H52.16l-.07-.07h55.8l-.07.07" transform="translate(-43.08 -90.61)"/><path class="b228fca3-7bb0-4b98-aaa0-da39a10dda7b" d="M107.89,216.15H52.09l-.05-.06H108l-.06.06" transform="translate(-43.08 -90.61)"/><path class="f0193b36-f5f5-456b-baeb-acaafb9413da" d="M108,216.09H52L52,216h56l0,.05" transform="translate(-43.08 -90.61)"/><path class="fd6f0ba4-40f6-4e64-89f3-9546fbc88813" d="M108,216H52l0,0h56.11l0,0" transform="translate(-43.08 -90.61)"/><path class="b9c9a38e-988e-41c0-8a5f-e16a74538b52" d="M108.05,216H51.94l0,0h56.2l0,0" transform="translate(-43.08 -90.61)"/><path class="e009d54d-7b03-4669-b8f1-ad3224dc42ce" d="M108.09,216H51.89l0,0h56.26l0,0" transform="translate(-43.08 -90.61)"/><path class="f7073726-5dee-4893-9231-5ff729278172" d="M108.12,215.91H51.86l0,0h56.32l0,0" transform="translate(-43.08 -90.61)"/><path class="f764baa4-5209-4288-89fe-b8bf142cb15b" d="M108.15,215.88H51.83l0,0h56.38l0,0" transform="translate(-43.08 -90.61)"/><path class="b29039fc-9d1f-4e85-ae58-d146a54d5fe2" d="M108.18,215.86H51.8l0,0H108.2l0,0" transform="translate(-43.08 -90.61)"/><path class="a02da361-efce-40ea-84ba-df6feb5f5768" d="M108.2,215.83h0" transform="translate(-43.08 -90.61)"/><path class="b98895a0-7e88-4e34-8f40-00c0ab38a07a" d="M108.22,215.82h0" transform="translate(-43.08 -90.61)"/><polyline class="aa5866cd-4df5-4806-8bdc-0ebc38d041d7" points="65.14 125.2 8.67 125.2 8.67 125.2 65.14 125.2 65.14 125.2"/></g></g></g><g class="ed2fc0e1-bf6c-47f6-9158-7654bb6d307f"><g class="fc3e291d-f858-4104-9b66-a4fd4b389690"><g class="ed2fc0e1-bf6c-47f6-9158-7654bb6d307f"><path class="a9818359-9f39-46d6-b074-87cd0f316ee1" d="M54.73,218.78v0l-.07-.06h0l.07.07" transform="translate(-43.08 -90.61)"/><path class="a4703c18-2667-40d1-98db-3e895ae23d7b" d="M54.66,218.71h0l-.18-.17h0l.19.18" transform="translate(-43.08 -90.61)"/><path class="b4c7c316-a82e-4b47-ada1-0292d0757be1" d="M54.47,218.53h0l0-.05,0,.05" transform="translate(-43.08 -90.61)"/></g></g></g><g class="ed2fc0e1-bf6c-47f6-9158-7654bb6d307f"><g class="ae6b1153-3dbc-4441-860d-231ec00ee3a0"><g class="ed2fc0e1-bf6c-47f6-9158-7654bb6d307f"><path class="a9818359-9f39-46d6-b074-87cd0f316ee1" d="M105.25,218.78l.14-.13h0l-.14.12v0" transform="translate(-43.08 -90.61)"/><path class="a86b4593-13ee-4845-bf78-050101716729" d="M105.39,218.65l.16-.17h0l-.16.16h0" transform="translate(-43.08 -90.61)"/></g></g></g><ellipse class="b8bf18e7-3eea-400e-aa09-4a65c391473a" cx="36.91" cy="129.2" rx="27.03" ry="0.75"/></g></svg>